<svg width="485" height="145" viewBox="0 0 485 145" fill="none" xmlns="http://www.w3.org/2000/svg">
<path d="M2.43872 21.9177C2.43872 10.872 11.393 1.91772 22.4387 1.91772H462.439C473.484 1.91772 482.439 10.872 482.439 21.9177V121.918C482.439 132.963 473.484 141.918 462.439 141.918H22.4387C11.393 141.918 2.43872 132.963 2.43872 121.918V21.9177Z" fill="white"/>
<path d="M4.45535 90.6171C4.68083 87.8932 4.53302 96.9866 4.86975 90.9482C4.89251 92.2074 4.91597 93.4743 4.93872 94.7334C4.81401 95.0528 4.68961 95.3799 4.5649 95.6993C4.52818 94.0084 4.49146 92.3166 4.45474 90.6171C4.45494 90.6171 4.45514 90.6171 4.45535 90.6171ZM2.89353 88.3083C3.24923 89.8579 3.34407 94.7815 3.6723 89.4627C3.55023 89.0399 3.42818 88.6069 3.30611 88.1841C3.40079 86.3374 3.49544 84.4795 3.58961 82.6328C3.54307 81.9687 3.49648 81.3054 3.45045 80.6413C3.66258 79.7956 3.87529 78.9574 4.08793 78.1117C4.05689 78.8626 4.0253 79.6237 3.99425 80.3746C4.16651 83.3431 4.21362 85.9845 4.2457 90.0146C4.29589 89.6607 4.34565 89.306 4.39584 88.9522C4.31047 90.9975 4.22488 93.0417 4.13951 95.0784C4.0557 93.3095 3.9625 91.3319 3.88439 89.6926C3.55178 92.3159 3.7369 96.9427 3.80627 99.3511C3.90096 102.631 3.74281 101.889 3.80902 104.323C3.81936 104.711 3.94333 104.755 3.94542 105.523C3.95525 109.399 3.88955 116.925 3.60029 112.523C3.63754 106.145 3.40526 100.706 3.49012 94.4483C3.15566 96.1036 3.04184 92.8071 2.89353 88.3083ZM74.5827 140.398C72.6498 140.56 68.7135 140.495 66.0465 140.382C66.0434 140.382 66.0403 140.382 66.0373 140.382C65.4503 140.357 64.1212 140.141 66.0373 140.15C69.1608 140.165 70.6711 140.505 72.3106 140.274C73.0443 140.317 73.8146 140.355 74.5827 140.398ZM81.3712 140.378C83.2871 140.461 82.4181 140.717 80.019 140.648C80.019 140.648 80.019 140.648 80.019 140.648C79.0178 140.619 80.9832 140.417 77.3928 140.622C76.6595 140.463 75.9375 140.317 75.2128 140.163C76.092 140.16 76.8937 140.156 77.816 140.154C77.1954 140.416 79.4557 140.295 81.3712 140.378ZM3.74493 115.761C3.98127 116.063 3.97977 114.801 4.14378 112.652C4.13602 114.68 4.12774 116.708 4.11997 118.728C3.9948 117.736 3.8701 116.753 3.74493 115.761ZM3.78155 68.1175C3.78155 68.1145 3.78155 68.1114 3.78155 68.1084C3.7443 67.4438 3.70691 66.7774 3.67017 66.1215C3.75451 65.7244 3.83849 65.3319 3.92284 64.9349C3.84367 62.5873 3.7645 60.2272 3.68482 57.8796C3.94246 58.1648 3.90054 62.3788 4.08061 64.7003C4.00299 68.1523 3.85343 69.8157 3.63507 70.04C3.6837 69.4016 3.73293 68.7646 3.78155 68.1175ZM482.123 113.975C482.052 113.19 481.98 112.415 481.909 111.63C481.876 112.674 481.851 113.709 481.814 114.762C482.124 117.515 481.849 117.773 481.869 121.38C481.87 121.563 481.871 121.742 481.872 121.918C481.761 126.997 480.784 128.799 480.119 130.47C479.298 132.058 478.538 133.868 474.736 136.748C477.665 134.213 478.089 132.981 478.471 132.296C478.789 131.556 478.967 131.159 479.749 129.034C480.352 128.232 478.783 132.584 480.212 129.794C481.217 127.273 481.671 124.614 481.582 121.918C481.491 119.095 481.41 116.195 481.343 113.088C481.31 113.269 481.276 113.449 481.242 113.631C481.264 114.614 481.285 115.59 481.306 116.574C481.216 115.512 481.127 114.475 481.036 113.396C481.24 114.759 481.126 111.284 481.361 111.749C481.465 111.957 481.61 113.492 481.71 114.399C481.764 112.06 481.814 109.662 481.867 107.297C481.95 108.522 482.034 109.746 482.117 110.963C482.12 111.964 482.121 112.957 482.124 113.957C482.124 113.963 482.123 113.969 482.123 113.975ZM82.5897 3.32006C85.5587 3.07685 90.954 3.03661 93.7935 3.30725C90.0564 3.31138 86.3268 3.31592 82.5897 3.32006ZM3.45503 70.2654C3.49638 69.9292 3.53727 69.6035 3.57862 69.2674C3.65519 70.7516 3.73123 72.2444 3.8078 73.7286C3.68831 74.0134 3.56881 74.3045 3.44984 74.5979C3.45139 73.157 3.45348 71.7063 3.45503 70.2654ZM34.3254 140.768C33.2396 140.776 33.1435 140.772 31.7912 140.755C31.7928 140.755 31.7943 140.755 31.7958 140.755C31.2599 140.749 26.7748 140.679 27.2748 140.587C29.5015 140.585 31.8767 140.587 34.1552 140.587C34.2243 140.647 34.2392 140.707 34.3254 140.768ZM10.0984 136.097C10.0964 136.095 10.0944 136.093 10.0923 136.091C9.52749 135.579 9.03186 135.053 8.50999 134.468C10.5615 136.392 10.7805 136.861 12.9999 138.169C15.2854 139.37 16.8133 139.724 18.8813 140.513C18.0689 140.414 17.1936 140.266 16.3677 140.054C12.9527 138.624 12.0714 138.118 9.66968 136.326C9.81414 136.251 9.95568 136.174 10.0984 136.097ZM452.577 140.882C451.835 141.058 451.007 140.885 450.921 140.883C450.923 140.883 450.924 140.883 450.926 140.883C444.352 141.046 451.781 140.785 445.577 140.758C446.5 140.714 447.408 140.668 448.323 140.623C449.738 140.708 451.197 140.804 452.577 140.882ZM238.974 140.866C238.913 140.814 238.841 140.763 238.781 140.712C242.509 140.724 243.46 140.522 246.558 140.706C244.03 140.76 241.502 140.813 238.974 140.866C238.974 140.866 238.974 140.866 238.974 140.866ZM53.118 141.141C48.9838 141.239 45.9258 141.282 41.9556 141.127C41.9526 141.126 41.9494 141.126 41.9464 141.126C41.7175 141.116 42.8247 141.009 42.5259 140.982C41.7067 140.998 40.8609 141.023 40.0331 141.042C39.9209 140.956 39.8141 140.87 39.7019 140.785C42.032 140.809 44.3633 140.834 46.702 140.858C46.3567 140.808 46.0032 140.758 45.658 140.708C47.6427 140.682 49.6201 140.656 51.6048 140.63C50.9145 140.771 50.2259 140.912 49.5443 141.053C50.7349 141.083 51.9274 141.111 53.118 141.141ZM301.045 141.426C300.389 141.37 301.604 141.277 300.585 141.229C299.567 141.181 297.689 141.285 298.129 141.128C299.501 141.106 300.941 141.082 302.338 141.06C297.841 140.775 293.355 141.033 293.286 140.681C297.602 140.772 301.15 140.73 305.327 140.633C305.155 140.912 300.976 141.153 303.607 141.415C302.762 141.418 301.874 141.424 301.055 141.426C301.051 141.426 301.048 141.426 301.045 141.426ZM3.91536 9.17581C5.37504 6.6856 10.4208 2.16905 13.9868 1.15592C14.8276 0.794531 17.7928 0.520223 17.786 0.632248C17.7358 0.852968 14.4024 1.76266 18.0326 1.00051C16.8155 1.25786 15.6563 1.61811 14.5117 2.07972C14.7745 2.14124 15.0334 2.20769 15.2813 2.28144C16.6544 1.75581 18.0879 1.37585 19.5454 1.15077C19.624 1.19163 19.7019 1.23307 19.7797 1.27479C14.6199 2.26635 17.689 1.84572 15.1853 2.81472C17.5255 2.02276 20.0117 1.67266 22.4387 1.76832C21.038 1.74779 19.3865 1.93063 18.1765 2.18598C18.067 2.43368 20.9365 1.92439 21.4486 2.00762C22.8654 2.14157 19.9419 2.00823 16.7472 3.03614C13.5073 3.97316 10.424 6.36073 10.1437 6.88934C11.8922 5.50625 13.9723 4.37967 16.127 3.68308C15.5294 3.93958 14.9386 4.2295 14.3741 4.54405C9.62763 6.4062 5.13447 10.9383 3.43139 16.8359C3.29995 17.3706 3.19113 17.9142 3.10659 18.4479C3.25147 18.3103 3.39563 18.1845 3.54306 18.0537C3.39443 18.8533 3.29527 19.6776 3.25006 20.488C3.16277 18.847 2.88022 19.8059 2.75113 21.9177C2.70345 22.9393 2.65192 24.2126 2.57495 25.5607C2.49725 24.3039 2.49028 22.8807 2.45234 21.9177C2.42418 21.1782 2.41357 20.7121 2.29671 20.7863C2.28565 21.1601 2.28356 21.5356 2.29098 21.9177C2.43616 29.2727 2.19511 37.6822 2.40619 44.7257C2.46103 46.5638 2.79057 46.5579 2.76018 50.8795C2.72396 50.7328 2.65856 50.7077 2.61096 50.6128C2.76878 58.0871 2.86313 62.6219 2.7022 70.3896C2.82064 69.941 2.93958 69.4998 3.05802 69.0512C2.99902 67.4027 2.9391 65.7514 2.88011 64.1116C3.07569 62.9899 3.16201 64.6477 3.15994 59.7285C3.15839 55.6979 3.07203 58.0973 3.01407 57.0011C2.93495 55.517 3.0906 54.2144 3.00217 52.6181C2.93438 51.3839 2.77301 52.719 2.81389 49.4998C3.02294 50.7944 3.23881 52.1151 3.45045 53.4183C3.40336 54.2037 3.35555 54.9832 3.30794 55.7686C3.25206 54.9745 3.19691 54.194 3.14102 53.3999C3.2414 56.1961 3.33608 58.8381 3.44008 61.7292C3.13788 60.7884 3.25118 63.7768 3.28689 65.3994C3.34271 67.927 3.13473 65.7615 3.1694 67.4185C3.2046 69.0755 3.43696 70.8627 3.38728 73.8574C3.25277 72.2524 3.13214 74.4358 3.00797 74.0138C2.88381 73.591 2.85631 70.4232 2.72081 73.4665C2.82379 79.318 3.29664 72.9684 3.37325 76.9205C3.46535 81.667 2.69456 82.7966 2.52887 81.3818C2.39847 80.2684 2.42469 76.4374 2.29481 75.3154C2.06041 82.1767 2.52315 82.2363 2.6137 83.4101C2.9433 87.6734 2.06359 84.8096 2.38178 89.8582C2.21727 89.7633 2.06931 89.6864 1.91153 89.5915C1.94154 90.4626 1.98142 91.0409 2.00521 92.0935C2.32575 88.9898 2.31201 91.5302 2.31251 92.8339C2.31354 94.8881 2.46989 91.7153 2.51025 92.259C2.61826 93.7263 2.56922 96.0467 2.71044 94.623C2.64472 95.2617 2.57881 95.954 2.51361 96.6099C2.59549 99.0097 3.28213 104.65 3.14346 99.2821C3.39857 99.7827 3.27595 101.519 3.23714 102.874C3.19837 104.229 3.36084 104.204 3.33083 105.395C3.21077 110.132 2.93286 107.033 2.71502 106.282C2.86507 112.539 2.96435 106.413 3.06473 115.43C3.24222 116.302 3.43161 112.136 3.53407 115.605C3.26675 116.159 3.0647 118.153 2.94891 121.918C2.93121 122.484 2.93928 123.088 2.98501 123.734C3.09896 124.197 3.22971 124.652 3.37612 125.102C3.69385 127.693 2.76796 126.663 5.12436 131.008C3.47285 128.849 4.20468 130.536 6.67918 134.314C7.20827 135.071 5.7863 133.473 6.52705 134.534C6.86622 135.018 7.8647 136.039 8.88526 137.049C9.33735 137.571 11.8398 139.823 14.0319 140.602C12.6693 139.63 16.6168 141.15 13.4628 139.393C16.399 140.958 19.2516 141.347 20.2899 141.477C21.3457 141.534 20.6291 141.851 16.9233 141.13C18.5388 141.693 20.2403 142.047 21.9689 142.18C22.1251 142.174 22.2818 142.166 22.4387 142.157C23.478 142.092 24.5238 142.027 25.5684 141.962C25.7495 142.22 25.5675 142.293 30.2597 142.247C28.2238 142.309 26.1964 142.371 24.1519 142.432C24.0828 142.484 23.7983 142.539 23.8667 142.589C26.3708 142.49 33.4216 142.447 35.1303 142.378C36.8392 142.31 33.539 142.291 34.0311 142.224C38.1297 141.674 37.8049 142.08 40.746 141.985C42.4721 141.929 38.3507 141.868 39.2742 141.845C42.6984 141.757 44.2866 142.05 47.3229 142.054C46.2444 141.888 45.1744 141.719 44.1218 141.551C47.3065 141.56 50.8567 141.562 53.8171 141.508C54.9791 141.488 54.101 141.364 54.2908 141.356C55.2323 141.313 59.064 141.246 59.4695 141.246C62.5231 141.245 62.6102 141.416 65.5773 141.425C64.4126 141.44 63.3173 141.453 62.1785 141.467C61.6607 141.744 61.1325 142.021 60.6147 142.299C63.5228 142.319 66.4321 142.339 69.3487 142.359C67.2173 142.267 65.078 142.174 62.9466 142.082C66.278 141.858 69.6093 141.633 72.9408 141.409C74.6755 141.546 76.4032 141.684 78.1379 141.821C82.8489 141.785 81.9003 141.226 84.1353 141.716C85.5243 141.675 86.9133 141.633 88.3023 141.592C88.1038 141.662 87.9074 141.732 87.709 141.802C89.3833 141.759 91.0571 141.716 92.7313 141.673C90.9709 141.426 89.2452 141.165 87.502 140.925C90.7968 140.871 90.8601 141.081 91.3516 141.134C92.6548 141.272 95.2417 141.085 96.2773 141.214C96.6274 141.258 93.3985 141.396 94.5112 141.555C94.7287 141.586 99.0518 142.172 101.81 142.036C101.758 141.93 101.545 141.8 101.433 141.685C105.143 141.62 107.035 142.174 106.543 142.329C108.519 142.221 111.408 142.212 111.814 142.042C112.823 142.038 113.826 142.034 114.835 142.03C113.783 142.443 117.995 142.367 118.271 142.012C116.536 142.003 114.799 141.994 113.065 141.985C114.376 141.549 109.105 141.286 120.074 141.69C122.171 141.917 116.346 141.659 118.055 141.829C121.024 141.928 123.81 141.845 126.632 142.003C130.144 142.2 125.823 142.389 134.005 142.139C115.958 141.51 136.48 141.714 144.956 141.519C147.286 142.14 154.444 142.336 164.3 142.152C163.273 141.979 160.172 142.068 158.386 142.011C156.599 141.954 158.532 141.852 156.307 141.771C154.081 141.69 149.353 141.58 147.099 141.458C149.008 141.361 158.429 141.129 152.2 141.407C156.85 141.578 159.034 141.754 164.797 141.786C166.523 141.517 166.395 141.349 172.013 141.341C168.691 141.716 175.074 141.976 173.669 142.363C169.685 142.273 171.912 141.897 169.608 141.717C169.372 141.699 165.66 141.793 164.797 141.786C168.543 142.124 169.838 142.25 167.534 142.652C170.183 142.617 171.831 142.667 172.073 142.475C172.625 142.559 173.181 142.642 173.724 142.725C174.586 142.723 175.363 142.716 176.277 142.717C175.018 142.428 177.458 142.606 179.193 142.475C180.928 142.343 178.6 142.114 183.364 142.111C181.776 142.044 180.324 141.985 178.788 141.921C181.86 141.847 184.942 141.772 188.014 141.697C185.856 141.52 181.181 141.258 181.308 141.025C182.723 141.113 187.571 140.958 188.101 140.952C190.156 140.928 189.036 141.075 189.191 141.078C192.419 141.15 195.077 141.1 196.302 141.322C198.727 141.222 200.556 141.279 203.127 141.273C204.543 141.27 204.267 141.107 205.096 141.138C210.602 141.345 205.356 141.556 215.978 141.154C214.692 141.04 213.423 140.924 212.137 140.809C213.337 140.766 214.529 140.723 215.729 140.68C216.532 140.701 217.327 140.721 218.13 140.742C218.113 140.989 218.092 141.236 218.075 141.483C218.955 141.497 219.839 141.51 220.719 141.523C219.209 141.547 217.695 141.572 216.184 141.596C216.047 141.639 215.918 141.683 215.78 141.726C218.024 141.794 220.26 141.861 222.504 141.929C222.547 141.843 222.59 141.757 222.633 141.671C227.69 141.791 227.811 141.863 232.618 141.627C236.32 141.629 239.335 141.27 241.476 141.119C242.244 141.167 243.013 141.216 243.789 141.264C244.281 141.193 244.778 141.122 245.27 141.05C246.245 141.15 247.234 141.249 248.209 141.348C248.753 141.122 249.034 141.052 245.229 140.973C246.532 140.692 253.232 140.816 255.959 140.91C258.028 140.982 255.732 141.216 255.991 141.244C256.855 141.341 260.265 141.257 260.981 141.273C264.01 141.34 266.133 141.328 268.869 141.38C269.402 141.391 270.89 141.539 271.017 141.543C272.001 141.569 274.429 141.641 274.705 141.643C288.952 141.754 273.729 141.11 286.976 141.178C286.579 141.093 286.215 141.009 285.826 140.924C286.827 140.919 287.838 140.914 288.839 140.909C290.108 140.98 288.573 141.109 291.093 141.005C290.929 141.109 290.764 141.214 290.591 141.318C291.687 141.262 292.744 141.206 293.866 141.149C295.626 141.512 302.054 141.594 301.597 142.02C301.442 142.165 296.885 142.314 299.293 142.468C301.25 142.499 299.925 142.326 300.723 142.317C306.489 142.254 306.154 142.496 308.51 142.431C308.881 142.328 309.271 142.222 309.651 142.117C310.539 142.147 311.43 142.178 312.327 142.208C312.534 142.138 312.75 142.068 312.957 141.998C312.12 141.994 311.178 141.989 310.409 141.984C311.481 141.714 321.317 141.592 317.566 141.823C316.038 141.917 313.241 141.877 315.009 142.197C317.641 142.15 320.627 142.103 323.398 142.057C323.484 142.126 323.564 142.195 323.651 142.264C327.384 142.219 323.989 141.944 323.996 141.797C324.85 141.793 325.713 141.789 326.567 141.785C326.929 141.852 327.273 141.921 327.652 141.986C327.687 141.88 328.165 141.633 330.711 141.725C332.347 141.784 329.77 142.052 332.891 142.015C332.657 141.849 331.53 141.648 335.006 141.594C335.351 141.767 335.829 141.926 336.096 142.107C340.419 141.941 342.387 142.208 347.461 142.015C350.68 141.893 355.09 141.459 357.17 142.127C359.525 142.145 358.777 141.979 359.474 141.941C362.763 141.764 365.208 142.081 365.821 142.099C369.729 142.219 371.481 142.109 374.666 142.259C374.493 142.135 374.399 142.018 374.261 141.897C371.344 142.083 369.866 142.074 365.775 142.034C367.147 142.009 368.52 141.984 369.892 141.959C369.667 141.859 369.445 141.758 369.229 141.659C356.576 142.054 359.528 141.429 370.135 141.293C371.05 141.478 371.998 141.664 372.904 141.85C379.032 141.568 381.915 141.813 388.845 141.871C389.669 141.878 392.67 141.771 393.959 141.766C393.938 141.765 393.917 141.764 393.895 141.763C394.697 141.588 393.611 141.507 393.481 141.351C394.18 141.331 394.879 141.311 395.578 141.292C397.139 141.411 396.591 141.509 399.663 141.481C399.248 141.362 398.84 141.243 398.425 141.124C401.791 141.12 403.994 141.249 407.127 141.193C406.601 141.238 406.081 141.283 405.554 141.328C412.372 141.443 406.946 142.143 412.099 141.795C412.427 141.856 412.746 141.917 413.074 141.978C410.951 141.993 408.827 142.008 406.713 142.023C406.67 142.109 406.623 142.195 406.589 142.282C408.859 142.256 411.14 142.229 413.41 142.203C411.753 142.261 410.086 142.319 408.429 142.377C411.061 142.419 413.694 142.46 416.326 142.501C413.53 142.184 417.154 142.145 416.473 141.83C421.133 142.092 424.794 142.437 432.018 142.216C433.45 142.172 432.672 141.953 436.737 142.22C435.753 141.87 440.845 141.706 440.191 141.374C438.776 141.39 437.309 141.4 435.937 141.419C437.499 141.535 437.758 141.852 435.385 141.946C432.356 142.066 427.937 141.846 428.118 142.199C426.91 142.182 425.787 142.172 424.613 142.158C425.096 142.071 425.569 141.983 426.044 141.896C422.705 142.033 420.607 141.988 419.002 141.768C422.98 141.717 426.95 141.667 430.928 141.617C430.342 141.602 429.748 141.587 429.162 141.572C432.174 141.347 429.067 141.134 434.686 141.086C434.651 141.189 434.624 141.292 434.589 141.395C436.635 141.12 442.235 141.121 440.449 140.805C442.14 140.902 442.485 140.963 443.443 140.793C447.905 141.033 450.771 141.338 449.183 141.701C450.839 141.642 452.497 141.584 454.145 141.525C453.187 141.426 452.229 141.327 451.271 141.228C454.153 141.234 457.057 141.24 459.931 141.246C460.207 141.54 454.383 141.335 456.063 141.598C456.399 141.651 457.951 141.538 458.358 141.567C462.656 141.889 455.909 141.656 457.176 141.903C461.677 141.956 460.483 142.176 462.439 142.181C463.272 142.165 464.71 142.171 467.261 141.463C467.508 141.49 467.777 141.508 468.011 141.529C470.979 140.57 470.673 140.44 472.962 139.117C474.36 138.248 476.238 137.172 477.322 135.641C477.419 135.508 476.863 135.933 476.842 135.8C476.787 135.643 477.465 135.099 479.225 132.441C481.605 128.112 480.866 130.012 481.877 127.491C482.31 126.215 482.651 124.02 482.603 121.918C482.57 119.772 482.58 117.724 482.812 116.799C482.752 118.214 482.719 120.017 482.67 121.587C482.685 121.698 482.7 121.808 482.716 121.918C482.789 122.452 482.842 122.976 482.874 123.516C482.898 122.982 482.907 122.453 482.899 121.918C482.852 118.842 482.925 115.827 482.743 113.759C483.068 108.969 482.767 103.612 482.4 105.062C482.453 106.639 482.613 104.924 482.511 107.113C482.426 107.338 482.341 107.574 482.255 107.799C482.266 104.07 482.263 101.481 482.524 103.181C482.53 102.603 482.536 102.03 482.542 101.452C482.354 101.348 482.165 101.256 481.977 101.153C481.955 100.462 481.934 99.7689 481.913 99.0785C481.954 98.3108 481.996 97.5413 482.038 96.7651C482.336 97.8094 482.346 99.5882 482.513 93.702C482.41 93.6847 482.307 93.6594 482.204 93.6422C482.335 88.7142 482.585 88.5842 482.575 82.397C482.933 87.1438 482.299 89.7409 483.016 89.7236C482.969 90.9147 482.921 92.1154 482.874 93.3064C482.978 93.4877 483.083 93.6673 483.187 93.8399C483.132 87.4451 482.448 76.8224 482.901 72.5408C482.846 72.0231 482.798 71.5034 482.738 70.977C483.012 66.7825 482.397 64.9711 482.751 60.7161C482.789 60.2772 483.366 61.1958 483.345 55.6569C483.27 55.7949 483.144 55.8667 483.049 55.9789C483.095 54.7796 483.143 53.5867 483.191 52.3961C483.121 52.1804 483.052 51.9541 482.982 51.7384C482.955 53.7839 482.928 55.8237 482.901 57.8692C482.877 56.1696 482.853 54.459 482.829 52.7594C482.716 54.9769 482.715 55.9771 482.534 54.6405C482.523 52.7158 482.511 50.7885 482.5 48.8638C482.454 48.6656 482.407 48.4688 482.36 48.2705C482.221 49.2026 482.086 50.144 481.945 51.0761C482.058 46.0618 482.065 41.7024 482.337 37.8532C482.383 37.1973 482.564 39.517 482.401 35.0477C482.497 34.9786 482.574 34.8586 482.663 34.7809C482.397 29.3447 482.474 27.535 482.665 21.9177C482.666 21.8802 482.667 21.8424 482.668 21.8046C482.666 21.843 482.665 21.8807 482.663 21.9177C482.52 24.8165 482.573 23.1231 482.542 21.9177C482.536 21.6585 482.52 21.4232 482.498 21.2602C482.452 20.9402 482.461 21.4034 482.446 21.9177C482.432 22.4317 482.417 22.9931 482.382 22.8505C482.359 22.7564 482.313 22.3368 482.261 21.9177C482.15 21.0978 481.995 20.3095 482.001 21.9177C482 21.9729 482 22.0308 481.999 22.0916C482.573 28.9444 481.887 30.8113 482.162 39.6147C482.088 38.2597 482.014 36.8948 481.94 35.5398C481.89 36.1779 481.845 36.7493 481.791 37.4393C481.904 32.5293 481.831 34.9173 481.742 32.8998C481.654 30.8802 481.579 27.2097 481.554 24.7499C481.547 23.9751 481.675 24.7923 481.687 23.0436C481.689 22.763 481.68 22.3678 481.668 21.9177C481.654 20.5053 481.295 18.5875 481.335 18.0162C481.363 17.766 481.716 18.8671 481.871 19.1867C481.976 19.518 482.284 18.9545 481.224 15.5204C480.937 14.186 481.956 17.4901 481.921 17.5765C482.289 18.1611 481.26 13.7383 479.98 12.0457C479.892 11.9072 480.558 13.3876 479.656 11.876C477.38 8.38047 475.572 6.72638 473.441 5.01883C473.056 5.07796 469.989 3.25148 465.721 2.46892C465.49 2.50064 465.273 2.53874 465.048 2.57896C465.71 2.63039 466.372 2.71657 467.031 2.83673C467.728 3.04783 468.458 3.30147 469.103 3.59154C465.098 2.35786 464.304 2.89328 462.439 2.92775C462.383 2.93142 462.326 2.93494 462.267 2.93831C455.032 3.35544 459.417 2.47306 460.722 2.32097C461.302 2.35892 461.87 2.3996 462.439 2.44037C462.786 2.46576 463.129 2.50015 463.473 2.54304C463.377 2.45352 463.279 2.36411 463.189 2.27582C462.928 2.26611 462.678 2.26156 462.439 2.26097C452.812 2.23756 461.417 1.71039 456.054 1.55745C454.638 1.97243 450.601 2.01243 445.457 1.74909C444.887 1.75116 444.316 1.7517 443.746 1.75428C443.651 1.81479 443.653 1.90728 443.498 1.94714C437.301 2.01752 436.197 1.37845 435.61 1.3179C433.004 1.04938 430.974 1.42091 430.206 1.4241C426.97 1.43703 426.029 1.27207 422.948 1.34293C419.635 1.41949 421.9 1.54607 420.892 1.65938C420.084 1.74936 417.47 1.76538 416.39 1.85865C416.819 1.78237 417.296 1.70756 417.724 1.631C414.289 1.52701 411.483 1.42565 407.582 1.4003C403.181 1.95844 399.436 1.01693 400.955 1.78053C404.649 1.83279 406.714 1.91981 408.691 2.11437C406.266 2.1392 403.839 2.16339 401.415 2.18822C400.707 2.10441 400.205 2.02274 399.368 1.93738C397.556 2.11535 393.355 2.03898 391.706 2.09118C383.981 2.33594 386.371 2.6395 379.32 2.12932C384.402 2.07961 384.394 1.83183 389.434 1.86597C388.346 1.689 385.785 1.72567 387.442 1.51351C382.566 1.56577 384.142 1.75518 382.245 1.92334C380.608 2.06831 377.312 2.07643 377.498 2.26482C377.161 2.16124 376.901 2.06096 376.565 1.95752C373.407 1.95855 370.249 1.95862 367.09 1.95966C368.437 1.85152 369.782 1.74319 371.128 1.63558C370.111 1.59473 369.092 1.55405 368.075 1.51321C360.307 1.84955 346.912 1.23312 349.052 2.07806C345.307 2.10496 344.838 1.99899 342.802 1.83912C342.577 1.90326 342.359 1.95662 342.135 2.02801C339.719 1.96086 337.864 2.20169 335.733 2.13909C333.601 2.07697 333.072 1.84949 332.762 2.23186C331.381 2.12218 330.008 2.03107 328.636 1.92914C327.808 2.01601 326.981 2.10187 326.162 2.18822C324.867 2.14269 323.57 2.09735 322.275 2.05181C321.583 2.23434 316.493 2.15566 314.25 2.27824C312.119 2.08149 312.178 1.46201 307.167 1.57302C307.296 1.72666 307.424 1.87986 307.553 2.0335C306.405 2.00143 305.255 1.96945 304.099 1.93738C304.03 1.88723 303.97 1.83708 303.901 1.78693C304.488 1.80245 305.067 1.81789 305.654 1.83393C305.144 1.74907 304.646 1.66459 304.145 1.57973C302.393 1.70545 300.639 1.83119 298.879 1.95691C301.252 2.0521 303.626 2.14735 305.998 2.24254C303.021 2.35535 300.948 2.24283 298.359 2.36857C296.107 2.15645 296.939 2.03422 297.853 1.80402C297.016 1.82368 296.17 1.84265 295.333 1.86231C295.885 1.63208 294.469 1.4949 299.362 1.51351C299.025 1.44785 298.682 1.38524 298.355 1.31699C297.552 1.32733 297.032 1.27183 296.151 1.29715C293.752 1.36649 291.913 1.77088 292.077 1.91266C292.165 1.98693 294.531 1.8449 294.436 1.94989C294.202 2.20593 288.775 2.09097 296.602 2.34813C294.004 2.51112 293.424 2.3882 290.559 2.34111C290.783 2.42643 291.001 2.51121 291.216 2.59653C289.888 2.55721 288.557 2.51804 287.229 2.47873C289.076 2.04047 279.28 1.87585 288.098 1.49245C285.492 1.4728 282.895 1.45303 280.298 1.43234C280.833 1.38733 281.368 1.34277 281.903 1.29776C283.077 1.32156 284.243 1.34497 285.417 1.36825C284.036 1.286 282.653 1.20424 281.273 1.12199C278.011 1.22393 276.732 1.38071 275.239 1.57424C279.035 1.71546 277.795 1.52255 280.753 1.48422C280.65 1.60677 280.786 1.71951 280.528 1.84827C278.999 1.59441 274.013 1.7791 272.856 1.79151C269.337 1.82922 272.097 1.57979 269.743 1.57454C267.386 1.56937 264.607 1.71783 262.683 1.47048C262.717 1.60912 262.871 1.75256 263.009 1.87879C259.341 1.92432 260.073 1.76055 259.693 1.73933C253.634 1.39057 250.347 1.68501 243.416 1.72071C244.297 1.76366 245.186 1.80242 246.075 1.84278C240.846 2.13713 244.368 2.047 248.908 2.14428C244.653 2.11478 242.216 2.36546 239.213 2.43998C236.21 2.51437 231.059 2.38562 229.177 2.28526C233.484 2.12381 238.129 2.23028 242.91 2.18578C242.367 2.04455 241.839 1.92502 241.278 1.76985C238.37 2.06626 236.684 1.86807 235.726 1.82874C232.914 1.7134 233.002 1.96782 231.302 1.69417C231.371 1.78831 231.422 1.86746 231.491 1.95538C225.682 1.91606 219.417 1.74963 215.637 2.09728C215.292 1.87117 215.031 1.65334 214.634 1.42257C212.175 1.59278 210.069 1.41848 207.998 1.45828C205.935 1.49812 206.72 1.68085 204.295 1.75123C203.846 1.76417 202.912 1.6498 201.807 1.73414C200.691 1.81893 196.577 2.44939 196.086 1.89862C194.006 1.89603 192.037 1.8759 190.001 1.86658C191.986 1.83554 193.971 1.80547 195.948 1.77442C194.256 1.64094 192.575 1.50785 190.884 1.37436C190.668 1.49337 190.452 1.61454 190.244 1.73201C185.687 1.87689 182.381 1.6823 177.78 1.72834C177.012 1.73611 178.824 1.97141 175.416 1.91144C172.007 1.85142 169.478 1.41223 163.67 1.58187C163.377 1.59066 161.657 1.92702 159.577 1.69417C159.103 1.64139 161.095 1.5633 160.009 1.49398C158.921 1.42464 154.069 1.36762 153.69 1.20255C153.741 1.26101 154.044 1.32158 154.191 1.38107C153.363 1.40901 152.526 1.43696 151.689 1.46438C151.611 1.36142 151.527 1.25831 151.45 1.15586C146.686 1.39544 144.224 1.78625 137.164 1.65694C139.149 1.80647 141.135 1.9566 143.111 2.10613C143.655 2.00109 144.2 1.89534 144.735 1.79029C147.988 1.8322 151.25 1.87381 154.504 1.91571C155.039 1.79618 155.564 1.67699 156.1 1.55745C156.962 1.57297 157.817 1.58801 158.68 1.60353C158.464 1.68994 158.246 1.7759 158.022 1.86231C159.731 1.8411 161.441 1.81944 163.141 1.79823C159.68 2.30829 153.477 1.75484 153.924 2.18151C153.156 2.11531 152.388 2.04865 151.62 1.98193C151.283 2.18882 149.722 2.12927 146.97 2.09667C147.6 2.19861 148.296 2.29916 148.874 2.40214C146.199 2.2583 141.453 2.27227 138.682 2.21691C137.465 2.19259 138.681 2.04259 138.319 2.02496C136.463 1.93285 132.917 2.19458 132.174 2.17388C127.738 2.0507 124.856 1.55451 120.014 1.88153C125.011 1.96226 122.292 1.92817 124.07 2.10979C124.627 2.16674 131.083 2.28554 122.999 2.23277C122.051 2.22617 107.383 1.88334 112.204 1.62062C109.831 1.70445 107.973 1.80138 105.798 1.89038C100.481 1.19802 102.321 1.84845 103.866 2.20653C102.994 2.20808 102.165 2.21172 101.267 2.21172C103.175 1.83552 93.4571 1.81216 90.1601 2.00207C89.0555 2.0652 92.1443 2.18562 89.5898 2.24254C88.3734 2.21616 86.9934 2.182 85.708 2.15252C87.5722 2.39053 83.9137 2.48226 83.9649 2.72439C81.6262 2.50863 79.8373 2.05129 81.1226 1.80341C79.1896 1.90378 77.2466 2.00403 75.3137 2.10491C76.2113 2.16235 77.1205 2.21928 78.0181 2.27672C71.7003 2.12458 63.577 2.47076 62.2564 1.9621C61.4193 1.96572 60.5732 1.96885 59.736 1.97247C59.4771 2.05837 59.2269 2.14443 58.968 2.23033C55.1799 2.15584 51.4004 2.08084 47.6124 2.00635C50.9853 1.95304 51.7882 1.83077 55.3254 1.93006C53.9623 1.83126 52.5738 1.73193 51.2366 1.63313C45.9115 1.8991 45.1851 2.07391 37.1675 1.99475C36.805 1.99113 30.7471 1.76808 30.54 1.74635C29.591 1.647 31.0315 1.50268 30.609 1.45248C29.4352 1.31173 22.3026 0.958319 22.4407 0.905021C24.1841 0.250948 48.1819 0.242279 54.6723 0.208644C121.992 -0.140106 187.829 0.326478 254.726 0.246789C255.414 0.245556 255.114 0.149001 255.407 0.144865C257.227 0.120615 259.016 0.271097 259.689 0.277305C261.127 0.2901 260.335 0.151068 261.386 0.150969C272.243 0.152521 282.489 0.234277 293.355 0.210475C294.063 0.208923 293.34 0.320161 294.583 0.300497C295.225 0.28973 297.233 0.119069 298.681 0.116485C303.738 0.107692 307.987 0.162405 313.32 0.159818C316.238 0.158274 320.614 0.17278 323.876 0.170194C325.316 0.169094 326.817 0.0910193 328.24 0.0884106C330.26 0.0847884 329.848 0.24306 330.158 0.252892C331.522 0.295831 331.711 0.122117 333.005 0.126251C335.413 0.13453 335.543 0.250512 338.598 0.240686C340.782 0.233441 345.779 0.141868 348.532 0.11496C354.971 0.249487 363.084 0.196079 369.091 0.151579C372.647 0.125199 372.976 0.287588 374.426 0.28707C379.535 0.283925 383.412 0.0765222 388.21 0.0697958C394.578 0.0610328 400.221 0.198174 406.391 0.208034C407.391 0.209585 407.162 0.0607965 408.143 0.0569791C411.777 0.0430076 416.423 0.0159277 419.66 0.0371436C423.267 0.0604589 424.597 0.276427 428.127 0.232446C429.162 0.219387 429.465 0.0300241 431.199 0.00571203C433.969 -0.0325198 437.007 0.134466 438.94 0.153105C441.59 0.177943 439.285 -0.0149733 442.858 0.0108998C443.005 0.0120167 443.54 0.149919 444.307 0.14334C446.543 0.124711 446.321 0.0161138 449.592 0.026463C449.906 0.0278922 454.243 0.159292 454.674 0.159818C456.673 0.161449 460.269 0.190357 462.439 0.188879C463.076 0.188509 463.592 0.213316 463.941 0.231096C466.848 0.4429 467.157 0.598405 467.359 0.601737C467.547 0.662028 467.678 0.637629 469.937 1.66132C472.012 2.3148 473.994 3.26668 475.904 4.61575C475.249 4.188 476.191 4.92441 477.209 5.93192C478.241 6.92878 479.281 8.24609 479.415 8.41862C481.568 11.3403 480.704 9.35429 482.698 13.5608C481.246 10.9064 481.915 12.1414 482.856 14.4597C483.824 16.7845 484.356 20.4236 484.306 21.9177C484.306 21.9676 484.307 22.0149 484.307 22.0594C484.357 33.9865 484.256 44.8283 484.259 56.8159C484.26 60.8291 484.345 66.207 484.343 70.4527C484.343 71.4424 484.247 70.6946 484.245 71.5657C484.244 72.4347 484.351 71.4707 484.346 72.4626C484.308 78.6333 484.105 83.4681 484.359 89.1211C484.322 89.3963 484.293 89.3875 484.253 89.8432C484.48 94.4694 484.175 103.378 484.133 106.727C484.068 111.965 484.221 113.303 484.19 117.108C484.178 118.606 484.143 120.327 484.112 121.918C484.039 125.998 482.776 129.11 483.82 126.7C483.009 130.393 481.279 133.755 478.697 136.56C478.407 136.87 478.511 136.569 478.395 136.691C477.651 137.457 477.469 137.771 476.933 138.262C475.444 139.544 477.82 137.394 475.678 139.19C474.489 140.037 473.96 140.839 470.142 142.405C467.707 143.324 465.08 143.804 462.439 143.802C441.802 143.804 419.888 143.774 399.074 143.759C397.477 143.758 398.528 143.88 396.526 143.872C389.57 143.845 377.118 143.64 371.12 143.668C365.122 143.696 366.475 143.874 362.721 143.949C361.996 143.963 362.591 143.862 361.935 143.86C357.525 143.851 352.267 143.693 348.694 143.669C346.331 143.653 346.52 143.813 344.881 143.824C342.438 143.84 339.924 143.679 338.621 143.674C332.494 143.651 328.282 143.781 322.561 143.715C322.784 143.75 322.932 143.783 323.122 143.817C316.347 143.812 309.581 143.806 302.807 143.8C303.126 143.832 303.435 143.865 303.754 143.897C295.806 143.88 296.713 143.532 297.412 144.266C296.834 144.292 296.221 144.322 295.669 144.346C295.893 143.968 291.085 143.691 284.966 143.594C284.518 143.587 281.506 143.956 281.834 143.52C281.049 143.627 280.581 143.7 279.916 143.794C278.622 143.662 277.31 143.532 276.016 143.4C275.317 143.42 274.609 143.439 273.91 143.459C273.806 143.544 273.886 143.633 273.661 143.717C270.417 143.729 263.762 143.624 261.197 143.635C254.828 143.662 248.343 143.893 243.389 143.644C240.976 143.669 243.372 143.837 239.783 143.815C239.378 143.731 238.996 143.649 238.574 143.562C235.64 143.941 235.028 143.71 231.008 143.631C228.289 143.577 226.509 143.67 223.92 143.652C223.264 143.647 223.357 143.536 222.909 143.54C221.406 143.551 217.117 143.704 216.056 143.708C206.442 143.749 198.183 143.731 189.026 143.691C188.042 143.686 189.318 143.796 188.299 143.792C186.661 143.784 187.625 143.616 186.676 143.607C184.028 143.585 184.008 143.763 180.315 143.772C168.155 143.803 154.173 143.669 141.47 143.657C141.073 143.657 141.096 143.762 140.665 143.763C137.852 143.768 135.005 143.627 132.45 143.628C128.213 143.63 125.028 143.777 120.842 143.776C112.66 143.776 105.35 143.701 96.935 143.697C90.0478 143.693 84.0662 143.707 76.5143 143.706C58.6276 143.705 40.5426 143.802 22.4387 143.863C10.7386 144.189 0.145599 133.619 0.450132 121.918C0.456959 117.122 0.471783 112.332 0.497108 107.552C0.501761 106.706 0.593865 107.05 0.589876 106.793C0.550033 104.342 0.42576 104.123 0.686002 103.251C0.634713 100.129 0.439196 99.1435 0.453164 95.3727C0.460488 93.363 0.763523 94.8634 0.607271 91.4634C0.466017 88.3932 0.299941 91.7812 0.469643 82.6512C0.474308 82.4095 0.65902 81.2198 0.610933 79.3213C0.563326 77.4139 0.431062 79.6218 0.391217 75.0302C0.298084 64.2509 0.45775 50.6066 0.408611 38.0752C0.405506 37.2898 0.306755 29.7259 0.261218 28.2328C0.172736 25.3433 0.0354724 25.947 0.00183177 22.194C0.00100565 22.1014 0.000364542 22.0093 -0.000103712 21.9177C0.0225685 18.8083 0.606672 16.1672 2.04946 12.7799C2.25242 12.3916 2.30079 11.5683 3.91536 9.17581ZM481.813 101.461C481.656 100.753 481.078 99.4759 481.254 95.1967C481.271 94.7911 481.668 96.9808 481.731 94.6172C481.773 96.9301 481.787 99.1825 481.814 101.461C481.813 101.461 481.813 101.461 481.813 101.461ZM21.6677 3.13538C18.6567 3.22321 15.6597 4.05395 13.0258 5.54249C14.7984 4.43944 16.7675 3.62996 18.8181 3.1659C19.7774 3.08269 20.7212 3.07486 21.6677 3.13538ZM259.022 140.99C259.019 140.99 259.016 140.99 259.013 140.99C262.379 140.915 265.747 140.841 269.113 140.766C268.759 140.821 268.404 140.876 268.05 140.931C265.393 141.017 262.733 141.104 260.084 141.19C259.731 141.123 259.376 141.057 259.022 140.99ZM232.429 141.571C230.28 141.505 230.806 141.395 229.624 141.288C229.624 141.289 229.624 141.289 229.624 141.289C229.311 141.261 227.858 141.237 227.296 141.233C227.503 141.301 227.771 141.369 227.995 141.438C222.981 141.604 213.175 141.012 225.871 140.774C225.681 140.86 225.499 140.947 225.309 141.034C231.618 141.01 238.652 141.198 232.429 141.571ZM481.563 50.7311C481.278 45.3455 481.218 43.6186 481.413 37.0851C481.494 38.008 481.575 38.931 481.655 39.8539C481.573 40.9327 481.491 42.0037 481.409 43.0826C481.409 43.0856 481.409 43.0887 481.409 43.0918C481.495 43.3075 481.582 43.5239 481.668 43.7311C481.633 46.0611 481.598 48.4011 481.563 50.7311ZM26.2721 141.365C24.7709 140.797 25.2041 141.127 29.4916 140.999C30.9761 140.954 29.5294 140.855 30.4528 140.838C35.4398 140.748 35.8386 141.129 34.7255 141.327C31.9033 141.34 29.0518 141.353 26.2813 141.365C26.2783 141.365 26.2752 141.365 26.2721 141.365ZM2.87339 27.7775C2.87339 27.7744 2.87339 27.7714 2.87339 27.7683C3.01204 27.6389 3.04933 29.6492 3.18069 27.382C3.18017 29.1069 3.17907 30.8318 3.17855 32.5653C3.16564 32.0569 3.15333 31.5376 3.14041 31.0292C3.0928 31.478 3.04459 31.928 2.99698 32.3768C3.15635 32.9895 3.06371 33.5588 3.01041 35.3709C3.18065 34.8703 3.35101 34.3721 3.52125 33.8715C3.47055 35.977 3.41967 38.09 3.36897 40.1955C3.32607 40.2213 3.2831 40.2478 3.2402 40.2737C3.29503 41.0674 3.35046 41.8532 3.40529 42.6469C3.35407 42.8626 3.30332 43.0705 3.2521 43.2862C3.29089 44.2438 3.32966 45.2031 3.36897 46.1607C3.24491 46.4522 3.19128 44.3415 3.2228 48.0832C3.09552 46.9355 2.96863 45.7901 2.84135 44.6338C2.8517 39.0153 2.86253 33.396 2.87339 27.7775ZM65.2784 141.19C59.0904 141.214 60.8332 141.124 62.2659 140.843C63.2667 140.958 64.2776 141.074 65.2784 141.19ZM384.089 141.441C385.885 141.249 387.687 141.059 389.526 140.873C393.185 140.766 396.846 141.116 394.093 141.253C390.779 141.418 387.317 141.234 384.089 141.441ZM467.248 140.756C462.968 141.507 466.969 140.584 467.819 140.132C468.999 139.992 470.611 139.46 472.871 138.048C470.809 139.47 467.961 140.625 467.248 140.756C467.248 140.756 467.248 140.756 467.248 140.756ZM312.038 141.225C310.243 141.231 308.459 141.284 306.854 141.219C307.338 141.036 310.548 141.203 308.252 140.93C309.4 140.926 310.549 140.921 311.688 140.916C310.964 141.029 311.938 141.113 312.033 141.224C312.034 141.224 312.036 141.225 312.038 141.225ZM125.234 140.974C128.756 141.191 129.423 141.098 132.97 140.947C133.47 141.124 129.241 141.421 126.591 141.486C126.142 141.315 125.692 141.144 125.234 140.974ZM129.566 2.77108C130.412 2.54553 136.65 2.51611 139.749 2.58279C139.38 2.61625 139.01 2.65015 138.641 2.68411C135.62 2.71308 132.587 2.7421 129.566 2.77108ZM473.92 137.336C473.559 137.597 473.207 137.834 472.871 138.048C473.242 137.804 473.595 137.561 473.92 137.336ZM424.986 1.71644C426.461 1.50379 422.076 1.43235 427.4 1.51565C427.4 1.51544 427.4 1.51524 427.4 1.51504C430.922 1.56989 431.699 1.58453 434.962 1.60109C433.787 1.87427 427.169 1.97192 436.291 2.02832C436.411 2.02857 436.172 1.86602 437.629 1.88825C438.079 1.89516 439.519 2.02857 441.709 2.06738C442.416 2.0798 447.735 2.12094 440.485 2.12353C440.701 2.31395 440.312 2.5067 440.329 2.69143C437.499 2.74512 435.324 2.37224 432.331 2.38139C427.886 2.39588 425.624 2.77294 424.77 2.27824C428.507 2.1567 434.925 2.15378 435.762 2.45127C439.378 2.45489 440.416 2.21116 437.5 2.09057C425.012 2.24374 434.072 1.72878 423.137 1.92334C423.007 1.99214 422.558 2.06618 422.626 2.13085C419.288 1.88874 424.459 1.7925 424.986 1.71644ZM451.1 2.24254C448.943 2.38795 446.792 2.53452 444.643 2.68045C444.643 2.44345 445.828 2.23079 449.228 2.09728C449.849 2.14588 450.479 2.19445 451.1 2.24254ZM269.595 2.30479C269.285 2.43364 268.456 2.55171 267.852 2.67434C267.196 2.56568 251.661 2.46143 259.564 2.35484C260.712 2.33931 267.714 2.56715 269.595 2.30479ZM100.785 141.168C102.614 141.254 104.437 141.341 106.258 141.427C103.454 141.482 100.649 141.538 97.8457 141.594C98.828 141.452 99.8023 141.31 100.785 141.168ZM413.874 141.667C413.101 141.662 415.668 141.485 412.623 141.513C414.893 141.399 417.019 141.303 419.237 141.197C419.902 141.281 420.573 141.364 421.238 141.448C421.755 141.394 422.284 141.341 422.801 141.287C422.491 141.409 422.214 141.528 421.886 141.652C418.149 141.391 417.292 141.687 413.874 141.667ZM302.752 142.144C302.08 141.879 307.491 141.721 302.168 141.679C303.177 141.504 304.801 141.413 307.917 141.397C308.417 141.464 308.916 141.53 309.416 141.597C309.485 141.418 310.287 141.352 312.038 141.225C312.039 141.225 312.041 141.225 312.042 141.225C316.779 141.213 316.496 141.272 317.635 141.565C312.62 141.4 312.47 141.668 309.053 141.827C306.705 141.937 303.64 141.887 302.752 142.144ZM286.148 2.30174C282.602 2.52578 285.784 2.73475 279.493 2.49674C279.899 2.43982 280.306 2.38338 280.712 2.32646C282.524 2.31766 284.336 2.3095 286.148 2.30174ZM285.251 141.235C285.657 141.645 288.996 141.965 289.566 141.297C286.312 141.161 287.901 141.539 285.251 141.235ZM465.908 141.7C464.3 141.97 463.167 141.955 462.439 141.906C460.747 141.783 461.189 141.562 462.439 141.391C462.719 141.352 463.038 141.31 463.378 141.261C463.767 141.327 464.159 141.382 464.546 141.425C465.611 141.272 466.662 141.033 467.681 140.71C467.116 141.066 466.523 141.398 465.908 141.7ZM174.948 141.686C179.729 141.393 169.786 141.523 173.126 141.34C175.793 141.193 179.308 141.489 177.979 141.674C177.055 141.679 176.027 141.683 174.957 141.686C174.954 141.686 174.951 141.686 174.948 141.686ZM202.617 141.602C201.832 141.289 202.963 141.38 199.186 141.436C198.107 141.452 189.534 141.335 193.133 141.594C196.196 141.594 199.433 141.599 202.617 141.602ZM482.061 77.5402C482.197 77.4826 482.497 84.0839 482.422 84.9312C482.422 84.9312 482.423 84.9312 482.423 84.9312C482.218 87.2183 482.189 80.255 481.909 83.2754C482.156 76.5869 481.559 74.5859 482.345 75.052C482.38 78.992 482.218 77.1266 482.061 77.5402ZM47.663 2.12841C47.6599 2.12841 47.6569 2.12841 47.6538 2.12841C48.0971 2.13483 51.7498 2.33518 51.3056 2.40458C46.913 2.34508 47.6959 2.2132 43.6065 2.42991C43.3823 2.36011 43.1902 2.29241 42.9488 2.22209C44.5714 2.1807 45.4708 2.09684 47.663 2.12841ZM252.799 2.02954C254.413 1.99383 257.358 2.14178 259.196 2.13299C253.345 2.70115 246.352 2.17133 252.799 2.02954ZM2.89292 88.2945C2.89313 88.2991 2.89333 88.3037 2.89353 88.3083C2.89323 88.3069 2.89293 88.305 2.89262 88.3037C2.89272 88.3006 2.89282 88.2975 2.89292 88.2945ZM377.866 2.3704C377.658 2.33352 377.541 2.30148 377.498 2.27336C377.498 2.27072 377.498 2.26807 377.498 2.26543C377.611 2.29996 377.731 2.33489 377.866 2.3704ZM482.02 63.8206C482.21 61.0712 482.513 70.2317 482.44 73.1939C482.354 72.9868 482.275 72.9545 482.175 72.4718C482.4 70.0809 481.988 64.278 482.02 63.8206ZM343.101 141.568C350.342 141.574 340.918 142.325 340.53 141.726C340.544 141.714 342.914 141.57 343.101 141.568ZM482.098 120.925C482.261 122.244 482.338 120.725 482.355 121.918C482.354 122.393 482.372 123.301 482.115 124.965C482.005 125.297 481.886 125.623 481.759 125.943C482.015 124.617 482.132 123.265 482.112 121.918C482.108 121.587 482.103 121.256 482.098 120.925ZM390.538 142.555C399.651 142.429 408.368 142.205 402.431 141.577C401.742 141.598 401.042 141.617 400.352 141.637C400.249 141.943 397.704 141.776 393.978 141.766C393.447 141.888 391.381 141.916 390.993 142.019C390.243 142.219 392.617 142.359 390.538 142.555ZM7.53003 135.458C7.66811 135.532 7.80454 135.602 7.94301 135.672C8.97717 136.676 10.118 137.567 11.3326 138.319C11.0854 138.273 10.8371 138.221 10.589 138.164C9.48321 137.369 8.46184 136.466 7.53604 135.465C7.53403 135.462 7.53203 135.46 7.53003 135.458ZM459.981 1.59651C459.478 1.94674 460.353 2.04447 462.439 2.00172C463.771 1.97696 465.626 2.00808 467.888 2.52071C466.129 1.98461 464.292 1.69247 462.439 1.65183C461.619 1.63339 460.8 1.61495 459.981 1.59651ZM244.088 142.322C243.898 142.159 243.712 141.996 243.513 141.832C240.398 142.003 240.976 142.19 242.469 142.406C243.012 142.378 243.545 142.35 244.088 142.322ZM199.209 142.392C200.501 142.426 199.842 142.294 199.977 142.297C203.248 142.366 203.708 142.426 207.722 142.327C208.214 142.292 208.697 142.256 209.189 142.22C207.334 141.878 205.987 142.065 202.06 141.863C202.768 141.981 203.473 142.098 204.18 142.216C201.997 142.192 199.823 142.167 197.64 142.142C197.381 142.178 197.122 142.214 196.863 142.251C197.64 142.297 198.441 142.349 199.209 142.392ZM2.448 119.997C2.46145 117.874 2.47544 115.741 2.48889 113.618C2.40455 113.54 2.31964 113.466 2.2353 113.388C2.30618 115.588 2.37712 117.797 2.448 119.997ZM416.39 1.85865C416.221 1.88857 416.057 1.91867 415.911 1.94928C415.926 1.91197 416.11 1.88285 416.39 1.85865ZM42.0611 1.66579C39.6535 1.60681 36.1842 1.64553 33.5433 1.63313C33.7509 1.84472 40.463 1.78623 42.82 1.91449C43.1987 1.87653 43.0788 1.69061 42.0611 1.66579ZM457.254 141.98C456.65 142.085 456.047 142.19 455.451 142.296C453.993 142.285 452.531 142.273 451.064 142.261C451.021 142.348 450.978 142.435 450.935 142.521C457.398 142.409 455.908 142.658 459.108 142.904C458.487 142.596 457.876 142.288 457.254 141.98ZM1.89993 52.4433C1.9584 57.1125 2.06762 58.7686 2.32685 56.1365C2.26736 54.4886 2.20782 52.831 2.14833 51.1831C2.06556 51.6059 1.9827 52.0292 1.89993 52.4433ZM331.354 1.66334C327.447 1.76021 327.382 1.4123 323.563 1.60658C325.608 1.67073 327.653 1.7356 329.689 1.79975C330.239 1.75439 330.804 1.70871 331.354 1.66334ZM483.649 51.0485C483.77 49.4 483.194 46.3186 483.619 41.6844C483.492 40.58 483.371 39.8878 483.247 38.9386C483.382 38.3863 483.519 37.7588 483.653 37.2323C483.653 37.2293 483.653 37.2262 483.653 37.2231C483.607 33.0199 483.438 35.7451 483.295 35.6502C483.235 35.6056 483.334 32.4861 483.205 33.4609C482.983 35.1439 483.111 41.4326 482.84 41.4498C482.929 39.2404 482.855 34.926 482.674 36.2021C482.476 37.6001 482.808 41.6661 482.644 44.2554C483.076 40.545 482.943 48.2083 482.61 49.08C482.866 53.5765 482.97 49.4436 482.958 44.8349C483.212 47.6484 483.075 43.507 483.286 42.825C483.414 45.7263 483.308 55.6827 483.649 51.0485ZM352.58 142.659C355.688 142.642 360.543 142.788 362.671 142.573C363.91 142.448 359.043 142.351 362.399 142.154C359.371 142.173 358.681 142.25 359.198 142.422C358.508 142.443 357.809 142.463 357.119 142.483C356.8 142.45 356.473 142.417 356.154 142.383C355.791 142.454 355.427 142.524 355.073 142.595C354.34 142.581 353.598 142.567 352.865 142.553C352.779 142.588 352.632 142.619 352.58 142.659ZM219.165 1.67403C220.027 1.67196 220.882 1.6699 221.745 1.66731C221.65 1.62535 221.536 1.58166 221.427 1.53853C221.349 1.50446 221.271 1.47038 221.193 1.43631C221.693 1.55805 225.804 1.7604 227.535 1.63039C228.406 1.56516 226.425 1.3336 230.115 1.29318C227.441 1.30509 224.963 1.33669 222.366 1.35635C222.599 1.28753 222.822 1.21797 223.056 1.14915C223.054 1.14905 223.052 1.14895 223.051 1.14884C222.188 1.13333 221.315 1.11706 220.452 1.10154C220.021 1.29249 219.596 1.48308 219.165 1.67403ZM246.618 142.645C249.561 142.51 250.546 142.44 249.157 142.222C249.154 142.222 249.15 142.222 249.147 142.222C248.051 142.318 246.955 142.415 245.859 142.512C246.109 142.556 246.359 142.601 246.618 142.645ZM391.039 1.13786C384.782 1.96732 398.873 1.45885 396.19 1.17631C396.069 1.16337 391.626 1.22945 391.039 1.13786ZM467.098 141.717C465.577 142.08 464.01 142.265 462.439 142.271C462.258 142.272 462.076 142.272 461.895 142.273C462.075 142.319 462.257 142.365 462.439 142.412C462.665 142.467 462.893 142.519 463.118 142.568C464.477 142.416 465.815 142.129 467.098 141.717ZM1.52336 72.772C1.29568 74.5797 1.21319 79.2199 1.4608 81.4876C1.48978 80.2965 1.5188 79.105 1.54778 77.914C1.57622 80.1656 1.60754 82.3921 1.63444 84.6611C1.95165 84.7819 1.76762 82.167 1.85507 78.2313C1.86918 77.622 2.26292 73.7263 1.96615 72.3811C1.90515 72.1104 1.86368 76.2546 1.68632 73.3745C1.67236 74.6339 1.67546 75.7209 1.6677 76.9113C1.59215 76.9976 1.51652 77.0831 1.44097 77.1781C1.46832 75.706 1.49601 74.244 1.52336 72.772ZM370.673 142.634C374.942 142.651 375.469 142.525 376.358 142.301C374.373 142.326 372.387 142.351 370.402 142.376C370.497 142.462 370.579 142.548 370.673 142.634ZM1.45073 110.927C1.4141 113.264 1.59642 112.263 1.63108 113.204C1.7516 116.491 1.64937 118.811 1.69776 121.918C1.70172 122.183 1.71165 122.452 1.72834 122.726C1.68401 122.486 1.64639 122.265 1.61094 122.03C1.61095 122.034 1.61097 122.037 1.61099 122.04C1.98807 130.198 4.47477 131.982 3.85254 131.218C3.52539 130.434 1.76827 126.629 1.81053 121.918C1.80996 121.281 1.80762 120.633 1.8032 119.979C1.87098 119.746 1.93886 119.522 2.00613 119.289C1.88763 114.836 1.77362 110.729 1.45073 110.927ZM446.63 1.10948C446.44 1.06705 448.054 0.7974 445.025 0.923635C442.626 1.31733 446.56 1.12193 447.545 1.27335C446.725 1.31112 445.887 1.34787 445.075 1.38565C449.978 1.4969 450.693 1.40329 448.906 1.11558C448.779 1.09625 446.82 1.15178 446.63 1.10948ZM414.412 0.915396C413.739 1.49547 419.926 1.23463 419.701 1.05455C418.847 1.04737 418.183 1.14559 417.277 1.10215C416.363 1.05869 416.129 0.923199 414.412 0.915396ZM483.299 119.725C483.302 119.543 483.546 117.722 483.355 117.903C483.136 118.994 483.091 120.62 483.121 121.918C483.153 123.347 483.118 124.403 483.25 123.987C483.32 123.223 483.328 122.581 483.314 121.918C483.299 121.258 483.287 120.579 483.3 119.725C483.3 119.725 483.299 119.725 483.299 119.725ZM1.38665 44.6154C1.37047 44.7016 1.27247 49.2446 1.36346 49.8309C1.4659 50.314 1.57568 50.5539 1.68174 50.9163C1.58342 48.4134 1.65832 43.3472 1.38665 44.6246C1.38665 44.6215 1.38665 44.6185 1.38665 44.6154Z" fill="black"/>
</svg>
