<svg width="100" height="98" viewBox="0 0 100 98" fill="none" xmlns="http://www.w3.org/2000/svg">
<path d="M50.0004 0C22.3895 0 0 22.3855 0 50.0004C0 72.0918 14.3266 90.8344 34.1934 97.4457C36.6922 97.9086 37.6098 96.3609 37.6098 95.0402C37.6098 93.848 37.5629 89.9094 37.5418 85.7316C23.6316 88.7559 20.6965 79.832 20.6965 79.832C18.4219 74.0527 15.1445 72.5156 15.1445 72.5156C10.6082 69.4125 15.4867 69.4766 15.4867 69.4766C20.5074 69.8289 23.1512 74.6289 23.1512 74.6289C27.6109 82.2727 34.8484 80.0629 37.7016 78.7852C38.1504 75.5539 39.4461 73.3477 40.8762 72.0992C29.7703 70.8352 18.0957 66.5477 18.0957 47.3891C18.0957 41.9301 20.0488 37.4695 23.2473 33.968C22.7281 32.7086 21.0168 27.6234 23.7316 20.7359C23.7316 20.7359 27.9305 19.3922 37.4855 25.8613C41.4738 24.7535 45.7512 24.198 50.0004 24.1789C54.2496 24.198 58.5305 24.7531 62.5262 25.8613C72.0695 19.3926 76.2625 20.7363 76.2625 20.7363C78.984 27.623 77.2719 32.709 76.7527 33.968C79.9586 37.4695 81.8984 41.9301 81.8984 47.3891C81.8984 66.5934 70.2016 70.8219 59.0676 72.0598C60.8609 73.6113 62.459 76.6543 62.459 81.3191C62.459 88.009 62.4012 93.3934 62.4012 95.0402C62.4012 96.3711 63.3012 97.9301 65.8355 97.4387C85.6914 90.8203 100 72.0848 100 50.0008C100 22.3855 77.6137 0 50.0004 0ZM18.727 71.2266C18.6168 71.475 18.2258 71.5496 17.8699 71.3789C17.507 71.216 17.3035 70.8773 17.4207 70.6281C17.5285 70.3723 17.9203 70.3008 18.282 70.4723C18.6453 70.6355 18.8523 70.9773 18.727 71.2266ZM21.1863 73.4211C20.948 73.6422 20.4816 73.5395 20.1652 73.1902C19.8383 72.8418 19.777 72.3754 20.0188 72.1512C20.2648 71.9301 20.7168 72.0336 21.0445 72.382C21.3719 72.7348 21.4352 73.1977 21.1863 73.4211ZM22.8738 76.2289C22.5672 76.4418 22.0664 76.2422 21.7566 75.7977C21.4504 75.3531 21.4504 74.8199 21.7633 74.6063C22.0738 74.3926 22.5672 74.5848 22.8809 75.0262C23.1863 75.4781 23.1863 76.0113 22.8734 76.2293M25.7266 79.4812C25.4527 79.7836 24.8687 79.7023 24.4414 79.2898C24.0043 78.8867 23.8828 78.3148 24.1578 78.0125C24.4352 77.7094 25.0223 77.7945 25.4527 78.2039C25.8863 78.6062 26.0191 79.1824 25.7266 79.4812ZM29.4148 80.5789C29.2938 80.9707 28.7312 81.1488 28.1652 80.9824C27.5996 80.8109 27.2297 80.3523 27.3438 79.9566C27.4613 79.5621 28.0262 79.377 28.5965 79.5551C29.1613 79.7254 29.5324 80.1809 29.4148 80.5793M33.6117 81.0453C33.6258 81.4574 33.1457 81.7992 32.5512 81.807C31.9535 81.8203 31.4695 81.4867 31.4629 81.0805C31.4629 80.6645 31.9324 80.3258 32.5305 80.3156C33.125 80.3039 33.6117 80.6352 33.6117 81.0453ZM37.7348 80.8871C37.8059 81.2895 37.393 81.7027 36.8023 81.8129C36.2223 81.9187 35.6848 81.6703 35.6109 81.2715C35.5391 80.859 35.9598 80.4457 36.5391 80.3391C37.1305 80.2363 37.6594 80.4781 37.7348 80.8871Z" fill="#FCD116"/>
</svg>
