<svg preserveAspectRatio="none" width="100%" height="100%" overflow="visible" style="display: block;" viewBox="0 0 32.6706 27.0253" fill="none" xmlns="http://www.w3.org/2000/svg">
<g id="Group">
<path id="Vector" d="M11.3902 21.5211V4.16949L31.1706 1.50001V18.8516" stroke="var(--stroke-0, black)" stroke-opacity="0.8" stroke-width="3" stroke-linejoin="round"/>
<path id="Vector_2" d="M6.4451 25.5253C9.1762 25.5253 11.3902 23.7326 11.3902 21.5211C11.3902 19.3096 9.1762 17.5169 6.4451 17.5169C3.71399 17.5169 1.5 19.3096 1.5 21.5211C1.5 23.7326 3.71399 25.5253 6.4451 25.5253Z" stroke="var(--stroke-0, black)" stroke-opacity="0.8" stroke-width="3" stroke-linejoin="round"/>
<path id="Vector_3" d="M26.2255 22.8558C28.9566 22.8558 31.1706 21.0631 31.1706 18.8516C31.1706 16.6401 28.9566 14.8474 26.2255 14.8474C23.4944 14.8474 21.2804 16.6401 21.2804 18.8516C21.2804 21.0631 23.4944 22.8558 26.2255 22.8558Z" stroke="var(--stroke-0, black)" stroke-opacity="0.8" stroke-width="3" stroke-linejoin="round"/>
</g>
</svg>
