<svg width="100" height="100" viewBox="0 0 100 100" fill="none" xmlns="http://www.w3.org/2000/svg">
<path d="M76.5625 0H23.4375C10.4933 0 0 10.4933 0 23.4375V76.5625C0 89.5067 10.4933 100 23.4375 100H76.5625C89.5067 100 100 89.5067 100 76.5625V23.4375C100 10.4933 89.5067 0 76.5625 0Z" fill="#00FFB2"/>
<path d="M76.5625 0H23.4375C10.4933 0 0 10.4933 0 23.4375V76.5625C0 89.5067 10.4933 100 23.4375 100H76.5625C89.5067 100 100 89.5067 100 76.5625V23.4375C100 10.4933 89.5067 0 76.5625 0Z" fill="#00FFB2"/>
<path d="M50.0036 10.9375C39.395 10.9375 38.0633 10.984 33.8969 11.1734C29.7383 11.3641 26.8997 12.0223 24.4161 12.9883C21.8465 13.9859 19.6672 15.3207 17.4962 17.4926C15.3231 19.6641 13.9883 21.8434 12.9876 24.4117C12.0188 26.8961 11.3598 29.7359 11.1727 33.8926C10.9864 38.0594 10.9376 39.3914 10.9376 50.0004C10.9376 60.6094 10.9844 61.9367 11.1735 66.1031C11.3649 70.2617 12.0231 73.1004 12.9883 75.584C13.9868 78.1535 15.3215 80.3328 17.4934 82.5039C19.6641 84.677 21.8434 86.0148 24.411 87.0125C26.8965 87.9785 29.7356 88.6367 33.8934 88.8273C38.0602 89.0168 39.3907 89.0633 49.9989 89.0633C60.6087 89.0633 61.936 89.0168 66.1024 88.8273C70.261 88.6367 73.1028 87.9785 75.5883 87.0125C78.1567 86.0148 80.3329 84.677 82.5032 82.5039C84.6762 80.3328 86.0106 78.1535 87.0118 75.5852C87.9719 73.1004 88.6313 70.2609 88.8266 66.1039C89.0137 61.9375 89.0626 60.6094 89.0626 50.0004C89.0626 39.3914 89.0137 38.0602 88.8266 33.8934C88.6313 29.7348 87.9719 26.8965 87.0118 24.4129C86.0106 21.8434 84.6762 19.6641 82.5032 17.4926C80.3305 15.3199 78.1575 13.9852 75.586 12.9887C73.0958 12.0223 70.2555 11.3637 66.0969 11.1734C61.9301 10.984 60.6036 10.9375 49.9915 10.9375H50.0036ZM46.4993 17.977C47.5395 17.9754 48.7001 17.977 50.0036 17.977C60.4337 17.977 61.6696 18.0145 65.7883 18.2016C69.5969 18.3758 71.6641 19.0121 73.0411 19.5469C74.8641 20.2547 76.1637 21.1012 77.5301 22.4688C78.8973 23.8359 79.7434 25.1379 80.4532 26.9609C80.988 28.3359 81.6251 30.4031 81.7985 34.2117C81.9856 38.3297 82.0262 39.5664 82.0262 49.9914C82.0262 60.4164 81.9856 61.6535 81.7985 65.7711C81.6243 69.5797 80.988 71.6469 80.4532 73.0223C79.7454 74.8453 78.8973 76.1434 77.5301 77.5098C76.163 78.877 74.8649 79.7231 73.0411 80.4313C71.6657 80.9684 69.5969 81.6031 65.7883 81.7773C61.6704 81.9645 60.4337 82.0051 50.0036 82.0051C39.5731 82.0051 38.3368 81.9645 34.2192 81.7773C30.4106 81.6016 28.3434 80.9652 26.9653 80.4305C25.1426 79.7223 23.8403 78.8762 22.4731 77.509C21.1059 76.1418 20.2598 74.843 19.5501 73.0191C19.0153 71.6437 18.3782 69.5766 18.2047 65.768C18.0176 61.65 17.9801 60.4133 17.9801 49.9816C17.9801 39.55 18.0176 38.3199 18.2047 34.202C18.379 30.3934 19.0153 28.3262 19.5501 26.9492C20.2583 25.1262 21.1059 23.8242 22.4735 22.457C23.8411 21.0898 25.1426 20.2434 26.9657 19.534C28.3426 18.9969 30.4106 18.3621 34.2192 18.1871C37.8227 18.0242 39.2192 17.9754 46.4993 17.9672V17.977ZM70.8551 24.4629C68.2673 24.4629 66.1676 26.5605 66.1676 29.1488C66.1676 31.7367 68.2673 33.8363 70.8551 33.8363C73.443 33.8363 75.5426 31.7367 75.5426 29.1488C75.5426 26.5609 73.443 24.4613 70.8551 24.4613V24.4629ZM50.0036 29.9398C38.9255 29.9398 29.9434 38.9219 29.9434 50.0004C29.9434 61.0789 38.9255 70.0566 50.0036 70.0566C61.0821 70.0566 70.061 61.0789 70.061 50.0004C70.061 38.9223 61.0813 29.9398 50.0028 29.9398H50.0036ZM50.0036 36.9793C57.1946 36.9793 63.0247 42.8086 63.0247 50.0004C63.0247 57.1914 57.1946 63.0215 50.0036 63.0215C42.8126 63.0215 36.9829 57.1914 36.9829 50.0004C36.9829 42.8086 42.8122 36.9793 50.0036 36.9793Z" fill="white"/>
</svg>
