<svg width="100" height="100" viewBox="0 0 100 100" fill="none" xmlns="http://www.w3.org/2000/svg">
<path d="M85.2047 85.2061H70.3879V62.0018C70.3879 56.4686 70.2891 49.3456 62.6816 49.3456C54.9645 49.3456 53.7836 55.3745 53.7836 61.5991V85.2045H38.9672V37.4874H53.191V44.0085H53.3902C54.8138 41.5746 56.8708 39.5723 59.3422 38.2149C61.8136 36.8575 64.6069 36.1958 67.4246 36.3002C82.4422 36.3002 85.2109 46.1784 85.2109 59.0292L85.2047 85.2061ZM22.2484 30.9651C17.4996 30.9659 13.6492 27.1167 13.6484 22.3678C13.6477 17.619 17.4965 13.7686 22.2453 13.7678C26.9941 13.7667 30.8445 17.6159 30.8453 22.3647C30.8457 24.6452 29.9402 26.8324 28.328 28.4453C26.7158 30.0582 24.5289 30.9646 22.2484 30.9651ZM29.657 85.2065H14.8246V37.4874H29.6566L29.657 85.2065ZM92.5914 0.00727808H7.3793C3.35195 -0.0380344 0.0492188 3.18814 0 7.21548V92.7831C0.0476562 96.8124 3.35 100.042 7.37891 99.9995H92.5914C96.6289 100.049 99.9441 96.8202 100 92.7831V7.20884C99.9426 3.17368 96.627 -0.0520969 92.5914 0.000637458" fill="#00FFB2"/>
</svg>
