<svg preserveAspectRatio="none" width="100%" height="100%" overflow="visible" style="display: block;" viewBox="0 0 33.7143 33.7143" fill="none" xmlns="http://www.w3.org/2000/svg">
<g id="logos:css-3" clip-path="url(#clip0_0_13)">
<path id="Vector" d="M16.8426 33.629L7.11288 30.928L4.94462 6.60886H28.7697L26.5992 30.9242L16.8426 33.629Z" fill="var(--fill-0, #4D4C4C)"/>
<path id="Vector_2" d="M24.741 29.376L26.5957 8.59734H16.8571V31.5616L24.741 29.376Z" fill="var(--fill-0, #4D4C4C)"/>
<path id="Vector_3" d="M9.9153 17.6171L10.1826 20.5997H16.8572V17.6171H9.9153ZM9.37811 11.5802L9.64923 14.5628H16.8572V11.5802H9.37811ZM16.8572 25.3633L16.8441 25.3668L13.5224 24.4699L13.31 22.0911H10.3159L10.7337 26.7743L16.8434 28.4703L16.8572 28.4666V25.3633Z" fill="var(--fill-0, #D5D5D5)"/>
<path id="Vector_4" d="M10.5517 3.48772e-05H14.1641V1.51073H12.0624V3.02143H14.1643V4.53204H10.5517V3.48772e-05ZM14.8867 3.48772e-05H18.4991V1.31368H16.3974V1.57639H18.4991V4.59779H14.8868V3.2183H16.9885V2.95559H14.8866L14.8867 3.48772e-05ZM19.2217 3.48772e-05H22.8342V1.31368H20.7324V1.57639H22.8342V4.59779H19.2217V3.2183H21.3235V2.95559H19.2218L19.2217 3.48772e-05Z" fill="var(--fill-0, #4D4C4C)"/>
<path id="Vector_5" d="M23.78 17.6171L24.3184 11.5802H16.8469V14.5628H21.0497L20.7783 17.6171H16.8469V20.5997H20.5197L20.1734 24.468L16.8468 25.3659V28.4689L22.9614 26.7743L23.0062 26.2704L23.7072 18.418L23.78 17.6171Z" fill="var(--fill-0, white)"/>
</g>
<defs>
<clipPath id="clip0_0_13">
<rect width="33.7143" height="33.7143" fill="white"/>
</clipPath>
</defs>
</svg>
