<svg preserveAspectRatio="none" width="100%" height="100%" overflow="visible" style="display: block;" viewBox="0 0 30.3429 30.3429" fill="none" xmlns="http://www.w3.org/2000/svg">
<g id="logos:git-icon" clip-path="url(#clip0_0_28)">
<path id="Vector" d="M29.7706 13.8197L16.5226 0.572479C15.7602 -0.190478 14.5227 -0.190478 13.7593 0.572479L11.0083 3.32349L14.4981 6.81327C15.309 6.53924 16.239 6.72307 16.8855 7.36952C17.535 8.02011 17.7175 8.95801 17.4368 9.77158L20.8 13.1349C21.6137 12.8546 22.5526 13.0359 23.2025 13.6869C24.1107 14.5948 24.1107 16.0663 23.2025 16.9748C22.2939 17.8834 20.8224 17.8834 19.9135 16.9748C19.2303 16.2909 19.0615 15.2876 19.4073 14.4459L16.2709 11.3095L16.2705 19.5633C16.4979 19.6757 16.7056 19.8242 16.8855 20.003C17.7937 20.911 17.7937 22.3826 16.8855 23.2918C15.9769 24.2 14.5047 24.2 13.5975 23.2918C12.6892 22.3826 12.6892 20.9111 13.5975 20.0032C13.8153 19.7855 14.0739 19.6131 14.3586 19.4958V11.165C14.0735 11.0485 13.8147 10.876 13.5975 10.6576C12.9094 9.97035 12.7439 8.96062 13.0965 8.11564L9.65638 4.67516L0.57249 13.7585C-0.190823 14.5221 -0.190823 15.7597 0.57249 16.5227L13.8207 29.7703C14.5834 30.5333 15.8206 30.5333 16.5843 29.7703L29.7705 16.5843C30.5336 15.821 30.5337 14.5827 29.7706 13.8197Z" fill="var(--fill-0, #4D4C4C)"/>
</g>
<defs>
<clipPath id="clip0_0_28">
<rect width="30.3429" height="30.3429" fill="white"/>
</clipPath>
</defs>
</svg>
