<svg preserveAspectRatio="none" width="100%" height="100%" overflow="visible" style="display: block;" viewBox="0 0 33.7143 33.7143" fill="none" xmlns="http://www.w3.org/2000/svg">
<g id="logos:html-5" clip-path="url(#clip0_0_19)">
<path id="Vector" d="M28.7697 6.60886L26.5992 30.9242L16.8426 33.629L7.11289 30.928L4.94462 6.60886H28.7697Z" fill="var(--fill-0, #4D4C4C)"/>
<path id="Vector_2" d="M16.8571 31.5616L24.741 29.376L26.5957 8.59734H16.8571V31.5616Z" fill="var(--fill-0, #4D4C4C)"/>
<path id="Vector_3" d="M12.6377 14.5628H16.8571V11.5802H9.37806L9.44941 12.3804L10.1825 20.5997H16.8571V17.6171H12.9103L12.6377 14.5628ZM13.3099 22.0911H10.3158L10.7336 26.7743L16.8434 28.4703L16.8571 28.4666V25.3633L16.844 25.3668L13.5223 24.4699L13.3099 22.0911Z" fill="var(--fill-0, #E9E9E9)"/>
<path id="Vector_4" d="M7.16122 3.48772e-05H8.67697V1.49757H10.0635V3.48772e-05H11.5794V4.53493H10.0636V3.01639H8.67706V4.53493H7.16132L7.16122 3.48772e-05ZM13.5725 1.50392H12.2384V3.48772e-05H16.4236V1.50392H15.0886V4.53493H13.5728V1.50392H13.5725ZM17.0878 3.48772e-05H18.6683L19.6405 1.59348L20.6117 3.48772e-05H22.1928V4.53493H20.6833V2.28719L19.6405 3.89959H19.6143L18.5708 2.28719V4.53493H17.0878V3.48772e-05ZM22.9472 3.48772e-05H24.4634V3.036H26.5949V4.53493H22.9471L22.9472 3.48772e-05Z" fill="var(--fill-0, #4D4C4C)"/>
<path id="Vector_5" d="M16.8468 20.5997H20.5196L20.1733 24.468L16.8467 25.3659V28.4689L22.9614 26.7743L23.0062 26.2704L23.7072 18.418L23.7799 17.6171H16.8468V20.5997ZM16.8468 14.5555V14.5628H24.0513L24.1111 13.8925L24.2471 12.3804L24.3183 11.5802H16.8468V14.5555Z" fill="var(--fill-0, white)"/>
</g>
<defs>
<clipPath id="clip0_0_19">
<rect width="33.7143" height="33.7143" fill="white"/>
</clipPath>
</defs>
</svg>
