<svg preserveAspectRatio="none" width="100%" height="100%" overflow="visible" style="display: block;" viewBox="0 0 50 50" fill="none" xmlns="http://www.w3.org/2000/svg">
<g id="logos:java">
<path id="Vector" d="M18.4327 38.6522C18.4327 38.6522 16.5254 39.7613 19.79 40.1366C23.7451 40.5877 25.7663 40.5231 30.1249 39.6981C30.1249 39.6981 31.2708 40.4166 32.871 41.039C23.1006 45.2264 10.7584 40.7964 18.4327 38.6522ZM17.2387 33.1877C17.2387 33.1877 15.0996 34.7712 18.3666 35.1091C22.5915 35.5449 25.9279 35.5806 31.7013 34.4689C31.7013 34.4689 32.4999 35.2785 33.7555 35.7212C21.9423 39.1756 8.78468 35.9936 17.2387 33.1877Z" fill="var(--fill-0, #4D4C4C)"/>
<path id="Vector_2" d="M27.3038 23.9184C29.7113 26.69 26.6712 29.1842 26.6712 29.1842C26.6712 29.1842 32.7841 26.0286 29.9767 22.0769C27.3548 18.3919 25.3439 16.5607 36.2293 10.2477C36.2293 10.2477 19.1429 14.5152 27.3038 23.9184Z" fill="var(--fill-0, #4D4C4C)"/>
<path id="Vector_3" d="M40.226 42.6939C40.226 42.6939 41.6374 43.8568 38.6715 44.7565C33.0319 46.465 15.1987 46.9809 10.2447 44.8246C8.46387 44.05 11.8035 42.9749 12.8539 42.7491C13.9494 42.5116 14.5756 42.5559 14.5756 42.5559C12.5951 41.1607 1.77457 45.2954 9.07934 46.4793C29.0003 49.71 45.3932 45.0247 40.226 42.6939ZM19.3497 27.526C19.3497 27.526 10.2788 29.6806 16.1376 30.4629C18.6113 30.7941 23.5426 30.7192 28.1361 30.3343C31.8902 30.0178 35.6597 29.3444 35.6597 29.3444C35.6597 29.3444 34.336 29.9113 33.3783 30.5652C24.1668 32.9879 6.37168 31.8608 11.4947 29.3827C15.8272 27.2884 19.3497 27.526 19.3497 27.526ZM35.6223 36.6217C44.9864 31.7558 40.6568 27.0798 37.6348 27.7098C36.8941 27.8639 36.5639 27.9974 36.5639 27.9974C36.5639 27.9974 36.8389 27.5668 37.364 27.3803C43.3423 25.2785 47.9402 33.5793 35.4341 36.8669C35.4341 36.8671 35.579 36.7376 35.6223 36.6217Z" fill="var(--fill-0, #4D4C4C)"/>
<path id="Vector_4" d="M29.9767 0.0536133C29.9767 0.0536133 35.1627 5.24147 25.0581 13.2185C16.9553 19.6176 23.2104 23.2662 25.0548 27.4348C20.325 23.1675 16.8539 19.4108 19.1827 15.9146C22.6004 10.7821 32.0691 8.29393 29.9767 0.0536133Z" fill="var(--fill-0, #4D4C4C)"/>
<path id="Vector_5" d="M20.2699 49.8071C29.2582 50.3825 43.0607 49.4879 43.3876 45.2348C43.3876 45.2348 42.7593 46.8473 35.9593 48.1276C28.2876 49.5712 18.8257 49.4027 13.2137 48.4775C13.2139 48.4775 14.3624 49.4283 20.2699 49.8071Z" fill="var(--fill-0, #4D4C4C)"/>
</g>
</svg>
