<svg width="43" height="44" viewBox="0 0 43 44" fill="none" xmlns="http://www.w3.org/2000/svg">
<path d="M42.4307 26.9918C42.4056 26.915 42.3709 26.8416 42.3275 26.7735C42.0726 26.2909 41.4534 26.1468 40.4806 26.3479C37.4495 26.9733 36.2758 26.5885 35.8503 26.3129C38.3107 22.5579 40.3328 18.0226 41.4257 13.7918C41.9232 11.8655 42.889 7.33169 41.6497 5.1172C41.5705 4.96563 41.4779 4.82144 41.373 4.68637C39.0091 1.66577 35.5397 0.0454692 31.3399 0.000919239C28.5997 -0.0280474 26.2607 0.635436 25.6271 0.879819C25.3133 0.821247 24.9979 0.771361 24.6813 0.730219C23.8876 0.586504 23.0835 0.508142 22.277 0.495919C20.1097 0.462186 18.2367 0.980286 16.6857 2.03702C15.114 1.44834 7.90628 -0.978814 3.4456 2.18149C0.954282 3.94644 -0.195768 7.10105 0.0271655 11.5579C0.102149 13.0576 0.956482 17.6702 2.30472 22.0878C3.14768 24.8497 4.02567 27.0413 4.93262 28.6548C5.94645 30.4775 6.99677 31.5759 8.0755 31.9356C8.89573 32.2089 10.1521 32.1998 11.482 30.6011C12.9509 28.8347 14.3976 27.2538 15.0471 26.5551C15.8448 26.9869 16.7088 27.2197 17.5954 27.2466C17.5956 27.2491 17.5958 27.2517 17.5962 27.2542C17.4418 27.4381 17.2907 27.6247 17.143 27.8141C16.5217 28.6028 16.3924 28.7668 14.3926 29.1786C13.8239 29.2959 12.3129 29.6074 12.2909 30.6664C12.2863 30.8908 12.3512 31.0897 12.4594 31.2655C12.8753 32.0412 14.149 32.3833 14.3202 32.4262C16.7668 33.0376 18.9116 32.5948 20.5011 31.1819C20.4699 35.2721 20.6432 39.2805 21.1343 40.5088C21.5399 41.5224 22.531 44.0004 25.6612 44C26.1204 44 26.6261 43.9467 27.1821 43.8275C30.4489 43.127 31.8676 41.6832 32.4163 38.5C32.6918 36.9037 33.1526 33.2286 33.4041 30.9811C33.4351 30.8523 33.4696 30.7599 33.5086 30.7314C33.5099 30.7305 33.6364 30.6451 34.2918 30.7877C34.3186 30.7935 34.3457 30.7977 34.373 30.8002L34.8385 30.8411L34.8658 30.8429C36.4183 30.9133 38.3701 30.5815 39.5064 30.0531C40.6867 29.5053 42.8168 28.1606 42.4307 26.9918ZM3.5853 21.7736C2.22222 17.308 1.42582 12.8176 1.36275 11.5584C1.16365 7.57754 2.12743 4.80645 4.22697 3.32182C7.59425 0.941053 13.0999 2.33035 15.425 3.08349C15.4191 3.08935 15.4129 3.09467 15.407 3.10072C11.6967 6.84805 11.7847 13.2501 11.7939 13.6415C11.7935 13.7924 11.806 14.0061 11.8236 14.3002C11.8874 15.3769 12.0062 17.3809 11.6888 19.6506C11.3938 21.7597 12.0439 23.824 13.4723 25.3141C13.62 25.4683 13.7744 25.6131 13.9339 25.7494C13.2981 26.4303 11.9165 27.9358 10.446 29.705C9.40522 30.9562 8.68655 30.7164 8.45023 30.6376C7.73175 30.398 6.95973 29.5612 6.18038 28.2134C5.30112 26.6752 4.41397 24.4886 3.5853 21.7736ZM14.5985 31.0999C14.2848 31.0215 13.9988 30.8924 13.8061 30.7751C13.9691 30.7028 14.2414 30.6097 14.6922 30.5168C17.0449 30.0326 17.4083 29.6907 18.2017 28.6831C18.3836 28.4521 18.5897 28.1904 18.8751 27.8716C18.9365 27.8028 18.9826 27.7217 19.0102 27.6337C19.3234 27.3563 19.5096 27.4322 19.8112 27.5572C20.0972 27.6756 20.3755 28.0339 20.4886 28.4284C20.542 28.6147 20.6021 28.9683 20.4058 29.2431C18.7479 31.5638 16.3328 31.5337 14.5985 31.0999ZM18.4375 23.7886L18.3412 24.0471C18.0974 24.7009 17.8706 25.3086 17.73 25.8859C16.5064 25.8821 15.3159 25.3594 14.4108 24.4149C13.2596 23.2139 12.7367 21.5431 12.9762 19.8308C13.3113 17.433 13.1876 15.345 13.121 14.2234C13.1118 14.0663 13.1036 13.9288 13.0986 13.8202C13.6408 13.3397 16.1528 11.9939 17.944 12.4042C18.7614 12.5915 19.2596 13.1479 19.4665 14.1055C20.5383 19.0625 19.6085 21.1284 18.8612 22.7887C18.7072 23.1308 18.5618 23.454 18.4375 23.7886ZM31.9376 32.1715C31.9066 32.4957 31.872 32.8609 31.8243 33.264L31.5566 34.0676C31.5354 34.1313 31.5241 34.1979 31.5233 34.265C31.5125 35.1353 31.4243 35.4547 31.3124 35.8587C31.1962 36.2789 31.0644 36.7554 30.9836 37.7975C30.7819 40.3904 29.3735 41.8798 26.552 42.4844C23.7736 43.0804 23.2808 41.5736 22.8465 40.2446C22.802 40.1053 22.755 39.9668 22.7055 39.8292C22.3106 38.7552 22.3552 37.2407 22.4169 35.1448C22.4472 34.116 22.3713 31.6591 21.8116 30.2935C21.8196 29.7559 21.831 29.2101 21.8464 28.6585C21.8483 28.5886 21.8388 28.5189 21.8184 28.4521C21.8006 28.3232 21.7737 28.1958 21.7379 28.0707C21.5131 27.2855 20.9655 26.6286 20.3084 26.3564C20.0473 26.2482 19.5681 26.0498 18.9925 26.1971C19.1153 25.6911 19.3281 25.12 19.559 24.5014L19.6559 24.2411C19.765 23.9477 19.9016 23.644 20.0464 23.3222C20.8283 21.5849 21.8992 19.2058 20.7369 13.8307C20.3016 11.8175 18.8478 10.8345 16.6441 11.0627C15.3229 11.1995 14.1143 11.7326 13.5113 12.0382C13.3904 12.0995 13.2708 12.1631 13.1524 12.2291C13.3207 10.2007 13.9565 6.40989 16.3345 4.01152C16.5111 3.83353 16.6967 3.66464 16.8905 3.50552C16.9868 3.48675 17.0775 3.44638 17.1558 3.38745C18.5352 2.34135 20.2624 1.82802 22.2928 1.8612C23.0428 1.87349 23.7626 1.92335 24.4455 2.0097C28.0003 2.65944 30.3927 4.66217 31.8447 6.37799C33.3375 8.1422 34.1459 9.91907 34.4685 10.8775C32.0427 10.6308 30.3923 11.11 29.5557 12.3057C27.736 14.907 30.5513 19.956 31.9044 22.3824C32.1525 22.8272 32.3668 23.2115 32.4341 23.3748C32.8746 24.4427 33.4452 25.1555 33.8617 25.676C33.9893 25.8355 34.1132 25.9903 34.2073 26.1252C33.4725 26.3369 32.1525 26.8264 32.2727 29.273C32.2502 29.5596 32.1952 30.0923 32.1199 30.7668C32.0353 31.1476 31.9911 31.6107 31.9376 32.1715ZM33.5702 29.1995C33.496 27.6749 34.0635 27.5156 34.6641 27.3469C34.7472 27.3241 34.8298 27.2993 34.9116 27.2725C34.9891 27.3411 35.0713 27.4042 35.1577 27.4613C36.2032 28.1516 38.0586 28.2337 40.6702 27.7077C40.3006 28.032 39.7188 28.44 38.9224 28.8097C38.1711 29.1586 36.9137 29.4202 35.7191 29.4763C34.3996 29.5379 33.7282 29.3284 33.5702 29.1995ZM34.6143 12.2023C34.6035 12.8454 34.5149 13.4292 34.4211 14.0388C34.3202 14.6944 34.2157 15.3723 34.1893 16.1951C34.1633 16.9959 34.2634 17.8284 34.3602 18.6336C34.5556 20.2598 34.7562 21.9342 33.9798 23.5862C33.8509 23.3578 33.736 23.1217 33.6358 22.8793C33.5392 22.6453 33.3298 22.2695 33.0398 21.7496C31.9112 19.7254 29.2679 14.9853 30.6211 13.0511C31.3168 12.0562 33.0792 12.0133 34.6143 12.2023ZM35.033 25.0608C34.9813 24.9948 34.9291 24.9292 34.8766 24.8639L34.8115 24.7825C36.1429 22.5834 35.8826 20.4078 35.6508 18.4785C35.5557 17.6869 35.4659 16.9393 35.4886 16.2371C35.5123 15.4926 35.6107 14.8542 35.7059 14.2368C35.823 13.4759 35.942 12.6889 35.9092 11.7608C35.9337 11.6635 35.9436 11.5485 35.9308 11.4121C35.847 10.5221 34.831 7.85914 32.7602 5.4483C31.6463 4.15159 30.0293 2.70344 27.8306 1.70922C28.7933 1.51379 30.0907 1.33614 31.542 1.3684C35.3031 1.452 38.2787 2.85982 40.3863 5.5528C40.4311 5.61126 40.472 5.67263 40.5086 5.7365C41.8343 8.22177 40.0023 17.2409 35.033 25.0608ZM18.8692 13.8477C18.8234 14.1766 18.3029 14.6223 17.7306 14.6223C17.6809 14.6223 17.6314 14.6189 17.5822 14.612C17.2389 14.5644 16.892 14.348 16.6548 14.0334C16.5708 13.9225 16.4342 13.7071 16.4614 13.512C16.4714 13.4385 16.5092 13.3315 16.6309 13.2392C16.8476 13.0753 17.2759 13.0145 17.7485 13.0803C18.3284 13.1611 18.9266 13.4356 18.8692 13.8477ZM33.4085 13.0935C33.4289 13.2387 33.3187 13.462 33.1278 13.6622C33.0026 13.7936 32.7391 14.0217 32.38 14.0714C32.3344 14.0777 32.2885 14.0809 32.2425 14.0809C31.7044 14.0809 31.2499 13.6512 31.2145 13.3995C31.1705 13.0759 31.6987 12.83 32.2432 12.7541C32.7877 12.6782 33.3636 12.7703 33.4085 13.0935Z" fill="#4D4C4C"/>
</svg>
