<svg preserveAspectRatio="none" width="100%" height="100%" overflow="visible" style="display: block;" viewBox="0 0 42 42" fill="none" xmlns="http://www.w3.org/2000/svg">
<g id="logos:python" clip-path="url(#clip0_0_4)">
<path id="Vector" d="M20.8221 0.0941495C10.1856 0.0941495 10.8498 4.70677 10.8498 4.70677L10.8616 9.48558H21.0118V10.9203H6.83007C6.83007 10.9203 0.0237704 10.1484 0.0237704 20.8805C0.0237704 31.613 5.96447 31.2324 5.96447 31.2324H9.50986V26.2521C9.50986 26.2521 9.31873 20.3114 15.3557 20.3114H25.4229C25.4229 20.3114 31.079 20.4028 31.079 14.845V5.65554C31.079 5.65554 31.938 0.0941495 20.8221 0.0941495ZM15.2253 3.30781C15.4652 3.30759 15.7027 3.35467 15.9244 3.44636C16.146 3.53805 16.3474 3.67255 16.517 3.84215C16.6866 4.01176 16.8211 4.21314 16.9128 4.43478C17.0045 4.65642 17.0515 4.89396 17.0513 5.13382C17.0515 5.37368 17.0045 5.61122 16.9128 5.83286C16.8211 6.0545 16.6866 6.25589 16.517 6.42549C16.3474 6.5951 16.146 6.72959 15.9244 6.82128C15.7027 6.91297 15.4652 6.96005 15.2253 6.95984C14.9855 6.96005 14.7479 6.91297 14.5263 6.82128C14.3046 6.72959 14.1032 6.5951 13.9336 6.42549C13.764 6.25589 13.6295 6.0545 13.5379 5.83286C13.4462 5.61122 13.3991 5.37368 13.3993 5.13382C13.3991 4.89396 13.4462 4.65642 13.5379 4.43478C13.6295 4.21314 13.764 4.01176 13.9336 3.84215C14.1032 3.67255 14.3046 3.53805 14.5263 3.44636C14.7479 3.35467 14.9855 3.30759 15.2253 3.30781Z" fill="var(--fill-0, #4D4C4C)" fill-opacity="0.69"/>
<path id="Vector_2" d="M21.1242 41.7741C31.7607 41.7741 31.0966 37.1615 31.0966 37.1615L31.0847 32.3829H20.9344V30.9482H35.1161C35.1161 30.9482 41.9224 31.7201 41.9224 20.9876C41.9224 10.2553 35.9817 10.6359 35.9817 10.6359H32.4363V15.616C32.4363 15.616 32.6274 21.5567 26.5904 21.5567H16.5232C16.5232 21.5567 10.8672 21.4653 10.8672 27.0233V36.2129C10.8672 36.2129 10.0083 41.7741 21.124 41.7741M26.7209 38.5608C26.481 38.561 26.2435 38.5139 26.0218 38.4223C25.8002 38.3306 25.5988 38.1961 25.4292 38.0265C25.2596 37.8569 25.1251 37.6555 25.0334 37.4338C24.9417 37.2122 24.8946 36.9747 24.8948 36.7348C24.8946 36.4949 24.9417 36.2574 25.0333 36.0357C25.125 35.814 25.2595 35.6126 25.4291 35.443C25.5987 35.2734 25.8001 35.1389 26.0218 35.0472C26.2434 34.9555 26.481 34.9084 26.7209 34.9086C26.9607 34.9084 27.1983 34.9555 27.4199 35.0472C27.6415 35.1389 27.8429 35.2734 28.0125 35.443C28.1821 35.6126 28.3166 35.814 28.4083 36.0356C28.5 36.2572 28.5471 36.4948 28.5469 36.7346C28.5471 36.9745 28.5 37.212 28.4083 37.4337C28.3166 37.6553 28.1821 37.8567 28.0125 38.0263C27.8429 38.1959 27.6415 38.3304 27.4199 38.4221C27.1983 38.5138 26.9607 38.561 26.7209 38.5608Z" fill="var(--fill-0, #4D4C4C)"/>
</g>
<defs>
<clipPath id="clip0_0_4">
<rect width="42" height="42" fill="white"/>
</clipPath>
</defs>
</svg>
