<svg preserveAspectRatio="none" width="100%" height="100%" overflow="visible" style="display: block;" viewBox="0 0 50 50" fill="none" xmlns="http://www.w3.org/2000/svg">
<g id="logos:react">
<path id="Vector" d="M41.11 17.1531C40.5778 16.9706 40.0412 16.8014 39.5006 16.6459C39.5914 16.2748 39.675 15.9082 39.7492 15.548C40.9676 9.63375 40.1711 4.86911 37.4506 3.30036C34.8422 1.79645 30.5764 3.36461 26.2682 7.11403C25.8436 7.4842 25.4284 7.86505 25.023 8.25622C24.7517 7.99611 24.4755 7.74106 24.1947 7.49118C19.6795 3.48219 15.1537 1.79254 12.4361 3.36579C9.83008 4.87438 9.0584 9.35348 10.1553 14.9586C10.2644 15.5137 10.3876 16.0659 10.5248 16.6148C9.88418 16.7968 9.26602 16.9906 8.67441 17.1968C3.38066 19.0425 0 21.9349 0 24.9351C0 28.0338 3.6293 31.1418 9.14297 33.0263C9.58998 33.1785 10.0407 33.3194 10.4947 33.4492C10.3473 34.0403 10.2164 34.6355 10.1021 35.2339C9.05645 40.7418 9.87305 45.115 12.4721 46.614C15.1564 48.1621 19.6619 46.5711 24.0488 42.7361C24.4045 42.4243 24.7524 42.1037 25.0922 41.7746C25.5312 42.1981 25.9819 42.6094 26.4437 43.0078C30.6934 46.6644 34.8902 48.141 37.4867 46.6379C40.1686 45.0853 41.0402 40.3873 39.9086 34.6715C39.8194 34.2237 39.7195 33.7781 39.6088 33.3351C39.9252 33.2414 40.2357 33.1449 40.5385 33.0445C46.2705 31.1455 50 28.0752 50 24.9351C50 21.924 46.5102 19.0121 41.11 17.1531ZM39.8668 31.0172C39.5931 31.1075 39.3131 31.1951 39.027 31.2798C38.3941 29.2765 37.5402 27.1464 36.4951 24.9455C37.4924 22.797 38.3135 20.6941 38.9285 18.7039C39.44 18.8519 39.9363 19.008 40.4148 19.1726C45.0418 20.7656 47.8641 23.1205 47.8641 24.9351C47.8641 26.8679 44.816 29.3771 39.8668 31.0172ZM37.8133 35.0863C38.3137 37.6136 38.385 39.8988 38.0535 41.6853C37.7559 43.2906 37.157 44.3607 36.4164 44.7894C34.8408 45.7015 31.4711 44.516 27.8369 41.3886C27.4073 41.0182 26.9881 40.6359 26.5797 40.2422C27.9887 38.7013 29.3967 36.9101 30.7709 34.9207C33.1881 34.7062 35.4717 34.3554 37.5426 33.8767C37.6448 34.2884 37.735 34.6916 37.8133 35.0863ZM17.0461 44.6318C15.5066 45.1754 14.2805 45.191 13.5393 44.7636C11.9621 43.8541 11.3064 40.3425 12.2008 35.6324C12.3071 35.0758 12.4288 34.5223 12.5658 33.9724C14.6139 34.4255 16.8809 34.7513 19.3037 34.9478C20.6873 36.8945 22.1359 38.6838 23.5959 40.2505C23.2856 40.5508 22.968 40.8433 22.6434 41.1279C20.7033 42.8236 18.7594 44.0267 17.0461 44.6318ZM9.83398 31.0052C7.3959 30.1718 5.38242 29.0888 4.00234 27.907C2.76211 26.8451 2.13613 25.7906 2.13613 24.9351C2.13613 23.1144 4.85039 20.7922 9.37754 19.2138C9.92695 19.0224 10.502 18.8418 11.0986 18.6722C11.7244 20.7074 12.5451 22.8353 13.5355 24.9871C12.5322 27.1707 11.6998 29.3326 11.068 31.3918C10.6535 31.273 10.2421 31.1441 9.83398 31.0052ZM12.2516 14.5482C11.3119 9.74606 11.9359 6.1236 13.5064 5.21442C15.1791 4.24606 18.8779 5.62672 22.7766 9.08844C23.0308 9.31468 23.2809 9.54551 23.5268 9.78082C22.074 11.3408 20.6387 13.1168 19.2674 15.0519C16.9158 15.2699 14.6648 15.6199 12.5953 16.0888C12.4678 15.5783 12.3532 15.0645 12.2516 14.5482ZM33.8193 19.8742C33.3305 19.0298 32.8236 18.1961 32.2988 17.3736C33.8941 17.5754 35.4227 17.8431 36.858 18.1705C36.4271 19.5517 35.89 20.9957 35.2578 22.4761C34.7957 21.5993 34.3161 20.7318 33.8193 19.8742ZM25.024 11.3076C26.0092 12.375 26.9959 13.5666 27.9664 14.8595C25.9977 14.7665 24.0256 14.7662 22.0568 14.8584C23.0283 13.5773 24.0234 12.3873 25.024 11.3076ZM16.1723 19.8886C15.6817 20.7394 15.2111 21.6015 14.7607 22.4742C14.1389 20.999 13.6066 19.5484 13.1721 18.1476C14.5986 17.8285 16.1199 17.5675 17.7051 17.3695C17.1745 18.197 16.6634 19.0371 16.1723 19.8886ZM17.7506 32.6525C16.1129 32.4697 14.5688 32.2222 13.1426 31.9117C13.584 30.4859 14.1279 29.0045 14.7633 27.4976C15.2154 28.371 15.688 29.2336 16.1807 30.0847C16.6873 30.9597 17.2119 31.8168 17.7506 32.6525ZM25.083 38.7131C24.0705 37.6209 23.0607 36.4125 22.0746 35.1129C23.032 35.1504 24.008 35.1695 25 35.1695C26.0191 35.1695 27.0266 35.1466 28.0182 35.1025C27.0445 36.4256 26.0615 37.6357 25.083 38.7131ZM35.2779 27.4207C35.9463 28.9441 36.5096 30.4177 36.9568 31.8191C35.5072 32.15 33.942 32.4164 32.2928 32.6142C32.8213 31.7764 33.333 30.9282 33.8277 30.0701C34.3308 29.1978 34.8143 28.3145 35.2779 27.4207ZM31.9775 29.0029C31.2201 30.3186 30.4201 31.6093 29.5789 32.873C28.055 32.981 26.5277 33.0346 25 33.0338C23.4439 33.0338 21.9305 32.9853 20.473 32.8908C19.6098 31.63 18.7945 30.337 18.0291 29.0146C17.2672 27.6992 16.5557 26.3554 15.8959 24.9859C16.554 23.6161 17.2635 22.2716 18.0229 20.9552L18.0227 20.9554C18.7816 19.6386 19.5903 18.3512 20.4471 17.0959C21.934 16.9834 23.4588 16.9248 24.9998 16.9248C26.5479 16.9248 28.0748 16.9839 29.5613 17.0972C30.4094 18.3507 31.213 19.6337 31.9705 20.9439C32.7322 22.2575 33.4511 23.5954 34.126 24.9556C33.458 26.3298 32.7414 27.6797 31.9775 29.0029ZM36.3838 5.15055C38.058 6.11618 38.7092 10.0101 37.6572 15.1166C37.5898 15.4426 37.5149 15.774 37.4326 16.1107C35.358 15.6318 33.1055 15.2757 30.7471 15.0545C29.3732 13.098 27.9496 11.3193 26.5205 9.77946C26.8951 9.41844 27.2785 9.06677 27.6705 8.72477C31.3619 5.51247 34.8119 4.24411 36.3838 5.15055ZM25 20.4703C27.4658 20.4703 29.4648 22.4693 29.4648 24.9351C29.4648 27.4009 27.4658 29.4 25 29.4C22.5342 29.4 20.5352 27.4009 20.5352 24.9351C20.5352 22.4693 22.5342 20.4703 25 20.4703Z" fill="var(--fill-0, #4D4C4C)"/>
</g>
</svg>
