<svg preserveAspectRatio="none" width="100%" height="100%" overflow="visible" style="display: block;" viewBox="0 0 31 32" fill="none" xmlns="http://www.w3.org/2000/svg">
<g id="logos:tailwindcss-icon">
<path id="Vector" d="M15.5 6.375C11.3667 6.375 8.78333 8.50833 7.75 12.775C9.3 10.6417 11.1083 9.84167 13.175 10.375C14.3541 10.6793 15.1969 11.5624 16.1298 12.5398C17.6495 14.1321 19.4083 15.975 23.25 15.975C27.3833 15.975 29.9667 13.8417 31 9.575C29.45 11.7083 27.6417 12.5083 25.575 11.975C24.3959 11.6707 23.5531 10.7876 22.6202 9.81025C21.1005 8.21788 19.3417 6.375 15.5 6.375ZM7.75 15.975C3.61667 15.975 1.03333 18.1083 0 22.375C1.55 20.2417 3.35833 19.4417 5.425 19.975C6.60409 20.2793 7.4469 21.1624 8.37981 22.1397C9.89953 23.7321 11.6583 25.575 15.5 25.575C19.6333 25.575 22.2167 23.4417 23.25 19.175C21.7 21.3083 19.8917 22.1083 17.825 21.575C16.6459 21.2707 15.8031 20.3876 14.8702 19.4102C13.3505 17.8179 11.5917 15.975 7.75 15.975Z" fill="var(--fill-0, #4D4C4C)"/>
</g>
</svg>
