<svg preserveAspectRatio="none" width="100%" height="100%" overflow="visible" style="display: block;" viewBox="0 0 50 50" fill="none" xmlns="http://www.w3.org/2000/svg">
<g id="logos:typescript-icon" clip-path="url(#clip0_0_38)">
<path id="Vector" d="M5.96591 0H82.6705C86.593 0 89.7727 3.17969 89.7727 7.10227V83.8068C89.7727 87.7294 86.593 90.9091 82.6705 90.9091H5.96591C2.04332 90.9091 -1.13636 87.7294 -1.13636 83.8068V7.10227C-1.13636 3.17969 2.04332 0 5.96591 0Z" fill="var(--fill-0, #4D4C4C)"/>
<path id="Vector_2" d="M29.398 39.1553V44.5498C30.2754 44.9994 31.313 45.3366 32.5109 45.5613C33.7089 45.7861 34.9714 45.8984 36.2986 45.8984C37.5921 45.8984 38.8209 45.7748 39.985 45.5275C41.149 45.2803 42.1697 44.8729 43.0471 44.3055C43.9244 43.7379 44.619 42.9961 45.1309 42.0801C45.6426 41.1643 45.8984 40.0321 45.8984 38.6834C45.8984 37.7055 45.7522 36.8486 45.4598 36.1125C45.1703 35.3815 44.7404 34.7143 44.1943 34.1486C43.6433 33.5755 42.9826 33.0613 42.2121 32.6061C41.4417 32.1508 40.5727 31.721 39.6053 31.3166C38.8967 31.0243 38.2612 30.7405 37.6988 30.4652C37.1365 30.19 36.6585 29.909 36.2648 29.6223C35.8711 29.3358 35.5674 29.0324 35.3537 28.7119C35.14 28.3915 35.0332 28.029 35.0332 27.6246C35.0332 27.2538 35.1288 26.9195 35.3199 26.6217C35.5112 26.3238 35.7812 26.0681 36.1299 25.8547C36.4786 25.6413 36.906 25.4755 37.4121 25.3572C37.9182 25.2393 38.4806 25.1803 39.0992 25.1803C39.5492 25.1803 40.0244 25.214 40.5248 25.2814C41.0253 25.3488 41.5287 25.4527 42.035 25.5934C42.5395 25.7335 43.0329 25.911 43.5111 26.1244C43.9747 26.3298 44.4181 26.5781 44.8355 26.866V21.8256C44.0145 21.5109 43.1174 21.2777 42.1445 21.126C41.1716 20.9743 40.0553 20.8984 38.7955 20.8984C37.5133 20.8984 36.2986 21.0361 35.1514 21.3115C34.0041 21.5868 32.9946 22.0166 32.1229 22.601C31.2512 23.1856 30.5623 23.9302 30.0561 24.8348C29.5499 25.7395 29.2969 26.8212 29.2969 28.0799C29.2969 29.6869 29.7609 31.058 30.6889 32.1932C31.6169 33.3283 33.0256 34.2892 34.915 35.0758C35.6126 35.3599 36.3045 35.6578 36.9902 35.9693C37.6314 36.2615 38.1854 36.5649 38.6521 36.8795C39.1189 37.1941 39.4873 37.5368 39.7572 37.9078C40.0271 38.2788 40.1621 38.7003 40.1621 39.1723C40.1644 39.512 40.0771 39.8463 39.909 40.1416C39.7404 40.4394 39.4845 40.6979 39.1414 40.917C38.7983 41.1361 38.3709 41.3075 37.8592 41.4311C37.3475 41.5546 36.7485 41.6165 36.0623 41.6166C34.8926 41.6166 33.7342 41.4115 32.5869 41.0012C31.4396 40.5909 30.3767 39.9756 29.398 39.1553ZM20.4066 25.7309H27.3438V21.2891H8.00781V25.7309H14.9111V45.5078H20.4066V25.7309Z" fill="var(--fill-0, white)"/>
</g>
<defs>
<clipPath id="clip0_0_38">
<rect width="50" height="50" fill="white"/>
</clipPath>
</defs>
</svg>
