<svg preserveAspectRatio="none" width="100%" height="100%" overflow="visible" style="display: block;" viewBox="0 0 45 45" fill="none" xmlns="http://www.w3.org/2000/svg">
<g id="logos:python" clip-path="url(#clip0_148_202)">
<path id="Vector" d="M22.3095 0.100547C10.9132 0.100547 11.6248 5.04264 11.6248 5.04264L11.6374 10.1628H22.5127V11.7H7.31795C7.31795 11.7 0.0254883 10.8729 0.0254883 22.3717C0.0254883 33.8708 6.39053 33.4629 6.39053 33.4629H10.1892V28.1269C10.1892 28.1269 9.98438 21.7619 16.4526 21.7619H27.2389C27.2389 21.7619 33.2989 21.8598 33.2989 15.905V6.05918C33.2989 6.05918 34.2193 0.100547 22.3095 0.100547ZM16.3129 3.54375C16.5698 3.54352 16.8244 3.59397 17.0618 3.6922C17.2993 3.79044 17.5151 3.93454 17.6968 4.11626C17.8785 4.29798 18.0226 4.51375 18.1208 4.75122C18.2191 4.98869 18.2695 5.24321 18.2693 5.50019C18.2695 5.75718 18.2191 6.0117 18.1208 6.24917C18.0226 6.48664 17.8785 6.70241 17.6968 6.88413C17.5151 7.06585 17.2993 7.20995 17.0618 7.30819C16.8244 7.40642 16.5698 7.45687 16.3129 7.45664C16.0559 7.45687 15.8014 7.40642 15.5639 7.30819C15.3264 7.20995 15.1106 7.06585 14.9289 6.88413C14.7472 6.70241 14.6031 6.48664 14.5049 6.24917C14.4066 6.0117 14.3562 5.75718 14.3564 5.50019C14.3562 5.24321 14.4066 4.98869 14.5049 4.75122C14.6031 4.51375 14.7472 4.29798 14.9289 4.11626C15.1106 3.93454 15.3264 3.79044 15.5639 3.6922C15.8014 3.59397 16.0559 3.54352 16.3129 3.54375Z" fill="var(--fill-0, #C8FF00)"/>
<path id="Vector_2" d="M22.6331 44.7585C34.0293 44.7585 33.3178 39.8164 33.3178 39.8164L33.3051 34.6964H22.4297V33.1592H37.6244C37.6244 33.1592 44.9169 33.9862 44.9169 22.4872C44.9169 10.9883 38.5518 11.3961 38.5518 11.3961H34.7532V16.7319C34.7532 16.7319 34.958 23.097 28.4897 23.097H17.7035C17.7035 23.097 11.6434 22.999 11.6434 28.954V38.8C11.6434 38.8 10.7232 44.7585 22.6329 44.7585M28.6295 41.3156C28.3725 41.3159 28.118 41.2654 27.8805 41.1672C27.643 41.0689 27.4273 40.9248 27.2456 40.7431C27.0638 40.5614 26.9197 40.3456 26.8215 40.1081C26.7233 39.8707 26.6728 39.6162 26.673 39.3592C26.6728 39.1022 26.7232 38.8476 26.8215 38.6101C26.9197 38.3727 27.0638 38.1569 27.2455 37.9751C27.4272 37.7934 27.643 37.6493 27.8805 37.551C28.118 37.4528 28.3725 37.4023 28.6295 37.4026C28.8865 37.4023 29.141 37.4528 29.3785 37.551C29.6159 37.6492 29.8317 37.7933 30.0134 37.9751C30.1951 38.1568 30.3392 38.3726 30.4375 38.61C30.5357 38.8475 30.5862 39.102 30.5859 39.359C30.5862 39.616 30.5357 39.8705 30.4375 40.108C30.3392 40.3454 30.1951 40.5612 30.0134 40.7429C29.8317 40.9246 29.6159 41.0688 29.3785 41.167C29.141 41.2652 28.8865 41.3159 28.6295 41.3156Z" fill="var(--fill-0, #C8FF00)"/>
</g>
<defs>
<clipPath id="clip0_148_202">
<rect width="45" height="45" fill="white"/>
</clipPath>
</defs>
</svg>
