<svg preserveAspectRatio="none" width="100%" height="100%" overflow="visible" style="display: block;" viewBox="0 0 40 40" fill="none" xmlns="http://www.w3.org/2000/svg">
<g id="logos:typescript-icon" clip-path="url(#clip0_148_320)">
<path id="Vector" d="M4.77273 0H66.1364C69.2744 0 71.8182 2.54375 71.8182 5.68182V67.0455C71.8182 70.1835 69.2744 72.7273 66.1364 72.7273H4.77273C1.63466 72.7273 -0.909091 70.1835 -0.909091 67.0455V5.68182C-0.909091 2.54375 1.63466 0 4.77273 0Z" fill="var(--fill-0, #C8FF00)"/>
<path id="Vector_2" d="M23.5184 31.3242V35.6398C24.2203 35.9995 25.0504 36.2693 26.0087 36.4491C26.9671 36.6289 27.9771 36.7188 29.0389 36.7188C30.0737 36.7188 31.0567 36.6198 31.988 36.422C32.9192 36.2242 33.7358 35.8983 34.4377 35.4444C35.1395 34.9903 35.6952 34.3969 36.1047 33.6641C36.5141 32.9315 36.7188 32.0257 36.7188 30.9467C36.7188 30.1644 36.6018 29.4789 36.3678 28.89C36.1363 28.3052 35.7923 27.7714 35.3555 27.3189C34.9146 26.8604 34.386 26.449 33.7697 26.0848C33.1533 25.7207 32.4582 25.3768 31.6842 25.0533C31.1173 24.8194 30.609 24.5924 30.1591 24.3722C29.7092 24.152 29.3268 23.9272 29.0119 23.6978C28.6969 23.4686 28.4539 23.2259 28.283 22.9695C28.112 22.7132 28.0266 22.4232 28.0266 22.0997C28.0266 21.803 28.103 21.5356 28.2559 21.2973C28.409 21.059 28.6249 20.8545 28.9039 20.6838C29.1829 20.513 29.5248 20.3804 29.9297 20.2858C30.3346 20.1914 30.7845 20.1442 31.2794 20.1442C31.6394 20.1442 32.0195 20.1712 32.4198 20.2252C32.8203 20.279 33.223 20.3622 33.628 20.4747C34.0316 20.5868 34.4264 20.7288 34.8089 20.8995C35.1798 21.0639 35.5345 21.2625 35.8684 21.4928V17.4605C35.2116 17.2087 34.494 17.0221 33.7156 16.9008C32.9373 16.7794 32.0442 16.7187 31.0364 16.7188C30.0107 16.7188 29.0389 16.8289 28.1211 17.0492C27.2033 17.2694 26.3957 17.6133 25.6983 18.0808C25.001 18.5485 24.4498 19.1442 24.0448 19.8678C23.6399 20.5916 23.4375 21.4569 23.4375 22.4639C23.4375 23.7495 23.8087 24.8464 24.5511 25.7545C25.2935 26.6627 26.4205 27.4314 27.932 28.0606C28.4901 28.2879 29.0436 28.5262 29.5922 28.7755C30.1051 29.0092 30.5483 29.2519 30.9217 29.5036C31.2952 29.7553 31.5898 30.0295 31.8058 30.3262C32.0217 30.623 32.1297 30.9602 32.1297 31.3378C32.1315 31.6096 32.0616 31.8771 31.9272 32.1133C31.7923 32.3515 31.5876 32.5583 31.3131 32.7336C31.0386 32.9089 30.6967 33.046 30.2873 33.1448C29.878 33.2437 29.3988 33.2932 28.8498 33.2933C27.9141 33.2933 26.9873 33.1292 26.0695 32.8009C25.1517 32.4727 24.3014 31.9805 23.5184 31.3242ZM16.3253 20.5847H21.875V17.0312H6.40625V20.5847H11.9289V36.4062H16.3253V20.5847Z" fill="var(--fill-0, white)"/>
</g>
<defs>
<clipPath id="clip0_148_320">
<rect width="40" height="40" fill="white"/>
</clipPath>
</defs>
</svg>
