<svg preserveAspectRatio="none" width="100%" height="100%" overflow="visible" style="display: block;" viewBox="0 0 45 45" fill="none" xmlns="http://www.w3.org/2000/svg">
<g id="logos:tailwindcss-icon">
<path id="Vector" d="M22.5 8.96484C16.5 8.96484 12.75 11.9648 11.25 17.9648C13.5 14.9648 16.125 13.8398 19.125 14.5898C20.8366 15.0177 22.06 16.2596 23.4142 17.634C25.6203 19.8733 28.1733 22.4648 33.75 22.4648C39.75 22.4648 43.5 19.4648 45 13.4648C42.75 16.4648 40.125 17.5898 37.125 16.8398C35.4134 16.412 34.19 15.1701 32.8358 13.7957C30.6297 11.5564 28.0767 8.96484 22.5 8.96484ZM11.25 22.4648C5.25 22.4648 1.5 25.4648 0 31.4648C2.25 28.4648 4.875 27.3398 7.875 28.0898C9.58658 28.5177 10.81 29.7596 12.1642 31.134C14.3703 33.3733 16.9233 35.9648 22.5 35.9648C28.5 35.9648 32.25 32.9648 33.75 26.9648C31.5 29.9648 28.875 31.0898 25.875 30.3398C24.1634 29.912 22.94 28.6701 21.5858 27.2957C19.3797 25.0564 16.8267 22.4648 11.25 22.4648Z" fill="var(--fill-0, #00FFB2)"/>
</g>
</svg>
