<svg width="1443" height="940" preserveAspectRatio="none" viewBox="0 0 1443 940" fill="none" xmlns="http://www.w3.org/2000/svg">
<path d="M4.51663 395.948C4.7421 385.225 4.5943 421.021 4.93103 397.251C4.95378 402.208 4.97725 407.195 5 412.151C4.87529 413.409 4.75089 414.696 4.62618 415.953C4.58946 409.297 4.55274 402.638 4.51602 395.948C4.51622 395.948 4.51642 395.948 4.51663 395.948ZM2.95481 386.859C3.31051 392.96 3.40534 412.341 3.73358 391.404C3.61151 389.74 3.48946 388.035 3.36739 386.371C3.46207 379.101 3.55672 371.788 3.65088 364.518C3.60435 361.904 3.55775 359.293 3.51173 356.679C3.72386 353.35 3.93656 350.051 4.14921 346.722C4.11816 349.678 4.08658 352.673 4.05553 355.629C4.22779 367.314 4.2749 377.712 4.30698 393.576C4.35717 392.183 4.40693 390.787 4.45712 389.394C4.37175 397.445 4.28616 405.492 4.20078 413.509C4.11698 406.546 4.02378 398.762 3.94567 392.309C3.61306 402.635 3.79818 420.848 3.86755 430.328C3.96224 443.238 3.80409 440.32 3.8703 449.899C3.88064 451.428 4.00461 451.602 4.0067 454.625C4.01653 469.879 3.95083 499.507 3.66157 482.18C3.69882 457.073 3.46654 435.66 3.5514 411.029C3.21694 417.545 3.10312 404.568 2.95481 386.859ZM4.01982 848.09C3.85738 840.482 3.92294 824.986 4.03569 814.488C4.03569 814.476 4.03569 814.464 4.03569 814.452C4.06053 812.142 4.27641 806.91 4.26761 814.452C4.25254 826.748 3.91272 832.693 4.14341 839.147C4.10047 842.034 4.06225 845.067 4.01982 848.09ZM4.03996 874.812C3.95666 882.354 3.7006 878.934 3.7699 869.49C3.76969 869.49 3.76949 869.49 3.76929 869.49C3.79827 865.549 4.00066 873.286 3.79523 859.152C3.95505 856.266 4.10045 853.423 4.2551 850.571C4.25769 854.031 4.26188 857.188 4.26395 860.818C4.00125 858.375 4.12262 867.272 4.03996 874.812ZM3.80621 494.925C4.04255 496.112 4.04105 491.145 4.20506 482.687C4.1973 490.669 4.18902 498.654 4.18125 506.603C4.05608 502.697 3.93138 498.831 3.80621 494.925ZM3.84283 307.381C3.84283 307.369 3.84283 307.356 3.84283 307.344C3.80558 304.729 3.76818 302.105 3.73145 299.523C3.81579 297.96 3.89977 296.415 3.98412 294.852C3.90495 285.611 3.82578 276.321 3.74609 267.08C4.00374 268.203 3.96182 284.79 4.14189 293.929C4.06427 307.517 3.91471 314.065 3.69635 314.948C3.74497 312.435 3.79421 309.928 3.84283 307.381ZM1440.18 781.914C1440.11 778.823 1440.04 775.771 1439.97 772.681C1439.94 776.79 1439.91 780.867 1439.87 785.01C1440.19 795.847 1439.91 796.864 1439.93 811.062C1439.99 854.582 1440.47 843.036 1439.76 882.34C1439.8 850.784 1439.47 862.911 1439.21 843.886C1439.41 839.945 1439.84 858.797 1439.94 846.022C1439.73 824.01 1439.54 802.843 1439.4 778.42C1439.37 779.133 1439.34 779.843 1439.3 780.556C1439.32 784.429 1439.35 788.27 1439.37 792.143C1439.28 787.964 1439.19 783.88 1439.1 779.633C1439.3 785 1439.19 771.321 1439.42 773.151C1439.53 773.967 1439.67 780.012 1439.77 783.58C1439.83 774.374 1439.88 764.933 1439.93 755.626C1440.01 760.449 1440.09 765.267 1440.18 770.055C1440.18 773.994 1440.18 777.903 1440.19 781.842C1440.18 781.866 1440.18 781.89 1440.18 781.914ZM239.279 3.25097C250.966 3.00776 272.204 2.96752 283.381 3.23815C268.671 3.24229 253.989 3.24683 239.279 3.25097ZM3.51631 315.835C3.55765 314.512 3.59855 313.23 3.6399 311.907C3.71647 317.749 3.79251 323.626 3.86907 329.468C3.74959 330.589 3.63009 331.735 3.51112 332.89C3.51267 327.218 3.51476 321.507 3.51631 315.835ZM3.64936 689.621C3.64213 685.347 3.64605 684.969 3.66309 679.646C3.66299 679.652 3.66289 679.658 3.66279 679.664C3.66915 677.554 3.73894 659.899 3.83093 661.867C3.83248 670.633 3.83093 679.982 3.83093 688.951C3.77042 689.223 3.71039 689.282 3.64936 689.621ZM3.70307 586.444C3.70327 586.432 3.70347 586.42 3.70368 586.407C3.71765 583.217 3.7461 580.195 3.75128 576.903C3.89606 588.756 3.63631 590.629 3.70978 601.398C3.78377 612.166 3.92709 618.82 3.57124 627.957C3.51794 624.56 3.44169 620.902 3.3796 617.402C3.52188 602.116 3.38798 597.999 3.24777 585.738C3.39988 585.975 3.55096 586.206 3.70307 586.444ZM1401.68 935.813C1398.76 935.989 1395.5 935.816 1395.16 935.814C1395.17 935.814 1395.17 935.814 1395.18 935.814C1369.3 935.977 1398.55 935.716 1374.12 935.689C1377.76 935.645 1381.33 935.599 1384.93 935.554C1390.5 935.639 1396.25 935.735 1401.68 935.813ZM560.852 935.797C560.614 935.745 560.329 935.694 560.091 935.643C574.768 935.655 578.51 935.453 590.706 935.637C580.754 935.69 570.804 935.744 560.852 935.797C560.852 935.797 560.852 935.797 560.852 935.797ZM3.27676 763.596C3.17896 747.323 3.13587 735.285 3.2911 719.657C3.2913 719.645 3.29151 719.633 3.29171 719.621C3.30127 718.72 3.40844 723.078 3.43544 721.902C3.41941 718.677 3.39477 715.348 3.37563 712.089C3.46146 711.648 3.54726 711.227 3.63258 710.786C3.60826 719.958 3.58396 729.135 3.55964 738.341C3.60983 736.982 3.65959 735.59 3.70978 734.231C3.73565 742.044 3.76142 749.827 3.78729 757.64C3.64659 754.923 3.50586 752.212 3.36464 749.529C3.33516 754.216 3.30676 758.91 3.27676 763.596ZM805.19 936.357C802.608 936.301 807.389 936.208 803.38 936.159C799.37 936.112 791.98 936.216 793.712 936.058C799.11 936.037 804.778 936.013 810.278 935.991C792.578 935.706 774.92 935.964 774.648 935.612C791.635 935.703 805.602 935.661 822.046 935.564C821.366 935.843 804.919 936.084 815.274 936.346C811.948 936.349 808.452 936.354 805.226 936.357C805.214 936.357 805.202 936.357 805.19 936.357ZM0.0191681 78.0868C0.0403841 68.0303 -0.0734334 44.9889 0.0890498 32.2824C0.129092 29.1562 0.647783 18.7415 0.716155 18.7945C0.94642 19.1003 0.977762 31.819 1.12782 18.197C1.12937 22.7794 1.13802 27.2267 1.14216 31.7754C1.29688 30.9601 1.45119 30.1489 1.60539 29.3675C1.58211 23.8297 1.5587 18.2853 1.5349 12.7475C1.58613 12.4758 1.63747 12.2047 1.6887 11.9329C1.68974 31.8418 1.88746 20.0892 2.07168 30.4176C2.1648 20.9068 2.25747 11.3255 2.3506 1.84863C2.33921 7.31767 2.33078 13.7713 2.31733 18.5953C2.57966 19.2409 2.51712 7.73148 2.56573 5.75923C2.84048 -5.34954 2.70181 51.2081 3.08359 55.8363C3.12601 46.8013 3.16741 37.3211 3.20932 28.0821C3.2564 30.7318 3.30352 33.4164 3.35061 36.0662C3.08729 57.0258 2.99401 80.5299 2.83 104.954C2.84086 107.16 2.85201 109.371 2.86235 111.544C2.9808 110.899 3.0988 110.288 3.21725 109.643C3.23122 112.973 3.24509 116.343 3.25906 119.673C2.86893 109.856 2.87425 123.45 2.63623 139.859C2.49912 131.13 2.58224 120.36 2.32679 121.103C2.52333 151.065 2.24558 186.154 2.46747 215.301C2.52231 222.536 2.85185 222.513 2.82146 239.525C2.78524 238.947 2.71984 238.848 2.67223 238.475C2.83006 267.897 2.92441 285.747 2.76348 316.324C2.88192 314.558 3.00085 312.822 3.11929 311.056C3.0603 304.567 3.00038 298.067 2.94139 291.612C3.13697 287.196 3.22329 293.722 3.22122 274.358C3.21967 258.492 3.13331 267.937 3.07535 263.622C2.99623 257.78 3.15188 252.652 3.06345 246.368C2.99566 241.51 2.83429 246.766 2.87517 234.093C3.08422 239.19 3.30009 244.388 3.51173 249.519C3.46464 252.61 3.41683 255.678 3.36922 258.77C3.31334 255.644 3.25818 252.572 3.2023 249.446C3.30268 260.453 3.39736 270.853 3.50136 282.233C3.19916 278.53 3.31246 290.294 3.34817 296.681C3.40399 306.63 3.19601 298.106 3.23068 304.629C3.26588 311.151 3.49824 318.186 3.44856 329.975C3.31405 323.657 3.19342 332.252 3.06925 330.591C2.94508 328.926 2.91759 316.457 2.78209 328.436C2.88506 351.47 3.35792 326.476 3.43453 342.033C3.52663 360.717 2.75584 365.163 2.59015 359.594C2.45975 355.211 2.48597 340.131 2.35609 335.714C2.12169 362.723 2.58443 362.958 2.67498 367.578C3.00458 384.361 2.12487 373.087 2.44306 392.961C2.27855 392.587 2.13059 392.284 1.97281 391.911C2.00282 395.34 2.0427 397.616 2.06649 401.759C2.38703 389.542 2.37329 399.542 2.37379 404.674C2.37482 412.76 2.53117 400.271 2.57153 402.411C2.67954 408.187 2.6305 417.321 2.77172 411.717C2.706 414.231 2.64009 416.956 2.57489 419.538C2.65677 428.985 3.3434 451.186 3.20474 430.057C3.45985 432.027 3.33723 438.863 3.29842 444.196C3.25965 449.529 3.42212 449.43 3.39211 454.118C3.27205 472.767 2.99414 460.567 2.77629 457.612C2.92635 482.242 3.02563 458.129 3.12601 493.622C3.3035 497.053 3.49289 480.653 3.59535 494.31C3.287 496.825 3.0655 506.881 2.96305 526.482C3.03395 528.384 3.10547 530.282 3.17636 532.184C2.89176 542.886 2.59581 537.416 2.94871 557.223C2.29931 546.589 2.71476 553.901 2.45038 571.634C2.39708 575.236 2.26235 566.914 2.19405 571.942C2.16324 574.221 2.26495 579.755 2.18642 585.321C2.14761 588.039 1.89721 600.746 2.01614 609.545C2.33076 603.09 2.5984 619.809 2.85869 605.472C2.79452 631.971 2.94558 650.518 2.5166 620.824C2.42139 627.551 2.32658 634.284 2.23189 641.011C2.30692 645.699 2.38136 650.428 2.45588 655.15C2.1973 655.863 2.12476 655.147 2.17025 673.617C2.10921 665.603 2.04717 657.622 1.98562 649.574C1.93341 649.303 1.87914 648.183 1.82847 648.452C1.92778 658.309 1.97052 686.064 2.03933 692.79C2.10815 699.517 2.12699 686.526 2.19374 688.463C2.74419 704.597 2.33822 703.318 2.43268 714.895C2.48857 721.69 2.54925 705.466 2.57306 709.102C2.6603 722.581 2.36775 728.833 2.36402 740.785C2.53008 736.539 2.69871 732.328 2.86632 728.184C2.85752 740.721 2.85605 754.695 2.90934 766.348C2.93015 770.923 3.05365 767.466 3.06192 768.213C3.10436 771.919 3.17157 787.002 3.17209 788.599C3.17307 800.619 3.00202 800.962 2.99265 812.642C2.97817 808.057 2.96512 803.745 2.95115 799.262C2.67383 797.224 2.39652 795.145 2.11867 793.107C2.0985 804.554 2.07873 816.006 2.05856 827.487C2.15117 819.097 2.24334 810.676 2.33595 802.286C2.56 815.399 2.78456 828.513 3.00913 841.627C2.87149 848.455 2.73389 855.257 2.59625 862.085C2.63256 880.629 3.19127 876.895 2.70184 885.693C2.74321 891.161 2.78456 896.629 2.82543 902.096C2.75559 901.315 2.68561 900.542 2.61578 899.761C2.65873 906.351 2.7014 912.94 2.74486 919.531C2.99218 912.601 3.25244 905.808 3.49251 898.946C3.54625 911.916 3.33644 912.165 3.28408 914.099C3.1454 919.229 3.33246 929.412 3.20413 933.489C3.16007 934.867 3.02195 922.157 2.86265 926.537C2.84749 926.957 2.69854 931.276 2.56688 936.849L2.5 936.782C8.27421 936.918 15.3947 937.036 20.9204 936.967C20.7161 936.861 19.8777 936.731 19.4358 936.616C34.0394 936.551 41.4858 937.105 39.5499 937.26C47.3303 937.151 58.7008 937.142 60.2977 936.973C64.273 936.969 68.2173 936.965 72.1923 936.961C68.0509 937.374 84.6292 937.298 85.7164 936.943C78.8877 936.934 72.0509 936.925 65.2222 936.916C70.3862 936.48 49.6346 936.217 92.8135 936.621C101.069 936.848 78.1385 936.59 84.8656 936.76C96.5513 936.859 107.522 936.776 118.63 936.934C132.453 937.131 115.446 937.32 147.652 937.069C76.6132 936.441 157.395 936.645 190.759 936.45C199.932 937.071 228.108 937.267 266.906 937.083C262.864 936.91 250.657 936.999 243.624 936.942C236.593 936.885 244.2 936.782 235.441 936.702C226.678 936.621 208.066 936.511 199.196 936.389C206.709 936.291 243.794 936.06 219.274 936.338C237.579 936.509 246.175 936.685 268.862 936.717C275.656 936.448 275.154 936.28 297.268 936.272C284.189 936.647 309.318 936.907 303.785 937.294C288.103 937.204 296.868 936.828 287.799 936.648C286.869 936.63 272.258 936.724 268.862 936.717C283.606 937.055 288.706 937.181 279.634 937.583C290.064 937.548 296.552 937.598 297.503 937.406C299.677 937.49 301.863 937.573 304.003 937.656C307.397 937.654 310.453 937.646 314.051 937.648C309.095 937.358 318.701 937.537 325.529 937.405C332.358 937.274 323.196 937.045 341.95 937.042C335.698 936.974 329.983 936.916 323.936 936.852C336.029 936.778 348.16 936.703 360.253 936.628C351.76 936.451 333.354 936.188 333.857 935.956C339.427 936.044 358.509 935.889 360.597 935.883C368.683 935.859 364.277 936.006 364.888 936.009C377.591 936.081 388.055 936.031 392.878 936.253C402.424 936.153 409.622 936.21 419.745 936.204C425.316 936.201 424.233 936.038 427.494 936.069C449.168 936.276 428.518 936.487 470.329 936.085C465.267 935.971 460.273 935.855 455.212 935.74C459.934 935.697 464.629 935.654 469.351 935.611C472.511 935.631 475.642 935.652 478.802 935.673C478.734 935.92 478.653 936.167 478.585 936.414C482.05 936.427 485.53 936.44 488.995 936.454C483.049 936.478 477.089 936.503 471.144 936.527C470.601 936.57 470.094 936.614 469.551 936.657C478.384 936.724 487.186 936.792 496.019 936.86C496.189 936.774 496.357 936.688 496.526 936.602C516.435 936.721 516.909 936.794 535.831 936.558C550.406 936.56 562.275 936.201 570.7 936.05C573.723 936.098 576.75 936.147 579.807 936.195C581.744 936.124 583.7 936.053 585.637 935.981C589.475 936.081 593.367 936.18 597.205 936.279C599.345 936.053 600.453 935.983 585.474 935.904C590.604 935.623 616.976 935.747 627.712 935.841C635.856 935.913 626.819 936.147 627.838 936.175C631.239 936.272 644.662 936.188 647.482 936.204C659.406 936.271 667.761 936.259 678.531 936.311C680.627 936.321 686.488 936.47 686.986 936.474C690.859 936.5 700.418 936.572 701.506 936.574C757.584 936.685 697.663 936.041 749.808 936.109C748.246 936.024 746.81 935.94 745.282 935.855C749.221 935.85 753.202 935.845 757.141 935.84C762.135 935.911 756.093 936.04 766.012 935.936C765.367 936.04 764.718 936.145 764.039 936.249C768.354 936.192 772.512 936.137 776.929 936.08C783.859 936.443 809.161 936.525 807.363 936.951C806.751 937.096 788.814 937.245 798.292 937.399C805.994 937.43 800.781 937.257 803.923 937.248C826.618 937.185 825.299 937.427 834.574 937.362C836.034 937.258 837.57 937.152 839.064 937.047C842.561 937.078 846.069 937.109 849.601 937.139C850.416 937.069 851.266 936.999 852.081 936.929C848.786 936.925 845.075 936.92 842.051 936.915C846.267 936.645 884.987 936.523 870.222 936.754C864.209 936.848 853.196 936.808 860.156 937.127C870.517 937.081 882.273 937.034 893.178 936.988C893.518 937.057 893.834 937.126 894.174 937.195C908.871 937.15 895.505 936.875 895.532 936.728C898.893 936.724 902.29 936.72 905.652 936.716C907.077 936.782 908.432 936.852 909.925 936.917C910.062 936.811 911.944 936.564 921.964 936.656C928.407 936.715 918.261 936.983 930.546 936.946C929.628 936.78 925.19 936.579 938.874 936.525C940.233 936.698 942.112 936.856 943.165 937.038C960.182 936.872 967.926 937.139 987.901 936.946C1000.57 936.824 1017.93 936.39 1026.12 937.058C1035.39 937.076 1032.45 936.909 1035.19 936.872C1048.13 936.695 1057.76 937.012 1060.17 937.03C1075.56 937.15 1082.46 937.04 1094.99 937.19C1094.31 937.066 1093.94 936.949 1093.4 936.828C1081.91 937.014 1076.1 937.005 1059.99 936.965C1065.39 936.94 1070.8 936.915 1076.2 936.89C1075.31 936.79 1074.44 936.689 1073.59 936.589C1023.78 936.985 1035.4 936.36 1077.16 936.224C1080.76 936.409 1084.49 936.595 1088.06 936.781C1112.18 936.499 1123.53 936.744 1150.81 936.802C1154.05 936.809 1165.86 936.702 1170.94 936.697C1170.85 936.696 1170.77 936.695 1170.68 936.694C1173.84 936.519 1169.56 936.438 1169.05 936.281C1171.81 936.262 1174.56 936.242 1177.31 936.223C1183.46 936.342 1181.29 936.44 1193.39 936.412C1191.76 936.293 1190.15 936.174 1188.52 936.055C1201.77 936.051 1210.44 936.18 1222.77 936.124C1220.7 936.169 1218.65 936.214 1216.58 936.259C1243.42 936.374 1222.06 937.074 1242.34 936.726C1243.63 936.787 1244.89 936.848 1246.18 936.909C1237.82 936.924 1229.46 936.939 1221.14 936.954C1220.97 937.04 1220.79 937.126 1220.65 937.213C1229.59 937.187 1238.57 937.16 1247.5 937.134C1240.98 937.192 1234.42 937.25 1227.89 937.308C1238.26 937.349 1248.62 937.391 1258.98 937.432C1247.98 937.115 1262.24 937.076 1259.56 936.761C1277.91 937.023 1292.32 937.368 1320.75 937.147C1326.39 937.103 1323.33 936.883 1339.33 937.151C1335.46 936.801 1355.5 936.637 1352.92 936.304C1347.35 936.32 1341.58 936.331 1336.18 936.35C1342.33 936.466 1343.35 936.783 1334.01 936.877C1322.08 936.997 1304.69 936.777 1305.4 937.13C1300.65 937.113 1296.22 937.103 1291.6 937.089C1293.51 937.002 1295.37 936.914 1297.23 936.827C1284.09 936.964 1275.83 936.919 1269.52 936.699C1285.18 936.648 1300.8 936.598 1316.46 936.548C1314.16 936.533 1311.82 936.518 1309.51 936.503C1321.37 936.278 1309.14 936.065 1331.25 936.017C1331.12 936.12 1331.01 936.223 1330.87 936.326C1338.93 936.051 1360.97 936.052 1353.94 935.736C1360.6 935.833 1361.95 935.894 1365.72 935.724C1383.29 935.964 1394.57 936.269 1388.32 936.632C1394.84 936.573 1401.37 936.515 1407.85 936.456C1404.08 936.357 1400.31 936.258 1396.54 936.159C1407.89 936.165 1419.32 936.171 1430.63 936.177C1431.72 936.471 1408.79 936.266 1415.4 936.529C1416.73 936.581 1422.83 936.469 1424.44 936.498C1441.35 936.82 1414.8 936.587 1419.78 936.834C1437.5 936.887 1432.8 937.107 1440.5 937.112L1440.76 937.112L1440.76 936.849C1440.77 933.594 1440.73 928.124 1440.63 917.807C1440.71 916.889 1440.8 915.904 1440.88 915.055C1440.89 903.001 1440.7 903.979 1440.66 893.619C1440.64 887.131 1440.97 878.987 1440.74 871.821C1440.7 870.544 1440.29 882.598 1440.31 857.265C1440.32 837.604 1440.61 845.787 1440.72 835.159C1440.82 824.525 1440.42 800.199 1440.87 793.03C1440.81 798.6 1440.78 805.695 1440.73 811.877C1440.82 814.391 1440.91 816.838 1441 819.318C1440.88 805.185 1441.02 790.576 1440.8 781.063C1441.13 762.207 1440.83 741.12 1440.46 746.827C1440.51 753.034 1440.67 746.282 1440.57 754.902C1440.49 755.785 1440.4 756.716 1440.32 757.6C1440.33 742.923 1440.32 732.73 1440.58 739.423C1440.59 737.146 1440.6 734.891 1440.6 732.615C1440.42 732.208 1440.23 731.846 1440.04 731.439C1440.02 728.721 1440 725.991 1439.97 723.273C1440.02 720.252 1440.06 717.223 1440.1 714.167C1440.4 718.278 1440.41 725.28 1440.57 702.109C1440.47 702.041 1440.37 701.942 1440.27 701.874C1440.4 682.476 1440.65 681.964 1440.64 657.608C1440.99 676.294 1440.36 686.517 1441.08 686.449C1441.03 691.137 1440.98 695.864 1440.94 700.552C1441.04 701.266 1441.14 701.973 1441.25 702.652C1441.19 677.48 1440.51 635.664 1440.96 618.81C1440.91 616.772 1440.86 614.727 1440.8 612.655C1441.07 596.143 1440.46 589.013 1440.81 572.264C1440.85 570.536 1441.43 574.152 1441.41 552.349C1441.33 552.892 1441.21 553.174 1441.11 553.616C1441.16 548.895 1441.2 544.199 1441.25 539.513C1441.18 538.663 1441.11 537.773 1441.04 536.924C1441.02 544.976 1440.99 553.005 1440.96 561.057C1440.94 554.367 1440.91 547.633 1440.89 540.943C1440.78 549.672 1440.78 553.609 1440.59 548.347C1440.58 540.771 1440.57 533.185 1440.56 525.608C1440.52 524.828 1440.47 524.053 1440.42 523.273C1440.28 526.942 1440.15 530.648 1440.01 534.316C1440.12 514.578 1440.13 497.418 1440.4 482.266C1440.44 479.684 1440.63 488.815 1440.46 471.222C1440.56 470.95 1440.64 470.478 1440.72 470.172C1440.46 448.633 1440.54 441.556 1440.73 419.099C1440.55 433.64 1440.67 420.666 1440.57 416.963C1440.5 414.426 1440.51 424.329 1440.44 423.209C1440.37 422.088 1440.09 409.219 1440.06 420.222C1440.63 447.197 1439.95 454.546 1440.22 489.2C1440.15 483.866 1440.08 478.493 1440 473.159C1439.95 475.671 1439.91 477.92 1439.85 480.637C1439.96 461.309 1439.89 470.709 1439.8 462.767C1439.71 454.817 1439.64 440.369 1439.62 430.686C1439.61 427.636 1439.74 430.853 1439.75 423.969C1439.76 419.282 1439.57 406.469 1439.79 403.511C1439.94 401.575 1440.34 422.158 1440.34 393.699C1440.48 388.342 1440.44 401.987 1440.46 402.28C1440.63 404.76 1440.76 387.265 1440.62 379.179C1440.61 378.524 1440.48 384.909 1440.43 377.966C1440.3 361.488 1440.46 351.972 1440.66 341.304C1440.42 340.149 1440.13 326.283 1440.22 309.024C1440.15 308.141 1440.08 307.3 1440.01 306.417C1440.05 309.097 1440.08 311.775 1440.12 314.455C1440.08 317.377 1440.05 320.473 1439.99 323.326C1439.94 305.97 1439.6 303.515 1439.48 295.192C1439.06 266.71 1439.94 283.972 1440.1 289.109C1440.04 292.812 1439.97 296.393 1439.9 300.062C1439.99 299.654 1440.07 299.241 1440.16 298.867C1440.15 256.231 1440.7 292.374 1440.86 270.733C1440.45 265.161 1440.41 249.267 1440.67 229.02C1440.67 226.778 1440.67 224.527 1440.66 222.285C1440.6 221.912 1440.51 221.917 1440.47 221.307C1440.4 196.914 1441.04 192.568 1441.1 190.258C1441.37 179.999 1441 172.01 1440.99 168.985C1440.98 156.246 1441.15 152.543 1441.07 140.416C1441 127.373 1440.87 136.292 1440.76 132.324C1440.67 129.141 1440.65 118.85 1440.56 114.599C1440.64 116.288 1440.71 118.166 1440.79 119.85C1440.89 106.331 1440.99 95.2828 1441.02 79.9292C1440.46 62.604 1441.4 47.863 1440.64 53.8405C1440.58 68.3816 1440.5 76.5122 1440.3 84.2924C1440.28 74.7477 1440.25 65.1956 1440.23 55.651C1440.31 52.8662 1440.4 50.8891 1440.48 47.5945C1440.3 40.4613 1440.38 23.9242 1440.33 17.4324C1440.27 10.4483 1440.21 5.56463 1440.16 1.84863L1440.5 2.18948C1428.04 2.36337 1428.71 2.45323 1407.33 2.06023C1424.81 2.01679 1426.99 1.82211 1440.5 1.79645L1440.55 1.7964V1.84863C1440.56 3.79914 1440.56 5.98579 1440.55 8.48872C1440.62 6.7353 1440.66 4.00874 1440.69 1.84863L1440.69 1.65496L1440.5 1.65517C1437.39 1.6082 1435.45 1.56968 1439.3 1.44442C1420.11 1.49668 1426.31 1.68609 1418.84 1.85425C1412.4 1.99922 1399.43 2.00733 1400.16 2.19572C1398.83 2.09215 1397.81 1.99187 1396.48 1.88843C1384.05 1.88946 1371.62 1.88953 1359.19 1.89056C1364.49 1.78243 1369.78 1.6741 1375.08 1.56648C1371.08 1.52564 1367.07 1.48496 1363.06 1.44411C1332.49 1.78046 1279.76 1.16403 1288.18 2.00897C1273.44 2.03587 1271.59 1.9299 1263.58 1.77003C1262.7 1.83417 1261.84 1.88753 1260.95 1.95892C1251.44 1.89177 1244.14 2.1326 1235.75 2.07C1227.36 2.00788 1225.28 1.7804 1224.06 2.16277C1218.62 2.05309 1213.22 1.96197 1207.82 1.86005C1204.56 1.94691 1201.3 2.03278 1198.08 2.11913C1192.98 2.0736 1187.87 2.02825 1182.78 1.98272C1180.05 2.16525 1160.02 2.08657 1151.19 2.20915C1142.8 2.0124 1143.03 1.39292 1123.3 1.50393C1123.81 1.65757 1124.32 1.81077 1124.83 1.96441C1120.31 1.93234 1115.78 1.90036 1111.23 1.86829C1110.96 1.81814 1110.72 1.76799 1110.45 1.71784C1112.76 1.73336 1115.04 1.7488 1117.35 1.76484C1115.34 1.67997 1113.38 1.5955 1111.41 1.51064C1104.51 1.63636 1097.61 1.7621 1090.68 1.88782C1100.02 1.98301 1109.37 2.07826 1118.71 2.17345C1106.98 2.28625 1098.83 2.17374 1088.63 2.29948C1079.77 2.08736 1083.04 1.96513 1086.64 1.73493C1083.35 1.75459 1080.02 1.77356 1076.72 1.79322C1078.89 1.56299 1073.32 1.42581 1092.58 1.44442C1091.26 1.37875 1089.91 1.31615 1088.62 1.2479C1085.46 1.25824 1083.41 1.20274 1079.94 1.22806C1070.5 1.2974 1063.26 1.70178 1063.9 1.84357C1064.25 1.91784 1073.56 1.7758 1073.19 1.8808C1072.27 2.13684 1050.91 2.02188 1081.72 2.27903C1071.49 2.44203 1069.21 2.31911 1057.93 2.27201C1058.81 2.35733 1059.67 2.44211 1060.52 2.52743C1055.29 2.48812 1050.05 2.44895 1044.82 2.40964C1052.09 1.97137 1013.53 1.80676 1048.24 1.42336C1037.99 1.4037 1027.76 1.38394 1017.54 1.36325C1019.64 1.31824 1021.75 1.27368 1023.86 1.22867C1028.48 1.25247 1033.07 1.27588 1037.69 1.29916C1032.25 1.21691 1026.81 1.13515 1021.38 1.0529C1008.53 1.15484 1003.5 1.31162 997.623 1.50515C1012.57 1.64637 1007.68 1.45346 1019.33 1.41512C1018.92 1.53768 1019.46 1.65042 1018.44 1.77918C1012.43 1.52532 992.796 1.71 988.245 1.72242C974.392 1.76013 985.255 1.5107 975.988 1.50545C966.713 1.50028 955.774 1.64874 948.198 1.40139C948.333 1.54003 948.94 1.68347 949.483 1.8097C935.044 1.85523 937.924 1.69145 936.43 1.67024C912.58 1.32148 899.639 1.61592 872.358 1.65162C875.823 1.69456 879.323 1.73333 882.822 1.77369C862.241 2.06804 876.105 1.97791 893.974 2.07519C877.225 2.04569 867.633 2.29637 855.81 2.37089C843.989 2.44527 823.715 2.31652 816.306 2.21617C833.259 2.05472 851.544 2.16119 870.366 2.11669C868.227 1.97546 866.147 1.85593 863.939 1.70075C852.491 1.99717 845.858 1.79897 842.087 1.75965C831.014 1.64431 831.362 1.89873 824.67 1.62507C824.942 1.71921 825.141 1.79837 825.413 1.88629C802.549 1.84697 777.888 1.68054 763.006 2.02819C761.648 1.80208 760.622 1.58424 759.06 1.35348C749.378 1.52369 741.087 1.34939 732.935 1.38919C724.815 1.42903 727.906 1.61176 718.361 1.68214C716.594 1.69508 712.915 1.5807 708.566 1.66505C704.175 1.74984 687.981 2.3803 686.044 1.82953C677.857 1.82694 670.109 1.8068 662.092 1.79749C669.905 1.76645 677.721 1.73638 685.501 1.70533C678.843 1.57184 672.226 1.43875 665.568 1.30527C664.719 1.42428 663.867 1.54545 663.051 1.66291C645.113 1.8078 632.096 1.61321 613.988 1.65925C610.965 1.66701 618.098 1.90232 604.682 1.84235C591.263 1.78233 581.305 1.34314 558.443 1.51278C557.288 1.52157 550.518 1.85793 542.33 1.62507C540.467 1.5723 548.309 1.49421 544.032 1.42489C539.751 1.35555 520.651 1.29853 519.157 1.13346C519.36 1.19192 520.552 1.25249 521.13 1.31198C517.869 1.33991 514.576 1.36787 511.281 1.39529C510.975 1.29233 510.645 1.18921 510.34 1.08677C491.587 1.32634 481.895 1.71716 454.107 1.58784C461.92 1.73738 469.737 1.88751 477.516 2.03704C479.656 1.932 481.801 1.82624 483.907 1.7212C496.713 1.76311 509.555 1.80471 522.361 1.84662C524.467 1.72709 526.537 1.6079 528.643 1.48836C532.04 1.50388 535.403 1.51892 538.8 1.53444C537.951 1.62085 537.094 1.70681 536.211 1.79322C542.936 1.77201 549.67 1.75035 556.361 1.72913C542.738 2.2392 518.318 1.68575 520.08 2.11242C517.058 2.04622 514.031 1.97956 511.01 1.91284C509.684 2.11973 503.539 2.06018 492.706 2.02758C495.186 2.12952 497.925 2.23007 500.201 2.33305C489.669 2.18921 470.987 2.20318 460.081 2.14781C455.292 2.1235 460.076 1.9735 458.651 1.95587C451.347 1.86376 437.385 2.12549 434.464 2.10479C417.002 1.98161 405.654 1.48542 386.595 1.81244C406.266 1.89317 395.565 1.85907 402.563 2.0407C404.754 2.09765 430.167 2.21644 398.345 2.16368C394.614 2.15708 336.873 1.81425 355.854 1.55153C346.511 1.63536 339.196 1.73229 330.634 1.82129C309.706 1.12893 316.949 1.77935 323.03 2.13744C319.599 2.13899 316.335 2.14263 312.801 2.14263C320.31 1.76643 282.057 1.74307 269.079 1.93298C264.73 1.99611 276.89 2.11653 266.834 2.17345C262.045 2.14707 256.613 2.11291 251.554 2.08343C258.892 2.32144 244.49 2.41316 244.692 2.6553C235.486 2.43953 228.444 1.9822 233.503 1.73432C225.895 1.83469 218.246 1.93493 210.637 2.03582C214.171 2.09326 217.75 2.15019 221.283 2.20763C196.414 2.05549 164.437 2.40167 159.239 1.89301C155.943 1.89663 152.613 1.89976 149.317 1.90338C148.298 1.98928 147.313 2.07534 146.294 2.16124C131.383 2.08674 116.505 2.01175 101.594 1.93725C114.871 1.88395 118.032 1.76168 131.955 1.86096C126.59 1.76217 121.124 1.66283 115.86 1.56404C94.8984 1.83001 92.0389 2.00482 60.4785 1.92566C59.0515 1.92203 35.2052 1.69899 34.3899 1.67726C30.6542 1.57791 36.3248 1.43359 34.6614 1.38339C30.0409 1.24264 1.9642 0.889227 2.50779 0.835929C9.37069 0.181857 103.836 0.173187 129.384 0.139552C394.382 -0.209198 653.544 0.257386 916.877 0.177697C919.584 0.176464 918.402 0.079909 919.556 0.0757736C926.723 0.0515234 933.762 0.202005 936.411 0.208213C942.073 0.221008 938.956 0.0819758 943.092 0.0818768C985.832 0.0834292 1026.16 0.165185 1068.94 0.141383C1071.72 0.139831 1068.88 0.251069 1073.77 0.231405C1076.3 0.220639 1084.2 0.0499774 1089.9 0.0473937C1109.81 0.0386007 1126.53 0.0933137 1147.53 0.0907265C1159.01 0.0891819 1176.24 0.103689 1189.08 0.101102C1194.75 0.100002 1200.66 0.0219275 1206.26 0.0193188C1214.21 0.0156966 1212.59 0.173969 1213.81 0.1838C1219.18 0.22674 1219.92 0.0530249 1225.02 0.0571588C1234.49 0.065438 1235 0.181421 1247.03 0.171594C1255.63 0.16435 1275.3 0.072776 1286.14 0.0458678C1311.48 0.180395 1343.42 0.126988 1367.06 0.0824871C1381.06 0.0561073 1382.36 0.218496 1388.07 0.217978C1407.52 0.214935 1422.44 0.0206522 1440.5 0.00197554L1442.34 3.21865e-05L1442.35 1.84863C1442.35 2.45312 1442.35 3.06111 1442.35 3.67292C1442.36 28.7396 1442.22 50.9544 1442.21 75.2401C1442.21 79.1784 1442.36 78.274 1442.36 82.1379C1442.37 96.4412 1442.4 114.731 1442.38 127.472C1442.36 141.67 1442.14 146.908 1442.19 160.802C1442.2 164.875 1442.39 166.07 1442.41 172.896C1442.45 183.8 1442.28 195.757 1442.26 203.366C1442.24 213.796 1442.43 204.725 1442.41 218.791C1442.41 219.369 1442.27 221.473 1442.27 224.494C1442.29 233.293 1442.4 232.42 1442.39 245.296C1442.39 246.531 1442.26 263.604 1442.26 265.301C1442.26 275.289 1442.21 295.398 1442.24 301.311C1442.34 322.443 1442.54 305.807 1442.09 323.779C1442.2 331.693 1442.32 339.541 1442.42 347.93C1442.32 342.332 1442.18 365.054 1442.19 366.651C1442.26 379.859 1442.44 371.991 1442.41 388.738C1442.01 366.621 1442.36 410.344 1442.37 420.095C1442.42 467.045 1442.32 509.723 1442.32 556.911C1442.32 572.708 1442.41 593.878 1442.4 610.591C1442.4 614.487 1442.31 611.543 1442.31 614.972C1442.31 618.393 1442.41 614.598 1442.41 618.503C1442.37 642.793 1442.17 661.825 1442.42 684.077C1442.38 685.16 1442.35 685.126 1442.31 686.919C1442.54 705.13 1442.24 740.199 1442.19 753.381C1442.13 773.998 1442.28 779.265 1442.25 794.243C1442.21 814.05 1441.91 843.787 1442.41 830.506C1442.42 844.094 1442.43 857.174 1442.38 870.898C1442.37 872.425 1442.25 871.372 1442.25 871.984C1442.23 875.856 1442.34 877.117 1442.35 879.733C1442.36 886.825 1442.22 875.251 1442.26 885.363C1442.28 890.697 1442.38 893.726 1442.38 908.537C1442.38 917.895 1442.38 927.337 1442.38 936.849L1442.39 938.731L1440.5 938.733C1359.27 938.735 1273 938.705 1191.07 938.69C1184.78 938.689 1188.92 938.811 1181.04 938.803C1153.66 938.776 1104.64 938.571 1081.03 938.599C1057.42 938.627 1062.75 938.805 1047.97 938.88C1045.12 938.894 1047.46 938.793 1044.88 938.791C1027.52 938.782 1006.82 938.624 992.753 938.6C983.452 938.584 984.197 938.743 977.744 938.755C968.13 938.771 958.234 938.61 953.104 938.605C928.987 938.582 912.406 938.712 889.883 938.646C890.764 938.681 891.346 938.714 892.092 938.748C865.425 938.742 838.791 938.737 812.124 938.731C813.381 938.763 814.597 938.795 815.854 938.828C784.566 938.81 788.136 938.463 790.888 939.197C788.612 939.223 786.2 939.253 784.026 939.277C784.909 938.898 765.982 938.622 741.897 938.525C740.13 938.518 728.277 938.887 729.568 938.451C726.476 938.558 724.634 938.631 722.018 938.725C716.923 938.593 711.76 938.463 706.665 938.331C703.914 938.351 701.125 938.37 698.373 938.39C697.966 938.475 698.279 938.564 697.396 938.647C684.623 938.66 658.426 938.555 648.333 938.566C623.26 938.593 597.733 938.824 578.232 938.575C568.733 938.6 578.166 938.768 564.038 938.746C562.442 938.661 560.941 938.58 559.276 938.493C547.73 938.872 545.318 938.641 529.495 938.562C518.794 938.508 511.786 938.601 501.595 938.583C499.013 938.578 499.379 938.467 497.612 938.47C491.696 938.482 474.814 938.635 470.637 938.639C432.793 938.68 400.281 938.662 364.236 938.622C360.364 938.617 365.385 938.727 361.376 938.722C354.926 938.715 358.721 938.546 354.985 938.538C344.563 938.516 344.484 938.694 329.947 938.703C282.078 938.734 227.043 938.6 177.036 938.588C175.473 938.588 175.566 938.693 173.867 938.693C162.795 938.699 151.586 938.558 141.533 938.559C124.852 938.561 112.314 938.708 95.8369 938.707C63.8797 938.707 35.3008 938.633 2.5 938.628L0.722805 938.63L0.720928 936.849C0.720969 936.592 0.721005 936.335 0.721038 936.078C0.72466 908.967 0.710755 885.421 0.711272 855.694C0.713342 725.844 0.38245 593.342 0.558387 462.609C0.56304 459.282 0.655144 460.636 0.651156 459.622C0.611313 449.973 0.48704 449.112 0.747281 445.681C0.695992 433.39 0.500476 429.511 0.514444 414.668C0.521767 406.757 0.824803 412.663 0.66855 399.279C0.527296 387.194 0.36122 400.53 0.530922 364.591C0.535587 363.639 0.720299 358.956 0.672212 351.483C0.624605 343.975 0.492341 352.666 0.452496 334.592C0.359363 292.16 0.519029 238.45 0.46989 189.122C0.466785 186.03 0.368034 156.256 0.322498 150.378C0.234016 139.004 0.0967517 141.38 0.0631111 126.607C0.0372381 115.192 0.192726 105.773 0.161678 92.3531C0.157904 90.7899 -0.00203323 88.1719 0.0191681 78.0868ZM1439.87 732.652C1439.72 729.865 1439.14 724.838 1439.32 707.993C1439.33 706.397 1439.73 715.016 1439.79 705.712C1439.83 714.817 1439.85 723.683 1439.87 732.652C1439.87 732.652 1439.87 732.652 1439.87 732.652ZM3.70215 5.07124C3.67317 17.6756 3.64446 30.3233 3.61549 42.9278C3.54563 34.2306 3.47591 25.5205 3.40554 16.8573C3.50435 12.917 3.60334 9.01147 3.70215 5.07124ZM639.769 935.921C639.757 935.921 639.745 935.921 639.733 935.921C652.983 935.846 666.241 935.772 679.491 935.697C678.098 935.752 676.701 935.807 675.308 935.862C664.846 935.948 654.379 936.035 643.951 936.121C642.559 936.054 641.162 935.988 639.769 935.921ZM535.089 936.502C526.629 936.436 528.7 936.326 524.045 936.219C524.045 936.219 524.045 936.22 524.045 936.22C522.816 936.192 517.095 936.168 514.884 936.163C515.699 936.232 516.753 936.3 517.636 936.368C497.897 936.535 459.295 935.943 509.272 935.704C508.524 935.791 507.81 935.878 507.063 935.965C531.898 935.94 559.584 936.129 535.089 936.502ZM1439.62 532.959C1439.34 511.759 1439.28 504.961 1439.47 479.242C1439.56 482.875 1439.64 486.509 1439.72 490.141C1439.63 494.388 1439.55 498.604 1439.47 502.851C1439.47 502.863 1439.47 502.875 1439.47 502.887C1439.56 503.736 1439.64 504.588 1439.73 505.404C1439.69 514.576 1439.66 523.787 1439.62 532.959ZM3.05277 657.92C3.62118 652.011 3.29079 653.716 3.41896 670.594C3.46346 676.437 3.56292 670.742 3.57948 674.377C3.66992 694.008 3.28909 695.578 3.09091 691.196C3.07746 680.087 3.06519 668.862 3.05277 657.957C3.05277 657.944 3.05277 657.932 3.05277 657.92ZM2.93467 148.586C2.93467 148.574 2.93467 148.562 2.93467 148.55C3.07332 148.04 3.11061 155.954 3.24197 147.029C3.24145 153.819 3.24035 160.609 3.23983 167.433C3.22692 165.431 3.2146 163.387 3.20169 161.386C3.15408 163.152 3.10587 164.924 3.05826 166.69C3.21763 169.102 3.12499 171.343 3.07169 178.476C3.24193 176.506 3.41229 174.545 3.58253 172.574C3.53183 180.862 3.48095 189.18 3.43025 197.468C3.38735 197.57 3.34438 197.674 3.30148 197.776C3.35631 200.9 3.41174 203.993 3.46657 207.118C3.41535 207.967 3.3646 208.785 3.31338 209.634C3.35217 213.404 3.39094 217.18 3.43025 220.95C3.30618 222.097 3.25256 213.788 3.28408 228.517C3.1568 223.999 3.02991 219.491 2.90263 214.939C2.91298 192.822 2.92381 170.702 2.93467 148.586ZM3.22763 811.465C3.20382 787.107 3.29374 793.967 3.5752 799.606C3.45933 803.546 3.3435 807.525 3.22763 811.465ZM1132.09 936.372C1139.15 936.18 1146.25 935.99 1153.48 935.804C1167.89 935.697 1182.3 936.047 1171.46 936.184C1158.42 936.349 1144.79 936.165 1132.09 936.372ZM1439.94 917.173C1439.85 934.797 1439.62 918.215 1439.49 914.24C1439.7 909.364 1439.68 902.565 1439.71 891.645C1439.72 901.899 1439.95 914.258 1439.94 917.173C1439.94 917.173 1439.94 917.173 1439.94 917.173ZM848.46 936.156C841.398 936.162 834.372 936.215 828.056 936.15C829.961 935.966 842.595 936.133 833.56 935.861C838.077 935.857 842.601 935.852 847.084 935.847C844.235 935.96 848.067 936.044 848.442 936.155C848.448 936.155 848.454 936.156 848.46 936.156ZM113.127 935.905C126.988 936.122 129.615 936.029 143.579 935.878C145.546 936.055 128.897 936.352 118.468 936.417C116.701 936.246 114.927 936.075 113.127 935.905ZM424.198 2.70199C427.527 2.47644 452.081 2.44702 464.282 2.5137C462.829 2.54715 461.371 2.58105 459.919 2.61502C448.027 2.64399 436.089 2.67301 424.198 2.70199ZM1439.72 886.449C1439.72 888.277 1439.71 890.01 1439.71 891.645C1439.7 889.827 1439.71 888.072 1439.72 886.449ZM1440.7 148.437C1440.91 154.244 1440.99 136.982 1440.9 157.942C1440.9 157.942 1440.9 157.942 1440.9 157.942C1440.85 171.803 1440.83 174.863 1440.82 187.705C1440.54 183.082 1440.45 157.029 1440.39 192.938C1440.39 193.411 1440.55 192.469 1440.53 198.206C1440.52 199.977 1440.39 205.645 1440.35 214.265C1440.34 217.051 1440.3 237.985 1440.29 209.449C1440.1 210.298 1439.91 208.766 1439.73 208.833C1439.67 197.694 1440.05 189.133 1440.04 177.35C1440.02 159.853 1439.64 150.949 1440.14 147.586C1440.26 162.298 1440.26 187.561 1439.97 190.856C1439.96 205.089 1440.21 209.176 1440.33 197.699C1440.17 148.538 1440.69 184.204 1440.49 141.159C1440.43 140.649 1440.35 138.879 1440.29 139.149C1440.53 126.01 1440.63 146.364 1440.7 148.437ZM1440.18 251.234C1440.03 242.741 1439.88 234.275 1439.74 225.815C1439.97 225.816 1440.19 230.48 1440.32 243.866C1440.27 246.31 1440.22 248.79 1440.18 251.234ZM975.409 2.2357C974.185 2.36454 970.925 2.48262 968.547 2.60525C965.965 2.49659 904.81 2.39234 935.923 2.28575C940.441 2.27022 968.002 2.49805 975.409 2.2357ZM16.8831 936.099C24.0857 936.185 31.2589 936.272 38.4275 936.358C27.3926 936.413 16.3492 936.469 5.31434 936.525C9.18117 936.383 13.0162 936.241 16.8831 936.099ZM1249.33 936.598C1246.29 936.593 1256.39 936.416 1244.41 936.444C1253.34 936.33 1261.71 936.234 1270.44 936.128C1273.06 936.212 1275.7 936.295 1278.32 936.379C1280.35 936.325 1282.43 936.272 1284.47 936.218C1283.25 936.34 1282.16 936.459 1280.87 936.583C1266.16 936.321 1262.78 936.618 1249.33 936.598ZM811.907 937.075C809.261 936.81 830.563 936.652 809.608 936.61C813.583 936.435 819.974 936.344 832.238 936.328C834.207 936.395 836.172 936.461 838.14 936.528C838.412 936.349 841.568 936.283 848.46 936.156C848.466 936.156 848.472 936.156 848.478 936.156C867.123 936.143 866.009 936.203 870.493 936.496C850.754 936.331 850.164 936.599 836.71 936.758C827.47 936.868 815.406 936.818 811.907 937.075ZM1040.57 2.23265C1026.61 2.45669 1039.13 2.66566 1014.37 2.42765C1015.97 2.37073 1017.57 2.31429 1019.17 2.25737C1026.3 2.24857 1033.43 2.24041 1040.57 2.23265ZM743.019 936.166C744.616 936.576 757.758 936.896 760.001 936.228C747.193 936.092 753.449 936.47 743.019 936.166ZM1440.58 923.184C1440.58 929.568 1440.54 933.985 1440.49 936.849L1440.5 936.837C1433.84 936.714 1435.58 936.493 1440.5 936.322L1439.97 936.849C1439.93 935.722 1439.9 934.43 1439.87 933.032C1439.95 931.47 1440.03 929.908 1440.12 928.38C1440.08 924.065 1440.04 919.75 1440 915.435C1440.2 918.017 1440.39 920.602 1440.58 923.184ZM308.819 936.617C327.64 936.323 288.501 936.454 301.649 936.271C312.147 936.124 325.981 936.42 320.749 936.605C317.114 936.61 313.067 936.614 308.855 936.617C308.843 936.617 308.83 936.617 308.819 936.617ZM417.735 936.533C414.645 936.219 419.1 936.311 404.229 936.367C399.982 936.383 366.237 936.266 380.404 936.525C392.462 936.525 405.202 936.53 417.735 936.533ZM1440.12 638.49C1440.26 638.263 1440.56 664.249 1440.48 667.584C1440.48 667.584 1440.48 667.584 1440.48 667.584C1440.28 676.587 1440.25 649.177 1439.97 661.066C1440.22 634.738 1439.62 626.861 1440.41 628.695C1440.44 644.205 1440.28 636.862 1440.12 638.49ZM101.793 2.05932C101.781 2.05932 101.769 2.05932 101.757 2.05932C103.502 2.06574 117.88 2.26609 116.132 2.33549C98.8408 2.27599 101.922 2.14411 85.8248 2.36082C84.9423 2.29102 84.1862 2.22332 83.2359 2.153C89.623 2.11161 93.1635 2.02775 101.793 2.05932ZM909.291 1.96045C915.644 1.92474 927.238 2.07269 934.474 2.0639C911.44 2.63206 883.915 2.10224 909.291 1.96045ZM2.9542 386.805C2.95441 386.823 2.95461 386.841 2.95481 386.859C2.9545 386.854 2.95421 386.847 2.9539 386.841C2.954 386.829 2.9541 386.817 2.9542 386.805ZM1401.61 2.30131C1400.79 2.26443 1400.32 2.23239 1400.16 2.20427C1400.16 2.20162 1400.16 2.19898 1400.16 2.19633C1400.6 2.23087 1401.07 2.26579 1401.61 2.30131ZM1440.08 584.484C1440.27 573.661 1440.57 609.721 1440.5 621.381C1440.41 620.566 1440.34 620.439 1440.24 618.539C1440.46 609.127 1440.05 586.285 1440.08 584.484ZM970.738 936.499C999.242 936.505 962.147 937.256 960.618 936.657C960.675 936.645 970.002 936.5 970.738 936.499ZM1440.16 809.27C1440.39 816.532 1440.45 801.938 1440.41 825.274C1440.35 826.632 1440.29 827.99 1440.23 829.348C1440.21 822.657 1440.18 815.961 1440.16 809.27ZM1157.47 937.486C1193.34 937.359 1227.65 937.136 1204.29 936.508C1201.57 936.528 1198.82 936.548 1196.1 936.568C1195.7 936.874 1185.68 936.707 1171.01 936.697C1168.92 936.819 1160.79 936.847 1159.26 936.95C1156.31 937.15 1165.65 937.29 1157.47 937.486ZM2.36067 577.21C2.41293 577.788 2.46547 578.353 2.51721 578.93C2.5762 584.604 2.63491 590.293 2.6939 595.967C2.5936 595.05 2.49331 594.131 2.39301 593.215C2.38215 587.884 2.37122 582.578 2.36036 577.247C2.36046 577.234 2.36056 577.222 2.36067 577.21ZM1440.82 286.194C1440.25 282.935 1440.35 294.324 1440.64 317.424C1440.7 307.029 1440.76 296.59 1440.82 286.194ZM580.984 937.253C580.237 937.09 579.502 936.927 578.721 936.763C566.456 936.934 568.734 937.121 574.611 937.337C576.749 937.309 578.846 937.281 580.984 937.253ZM404.32 937.323C409.408 937.357 406.811 937.225 407.343 937.228C420.22 937.297 422.033 937.357 437.831 937.258C439.767 937.223 441.671 937.187 443.607 937.151C436.303 936.809 431 936.995 415.545 936.794C418.33 936.912 421.105 937.029 423.891 937.147C415.298 937.122 406.739 937.098 398.146 937.073C397.127 937.109 396.106 937.145 395.087 937.181C398.143 937.228 401.298 937.28 404.32 937.323ZM2.50928 511.6C2.52273 503.242 2.53672 494.846 2.55017 486.489C2.46583 486.183 2.38092 485.889 2.29658 485.583C2.36746 494.245 2.4384 502.938 2.50928 511.6ZM1440.56 114.599C1440.53 113.937 1440.5 113.291 1440.47 112.716C1440.51 112.772 1440.53 113.496 1440.56 114.599ZM79.7417 1.59669C70.2645 1.53771 56.6076 1.57644 46.2121 1.56404C47.0294 1.77563 73.451 1.71714 82.7289 1.8454C84.2198 1.80744 83.7477 1.62151 79.7417 1.59669ZM1420.09 936.911C1417.71 937.016 1415.34 937.121 1413 937.227C1407.25 937.216 1401.5 937.203 1395.72 937.192C1395.55 937.279 1395.39 937.366 1395.22 937.452C1420.66 937.34 1414.79 937.589 1427.39 937.835C1424.94 937.527 1422.54 937.219 1420.09 936.911ZM1.96121 245.68C2.01968 264.06 2.1289 270.58 2.38813 260.218C2.32864 253.732 2.2691 247.206 2.20961 240.72C2.12684 242.384 2.04398 244.05 1.96121 245.68ZM1218.52 1.59425C1203.14 1.69112 1202.88 1.34321 1187.85 1.53749C1195.9 1.60164 1203.95 1.66651 1211.96 1.73066C1214.13 1.6853 1216.35 1.63962 1218.52 1.59425ZM1441.71 534.208C1441.83 527.719 1441.26 515.589 1441.68 497.347C1441.55 493 1441.43 490.275 1441.31 486.539C1441.44 484.364 1441.58 481.894 1441.71 479.822C1441.71 479.81 1441.71 479.798 1441.71 479.786C1441.67 463.24 1441.5 473.968 1441.36 473.594C1441.3 473.419 1441.4 461.139 1441.27 464.976C1441.04 471.601 1441.17 496.356 1440.9 496.424C1440.99 487.727 1440.92 470.743 1440.74 475.766C1440.54 481.27 1440.87 497.275 1440.7 507.467C1441.14 492.862 1441 523.028 1440.67 526.459C1440.93 544.159 1441.03 527.891 1441.02 509.749C1441.27 520.824 1441.14 504.522 1441.35 501.837C1441.48 513.258 1441.37 552.45 1441.71 534.208ZM1008.05 937.589C1020.29 937.573 1039.4 937.719 1047.77 937.504C1052.65 937.379 1033.49 937.282 1046.7 937.085C1034.79 937.104 1032.07 937.181 1034.1 937.353C1031.39 937.374 1028.64 937.394 1025.92 937.414C1024.66 937.381 1023.37 937.347 1022.12 937.314C1020.69 937.385 1019.26 937.455 1017.86 937.526C1014.98 937.512 1012.06 937.498 1009.17 937.484C1008.83 937.519 1008.26 937.55 1008.05 937.589ZM776.893 1.60493C780.289 1.60286 783.653 1.60081 787.049 1.59822C786.675 1.55626 786.229 1.51257 785.8 1.46944C785.492 1.43537 785.185 1.40129 784.877 1.36721C786.845 1.48896 803.026 1.69131 809.843 1.5613C813.27 1.49607 805.471 1.26451 819.999 1.22409C809.47 1.236 799.717 1.2676 789.493 1.28726C790.411 1.21844 791.292 1.14888 792.209 1.08006C792.203 1.07996 792.197 1.07985 792.191 1.07975C788.795 1.06423 785.358 1.04797 781.962 1.03245C780.263 1.2234 778.591 1.41399 776.893 1.60493ZM590.941 937.576C602.526 937.441 606.405 937.371 600.935 937.153C600.923 937.153 600.911 937.153 600.899 937.152C596.585 937.249 592.268 937.346 587.954 937.443C588.939 937.487 589.922 937.532 590.941 937.576ZM1441.28 14.8072C1440.45 -9.82344 1440.96 45.6454 1441.24 35.0843C1441.25 34.6086 1441.19 17.1175 1441.28 14.8072ZM1440.84 918.657C1440.84 924.708 1440.85 930.771 1440.85 936.849L1440.85 937.202L1440.5 937.202C1439.79 937.203 1439.07 937.203 1438.36 937.204C1439.07 937.25 1439.78 937.296 1440.5 937.342L1440.99 937.342L1440.99 936.849C1441.05 935.984 1441.11 935.118 1441.16 934.263C1441.05 929.066 1440.94 923.855 1440.84 918.657ZM1.58464 325.702C1.35696 332.818 1.27447 351.084 1.52208 360.01C1.55106 355.322 1.58008 350.632 1.60906 345.943C1.6375 354.807 1.66882 363.571 1.69572 372.503C2.01293 372.978 1.8289 362.685 1.91635 347.192C1.93045 344.794 2.3242 329.459 2.02743 324.163C1.96643 323.098 1.92496 339.411 1.7476 328.074C1.73364 333.031 1.73674 337.311 1.72898 341.996C1.65343 342.336 1.5778 342.673 1.50225 343.046C1.5296 337.252 1.55729 331.497 1.58464 325.702ZM1079.27 937.565C1096.08 937.582 1098.15 937.456 1101.65 937.232C1093.84 937.257 1086.02 937.282 1078.21 937.307C1078.58 937.393 1078.9 937.479 1079.27 937.565ZM1.51201 475.897C1.47538 485.097 1.6577 481.157 1.69236 484.859C1.82274 498.855 1.69244 508.402 1.77415 522.227C1.73896 521.31 1.70607 520.467 1.67192 519.584C1.67192 519.596 1.67192 519.608 1.67192 519.62C1.51825 585.085 1.93174 550.699 1.86447 511.527C1.93226 510.61 2.00014 509.729 2.06741 508.811C1.94891 491.282 1.8349 475.116 1.51201 475.897ZM1441.31 233.637C1441.35 232.889 1441.62 239.242 1441.49 227.318C1441.1 217.875 1441.3 233.362 1441.14 237.239C1441.11 234.012 1441.07 230.711 1441.03 227.517C1440.92 246.815 1441.01 249.631 1441.3 242.598C1441.32 242.096 1441.27 234.385 1441.31 233.637ZM1441.5 106.814C1440.92 104.164 1441.18 128.518 1441.36 127.635C1441.37 124.273 1441.27 121.659 1441.32 118.094C1441.36 114.493 1441.49 113.572 1441.5 106.814ZM1441.36 804.545C1441.36 803.831 1441.61 796.663 1441.42 797.375C1440.96 806.242 1441.26 824.109 1441.41 820.984C1441.4 815.074 1441.34 811.134 1441.36 804.545C1441.36 804.545 1441.36 804.545 1441.36 804.545ZM1.44793 214.866C1.43175 215.206 1.33375 233.089 1.42474 235.397C1.52718 237.299 1.63696 238.243 1.74302 239.67C1.6447 229.817 1.7196 209.874 1.44793 214.903C1.44793 214.891 1.44793 214.878 1.44793 214.866Z" fill="black"/>
</svg>