<svg width="615" height="615" viewBox="0 0 615 615" fill="none" xmlns="http://www.w3.org/2000/svg">
<g filter="url(#filter0_d_213_30)">
<path d="M12.1907 52.8402C12.1907 27.9874 32.3379 7.84021 57.1907 7.84021H557.191C582.043 7.84021 602.191 27.9874 602.191 52.8402V552.84C602.191 577.693 582.043 597.84 557.191 597.84H57.1907C32.3379 597.84 12.1907 577.693 12.1907 552.84V52.8402Z" fill="white"/>
<path d="M14.2073 171.707C14.4328 166.55 14.285 183.767 14.6217 172.334C14.6445 174.718 14.6679 177.117 14.6907 179.501C14.566 180.106 14.4416 180.725 14.3169 181.33C14.2801 178.128 14.2434 174.925 14.2067 171.707C14.2069 171.707 14.2071 171.707 14.2073 171.707ZM12.6455 167.336C13.0012 170.27 13.096 179.592 13.4243 169.522C13.3022 168.721 13.1801 167.901 13.0581 167.101C13.1527 163.604 13.2474 160.087 13.3416 156.59C13.295 155.333 13.2484 154.077 13.2024 152.82C13.4145 151.218 13.6272 149.632 13.8399 148.03C13.8088 149.452 13.7772 150.893 13.7462 152.315C13.9185 157.935 13.9656 162.936 13.9977 170.567C14.0478 169.897 14.0976 169.225 14.1478 168.555C14.0624 172.428 13.9768 176.298 13.8915 180.154C13.8077 176.805 13.7145 173.061 13.6363 169.957C13.3037 174.924 13.4888 183.684 13.5582 188.244C13.6529 194.453 13.4948 193.05 13.561 197.657C13.5713 198.392 13.6953 198.476 13.6974 199.93C13.7072 207.267 13.6415 221.518 13.3522 213.184C13.3895 201.108 13.1572 190.808 13.2421 178.961C12.9076 182.095 12.7938 175.854 12.6455 167.336ZM13.7105 389.181C13.5481 385.522 13.6136 378.068 13.7264 373.019C13.7264 373.013 13.7264 373.007 13.7264 373.002C13.7512 371.89 13.9671 369.374 13.9583 373.002C13.9432 378.916 13.6034 381.775 13.8341 384.879C13.7911 386.268 13.7529 387.727 13.7105 389.181ZM13.7306 402.034C13.6473 405.662 13.3913 404.016 13.4606 399.474C13.4604 399.474 13.4602 399.474 13.46 399.474C13.4889 397.578 13.6913 401.3 13.4859 394.502C13.6457 393.113 13.7911 391.746 13.9458 390.374C13.9484 392.039 13.9526 393.557 13.9546 395.303C13.6919 394.128 13.8133 398.407 13.7306 402.034ZM13.4969 219.314C13.7332 219.885 13.7317 217.496 13.8957 213.427C13.888 217.267 13.8797 221.108 13.8719 224.931C13.7468 223.052 13.6221 221.193 13.4969 219.314ZM13.5335 129.108C13.5335 129.102 13.5335 129.096 13.5335 129.09C13.4962 127.832 13.4589 126.57 13.4221 125.329C13.5065 124.577 13.5904 123.834 13.6748 123.082C13.5956 118.637 13.5165 114.169 13.4368 109.724C13.6944 110.264 13.6525 118.242 13.8326 122.638C13.7549 129.174 13.6054 132.323 13.387 132.748C13.4356 131.539 13.4849 130.333 13.5335 129.108ZM601.875 549.008C601.804 547.521 601.732 546.053 601.661 544.567C601.628 546.543 601.603 548.504 601.566 550.497C601.619 551.401 601.656 552.163 601.679 552.84C601.708 556.032 601.615 557.361 600.496 562.817C597.937 572.853 595.286 575.957 593.412 578.927C591.27 581.709 589.402 584.764 581.547 589.808C587.711 585.572 588.964 583.474 589.978 582.328C590.897 581.077 591.444 580.449 593.825 576.694C595.088 575.286 590.264 582.793 593.868 577.933C598.669 570.582 601.268 562.128 601.163 552.84C601.139 551.037 601.117 549.202 601.095 547.327C601.062 547.67 601.028 548.011 600.994 548.354C601.011 549.854 601.029 551.344 601.046 552.84C601.05 553.195 601.05 553.55 601.045 553.904C601.038 553.549 601.026 553.194 601.009 552.84C600.936 551.204 600.862 549.583 600.788 547.91C600.992 550.492 600.878 543.912 601.113 544.793C601.217 545.185 601.362 548.093 601.462 549.809C601.516 545.381 601.566 540.84 601.619 536.364C601.702 538.683 601.786 541.001 601.869 543.304C601.872 545.198 601.873 547.078 601.876 548.973C601.876 548.984 601.875 548.996 601.875 549.008ZM171.078 9.24255C176.699 8.99934 186.914 8.9591 192.29 9.22973C185.215 9.23387 178.153 9.23841 171.078 9.24255ZM13.207 133.174C13.2483 132.538 13.2892 131.921 13.3306 131.285C13.4071 134.095 13.4832 136.921 13.5597 139.732C13.4403 140.271 13.3208 140.822 13.2018 141.377C13.2033 138.649 13.2054 135.903 13.207 133.174ZM13.34 312.96C13.3328 310.904 13.3367 310.722 13.3538 308.162C13.3537 308.165 13.3536 308.168 13.3535 308.171C13.3598 307.156 13.4296 298.664 13.5216 299.611C13.5232 303.827 13.5216 308.324 13.5216 312.638C13.4611 312.768 13.4011 312.797 13.34 312.96ZM13.3937 263.333C13.3939 263.327 13.3941 263.321 13.3944 263.316C13.4083 261.781 13.4368 260.328 13.442 258.744C13.5867 264.445 13.327 265.346 13.4005 270.526C13.4744 275.705 13.6178 278.906 13.2619 283.3C13.2086 281.666 13.1324 279.907 13.0703 278.224C13.2126 270.871 13.0787 268.891 12.9384 262.993C13.0906 263.108 13.2416 263.219 13.3937 263.333ZM538.519 596.805C537.114 596.981 535.547 596.808 535.384 596.806C535.387 596.806 535.39 596.805 535.393 596.805C522.946 596.968 537.013 596.708 525.265 596.68C527.013 596.637 528.732 596.59 530.464 596.546C533.143 596.63 535.905 596.727 538.519 596.805ZM134.093 596.788C133.979 596.737 133.842 596.686 133.727 596.634C140.786 596.646 142.587 596.445 148.452 596.628C143.666 596.682 138.88 596.736 134.093 596.789C134.093 596.789 134.093 596.788 134.093 596.788ZM12.9674 348.541C12.8696 340.713 12.8265 334.923 12.9818 327.406C12.982 327.401 12.9822 327.395 12.9824 327.389C12.9919 326.956 13.0991 329.052 13.1261 328.486C13.1101 326.935 13.0854 325.334 13.0663 323.767C13.1521 323.554 13.2379 323.352 13.3232 323.14C13.2989 327.551 13.2746 331.965 13.2503 336.393C13.3005 335.74 13.3503 335.07 13.4005 334.416C13.4263 338.174 13.4521 341.918 13.478 345.676C13.3373 344.369 13.1965 343.065 13.0553 341.775C13.0258 344.029 12.9974 346.287 12.9674 348.541ZM251.616 597.349C250.374 597.293 252.674 597.199 250.745 597.151C248.817 597.104 245.262 597.208 246.095 597.05C248.692 597.029 251.418 597.005 254.063 596.982C245.55 596.698 237.057 596.955 236.926 596.604C245.096 596.695 251.814 596.653 259.723 596.555C259.397 596.834 251.486 597.075 256.467 597.337C254.866 597.341 253.185 597.346 251.634 597.348C251.628 597.348 251.622 597.349 251.616 597.349ZM22.6429 20.2689C25.9182 16.3262 35.6899 9.48177 42.0343 7.90423C43.5413 7.34588 48.7813 6.68028 48.7612 6.81407C48.6402 7.03064 42.4829 8.41438 49.1265 7.16697C46.8919 7.56139 44.7473 8.11112 42.6092 8.82249C43.0413 8.84235 43.4717 8.86817 43.8815 8.90533C46.4767 8.09563 49.1475 7.51885 51.8464 7.18257C51.9852 7.21806 52.1233 7.25433 52.2616 7.29105C42.6433 8.83814 48.3348 8.07045 43.5298 9.50192C47.9614 8.20077 52.6113 7.59448 57.1907 7.69081C54.5478 7.66508 51.4361 7.9596 49.1425 8.37225C48.8777 8.61662 54.3489 7.84043 55.3108 7.94455C57.9917 8.07768 52.4701 7.83883 46.2826 9.4646C40.0373 10.9367 33.719 14.8088 32.9579 15.6105C36.5703 13.2964 40.7135 11.4294 44.9289 10.2686C43.7397 10.6592 42.5475 11.1079 41.3969 11.5995C32.0596 14.8236 22.7318 22.2649 17.3313 32.6536C16.8632 33.5998 16.4311 34.5595 16.0373 35.5209C16.266 35.2831 16.49 35.0632 16.7225 34.8324C16.0931 36.2783 15.5362 37.7734 15.0673 39.2771C16.3648 34.783 13.5076 40.6965 12.5293 48.5502C12.7123 44.3402 14.3071 39.371 13.9733 39.6509C12.7756 43.7679 12.0887 48.2548 12.0926 52.8402C12.0932 63.6785 12.002 74.956 12.1581 84.8189C12.213 88.299 12.5425 88.2878 12.5121 96.4702C12.4759 96.1924 12.4105 96.1449 12.3629 95.9652C12.5207 110.117 12.6151 118.703 12.4542 133.41C12.5726 132.56 12.6915 131.725 12.81 130.876C12.751 127.754 12.6911 124.628 12.6321 121.523C12.8276 119.399 12.914 122.538 12.9119 113.224C12.9103 105.593 12.824 110.136 12.766 108.061C12.6869 105.251 12.8426 102.784 12.7541 99.7618C12.6863 97.4251 12.525 99.953 12.5658 93.8578C12.7749 96.309 12.9908 98.8095 13.2024 101.277C13.1553 102.764 13.1075 104.24 13.0599 105.727C13.004 104.223 12.9489 102.746 12.893 101.242C12.9934 106.536 13.088 111.539 13.192 117.012C12.8898 115.231 13.0031 120.889 13.0388 123.961C13.0947 128.747 12.8867 124.647 12.9214 127.784C12.9566 130.921 13.1889 134.305 13.1392 139.975C13.0047 136.936 12.8841 141.07 12.7599 140.271C12.6358 139.471 12.6083 133.473 12.4728 139.235C12.5757 150.314 13.0486 138.292 13.1252 145.775C13.2173 154.762 12.4465 156.9 12.2808 154.222C12.1504 152.114 12.1766 144.86 12.0468 142.736C11.8124 155.727 12.2751 155.84 12.3657 158.062C12.6952 166.134 11.8155 160.712 12.1337 170.271C11.9692 170.091 11.8213 169.945 11.6635 169.766C11.6935 171.415 11.7334 172.51 11.7572 174.503C12.0777 168.626 12.064 173.436 12.0645 175.905C12.0655 179.794 12.2218 173.787 12.2622 174.816C12.3702 177.594 12.3212 181.987 12.4624 179.292C12.3967 180.501 12.3308 181.812 12.2656 183.054C12.3474 187.598 13.0341 198.276 12.8954 188.113C13.1505 189.061 13.0279 192.349 12.9891 194.914C12.9503 197.479 13.1128 197.431 13.0828 199.686C12.9627 208.656 12.6848 202.788 12.467 201.367C12.617 213.213 12.7163 201.615 12.8167 218.687C12.9942 220.337 13.1836 212.449 13.286 219.018C12.9777 220.228 12.7562 225.064 12.6537 234.492C12.7246 235.407 12.7961 236.32 12.867 237.235C12.5824 242.382 12.2865 239.751 12.6394 249.278C11.99 244.164 12.4054 247.68 12.1411 256.21C12.0878 257.942 11.953 253.939 11.8847 256.358C11.8539 257.454 11.9556 260.116 11.8771 262.793C11.8383 264.1 11.5879 270.212 11.7068 274.444C12.0214 271.34 12.2891 279.381 12.5494 272.485C12.4852 285.231 12.6363 294.152 12.2073 279.869C12.1121 283.105 12.0173 286.343 11.9226 289.579C11.9976 291.834 12.072 294.108 12.1465 296.38C11.888 296.723 11.8154 296.378 11.8609 305.262C11.7999 301.407 11.7378 297.569 11.6763 293.698C11.6241 293.567 11.5698 293.028 11.5191 293.158C11.6185 297.899 11.6612 311.249 11.73 314.484C11.7988 317.719 11.8177 311.471 11.8844 312.403C12.4349 320.163 12.0289 319.548 12.1234 325.116C12.1792 328.384 12.2399 320.581 12.2637 322.33C12.351 328.813 12.0584 331.82 12.0547 337.569C12.2208 335.527 12.3894 333.501 12.557 331.508C12.5482 337.538 12.5467 344.259 12.6 349.864C12.6208 352.065 12.7443 350.402 12.7526 350.761C12.795 352.544 12.8622 359.799 12.8628 360.567C12.8637 366.348 12.6927 366.513 12.6833 372.131C12.6688 369.926 12.6558 367.852 12.6418 365.696C12.3645 364.715 12.0872 363.715 11.8093 362.735C11.7892 368.241 11.7694 373.749 11.7492 379.271C11.8418 375.236 11.934 371.185 12.0266 367.15C12.2507 373.457 12.4752 379.765 12.6998 386.072C12.5622 389.357 12.4246 392.628 12.2869 395.912C12.3232 404.832 12.8819 403.036 12.3925 407.268C12.4339 409.897 12.4752 412.527 12.5161 415.157C12.4463 414.781 12.3763 414.409 12.3065 414.034C12.3494 417.204 12.3921 420.373 12.4355 423.543C12.6829 420.21 12.9431 416.942 13.1832 413.642C13.2369 419.88 13.0271 420 12.9748 420.93C12.8361 423.398 13.0231 428.296 12.8948 430.257C12.8507 430.919 12.7126 424.806 12.5533 426.913C12.5225 427.324 11.9369 435.51 12.0721 440.732C12.1782 440.634 12.3082 440.231 12.4236 440.018C12.4881 447.042 11.9343 450.624 11.7791 449.693C11.8878 453.435 11.8969 458.904 12.0666 459.672C12.0707 461.584 12.0747 463.482 12.0788 465.393C11.6654 463.401 11.741 471.375 12.0965 471.898C12.1053 468.614 12.1146 465.325 12.1234 462.041C12.5591 464.525 12.822 454.544 12.4184 475.312C12.1918 479.283 12.4493 468.254 12.2796 471.489C12.1808 477.11 12.2635 482.386 12.1057 487.73C11.9085 494.378 11.7189 486.198 11.9699 501.688C12.5986 467.52 12.3946 506.375 12.5896 522.422C12.0398 526.329 11.8227 537.401 11.9083 552.84C11.9197 554.859 12.0666 556.93 12.3814 559.063C12.3189 557.91 12.0595 555.411 12.0729 552.84C12.0753 551.053 12.074 549.241 12.0974 547.85C12.1543 544.467 12.2569 548.127 12.3376 543.914C12.4183 539.699 12.528 530.747 12.6501 526.48C12.7479 530.094 12.9791 547.931 12.7013 536.137C12.5733 542.721 12.4426 546.693 12.3714 552.84C12.3498 554.911 12.4604 557.227 12.8806 559.94C13.8985 563.028 13.1536 563.071 17.4244 572.663C14.3381 567.213 19.5217 578.074 18.0226 575.901C14.5142 569.145 16.814 572.744 15.2719 568.679C15.0107 568.302 12.9757 561.587 12.8806 559.94C13.8182 566.96 14.9449 569.316 13.1515 565.219C14.5831 570.117 16.1088 572.939 16.461 573.273C16.8618 574.256 17.302 575.233 17.7647 576.176C18.6169 577.603 19.4516 578.848 20.5031 580.26C19.3144 578.125 21.8618 582.097 24.3113 584.374C26.8208 586.546 23.4861 583.657 30.5351 589.34C28.1412 587.498 26.1192 585.607 24.1847 583.433C28.1931 587.651 33.0291 591.083 38.3096 593.456C34.5384 591.793 27.758 586.194 28.1977 586.08C29.9702 588.097 37.7831 592.642 38.7711 592.849C42.2675 594.349 40.3171 593.643 40.576 593.769C46.1225 596.114 51.1068 596.669 53.3528 597.081C54.7101 597.167 55.9599 597.198 57.1907 597.191C60.0922 597.173 62.8127 597.2 66.2228 597.196C68.9026 597.193 68.3816 597.029 69.9498 597.06C80.3749 597.267 70.4428 597.479 90.553 597.077C88.1184 596.963 85.7164 596.846 83.2818 596.731C85.5532 596.688 87.8113 596.645 90.0827 596.602C91.6025 596.623 93.1086 596.644 94.6283 596.665C94.5957 596.911 94.5565 597.159 94.5239 597.406C96.1906 597.419 97.8642 597.432 99.5309 597.445C96.6712 597.47 93.8047 597.494 90.9448 597.518C90.6836 597.562 90.4398 597.605 90.1786 597.649C94.4272 597.716 98.661 597.784 102.91 597.852C102.991 597.766 103.072 597.679 103.153 597.594C112.729 597.713 112.957 597.786 122.059 597.549C129.069 597.552 134.778 597.193 138.83 597.042C140.284 597.09 141.74 597.139 143.21 597.187C144.142 597.115 145.083 597.044 146.014 596.973C147.861 597.072 149.732 597.172 151.579 597.27C152.608 597.045 153.141 596.974 145.936 596.895C148.404 596.615 161.088 596.739 166.252 596.833C170.169 596.904 165.822 597.138 166.313 597.167C167.948 597.263 174.405 597.18 175.761 597.196C181.496 597.263 185.515 597.251 190.695 597.303C191.703 597.313 194.522 597.461 194.762 597.466C196.625 597.491 201.223 597.563 201.745 597.565C228.719 597.676 199.897 597.033 224.978 597.101C224.227 597.016 223.536 596.932 222.801 596.847C224.696 596.842 226.611 596.837 228.505 596.832C230.907 596.902 228.001 597.031 232.772 596.927C232.462 597.032 232.15 597.136 231.823 597.24C233.898 597.184 235.899 597.128 238.023 597.072C241.356 597.434 253.526 597.517 252.661 597.943C252.367 598.088 243.739 598.236 248.298 598.391C252.003 598.421 249.496 598.248 251.007 598.239C261.923 598.176 261.288 598.419 265.749 598.354C266.452 598.25 267.19 598.144 267.909 598.039C269.591 598.07 271.278 598.1 272.977 598.131C273.369 598.061 273.778 597.991 274.17 597.921C272.585 597.916 270.8 597.912 269.346 597.907C271.374 597.636 289.997 597.515 282.895 597.745C280.003 597.839 274.706 597.799 278.054 598.119C283.037 598.073 288.692 598.026 293.937 597.98C294.101 598.049 294.253 598.118 294.416 598.186C301.485 598.142 295.056 597.867 295.069 597.719C296.686 597.715 298.32 597.711 299.937 597.707C300.622 597.774 301.274 597.844 301.992 597.908C302.058 597.802 302.963 597.556 307.783 597.647C310.882 597.707 306.002 597.975 311.91 597.937C311.469 597.772 309.334 597.57 315.916 597.517C316.57 597.69 317.473 597.848 317.98 598.03C326.165 597.864 329.89 598.13 339.497 597.937C345.592 597.815 353.942 597.382 357.88 598.05C362.338 598.067 360.923 597.901 362.243 597.864C368.469 597.687 373.1 598.003 374.26 598.022C381.659 598.141 384.977 598.032 391.005 598.181C390.678 598.058 390.5 597.94 390.239 597.82C384.716 598.005 381.918 597.997 374.173 597.957C376.77 597.932 379.369 597.906 381.966 597.882C381.542 597.781 381.121 597.681 380.712 597.581C356.756 597.976 362.345 597.352 382.428 597.215C384.16 597.401 385.955 597.586 387.67 597.772C399.272 597.491 404.731 597.735 417.852 597.794C419.412 597.8 425.093 597.693 427.535 597.688C427.495 597.687 427.454 597.687 427.413 597.686C428.933 597.511 426.875 597.43 426.63 597.273C427.953 597.253 429.277 597.234 430.601 597.214C433.556 597.334 432.517 597.432 438.333 597.403C437.549 597.284 436.775 597.165 435.991 597.046C442.364 597.042 446.535 597.172 452.466 597.116C451.47 597.161 450.485 597.206 449.488 597.251C462.398 597.366 452.124 598.065 461.88 597.717C462.5 597.778 463.105 597.84 463.726 597.901C459.707 597.916 455.685 597.93 451.683 597.945C451.601 598.032 451.513 598.118 451.447 598.204C455.745 598.178 460.064 598.152 464.361 598.126C461.224 598.184 458.068 598.242 454.931 598.3C459.914 598.341 464.899 598.382 469.882 598.424C464.59 598.106 471.451 598.067 470.161 597.753C478.985 598.015 485.916 598.36 499.594 598.139C502.306 598.095 500.833 597.875 508.528 598.143C506.666 597.793 516.307 597.629 515.068 597.296C512.389 597.312 509.611 597.322 507.013 597.342C509.971 597.457 510.461 597.775 505.968 597.869C500.233 597.989 491.867 597.769 492.21 598.121C489.923 598.105 487.796 598.095 485.574 598.081C486.489 597.993 487.384 597.906 488.282 597.818C481.961 597.955 477.989 597.911 474.95 597.69C482.482 597.64 489.998 597.589 497.53 597.539C496.421 597.524 495.296 597.509 494.186 597.495C499.889 597.27 494.007 597.056 504.645 597.008C504.579 597.111 504.527 597.214 504.462 597.318C508.335 597.042 518.938 597.044 515.556 596.727C518.758 596.824 519.411 596.886 521.225 596.715C529.673 596.956 535.099 597.26 532.092 597.623C535.229 597.565 538.368 597.506 541.488 597.448C539.675 597.349 537.859 597.25 536.046 597.15C541.504 597.157 547.001 597.163 552.443 597.168C552.966 597.462 541.938 597.258 545.12 597.52C545.756 597.573 548.693 597.46 549.465 597.49C557.602 597.811 544.828 597.579 547.227 597.825C555.749 597.879 553.488 598.098 557.191 598.104C558.763 598.077 561.448 598.108 566.314 597.044C566.766 597.038 567.251 597.019 567.671 597.007C573.312 595.486 572.804 595.386 577.327 593.273C580.116 591.878 583.652 590.012 586.166 587.591C586.391 587.379 585.314 588.118 585.363 587.938C585.366 587.712 586.783 586.877 590.873 582.393C596.724 575.025 594.506 578.221 597.224 573.882C600.136 569.486 602.352 557.845 602.539 554.37C602.404 557.068 601.944 560.486 601.187 563.38C600.992 564.58 600.754 565.75 600.465 566.924C601.952 562.151 602.672 557.04 602.604 552.84C602.585 551.28 602.553 549.848 602.495 548.598C602.82 539.529 602.519 529.386 602.152 532.132C602.205 535.117 602.365 531.869 602.263 536.015C602.178 536.44 602.093 536.888 602.007 537.313C602.018 530.253 602.015 525.351 602.276 528.57C602.282 527.475 602.288 526.391 602.294 525.296C602.106 525.1 601.917 524.926 601.729 524.73C601.707 523.422 601.686 522.11 601.665 520.802C601.706 519.349 601.748 517.892 601.79 516.422C602.088 518.4 602.098 521.767 602.265 510.623C602.162 510.59 602.059 510.542 601.956 510.51C602.087 501.179 602.337 500.933 602.327 489.218C602.685 498.206 602.051 503.123 602.768 503.09C602.721 505.345 602.673 507.619 602.626 509.874C602.73 510.217 602.834 510.557 602.938 510.884C602.884 498.776 602.2 478.664 602.653 470.557C602.598 469.577 602.55 468.593 602.49 467.596C602.764 459.655 602.149 456.225 602.503 448.169C602.54 447.338 603.118 449.077 603.097 438.59C603.022 438.851 602.896 438.987 602.801 439.2C602.847 436.929 602.895 434.67 602.942 432.416C602.873 432.008 602.804 431.579 602.734 431.171C602.707 435.044 602.68 438.906 602.653 442.779C602.629 439.561 602.605 436.322 602.581 433.104C602.468 437.302 602.467 439.196 602.285 436.666C602.275 433.022 602.263 429.372 602.252 425.728C602.206 425.353 602.159 424.98 602.112 424.605C601.973 426.37 601.838 428.152 601.697 429.917C601.81 420.423 601.817 412.169 602.089 404.881C602.135 403.64 602.316 408.032 602.153 399.57C602.249 399.439 602.326 399.211 602.415 399.064C602.147 388.704 602.227 385.301 602.42 374.499C602.24 381.493 602.357 375.253 602.26 373.472C602.194 372.251 602.204 377.015 602.134 376.476C602.064 375.937 601.784 369.747 601.751 375.039C602.325 388.014 601.639 391.549 601.914 408.217C601.84 405.651 601.766 403.067 601.692 400.501C601.642 401.71 601.597 402.791 601.543 404.098C601.656 394.801 601.583 399.323 601.494 395.503C601.406 391.679 601.331 384.73 601.306 380.072C601.299 378.605 601.427 380.153 601.439 376.842C601.448 374.587 601.257 368.424 601.482 367.002C601.628 366.07 602.031 375.97 602.03 362.282C602.174 359.705 602.129 366.268 602.147 366.409C602.317 367.602 602.446 359.187 602.315 355.298C602.304 354.983 602.171 358.054 602.119 354.715C601.994 346.789 602.147 342.212 602.353 337.081C602.111 336.525 601.822 329.856 601.911 321.555C601.842 321.13 601.772 320.725 601.702 320.301C601.739 321.59 601.775 322.878 601.812 324.167C601.768 325.572 601.737 327.061 601.685 328.434C601.626 320.086 601.292 318.905 601.17 314.902C600.753 301.202 601.635 309.505 601.787 311.976C601.726 313.757 601.657 315.479 601.592 317.244C601.677 317.048 601.762 316.849 601.847 316.669C601.844 296.162 602.394 313.546 602.551 303.137C602.136 300.457 602.096 292.812 602.359 283.074C602.357 281.995 602.357 280.913 602.354 279.835C602.294 279.655 602.201 279.658 602.161 279.364C602.091 267.631 602.73 265.541 602.79 264.43C603.059 259.496 602.688 255.653 602.684 254.198C602.671 248.071 602.836 246.29 602.765 240.457C602.689 234.183 602.562 238.473 602.449 236.564C602.359 235.033 602.343 230.084 602.25 228.039C602.326 228.852 602.401 229.755 602.477 230.565C602.581 224.062 602.683 218.748 602.708 211.363C602.15 203.03 603.091 195.94 602.328 198.815C602.276 205.809 602.189 209.72 601.994 213.462C601.969 208.871 601.945 204.277 601.92 199.686C602.004 198.347 602.086 197.396 602.171 195.811C601.993 192.38 602.069 184.426 602.017 181.303C601.772 166.678 601.469 171.203 601.979 157.853C602.029 167.475 602.277 167.46 602.242 177.002C602.419 174.943 602.383 170.094 602.595 173.231C602.543 164 602.353 166.984 602.185 163.391C602.04 160.292 602.032 154.052 601.844 154.404C601.947 153.766 602.047 153.273 602.151 152.637C602.15 146.657 602.15 140.678 602.149 134.698C602.257 137.247 602.365 139.795 602.473 142.344C602.514 140.417 602.554 138.488 602.595 136.562C602.259 121.855 602.875 96.4941 602.03 100.545C602.003 93.454 602.109 92.5669 602.269 88.7113C602.205 88.2865 602.152 87.8734 602.08 87.4486C602.148 82.8742 601.907 79.3626 601.969 75.3271C602.031 71.2917 602.259 70.2899 601.877 69.7017C601.986 67.0875 602.077 64.4885 602.179 61.8906C602.092 60.323 602.007 58.757 601.92 57.2057C601.947 55.7517 601.974 54.2958 602.001 52.8402C602.019 51.8381 602.006 50.8554 601.959 49.8556C601.917 48.5472 600.319 39.0335 598.244 35.2813C596.654 31.6503 597.786 31.0443 591.81 23.5529C591.852 23.8407 591.889 24.1249 591.925 24.4112C590.576 22.7141 589.101 21.1094 587.506 19.6101C587.443 19.485 587.393 19.3718 587.329 19.247C588.148 20.003 588.928 20.778 589.688 21.5912C589.079 20.8362 588.459 20.113 587.812 19.4052C585.263 17.2401 582.483 15.3624 579.532 13.8143C583.378 16.1295 586.864 19.0204 589.839 22.3451C585.902 18.3774 582.777 15.9545 578.476 13.6956C574.82 11.5751 576.234 12.1803 577.899 12.7497C576.478 12.0361 575.004 11.3911 573.52 10.8351C574.519 11.1372 572.336 9.43011 580.548 13.8967C580.032 13.5096 579.492 13.129 578.972 12.7679C577.613 12.0478 576.74 11.5542 575.179 10.9032C570.903 9.13767 567.331 8.85815 567.62 9.04965C567.774 9.10519 572.114 10.2442 571.896 10.3317C571.649 10.3621 569.092 9.60227 568.331 9.46805C567.537 9.41939 568.818 9.23701 575.538 12.2101C570.994 10.473 569.994 9.98142 564.732 8.89875C565.133 9.0536 565.517 9.21115 565.894 9.37309C563.47 8.85027 561.001 8.53272 558.518 8.42066C559.576 8.32826 558.609 8.1612 557.191 8.06165C554.299 7.86372 549.646 7.71376 557.191 7.49179C558.043 7.46748 559.031 7.46353 560.206 7.51343C559.196 7.44343 558.203 7.40715 557.191 7.40301C553.258 7.38726 549.333 7.37134 545.409 7.35482C546.422 7.30981 547.435 7.26526 548.448 7.22025C550.67 7.24405 552.878 7.26746 555.101 7.29074C552.487 7.20849 549.868 7.12673 547.255 7.04448C541.078 7.14642 538.657 7.3032 535.83 7.49672C543.018 7.63795 540.67 7.44504 546.271 7.4067C546.075 7.52926 546.334 7.64199 545.844 7.77076C542.95 7.51689 533.508 7.70158 531.319 7.714C524.656 7.75171 529.881 7.50227 525.424 7.49703C520.963 7.49185 515.701 7.64032 512.057 7.39297C512.122 7.5316 512.414 7.67504 512.675 7.80127C505.73 7.84681 507.116 7.68303 506.397 7.66182C494.925 7.31306 488.701 7.6075 475.579 7.6432C477.246 7.68614 478.93 7.72491 480.612 7.76526C470.713 8.05962 477.382 7.96949 485.977 8.06676C477.92 8.03727 473.307 8.28795 467.62 8.36246C461.934 8.43685 452.183 8.3081 448.619 8.20775C456.773 8.0463 465.568 8.15277 474.621 8.10826C473.592 7.96704 472.592 7.84751 471.53 7.69233C466.024 7.98875 462.833 7.79055 461.019 7.75123C455.693 7.63589 455.861 7.8903 452.642 7.61665C452.773 7.71079 452.869 7.78994 452.999 7.87787C442.002 7.83854 430.14 7.67212 422.983 8.01977C422.329 7.79366 421.836 7.57582 421.084 7.34506C416.428 7.51526 412.44 7.34097 408.519 7.38076C404.613 7.42061 406.1 7.60334 401.509 7.67372C400.659 7.68665 398.89 7.57228 396.798 7.65663C394.686 7.74142 386.896 8.37188 385.965 7.82111C382.027 7.81852 378.301 7.79838 374.444 7.78907C378.202 7.75802 381.962 7.72795 385.704 7.69691C382.501 7.56342 379.319 7.43033 376.116 7.29684C375.708 7.41586 375.298 7.53703 374.906 7.65449C366.278 7.79938 360.017 7.60479 351.307 7.65083C349.853 7.65859 353.284 7.8939 346.831 7.83393C340.377 7.7739 335.587 7.33472 324.591 7.50435C324.035 7.51315 320.779 7.84951 316.841 7.61665C315.945 7.56388 319.717 7.48578 317.659 7.41647C315.6 7.34713 306.414 7.29011 305.695 7.12504C305.793 7.18349 306.366 7.24406 306.644 7.30356C305.076 7.33149 303.491 7.35945 301.907 7.38687C301.76 7.2839 301.601 7.18079 301.454 7.07835C292.434 7.31792 287.772 7.70873 274.407 7.57942C278.165 7.72895 281.925 7.87909 285.666 8.02862C286.696 7.92357 287.727 7.81782 288.74 7.71278C294.9 7.75468 301.076 7.79629 307.236 7.8382C308.249 7.71866 309.245 7.59947 310.258 7.47994C311.891 7.49546 313.509 7.5105 315.143 7.52602C314.734 7.61243 314.322 7.69838 313.898 7.78479C317.132 7.76358 320.371 7.74192 323.59 7.72071C317.037 8.23077 305.292 7.67733 306.139 8.10399C304.685 8.03779 303.23 7.97113 301.776 7.90442C301.139 8.1113 298.183 8.05176 292.972 8.01916C294.165 8.1211 295.483 8.22165 296.577 8.32462C291.512 8.18079 282.526 8.19476 277.28 8.13939C274.977 8.11507 277.278 7.96508 276.593 7.94745C273.079 7.85534 266.364 8.11706 264.959 8.09636C256.56 7.97319 251.102 7.47699 241.935 7.80402C251.396 7.88474 246.249 7.85065 249.615 8.03228C250.669 8.08923 262.892 8.20802 247.586 8.15526C245.792 8.14866 218.019 7.80582 227.149 7.54311C222.655 7.62694 219.136 7.72387 215.018 7.81287C204.952 7.1205 208.436 7.77093 211.361 8.12902C209.71 8.13057 208.14 8.1342 206.441 8.1342C210.052 7.75801 191.653 7.73465 185.411 7.92456C183.32 7.98769 189.168 8.1081 184.331 8.16502C182.028 8.13864 179.415 8.10448 176.982 8.075C180.511 8.31302 173.584 8.40474 173.681 8.64687C169.253 8.43111 165.866 7.97378 168.3 7.7259C164.64 7.82627 160.961 7.92651 157.302 8.0274C159.001 8.08483 160.723 8.14177 162.422 8.1992C150.46 8.04707 135.08 8.39325 132.58 7.88458C130.995 7.8882 129.393 7.89134 127.808 7.89496C127.317 7.98086 126.844 8.06692 126.353 8.15282C119.181 8.07832 112.025 8.00333 104.853 7.92883C111.239 7.87552 112.76 7.75326 119.457 7.85254C116.876 7.75375 114.247 7.65441 111.715 7.55562C101.633 7.82159 100.258 7.99639 85.0774 7.91723C84.3911 7.91361 72.9214 7.69057 72.5292 7.66883C70.7324 7.56949 73.4599 7.42517 72.6598 7.37496C70.4374 7.23421 56.933 6.8808 57.1944 6.82751C60.4954 6.17343 105.932 6.16476 118.22 6.13113C245.68 5.78238 370.333 6.24896 496.992 6.16927C498.294 6.16804 497.726 6.07149 498.281 6.06735C501.728 6.0431 505.114 6.19358 506.388 6.19979C509.111 6.21259 507.612 6.07355 509.601 6.07345C525.803 6.07468 541.286 6.12572 557.191 6.13564C561.631 6.13759 566.097 6.76148 570.441 8.03957C571.767 8.44846 570.392 8.10621 572.707 8.86808C573.904 9.2462 577.635 10.5878 580.109 12.0255C588.713 17.0002 594.815 23.3721 599.439 32.7812C602.033 37.9028 604.082 46.4093 603.938 52.8402C603.938 52.8528 603.938 52.8653 603.938 52.8778C603.939 55.6053 604.017 58.4469 604.02 61.1417C604.024 64.9656 603.865 64.1847 603.856 64.773C603.813 67.3547 603.986 67.7122 603.982 70.1632C603.974 74.7223 603.858 74.9677 603.868 80.7521C603.875 84.8865 603.967 94.3486 603.993 99.5614C603.859 111.752 603.912 127.113 603.957 138.486C603.983 145.218 603.821 145.842 603.821 148.587C603.824 158.26 604.032 165.601 604.039 174.685C604.047 186.742 603.91 197.427 603.9 209.108C603.899 211.002 604.048 210.567 604.051 212.426C604.065 219.306 604.092 228.103 604.071 234.231C604.048 241.06 603.832 243.579 603.876 250.262C603.889 252.221 604.078 252.796 604.103 256.079C604.141 261.324 603.974 267.075 603.955 270.735C603.93 275.751 604.123 271.389 604.097 278.154C604.096 278.432 603.958 279.444 603.965 280.897C603.984 285.129 604.092 284.709 604.082 290.902C604.081 291.497 603.949 299.708 603.949 300.525C603.947 305.329 603.901 315.001 603.928 317.845C604.028 328.009 604.235 320.007 603.785 328.652C603.895 332.458 604.007 336.233 604.114 340.268C604.014 337.575 603.87 348.504 603.879 349.272C603.954 355.625 604.13 351.841 604.101 359.896C603.696 349.258 604.048 370.288 604.059 374.978C604.109 397.56 604.008 418.088 604.01 440.785C604.012 448.383 604.097 458.565 604.095 466.604C604.095 468.478 603.999 467.062 603.997 468.711C603.996 470.356 604.103 468.531 604.097 470.409C604.06 482.092 603.857 491.247 604.111 501.95C604.074 502.471 604.045 502.454 604.005 503.317C604.232 512.076 603.927 528.944 603.885 535.284C603.826 544.175 603.944 547.131 603.946 552.84C603.947 553.527 603.931 554.25 603.892 555.019C603.993 565.201 596.274 578.349 599.753 572.578C596.888 578.757 592.824 584.116 587.567 588.547C586.979 589.037 587.301 588.601 587.065 588.795C585.56 590.008 585.112 590.463 584.048 591.227C581.112 593.221 585.865 589.918 581.648 592.704C579.346 594.013 578.204 595.217 571.165 597.604C566.69 599.003 561.96 599.726 557.191 599.725C518.119 599.726 476.627 599.697 437.219 599.682C434.195 599.681 436.185 599.802 432.394 599.795C419.224 599.768 395.648 599.563 384.291 599.591C372.935 599.619 375.497 599.797 368.391 599.871C367.018 599.886 368.143 599.784 366.901 599.783C358.551 599.773 348.596 599.615 341.831 599.591C337.357 599.575 337.716 599.735 334.612 599.746C329.988 599.763 325.228 599.602 322.761 599.597C311.16 599.574 303.185 599.704 292.352 599.638C292.776 599.673 293.056 599.705 293.415 599.74C280.588 599.734 267.778 599.728 254.951 599.723C255.556 599.755 256.141 599.787 256.745 599.82C241.696 599.802 243.413 599.454 244.737 600.189C243.642 600.214 242.482 600.244 241.437 600.268C241.861 599.89 232.758 599.613 221.173 599.517C220.323 599.51 214.622 599.878 215.243 599.443C213.756 599.549 212.87 599.623 211.612 599.716C209.161 599.585 206.678 599.454 204.227 599.323C202.904 599.343 201.562 599.362 200.239 599.381C200.043 599.467 200.194 599.555 199.769 599.639C193.625 599.652 181.025 599.546 176.17 599.557C164.11 599.585 151.833 599.815 142.453 599.566C137.884 599.591 142.421 599.759 135.626 599.738C134.858 599.653 134.136 599.572 133.335 599.484C127.782 599.863 126.621 599.633 119.011 599.554C113.864 599.5 110.493 599.592 105.592 599.574C104.35 599.57 104.526 599.458 103.676 599.462C100.83 599.474 92.7102 599.627 90.7011 599.631C78.8347 599.657 68.0583 599.659 57.1907 599.646C51.1589 599.639 45.0841 598.482 39.2915 596.065C37.5107 595.301 39.7756 596.401 37.9367 595.589C35.0187 594.203 36.8061 594.871 35.1524 594.011C30.6885 591.373 30.3933 591.655 24.9429 586.832C16.1444 578.641 10.2446 565.95 10.378 552.84C10.409 540.384 10.4451 527.803 10.4511 515.822C10.4511 515.07 10.3468 515.115 10.3458 514.298C10.3407 508.972 10.4816 503.581 10.4801 498.745C10.478 490.722 10.3315 484.692 10.3321 476.766C10.3326 461.275 10.4076 447.434 10.4117 431.502C10.4153 418.462 10.4014 407.137 10.4019 392.838C10.404 330.382 10.0731 266.651 10.2491 203.77C10.2537 202.17 10.3458 202.821 10.3418 202.333C10.302 197.693 10.1777 197.279 10.438 195.628C10.3867 189.716 10.1911 187.851 10.2051 180.711C10.2124 176.906 10.5155 179.747 10.3592 173.31C10.218 167.497 10.0519 173.911 10.2216 156.625C10.2263 156.168 10.411 153.915 10.3629 150.321C10.3153 146.709 10.183 150.889 10.1432 142.196C10.05 121.787 10.2097 95.9535 10.1606 72.2271C10.1575 70.7401 10.0587 56.419 10.0132 53.592C10.0089 53.3264 10.0045 53.0763 9.99996 52.8402C10.0939 47.9981 9.67412 48.6738 11.0738 41.6832C12.4688 36.0667 14.4418 31.6106 18.2112 25.9719C18.6909 25.3493 19.1648 24.0323 22.6429 20.2689ZM601.565 525.313C601.408 523.973 600.83 521.555 601.006 513.453C601.023 512.685 601.42 516.831 601.483 512.356C601.525 516.735 601.539 520.999 601.566 525.313C601.565 525.313 601.565 525.313 601.565 525.313ZM55.6787 9.06796C49.778 9.23308 43.8924 10.6124 38.532 13.1081C42.1928 11.3072 46.1211 10.0215 50.1437 9.30568C51.99 9.10938 53.8324 9.03181 55.6787 9.06796ZM172.051 596.912C172.045 596.912 172.04 596.912 172.034 596.912C178.407 596.838 184.784 596.763 191.157 596.689C190.487 596.744 189.815 596.799 189.145 596.854C184.113 596.94 179.078 597.026 174.063 597.113C173.393 597.046 172.721 596.979 172.051 596.912ZM121.702 597.493C117.633 597.428 118.628 597.318 116.39 597.211C116.39 597.211 116.39 597.211 116.39 597.211C115.799 597.184 113.047 597.159 111.983 597.155C112.376 597.224 112.882 597.292 113.307 597.36C103.813 597.527 85.246 596.935 109.284 596.696C108.924 596.783 108.581 596.869 108.222 596.956C120.167 596.932 133.483 597.121 121.702 597.493ZM601.315 429.264C601.03 419.067 600.97 415.797 601.165 403.427C601.246 405.174 601.327 406.922 601.407 408.669C601.325 410.712 601.243 412.74 601.161 414.782C601.161 414.788 601.161 414.794 601.161 414.8C601.247 415.208 601.334 415.618 601.42 416.01C601.385 420.422 601.35 424.852 601.315 429.264ZM12.7434 297.712C13.3119 294.87 12.9815 295.69 13.1096 303.808C13.1541 306.618 13.2536 303.879 13.2702 305.628C13.3606 315.07 12.9798 315.825 12.7816 313.717C12.7681 308.374 12.7559 302.975 12.7434 297.73C12.7434 297.724 12.7434 297.718 12.7434 297.712ZM12.6255 52.7304C12.6255 52.7246 12.6255 52.7188 12.6255 52.713C12.6468 52.6759 12.6653 52.7326 12.6824 52.8402C12.7688 53.3856 12.8129 55.2328 12.9037 52.8402C12.9128 52.6012 12.9243 52.3201 12.9406 51.9919C12.9353 52.274 12.9325 52.5568 12.9325 52.8402C12.9319 55.8198 12.931 58.8005 12.9305 61.7949C12.9176 60.8323 12.9053 59.8492 12.8924 58.8865C12.8448 59.7362 12.7965 60.5882 12.7489 61.4379C12.9083 62.5981 12.8157 63.676 12.7624 67.1068C12.9326 66.159 13.103 65.2159 13.2732 64.268C13.2225 68.2544 13.1716 72.2552 13.1209 76.2416C13.078 76.2905 13.0351 76.3406 12.9921 76.3896C13.047 77.8924 13.1024 79.38 13.1572 80.8829C13.106 81.2914 13.0553 81.6848 13.0041 82.0933C13.0428 83.9065 13.0816 85.7226 13.1209 87.5358C12.9969 88.0877 12.9432 84.0915 12.9748 91.1757C12.8475 89.0027 12.7206 86.8342 12.5933 84.6448C12.6036 74.0437 12.6144 63.4412 12.6252 52.8402C12.6253 52.8036 12.6254 52.767 12.6255 52.7304ZM12.9183 371.565C12.8945 359.849 12.9844 363.148 13.2659 365.861C13.15 367.756 13.0342 369.67 12.9183 371.565ZM408.848 597.363C412.247 597.171 415.66 596.981 419.141 596.796C426.069 596.689 433.001 597.039 427.788 597.176C421.513 597.34 414.959 597.156 408.848 597.363ZM566.471 596.307C558.206 597.578 565.97 596.226 567.722 595.559C569.988 595.197 573.133 594.349 577.731 591.996C573.483 594.351 567.839 596.088 566.471 596.308C566.471 596.308 566.471 596.307 566.471 596.307ZM272.428 597.147C269.031 597.153 265.652 597.207 262.614 597.142C263.531 596.958 269.607 597.125 265.262 596.853C267.434 596.848 269.61 596.844 271.767 596.839C270.396 596.951 272.239 597.036 272.42 597.147C272.423 597.147 272.425 597.147 272.428 597.147ZM13.1347 485.082C12.9173 491.749 13.0103 493.013 13.1609 499.729C12.984 500.675 12.6875 492.668 12.6223 487.651C12.793 486.801 12.9639 485.948 13.1347 485.082ZM260.021 8.69356C261.622 8.46801 273.433 8.4386 279.301 8.50528C278.602 8.53873 277.901 8.57263 277.202 8.60659C271.483 8.63557 265.741 8.66459 260.021 8.69356ZM579.879 590.807C579.136 591.244 578.415 591.64 577.731 591.996C578.489 591.595 579.215 591.188 579.879 590.807ZM602.392 244.315C602.605 247.108 602.676 238.805 602.593 248.886C602.593 248.886 602.593 248.886 602.593 248.886C602.539 255.553 602.524 257.025 602.507 263.202C602.234 260.979 602.136 248.447 602.08 265.719C602.08 265.946 602.242 265.493 602.22 268.253C602.213 269.105 602.08 271.831 602.041 275.977C602.029 277.317 601.987 287.386 601.985 273.661C601.794 274.069 601.602 273.332 601.417 273.364C601.363 268.007 601.736 263.889 601.727 258.221C601.713 249.806 601.335 245.523 601.83 243.905C601.952 250.982 601.955 263.133 601.657 264.717C601.654 271.563 601.897 273.529 602.018 268.009C601.865 244.363 602.38 261.518 602.185 240.814C602.116 240.569 602.042 239.717 601.978 239.847C602.22 233.528 602.316 243.318 602.392 244.315ZM601.866 293.759C601.72 289.673 601.574 285.602 601.428 281.533C601.665 281.533 601.878 283.776 602.011 290.214C601.963 291.39 601.914 292.583 601.866 293.759ZM525.145 8.22728C524.557 8.35612 522.989 8.47419 521.845 8.59683C520.603 8.48816 491.188 8.38392 506.153 8.27732C508.326 8.2618 521.583 8.48963 525.145 8.22728ZM12.9406 438.791C12.8542 442.255 12.7676 445.705 12.6812 449.153C12.6264 443.846 12.5701 438.534 12.5143 433.226C12.6563 435.086 12.7985 436.931 12.9406 438.791ZM465.241 597.589C463.778 597.584 468.638 597.407 462.872 597.435C467.17 597.322 471.195 597.226 475.395 597.119C476.653 597.203 477.924 597.287 479.182 597.37C480.163 597.317 481.163 597.263 482.143 597.209C481.555 597.331 481.031 597.451 480.41 597.575C473.335 597.313 471.712 597.61 465.241 597.589ZM254.847 598.067C253.574 597.801 263.82 597.644 253.741 597.601C255.653 597.427 258.727 597.335 264.626 597.32C265.573 597.386 266.518 597.453 267.465 597.519C267.596 597.341 269.113 597.275 272.428 597.147C272.431 597.148 272.434 597.148 272.437 597.148C281.405 597.135 280.869 597.195 283.026 597.488C273.532 597.322 273.248 597.59 266.777 597.75C262.333 597.859 256.53 597.81 254.847 598.067ZM556.485 8.22423C549.772 8.44827 555.796 8.65724 543.885 8.41922C544.653 8.3623 545.424 8.30586 546.192 8.24894C549.623 8.24015 553.054 8.23199 556.485 8.22423ZM221.713 597.157C222.481 597.568 228.802 597.888 229.881 597.219C223.721 597.083 226.729 597.462 221.713 597.157ZM563.754 597.447C560.702 597.879 558.574 597.875 557.191 597.828C553.988 597.705 554.825 597.484 557.191 597.314C557.729 597.275 558.344 597.228 559.003 597.17C559.742 597.225 560.497 597.26 561.227 597.279C563.276 597.057 565.3 596.694 567.293 596.193C566.137 596.658 564.96 597.077 563.754 597.447ZM19.8848 577.597C22.6027 581.188 21.1737 579.214 19.6838 576.898C18.2066 574.566 16.856 571.784 18.3986 574.501C20.8551 578.847 25.1531 583.868 23.3485 582.13C22.2051 580.819 21.0136 579.289 19.8944 577.612C19.8912 577.607 19.888 577.602 19.8848 577.597ZM65.2562 597.525C63.7698 597.211 65.9124 597.302 58.7601 597.359C58.4768 597.361 57.9205 597.361 57.1907 597.359C52.6357 597.732 41.8428 594.851 47.446 596.451C50.5664 597.147 53.8628 597.52 57.1907 597.52C59.8738 597.521 62.5748 597.523 65.2562 597.525ZM601.813 480.023C601.949 479.914 602.249 492.412 602.174 494.017C602.174 494.017 602.174 494.017 602.175 494.017C601.97 498.347 601.941 485.163 601.661 490.882C601.908 478.218 601.311 474.429 602.097 475.312C602.132 482.772 601.97 479.24 601.813 480.023ZM104.949 8.05089C104.943 8.05089 104.937 8.05089 104.932 8.05089C105.771 8.05731 112.687 8.25767 111.846 8.32707C103.529 8.26756 105.011 8.13568 97.2686 8.35239C96.8442 8.28259 96.4805 8.21489 96.0234 8.14458C99.0956 8.10318 100.798 8.01933 104.949 8.05089ZM493.343 7.95202C496.399 7.91632 501.976 8.06427 505.456 8.05547C494.377 8.62364 481.138 8.09382 493.343 7.95202ZM12.6449 167.31C12.6451 167.319 12.6453 167.327 12.6455 167.336C12.6452 167.333 12.6449 167.33 12.6446 167.327C12.6447 167.322 12.6448 167.316 12.6449 167.31ZM601.738 155.101C601.775 154.707 601.807 154.484 601.835 154.404C601.838 154.404 601.84 154.404 601.843 154.404C601.808 154.617 601.773 154.844 601.738 155.101ZM601.772 454.047C601.962 448.841 602.265 466.185 602.192 471.794C602.105 471.402 602.027 471.341 601.927 470.427C602.152 465.9 601.74 454.913 601.772 454.047ZM331.242 597.491C344.952 597.496 327.11 598.248 326.374 597.648C326.402 597.637 330.888 597.492 331.242 597.491ZM600.904 562.032C600.214 565.433 602.48 558.808 598.935 569.431C598.639 570.014 598.331 570.59 598.011 571.159C599.301 568.231 600.273 565.164 600.904 562.032ZM421.057 598.478C438.312 598.351 454.815 598.127 443.575 597.5C442.27 597.52 440.945 597.539 439.639 597.56C439.443 597.866 434.624 597.699 427.57 597.689C426.565 597.81 422.653 597.838 421.919 597.942C420.499 598.141 424.994 598.282 421.057 598.478ZM12.0513 258.892C12.1036 259.17 12.1561 259.441 12.2079 259.719C12.2669 262.448 12.3256 265.184 12.3846 267.913C12.2843 267.473 12.184 267.031 12.0837 266.59C12.0728 264.026 12.0619 261.474 12.051 258.909C12.0511 258.904 12.0512 258.898 12.0513 258.892ZM602.512 310.574C601.937 309.006 602.043 314.484 602.333 325.595C602.393 320.595 602.452 315.574 602.512 310.574ZM143.776 598.245C143.417 598.081 143.063 597.918 142.688 597.755C136.789 597.925 137.884 598.112 140.711 598.329C141.74 598.301 142.748 598.273 143.776 598.245ZM58.8036 598.314C61.2508 598.348 60.0019 598.216 60.2579 598.219C66.4512 598.288 67.3235 598.349 74.9222 598.25C75.8533 598.215 76.7688 598.179 77.7 598.143C74.1871 597.8 71.6365 597.987 64.2026 597.786C65.5425 597.903 66.877 598.021 68.217 598.139C64.536 598.117 60.8686 598.095 57.1907 598.073C56.7337 598.07 56.2783 598.061 55.8244 598.044C55.3309 598.066 54.8402 598.08 54.3414 598.085C55.2821 598.173 56.2317 598.234 57.1907 598.265C57.7332 598.282 58.2727 598.299 58.8036 598.314ZM12.2 227.334C12.2134 223.314 12.2274 219.276 12.2408 215.256C12.1565 215.109 12.0716 214.968 11.9873 214.821C12.0581 218.987 12.1291 223.168 12.2 227.334ZM602.25 228.039C602.22 227.721 602.19 227.41 602.159 227.134C602.196 227.161 602.226 227.509 602.25 228.039ZM94.3428 7.58827C89.7844 7.52929 83.2156 7.56802 78.2155 7.55562C78.6086 7.7672 91.317 7.70872 95.7796 7.83698C96.4967 7.79901 96.2696 7.61309 94.3428 7.58827ZM547.375 597.902C546.231 598.008 545.089 598.113 543.961 598.219C541.2 598.207 538.432 598.195 535.654 598.184C535.572 598.27 535.492 598.357 535.41 598.444C547.647 598.331 544.826 598.581 550.884 598.826C549.708 598.519 548.551 598.211 547.375 597.902ZM11.6519 99.4309C11.7104 108.271 11.8196 111.407 12.0788 106.424C12.0193 103.303 11.9598 100.165 11.9003 97.0449C11.8175 97.8454 11.7347 98.6469 11.6519 99.4309ZM602.445 67.037C602.351 59.8333 602.678 59.5278 602.516 52.8402C602.512 52.6578 602.506 52.4709 602.498 52.2795C602.498 52.4661 602.496 52.6531 602.493 52.8402C602.431 56.5272 602.37 60.2132 602.309 63.8847C602.354 64.9265 602.4 65.9951 602.445 67.037ZM603.401 429.865C603.522 426.744 602.946 420.909 603.371 412.135C603.244 410.044 603.123 408.734 602.999 406.937C603.134 405.891 603.271 404.703 603.405 403.706C603.405 403.7 603.405 403.694 603.405 403.688C603.359 395.73 603.19 400.89 603.047 400.71C602.987 400.626 603.086 394.72 602.957 396.565C602.735 399.752 602.863 411.658 602.592 411.691C602.681 407.508 602.607 399.339 602.426 401.755C602.228 404.402 602.56 412.101 602.396 417.003C602.828 409.978 602.695 424.487 602.362 426.138C602.617 434.651 602.721 426.826 602.71 418.1C602.964 423.427 602.827 415.586 603.038 414.295C603.166 419.788 603.06 438.639 603.401 429.865ZM349.189 598.581C355.074 598.565 364.266 598.71 368.295 598.495C370.641 598.37 361.427 598.273 367.781 598.077C362.048 598.096 360.74 598.173 361.72 598.345C360.414 598.365 359.091 598.386 357.784 598.406C357.18 598.372 356.56 598.339 355.956 598.305C355.269 598.376 354.579 598.447 353.909 598.518C352.521 598.504 351.117 598.49 349.729 598.475C349.566 598.511 349.288 598.542 349.189 598.581ZM429.662 7.59651C431.296 7.59444 432.913 7.59238 434.547 7.5898C434.367 7.54784 434.153 7.50414 433.946 7.46102C433.798 7.42694 433.65 7.39287 433.502 7.35879C434.449 7.48054 442.232 7.68289 445.51 7.55287C447.159 7.48765 443.408 7.25609 450.396 7.21567C445.331 7.22758 440.64 7.25918 435.723 7.27884C436.164 7.21002 436.588 7.14046 437.029 7.07163C437.026 7.07153 437.023 7.07143 437.02 7.07133C435.387 7.05581 433.734 7.03955 432.1 7.02403C431.283 7.21497 430.479 7.40557 429.662 7.59651ZM148.566 598.568C154.138 598.433 156.003 598.363 153.373 598.144C153.367 598.144 153.361 598.144 153.355 598.144C151.28 598.241 149.204 598.337 147.129 598.434C147.603 598.479 148.075 598.523 148.566 598.568ZM602.971 180.041C602.141 168.194 602.65 194.874 602.932 189.794C602.945 189.565 602.879 181.152 602.971 180.041ZM565.953 597.33C563.076 597.9 560.138 598.188 557.191 598.193C556.848 598.194 556.504 598.195 556.161 598.196C556.502 598.242 556.846 598.288 557.191 598.334C557.614 598.39 558.037 598.44 558.455 598.484C560.989 598.307 563.498 597.921 565.953 597.33ZM11.2753 137.92C11.0476 141.343 10.9651 150.128 11.2128 154.422C11.2417 152.167 11.2708 149.911 11.2997 147.656C11.3282 151.919 11.3595 156.135 11.3864 160.43C11.7036 160.659 11.5196 155.708 11.607 148.257C11.6211 147.103 12.0149 139.727 11.7181 137.18C11.6571 136.668 11.6156 144.514 11.4383 139.061C11.4243 141.446 11.4274 143.504 11.4197 145.758C11.3441 145.921 11.2685 146.083 11.1929 146.263C11.2203 143.476 11.248 140.707 11.2753 137.92ZM383.447 598.556C391.529 598.574 392.527 598.447 394.21 598.223C390.451 598.248 386.691 598.273 382.933 598.299C383.112 598.384 383.268 598.47 383.447 598.556ZM11.2027 210.162C11.166 214.587 11.3484 212.692 11.383 214.472C11.5134 221.204 11.3831 225.796 11.4648 232.446C11.4296 232.004 11.3967 231.599 11.3626 231.174C11.3626 231.18 11.3626 231.186 11.3626 231.192C11.2089 262.68 11.6224 246.14 11.5551 227.299C11.6229 226.858 11.6908 226.434 11.7581 225.993C11.6396 217.562 11.5256 209.786 11.2027 210.162ZM602.999 285.294C603.041 284.935 603.311 287.99 603.185 282.255C602.791 277.714 602.986 285.162 602.835 287.027C602.797 285.475 602.76 283.887 602.723 282.351C602.612 291.633 602.705 292.988 602.993 289.605C603.012 289.363 602.957 285.655 602.999 285.294ZM603.193 224.295C602.613 223.02 602.874 234.734 603.054 234.309C603.061 232.692 602.963 231.435 603.006 229.72C603.05 227.988 603.185 227.545 603.193 224.295ZM602.496 559.999C602.587 559.666 603.205 556.185 602.962 556.516C602.422 560.858 600.034 569.236 600.601 567.828C601.517 565.076 601.947 563.179 602.496 559.999C602.496 559.999 602.496 559.999 602.496 559.999ZM11.1386 84.6099C11.1224 84.7732 11.0244 93.3747 11.1154 94.4848C11.2179 95.3996 11.3276 95.8537 11.4337 96.5399C11.3354 91.801 11.4103 82.2089 11.1386 84.6273C11.1386 84.6215 11.1386 84.6157 11.1386 84.6099Z" fill="black"/>
</g>
<defs>
<filter id="filter0_d_213_30" x="0" y="0" width="614.114" height="614.268" filterUnits="userSpaceOnUse" color-interpolation-filters="sRGB">
<feFlood flood-opacity="0" result="BackgroundImageFix"/>
<feColorMatrix in="SourceAlpha" type="matrix" values="0 0 0 0 0 0 0 0 0 0 0 0 0 0 0 0 0 0 127 0" result="hardAlpha"/>
<feOffset dy="4"/>
<feGaussianBlur stdDeviation="5"/>
<feComposite in2="hardAlpha" operator="out"/>
<feColorMatrix type="matrix" values="0 0 0 0 0 0 0 0 0 0 0 0 0 0 0 0 0 0 0.25 0"/>
<feBlend mode="normal" in2="BackgroundImageFix" result="effect1_dropShadow_213_30"/>
<feBlend mode="normal" in="SourceGraphic" in2="effect1_dropShadow_213_30" result="shape"/>
</filter>
</defs>
</svg>
