<svg width="100%" height="100%" viewBox="0 0 617 362" preserveAspectRatio="none" fill="none" xmlns="http://www.w3.org/2000/svg">
<g filter="url(#filter0_d_213_30)">
<path d="M12.0776 52.8402C12.0776 27.9874 32.2248 7.84021 57.0776 7.84021H560.078C584.93 7.84021 605.078 27.9874 605.078 52.8402V299.84C605.078 324.693 584.93 344.84 560.078 344.84H57.0777C32.2248 344.84 12.0776 324.693 12.0776 299.84V52.8402Z" fill="white"/>
<path d="M14.0943 130.188C14.3197 126.161 14.1719 139.606 14.5087 130.678C14.5314 132.54 14.5549 134.413 14.5776 136.275C14.4529 136.747 14.3285 137.231 14.2038 137.703C14.1671 135.203 14.1304 132.701 14.0937 130.188C14.0939 130.188 14.0941 130.188 14.0943 130.188ZM12.5325 126.774C12.8881 129.066 12.983 136.346 13.3112 128.481C13.1891 127.856 13.0671 127.216 12.945 126.591C13.0397 123.86 13.1344 121.113 13.2285 118.382C13.182 117.4 13.1354 116.42 13.0894 115.438C13.3015 114.187 13.5142 112.948 13.7268 111.697C13.6958 112.808 13.6642 113.933 13.6332 115.043C13.8054 119.433 13.8525 123.338 13.8846 129.297C13.9348 128.774 13.9846 128.25 14.0348 127.726C13.9494 130.751 13.8638 133.773 13.7784 136.785C13.6946 134.169 13.6014 131.245 13.5233 128.821C13.1907 132.7 13.3758 139.542 13.4452 143.103C13.5399 147.952 13.3817 146.856 13.4479 150.454C13.4583 151.028 13.5822 151.094 13.5843 152.229C13.5942 157.959 13.5285 169.088 13.2392 162.58C13.2765 153.149 13.0442 145.106 13.129 135.853C12.7946 138.301 12.6808 133.426 12.5325 126.774ZM13.5978 300.023C13.5941 299.963 13.5906 299.902 13.5873 299.84C13.4378 296.921 13.503 291.265 13.6133 287.406C13.6133 287.401 13.6133 287.397 13.6133 287.392C13.6382 286.524 13.854 284.559 13.8453 287.392C13.8302 292.011 13.4904 294.244 13.7211 296.668C13.6805 297.693 13.6441 298.767 13.6044 299.84C13.6021 299.901 13.5999 299.962 13.5978 300.023ZM14.7258 309.636C15.3257 312.304 14.6703 311.198 14.069 307.795C14.0688 307.795 14.0686 307.795 14.0684 307.795C13.8827 306.368 14.4096 309.139 13.5734 304.055C13.6326 302.996 13.7165 301.95 13.8459 300.92C13.8804 302.165 13.9582 303.309 14.1014 304.609C13.7502 303.755 14.164 306.96 14.7258 309.636ZM13.3838 167.367C13.6202 167.813 13.6187 165.947 13.7827 162.77C13.7749 165.769 13.7667 168.768 13.7589 171.754C13.6337 170.287 13.509 168.835 13.3838 167.367ZM13.4205 96.9195C13.4205 96.9149 13.4205 96.9104 13.4205 96.9059C13.3832 95.9233 13.3458 94.9378 13.3091 93.968C13.3934 93.3809 13.4774 92.8005 13.5618 92.2134C13.4826 88.7422 13.4034 85.2524 13.3237 81.7812C13.5814 82.203 13.5395 88.4338 13.7195 91.8666C13.6419 96.9708 13.4923 99.4304 13.274 99.7621C13.3226 98.8181 13.3718 97.8763 13.4205 96.9195ZM603.062 312.089C603.31 310.957 603.507 309.841 603.665 308.699C603.331 310.19 602.93 311.65 602.437 313.101C601.428 316.999 601.11 317.324 598.623 321.952C594.475 328.886 592.085 330.856 590.15 332.824C588.08 334.64 586.167 336.593 579.534 339.611C589.651 333.848 585.606 335.72 590.693 331.039C591.911 330.195 587.082 335.229 590.63 332.106C596.376 326.324 600.534 319.342 602.645 310.638C602.549 310.882 602.449 311.126 602.349 311.369C601.997 312.741 601.582 314.086 601.099 315.418C601.557 313.956 601.929 312.509 602.236 310.99C601.949 312.94 603.048 308.071 603.094 308.759C603.146 309.076 602.792 311.277 602.493 312.566C603.523 309.325 604.184 305.869 604.432 302.423C604.413 304.217 604.287 306.003 604.052 307.78C603.796 309.223 603.47 310.646 603.071 312.063C603.068 312.072 603.065 312.08 603.062 312.089ZM146.02 9.24255C150.41 8.99934 158.387 8.9591 162.586 9.22973C157.06 9.23387 151.545 9.23841 146.02 9.24255ZM13.0939 100.095C13.1353 99.5983 13.1762 99.1167 13.2175 98.6196C13.2941 100.814 13.3701 103.022 13.4467 105.216C13.3272 105.637 13.2077 106.068 13.0888 106.502C13.0903 104.371 13.0924 102.226 13.0939 100.095ZM13.227 240.502C13.2198 238.896 13.2237 238.754 13.2407 236.755C13.2406 236.757 13.2405 236.759 13.2404 236.761C13.2468 235.969 13.3166 229.337 13.4086 230.076C13.4101 233.369 13.4086 236.881 13.4086 240.25C13.3481 240.352 13.288 240.374 13.227 240.502ZM13.2807 201.745C13.2809 201.74 13.2811 201.736 13.2813 201.731C13.2953 200.533 13.3237 199.398 13.3289 198.161C13.4737 202.613 13.2139 203.317 13.2874 207.362C13.3614 211.407 13.5047 213.907 13.1489 217.339C13.0956 216.063 13.0193 214.688 12.9572 213.374C13.0995 207.632 12.9656 206.085 12.8254 201.48C12.9775 201.569 13.1286 201.655 13.2807 201.745ZM545.496 343.805C544.398 343.981 543.174 343.808 543.047 343.806C543.05 343.806 543.052 343.805 543.054 343.805C533.334 343.968 544.319 343.708 535.145 343.68C536.51 343.637 537.853 343.59 539.205 343.546C541.297 343.63 543.454 343.727 545.496 343.805ZM229.653 343.788C229.563 343.737 229.456 343.686 229.367 343.634C234.88 343.646 236.286 343.445 240.867 343.628C237.128 343.682 233.391 343.736 229.653 343.789C229.653 343.789 229.653 343.788 229.653 343.788ZM12.8544 268.289C12.7566 262.176 12.7135 257.654 12.8687 251.784C12.8689 251.78 12.8691 251.775 12.8693 251.77C12.8789 251.432 12.9861 253.069 13.0131 252.627C12.997 251.416 12.9724 250.165 12.9533 248.941C13.0391 248.776 13.1249 248.617 13.2102 248.452C13.1859 251.897 13.1616 255.344 13.1373 258.802C13.1875 258.292 13.2372 257.769 13.2874 257.259C13.3133 260.193 13.3391 263.117 13.3649 266.052C13.2242 265.031 13.0835 264.013 12.9423 263.005C12.9128 264.766 12.8844 266.529 12.8544 268.289ZM321.434 344.349C320.464 344.293 322.26 344.199 320.754 344.151C319.248 344.104 316.472 344.208 317.123 344.05C319.15 344.029 321.28 344.005 323.345 343.982C316.697 343.698 310.064 343.955 309.962 343.604C316.342 343.695 321.589 343.653 327.766 343.555C327.51 343.834 321.332 344.075 325.222 344.337C323.973 344.341 322.659 344.346 321.448 344.348C321.443 344.348 321.439 344.349 321.434 344.349ZM28.8581 14.6517C31.9507 12.1279 40.1543 7.83392 45.1611 6.93998C46.3661 6.61409 50.5021 6.4093 50.4812 6.51802C50.3871 6.73998 45.5342 7.59651 50.7673 6.89394C49.0116 7.13501 47.3171 7.47403 45.615 7.91074C45.958 7.98311 46.2976 8.05935 46.6241 8.14163C48.688 7.6369 50.7838 7.27706 52.9001 7.06246C53.0083 7.10414 53.1159 7.14635 53.2236 7.18878C45.6738 8.13248 50.1503 7.74015 46.3428 8.68774C49.8692 7.92751 53.5033 7.59604 57.0776 7.69081C55.0087 7.67098 52.5862 7.84646 50.7792 8.09306C50.5696 8.34486 54.8662 7.84671 55.6079 7.92953C57.6985 8.06442 53.4085 7.93143 48.5243 8.94185C43.6097 9.85501 38.3882 12.273 37.7288 12.8483C40.76 11.4216 44.106 10.2926 47.4516 9.59836C46.5052 9.85621 45.5571 10.1487 44.6333 10.4687C37.1441 12.3542 29.2608 16.8885 23.2057 23.7169C22.6769 24.3478 22.1657 24.9941 21.68 25.6422C21.9206 25.5239 22.1532 25.4181 22.3943 25.3051C21.6389 26.2775 20.916 27.2925 20.2452 28.3237C22.0707 25.1564 18.8059 29.0578 16.0812 34.5903C17.2488 31.5185 19.5323 28.1538 19.1732 28.2567C14.7783 35.1468 11.8691 44.1944 11.9551 52.8402C11.9607 56.1157 11.9838 59.3086 12.0451 62.3313C12.0999 65.0492 12.4295 65.0404 12.3991 71.4306C12.3629 71.2136 12.2975 71.1765 12.2499 71.0362C12.4077 82.088 12.502 88.7933 12.3411 100.279C12.4596 99.6157 12.5785 98.9633 12.6969 98.3C12.6379 95.8625 12.578 93.4209 12.519 90.9961C12.7146 89.3375 12.8009 91.7888 12.7989 84.5151C12.7973 78.5553 12.7109 82.103 12.653 80.4823C12.5739 78.2877 12.7295 76.3617 12.6411 74.0013C12.5733 72.1763 12.4119 74.1506 12.4528 69.3904C12.6619 71.3046 12.8777 73.2576 13.0894 75.1846C13.0423 76.3459 12.9945 77.4984 12.9469 78.6597C12.891 77.4856 12.8358 76.3314 12.7799 75.1574C12.8803 79.2918 12.975 83.1985 13.079 87.4734C12.7768 86.0823 12.8901 90.501 12.9258 92.9003C12.9816 96.6377 12.7736 93.4357 12.8083 95.8858C12.8435 98.3359 13.0759 100.979 13.0262 105.407C12.8917 103.033 12.7711 106.262 12.6469 105.638C12.5227 105.013 12.4952 100.329 12.3597 104.829C12.4627 113.481 12.9356 104.092 13.0122 109.936C13.1043 116.954 12.3335 118.625 12.1678 116.533C12.0374 114.886 12.0636 109.222 11.9337 107.562C11.6993 117.708 12.1621 117.796 12.2526 119.532C12.5822 125.836 11.7025 121.601 12.0207 129.066C11.8562 128.926 11.7082 128.812 11.5504 128.672C11.5805 129.96 11.6203 130.815 11.6441 132.371C11.9647 127.782 11.9509 131.538 11.9514 133.466C11.9525 136.504 12.1088 131.812 12.1492 132.616C12.2572 134.786 12.2081 138.217 12.3494 136.112C12.2836 137.056 12.2177 138.08 12.1525 139.05C12.2344 142.598 12.921 150.938 12.7824 143.001C13.0375 143.741 12.9149 146.308 12.8761 148.312C12.8373 150.315 12.9998 150.278 12.9697 152.039C12.8497 159.044 12.5718 154.462 12.3539 153.351C12.504 162.603 12.6033 153.545 12.7036 166.878C12.8811 168.167 13.0705 162.006 13.173 167.136C12.8646 168.081 12.6431 171.858 12.5407 179.221C12.6116 179.936 12.6831 180.649 12.754 181.363C12.4694 185.383 12.1734 183.328 12.5263 190.769C11.8769 186.774 12.2924 189.521 12.028 196.182C11.9747 197.535 11.84 194.409 11.7717 196.297C11.7409 197.154 11.8426 199.232 11.7641 201.323C11.7253 202.344 11.4749 207.117 11.5938 210.422C11.9084 207.998 12.176 214.278 12.4363 208.892C12.3722 218.847 12.5232 225.813 12.0942 214.659C11.999 217.186 11.9042 219.715 11.8095 222.242C11.8846 224.003 11.959 225.779 12.0335 227.553C11.7749 227.821 11.7024 227.552 11.7479 234.49C11.6869 231.48 11.6248 228.482 11.5633 225.459C11.511 225.357 11.4568 224.936 11.4061 225.037C11.5054 228.74 11.5482 239.165 11.617 241.692C11.6858 244.219 11.7046 239.339 11.7714 240.067C12.3218 246.127 11.9159 245.647 12.0103 249.995C12.0662 252.548 12.1269 246.454 12.1507 247.819C12.2379 252.882 11.9454 255.231 11.9417 259.72C12.1077 258.126 12.2763 256.544 12.444 254.987C12.4352 259.696 12.4337 264.946 12.487 269.323C12.5078 271.041 12.6313 269.743 12.6396 270.023C12.682 271.416 12.7492 277.081 12.7497 277.681C12.7507 282.196 12.5797 282.325 12.5703 286.712C12.5558 284.99 12.5428 283.37 12.5288 281.687C12.2515 280.921 11.9742 280.14 11.6963 279.374C11.6761 283.674 11.6564 287.976 11.6362 292.289C11.7288 289.137 11.821 285.974 11.9136 282.822C12.1376 287.748 12.3622 292.674 12.5868 297.6C12.5467 298.348 12.5066 299.094 12.4665 299.84C12.3691 301.647 12.378 303.448 12.498 305.263C13.6034 312.134 14.0923 310.559 14.515 313.854C15.1923 315.781 16.0049 317.665 16.9381 319.475C16.7469 319.244 16.5595 319.014 16.3726 318.779C17.4548 320.999 18.7191 323.125 20.148 325.131C18.8876 322.855 17.8732 320.528 17.0419 318.137C19.155 322.402 19.2043 322.49 19.4962 323.147C20.3462 324.857 22.7664 327.757 23.6875 328.948C23.956 329.395 20.8983 325.804 21.7843 327.173C21.8843 327.464 25.5863 332.779 28.9882 335.151C28.9939 335.02 28.8299 334.721 28.7755 334.527C33.0599 337.888 35.3882 339.513 34.6478 339.335C37.2413 340.752 41.2503 342.331 41.8838 342.342C43.2944 342.842 44.7194 343.269 46.1742 343.625C44.5328 343.701 50.718 344.963 51.1773 344.552C48.6295 344.21 46.1101 343.649 43.6606 342.877C44.6486 342.953 43.3073 342.356 43.6343 342.384C43.9823 342.293 45.8364 343.535 53.8577 344.498C56.9204 345.001 48.4018 343.9 50.8853 344.328C52.9865 344.665 55.0358 344.804 57.0777 344.815C59.2472 344.826 61.3866 344.844 63.5397 344.925C68.732 345.122 62.3437 345.312 74.4412 345.061C47.7567 344.432 78.101 344.636 90.6336 344.441C94.0793 345.062 104.663 345.259 119.237 345.074C117.719 344.901 113.133 344.99 110.491 344.933C107.85 344.877 110.708 344.774 107.418 344.693C104.126 344.613 97.1347 344.503 93.8027 344.381C96.6248 344.283 110.555 344.052 101.345 344.33C108.221 344.501 111.45 344.677 119.972 344.709C122.524 344.439 122.335 344.271 130.642 344.264C125.729 344.638 135.168 344.899 133.09 345.286C127.199 345.195 130.492 344.819 127.085 344.639C126.736 344.621 121.247 344.716 119.972 344.709C125.51 345.047 127.425 345.173 124.018 345.575C127.936 345.539 130.373 345.59 130.73 345.398C131.547 345.481 132.368 345.565 133.172 345.648C134.447 345.646 135.594 345.638 136.946 345.64C135.085 345.35 138.693 345.528 141.258 345.397C143.823 345.266 140.381 345.037 147.426 345.034C145.078 344.966 142.931 344.908 140.659 344.844C145.202 344.769 149.759 344.694 154.301 344.62C151.111 344.443 144.197 344.18 144.386 343.947C146.478 344.035 153.646 343.881 154.431 343.874C157.468 343.85 155.813 343.997 156.042 344.001C160.814 344.072 164.744 344.022 166.556 344.245C170.142 344.144 172.846 344.202 176.648 344.196C178.741 344.193 178.334 344.029 179.559 344.06C187.701 344.267 179.944 344.479 195.649 344.077C193.748 343.963 191.872 343.846 189.971 343.731C191.745 343.688 193.508 343.645 195.282 343.602C196.469 343.623 197.645 343.644 198.832 343.665C198.807 343.911 198.776 344.159 198.75 344.406C200.052 344.419 201.359 344.432 202.661 344.446C200.427 344.47 198.189 344.494 195.955 344.518C195.751 344.562 195.561 344.605 195.357 344.649C198.675 344.716 201.981 344.784 205.299 344.852C205.363 344.766 205.426 344.679 205.49 344.594C212.968 344.713 213.146 344.786 220.254 344.549C225.729 344.552 230.187 344.193 233.352 344.042C234.488 344.09 235.625 344.139 236.773 344.187C237.5 344.115 238.235 344.044 238.963 343.973C240.405 344.072 241.866 344.172 243.308 344.27C244.112 344.045 244.528 343.974 238.901 343.895C240.829 343.615 250.735 343.739 254.767 343.833C257.827 343.904 254.432 344.138 254.815 344.167C256.092 344.263 261.135 344.18 262.194 344.196C266.673 344.263 269.811 344.251 273.857 344.303C274.644 344.313 276.846 344.461 277.033 344.466C278.488 344.491 282.078 344.563 282.487 344.565C303.552 344.676 281.044 344.033 300.631 344.101C300.044 344.016 299.505 343.932 298.931 343.847C300.41 343.842 301.906 343.837 303.385 343.832C305.261 343.902 302.992 344.031 306.718 343.927C306.475 344.032 306.232 344.136 305.976 344.24C307.597 344.184 309.159 344.128 310.818 344.072C313.422 344.434 322.926 344.517 322.25 344.943C322.021 345.088 315.283 345.236 318.843 345.391C321.736 345.421 319.778 345.248 320.958 345.239C329.483 345.176 328.988 345.419 332.472 345.354C333.02 345.25 333.597 345.144 334.158 345.039C335.472 345.07 336.79 345.1 338.116 345.131C338.423 345.061 338.742 344.991 339.048 344.921C337.81 344.916 336.416 344.912 335.28 344.907C336.864 344.636 351.409 344.515 345.862 344.745C343.604 344.839 339.467 344.799 342.081 345.119C345.973 345.073 350.389 345.026 354.485 344.98C354.613 345.049 354.732 345.118 354.859 345.186C360.38 345.142 355.359 344.867 355.37 344.719C356.632 344.715 357.908 344.711 359.171 344.707C359.706 344.774 360.215 344.844 360.776 344.908C360.827 344.802 361.535 344.556 365.299 344.647C367.719 344.707 363.907 344.975 368.522 344.937C368.177 344.772 366.51 344.57 371.65 344.517C372.161 344.69 372.867 344.848 373.262 345.03C379.654 344.864 382.563 345.13 390.066 344.937C394.827 344.815 401.347 344.382 404.423 345.05C407.905 345.067 406.799 344.901 407.83 344.864C412.692 344.687 416.309 345.003 417.215 345.022C422.993 345.141 425.584 345.032 430.292 345.181C430.037 345.058 429.898 344.941 429.694 344.82C425.38 345.005 423.196 344.996 417.147 344.957C419.175 344.932 421.205 344.906 423.233 344.882C422.902 344.781 422.573 344.681 422.254 344.581C403.545 344.976 407.909 344.352 423.594 344.215C424.946 344.401 426.348 344.586 427.688 344.772C436.748 344.491 441.012 344.735 451.259 344.794C452.477 344.8 456.914 344.693 458.821 344.688C458.789 344.687 458.758 344.687 458.726 344.686C459.912 344.511 458.305 344.43 458.114 344.273C459.147 344.253 460.182 344.234 461.215 344.214C463.523 344.334 462.712 344.432 467.254 344.403C466.641 344.284 466.037 344.165 465.425 344.046C470.402 344.042 473.659 344.172 478.291 344.116C477.513 344.161 476.744 344.206 475.966 344.251C486.047 344.366 478.024 345.065 485.643 344.717C486.128 344.778 486.6 344.84 487.085 344.901C483.946 344.916 480.805 344.93 477.679 344.945C477.616 345.032 477.547 345.118 477.496 345.204C480.852 345.178 484.225 345.152 487.581 345.126C485.131 345.184 482.666 345.242 480.216 345.3C484.108 345.341 488.001 345.382 491.893 345.424C487.76 345.106 493.118 345.067 492.11 344.753C499.002 345.015 504.415 345.36 515.097 345.139C517.214 345.095 516.064 344.875 522.074 345.142C520.619 344.793 528.149 344.629 527.181 344.296C525.089 344.312 522.919 344.322 520.891 344.342C523.201 344.457 523.583 344.775 520.075 344.869C515.595 344.989 509.062 344.769 509.33 345.121C507.544 345.105 505.882 345.095 504.148 345.081C504.862 344.993 505.561 344.906 506.263 344.818C501.326 344.955 498.224 344.911 495.851 344.69C501.733 344.64 507.603 344.589 513.485 344.539C512.618 344.524 511.74 344.509 510.873 344.495C515.327 344.27 510.733 344.056 519.041 344.008C518.99 344.111 518.949 344.214 518.898 344.318C521.923 344.042 530.204 344.044 527.562 343.727C530.063 343.824 530.573 343.886 531.989 343.715C538.587 343.956 542.825 344.26 540.477 344.623C542.926 344.565 545.378 344.506 547.815 344.448C546.398 344.349 544.98 344.25 543.564 344.15C547.827 344.157 552.12 344.163 556.37 344.168C556.778 344.462 548.166 344.258 550.65 344.52C551.148 344.573 553.441 344.46 554.044 344.49C560.399 344.811 550.423 344.579 552.296 344.825C558.952 344.879 557.186 345.098 560.078 345.104C561.312 345.088 563.388 345.094 567.223 344.405C567.578 344.434 567.96 344.456 568.292 344.481C572.761 343.553 572.355 343.419 576.027 342.103C578.301 341.233 581.248 340.2 583.451 338.588C583.773 338.217 579.966 340.578 587.703 335.123C593.311 330.372 591.167 332.54 594.013 329.723C596.978 326.903 601.197 318.713 602.386 316.267C601.574 318.214 600.392 320.631 599.163 322.618C598.762 323.481 598.343 324.315 597.893 325.146C600.823 320.647 603.024 315.486 603.746 311.948C605.309 307.339 605.573 302.013 605.354 299.84C605.268 298.812 605.157 298.462 605.039 299.151C605.046 299.456 605.055 299.678 605.065 299.84C605.113 300.919 605.281 299.379 605.09 302.187C604.988 302.516 604.881 302.86 604.772 303.184C604.864 301.967 604.898 300.848 604.902 299.84C604.917 296.302 604.96 294.41 605.163 296.369C605.169 295.514 605.175 294.667 605.181 293.812C604.993 293.659 604.804 293.523 604.615 293.37C604.594 292.349 604.573 291.324 604.552 290.303C604.593 289.168 604.635 288.03 604.677 286.882C604.975 288.426 604.985 291.057 605.152 282.353C605.049 282.327 604.946 282.29 604.843 282.265C604.974 274.978 605.224 274.786 605.214 265.637C605.572 272.656 604.938 276.496 605.655 276.47C605.608 278.232 605.56 280.007 605.513 281.768C605.617 282.036 605.721 282.302 605.825 282.557C605.771 273.101 605.087 257.394 605.54 251.063C605.485 250.298 605.437 249.529 605.377 248.751C605.651 242.549 605.036 239.87 605.39 233.579C605.427 232.93 606.005 234.288 605.984 226.098C605.909 226.302 605.783 226.408 605.688 226.574C605.734 224.801 605.782 223.037 605.829 221.276C605.76 220.957 605.691 220.623 605.621 220.304C605.594 223.328 605.567 226.344 605.54 229.369C605.516 226.856 605.492 224.327 605.468 221.814C605.355 225.092 605.354 226.571 605.172 224.595C605.162 221.749 605.15 218.899 605.139 216.053C605.093 215.76 605.046 215.469 604.999 215.176C604.86 216.554 604.725 217.946 604.584 219.324C604.697 211.91 604.704 205.464 604.976 199.773C605.022 198.803 605.203 202.233 605.04 195.624C605.136 195.522 605.213 195.345 605.302 195.23C605.034 187.139 605.114 184.481 605.307 176.045C605.127 181.507 605.244 176.634 605.147 175.243C605.081 174.289 605.091 178.01 605.021 177.589C604.951 177.168 604.671 172.334 604.638 176.467C605.212 186.6 604.526 189.36 604.801 202.377C604.727 200.374 604.653 198.355 604.579 196.352C604.529 197.295 604.484 198.14 604.43 199.161C604.543 191.9 604.47 195.431 604.381 192.448C604.293 189.462 604.217 184.035 604.193 180.397C604.185 179.252 604.314 180.46 604.326 177.874C604.334 176.114 604.144 171.301 604.369 170.19C604.515 169.462 604.918 177.194 604.917 166.504C605.061 164.492 605.016 169.617 605.034 169.727C605.204 170.659 605.333 164.087 605.202 161.05C605.191 160.804 605.058 163.202 605.006 160.594C604.881 154.404 605.034 150.83 605.24 146.823C604.998 146.389 604.709 141.18 604.798 134.697C604.729 134.365 604.659 134.049 604.589 133.718C604.626 134.724 604.662 135.731 604.699 136.737C604.655 137.835 604.624 138.998 604.572 140.07C604.513 133.55 604.179 132.628 604.057 129.501C603.64 118.803 604.522 125.287 604.674 127.216C604.613 128.607 604.544 129.952 604.479 131.331C604.564 131.178 604.649 131.022 604.734 130.882C604.731 114.866 605.281 128.443 605.438 120.314C605.023 118.221 604.983 112.25 605.246 104.645C605.244 103.803 605.244 102.957 605.241 102.115C605.181 101.975 605.088 101.977 605.048 101.748C604.978 92.5848 605.617 90.9526 605.677 90.0848C605.946 86.2311 605.574 83.2301 605.571 82.094C605.558 77.3085 605.723 75.9179 605.652 71.3625C605.576 66.4631 605.449 69.8132 605.336 68.3227C605.246 67.127 605.23 63.2616 605.137 61.6648C605.213 62.2992 605.288 63.0045 605.364 63.637C605.441 59.8737 605.517 56.6201 605.561 52.8402C605.576 51.4988 605.532 50.1019 605.4 48.5977C604.278 42.1252 603.005 36.656 603.06 39.0204C604.636 44.2704 604.802 47.387 604.81 50.2915C604.586 46.7264 603.936 43.1909 602.874 39.7905C602.647 38.7712 602.492 38.0437 602.135 36.8552C601.122 34.3692 598.237 28.8758 596.695 26.9768C589.318 18.3476 591.547 21.0415 583.447 14.6245C589.661 18.7454 589.881 18.6163 594.836 24.176C593.978 22.7939 591.275 20.0928 593.143 21.7234C587.932 16.6502 589.392 18.5385 587.128 16.8822C585.151 15.4727 580.92 13.0821 581.058 13.4128C580.67 13.0893 580.375 12.8248 579.975 12.5115C575.793 10.4436 571.286 9.03738 566.667 8.3616C568.654 8.54424 570.626 8.85789 572.584 9.30741C571.138 8.85008 569.666 8.46572 568.182 8.15702C565.768 7.79087 562.964 7.53181 560.078 7.54397C549.34 7.57719 537.525 7.33357 540.022 8.00054C534.484 8.02745 533.792 7.92147 530.78 7.7616C530.449 7.82575 530.126 7.8791 529.794 7.9505C526.222 7.88335 523.479 8.12418 520.328 8.06158C517.176 7.99945 516.394 7.77198 515.935 8.15434C513.893 8.04466 511.863 7.95355 509.834 7.85162C508.61 7.93849 507.387 8.02436 506.176 8.11071C504.262 8.06517 502.343 8.01983 500.429 7.9743C499.406 8.15682 491.88 8.07815 488.562 8.20073C485.412 8.00398 485.499 7.38449 478.089 7.4955C478.28 7.64915 478.469 7.80235 478.66 7.95599C476.963 7.92391 475.263 7.89194 473.553 7.85986C473.451 7.80972 473.362 7.75957 473.26 7.70942C474.128 7.72494 474.984 7.74038 475.851 7.75641C475.098 7.67155 474.361 7.58708 473.621 7.50222C471.031 7.62794 468.437 7.75367 465.834 7.87939C469.343 7.97458 472.853 8.06984 476.362 8.16502C471.959 8.27783 468.894 8.16531 465.066 8.29106C461.735 8.07893 462.965 7.9567 464.318 7.72651C463.08 7.74616 461.828 7.76514 460.591 7.78479C461.407 7.55457 459.314 7.41739 466.548 7.436C466.051 7.37033 465.543 7.30772 465.059 7.23947C463.872 7.24982 463.103 7.19431 461.801 7.21964C458.253 7.28898 455.533 7.69336 455.776 7.83515C455.907 7.90942 459.405 7.76738 459.265 7.87238C458.918 8.12841 450.894 8.01346 462.468 8.27061C458.626 8.43361 457.768 8.31068 453.532 8.26359C453.863 8.34891 454.185 8.43369 454.504 8.51901C452.54 8.4797 450.573 8.44053 448.608 8.40122C451.339 7.96295 436.854 7.79834 449.893 7.41494C446.04 7.39528 442.2 7.37552 438.359 7.35482C439.15 7.30981 439.942 7.26526 440.733 7.22025C442.468 7.24405 444.193 7.26746 445.929 7.29074C443.887 7.20849 441.842 7.12673 439.801 7.04448C434.977 7.14642 433.086 7.3032 430.879 7.49672C436.493 7.63795 434.658 7.44504 439.033 7.4067C438.88 7.52926 439.082 7.64199 438.699 7.77076C436.439 7.51689 429.066 7.70158 427.356 7.714C422.152 7.75171 426.233 7.50227 422.752 7.49703C419.268 7.49185 415.159 7.64032 412.313 7.39297C412.364 7.5316 412.592 7.67504 412.796 7.80127C407.372 7.84681 408.454 7.68303 407.892 7.66182C398.934 7.31306 394.073 7.6075 383.825 7.6432C385.126 7.68614 386.441 7.72491 387.756 7.76526C380.025 8.05962 385.233 7.96949 391.945 8.06676C385.653 8.03727 382.05 8.28795 377.609 8.36246C373.169 8.43685 365.553 8.3081 362.77 8.20775C369.138 8.0463 376.007 8.15277 383.077 8.10826C382.273 7.96704 381.492 7.84751 380.663 7.69233C376.362 7.98875 373.871 7.79055 372.454 7.75123C368.295 7.63589 368.426 7.8903 365.912 7.61665C366.014 7.71079 366.089 7.78994 366.191 7.87787C357.603 7.83854 348.339 7.67212 342.749 8.01977C342.239 7.79366 341.853 7.57582 341.266 7.34506C337.63 7.51526 334.516 7.34097 331.453 7.38076C328.403 7.42061 329.564 7.60334 325.979 7.67372C325.315 7.68665 323.933 7.57228 322.299 7.65663C320.65 7.74142 314.567 8.37188 313.839 7.82111C310.764 7.81852 307.854 7.79838 304.842 7.78907C307.777 7.75802 310.713 7.72795 313.635 7.69691C311.134 7.56342 308.649 7.43033 306.148 7.29684C305.829 7.41586 305.509 7.53703 305.203 7.65449C298.464 7.79938 293.575 7.60479 286.773 7.65083C285.637 7.65859 288.317 7.8939 283.277 7.83393C278.237 7.7739 274.496 7.33472 265.908 7.50435C265.474 7.51315 262.931 7.84951 259.856 7.61665C259.156 7.56388 262.102 7.48578 260.495 7.41647C258.887 7.34713 251.712 7.29011 251.151 7.12504C251.227 7.18349 251.675 7.24406 251.892 7.30356C250.667 7.33149 249.43 7.35945 248.193 7.38687C248.078 7.2839 247.954 7.18079 247.839 7.07835C240.795 7.31792 237.154 7.70873 226.716 7.57942C229.651 7.72895 232.587 7.87909 235.509 8.02862C236.313 7.92357 237.119 7.81782 237.91 7.71278C242.72 7.75468 247.544 7.79629 252.355 7.8382C253.146 7.71866 253.923 7.59947 254.714 7.47994C255.99 7.49546 257.254 7.5105 258.53 7.52602C258.211 7.61243 257.889 7.69838 257.557 7.78479C260.083 7.76358 262.613 7.74192 265.126 7.72071C260.009 8.23077 250.836 7.67733 251.498 8.10399C250.363 8.03779 249.226 7.97113 248.091 7.90442C247.593 8.1113 245.284 8.05176 241.215 8.01916C242.147 8.1211 243.176 8.22165 244.031 8.32462C240.074 8.18079 233.057 8.19476 228.96 8.13939C227.161 8.11507 228.958 7.96508 228.423 7.94745C225.679 7.85534 220.435 8.11706 219.337 8.09636C212.778 7.97319 208.516 7.47699 201.357 7.80402C208.746 7.88474 204.726 7.85065 207.355 8.03228C208.178 8.08923 217.724 8.20802 205.77 8.15526C204.369 8.14866 182.679 7.80582 189.809 7.54311C186.299 7.62694 183.552 7.72387 180.336 7.81287C172.474 7.1205 175.195 7.77093 177.479 8.12902C176.19 8.13057 174.964 8.1342 173.637 8.1342C176.457 7.75801 162.089 7.73465 157.213 7.92456C155.58 7.98769 160.147 8.1081 156.37 8.16502C154.572 8.13864 152.531 8.10448 150.63 8.075C153.387 8.31302 147.977 8.40474 148.053 8.64687C144.595 8.43111 141.95 7.97378 143.85 7.7259C140.992 7.82627 138.119 7.92651 135.261 8.0274C136.588 8.08483 137.933 8.14177 139.26 8.1992C129.918 8.04707 117.906 8.39325 115.954 7.88458C114.716 7.8882 113.465 7.89134 112.227 7.89496C111.844 7.98086 111.474 8.06692 111.091 8.15282C105.49 8.07832 99.9017 8.00333 94.3006 7.92883C99.2879 7.87552 100.475 7.75326 105.705 7.85254C103.69 7.75375 101.637 7.65441 99.6595 7.55562C91.7855 7.82159 90.7114 7.99639 78.8563 7.91723C78.3203 7.91361 69.3628 7.69057 69.0565 7.66883C67.6533 7.56949 69.7833 7.42517 69.1585 7.37496C67.4229 7.23421 56.8764 6.8808 57.0806 6.82751C59.6585 6.17343 95.1426 6.16476 104.74 6.13113C204.281 5.78238 301.631 6.24896 400.548 6.16927C401.565 6.16804 401.121 6.07149 401.554 6.06735C404.247 6.0431 406.89 6.19358 407.886 6.19979C410.012 6.21259 408.841 6.07355 410.395 6.07345C426.45 6.07501 441.599 6.15676 457.667 6.13296C458.713 6.13141 457.645 6.24265 459.482 6.22298C460.431 6.21222 463.401 6.04155 465.542 6.03897C473.02 6.03018 479.301 6.08489 487.188 6.0823C491.502 6.08076 497.973 6.09527 502.796 6.09268C504.926 6.09158 507.145 6.0135 509.249 6.0109C512.236 6.00727 511.626 6.16555 512.085 6.17538C514.102 6.21832 514.381 6.0446 516.295 6.04874C519.855 6.05702 520.047 6.173 524.565 6.16317C527.793 6.15593 535.183 6.06435 539.254 6.03744C545.643 6.12773 553.148 6.13337 560.078 6.11386C563.604 6.10129 566.985 6.49279 569.956 7.11959C575.286 8.35525 575.652 8.89196 577.729 9.66651C584.927 12.7065 590 16.1684 594.993 21.6046C601.499 28.9434 605.109 37.307 606.383 46.6704C606.569 48.1951 606.68 47.8301 606.809 49.3337C606.895 50.4535 606.944 51.6206 606.948 52.8402C606.961 57.5045 606.975 62.6699 606.958 66.5001C606.935 71.8335 606.719 73.8009 606.763 79.0201C606.776 80.5502 606.965 80.9987 606.99 83.5629C607.028 87.6589 606.861 92.1501 606.842 95.0084C606.817 98.9263 607.01 95.5192 606.984 100.803C606.983 101.02 606.845 101.81 606.852 102.945C606.871 106.25 606.979 105.922 606.969 110.759C606.967 111.223 606.836 117.636 606.836 118.273C606.833 122.025 606.787 129.579 606.815 131.8C606.915 139.738 607.122 133.489 606.672 140.24C606.782 143.212 606.894 146.16 607.001 149.312C606.901 147.209 606.757 155.744 606.766 156.344C606.841 161.305 607.016 158.35 606.987 164.64C606.583 156.332 606.935 172.756 606.946 176.419C606.996 194.055 606.895 210.086 606.897 227.812C606.899 233.746 606.984 241.698 606.982 247.976C606.982 249.439 606.886 248.333 606.884 249.621C606.883 250.906 606.99 249.481 606.984 250.948C606.947 260.072 606.744 267.221 606.998 275.579C606.961 275.986 606.932 275.973 606.892 276.647C607.096 282.784 606.871 294.019 606.792 299.84C606.783 300.536 606.761 301.154 606.736 301.68C606.125 309.676 605.511 311.735 603.497 317.207C600.878 324.632 592.675 333.082 596.457 329.45C593.104 333.577 589.2 337.017 584.605 339.798C584.092 340.106 584.378 339.783 584.173 339.905C582.868 340.662 582.483 340.99 581.58 341.469C579.105 342.721 583.105 340.608 579.567 342.359C577.661 343.182 576.672 343.966 571.057 345.429C567.496 346.286 563.8 346.725 560.078 346.725C529.564 346.726 497.16 346.697 466.383 346.682C464.022 346.681 465.577 346.802 462.616 346.795C452.33 346.768 433.919 346.563 425.049 346.591C416.18 346.619 418.181 346.797 412.631 346.871C411.559 346.886 412.438 346.784 411.468 346.783C404.947 346.773 397.172 346.615 391.889 346.591C388.395 346.575 388.675 346.735 386.251 346.746C382.64 346.763 378.923 346.602 376.996 346.597C367.936 346.574 361.708 346.704 353.248 346.637C353.579 346.673 353.797 346.705 354.077 346.74C344.06 346.734 334.056 346.728 324.039 346.723C324.511 346.755 324.968 346.787 325.44 346.82C313.687 346.802 315.028 346.454 316.062 347.189C315.207 347.214 314.301 347.244 313.484 347.268C313.816 346.89 306.706 346.613 297.659 346.517C296.996 346.51 292.543 346.878 293.028 346.443C291.867 346.549 291.175 346.623 290.192 346.717C288.278 346.585 286.339 346.454 284.425 346.323C283.392 346.343 282.344 346.361 281.31 346.381C281.157 346.467 281.275 346.555 280.943 346.639C276.145 346.652 266.305 346.546 262.513 346.557C253.095 346.585 243.507 346.815 236.181 346.566C232.613 346.591 236.156 346.759 230.85 346.738C230.25 346.653 229.686 346.572 229.061 346.484C224.724 346.863 223.818 346.633 217.874 346.554C213.854 346.5 211.222 346.592 207.394 346.574C206.424 346.57 206.561 346.458 205.898 346.462C203.675 346.473 197.334 346.627 195.765 346.631C181.549 346.671 169.337 346.654 155.797 346.613C154.343 346.609 156.229 346.719 154.723 346.714C152.3 346.707 153.726 346.538 152.322 346.53C148.407 346.508 148.378 346.686 142.917 346.695C124.936 346.725 104.263 346.592 85.4787 346.58C84.8916 346.58 84.9266 346.684 84.2885 346.685C80.1293 346.69 75.9191 346.549 72.1426 346.551C66.6037 346.553 62.2814 346.667 57.0777 346.694C56.3628 346.697 55.6354 346.683 54.8918 346.649C42.3251 345.986 31.2581 340.818 22.4891 331.335C15.4839 323.459 11.3009 314.58 10.3943 303.004C10.3237 301.944 10.289 300.904 10.2886 299.84C10.2774 252.039 9.96374 203.315 10.136 155.228C10.1407 153.979 10.2328 154.487 10.2288 154.106C10.1889 150.482 10.0647 150.159 10.3249 148.87C10.2736 144.253 10.0781 142.796 10.0921 137.22C10.0994 134.248 10.4024 136.467 10.2462 131.44C10.1049 126.9 9.93886 131.91 10.1086 118.41C10.1132 118.052 10.2979 116.293 10.2498 113.486C10.2022 110.666 10.07 113.93 10.0301 107.141C9.93757 91.3002 10.0947 71.2755 10.0484 52.8402C10.0481 52.7202 10.0483 52.6003 10.0489 52.4807C9.69544 51.2475 11.3404 39.6232 12.45 37.5024C13.9568 33.2889 13.3553 34.0244 16.1299 28.8772C18.4294 24.9854 20.8192 22.0653 24.6215 18.3797C25.0846 17.9758 25.6561 17.0507 28.8581 14.6517ZM604.452 293.826C604.295 292.779 603.717 290.891 603.893 284.563C603.91 283.963 604.307 287.201 604.37 283.706C604.412 287.126 604.426 290.457 604.453 293.826C604.452 293.826 604.452 293.826 604.452 293.826ZM55.8957 9.05799C51.2917 9.148 46.6739 9.97179 42.3185 11.499C45.2943 10.3616 48.4076 9.55093 51.5632 9.08712C53.018 9.00534 54.4584 8.99729 55.8957 9.05799ZM259.297 343.912C259.292 343.912 259.288 343.912 259.283 343.912C264.26 343.838 269.24 343.763 274.217 343.689C273.694 343.744 273.17 343.799 272.646 343.854C268.717 343.94 264.785 344.026 260.868 344.113C260.344 344.046 259.82 343.979 259.297 343.912ZM219.975 344.493C216.798 344.428 217.575 344.318 215.827 344.211C215.827 344.211 215.827 344.211 215.827 344.211C215.365 344.184 213.216 344.159 212.386 344.155C212.692 344.224 213.088 344.292 213.419 344.36C206.005 344.527 191.505 343.935 210.278 343.696C209.997 343.783 209.729 343.869 209.448 343.956C218.777 343.932 229.177 344.121 219.975 344.493ZM604.202 218.814C603.917 210.851 603.857 208.298 604.052 198.637C604.133 200.001 604.214 201.366 604.294 202.731C604.212 204.326 604.13 205.91 604.048 207.505C604.048 207.509 604.048 207.514 604.048 207.519C604.134 207.838 604.221 208.158 604.307 208.464C604.272 211.909 604.237 215.369 604.202 218.814ZM12.6304 228.594C13.1988 226.374 12.8684 227.015 12.9966 233.354C13.0411 235.549 13.1406 233.41 13.1571 234.776C13.2476 242.15 12.8667 242.739 12.6686 241.093C12.6551 236.92 12.6428 232.704 12.6304 228.607C12.6304 228.603 12.6304 228.598 12.6304 228.594ZM15.1416 37.7231C15.1431 37.7189 15.1446 37.7147 15.1461 37.7105C15.3359 37.5809 14.4007 40.3508 15.6293 37.2874C14.7475 39.635 14.0661 42.0577 13.5953 44.5351C13.7196 43.8103 13.8685 43.0629 14.0303 42.343C13.8302 42.9646 13.6414 43.5999 13.469 44.2314C13.4665 45.1395 13.1782 45.928 12.853 48.5581C13.0919 47.8478 13.3483 47.1458 13.6203 46.4585C13.2781 48.5636 13.089 50.6936 13.0534 52.8402C13.0382 53.7716 13.023 54.7026 13.0079 55.6327C12.965 55.6709 12.922 55.7101 12.8791 55.7483C12.9339 56.922 12.9894 58.0837 13.0442 59.2574C12.993 59.5764 12.9422 59.8837 12.891 60.2027C12.9298 61.6188 12.9686 63.0371 13.0079 64.4531C12.8838 64.8841 12.8302 61.7632 12.8617 67.2958C12.7344 65.5987 12.6075 63.9051 12.4803 62.1953C12.4842 59.0771 12.4881 55.9586 12.4921 52.8402C12.4962 47.6908 13.3893 42.5565 15.1416 37.7231ZM12.8053 286.27C12.7815 277.12 12.8714 279.697 13.1528 281.816C13.037 283.296 12.9211 284.79 12.8053 286.27ZM444.227 344.363C446.881 344.171 449.547 343.981 452.265 343.796C457.676 343.689 463.089 344.039 459.018 344.176C454.118 344.34 449 344.156 444.227 344.363ZM567.347 343.686C560.852 344.426 566.944 343.513 568.335 343.054C570.129 342.915 572.607 342.394 576.37 340.949C572.877 342.411 568.423 343.558 567.347 343.687C567.347 343.686 567.347 343.686 567.347 343.686ZM337.688 344.147C335.035 344.153 332.396 344.207 330.023 344.142C330.739 343.958 335.485 344.125 332.091 343.853C333.788 343.848 335.487 343.844 337.171 343.839C336.101 343.951 337.54 344.036 337.681 344.147C337.683 344.147 337.686 344.147 337.688 344.147ZM61.4723 343.896C66.6792 344.114 67.6659 344.021 72.911 343.87C73.6501 344.047 67.3962 344.343 63.4785 344.409C62.8149 344.238 62.1487 344.067 61.4723 343.896ZM215.481 8.69356C216.732 8.46801 225.955 8.4386 230.538 8.50528C229.992 8.53873 229.445 8.57263 228.899 8.60659C224.433 8.63557 219.948 8.66459 215.481 8.69356ZM578.142 340.217C577.523 340.487 576.932 340.73 576.37 340.949C576.992 340.699 577.589 340.449 578.142 340.217ZM605.279 74.3752C605.492 76.5567 605.563 70.0724 605.48 77.9456C605.48 77.9456 605.48 77.9456 605.48 77.9456C605.425 83.1524 605.411 84.3019 605.394 89.1259C605.121 87.3893 605.023 77.6028 604.967 91.0913C604.967 91.2689 605.129 90.9152 605.107 93.0703C605.1 93.7354 604.967 95.8645 604.928 99.1024C604.916 100.149 604.874 108.013 604.872 97.2935C604.681 97.6125 604.489 97.0367 604.304 97.0622C604.25 92.878 604.623 89.6622 604.614 85.2359C604.599 78.6635 604.222 75.319 604.717 74.0556C604.839 79.5819 604.842 89.0715 604.544 90.3092C604.54 95.6556 604.784 97.1909 604.905 92.8798C604.752 74.4134 605.267 87.8105 605.072 71.6414C605.003 71.45 604.929 70.785 604.865 70.8865C605.107 65.951 605.203 73.5968 605.279 74.3752ZM604.753 112.989C604.607 109.799 604.461 106.619 604.315 103.441C604.552 103.441 604.765 105.193 604.898 110.222C604.849 111.14 604.801 112.071 604.753 112.989ZM422.534 8.22728C422.075 8.35612 420.85 8.47419 419.957 8.59683C418.987 8.48816 396.015 8.38392 407.702 8.27732C409.399 8.2618 419.752 8.48963 422.534 8.22728ZM28.3785 333.523C30.3469 335.315 32.4736 336.929 34.7325 338.343C31.1614 336.33 27.8589 333.814 24.9583 330.894C26.063 331.832 27.1996 332.704 28.3785 333.523ZM488.268 344.589C487.125 344.584 490.921 344.407 486.418 344.435C489.775 344.322 492.918 344.226 496.198 344.119C497.18 344.203 498.173 344.287 499.156 344.37C499.922 344.317 500.702 344.263 501.468 344.209C501.009 344.331 500.6 344.451 500.115 344.575C494.589 344.313 493.322 344.61 488.268 344.589ZM323.957 345.067C322.964 344.801 330.965 344.644 323.094 344.601C324.587 344.427 326.988 344.335 331.594 344.32C332.334 344.386 333.072 344.453 333.811 344.519C333.914 344.341 335.099 344.275 337.688 344.147C337.69 344.148 337.692 344.148 337.695 344.148C344.698 344.135 344.28 344.195 345.964 344.488C338.55 344.322 338.328 344.59 333.274 344.75C329.803 344.859 325.272 344.81 323.957 345.067ZM447.01 8.22423C441.767 8.44827 446.472 8.65724 437.169 8.41922C437.769 8.3623 438.372 8.30586 438.971 8.24894C441.651 8.24015 444.33 8.23199 447.01 8.22423ZM298.081 344.157C298.681 344.568 303.617 344.888 304.46 344.219C299.649 344.083 301.998 344.462 298.081 344.157ZM565.211 344.632C562.823 344.893 561.158 344.877 560.078 344.828C557.577 344.705 558.23 344.484 560.078 344.314C560.498 344.275 560.979 344.232 561.494 344.184C562.074 344.25 562.657 344.305 563.233 344.349C564.831 344.199 566.42 343.964 567.995 343.642C567.082 344.001 566.158 344.331 565.211 344.632ZM134.981 344.608C142.051 344.315 127.349 344.445 132.288 344.262C136.231 344.116 141.428 344.411 139.462 344.597C138.097 344.602 136.577 344.605 134.994 344.608C134.99 344.608 134.985 344.608 134.981 344.608ZM175.893 344.525C174.732 344.211 176.406 344.302 170.82 344.359C169.225 344.375 156.549 344.257 161.87 344.517C166.4 344.517 171.185 344.521 175.893 344.525ZM604.7 258.455C604.836 258.37 605.136 268.131 605.061 269.384C605.061 269.384 605.061 269.384 605.062 269.384C604.857 272.766 604.828 262.47 604.548 266.936C604.795 257.046 604.198 254.087 604.984 254.776C605.019 260.602 604.857 257.844 604.7 258.455ZM94.3754 8.05089C94.3708 8.05089 94.3663 8.05089 94.3618 8.05089C95.0172 8.05731 100.418 8.25767 99.7615 8.32707C93.2664 8.26756 94.4239 8.13568 88.3772 8.35239C88.0457 8.28259 87.7617 8.21489 87.4047 8.14458C89.8039 8.10318 91.1338 8.01933 94.3754 8.05089ZM397.698 7.95202C400.085 7.91632 404.44 8.06427 407.158 8.05547C398.506 8.62364 388.166 8.09382 397.698 7.95202ZM12.5318 126.754C12.532 126.761 12.5322 126.768 12.5325 126.774C12.5321 126.772 12.5318 126.77 12.5315 126.768C12.5316 126.763 12.5317 126.759 12.5318 126.754ZM581.481 13.7622C581.231 13.583 581.095 13.4744 581.054 13.4203C581.055 13.418 581.056 13.4157 581.057 13.4133C581.186 13.5214 581.324 13.6353 581.481 13.7622ZM604.659 238.169C604.849 234.104 605.152 247.649 605.079 252.029C604.992 251.723 604.914 251.675 604.814 250.961C605.039 247.426 604.626 238.845 604.659 238.169ZM383.619 344.491C394.327 344.496 380.392 345.248 379.818 344.648C379.839 344.637 383.343 344.492 383.619 344.491ZM599.151 321.485C597.925 323.906 601.042 319.414 596.115 326.641C595.764 327.015 595.406 327.381 595.044 327.74C596.585 325.773 597.961 323.677 599.151 321.485ZM453.761 345.478C467.237 345.351 480.126 345.127 471.348 344.5C470.328 344.52 469.294 344.539 468.274 344.56C468.121 344.866 464.357 344.699 458.848 344.689C458.063 344.81 455.008 344.838 454.435 344.942C453.326 345.141 456.837 345.282 453.761 345.478ZM11.9383 198.276C11.9906 198.493 12.0431 198.706 12.0948 198.923C12.1538 201.054 12.2125 203.191 12.2715 205.322C12.1712 204.978 12.0709 204.633 11.9706 204.288C11.9598 202.286 11.9489 200.293 11.938 198.29C11.9381 198.286 11.9382 198.281 11.9383 198.276ZM605.399 126.121C604.824 124.897 604.93 129.175 605.22 137.853C605.28 133.948 605.339 130.026 605.399 126.121ZM237.215 345.245C236.934 345.081 236.658 344.918 236.365 344.755C231.758 344.925 232.613 345.112 234.821 345.329C235.624 345.301 236.412 345.273 237.215 345.245ZM170.854 345.314C172.765 345.348 171.79 345.216 171.99 345.219C176.827 345.288 177.508 345.349 183.442 345.25C184.169 345.215 184.884 345.178 185.612 345.143C182.868 344.8 180.876 344.987 175.071 344.786C176.117 344.903 177.159 345.021 178.206 345.139C174.978 345.114 171.763 345.09 168.535 345.065C168.152 345.101 167.769 345.137 167.386 345.173C168.534 345.22 169.719 345.272 170.854 345.314ZM12.0869 173.631C12.1004 170.492 12.1144 167.338 12.1278 164.198C12.0435 164.084 11.9586 163.973 11.8742 163.858C11.9451 167.112 12.016 170.377 12.0869 173.631ZM605.137 61.6648C605.107 61.4159 605.077 61.1732 605.046 60.9575C605.083 60.9786 605.112 61.2505 605.137 61.6648ZM86.0922 7.58827C82.5322 7.52929 77.4022 7.56802 73.4973 7.55562C73.8043 7.7672 83.7292 7.70872 87.2143 7.83698C87.7743 7.79901 87.597 7.61309 86.0922 7.58827ZM552.412 344.902C551.519 345.008 550.626 345.113 549.746 345.218C547.589 345.207 545.428 345.195 543.258 345.184C543.194 345.27 543.132 345.357 543.068 345.444C552.625 345.331 550.421 345.581 555.152 345.826C554.234 345.519 553.331 345.211 552.412 344.902ZM11.5388 73.7428C11.5973 80.6468 11.7065 83.0958 11.9658 79.2038C11.9063 76.7671 11.8467 74.3161 11.7872 71.8794C11.7045 72.5046 11.6216 73.1304 11.5388 73.7428ZM513.854 7.58583C508.076 7.6827 507.98 7.33478 502.333 7.52907C505.357 7.59322 508.381 7.65809 511.392 7.72224C512.205 7.67688 513.04 7.63119 513.854 7.58583ZM606.287 219.284C606.409 216.846 605.833 212.29 606.258 205.438C606.131 203.805 606.01 202.781 605.886 201.378C606.021 200.561 606.158 199.633 606.292 198.854C606.292 198.85 606.292 198.845 606.292 198.841C606.246 192.626 606.077 196.655 605.933 196.515C605.874 196.449 605.973 191.837 605.844 193.278C605.622 195.767 605.75 205.065 605.479 205.091C605.568 201.824 605.494 195.444 605.313 197.331C605.115 199.398 605.447 205.41 605.283 209.239C605.715 203.753 605.582 215.084 605.249 216.373C605.504 223.022 605.608 216.911 605.597 210.096C605.851 214.256 605.714 208.132 605.925 207.124C606.053 211.414 605.947 226.136 606.287 219.284ZM397.636 345.581C402.231 345.565 409.41 345.71 412.556 345.495C414.389 345.37 407.193 345.273 412.155 345.077C407.678 345.096 406.656 345.173 407.422 345.345C406.401 345.366 405.368 345.386 404.348 345.406C403.876 345.372 403.392 345.339 402.92 345.305C402.384 345.376 401.845 345.447 401.322 345.518C400.238 345.504 399.141 345.49 398.057 345.475C397.93 345.511 397.713 345.542 397.636 345.581ZM347.965 7.59651C349.241 7.59444 350.504 7.59238 351.78 7.5898C351.64 7.54784 351.472 7.50414 351.311 7.46102C351.195 7.42694 351.08 7.39287 350.964 7.35879C351.704 7.48054 357.782 7.68289 360.342 7.55287C361.63 7.48765 358.7 7.25609 364.157 7.21567C360.202 7.22758 356.539 7.25918 352.698 7.27884C353.043 7.21002 353.374 7.14046 353.718 7.07163C353.716 7.07153 353.714 7.07143 353.712 7.07133C352.436 7.05581 351.145 7.03955 349.869 7.02403C349.231 7.21497 348.603 7.40557 347.965 7.59651ZM240.955 345.568C245.307 345.433 246.764 345.363 244.709 345.144C244.705 345.144 244.7 345.144 244.696 345.144C243.075 345.241 241.454 345.337 239.833 345.434C240.203 345.479 240.572 345.523 240.955 345.568ZM596.885 25.6138C593.644 22.1863 595.516 24.4683 597.6 27.3742C599.702 30.2792 601.669 34.093 600.917 32.2165C600.945 31.9923 597.446 26.3039 596.885 25.6138ZM566.937 344.661C564.675 345.01 562.383 345.188 560.078 345.194C559.81 345.194 559.542 345.195 559.274 345.196C559.54 345.242 559.809 345.288 560.078 345.334C560.408 345.39 560.739 345.442 561.066 345.491C563.037 345.341 565.014 345.062 566.937 344.661ZM11.1623 103.802C10.9346 106.475 10.8521 113.336 11.0997 116.689C11.1287 114.928 11.1577 113.166 11.1867 111.405C11.2151 114.734 11.2465 118.026 11.2734 121.381C11.5906 121.56 11.4065 117.694 11.494 111.874C11.5081 110.973 11.9018 105.213 11.6051 103.224C11.5441 102.823 11.5026 108.951 11.3252 104.693C11.3113 106.555 11.3144 108.162 11.3066 109.922C11.2311 110.05 11.1554 110.176 11.0799 110.317C11.1072 108.14 11.1349 105.978 11.1623 103.802ZM424.389 345.556C430.702 345.574 431.481 345.447 432.795 345.223C429.86 345.248 426.923 345.273 423.988 345.299C424.128 345.384 424.25 345.47 424.389 345.556ZM11.0897 160.22C11.053 163.676 11.2353 162.196 11.27 163.586C11.4004 168.844 11.2701 172.43 11.3518 177.623C11.3166 177.278 11.2837 176.962 11.2496 176.63C11.2496 176.635 11.2496 176.639 11.2496 176.644C11.0959 201.234 11.5094 188.318 11.4421 173.604C11.5099 173.259 11.5778 172.928 11.645 172.584C11.5266 165.999 11.4125 159.926 11.0897 160.22ZM605.886 106.379C605.928 106.098 606.198 108.485 606.072 104.006C605.678 100.459 605.873 106.276 605.722 107.732C605.684 106.52 605.647 105.28 605.61 104.081C605.498 111.329 605.592 112.387 605.88 109.745C605.899 109.557 605.844 106.66 605.886 106.379ZM606.08 58.7405C605.5 57.7451 605.761 66.8931 605.941 66.5613C605.948 65.2985 605.85 64.3168 605.893 62.9773C605.937 61.6248 606.072 61.279 606.08 58.7405ZM601.047 320.469C601.191 320.238 602.557 317.838 602.26 318.005C600.64 321.014 597.119 326.814 597.879 325.905C599.147 324.029 599.877 322.701 601.048 320.47C601.048 320.47 601.047 320.469 601.047 320.469ZM11.0256 62.1681C11.0094 62.2956 10.9114 69.0131 11.0024 69.88C11.1048 70.5945 11.2146 70.9491 11.3207 71.485C11.2223 67.7841 11.2972 60.2929 11.0256 62.1817C11.0256 62.1772 11.0256 62.1726 11.0256 62.1681Z" fill="black"/>
</g>
<defs>
<filter id="filter0_d_213_30" x="0" y="0" width="617.001" height="361.268" filterUnits="userSpaceOnUse" color-interpolation-filters="sRGB">
<feFlood flood-opacity="0" result="BackgroundImageFix"/>
<feColorMatrix in="SourceAlpha" type="matrix" values="0 0 0 0 0 0 0 0 0 0 0 0 0 0 0 0 0 0 127 0" result="hardAlpha"/>
<feOffset dy="4"/>
<feGaussianBlur stdDeviation="5"/>
<feComposite in2="hardAlpha" operator="out"/>
<feColorMatrix type="matrix" values="0 0 0 0 0 0 0 0 0 0 0 0 0 0 0 0 0 0 0.25 0"/>
<feBlend mode="normal" in2="BackgroundImageFix" result="effect1_dropShadow_213_30"/>
<feBlend mode="normal" in="SourceGraphic" in2="effect1_dropShadow_213_30" result="shape"/>
</filter>
</defs>
</svg>
