<svg preserveAspectRatio="none" width="100%" height="100%" overflow="visible" style="display: block;" viewBox="0 0 50 50" fill="none" xmlns="http://www.w3.org/2000/svg">
<g id="logos:html-5">
<path id="Vector" d="M42.6669 9.80139L39.4479 45.8623L24.9784 49.8737L10.5488 45.8679L7.3331 9.80139H42.6669Z" fill="var(--fill-0, #FFCC00)"/>
<path id="Vector_2" d="M25 46.8075L36.6921 43.5661L39.4428 12.7503H25V46.8075Z" fill="var(--fill-0, #FFCC00)"/>
<path id="Vector_3" d="M18.7424 21.5972H25V17.1738H13.9082L14.014 18.3605L15.1012 30.5503H25V26.1269H19.1467L18.7424 21.5972ZM19.7393 32.762H15.2989L15.9186 39.7075L24.9796 42.2227L25 42.2172V37.615L24.9806 37.6201L20.0543 36.2899L19.7393 32.762Z" fill="var(--fill-0, #E9E9E9)"/>
<path id="Vector_4" d="M10.6205 3.07336e-07H12.8684V2.22091H14.9248V3.07336e-07H17.1729V6.72549H14.9249V4.47341H12.8686V6.72549H10.6206L10.6205 3.07336e-07ZM20.1288 2.23033H18.1501V3.07336e-07H24.3571V2.23033H22.3771V6.72549H20.1292V2.23033H20.1288ZM25.3421 3.07336e-07H27.686L29.1278 2.36316L30.5683 3.07336e-07H32.9132V6.72549H30.6744V3.39197L29.1278 5.78324H29.0891L27.5416 3.39197V6.72549H25.3421V3.07336e-07ZM34.0319 3.07336e-07H36.2805V4.50249H39.4417V6.72549H34.0317L34.0319 3.07336e-07Z" fill="var(--fill-0, #FFCC00)"/>
<path id="Vector_5" d="M24.9848 30.5503H30.4317L29.9181 36.2871L24.9846 37.6187V42.2206L34.0529 39.7075L34.1194 38.9601L35.159 27.3147L35.2669 26.1269H24.9848V30.5503ZM24.9848 21.5864V21.5972H35.6694L35.758 20.603L35.9597 18.3605L36.0654 17.1738H24.9848V21.5864Z" fill="var(--fill-0, white)"/>
</g>
</svg>
