<svg preserveAspectRatio="none" width="100%" height="100%" overflow="visible" style="display: block;" viewBox="0 0 45 45" fill="none" xmlns="http://www.w3.org/2000/svg">
<g id="logos:c-plusplus" clip-path="url(#clip0_148_282)">
<path id="Vector" d="M42.498 13.2172C42.4977 12.4614 42.3359 11.7934 42.0089 11.2202C41.688 10.6564 41.2069 10.1839 40.5619 9.81031C35.2369 6.73984 29.9064 3.67875 24.5831 0.605157C23.148 -0.223437 21.7566 -0.193281 20.3319 0.647344C18.2123 1.89734 7.60062 7.97703 4.43828 9.80859C3.13609 10.5625 2.50234 11.7163 2.50203 13.2156C2.5 19.3908 2.50203 25.5656 2.5 31.7408C2.5 32.4798 2.65516 33.135 2.96766 33.6997C3.28891 34.2805 3.77656 34.7659 4.43656 35.148C7.59906 36.9795 18.2122 43.0589 20.3312 44.3091C21.7564 45.15 23.148 45.1802 24.5836 44.3512C29.907 41.2775 35.2377 38.2166 40.5636 35.1461C41.2236 34.7642 41.7112 34.2784 42.0325 33.6981C42.3445 33.1334 42.5 32.4784 42.5 31.7389C42.5 31.7389 42.5 19.3923 42.498 13.2172Z" fill="var(--fill-0, #00FFB2)"/>
<path id="Vector_2" d="M22.5613 22.4181L2.9675 33.6997C3.28891 34.2805 3.77656 34.7659 4.43656 35.148C7.59906 36.9795 18.2122 43.0589 20.3313 44.3091C21.7564 45.15 23.148 45.1802 24.5836 44.3512C29.907 41.2775 35.2377 38.2166 40.5636 35.1461C41.2236 34.7642 41.7113 34.2784 42.0325 33.6981L22.5613 22.4181Z" fill="var(--fill-0, #00FFB2)"/>
<path id="Vector_3" d="M16.7578 25.7598C17.898 27.7502 20.0413 29.0927 22.5 29.0927C24.9739 29.0927 27.1294 27.7333 28.2638 25.7214L22.5613 22.4181L16.7578 25.7598Z" fill="var(--fill-0, #00FFB2)"/>
<path id="Vector_4" d="M42.498 13.2172C42.4977 12.4614 42.3359 11.7934 42.0089 11.2202L22.5613 22.4181L42.0325 33.6981C42.3445 33.1334 42.4997 32.4784 42.5 31.7389C42.5 31.7389 42.5 19.3923 42.498 13.2172Z" fill="var(--fill-0, #00FFB2)"/>
<path id="Vector_5" d="M41.4273 23.2244H39.9058V24.7463H38.3839V23.2244H36.8625V21.7031H38.3839V20.1816H39.9058V21.7031H41.4273V23.2244ZM22.5 9.19484C27.3648 9.19484 31.6184 11.8105 33.9328 15.7119L34.0022 15.8305L28.2208 19.1597C27.075 17.1895 24.943 15.8637 22.5 15.8637C18.8469 15.8637 15.8855 18.8252 15.8855 22.4781C15.8842 23.6295 16.185 24.7611 16.7578 25.7598C17.898 27.7502 20.0412 29.0927 22.5 29.0927C24.9467 29.0927 27.082 27.763 28.2261 25.7875L28.2638 25.7214L34.0367 29.0661C31.7477 33.0656 27.4386 35.7616 22.5 35.7616C17.5705 35.7616 13.2681 33.0764 10.9759 29.0886C9.85687 27.1419 9.21656 24.8848 9.21656 22.4781C9.21656 15.1422 15.1636 9.19484 22.5 9.19484ZM34.3539 20.1814V21.703H35.8753V23.2244H34.3539V24.7463H32.8323V23.2244H31.3108V21.7031H32.8323V20.1816L34.3539 20.1814Z" fill="var(--fill-0, white)"/>
</g>
<defs>
<clipPath id="clip0_148_282">
<rect width="45" height="45" fill="white"/>
</clipPath>
</defs>
</svg>
