<svg preserveAspectRatio="none" width="100%" height="100%" overflow="visible" style="display: block;" viewBox="0 0 40.3125 36.5625" fill="none" xmlns="http://www.w3.org/2000/svg">
<g id="Group">
<path id="Vector" d="M10.7813 36.5625C9.41373 36.5625 8.10221 36.0193 7.13523 35.0523C6.16825 34.0853 5.625 32.7738 5.625 31.4063V23.9063C5.625 22.5387 6.16825 21.2272 7.13523 20.2602C8.10221 19.2932 9.41373 18.75 10.7813 18.75C12.1488 18.75 13.4603 19.2932 14.4273 20.2602C15.3943 21.2272 15.9375 22.5387 15.9375 23.9063V31.4063C15.9375 32.7738 15.3943 34.0853 14.4273 35.0523C13.4603 36.0193 12.1488 36.5625 10.7813 36.5625ZM10.7813 21.5625C10.1596 21.5625 9.56351 21.8094 9.12397 22.249C8.68443 22.6885 8.4375 23.2847 8.4375 23.9063V31.4063C8.4375 32.0279 8.68443 32.624 9.12397 33.0635C9.56351 33.5031 10.1596 33.75 10.7813 33.75C11.4029 33.75 11.999 33.5031 12.4385 33.0635C12.8781 32.624 13.125 32.0279 13.125 31.4063V23.9063C13.125 23.2847 12.8781 22.6885 12.4385 22.249C11.999 21.8094 11.4029 21.5625 10.7813 21.5625V21.5625Z" fill="var(--fill-0, #2D2D2D)"/>
<path id="Vector_2" d="M29.5312 36.5625C28.1637 36.5625 26.8522 36.0193 25.8852 35.0523C24.9182 34.0853 24.375 32.7738 24.375 31.4063V23.9063C24.375 22.5387 24.9182 21.2272 25.8852 20.2602C26.8522 19.2932 28.1637 18.75 29.5312 18.75C30.8988 18.75 32.2103 19.2932 33.1773 20.2602C34.1443 21.2272 34.6875 22.5387 34.6875 23.9063V31.4063C34.6875 32.7738 34.1443 34.0853 33.1773 35.0523C32.2103 36.0193 30.8988 36.5625 29.5312 36.5625ZM29.5312 21.5625C28.9096 21.5625 28.3135 21.8094 27.874 22.249C27.4344 22.6885 27.1875 23.2847 27.1875 23.9063V31.4063C27.1875 32.0279 27.4344 32.624 27.874 33.0635C28.3135 33.5031 28.9096 33.75 29.5312 33.75C30.1529 33.75 30.749 33.5031 31.1885 33.0635C31.6281 32.624 31.875 32.0279 31.875 31.4063V23.9063C31.875 23.2847 31.6281 22.6885 31.1885 22.249C30.749 21.8094 30.1529 21.5625 29.5312 21.5625Z" fill="var(--fill-0, #2D2D2D)"/>
<path id="Vector_3" d="M38.9063 29.0625C38.5348 29.0576 38.1799 28.9079 37.9173 28.6452C37.6546 28.3826 37.5049 28.0277 37.5 27.6562V20.1562C37.5 15.5564 35.6727 11.1449 32.4201 7.89237C29.1675 4.63978 24.7561 2.8125 20.1563 2.8125C15.5564 2.8125 11.145 4.63978 7.89237 7.89237C4.63978 11.1449 2.8125 15.5564 2.8125 20.1562V27.6562C2.8125 28.0292 2.66434 28.3869 2.40062 28.6506C2.1369 28.9143 1.77921 29.0625 1.40625 29.0625C1.03329 29.0625 0.675604 28.9143 0.411881 28.6506C0.148158 28.3869 0 28.0292 0 27.6562V20.1562C7.96582e-08 14.8105 2.1236 9.68366 5.90363 5.90363C9.68366 2.1236 14.8105 0 20.1563 0C25.502 0 30.6288 2.1236 34.4089 5.90363C38.1889 9.68366 40.3125 14.8105 40.3125 20.1562V27.6562C40.3076 28.0277 40.1579 28.3826 39.8953 28.6452C39.6326 28.9079 39.2777 29.0576 38.9063 29.0625V29.0625Z" fill="var(--fill-0, #2D2D2D)"/>
</g>
</svg>
