<svg preserveAspectRatio="none" width="100%" height="100%" overflow="visible" style="display: block;" viewBox="0 0 45 45" fill="none" xmlns="http://www.w3.org/2000/svg">
<g id="logos:java">
<rect width="45" height="45" rx="10" fill="var(--fill-0, #FFCC00)"/>
<path id="Vector" d="M16.5894 34.7868C16.5894 34.7868 14.8729 35.785 17.811 36.1227C21.3706 36.5288 23.1897 36.4706 27.1124 35.7281C27.1124 35.7281 28.1437 36.3748 29.5838 36.9349C20.7905 40.7036 9.68252 36.7166 16.5894 34.7868ZM15.5148 29.8688C15.5148 29.8688 13.5896 31.294 16.5299 31.598C20.3323 31.9903 23.3351 32.0224 28.5312 31.0219C28.5312 31.0219 29.2499 31.7505 30.3799 32.1489C19.7481 35.2579 7.9062 32.3941 15.5148 29.8688Z" fill="var(--fill-0, white)"/>
<path id="Vector_2" d="M24.5736 21.5266C26.7403 24.0211 24.0043 26.2659 24.0043 26.2659C24.0043 26.2659 29.5059 23.4259 26.9792 19.8693C24.6195 16.5528 22.8097 14.9047 32.6066 9.22302C32.6066 9.22302 17.2288 13.0638 24.5736 21.5266Z" fill="var(--fill-0, white)"/>
<path id="Vector_3" d="M36.2035 38.4244C36.2035 38.4244 37.4738 39.471 34.8045 40.2807C29.7289 41.8184 13.679 42.2827 9.22033 40.342C7.61762 39.6448 10.6233 38.6772 11.5686 38.4741C12.5546 38.2603 13.1182 38.3002 13.1182 38.3002C11.3357 37.0445 1.59725 40.7657 8.17154 41.8312C26.1004 44.7388 40.854 40.5221 36.2035 38.4244ZM17.4149 24.7733C17.4149 24.7733 9.25102 26.7124 14.524 27.4164C16.7503 27.7145 21.1885 27.6471 25.3227 27.3007C28.7013 27.0158 32.0939 26.4098 32.0939 26.4098C32.0939 26.4098 30.9025 26.92 30.0406 27.5085C21.7502 29.6889 5.73465 28.6746 10.3453 26.4442C14.2446 24.5594 17.4149 24.7733 17.4149 24.7733ZM32.0602 32.9594C40.4879 28.5801 36.5913 24.3716 33.8715 24.9387C33.2048 25.0773 32.9076 25.1975 32.9076 25.1975C32.9076 25.1975 33.1551 24.8099 33.6278 24.6422C39.0082 22.7505 43.1463 30.2213 31.8908 33.1801C31.8908 33.1802 32.0213 33.0637 32.0602 32.9594Z" fill="var(--fill-0, white)"/>
<path id="Vector_4" d="M26.9792 0.0480427C26.9792 0.0480427 31.6465 4.71712 22.5524 11.8964C15.2599 17.6557 20.8895 20.9394 22.5494 24.6911C18.2926 20.8505 15.1686 17.4695 17.2645 14.3229C20.3405 9.70366 28.8623 7.46433 26.9792 0.0480427Z" fill="var(--fill-0, white)"/>
<path id="Vector_5" d="M18.243 44.8264C26.3325 45.3443 38.7547 44.5391 39.0489 40.7114C39.0489 40.7114 38.4834 42.1626 32.3634 43.3149C25.4589 44.6141 16.9432 44.4625 11.8924 43.6297C11.8925 43.6297 12.9262 44.4855 18.243 44.8264Z" fill="var(--fill-0, white)"/>
</g>
</svg>
