<svg preserveAspectRatio="none" width="100%" height="100%" overflow="visible" style="display: block;" viewBox="0 0 45 45" fill="none" xmlns="http://www.w3.org/2000/svg">
<g id="logos:git-icon" clip-path="url(#clip0_148_172)">
<path id="Vector" d="M44.1513 20.4955L24.5039 0.84914C23.3731 -0.282364 21.538 -0.282364 20.4057 0.84914L16.3259 4.92902L21.5014 10.1045C22.7041 9.69814 24.0833 9.97078 25.042 10.9295C26.0053 11.8944 26.276 13.2853 25.8597 14.4919L30.8475 19.4798C32.0542 19.0641 33.4466 19.3331 34.4104 20.2985C35.7574 21.6449 35.7574 23.8273 34.4104 25.1746C33.0631 26.5222 30.8807 26.5222 29.5327 25.1746C28.5195 24.1604 28.2691 22.6724 28.7821 21.4242L24.1305 16.7726L24.13 29.0135C24.4672 29.1802 24.7752 29.4004 25.042 29.6657C26.389 31.0121 26.389 33.1946 25.042 34.5431C23.6946 35.8899 21.5112 35.8899 20.1658 34.5431C18.8188 33.1946 18.8188 31.0123 20.1658 29.6658C20.4887 29.343 20.8723 29.0873 21.2945 28.9133V16.5584C20.8717 16.3856 20.4878 16.1297 20.1658 15.8058C19.1452 14.7867 18.8998 13.2892 19.4228 12.036L14.3209 6.93363L0.849023 20.4046C-0.283008 21.5372 -0.283008 23.3725 0.849023 24.5042L20.4968 44.1509C21.628 45.2826 23.4628 45.2826 24.5953 44.1509L44.1512 24.5954C45.2828 23.4634 45.283 21.627 44.1513 20.4955Z" fill="var(--fill-0, #FDCF16)"/>
</g>
<defs>
<clipPath id="clip0_148_172">
<rect width="45" height="45" fill="white"/>
</clipPath>
</defs>
</svg>
