<svg preserveAspectRatio="none" width="100%" height="100%" overflow="visible" style="display: block;" viewBox="0 0 484.359 144.346" fill="none" xmlns="http://www.w3.org/2000/svg">
<g id="Social media">
<path d="M2.43882 21.9177C2.43882 10.872 11.3931 1.91768 22.4388 1.91768H462.439C473.485 1.91768 482.439 10.872 482.439 21.9177V121.918C482.439 132.963 473.485 141.918 462.439 141.918H22.4388C11.3931 141.918 2.43882 132.963 2.43882 121.918V21.9177Z" fill="var(--fill-0, white)"/>
<path d="M4.45545 90.6171C4.68093 87.8931 4.53312 96.9865 4.86986 90.9482C4.89261 92.2073 4.91607 93.4743 4.93882 94.7334C4.81412 95.0527 4.68971 95.3799 4.565 95.6992C4.52828 94.0084 4.49156 92.3166 4.45484 90.6171C4.45504 90.6171 4.45525 90.6171 4.45545 90.6171ZM2.89364 88.3082C3.24933 89.8579 3.34417 94.7815 3.67241 89.4626C3.55033 89.0399 3.42829 88.6068 3.30621 88.1841C3.40089 86.3374 3.49555 84.4794 3.58971 82.6327C3.54317 81.9687 3.49658 81.3054 3.45056 80.6413C3.66269 79.7956 3.87539 78.9574 4.08804 78.1117C4.05699 78.8626 4.0254 79.6236 3.99435 80.3745C4.16661 83.3431 4.21373 85.9845 4.2458 90.0146C4.296 89.6607 4.34575 89.306 4.39594 88.9521C4.31057 90.9974 4.22498 93.0417 4.13961 95.0783C4.0558 93.3095 3.9626 91.3319 3.88449 89.6926C3.55189 92.3158 3.737 96.9427 3.80637 99.351C3.90106 102.631 3.74291 101.889 3.80912 104.323C3.81947 104.711 3.94343 104.755 3.94553 105.523C3.95536 109.398 3.88965 116.925 3.60039 112.523C3.63765 106.145 3.40536 100.706 3.49023 94.4482C3.15576 96.1035 3.04194 92.807 2.89364 88.3082ZM74.5828 140.398C72.6499 140.56 68.7135 140.495 66.0465 140.382C66.0435 140.382 66.0404 140.382 66.0374 140.382C65.4504 140.357 64.1213 140.141 66.0374 140.15C69.1608 140.165 70.6711 140.505 72.3107 140.274C73.0443 140.317 73.8147 140.355 74.5828 140.398ZM81.3713 140.378C83.2872 140.461 82.4182 140.717 80.0191 140.648C80.0191 140.648 80.0191 140.648 80.0191 140.648C79.0179 140.619 80.9833 140.417 77.3929 140.622C76.6596 140.463 75.9376 140.317 75.2128 140.163C76.0921 140.16 76.8937 140.156 77.816 140.154C77.1954 140.416 79.4557 140.295 81.3713 140.378ZM3.74504 115.761C3.98137 116.063 3.97988 114.801 4.14388 112.652C4.13612 114.68 4.12784 116.708 4.12008 118.728C3.99491 117.736 3.87021 116.753 3.74504 115.761ZM3.78166 68.1175C3.78166 68.1144 3.78166 68.1114 3.78166 68.1083C3.7444 67.4438 3.70701 66.7773 3.67027 66.1214C3.75462 65.7244 3.8386 65.3319 3.92294 64.9348C3.84377 62.5873 3.76461 60.2271 3.68492 57.8796C3.94257 58.1648 3.90065 62.3787 4.08071 64.7003C4.00309 68.1522 3.85354 69.8156 3.63518 70.04C3.6838 69.4016 3.73303 68.7646 3.78166 68.1175ZM482.123 113.975C482.052 113.19 481.98 112.415 481.909 111.63C481.876 112.674 481.851 113.709 481.814 114.762C482.124 117.515 481.85 117.773 481.869 121.38C481.87 121.563 481.871 121.742 481.872 121.918C481.761 126.997 480.784 128.799 480.12 130.47C479.298 132.058 478.538 133.868 474.736 136.748C477.666 134.213 478.089 132.981 478.471 132.296C478.789 131.556 478.967 131.159 479.749 129.034C480.353 128.232 478.783 132.584 480.212 129.794C481.218 127.273 481.671 124.614 481.582 121.918C481.491 119.095 481.41 116.195 481.343 113.088C481.31 113.269 481.276 113.449 481.242 113.631C481.264 114.614 481.285 115.59 481.306 116.574C481.216 115.512 481.127 114.475 481.036 113.396C481.24 114.759 481.126 111.284 481.361 111.749C481.465 111.957 481.61 113.492 481.71 114.399C481.765 112.06 481.814 109.662 481.867 107.297C481.95 108.522 482.034 109.746 482.117 110.963C482.12 111.964 482.122 112.956 482.124 113.957C482.124 113.963 482.123 113.969 482.123 113.975ZM82.5898 3.32002C85.5589 3.07681 90.9541 3.03657 93.7936 3.3072C90.0565 3.31134 86.3269 3.31588 82.5898 3.32002ZM3.45513 70.2654C3.49648 69.9292 3.53738 69.6035 3.57872 69.2673C3.65529 70.7515 3.73133 72.2444 3.8079 73.7286C3.68842 74.0133 3.56891 74.3045 3.44995 74.5978C3.4515 73.1569 3.45358 71.7062 3.45513 70.2654ZM34.3255 140.768C33.2397 140.776 33.1436 140.772 31.7913 140.755C31.7928 140.755 31.7944 140.755 31.7959 140.755C31.2599 140.749 26.7749 140.679 27.2748 140.587C29.5015 140.585 31.8768 140.587 34.1553 140.587C34.2244 140.647 34.2393 140.707 34.3255 140.768ZM10.0985 136.097C10.0965 136.095 10.0945 136.093 10.0924 136.091C9.52757 135.579 9.03195 135.053 8.51008 134.468C10.5616 136.392 10.7806 136.861 13 138.169C15.2854 139.37 16.8134 139.724 18.8813 140.513C18.069 140.414 17.1937 140.266 16.3678 140.054C12.9528 138.624 12.0715 138.118 9.66976 136.326C9.81422 136.251 9.95577 136.174 10.0985 136.097ZM452.577 140.882C451.835 141.058 451.007 140.885 450.921 140.883C450.923 140.883 450.924 140.883 450.926 140.883C444.352 141.046 451.781 140.785 445.577 140.758C446.5 140.714 447.408 140.668 448.323 140.623C449.738 140.708 451.197 140.804 452.577 140.882ZM238.974 140.866C238.913 140.814 238.841 140.763 238.781 140.712C242.509 140.724 243.46 140.522 246.558 140.706C244.03 140.76 241.502 140.813 238.974 140.866C238.974 140.866 238.974 140.866 238.974 140.866ZM53.118 141.141C48.9839 141.239 45.9258 141.282 41.9557 141.127C41.9526 141.126 41.9495 141.126 41.9465 141.126C41.7175 141.116 42.8247 141.009 42.526 140.982C41.7068 140.998 40.861 141.023 40.0332 141.042C39.9211 140.956 39.8141 140.87 39.702 140.785C42.032 140.809 44.3634 140.834 46.7021 140.858C46.3569 140.808 46.0033 140.758 45.658 140.708C47.6428 140.682 49.6202 140.656 51.6049 140.63C50.9147 140.771 50.2261 140.912 49.5444 141.053C50.735 141.083 51.9275 141.111 53.118 141.141ZM301.045 141.426C300.389 141.37 301.604 141.277 300.585 141.229C299.567 141.181 297.689 141.285 298.129 141.128C299.501 141.106 300.941 141.082 302.338 141.06C297.841 140.775 293.356 141.033 293.286 140.681C297.602 140.772 301.15 140.73 305.327 140.633C305.155 140.912 300.976 141.153 303.607 141.415C302.762 141.418 301.874 141.424 301.055 141.426C301.052 141.426 301.049 141.426 301.045 141.426ZM3.91546 9.17577C5.37515 6.68555 10.4209 2.16901 13.9869 1.15588C14.8277 0.794487 17.7929 0.52018 17.7861 0.632205C17.7359 0.852926 14.4025 1.76262 18.0327 1.00047C16.8156 1.25782 15.6564 1.61806 14.5118 2.07967C14.7746 2.1412 15.0335 2.20764 15.2814 2.2814C16.6545 1.75577 18.088 1.3758 19.5455 1.15073C19.6241 1.19159 19.702 1.23303 19.7798 1.27475C14.6201 2.2663 17.6891 1.84567 15.1854 2.81467C17.5256 2.02271 20.0118 1.67262 22.4388 1.76828C21.0381 1.74775 19.3866 1.93058 18.1766 2.18594C18.0671 2.43364 20.9366 1.92435 21.4487 2.00757C22.8655 2.14153 19.942 2.00819 16.7473 3.0361C13.5074 3.97312 10.4241 6.36069 10.1438 6.8893C11.8923 5.5062 13.9724 4.37963 16.1271 3.68303C15.5295 3.93954 14.9387 4.22945 14.3742 4.544C9.62773 6.40616 5.13457 10.9383 3.43149 16.8358C3.30006 17.3705 3.19124 17.9141 3.10669 18.4479C3.25157 18.3102 3.39574 18.1844 3.54317 18.0537C3.39453 18.8533 3.29537 19.6775 3.25017 20.4879C3.16287 18.8469 2.88032 19.8058 2.75123 21.9177C2.70355 22.9392 2.65203 24.2125 2.57505 25.5606C2.49736 24.3039 2.49038 22.8807 2.45244 21.9177C2.42428 21.1782 2.41368 20.7121 2.29682 20.7862C2.28576 21.1601 2.28367 21.5356 2.29109 21.9177C2.43627 29.2727 2.19522 37.6821 2.4063 44.7257C2.46114 46.5638 2.79067 46.5578 2.76028 50.8795C2.72406 50.7328 2.65867 50.7077 2.61106 50.6127C2.76889 58.087 2.86323 62.6218 2.7023 70.3895C2.82074 69.941 2.93968 69.4997 3.05812 69.0512C2.99913 67.4027 2.9392 65.7514 2.88021 64.1116C3.07579 62.9899 3.16211 64.6477 3.16004 59.7285C3.15849 55.6979 3.07213 58.0972 3.01418 57.0011C2.93506 55.5169 3.0907 54.2144 3.00227 52.618C2.93449 51.3838 2.77311 52.719 2.81399 49.4997C3.02305 50.7943 3.23891 52.1151 3.45056 53.4183C3.40347 54.2037 3.35565 54.9831 3.30805 55.7685C3.25216 54.9745 3.19701 54.1939 3.14112 53.3999C3.2415 56.196 3.33618 58.8381 3.44018 61.7291C3.13798 60.7884 3.25128 63.7768 3.28699 65.3993C3.34282 67.9269 3.13484 65.7615 3.1695 67.4184C3.20471 69.0755 3.43706 70.8626 3.38739 73.8574C3.25287 72.2523 3.13224 74.4357 3.00807 74.0138C2.88391 73.5909 2.85642 70.4232 2.72092 73.4664C2.82389 79.318 3.29674 72.9683 3.37335 76.9205C3.46545 81.667 2.69466 82.7965 2.52897 81.3818C2.39857 80.2684 2.4248 76.4373 2.29491 75.3153C2.06052 82.1766 2.52325 82.2362 2.61381 83.41C2.9434 87.6734 2.06369 84.8096 2.38188 89.8582C2.21737 89.7632 2.06941 89.6864 1.91163 89.5914C1.94164 90.4625 1.98152 91.0409 2.00532 92.0934C2.32585 88.9897 2.31211 91.5301 2.31261 92.8339C2.31365 94.888 2.46999 91.7153 2.51036 92.259C2.61836 93.7263 2.56932 96.0466 2.71054 94.623C2.64482 95.2617 2.57891 95.9539 2.51371 96.6099C2.5956 99.0097 3.28223 104.65 3.14356 99.282C3.39867 99.7826 3.27606 101.519 3.23725 102.874C3.19848 104.229 3.36094 104.204 3.33093 105.394C3.21088 110.132 2.93296 107.033 2.71512 106.282C2.86517 112.539 2.96445 106.413 3.06483 115.43C3.24232 116.302 3.43171 112.136 3.53417 115.605C3.26685 116.159 3.0648 118.152 2.94902 121.918C2.93131 122.484 2.93938 123.088 2.98511 123.734C3.09906 124.197 3.22981 124.652 3.37622 125.102C3.69394 127.693 2.76806 126.662 5.12445 131.007C3.47294 128.848 4.20477 130.536 6.67927 134.314C7.20835 135.07 5.78638 133.473 6.52713 134.534C6.86631 135.018 7.86479 136.039 8.88534 137.049C9.33743 137.571 11.8398 139.823 14.032 140.602C12.6694 139.629 16.6168 141.15 13.4629 139.393C16.399 140.958 19.2516 141.347 20.29 141.477C21.3457 141.534 20.6292 141.851 16.9234 141.13C18.5389 141.693 20.2404 142.047 21.969 142.18C22.1252 142.174 22.2819 142.166 22.4388 142.157C23.4781 142.092 24.5239 142.027 25.5685 141.962C25.7496 142.22 25.5676 142.293 30.2598 142.247C28.2239 142.309 26.1965 142.371 24.1519 142.432C24.0829 142.484 23.7985 142.539 23.8668 142.589C26.3709 142.49 33.4216 142.447 35.1303 142.378C36.8393 142.31 33.5391 142.291 34.0311 142.224C38.1299 141.674 37.8049 142.08 40.7461 141.985C42.4722 141.929 38.3508 141.868 39.2743 141.845C42.6985 141.757 44.2867 142.05 47.323 142.054C46.2444 141.888 45.1745 141.719 44.1219 141.551C47.3066 141.56 50.8568 141.562 53.8171 141.508C54.9792 141.488 54.1011 141.364 54.2909 141.356C55.2324 141.313 59.064 141.246 59.4696 141.246C62.5232 141.245 62.6103 141.416 65.5774 141.425C64.4127 141.44 63.3174 141.453 62.1786 141.467C61.6608 141.744 61.1326 142.021 60.6148 142.299C63.5228 142.319 66.4321 142.339 69.3488 142.359C67.2173 142.267 65.0782 142.174 62.9466 142.082C66.2781 141.858 69.6094 141.633 72.9408 141.409C74.6756 141.546 76.4032 141.684 78.138 141.821C82.8489 141.785 81.9004 141.226 84.1354 141.716C85.5243 141.675 86.9134 141.633 88.3023 141.592C88.1039 141.662 87.9074 141.732 87.709 141.802C89.3833 141.759 91.0571 141.716 92.7314 141.673C90.9709 141.426 89.2453 141.165 87.5021 140.925C90.7968 140.871 90.8603 141.081 91.3516 141.134C92.6548 141.272 95.2417 141.085 96.2774 141.214C96.6274 141.258 93.3986 141.396 94.5113 141.555C94.7287 141.586 99.0519 142.171 101.81 142.036C101.758 141.93 101.545 141.8 101.433 141.685C105.143 141.62 107.035 142.174 106.543 142.329C108.519 142.221 111.408 142.212 111.814 142.042C112.824 142.038 113.826 142.034 114.835 142.03C113.783 142.443 117.995 142.367 118.271 142.012C116.536 142.003 114.799 141.994 113.065 141.985C114.377 141.549 109.105 141.286 120.074 141.69C122.171 141.917 116.346 141.659 118.055 141.829C121.024 141.928 123.811 141.845 126.632 142.003C130.144 142.2 125.824 142.389 134.005 142.139C115.959 141.51 136.48 141.714 144.956 141.519C147.286 142.14 154.444 142.336 164.3 142.152C163.273 141.979 160.172 142.068 158.386 142.011C156.599 141.954 158.532 141.852 156.307 141.771C154.081 141.69 149.353 141.58 147.099 141.458C149.008 141.361 158.429 141.129 152.2 141.407C156.85 141.578 159.034 141.754 164.797 141.786C166.523 141.517 166.395 141.349 172.013 141.341C168.691 141.716 175.075 141.976 173.669 142.363C169.685 142.273 171.912 141.897 169.608 141.717C169.372 141.699 165.66 141.793 164.797 141.786C168.543 142.124 169.838 142.25 167.534 142.652C170.183 142.617 171.832 142.667 172.073 142.475C172.625 142.559 173.181 142.642 173.724 142.725C174.587 142.723 175.363 142.716 176.277 142.717C175.018 142.428 177.458 142.606 179.193 142.475C180.928 142.343 178.6 142.114 183.364 142.111C181.776 142.044 180.324 141.985 178.788 141.921C181.86 141.847 184.942 141.772 188.014 141.697C185.856 141.52 181.181 141.257 181.308 141.025C182.724 141.113 187.571 140.958 188.102 140.952C190.156 140.928 189.036 141.075 189.192 141.078C192.419 141.15 195.077 141.1 196.302 141.322C198.727 141.222 200.556 141.279 203.127 141.273C204.543 141.27 204.268 141.107 205.096 141.138C210.602 141.345 205.356 141.556 215.978 141.154C214.692 141.04 213.423 140.924 212.137 140.809C213.337 140.766 214.53 140.723 215.729 140.68C216.532 140.701 217.327 140.721 218.13 140.742C218.113 140.989 218.092 141.236 218.075 141.483C218.955 141.496 219.839 141.51 220.719 141.523C219.209 141.547 217.695 141.572 216.185 141.596C216.047 141.639 215.918 141.683 215.78 141.726C218.024 141.794 220.26 141.861 222.504 141.929C222.547 141.843 222.59 141.757 222.633 141.671C227.69 141.791 227.811 141.863 232.618 141.627C236.32 141.629 239.335 141.27 241.476 141.119C242.244 141.167 243.013 141.216 243.789 141.264C244.281 141.193 244.778 141.122 245.27 141.05C246.245 141.15 247.234 141.249 248.209 141.348C248.753 141.122 249.034 141.052 245.229 140.973C246.532 140.692 253.232 140.816 255.959 140.91C258.028 140.982 255.732 141.216 255.991 141.244C256.855 141.341 260.265 141.257 260.981 141.273C264.011 141.34 266.133 141.328 268.869 141.38C269.402 141.391 270.89 141.539 271.017 141.543C272.001 141.569 274.429 141.641 274.705 141.643C288.952 141.754 273.729 141.11 286.976 141.178C286.579 141.093 286.215 141.009 285.826 140.924C286.827 140.919 287.838 140.914 288.839 140.909C290.108 140.98 288.573 141.109 291.093 141.005C290.929 141.109 290.764 141.214 290.591 141.318C291.687 141.262 292.744 141.206 293.866 141.149C295.627 141.512 302.054 141.594 301.597 142.02C301.442 142.165 296.885 142.314 299.293 142.468C301.25 142.499 299.925 142.326 300.723 142.317C306.489 142.254 306.154 142.496 308.51 142.431C308.881 142.328 309.271 142.222 309.651 142.117C310.539 142.147 311.43 142.178 312.327 142.208C312.534 142.138 312.75 142.068 312.957 141.998C312.12 141.994 311.178 141.989 310.409 141.984C311.481 141.714 321.317 141.592 317.566 141.823C316.038 141.917 313.241 141.877 315.009 142.197C317.641 142.15 320.627 142.103 323.398 142.057C323.484 142.126 323.564 142.195 323.651 142.264C327.384 142.219 323.989 141.944 323.996 141.797C324.85 141.793 325.713 141.789 326.567 141.785C326.929 141.852 327.273 141.921 327.652 141.986C327.687 141.88 328.165 141.633 330.711 141.725C332.347 141.784 329.77 142.052 332.891 142.015C332.657 141.849 331.53 141.648 335.006 141.594C335.352 141.767 335.829 141.926 336.096 142.107C340.419 141.941 342.387 142.208 347.461 142.015C350.68 141.893 355.09 141.459 357.17 142.127C359.525 142.145 358.777 141.978 359.474 141.941C362.763 141.764 365.209 142.081 365.821 142.099C369.729 142.219 371.482 142.109 374.666 142.259C374.493 142.135 374.399 142.018 374.261 141.897C371.344 142.083 369.866 142.074 365.775 142.034C367.147 142.009 368.52 141.984 369.892 141.959C369.667 141.859 369.445 141.758 369.229 141.659C356.577 142.054 359.528 141.429 370.135 141.293C371.05 141.478 371.998 141.664 372.904 141.85C379.032 141.568 381.915 141.813 388.845 141.871C389.669 141.878 392.67 141.771 393.96 141.766C393.938 141.765 393.917 141.764 393.895 141.763C394.697 141.588 393.611 141.507 393.481 141.351C394.18 141.331 394.88 141.311 395.578 141.292C397.139 141.411 396.591 141.509 399.663 141.481C399.248 141.362 398.84 141.243 398.425 141.124C401.791 141.12 403.994 141.249 407.127 141.193C406.601 141.238 406.081 141.283 405.554 141.328C412.373 141.443 406.946 142.143 412.099 141.795C412.427 141.856 412.746 141.917 413.074 141.978C410.951 141.993 408.827 142.008 406.713 142.023C406.67 142.109 406.624 142.195 406.589 142.282C408.859 142.256 411.14 142.229 413.41 142.203C411.753 142.261 410.086 142.319 408.429 142.377C411.061 142.419 413.694 142.46 416.326 142.501C413.531 142.184 417.154 142.145 416.473 141.83C421.133 142.092 424.794 142.437 432.018 142.216C433.45 142.172 432.673 141.953 436.737 142.22C435.753 141.87 440.845 141.706 440.191 141.373C438.776 141.39 437.309 141.4 435.937 141.419C437.499 141.535 437.758 141.852 435.385 141.946C432.356 142.066 427.937 141.846 428.118 142.199C426.91 142.182 425.787 142.172 424.614 142.158C425.097 142.071 425.57 141.983 426.044 141.896C422.705 142.033 420.607 141.988 419.002 141.768C422.981 141.717 426.95 141.667 430.928 141.617C430.342 141.602 429.748 141.587 429.162 141.572C432.174 141.347 429.067 141.134 434.686 141.086C434.651 141.189 434.624 141.292 434.589 141.395C436.635 141.12 442.235 141.121 440.449 140.805C442.14 140.902 442.485 140.963 443.443 140.793C447.905 141.033 450.771 141.338 449.183 141.701C450.84 141.642 452.497 141.584 454.145 141.525C453.188 141.426 452.229 141.327 451.271 141.228C454.154 141.234 457.057 141.24 459.931 141.246C460.207 141.54 454.383 141.335 456.063 141.598C456.399 141.651 457.951 141.538 458.358 141.567C462.656 141.889 455.909 141.656 457.176 141.903C461.677 141.956 460.483 142.176 462.439 142.181C463.273 142.165 464.71 142.171 467.261 141.463C467.508 141.49 467.777 141.508 468.011 141.529C470.98 140.57 470.673 140.44 472.962 139.117C474.36 138.248 476.238 137.172 477.323 135.641C477.419 135.508 476.864 135.933 476.842 135.8C476.787 135.643 477.465 135.099 479.225 132.441C481.605 128.112 480.866 130.012 481.878 127.491C482.31 126.215 482.651 124.02 482.603 121.918C482.57 119.772 482.581 117.724 482.813 116.799C482.752 118.214 482.719 120.017 482.67 121.587C482.685 121.698 482.701 121.808 482.716 121.918C482.789 122.452 482.842 122.976 482.874 123.516C482.898 122.982 482.907 122.453 482.899 121.918C482.852 118.842 482.925 115.827 482.744 113.759C483.068 108.969 482.767 103.612 482.401 105.062C482.453 106.639 482.613 104.924 482.511 107.113C482.426 107.338 482.341 107.574 482.256 107.799C482.266 104.07 482.264 101.481 482.524 103.181C482.53 102.603 482.536 102.03 482.542 101.452C482.354 101.348 482.165 101.256 481.977 101.153C481.955 100.462 481.934 99.7689 481.913 99.0785C481.955 98.3108 481.996 97.5414 482.038 96.765C482.336 97.8094 482.346 99.5882 482.513 93.7019C482.41 93.6847 482.307 93.6594 482.204 93.6422C482.335 88.7142 482.585 88.5842 482.575 82.397C482.933 87.1438 482.299 89.7408 483.016 89.7236C482.969 90.9147 482.922 92.1153 482.874 93.3064C482.978 93.4876 483.083 93.6673 483.187 93.8399C483.132 87.4451 482.448 76.8224 482.901 72.5408C482.846 72.0231 482.798 71.5034 482.738 70.977C483.012 66.7824 482.398 64.9711 482.751 60.7161C482.789 60.2771 483.366 61.1957 483.345 55.6569C483.27 55.7949 483.144 55.8667 483.049 55.9789C483.095 54.7796 483.144 53.5867 483.191 52.396C483.121 52.1803 483.052 51.9541 482.982 51.7383C482.955 53.7839 482.928 55.8236 482.901 57.8692C482.877 56.1695 482.853 54.459 482.83 52.7594C482.716 54.9768 482.715 55.9771 482.534 54.6405C482.523 52.7158 482.511 50.7885 482.5 48.8638C482.454 48.6656 482.407 48.4687 482.36 48.2705C482.222 49.2025 482.086 50.144 481.945 51.0761C482.059 46.0618 482.065 41.7024 482.337 37.8532C482.383 37.1973 482.564 39.517 482.401 35.0477C482.497 34.9786 482.575 34.8585 482.663 34.7809C482.397 29.3447 482.474 27.535 482.665 21.9177C482.666 21.8801 482.667 21.8424 482.668 21.8046C482.667 21.843 482.665 21.8807 482.663 21.9177C482.521 24.8166 482.573 23.123 482.542 21.9177C482.536 21.6585 482.52 21.4231 482.498 21.2602C482.452 20.9402 482.462 21.4034 482.447 21.9177C482.432 22.4317 482.417 22.9931 482.382 22.8504C482.359 22.7564 482.313 22.3368 482.261 21.9177C482.15 21.0978 481.995 20.3095 482.002 21.9177C482.001 21.9728 482 22.0308 481.999 22.0916C482.573 28.9444 481.887 30.8113 482.163 39.6147C482.089 38.2597 482.014 36.8948 481.94 35.5398C481.89 36.1779 481.845 36.7493 481.791 37.4393C481.904 32.5293 481.831 34.9173 481.742 32.8998C481.654 30.8802 481.579 27.2097 481.554 24.7499C481.547 23.9751 481.675 24.7923 481.687 23.0436C481.689 22.763 481.68 22.3678 481.668 21.9177C481.654 20.5053 481.295 18.5874 481.335 18.0162C481.363 17.766 481.717 18.8671 481.871 19.1867C481.976 19.518 482.284 18.9545 481.225 15.5204C480.937 14.1859 481.956 17.4901 481.921 17.5765C482.289 18.1611 481.26 13.7383 479.98 12.0457C479.892 11.9072 480.558 13.3876 479.656 11.8759C477.38 8.38045 475.572 6.72635 473.441 5.0188C473.056 5.07793 469.989 3.25144 465.721 2.46889C465.491 2.5006 465.274 2.5387 465.048 2.57892C465.71 2.63036 466.372 2.71653 467.031 2.83669C467.728 3.04779 468.458 3.30144 469.103 3.5915C465.098 2.35782 464.304 2.89324 462.439 2.9277C462.383 2.93138 462.326 2.9349 462.267 2.93826C455.032 3.3554 459.417 2.47302 460.722 2.32092C461.302 2.35888 461.87 2.39956 462.439 2.44033C462.786 2.46571 463.129 2.50011 463.473 2.543C463.377 2.45348 463.279 2.36407 463.189 2.27578C462.929 2.26606 462.679 2.26152 462.439 2.26093C452.812 2.23752 461.417 1.71035 456.054 1.55741C454.639 1.97239 450.601 2.01238 445.457 1.74905C444.887 1.75112 444.316 1.75165 443.746 1.75424C443.651 1.81475 443.653 1.90723 443.498 1.9471C437.301 2.01748 436.197 1.3784 435.61 1.31786C433.004 1.04934 430.974 1.42087 430.206 1.42406C426.97 1.43699 426.029 1.27202 422.948 1.34288C419.635 1.41945 421.901 1.54603 420.893 1.65933C420.084 1.74931 417.47 1.76534 416.39 1.8586C416.819 1.78232 417.296 1.70752 417.724 1.63095C414.289 1.52696 411.483 1.4256 407.582 1.40025C403.181 1.95839 399.436 1.01688 400.955 1.78048C404.649 1.83275 406.714 1.91976 408.691 2.11433C406.266 2.13916 403.839 2.16335 401.415 2.18818C400.707 2.10437 400.205 2.0227 399.368 1.93734C397.556 2.11531 393.355 2.03894 391.706 2.09114C383.981 2.33589 386.371 2.63946 379.32 2.12928C384.402 2.07957 384.394 1.83178 389.434 1.86593C388.346 1.68896 385.785 1.72563 387.442 1.51347C382.566 1.56572 384.143 1.75514 382.245 1.9233C380.608 2.06827 377.312 2.07638 377.499 2.26477C377.162 2.16119 376.901 2.06092 376.565 1.95748C373.407 1.95851 370.249 1.95858 367.09 1.95961C368.437 1.85148 369.782 1.74315 371.129 1.63553C370.111 1.59469 369.092 1.554 368.075 1.51316C360.307 1.84951 346.912 1.23307 349.052 2.07801C345.307 2.10492 344.838 1.99895 342.802 1.83907C342.577 1.90322 342.359 1.95657 342.135 2.02797C339.719 1.96082 337.864 2.20165 335.733 2.13905C333.601 2.07693 333.072 1.84945 332.762 2.23182C331.381 2.12213 330.008 2.03102 328.636 1.9291C327.808 2.01596 326.981 2.10183 326.162 2.18818C324.867 2.14265 323.57 2.0973 322.275 2.05177C321.583 2.2343 316.494 2.15562 314.25 2.2782C312.12 2.08145 312.178 1.46196 307.167 1.57297C307.296 1.72662 307.424 1.87982 307.553 2.03346C306.405 2.00139 305.255 1.96941 304.099 1.93734C304.03 1.88719 303.97 1.83704 303.901 1.78689C304.488 1.80241 305.067 1.81785 305.654 1.83389C305.144 1.74902 304.646 1.66455 304.145 1.57969C302.393 1.70541 300.639 1.83114 298.879 1.95687C301.252 2.05206 303.626 2.14731 305.999 2.2425C303.021 2.3553 300.948 2.24278 298.359 2.36853C296.107 2.1564 296.939 2.03418 297.853 1.80398C297.016 1.82364 296.17 1.84261 295.333 1.86227C295.885 1.63204 294.469 1.49486 299.362 1.51347C299.026 1.4478 298.682 1.38519 298.355 1.31694C297.552 1.32729 297.032 1.27179 296.152 1.29711C293.752 1.36645 291.913 1.77083 292.077 1.91262C292.165 1.98689 294.531 1.84485 294.436 1.94985C294.202 2.20589 288.775 2.09093 296.602 2.34808C294.004 2.51108 293.424 2.38815 290.559 2.34106C290.783 2.42638 291.001 2.51116 291.217 2.59648C289.888 2.55717 288.558 2.518 287.229 2.47869C289.076 2.04042 279.28 1.87581 288.098 1.49241C285.492 1.47275 282.895 1.45299 280.298 1.43229C280.833 1.38729 281.368 1.34273 281.903 1.29772C283.077 1.32152 284.243 1.34493 285.417 1.36821C284.036 1.28596 282.654 1.2042 281.273 1.12195C278.011 1.22389 276.732 1.38067 275.239 1.57419C279.035 1.71542 277.795 1.52251 280.753 1.48417C280.65 1.60673 280.786 1.71946 280.528 1.84823C278.999 1.59437 274.013 1.77905 272.856 1.79147C269.337 1.82918 272.097 1.57975 269.743 1.5745C267.386 1.56933 264.607 1.71779 262.683 1.47044C262.717 1.60908 262.871 1.75251 263.009 1.87875C259.341 1.92428 260.073 1.7605 259.693 1.73929C253.635 1.39053 250.347 1.68497 243.417 1.72067C244.297 1.76361 245.186 1.80238 246.075 1.84274C240.846 2.13709 244.369 2.04696 248.908 2.14423C244.653 2.11474 242.216 2.36542 239.213 2.43994C236.21 2.51432 231.059 2.38557 229.177 2.28522C233.484 2.12377 238.129 2.23024 242.911 2.18574C242.367 2.04451 241.839 1.92498 241.278 1.7698C238.37 2.06622 236.685 1.86802 235.727 1.8287C232.914 1.71336 233.002 1.96777 231.302 1.69412C231.371 1.78826 231.422 1.86741 231.491 1.95534C225.682 1.91602 219.417 1.74959 215.637 2.09724C215.292 1.87113 215.031 1.65329 214.634 1.42253C212.175 1.59273 210.069 1.41844 207.998 1.45823C205.935 1.49808 206.72 1.68081 204.295 1.75119C203.846 1.76412 202.912 1.64975 201.807 1.7341C200.692 1.81889 196.578 2.44935 196.086 1.89858C194.006 1.89599 192.038 1.87585 190.001 1.86654C191.986 1.83549 193.971 1.80542 195.948 1.77438C194.256 1.64089 192.575 1.5078 190.884 1.37431C190.668 1.49333 190.452 1.6145 190.245 1.73196C185.688 1.87685 182.381 1.68226 177.781 1.7283C177.013 1.73606 178.825 1.97137 175.417 1.9114C172.008 1.85138 169.478 1.41219 163.67 1.58182C163.377 1.59062 161.657 1.92698 159.577 1.69412C159.103 1.64135 161.096 1.56326 160.009 1.49394C158.922 1.4246 154.069 1.36758 153.69 1.20251C153.741 1.26097 154.044 1.32154 154.191 1.38103C153.363 1.40896 152.526 1.43692 151.689 1.46434C151.611 1.36138 151.528 1.25826 151.45 1.15582C146.686 1.39539 144.224 1.7862 137.165 1.65689C139.149 1.80643 141.135 1.95656 143.111 2.10609C143.655 2.00104 144.2 1.89529 144.735 1.79025C147.988 1.83216 151.251 1.87376 154.504 1.91567C155.039 1.79614 155.565 1.67694 156.1 1.55741C156.963 1.57293 157.817 1.58797 158.68 1.60349C158.464 1.6899 158.247 1.77586 158.022 1.86227C159.731 1.84106 161.441 1.81939 163.141 1.79818C159.68 2.30825 153.477 1.7548 153.924 2.18146C153.157 2.11527 152.388 2.0486 151.62 1.98189C151.283 2.18877 149.722 2.12923 146.97 2.09663C147.6 2.19857 148.296 2.29912 148.874 2.4021C146.199 2.25826 141.453 2.27223 138.682 2.21686C137.466 2.19255 138.681 2.04255 138.319 2.02492C136.463 1.93281 132.917 2.19453 132.174 2.17384C127.738 2.05066 124.856 1.55447 120.014 1.88149C125.011 1.96222 122.293 1.92812 124.071 2.10975C124.627 2.1667 131.083 2.28549 122.999 2.23273C122.051 2.22613 107.383 1.8833 112.204 1.62058C109.831 1.70441 107.973 1.80134 105.798 1.89034C100.481 1.19798 102.321 1.8484 103.866 2.20649C102.994 2.20804 102.165 2.21168 101.267 2.21168C103.175 1.83548 93.4572 1.81212 90.1602 2.00203C89.0556 2.06516 92.1444 2.18558 89.5899 2.2425C88.3735 2.21611 86.9935 2.18196 85.7081 2.15247C87.5723 2.39049 83.9138 2.48221 83.965 2.72435C81.6263 2.50858 79.8374 2.05125 81.1227 1.80337C79.1898 1.90374 77.2468 2.00398 75.3138 2.10487C76.2114 2.16231 77.1206 2.21924 78.0182 2.27667C71.7004 2.12454 63.5771 2.47072 62.2565 1.96205C61.4194 1.96568 60.5733 1.96881 59.7362 1.97243C59.4772 2.05833 59.227 2.14439 58.9681 2.23029C55.18 2.15579 51.4006 2.0808 47.6125 2.0063C50.9854 1.95299 51.7883 1.83073 55.3255 1.93001C53.9624 1.83122 52.5739 1.73188 51.2367 1.63309C45.9116 1.89906 45.1852 2.07387 37.1676 1.99471C36.8051 1.99108 30.7472 1.76804 30.5401 1.74631C29.5911 1.64696 31.0316 1.50264 30.6091 1.45244C29.4353 1.31169 22.3027 0.958276 22.4408 0.904977C24.1842 0.250905 48.182 0.242236 54.6724 0.208601C121.992 -0.14015 187.829 0.326434 254.726 0.246746C255.414 0.245512 255.114 0.148958 255.407 0.144822C257.228 0.120572 259.016 0.271054 259.689 0.277262C261.127 0.290057 260.335 0.151024 261.386 0.150925C272.243 0.152478 282.489 0.234234 293.355 0.210432C294.063 0.208879 293.34 0.320118 294.583 0.300454C295.225 0.289687 297.233 0.119026 298.681 0.116442C303.739 0.107649 307.987 0.162362 313.321 0.159775C316.238 0.158231 320.614 0.172737 323.876 0.170151C325.316 0.169051 326.817 0.0909761 328.241 0.0883675C330.26 0.0847453 329.848 0.243017 330.158 0.252849C331.522 0.295788 331.711 0.122074 333.005 0.126207C335.413 0.134487 335.543 0.250469 338.598 0.240643C340.782 0.233398 345.779 0.141825 348.532 0.114916C354.971 0.249444 363.084 0.196036 369.091 0.151536C372.647 0.125156 372.976 0.287544 374.426 0.287027C379.535 0.283882 383.412 0.0764791 388.21 0.0697527C394.578 0.0609896 400.222 0.198131 406.391 0.20799C407.392 0.209542 407.162 0.0607533 408.143 0.0569359C411.777 0.0429645 416.423 0.0158845 419.66 0.0371004C423.267 0.0604157 424.597 0.276384 428.127 0.232403C429.162 0.219344 429.465 0.0299809 431.199 0.00566888C433.97 -0.032563 437.007 0.134423 438.94 0.153062C441.59 0.1779 439.285 -0.0150164 442.859 0.0108566C443.006 0.0119735 443.54 0.149876 444.307 0.143296C446.543 0.124668 446.321 0.0160706 449.592 0.0264199C449.906 0.0278491 454.243 0.159248 454.674 0.159775C456.673 0.161406 460.269 0.190314 462.439 0.188835C463.076 0.188466 463.592 0.213274 463.941 0.231055C466.849 0.442863 467.157 0.598369 467.359 0.601701C467.547 0.661992 467.679 0.637593 469.937 1.66128C472.012 2.31478 473.994 3.26665 475.904 4.61572C475.25 4.18798 476.191 4.92439 477.21 5.9319C478.241 6.92876 479.281 8.24607 479.415 8.4186C481.568 11.3403 480.704 9.35427 482.698 13.5608C481.246 10.9064 481.915 12.1414 482.856 14.4596C483.824 16.7844 484.356 20.4235 484.306 21.9177C484.306 21.9676 484.307 22.0149 484.307 22.0594C484.357 33.9865 484.256 44.8283 484.259 56.8159C484.26 60.8291 484.345 66.207 484.343 70.4527C484.343 71.4424 484.247 70.6946 484.245 71.5657C484.244 72.4347 484.351 71.4707 484.346 72.4626C484.308 78.6332 484.106 83.4681 484.359 89.1211C484.322 89.3963 484.293 89.3875 484.253 89.8432C484.48 94.4693 484.175 103.378 484.133 106.727C484.068 111.965 484.221 113.303 484.19 117.108C484.178 118.606 484.143 120.327 484.112 121.918C484.039 125.998 482.776 129.11 483.82 126.7C483.009 130.393 481.279 133.755 478.697 136.56C478.407 136.87 478.511 136.569 478.395 136.691C477.651 137.457 477.469 137.771 476.933 138.262C475.444 139.544 477.82 137.394 475.678 139.19C474.489 140.037 473.96 140.839 470.142 142.405C467.707 143.324 465.081 143.804 462.439 143.802C441.803 143.804 419.888 143.774 399.074 143.759C397.477 143.758 398.528 143.88 396.526 143.872C389.57 143.845 377.118 143.64 371.12 143.668C365.122 143.696 366.475 143.874 362.721 143.949C361.996 143.963 362.591 143.862 361.935 143.86C357.525 143.851 352.267 143.693 348.694 143.669C346.331 143.653 346.52 143.813 344.881 143.824C342.438 143.84 339.925 143.679 338.621 143.674C332.495 143.651 328.282 143.781 322.561 143.715C322.785 143.75 322.932 143.783 323.122 143.817C316.347 143.812 309.581 143.806 302.807 143.8C303.126 143.832 303.435 143.865 303.754 143.897C295.806 143.88 296.713 143.532 297.412 144.266C296.834 144.292 296.221 144.322 295.669 144.346C295.893 143.968 291.085 143.691 284.966 143.594C284.518 143.587 281.506 143.956 281.834 143.52C281.049 143.627 280.581 143.7 279.916 143.794C278.622 143.662 277.311 143.532 276.016 143.4C275.317 143.42 274.609 143.439 273.91 143.459C273.806 143.544 273.886 143.633 273.661 143.717C270.417 143.729 263.762 143.624 261.197 143.635C254.828 143.662 248.343 143.893 243.389 143.644C240.976 143.669 243.372 143.837 239.783 143.815C239.378 143.731 238.997 143.649 238.574 143.562C235.641 143.941 235.028 143.71 231.008 143.631C228.289 143.577 226.509 143.67 223.921 143.652C223.265 143.647 223.357 143.536 222.909 143.54C221.406 143.551 217.117 143.704 216.056 143.708C206.442 143.749 198.183 143.731 189.026 143.691C188.042 143.686 189.318 143.796 188.299 143.792C186.661 143.784 187.625 143.616 186.676 143.607C184.028 143.585 184.008 143.763 180.315 143.772C168.155 143.803 154.174 143.669 141.47 143.657C141.073 143.657 141.096 143.762 140.665 143.763C137.852 143.768 135.005 143.627 132.451 143.628C128.213 143.63 125.028 143.777 120.842 143.776C112.66 143.776 105.35 143.701 96.9351 143.697C90.0477 143.693 84.0663 143.707 76.5144 143.706C58.6276 143.705 40.5427 143.802 22.4388 143.863C10.7387 144.189 0.145703 133.619 0.450236 121.918C0.457063 117.122 0.471886 112.332 0.497211 107.552C0.501865 106.706 0.593969 107.05 0.58998 106.793C0.550137 104.342 0.425864 104.123 0.686106 103.251C0.634817 100.129 0.4393 99.1434 0.453268 95.3727C0.460591 93.363 0.763627 94.8634 0.607374 91.4633C0.466121 88.3932 0.300045 91.7812 0.469747 82.6511C0.474412 82.4095 0.659124 81.2198 0.611036 79.3213C0.56343 77.4139 0.431165 79.6217 0.39132 75.0302C0.298188 64.2508 0.457854 50.6066 0.408715 38.0752C0.40561 37.2898 0.306859 29.7259 0.261322 28.2328C0.17284 25.3433 0.0355761 25.9469 0.00193548 22.194C0.00110936 22.1014 0.000468254 22.0093 0 21.9177C0.0226722 18.8082 0.606776 16.1672 2.04956 12.7799C2.25253 12.3916 2.30089 11.5683 3.91546 9.17577ZM481.813 101.461C481.656 100.753 481.079 99.4759 481.254 95.1967C481.271 94.7911 481.668 96.9808 481.731 94.6172C481.773 96.9301 481.787 99.1825 481.814 101.461C481.814 101.461 481.813 101.461 481.813 101.461ZM21.6678 3.13534C18.6568 3.22317 15.6598 4.05391 13.0259 5.54245C14.7986 4.43939 16.7676 3.62991 18.8182 3.16585C19.7775 3.08265 20.7213 3.07481 21.6678 3.13534ZM259.022 140.99C259.019 140.99 259.016 140.99 259.013 140.99C262.379 140.915 265.747 140.841 269.113 140.766C268.759 140.821 268.404 140.876 268.05 140.931C265.393 141.017 262.734 141.104 260.084 141.19C259.731 141.123 259.376 141.057 259.022 140.99ZM232.429 141.571C230.28 141.505 230.806 141.395 229.624 141.288C229.624 141.289 229.624 141.289 229.624 141.289C229.311 141.261 227.858 141.237 227.296 141.233C227.503 141.301 227.771 141.369 227.995 141.438C222.981 141.604 213.175 141.012 225.871 140.774C225.681 140.86 225.499 140.947 225.31 141.034C231.619 141.01 238.652 141.198 232.429 141.571ZM481.563 50.7311C481.278 45.3455 481.218 43.6186 481.413 37.0851C481.494 38.008 481.575 38.931 481.655 39.8539C481.573 40.9327 481.491 42.0037 481.409 43.0826C481.409 43.0856 481.409 43.0887 481.409 43.0918C481.495 43.3075 481.582 43.5239 481.668 43.7311C481.633 46.0611 481.598 48.4011 481.563 50.7311ZM26.2722 141.365C24.7711 140.797 25.2042 141.127 29.4917 140.999C30.9762 140.954 29.5294 140.855 30.4529 140.838C35.4399 140.748 35.8387 141.129 34.7256 141.327C31.9033 141.34 29.0519 141.353 26.2814 141.365C26.2784 141.365 26.2752 141.365 26.2722 141.365ZM2.8735 27.7775C2.8735 27.7744 2.8735 27.7713 2.8735 27.7683C3.01214 27.6388 3.04944 29.6492 3.18079 27.3819C3.18028 29.1069 3.17918 30.8317 3.17866 32.5653C3.16574 32.0568 3.15343 31.5376 3.14051 31.0291C3.09291 31.4779 3.04469 31.9279 2.99709 32.3767C3.15645 32.9894 3.06382 33.5588 3.01051 35.3708C3.18075 34.8702 3.35111 34.3721 3.52135 33.8715C3.47065 35.9769 3.41978 38.09 3.36908 40.1954C3.32618 40.2213 3.2832 40.2478 3.2403 40.2736C3.29513 41.0674 3.35056 41.8531 3.40539 42.6468C3.35417 42.8626 3.30342 43.0704 3.2522 43.2861C3.291 44.2438 3.32977 45.203 3.36908 46.1607C3.24501 46.4522 3.19139 44.3414 3.22291 48.0832C3.09563 46.9354 2.96873 45.7901 2.84146 44.6337C2.8518 39.0152 2.86263 33.3959 2.8735 27.7775ZM65.2785 141.19C59.0905 141.214 60.8333 141.124 62.2659 140.843C63.2669 140.958 64.2776 141.074 65.2785 141.19ZM384.09 141.441C385.885 141.249 387.688 141.059 389.526 140.873C393.185 140.766 396.846 141.116 394.093 141.253C390.779 141.418 387.317 141.234 384.09 141.441ZM467.248 140.756C462.968 141.507 466.97 140.584 467.819 140.132C468.999 139.992 470.611 139.46 472.871 138.048C470.809 139.47 467.961 140.625 467.248 140.756C467.248 140.756 467.248 140.756 467.248 140.756ZM312.038 141.225C310.243 141.231 308.459 141.284 306.854 141.219C307.338 141.036 310.548 141.203 308.252 140.93C309.4 140.926 310.549 140.921 311.688 140.916C310.964 141.029 311.938 141.113 312.033 141.224C312.035 141.224 312.036 141.225 312.038 141.225ZM125.234 140.974C128.756 141.191 129.423 141.098 132.97 140.947C133.47 141.124 129.241 141.421 126.591 141.486C126.142 141.315 125.692 141.144 125.234 140.974ZM129.567 2.77103C130.412 2.54548 136.65 2.51607 139.749 2.58275C139.38 2.6162 139.01 2.6501 138.641 2.68406C135.62 2.71304 132.587 2.74206 129.567 2.77103ZM473.921 137.336C473.559 137.597 473.208 137.834 472.871 138.048C473.242 137.804 473.595 137.561 473.921 137.336ZM424.986 1.7164C426.461 1.50375 422.076 1.4323 427.4 1.5156C427.4 1.5154 427.4 1.5152 427.4 1.51499C430.922 1.56984 431.699 1.58449 434.962 1.60105C433.787 1.87423 427.169 1.97187 436.291 2.02827C436.411 2.02852 436.172 1.86597 437.629 1.8882C438.079 1.89512 439.519 2.02852 441.709 2.06733C442.416 2.07975 447.735 2.1209 440.485 2.12348C440.701 2.31391 440.312 2.50665 440.329 2.69139C437.499 2.74508 435.324 2.3722 432.331 2.38134C427.886 2.39583 425.624 2.77289 424.77 2.2782C428.507 2.15666 434.925 2.15374 435.762 2.45123C439.378 2.45485 440.416 2.21111 437.5 2.09053C425.012 2.24369 434.072 1.72874 423.137 1.9233C423.008 1.9921 422.558 2.06614 422.626 2.13081C419.289 1.88869 424.46 1.79246 424.986 1.7164ZM451.1 2.2425C448.943 2.3879 446.792 2.53448 444.643 2.6804C444.643 2.44341 445.828 2.23074 449.229 2.09724C449.849 2.14584 450.48 2.19441 451.1 2.2425ZM269.596 2.30475C269.285 2.43359 268.456 2.55166 267.852 2.6743C267.196 2.56564 251.661 2.46139 259.565 2.3548C260.712 2.33927 267.714 2.5671 269.596 2.30475ZM100.785 141.168C102.614 141.254 104.437 141.341 106.258 141.427C103.455 141.482 100.649 141.538 97.8458 141.594C98.828 141.452 99.8024 141.31 100.785 141.168ZM413.874 141.667C413.101 141.662 415.668 141.485 412.623 141.513C414.893 141.399 417.019 141.303 419.237 141.197C419.902 141.281 420.573 141.364 421.238 141.448C421.756 141.394 422.284 141.341 422.801 141.287C422.491 141.409 422.214 141.528 421.886 141.652C418.149 141.391 417.292 141.687 413.874 141.667ZM302.752 142.144C302.08 141.879 307.491 141.721 302.168 141.679C303.177 141.504 304.801 141.413 307.917 141.397C308.417 141.464 308.916 141.53 309.416 141.597C309.485 141.418 310.287 141.352 312.038 141.225C312.039 141.225 312.041 141.225 312.042 141.225C316.779 141.213 316.496 141.272 317.635 141.565C312.62 141.4 312.471 141.668 309.053 141.827C306.705 141.937 303.641 141.887 302.752 142.144ZM286.148 2.3017C282.602 2.52574 285.784 2.73471 279.493 2.4967C279.899 2.43977 280.306 2.38334 280.712 2.32642C282.524 2.31762 284.336 2.30946 286.148 2.3017ZM285.252 141.235C285.657 141.645 288.996 141.965 289.566 141.297C286.312 141.161 287.901 141.539 285.252 141.235ZM465.908 141.7C464.3 141.97 463.167 141.955 462.439 141.906C460.747 141.783 461.189 141.562 462.439 141.391C462.719 141.352 463.038 141.31 463.378 141.261C463.768 141.327 464.159 141.382 464.546 141.425C465.611 141.272 466.662 141.033 467.681 140.71C467.116 141.066 466.523 141.398 465.908 141.7ZM174.948 141.686C179.729 141.393 169.786 141.523 173.126 141.34C175.793 141.193 179.308 141.489 177.979 141.674C177.055 141.679 176.027 141.683 174.957 141.686C174.954 141.686 174.951 141.686 174.948 141.686ZM202.617 141.602C201.832 141.289 202.963 141.38 199.186 141.436C198.107 141.452 189.534 141.335 193.133 141.594C196.196 141.594 199.433 141.599 202.617 141.602ZM482.061 77.5402C482.197 77.4826 482.497 84.0839 482.422 84.9312C482.422 84.9312 482.423 84.9312 482.423 84.9312C482.218 87.2183 482.189 80.255 481.909 83.2754C482.156 76.5869 481.559 74.5859 482.345 75.052C482.38 78.992 482.218 77.1266 482.061 77.5402ZM47.6631 2.12837C47.66 2.12837 47.657 2.12837 47.6539 2.12837C48.0972 2.13479 51.7499 2.33514 51.3057 2.40454C46.9132 2.34504 47.696 2.21316 43.6066 2.42987C43.3824 2.36007 43.1903 2.29237 42.9489 2.22205C44.5715 2.18065 45.4709 2.0968 47.6631 2.12837ZM252.799 2.02949C254.413 1.99379 257.358 2.14174 259.197 2.13294C253.345 2.70111 246.352 2.17129 252.799 2.02949ZM2.89303 88.2944C2.89323 88.299 2.89343 88.3036 2.89364 88.3082C2.89333 88.3069 2.89303 88.305 2.89272 88.3036C2.89282 88.3006 2.89293 88.2975 2.89303 88.2944ZM377.867 2.37036C377.658 2.33348 377.541 2.30144 377.499 2.27332C377.499 2.27067 377.499 2.26803 377.499 2.26538C377.611 2.29992 377.731 2.33484 377.867 2.37036ZM482.02 63.8206C482.21 61.0712 482.513 70.2317 482.441 73.1939C482.354 72.9868 482.275 72.9545 482.175 72.4718C482.4 70.0809 481.988 64.278 482.02 63.8206ZM343.101 141.568C350.342 141.574 340.918 142.325 340.53 141.726C340.545 141.714 342.914 141.57 343.101 141.568ZM482.098 120.925C482.261 122.244 482.338 120.725 482.355 121.918C482.354 122.393 482.372 123.301 482.115 124.965C482.005 125.297 481.886 125.623 481.759 125.943C482.015 124.617 482.132 123.265 482.112 121.918C482.108 121.587 482.103 121.256 482.098 120.925ZM390.538 142.555C399.651 142.429 408.368 142.205 402.431 141.577C401.742 141.597 401.042 141.617 400.352 141.637C400.249 141.943 397.704 141.776 393.978 141.766C393.447 141.888 391.381 141.916 390.993 142.019C390.243 142.219 392.617 142.359 390.538 142.555ZM7.53012 135.458C7.6682 135.532 7.80462 135.602 7.9431 135.672C8.97725 136.676 10.1181 137.567 11.3327 138.319C11.0854 138.273 10.8372 138.221 10.5891 138.164C9.48329 137.369 8.46193 136.466 7.53612 135.465C7.53412 135.462 7.53212 135.46 7.53012 135.458ZM459.982 1.59647C459.478 1.94669 460.353 2.04443 462.439 2.00168C463.771 1.97691 465.626 2.00804 467.888 2.52068C466.129 1.98457 464.292 1.69242 462.439 1.65178C461.619 1.63335 460.8 1.61491 459.982 1.59647ZM244.088 142.322C243.898 142.159 243.712 141.996 243.513 141.832C240.398 142.003 240.976 142.19 242.469 142.406C243.013 142.378 243.545 142.35 244.088 142.322ZM199.209 142.392C200.501 142.426 199.842 142.294 199.977 142.297C203.248 142.366 203.709 142.426 207.722 142.327C208.214 142.292 208.697 142.256 209.189 142.22C207.334 141.878 205.987 142.065 202.06 141.863C202.768 141.981 203.473 142.098 204.181 142.216C201.997 142.192 199.823 142.167 197.64 142.142C197.381 142.178 197.122 142.214 196.863 142.251C197.64 142.297 198.441 142.349 199.209 142.392ZM2.4481 119.997C2.46156 117.874 2.47554 115.741 2.48899 113.618C2.40466 113.54 2.31975 113.466 2.23541 113.388C2.30628 115.588 2.37723 117.797 2.4481 119.997ZM416.39 1.8586C416.222 1.88852 416.057 1.91862 415.912 1.94924C415.926 1.91193 416.11 1.8828 416.39 1.8586ZM42.0612 1.66574C39.6536 1.60676 36.1843 1.64549 33.5434 1.63309C33.751 1.84468 40.4631 1.78619 42.8201 1.91445C43.1988 1.87648 43.0789 1.69056 42.0612 1.66574ZM457.254 141.98C456.65 142.085 456.047 142.19 455.452 142.296C453.993 142.285 452.531 142.273 451.064 142.261C451.021 142.348 450.978 142.435 450.935 142.521C457.398 142.409 455.908 142.658 459.108 142.904C458.487 142.596 457.876 142.288 457.254 141.98ZM1.90003 52.4432C1.95851 57.1124 2.06772 58.7686 2.32695 56.1364C2.26747 54.4886 2.20792 52.8309 2.14844 51.1831C2.06566 51.6058 1.98281 52.0291 1.90003 52.4432ZM331.354 1.6633C327.447 1.76017 327.382 1.41226 323.563 1.60654C325.608 1.67069 327.653 1.73556 329.689 1.79971C330.24 1.75435 330.804 1.70866 331.354 1.6633ZM483.649 51.0485C483.77 49.4 483.194 46.3186 483.619 41.6844C483.492 40.58 483.371 39.8878 483.247 38.9386C483.382 38.3862 483.519 37.7588 483.653 37.2323C483.653 37.2292 483.653 37.2262 483.653 37.2231C483.607 33.0199 483.438 35.7451 483.295 35.6502C483.235 35.6056 483.335 32.4861 483.205 33.4609C482.983 35.1439 483.111 41.4326 482.84 41.4498C482.929 39.2404 482.855 34.926 482.674 36.2021C482.476 37.6001 482.808 41.6661 482.644 44.2554C483.076 40.545 482.943 48.2083 482.611 49.08C482.866 53.5765 482.97 49.4436 482.958 44.8349C483.212 47.6484 483.075 43.507 483.286 42.825C483.414 45.7263 483.308 55.6827 483.649 51.0485ZM352.58 142.659C355.688 142.642 360.543 142.788 362.671 142.573C363.91 142.448 359.043 142.351 362.399 142.154C359.371 142.173 358.681 142.25 359.198 142.422C358.508 142.443 357.81 142.463 357.12 142.483C356.8 142.45 356.473 142.417 356.154 142.383C355.791 142.454 355.427 142.524 355.073 142.595C354.34 142.581 353.598 142.567 352.865 142.553C352.779 142.588 352.632 142.619 352.58 142.659ZM219.165 1.67398C220.027 1.67191 220.882 1.66985 221.745 1.66727C221.65 1.62531 221.537 1.58161 221.428 1.53849C221.349 1.50441 221.271 1.47034 221.193 1.43626C221.693 1.55801 225.804 1.76036 227.535 1.63034C228.406 1.56512 226.425 1.33356 230.116 1.29314C227.441 1.30505 224.963 1.33665 222.366 1.35631C222.599 1.28749 222.823 1.21793 223.056 1.14911C223.054 1.149 223.053 1.1489 223.051 1.1488C222.188 1.13328 221.315 1.11702 220.452 1.1015C220.021 1.29244 219.596 1.48304 219.165 1.67398ZM246.618 142.645C249.561 142.51 250.546 142.44 249.157 142.222C249.154 142.222 249.15 142.222 249.147 142.222C248.051 142.318 246.955 142.415 245.859 142.512C246.109 142.556 246.359 142.601 246.618 142.645ZM391.039 1.13781C384.782 1.96728 398.873 1.45881 396.19 1.17627C396.069 1.16333 391.626 1.22941 391.039 1.13781ZM467.098 141.717C465.577 142.08 464.011 142.265 462.439 142.271C462.258 142.272 462.076 142.272 461.895 142.273C462.075 142.319 462.257 142.365 462.439 142.412C462.665 142.467 462.893 142.519 463.118 142.568C464.478 142.416 465.815 142.129 467.098 141.717ZM1.52347 72.772C1.29578 74.5797 1.21329 79.2199 1.46091 81.4875C1.48989 80.2965 1.5189 79.105 1.54788 77.9139C1.57633 80.1656 1.60765 82.3921 1.63455 84.661C1.95175 84.7818 1.76773 82.1669 1.85518 78.2313C1.86928 77.6219 2.26302 73.7262 1.96625 72.381C1.90526 72.1104 1.86378 76.2546 1.68642 73.3745C1.67247 74.6339 1.67556 75.7209 1.66781 76.9113C1.59226 76.9976 1.51662 77.0831 1.44107 77.178C1.46843 75.706 1.49611 74.2439 1.52347 72.772ZM370.674 142.634C374.942 142.651 375.469 142.525 376.358 142.301C374.373 142.326 372.387 142.351 370.402 142.376C370.497 142.462 370.579 142.548 370.674 142.634ZM1.45084 110.927C1.4142 113.264 1.59653 112.263 1.63119 113.204C1.75171 116.491 1.64948 118.811 1.69787 121.918C1.70183 122.183 1.71175 122.452 1.72844 122.726C1.68411 122.486 1.6465 122.265 1.61104 122.03C1.61106 122.034 1.61108 122.037 1.61109 122.04C1.98816 130.198 4.47485 131.982 3.85263 131.218C3.52548 130.434 1.76838 126.629 1.81063 121.918C1.81006 121.281 1.80772 120.633 1.8033 119.979C1.87109 119.746 1.93896 119.522 2.00623 119.289C1.88774 114.836 1.77372 110.729 1.45084 110.927ZM446.63 1.10944C446.44 1.067 448.054 0.797356 445.025 0.923592C442.626 1.31729 446.56 1.12188 447.545 1.27331C446.725 1.31108 445.887 1.34783 445.075 1.38561C449.978 1.49686 450.693 1.40325 448.907 1.11554C448.779 1.0962 446.82 1.15173 446.63 1.10944ZM414.412 0.915353C413.739 1.49543 419.926 1.23458 419.701 1.05451C418.847 1.04733 418.183 1.14554 417.278 1.10211C416.363 1.05865 416.129 0.923156 414.412 0.915353ZM483.299 119.725C483.302 119.543 483.546 117.722 483.355 117.903C483.136 118.994 483.091 120.62 483.121 121.918C483.153 123.347 483.118 124.403 483.25 123.987C483.32 123.223 483.328 122.581 483.314 121.918C483.299 121.258 483.287 120.579 483.3 119.725C483.3 119.725 483.299 119.725 483.299 119.725ZM1.38675 44.6153C1.37057 44.7015 1.27258 49.2445 1.36356 49.8309C1.466 50.314 1.57579 50.5539 1.68184 50.9163C1.58353 48.4134 1.65842 43.3471 1.38675 44.6245C1.38675 44.6215 1.38675 44.6184 1.38675 44.6153Z" fill="var(--stroke-0, black)"/>
<g id="Group 4">
<path id="Vector" d="M99.0013 21.9177H45.8763C32.9322 21.9177 22.4388 32.411 22.4388 45.3552V98.4802C22.4388 111.424 32.9322 121.918 45.8763 121.918H99.0013C111.946 121.918 122.439 111.424 122.439 98.4802V45.3552C122.439 32.411 111.946 21.9177 99.0013 21.9177Z" fill="var(--fill-0, #00FFB2)"/>
<path id="Vector_2" d="M99.0013 21.9177H45.8763C32.9322 21.9177 22.4388 32.411 22.4388 45.3552V98.4802C22.4388 111.424 32.9322 121.918 45.8763 121.918H99.0013C111.946 121.918 122.439 111.424 122.439 98.4802V45.3552C122.439 32.411 111.946 21.9177 99.0013 21.9177Z" fill="var(--fill-0, #00FFB2)"/>
<path id="Vector_3" d="M72.4424 32.8552C61.8338 32.8552 60.5022 32.9017 56.3358 33.0911C52.1772 33.2817 49.3385 33.9399 46.8549 34.906C44.2854 35.9036 42.1061 37.2384 39.935 39.4103C37.7619 41.5817 36.4272 43.761 35.4264 46.3294C34.4576 48.8138 33.7987 51.6536 33.6115 55.8103C33.4252 59.9771 33.3764 61.3091 33.3764 71.9181C33.3764 82.5271 33.4233 83.8544 33.6123 88.0208C33.8037 92.1794 34.4619 95.0181 35.4272 97.5017C36.4256 100.071 37.7604 102.25 39.9322 104.422C42.1029 106.595 44.2822 107.933 46.8498 108.93C49.3354 109.896 52.1744 110.554 56.3322 110.745C60.499 110.934 61.8295 110.981 72.4377 110.981C83.0475 110.981 84.3748 110.934 88.5412 110.745C92.6998 110.554 95.5416 109.896 98.0272 108.93C100.596 107.933 102.772 106.595 104.942 104.422C107.115 102.25 108.449 100.071 109.451 97.5028C110.411 95.0181 111.07 92.1786 111.265 88.0216C111.453 83.8552 111.501 82.5271 111.501 71.9181C111.501 61.3091 111.453 59.9778 111.265 55.811C111.07 51.6524 110.411 48.8142 109.451 46.3306C108.449 43.761 107.115 41.5817 104.942 39.4103C102.769 37.2376 100.596 35.9028 98.0248 34.9064C95.5346 33.9399 92.6944 33.2814 88.5358 33.0911C84.369 32.9017 83.0424 32.8552 72.4303 32.8552H72.4424ZM68.9381 39.8946C69.9783 39.8931 71.1389 39.8946 72.4424 39.8946C82.8725 39.8946 84.1084 39.9321 88.2272 40.1192C92.0358 40.2935 94.1029 40.9298 95.4799 41.4646C97.3029 42.1724 98.6026 43.0189 99.969 44.3864C101.336 45.7536 102.182 47.0556 102.892 48.8786C103.427 50.2536 104.064 52.3208 104.237 56.1294C104.424 60.2474 104.465 61.4841 104.465 71.9091C104.465 82.3341 104.424 83.5712 104.237 87.6888C104.063 91.4974 103.427 93.5646 102.892 94.9399C102.184 96.763 101.336 98.061 99.969 99.4274C98.6018 100.795 97.3037 101.641 95.4799 102.349C94.1045 102.886 92.0358 103.521 88.2272 103.695C84.1092 103.882 82.8725 103.923 72.4424 103.923C62.0119 103.923 60.7756 103.882 56.658 103.695C52.8494 103.519 50.7822 102.883 49.4041 102.348C47.5815 101.64 46.2791 100.794 44.9119 99.4267C43.5447 98.0595 42.6987 96.7607 41.9889 94.9368C41.4541 93.5614 40.817 91.4942 40.6436 87.6856C40.4565 83.5677 40.419 82.331 40.419 71.8993C40.419 61.4677 40.4565 60.2376 40.6436 56.1196C40.8178 52.311 41.4541 50.2439 41.9889 48.8669C42.6971 47.0439 43.5447 45.7419 44.9123 44.3747C46.2799 43.0075 47.5815 42.161 49.4045 41.4517C50.7815 40.9146 52.8494 40.2798 56.658 40.1048C60.2615 39.9419 61.658 39.8931 68.9381 39.8849V39.8946ZM93.294 46.3806C90.7061 46.3806 88.6065 48.4782 88.6065 51.0665C88.6065 53.6544 90.7061 55.754 93.294 55.754C95.8819 55.754 97.9815 53.6544 97.9815 51.0665C97.9815 48.4786 95.8819 46.379 93.294 46.379V46.3806ZM72.4424 51.8575C61.3643 51.8575 52.3822 60.8396 52.3822 71.9181C52.3822 82.9966 61.3643 91.9743 72.4424 91.9743C83.5209 91.9743 92.4998 82.9966 92.4998 71.9181C92.4998 60.8399 83.5201 51.8575 72.4416 51.8575H72.4424ZM72.4424 58.897C79.6334 58.897 85.4635 64.7263 85.4635 71.9181C85.4635 79.1091 79.6334 84.9392 72.4424 84.9392C65.2514 84.9392 59.4217 79.1091 59.4217 71.9181C59.4217 64.7263 65.251 58.897 72.4424 58.897Z" fill="var(--fill-0, white)"/>
</g>
<path id="Vector_4" d="M242.439 23.152C214.828 23.152 192.439 45.5376 192.439 73.1524C192.439 95.2438 206.765 113.986 226.632 120.598C229.131 121.061 230.049 119.513 230.049 118.192C230.049 117 230.002 113.061 229.981 108.884C216.07 111.908 213.135 102.984 213.135 102.984C210.861 97.2047 207.583 95.6676 207.583 95.6676C203.047 92.5645 207.926 92.6286 207.926 92.6286C212.946 92.9809 215.59 97.7809 215.59 97.7809C220.05 105.425 227.287 103.215 230.14 101.937C230.589 98.7059 231.885 96.4997 233.315 95.2512C222.209 93.9872 210.535 89.6997 210.535 70.5411C210.535 65.0821 212.488 60.6215 215.686 57.12C215.167 55.8606 213.456 50.7755 216.17 43.888C216.17 43.888 220.369 42.5442 229.924 49.0133C233.913 47.9055 238.19 47.3501 242.439 47.3309C246.688 47.3501 250.969 47.9051 254.965 49.0133C264.508 42.5446 268.701 43.8883 268.701 43.8883C271.423 50.7751 269.711 55.861 269.192 57.12C272.397 60.6215 274.337 65.0821 274.337 70.5411C274.337 89.7454 262.64 93.9739 251.506 95.2118C253.3 96.7633 254.898 99.8063 254.898 104.471C254.898 111.161 254.84 116.545 254.84 118.192C254.84 119.523 255.74 121.082 258.274 120.591C278.13 113.972 292.439 95.2368 292.439 73.1528C292.439 45.5376 270.053 23.152 242.439 23.152ZM211.166 94.3786C211.056 94.627 210.665 94.7016 210.309 94.5309C209.946 94.368 209.742 94.0294 209.86 93.7801C209.967 93.5243 210.359 93.4528 210.721 93.6243C211.084 93.7876 211.291 94.1294 211.166 94.3786ZM213.625 96.5731C213.387 96.7942 212.92 96.6915 212.604 96.3423C212.277 95.9938 212.216 95.5274 212.458 95.3032C212.704 95.0821 213.156 95.1856 213.483 95.534C213.811 95.8868 213.874 96.3497 213.625 96.5731ZM215.313 99.3809C215.006 99.5938 214.505 99.3942 214.195 98.9497C213.889 98.5051 213.889 97.9719 214.202 97.7583C214.513 97.5446 215.006 97.7368 215.32 98.1782C215.625 98.6301 215.625 99.1633 215.312 99.3813M218.165 102.633C217.892 102.936 217.308 102.854 216.88 102.442C216.443 102.039 216.322 101.467 216.597 101.165C216.874 100.861 217.461 100.947 217.892 101.356C218.325 101.758 218.458 102.334 218.165 102.633ZM221.854 103.731C221.733 104.123 221.17 104.301 220.604 104.134C220.038 103.963 219.669 103.504 219.783 103.109C219.9 102.714 220.465 102.529 221.035 102.707C221.6 102.877 221.971 103.333 221.854 103.731M226.051 104.197C226.065 104.609 225.585 104.951 224.99 104.959C224.392 104.972 223.908 104.639 223.902 104.232C223.902 103.816 224.371 103.478 224.969 103.468C225.564 103.456 226.051 103.787 226.051 104.197ZM230.174 104.039C230.245 104.441 229.832 104.855 229.241 104.965C228.661 105.071 228.124 104.822 228.05 104.423C227.978 104.011 228.399 103.598 228.978 103.491C229.569 103.388 230.098 103.63 230.174 104.039Z" fill="var(--fill-0, #FCD116)"/>
<path id="Vector_5" d="M447.644 107.124H432.827V83.9195C432.827 78.3863 432.728 71.2632 425.12 71.2632C417.403 71.2632 416.222 77.2921 416.222 83.5168V107.122H401.406V59.405H415.63V65.9261H415.829C417.253 63.4922 419.31 61.49 421.781 60.1326C424.252 58.7752 427.046 58.1135 429.863 58.2179C444.881 58.2179 447.65 68.0961 447.65 80.9468L447.644 107.124ZM384.687 52.8828C379.938 52.8836 376.088 49.0343 376.087 44.2855C376.086 39.5367 379.935 35.6863 384.684 35.6855C389.433 35.6843 393.283 39.5336 393.284 44.2824C393.285 46.5629 392.379 48.7501 390.767 50.363C389.155 51.9759 386.968 52.8823 384.687 52.8828ZM392.096 107.124H377.263V59.405H392.095L392.096 107.124ZM455.03 21.925H369.818C365.791 21.8796 362.488 25.1058 362.439 29.1332V114.701C362.486 118.73 365.789 121.959 369.818 121.917H455.03C459.068 121.967 462.383 118.738 462.439 114.701V29.1265C462.381 25.0914 459.066 21.8656 455.03 21.9183" fill="var(--fill-0, #00FFB2)"/>
</g>
</svg>
