<svg preserveAspectRatio="none" width="100%" height="100%" overflow="visible" style="display: block;" viewBox="0 0 603.936 141.85" fill="none" xmlns="http://www.w3.org/2000/svg">
<g id="Subtract">
<path d="M601.859 89.9319C601.859 117.546 579.473 139.932 551.859 139.932H32.0617C15.381 139.932 1.85859 126.409 1.85859 109.729V105.21C1.85859 77.8338 36.5662 66.034 53.2522 87.7376C58.6785 94.7956 67.0761 98.9319 75.9789 98.9319H438.359C465.144 98.9319 486.859 77.2177 486.859 50.4319C486.859 23.6461 508.573 1.93187 535.359 1.93187H551.859C579.473 1.93187 601.859 24.3176 601.859 51.9319V89.9319Z" fill="var(--fill-0, #C8FF00)"/>
<path d="M599.842 52.5741C599.756 53.781 599.724 52.9839 599.699 51.9319C599.65 50.3308 599.559 48.1512 599.44 51.9319C599.436 52.0153 599.432 52.1016 599.428 52.1907C599.426 52.1045 599.425 52.0182 599.424 51.9319C599.402 50.6168 599.327 49.3142 599.199 48.0131C599.295 47.6528 599.386 47.2843 599.473 46.9188C599.678 48.5731 599.798 50.2429 599.831 51.9319C599.835 52.1458 599.839 52.3599 599.843 52.5741C599.842 52.5741 599.842 52.5741 599.842 52.5741ZM601.404 55.2469C601.246 54.4517 601.14 52.8891 601.042 51.9319C600.946 51.0524 600.858 50.6974 600.755 51.9319C600.715 52.3742 600.673 53.0177 600.625 53.9105C600.747 54.3999 600.869 54.9012 600.991 55.3906C600.896 57.5285 600.802 59.6793 600.708 61.8172C600.754 62.5859 600.801 63.3538 600.847 64.1226C600.635 65.1016 600.422 66.072 600.209 67.051C600.24 66.1817 600.272 65.3007 600.303 64.4314C600.131 60.9949 600.084 57.937 600.052 53.2716C600.001 53.6812 599.952 54.0918 599.901 54.5015C599.932 53.6447 599.963 52.788 599.994 51.9319C600.049 50.4696 600.039 49.0178 599.963 47.5644C600.15 48.9655 600.283 50.4908 600.343 51.9319C600.367 52.5249 600.391 53.1006 600.413 53.6443C600.469 53.1317 600.51 52.5531 600.54 51.9319C600.719 48.9421 600.138 44.9671 599.63 42.7717C598.778 39.1811 599.095 39.9571 598.264 37.3482C598.121 36.9338 597.992 36.9227 597.712 36.1081C596.463 31.9158 592.142 24.5828 594.86 28.7576C598.205 35.1254 600.175 41.1332 600.668 48.2174C600.785 46.7555 601.177 48.6179 601.304 51.9319C601.337 52.9285 601.37 54.051 601.404 55.2469ZM502.697 16.6631C504.113 15.0075 507.6 12.2278 510.211 10.7601C510.214 10.7583 510.217 10.7564 510.22 10.7546C510.791 10.4216 512.167 9.83296 510.344 10.9504C507.414 12.8229 505.905 13.6697 504.656 15.0347C504.008 15.5401 503.345 16.0944 502.697 16.6631ZM497.689 22.3865C496.369 24.0821 496.68 23.1108 498.404 21.0175C498.404 21.0173 498.404 21.0172 498.403 21.0171C499.15 20.1687 497.844 21.9644 500.339 18.7779C501.012 18.2723 501.676 17.7864 502.358 17.3249C501.666 18.0199 501.054 18.6733 500.372 19.444C500.639 18.7521 499.026 20.7047 497.689 22.3865ZM592.878 25.6819C592.488 25.5284 593.302 26.6996 594.313 28.8894C593.236 26.8925 592.018 24.9728 590.677 23.1542C591.439 23.9702 592.17 24.8085 592.878 25.6819ZM600.516 78.6208C600.516 78.6244 600.516 78.6279 600.516 78.6315C600.553 79.4008 600.59 80.1723 600.627 80.9316C600.543 81.3913 600.459 81.8457 600.374 82.3053C600.448 84.8427 600.522 87.3928 600.597 89.9319C600.602 90.1088 600.606 90.2856 600.61 90.4621C600.566 90.4059 600.533 90.2181 600.503 89.9319C600.363 88.5271 600.366 84.8015 600.217 82.5768C600.294 78.5807 600.444 76.655 600.662 76.3953C600.614 77.1344 600.564 77.8718 600.516 78.6208ZM59.6956 94.2411C58.8954 93.7838 58.1231 93.2938 57.3643 92.7587C58.292 93.5684 59.2683 94.309 60.2996 95.0074C63.2522 96.3822 63.3619 96.8573 67.4068 98.2174C71.5753 99.432 74.1444 99.386 75.9789 99.3624C79.641 99.2539 80.6879 99.1952 88.4111 99.6671C79.1308 99.6335 82.6972 99.9654 77.1022 100.221C75.9432 100.026 81.4873 99.5876 77.7305 99.4965C77.1449 99.5152 76.5613 99.5337 75.9789 99.552C70.0122 99.7165 63.9555 98.1655 58.3859 94.2711C58.5416 94.4269 58.6987 94.5808 58.8584 94.7336C59.8429 95.3963 60.8573 95.9945 61.9111 96.5349C60.7427 96.0106 59.6269 95.425 58.5074 94.7385C59.9595 95.5436 56.5096 93.1382 57.1257 93.2722C57.3795 93.3587 58.9187 94.3706 59.8817 94.8613C57.5871 93.298 55.4672 91.3652 53.7013 89.202C54.701 90.2499 55.7753 91.2185 56.9022 92.0925C57.786 92.8613 58.7086 93.5716 59.6783 94.2282C59.6841 94.2325 59.6899 94.2368 59.6956 94.2411ZM482.224 138.53C478.787 138.773 472.541 138.813 469.254 138.542C473.58 138.538 477.898 138.534 482.224 138.53ZM600.842 76.1344C600.801 76.5235 600.76 76.9006 600.719 77.2898C600.642 75.5716 600.566 73.8433 600.49 72.1251C600.609 71.7955 600.729 71.4584 600.847 71.1188C600.846 72.7869 600.844 74.4663 600.842 76.1344ZM544.677 3.08123C545.934 3.074 546.045 3.07792 547.611 3.09497C547.609 3.09486 547.607 3.09476 547.606 3.09466C548.017 3.09889 550.443 3.13105 551.859 3.17909C552.563 3.2038 553.007 3.24578 552.817 3.27205C552.501 3.26614 552.181 3.26315 551.859 3.26325C549.571 3.26399 547.18 3.2628 544.874 3.2628C544.794 3.20229 544.777 3.14226 544.677 3.08123ZM573.667 8.26714C573.67 8.26887 573.673 8.27061 573.676 8.27234C574.489 8.69554 575.238 9.12896 576.056 9.60279C573.017 8.08809 572.634 7.63666 569.747 6.52484C566.835 5.47805 564.973 5.09478 562.497 4.16269C563.464 4.32192 564.503 4.50702 565.493 4.72819C569.669 6.15579 570.795 6.53204 574.053 7.95195C573.923 8.05658 573.796 8.16169 573.667 8.26714ZM115.858 99.9674C116.717 99.7915 117.676 99.9641 117.775 99.9662C117.773 99.9664 117.771 99.9666 117.77 99.9668C125.38 99.8039 116.779 100.064 123.962 100.092C122.893 100.136 121.842 100.182 120.783 100.226C119.145 100.142 117.456 100.046 115.858 99.9674ZM363.138 99.9839C363.208 100.035 363.291 100.086 363.361 100.138C359.045 100.126 357.944 100.327 354.358 100.144C357.285 100.09 360.211 100.037 363.138 99.9833C363.138 99.9835 363.138 99.9837 363.138 99.9839ZM523.251 4.25785C527.625 3.04947 531.059 2.60144 535.359 2.70719C535.519 2.71221 535.681 2.71747 535.844 2.72298C535.848 2.72318 535.851 2.72338 535.855 2.72359C536.011 2.72924 535.627 2.76903 535.359 2.80619C535.175 2.8319 535.047 2.85725 535.186 2.86762C535.244 2.86644 535.301 2.86532 535.359 2.86427C536.252 2.84829 537.17 2.82547 538.07 2.8075C538.199 2.89333 538.323 2.97914 538.453 3.06445C537.422 3.05515 536.391 3.04586 535.359 3.03657C533.722 3.02157 532.09 3.08943 530.465 3.24073C530.858 3.25091 531.259 3.26479 531.652 3.28474C529.422 3.48348 527.212 3.83899 525.036 4.35081C525.767 4.04352 526.5 3.75569 527.242 3.48515C525.904 3.68468 524.567 3.94451 523.251 4.25785ZM291.28 99.4233C292.039 99.4792 290.633 99.5729 291.812 99.6211C292.992 99.6686 295.165 99.5643 294.656 99.7221C293.068 99.7433 291.401 99.7676 289.784 99.7898C294.989 100.074 300.182 99.8169 300.262 100.168C295.267 100.077 291.159 100.119 286.323 100.217C286.523 99.9378 291.36 99.6967 288.314 99.4349C289.293 99.4313 290.321 99.426 291.269 99.4239C291.273 99.4237 291.277 99.4235 291.28 99.4233ZM574.616 137.234C571.864 138.666 565.114 141.101 561.192 141.514C560.228 141.676 556.998 141.552 557.011 141.462C557.088 141.236 560.904 140.752 556.791 141.07C558.173 140.936 559.497 140.748 560.855 140.504C560.585 140.395 560.319 140.283 560.063 140.169C558.431 140.457 556.781 140.665 555.125 140.794C555.041 140.748 554.956 140.702 554.872 140.655C560.799 140.136 557.285 140.262 560.296 139.657C557.499 140.035 554.658 140.175 551.859 140.081C553.479 140.097 555.38 140.004 556.795 139.875C556.962 139.618 553.591 139.92 553.011 139.853C551.375 139.717 554.724 139.775 558.582 139.197C562.451 138.674 566.726 137.3 567.293 136.89C564.787 137.671 562.092 138.279 559.437 138.644C560.192 138.48 560.949 138.297 561.687 138.099C567.681 137.166 574.219 134.702 580.169 130.75C580.692 130.373 581.208 129.985 581.709 129.595C581.487 129.614 581.274 129.625 581.053 129.641C581.822 129.057 582.583 128.444 583.316 127.816C581.316 129.878 584.545 127.584 588.034 124.251C586.385 126.225 583.907 128.213 584.235 128.262C590.932 122.507 597.087 113.76 599.436 105.455C599.988 103.399 599.831 103.352 600.804 98.4827C600.811 98.6553 600.87 98.6952 600.898 98.8114C601.424 95.5055 601.569 92.6686 601.542 89.9319C601.494 85.5947 601.497 81.4934 601.595 75.9906C601.477 76.5099 601.358 77.0207 601.239 77.54C601.298 79.4484 601.358 81.36 601.417 83.2584C601.222 84.5569 601.135 82.6377 601.137 88.3325C601.138 89.0114 601.14 89.5327 601.143 89.9319C601.138 92.251 601.233 90.4026 601.26 91.4756C601.283 93.1748 601.015 94.6505 600.866 96.4745C600.72 97.877 601.18 96.4048 600.456 100.029C600.551 98.534 600.576 97.007 600.532 95.5141C600.68 94.6289 600.803 93.7602 600.903 92.866C600.905 93.7762 600.885 94.6575 600.837 95.5699C600.993 93.6626 601.037 91.8186 600.979 89.9319C600.939 88.653 600.899 87.3578 600.857 86.0164C601.159 87.1055 601.046 83.646 601.01 81.7675C600.955 78.8415 601.163 81.3483 601.128 79.4301C601.093 77.5119 600.86 75.4429 600.91 71.976C601.045 73.8342 601.165 71.3065 601.289 71.795C601.414 72.2845 601.441 75.9517 601.576 72.4286C601.474 65.6545 601.001 73.0052 600.924 68.43C600.832 62.9352 601.603 61.6276 601.768 63.2654C601.899 64.5543 601.873 68.9893 602.003 70.2882C602.237 62.3452 601.774 62.2762 601.684 60.9173C601.354 55.9818 602.234 59.2971 601.916 53.4526C602.08 53.5625 602.228 53.6515 602.386 53.7614C602.366 53.0886 602.341 52.5666 602.32 51.9319C602.31 51.6105 602.297 51.2614 602.281 50.8523C602.25 51.3125 602.216 51.6671 602.186 51.9319C602.068 52.9412 602.019 52.6315 601.999 51.9319C601.984 51.376 601.972 50.5804 601.948 50.0005C601.841 47.6259 601.844 51.2993 601.771 50.6714C601.64 48.9851 601.427 46.3117 601.43 47.9585C601.438 47.2219 601.423 46.4203 601.393 45.6585C601.038 42.8733 598.829 36.7747 600.296 42.7248C599.946 42.2137 599.662 40.2569 599.277 38.7582C598.89 37.2632 598.74 37.3402 598.34 36.046C596.574 30.9564 598.071 34.1386 598.583 34.8847C595.63 28.3321 598.752 34.5912 593.654 25.6342C592.991 24.8851 595.295 29.0168 593.151 25.7173C592.996 24.9715 591.752 22.2567 587.939 17.9884C587.507 17.6333 587.071 17.2877 586.629 16.9488C584.563 14.6285 586.028 15.3177 581.256 12.0389C584.088 13.4504 582.3 12.2791 578.036 9.26554C577.158 8.66344 579.321 9.83941 578.093 8.99951C577.535 8.61885 576.074 7.87233 574.642 7.06057C573.958 6.64104 570.632 4.81123 568.097 4.11649C569.792 5.03118 565.068 3.69177 568.946 5.30972C561.648 2.71433 556.132 2.29847 564.762 3.6299C562.877 3.02905 560.947 2.53927 558.99 2.16577C557.608 2.0452 556.213 1.98046 554.818 1.97379C554.655 1.7678 554.781 1.62105 551.859 1.58942C551.201 1.58933 550.389 1.5937 549.384 1.60212C550.21 1.58074 551.034 1.55923 551.859 1.53767C553.407 1.49781 554.947 1.52679 556.498 1.6277C556.582 1.58267 556.918 1.56057 556.844 1.50251C555.739 1.43006 553.871 1.32413 551.859 1.35319C548.598 1.3957 544.976 1.42841 543.745 1.47121C541.767 1.54003 545.587 1.55886 545.018 1.62562C540.273 2.17607 540.649 1.77009 537.244 1.86456C535.246 1.92044 540.017 1.98113 538.948 2.00493C537.54 2.03592 536.401 2.019 535.359 1.98412C533.462 1.92817 531.886 1.87556 529.625 2.13035C530.892 2.14877 532.134 2.22154 533.35 2.33935C529.695 2.46362 525.636 3.13016 522.382 4.11226C521.106 4.49972 522.109 4.34005 521.902 4.40808C520.861 4.69608 516.781 6.2897 516.376 6.51879C513.207 7.96069 513.034 7.86452 510.108 9.59386C511.234 8.87944 512.325 8.25004 513.479 7.64219C513.881 7.12462 514.309 6.60618 514.739 6.09981C511.654 7.51439 508.716 9.25411 505.98 11.2855C508.026 9.86339 510.181 8.59647 512.409 7.50857C509.103 9.53337 506.065 11.9432 503.371 14.6554C501.798 15.878 500.3 17.1977 498.878 18.6171C495.425 22.8359 496.667 22.361 494.797 24.2016C493.961 25.5684 493.193 26.9753 492.499 28.4128C492.541 28.178 492.584 27.9451 492.631 27.7102C491.759 29.4362 490.992 31.2152 490.338 33.0271C491.299 31.2279 492.367 29.5401 493.515 27.9159C491.837 31.2522 491.723 31.2817 491.431 31.7667C490.699 33.0709 489.9 35.9242 489.469 37.023C489.287 37.3903 490.299 33.8331 489.751 34.992C489.609 35.1909 487.574 39.8325 487.295 43.0601C487.409 43.0167 487.576 42.7917 487.71 42.6824C487.12 46.9079 486.649 49.088 486.484 48.5116C486.489 49.1021 486.496 49.7641 486.515 50.4319C486.578 52.3388 486.463 54.2608 486.556 54.6189C486.461 55.7754 486.324 56.9332 486.145 58.0822C485.956 56.8324 485.172 61.59 485.379 61.9762C485.865 60.0306 486.228 58.0514 486.468 56.0623C486.594 56.8443 486.903 55.7215 486.942 55.9797C486.914 56.222 487.025 57.9618 485.15 64.0786C484.283 66.3617 486.289 59.9008 485.616 61.7764C484.718 65.096 483.701 68.1834 482.167 71.071C480.082 74.5577 482.63 70.2764 477.76 78.3383C488.488 60.3579 478.111 82.1966 469.604 88.0475C467.128 89.235 460.513 94.5958 449.435 97.421C450.632 97.348 454.058 96.2613 455.987 95.5286C457.921 94.8032 455.896 95.7699 458.3 94.8171C460.724 93.9004 465.537 91.1939 467.677 89.6458C466.113 91.306 456.427 96.6711 462.727 92.9648C457.872 95.4081 455.455 96.3451 448.956 97.9051C447.042 98.5152 447.253 98.9739 440.682 99.4544C444.529 98.8827 437.104 98.9538 438.737 98.485C443.306 98.4323 440.78 98.9033 443.452 98.8696C443.74 98.9025 447.987 98.1701 448.956 97.9051C444.625 98.4619 443.155 98.3609 445.701 97.6367C442.719 98.1253 440.826 98.1111 440.561 98.3245C439.929 98.2697 439.293 98.2026 438.671 98.1232C438.566 98.1241 438.462 98.1247 438.359 98.1251C437.483 98.1279 436.665 98.1339 435.719 98.1325C437.177 98.4221 434.352 98.2438 432.344 98.3751C430.335 98.5065 433.03 98.7351 427.515 98.7382C429.353 98.806 431.034 98.8642 432.812 98.9283C429.256 99.0028 425.688 99.0778 422.132 99.1523C424.629 99.3293 430.043 99.5921 429.895 99.8249C428.256 99.737 422.645 99.8915 422.03 99.8978C419.652 99.9216 420.948 99.7748 420.769 99.7712C417.033 99.6998 413.956 99.7498 412.537 99.5274C409.73 99.6277 407.613 99.5705 404.636 99.5762C402.997 99.5793 403.316 99.7427 402.357 99.7117C395.983 99.5047 402.055 99.2936 389.759 99.6955C391.248 99.8093 392.717 99.9258 394.205 100.041C392.817 100.084 391.436 100.127 390.047 100.17C389.118 100.149 388.197 100.128 387.268 100.107C387.288 99.8607 387.312 99.6134 387.332 99.3665C386.312 99.3531 385.289 99.34 384.27 99.3266C386.019 99.3023 387.771 99.278 389.52 99.2536C389.68 99.2102 389.829 99.1668 389.988 99.1233C387.391 99.0561 384.802 98.9882 382.204 98.9204C382.154 99.0063 382.105 99.0927 382.055 99.1786C376.2 99.059 376.061 98.9864 370.496 99.2228C366.21 99.2202 362.719 99.5792 360.241 99.7303C359.352 99.6822 358.462 99.6335 357.563 99.5853C356.994 99.6568 356.418 99.7279 355.849 99.7993C354.72 99.6999 353.575 99.6006 352.446 99.5017C351.817 99.7272 351.491 99.7976 355.897 99.8768C354.388 100.157 346.632 100.034 343.475 99.9393C341.08 99.8679 343.737 99.6339 343.438 99.6055C342.437 99.5088 338.49 99.5922 337.661 99.5762C334.154 99.5095 331.697 99.5211 328.529 99.4694C327.913 99.459 326.189 99.3108 326.043 99.3061C324.904 99.2808 322.092 99.2087 321.773 99.2066C305.28 99.096 322.903 99.7392 307.567 99.6714C308.027 99.7562 308.449 99.8405 308.898 99.9253C307.74 99.9305 306.569 99.9354 305.411 99.9406C303.942 99.8697 305.719 99.7407 302.802 99.8447C302.992 99.7402 303.183 99.6356 303.382 99.5316C302.113 99.588 300.89 99.644 299.591 99.7004C297.553 99.3377 290.112 99.2553 290.641 98.8295C290.821 98.6846 296.096 98.5359 293.309 98.3812C291.044 98.3507 292.577 98.5238 291.653 98.5328C284.978 98.596 285.366 98.3534 282.639 98.4181C282.209 98.5221 281.758 98.628 281.318 98.733C280.29 98.7025 279.258 98.672 278.219 98.6415C277.98 98.7113 277.73 98.7813 277.49 98.8511C278.459 98.8558 279.55 98.8605 280.44 98.8652C279.2 99.1357 267.813 99.2573 272.155 99.0266C273.923 98.933 277.162 98.9727 275.115 98.6531C272.068 98.6991 268.611 98.7462 265.404 98.7922C265.304 98.7234 265.211 98.6545 265.111 98.5856C260.789 98.6302 264.719 98.9054 264.711 99.0528C263.723 99.057 262.724 99.0606 261.735 99.0647C261.316 98.9981 260.918 98.9283 260.479 98.8636C260.438 98.9698 259.885 99.2164 256.938 99.1249C255.043 99.0653 258.027 98.7975 254.414 98.8347C254.684 99.0002 255.989 99.2018 251.965 99.2552C251.565 99.0824 251.013 98.9241 250.703 98.7425C245.698 98.9085 243.421 98.6417 237.547 98.8347C233.82 98.9568 228.715 99.3903 226.307 98.7224C223.581 98.7048 224.446 98.8711 223.639 98.9085C219.833 99.0855 217.001 98.7688 216.292 98.7501C211.768 98.6307 209.739 98.7403 206.053 98.5908C206.253 98.7145 206.362 98.8316 206.522 98.9521C209.899 98.7669 211.609 98.7756 216.345 98.8154C214.757 98.8403 213.168 98.8657 211.58 98.8905C211.839 98.9909 212.097 99.0912 212.346 99.1911C226.994 98.7957 223.577 99.4204 211.297 99.557C210.239 99.3712 209.141 99.186 208.092 98.9997C200.999 99.2812 197.66 99.0369 189.638 98.9784C188.684 98.9717 185.21 99.0787 183.717 99.084C183.742 99.0847 183.767 99.0854 183.792 99.0861C182.863 99.2615 184.121 99.3422 184.271 99.499C183.462 99.5186 182.652 99.5382 181.843 99.5579C180.036 99.4384 180.671 99.3402 177.115 99.3687C177.595 99.4877 178.068 99.6067 178.547 99.7257C174.651 99.7299 172.101 99.6006 168.474 99.6565C169.083 99.6114 169.685 99.5663 170.295 99.5213C162.401 99.4064 168.683 98.7067 162.718 99.055C162.338 98.9939 161.969 98.9323 161.589 98.8713C164.047 98.8563 166.505 98.8417 168.953 98.8267C169.003 98.7403 169.057 98.6543 169.097 98.5679C166.469 98.5938 163.828 98.6205 161.201 98.6464C163.119 98.5884 165.048 98.5304 166.967 98.4724C163.92 98.431 160.872 98.3896 157.825 98.3482C161.061 98.6659 156.866 98.7047 157.655 99.0193C152.259 98.7574 148.021 98.4123 139.658 98.6332C138 98.6773 138.901 98.8971 134.195 98.6296C135.334 98.9793 129.439 99.1435 130.197 99.4761C131.835 99.4601 133.534 99.45 135.122 99.4303C133.313 99.3149 133.014 98.9975 135.761 98.9033C139.268 98.7833 144.382 99.0033 144.173 98.6509C145.572 98.6675 146.872 98.6773 148.23 98.6912C147.671 98.7786 147.124 98.8666 146.575 98.954C150.44 98.817 152.868 98.8615 154.726 99.0818C150.121 99.1325 145.525 99.1827 140.92 99.2329C141.598 99.2479 142.286 99.263 142.965 99.2774C139.478 99.5025 143.075 99.7157 136.57 99.7639C136.61 99.6609 136.642 99.5579 136.682 99.4544C134.314 99.7297 127.83 99.7282 129.899 100.045C127.94 99.9476 127.541 99.8861 126.432 100.057C121.267 99.8162 117.949 99.5119 119.788 99.1487C117.87 99.2071 115.951 99.2657 114.043 99.3241C115.151 99.4235 116.262 99.5223 117.37 99.6217C114.033 99.6155 110.672 99.6093 107.345 99.6037C107.025 99.3098 113.768 99.5145 111.822 99.2518C111.433 99.1991 109.637 99.312 109.166 99.2823C104.19 98.961 112.001 99.1932 110.534 98.947C103.12 98.8709 109.053 98.4583 98.8416 98.8051C98.5718 98.7202 98.282 98.6337 98.0323 98.5493C94.4875 98.5442 94.775 98.7359 91.7282 98.7721C89.8201 98.7946 87.4252 98.4581 85.3177 98.6873C84.942 98.7295 88.487 99.1408 81.0369 99.1227C76.5809 99.1119 76.9882 98.9368 75.9789 98.8099C75.6791 98.7713 75.2568 98.7373 74.547 98.679C71.4386 98.6761 64.4123 96.9113 62.8497 95.3275C64.2503 96.1389 66.152 96.9666 67.8693 97.5203C68.5973 97.644 69.3087 97.735 70.0275 97.8C65.9753 97.0789 62.2028 95.007 59.8399 93.5879C57.2015 91.5651 54.7766 88.9948 53.5149 87.5356C52.641 86.5561 52.1614 86.235 52.4791 86.831C53.3718 87.8674 52.9692 87.2156 53.3358 87.6733C53.458 87.8278 53.6627 88.1118 54.0552 88.6224C54.1561 88.876 54.2704 89.139 54.38 89.3916C53.9123 88.8608 53.4882 88.3402 53.1111 87.846C51.1735 85.34 49.7864 84.1204 51.1229 85.1234C50.6583 84.6293 50.2019 84.1739 49.7024 83.7088C49.4858 83.766 49.2801 83.8351 49.0663 83.8967C48.4601 83.3849 47.8508 82.9122 47.2016 82.4507C46.5268 81.8921 45.8322 81.3687 45.0935 80.8683C45.6811 81.0486 46.4035 81.4455 46.282 81.2908C46.1451 81.1657 45.2668 80.3225 42.1984 78.812C42.1381 78.8979 42.0697 78.9797 42.0098 79.0659C36.7928 76.9892 36.5899 76.4273 29.4073 76.3842C34.9853 75.8207 37.8216 77.5776 37.9662 76.8073C39.3164 77.2021 40.6473 77.7032 41.9174 78.2952C42.1548 78.2832 42.3922 78.2738 42.6232 78.2642C35.5839 74.4459 22.6793 76.5888 18.2052 78.8068C17.6757 79.1121 17.1511 79.4272 16.6372 79.771C12.2278 81.9982 10.9157 83.8539 7.49706 87.4252C7.2562 87.8819 6.99181 86.3438 3.84254 92.1879C3.98189 92.0719 4.13303 92.051 4.27676 91.9746C3.60057 93.2276 3.02328 94.519 2.54271 95.8545C2.53042 96.1182 2.51807 96.3939 2.51353 96.6578C3.21692 94.3514 4.21272 92.1418 5.48115 90.0914C4.46325 91.8257 3.64218 93.6541 3.01926 95.5636C3.99264 93.1361 4.57533 92.1311 4.08272 93.6182C3.2109 95.6724 2.59097 97.8376 2.22644 100.046C2.23275 100.286 2.24487 100.511 2.25782 100.743C2.55013 99.7025 2.8998 98.6651 3.30593 97.6779C2.56827 100.269 2.26961 102.801 2.22395 105.21C2.19475 106.778 2.15907 108.283 2.1062 109.729C2.0679 110.773 2.07377 111.785 2.11156 112.768C2.19274 113.518 1.52202 110.908 2.5446 115.979C2.46741 116.077 2.42092 116.23 2.35425 116.338C4.25016 122.403 5.11171 124.402 9.1046 129.708C6.5336 126.252 8.81515 129.349 9.64362 130.073C10.1812 130.593 8.26462 128.398 8.54661 128.594C8.78371 128.841 11.4988 131.425 9.39711 129.021C4.30508 123.127 3.35136 120.646 2.15152 110.736C2.27673 112.289 2.52249 113.831 2.88529 115.335C2.79929 114.613 2.7438 113.964 2.70538 113.181C3.48543 118.691 3.15894 116.009 3.78803 118.197C4.47084 120.381 6.26968 124.135 7.91626 126.364C8.43012 127.068 7.76125 126.413 8.95214 127.989C9.73723 129.098 12.4583 131.557 12.9963 132.233C13.3702 132.689 8.41348 129.212 14.9158 134.402C16.1167 135.428 12.883 133.063 12.8434 132.973C12.1267 132.67 16.1588 135.981 18.433 136.829C18.6071 136.907 16.9993 135.934 18.8405 136.812C23.2649 138.762 26.0062 139.393 29.1142 139.953C29.2937 139.846 30.3918 139.84 32.0617 139.751C33.7616 139.658 36.0642 139.607 38.6197 139.653C38.8792 139.583 39.1268 139.513 39.3864 139.443C38.5983 139.48 37.8103 139.516 37.0224 139.553C36.1632 139.51 35.2526 139.478 34.4134 139.427C39.5178 139.367 40.2397 139.033 42.6875 138.911C51.0638 138.494 45.9871 139.377 44.4765 139.529C43.3874 139.467 42.3343 139.398 41.2552 139.334C41.3751 139.418 41.4967 139.503 41.6066 139.588C54.1456 139.585 43.5161 140.135 49.8807 140.292C51.5191 139.877 56.1936 139.837 62.148 140.1C62.8075 140.098 63.4693 140.098 64.1287 140.095C64.2384 140.035 64.2369 139.942 64.4162 139.902C71.5901 139.832 72.868 140.471 73.5475 140.532C76.5646 140.8 78.9141 140.429 79.8036 140.425C83.5502 140.413 84.6389 140.578 88.2055 140.507C92.0413 140.43 89.4184 140.304 90.5855 140.19C91.5216 140.1 94.5478 140.084 95.798 139.991C95.3013 140.067 94.7492 140.142 94.2539 140.219C98.2296 140.323 101.479 140.424 105.994 140.449C111.089 139.891 115.425 140.833 113.667 140.069C109.39 140.017 106.999 139.93 104.711 139.735C107.518 139.71 110.327 139.686 113.134 139.661C113.953 139.745 114.534 139.827 115.503 139.912C117.601 139.734 122.465 139.811 124.374 139.758C133.316 139.514 130.55 139.21 138.712 139.72C132.829 139.77 132.838 140.018 127.004 139.984C128.263 140.161 131.228 140.124 129.31 140.336C134.954 140.284 133.129 140.094 135.326 139.926C137.221 139.781 141.036 139.773 140.821 139.585C141.211 139.688 141.513 139.789 141.902 139.892C145.558 139.891 149.214 139.891 152.87 139.89C151.311 139.998 149.753 140.106 148.195 140.214C149.373 140.255 150.552 140.296 151.73 140.336C160.723 140 176.229 140.616 173.752 139.772C178.088 139.745 178.63 139.851 180.988 140.01C181.247 139.946 181.5 139.893 181.76 139.822C184.557 139.889 186.704 139.648 189.171 139.711C191.639 139.773 192.251 140 192.611 139.618C194.209 139.727 195.798 139.819 197.387 139.92C198.345 139.834 199.303 139.748 200.251 139.661C201.75 139.707 203.252 139.752 204.75 139.798C205.551 139.615 211.444 139.694 214.041 139.571C216.507 139.768 216.44 140.388 222.241 140.277C222.091 140.123 221.944 139.97 221.794 139.816C223.122 139.848 224.454 139.88 225.792 139.912C225.872 139.962 225.941 140.013 226.021 140.063C225.342 140.047 224.672 140.032 223.993 140.016C224.582 140.101 225.16 140.185 225.739 140.27C227.767 140.144 229.798 140.018 231.835 139.893C229.088 139.798 226.34 139.702 223.593 139.607C227.041 139.494 229.44 139.607 232.437 139.481C235.045 139.693 234.082 139.815 233.023 140.046C233.992 140.026 234.972 140.007 235.941 139.987C235.302 140.218 236.94 140.355 231.276 140.336C231.666 140.402 232.063 140.464 232.442 140.533C233.372 140.522 233.974 140.578 234.993 140.552C237.77 140.483 239.9 140.079 239.71 139.937C239.608 139.863 236.869 140.005 236.979 139.9C237.25 139.644 243.532 139.759 234.471 139.501C237.478 139.338 238.15 139.461 241.467 139.508C241.208 139.423 240.956 139.338 240.706 139.253C242.244 139.292 243.784 139.332 245.322 139.371C243.184 139.809 254.524 139.974 244.316 140.357C247.333 140.377 250.339 140.397 253.346 140.417C252.727 140.462 252.107 140.507 251.488 140.552C250.129 140.528 248.779 140.505 247.42 140.481C249.018 140.564 250.619 140.645 252.217 140.728C255.994 140.626 257.474 140.469 259.203 140.275C254.808 140.134 256.244 140.327 252.819 140.365C252.938 140.243 252.78 140.13 253.08 140.001C254.849 140.255 260.622 140.071 261.961 140.058C266.035 140.02 262.84 140.27 265.565 140.275C268.293 140.28 271.51 140.132 273.738 140.379C273.698 140.24 273.52 140.097 273.36 139.971C277.607 139.925 276.759 140.089 277.199 140.11C284.213 140.459 288.019 140.165 296.042 140.129C295.023 140.086 293.993 140.047 292.964 140.007C299.017 139.712 294.94 139.803 289.685 139.705C294.611 139.735 297.431 139.484 300.908 139.41C304.385 139.335 310.347 139.464 312.526 139.564C307.54 139.726 302.163 139.619 296.628 139.664C297.257 139.805 297.869 139.925 298.518 140.08C301.884 139.783 303.835 139.982 304.944 140.021C308.201 140.136 308.098 139.882 310.066 140.155C309.986 140.061 309.928 139.982 309.848 139.894C316.572 139.934 323.825 140.1 328.201 139.752C328.601 139.978 328.902 140.196 329.362 140.427C332.209 140.257 334.647 140.431 337.045 140.391C339.433 140.351 338.524 140.169 341.331 140.098C341.851 140.085 342.933 140.2 344.211 140.115C345.503 140.031 350.265 139.4 350.835 139.951C353.243 139.954 355.521 139.974 357.879 139.983C355.581 140.014 353.283 140.044 350.995 140.075C352.953 140.209 354.899 140.342 356.857 140.475C357.107 140.356 357.357 140.235 357.597 140.118C362.872 139.973 366.701 140.167 372.026 140.121C372.915 140.113 370.817 139.878 374.763 139.938C378.709 139.998 381.638 140.437 388.361 140.268C388.701 140.259 390.692 139.923 393.1 140.155C393.648 140.208 391.341 140.286 392.599 140.356C393.858 140.425 399.475 140.482 399.915 140.647C399.855 140.589 399.504 140.528 399.335 140.469C400.293 140.441 401.262 140.413 402.231 140.385C402.321 140.488 402.418 140.591 402.508 140.694C408.023 140.454 410.873 140.063 419.045 140.193C416.748 140.043 414.449 139.893 412.161 139.743C411.532 139.849 410.901 139.954 410.282 140.059C406.515 140.017 402.739 139.976 398.973 139.934C398.353 140.053 397.744 140.173 397.125 140.292C396.126 140.277 395.137 140.262 394.138 140.246C394.388 140.16 394.64 140.074 394.899 139.987C392.922 140.009 390.941 140.03 388.973 140.051C392.98 139.541 400.161 140.095 399.643 139.668C400.532 139.734 401.422 139.801 402.311 139.868C402.701 139.661 404.508 139.72 407.694 139.753C406.964 139.651 406.159 139.55 405.49 139.447C408.587 139.591 414.081 139.577 417.288 139.633C418.697 139.657 417.29 139.807 417.709 139.825C419.857 139.917 423.963 139.655 424.822 139.676C429.958 139.799 433.295 140.295 438.9 139.968C433.115 139.887 436.262 139.921 434.204 139.74C433.56 139.683 426.086 139.564 435.444 139.617C436.542 139.623 453.523 139.966 447.941 140.229C450.688 140.145 452.84 140.048 455.358 139.959C461.512 140.652 459.382 140.001 457.594 139.643C458.603 139.642 459.563 139.638 460.602 139.638C458.394 140.014 469.644 140.037 473.46 139.848C474.739 139.784 471.163 139.664 474.121 139.607C475.529 139.633 477.126 139.668 478.614 139.697C476.456 139.459 480.692 139.367 480.632 139.125C483.34 139.341 485.411 139.798 483.923 140.046C486.16 139.946 488.41 139.846 490.647 139.745C489.608 139.687 488.556 139.63 487.517 139.573C494.83 139.725 504.235 139.379 505.763 139.888C506.732 139.884 507.712 139.881 508.681 139.877C508.981 139.791 509.27 139.705 509.57 139.619C513.955 139.694 518.331 139.769 522.716 139.843C518.811 139.897 517.882 140.019 513.787 139.92C515.365 140.018 516.972 140.118 518.52 140.216C524.685 139.95 525.526 139.776 534.808 139.855C535.227 139.858 542.24 140.082 542.48 140.103C543.579 140.203 541.911 140.347 542.4 140.397C543.759 140.538 552.016 140.891 551.856 140.945C549.838 141.599 522.057 141.607 514.543 141.641C436.61 141.99 360.393 141.523 282.949 141.603C282.153 141.604 282.501 141.701 282.161 141.705C280.054 141.729 277.984 141.578 277.204 141.572C275.539 141.559 276.456 141.699 275.24 141.699C262.67 141.697 250.809 141.615 238.23 141.639C237.411 141.641 238.247 141.529 236.808 141.549C236.066 141.56 233.741 141.731 232.064 141.733C226.21 141.742 221.292 141.687 215.117 141.69C211.74 141.691 206.673 141.677 202.898 141.679C201.23 141.681 199.492 141.759 197.845 141.761C195.507 141.765 195.984 141.607 195.624 141.597C194.046 141.554 193.827 141.727 192.329 141.723C189.541 141.715 189.391 141.599 185.854 141.609C183.326 141.616 177.541 141.708 174.354 141.735C166.9 141.6 157.508 141.654 150.554 141.698C146.438 141.724 146.056 141.562 144.377 141.563C138.463 141.566 133.975 141.773 128.42 141.78C121.049 141.789 114.515 141.651 107.373 141.642C106.215 141.64 106.481 141.789 105.345 141.793C101.138 141.807 95.7591 141.834 92.0124 141.812C87.8367 141.789 86.2964 141.573 82.2102 141.617C81.0122 141.63 80.6612 141.82 78.6535 141.844C75.4468 141.882 71.9304 141.715 69.6927 141.696C66.6252 141.672 69.2928 141.865 65.1563 141.839C64.9862 141.838 64.3674 141.7 63.4791 141.706C60.8913 141.725 61.1482 141.833 57.3614 141.823C56.9981 141.822 51.9772 141.69 51.478 141.69C48.5407 141.688 42.6267 141.642 40.8878 141.67C34.6731 141.769 39.5658 141.976 34.2803 141.526C33.5408 141.561 32.8031 141.596 32.0617 141.632C30.3792 141.706 28.6683 141.654 26.8896 141.441C28.6043 141.718 21.7143 140.111 21.3036 139.76C17.4845 138.276 19.563 139.563 15.0266 136.956C18.1163 138.515 16.6071 137.74 14.1498 136.173C11.6694 134.618 8.61985 131.738 7.66607 130.548C2.57456 124.637 -0.0355573 117.168 0.000365853 109.729C0.00475526 108.225 0.00934935 106.72 0.0137719 105.21C0.0211488 100.224 1.1571 95.1358 3.67093 90.5205C5.94045 86.0972 10.6799 81.152 15.3114 78.6692C16.3799 78.0816 15.6148 78.6019 16.5644 78.1088C17.5217 77.6356 16.4077 78.0574 17.5127 77.5358C24.4816 74.4619 30.7228 74.1149 37.5743 75.3302C37.8976 75.4438 37.881 75.4668 38.4168 75.6464C43.9207 76.4041 52.1961 82.7835 54.6032 86.6989C54.7547 86.9028 54.8981 87.0889 55.0308 87.2565C58.7382 91.5994 60.2217 92.2278 63.7867 94.2606C68.5873 97.1169 77.0282 97.6361 73.358 96.8981C74.2353 96.9807 75.1088 97.0198 75.9789 97.018C78.9914 97.0118 81.9636 97.0177 85.0461 97.0528C85.4954 97.058 85.1858 97.1839 85.3656 97.1865C86.5042 97.2045 86.8752 97.0919 87.6444 97.0867C89.7301 97.0728 86.3264 97.2077 89.3003 97.17C90.8689 97.1498 91.7596 97.0515 96.1155 97.0495C122.373 97.0386 150.879 97.0738 177.797 97.0904C179.645 97.0914 178.428 96.9697 180.746 96.9774C188.799 97.0044 203.214 97.2092 210.158 97.1813C217.102 97.1533 215.535 96.9754 219.88 96.9008C220.72 96.8864 220.031 96.9878 220.791 96.9893C225.896 96.9987 231.983 97.1569 236.12 97.1807C238.855 97.1966 238.636 97.0371 240.534 97.0257C243.361 97.0091 246.271 97.1703 247.78 97.1755C254.873 97.1982 259.749 97.0684 266.373 97.1346C266.114 97.0995 265.942 97.067 265.723 97.0324C273.566 97.0381 281.398 97.0438 289.241 97.0495C288.871 97.0174 288.514 96.985 288.144 96.9524C297.346 96.97 296.296 97.3177 295.486 96.5835C296.155 96.5576 296.865 96.5276 297.504 96.5038C297.245 96.8821 302.811 97.1589 309.894 97.2551C310.414 97.2624 313.9 96.8936 313.52 97.3293C314.429 97.2227 314.971 97.1492 315.74 97.0556C317.238 97.1875 318.757 97.3178 320.255 97.4492C321.064 97.4296 321.885 97.4106 322.694 97.3909C322.814 97.3056 322.721 97.2169 322.981 97.1331C326.738 97.1201 334.442 97.2257 337.41 97.2149C344.784 97.1874 352.291 96.9566 358.026 97.206C360.82 97.1806 358.046 97.013 362.201 97.0342C362.67 97.119 363.111 97.2004 363.601 97.2878C366.997 96.9087 367.706 97.1393 372.359 97.2185C375.506 97.2723 377.567 97.1797 380.564 97.1978C381.324 97.2024 381.216 97.3137 381.736 97.3101C383.476 97.2986 388.44 97.1455 389.669 97.1413C400.799 97.101 410.36 97.1181 420.96 97.159C422.099 97.1632 420.622 97.0533 421.801 97.058C423.698 97.0653 422.582 97.234 423.681 97.2423C426.746 97.2645 426.769 97.0865 431.045 97.0772C433.428 97.0721 435.872 97.0716 438.359 97.0745C450.13 97.2416 462.775 92.1705 471.123 83.7936C471.439 83.4821 471.347 83.4273 471.683 83.0842C473.874 80.848 475.963 78.4337 477.524 76.0417C480.085 72.0572 481.479 68.7451 482.9 64.3124C484.339 59.6722 485.017 55.0887 485.042 50.4319C485.064 46.053 485.623 41.6352 486.87 37.0874C489.135 29.1541 492.613 22.5863 498.767 15.9347C508.044 6.00604 521.594 0.0279485 535.359 0.0616347C540.853 0.0434651 546.354 0.0243847 551.859 0.00682127C572.645 -0.350614 592.765 13.3752 600.122 32.6965C600.49 33.6444 600.25 33.2929 600.366 33.5806C601.417 36.3267 601.559 36.5716 601.613 37.6415C602.629 41.2353 603.108 42.3743 603.602 46.8839C603.778 49.2904 603.427 47.5147 603.689 51.5805C603.695 51.7062 603.7 51.823 603.705 51.9319C603.842 54.8986 603.992 51.5858 603.828 61.7959C603.823 62.0756 603.638 63.4529 603.686 65.6507C603.734 67.8588 603.866 65.3029 603.906 70.6183C603.95 76.483 603.938 83.0802 603.918 89.9319C603.926 97.984 601.903 106.333 598.271 113.471C598.02 114.411 593.167 122.15 591.86 123.435C589.627 126.115 590.268 125.728 586.975 128.874C584.362 131.236 581.952 132.889 578.427 135.034C578.008 135.268 577.424 135.877 574.616 137.234ZM49.2183 84.2544C48.4676 83.8721 47.2278 83.1225 43.1744 80.6818C42.7745 80.4522 45.1498 81.2534 42.8124 79.9629C45.1688 81.0772 47.3037 82.5395 49.2187 84.2539C49.2186 84.2541 49.2185 84.2542 49.2183 84.2544ZM552.787 138.721C556.407 138.683 560.035 138.244 563.56 137.407C561.144 138.073 558.68 138.55 556.191 138.838C555.05 138.838 553.92 138.799 552.787 138.721ZM339.929 99.8597C339.932 99.8597 339.936 99.8597 339.939 99.8597C336.043 99.9342 332.144 100.009 328.247 100.083C328.657 100.029 329.067 99.9734 329.477 99.9186C332.554 99.8322 335.632 99.7459 338.699 99.6595C339.108 99.7262 339.519 99.793 339.929 99.8597ZM370.714 99.279C373.202 99.3442 372.593 99.4541 373.962 99.5612C373.962 99.561 373.962 99.5608 373.962 99.5606C374.323 99.5885 376.006 99.6129 376.656 99.6171C376.416 99.5483 376.107 99.4803 375.847 99.412C381.652 99.2454 393.004 99.8375 378.307 100.076C378.527 99.9891 378.737 99.9027 378.956 99.8157C371.653 99.8401 363.51 99.6515 370.714 99.279ZM3.57878 98.1537C3.01661 101.099 2.98034 103.067 2.98839 105.21C3.00509 106.566 2.99946 107.979 2.97064 109.729C2.95282 110.837 2.9806 112.076 3.1294 113.531C2.91592 112.515 2.75626 111.485 2.65072 110.45C2.66117 110.21 2.67449 109.969 2.69067 109.729C2.75658 108.728 2.82227 107.732 2.88833 106.729C2.88833 106.725 2.88833 106.722 2.88833 106.718C2.80192 106.468 2.71535 106.218 2.62894 105.978C2.63228 105.722 2.63562 105.466 2.63895 105.21C2.6704 102.808 2.97818 100.437 3.57878 98.1537ZM553.978 2.52926C555.46 3.12422 555.27 2.83338 551.859 2.82228C551.391 2.82683 550.863 2.83559 550.273 2.85084C548.555 2.89534 550.229 2.99479 549.16 3.01135C543.387 3.1018 542.925 2.72096 544.214 2.52279C546.762 2.5123 549.33 2.50253 551.859 2.49284C552.569 2.4901 553.272 2.50237 553.968 2.52882C553.971 2.52896 553.975 2.52911 553.978 2.52926ZM589.521 122.156C589.518 122.158 589.516 122.161 589.514 122.164C589.315 122.186 590.77 120.411 588.992 122.297C590.286 120.814 591.492 119.256 592.606 117.622C592.29 118.109 591.958 118.6 591.625 119.075C591.966 118.69 592.303 118.299 592.634 117.902C592.894 117.23 593.355 116.76 594.464 115.006C594.027 115.412 593.585 115.807 593.136 116.194C594.461 114.211 595.647 112.118 596.67 109.957C596.721 109.947 596.773 109.937 596.824 109.928C597.142 109.078 597.431 108.233 597.701 107.371C597.836 107.16 597.966 106.955 598.098 106.742C598.433 105.707 598.736 104.652 599 103.599C599.196 103.31 598.647 105.655 599.702 101.523C599.519 102.822 599.283 104.118 598.99 105.421C596.969 111.549 593.726 117.267 589.521 122.156ZM510.522 9.61492C516.656 6.12449 515.027 7.31669 513.675 8.24279C512.617 8.65759 511.556 9.12034 510.522 9.61492ZM195.143 99.409C193.065 99.6009 190.978 99.791 188.85 99.9763C184.614 100.083 180.376 99.7335 183.563 99.5963C187.4 99.4318 191.407 99.6159 195.143 99.409ZM98.6552 99.4944C103.838 99.5834 98.9616 99.8115 97.7927 99.9445C96.3588 99.7308 94.3593 99.7497 91.1479 99.7248C94.1635 99.711 97.7981 99.4793 98.6552 99.4938C98.6552 99.494 98.6552 99.4942 98.6552 99.4944ZM278.555 99.6247C280.632 99.619 282.698 99.5654 284.555 99.6305C283.995 99.8141 280.28 99.6471 282.937 99.9192C281.608 99.9238 280.278 99.9284 278.959 99.9335C279.797 99.8208 278.67 99.7365 278.56 99.6253C278.558 99.6251 278.557 99.6249 278.555 99.6247ZM483.776 70.006C481.86 73.6968 481.572 74.4208 479.427 78.0219C478.972 78.4209 481.464 74.1058 482.654 71.2478C483.032 70.8468 483.405 70.4348 483.776 70.006ZM427.841 139.079C426.862 139.304 419.641 139.333 416.053 139.267C416.48 139.233 416.909 139.199 417.336 139.165C420.833 139.137 424.344 139.108 427.841 139.079ZM89.6198 99.7095C90.1573 99.7162 90.6668 99.7211 91.1479 99.7248C90.6131 99.7273 90.0968 99.7234 89.6198 99.7095ZM85.8468 140.133C84.139 140.346 89.2155 140.417 83.0515 140.334C83.0515 140.334 83.0515 140.334 83.0515 140.335C78.9749 140.28 78.075 140.265 74.2982 140.249C75.6578 139.975 83.3199 139.878 72.7595 139.821C72.6204 139.821 72.8973 139.984 71.2101 139.961C70.6892 139.954 69.0225 139.821 66.4874 139.782C65.668 139.77 59.5114 139.729 67.9036 139.726C67.6539 139.536 68.1046 139.343 68.0847 139.158C71.3606 139.104 73.8783 139.477 77.3437 139.468C82.4894 139.454 85.1079 139.077 86.097 139.571C81.7703 139.693 74.3408 139.696 73.3718 139.398C69.1859 139.395 67.9839 139.638 71.3592 139.759C85.8169 139.606 75.328 140.121 87.9871 139.926C88.137 139.857 88.6577 139.783 88.5781 139.719C92.4423 139.961 86.4562 140.057 85.8468 140.133ZM55.615 139.607C58.1129 139.462 60.6025 139.315 63.0904 139.169C63.0904 139.406 61.7186 139.619 57.782 139.752C57.0633 139.704 56.3338 139.655 55.615 139.607ZM265.736 139.545C266.095 139.416 267.054 139.298 267.754 139.175C268.513 139.284 286.498 139.388 277.348 139.495C276.019 139.51 267.914 139.282 265.736 139.545ZM488.344 42.035C487.895 44.0765 487.58 46.135 487.399 48.2211C487.489 45.0087 487.9 41.7978 488.631 38.6578C488.495 39.7847 488.399 40.9107 488.344 42.035ZM160.663 99.1828C161.557 99.1877 158.586 99.3649 162.111 99.3369C159.483 99.4503 157.022 99.5462 154.455 99.6528C153.685 99.569 152.908 99.4855 152.138 99.4016C151.539 99.4555 150.928 99.5089 150.328 99.5628C150.688 99.4406 151.008 99.3214 151.388 99.1972C155.714 99.459 156.706 99.1621 160.663 99.1828ZM289.305 98.7053C290.083 98.9707 283.818 99.1285 289.981 99.1709C288.812 99.3453 286.932 99.4368 283.325 99.4523C282.747 99.3856 282.169 99.3194 281.59 99.2527C281.51 99.4312 280.582 99.4975 278.555 99.6247C278.553 99.6245 278.551 99.6243 278.55 99.6241C273.066 99.637 273.394 99.5775 272.075 99.2842C277.88 99.4497 278.054 99.1817 282.01 99.0223C284.728 98.9127 288.276 98.9624 289.305 98.7053ZM246.573 139.548C250.678 139.324 246.994 139.115 254.278 139.353C253.808 139.41 253.336 139.466 252.867 139.523C250.769 139.532 248.671 139.54 246.573 139.548ZM309.564 99.6149C309.094 99.2041 305.229 98.8843 304.57 99.5527C308.336 99.6888 306.497 99.3102 309.564 99.6149ZM100.423 98.8511C107.666 98.8703 106.297 99.334 103.319 99.5658C102.86 99.4815 102.401 99.397 101.951 99.3131C100.682 99.3514 99.413 99.3898 98.1441 99.4276C98.9034 99.2356 99.6636 99.0431 100.423 98.8511ZM437.258 99.1636C434.127 99.3296 436.45 99.36 438.359 99.3883C439.845 99.4068 441.075 99.3661 439.382 99.4995C439.05 99.5218 438.707 99.5361 438.359 99.5423C435.479 99.5949 432.374 99.3411 433.749 99.1755C434.818 99.1703 436.009 99.1667 437.247 99.1636C437.251 99.1636 437.255 99.1636 437.258 99.1636ZM405.227 99.2475C406.136 99.561 404.825 99.4696 409.199 99.4132C410.448 99.3972 420.372 99.5149 416.206 99.2552C412.659 99.2552 408.913 99.2506 405.227 99.2475ZM23.9458 77.6917C23.7863 77.3646 31.3412 76.1469 32.3455 76.5451C32.3456 76.5449 32.3456 76.5447 32.3456 76.5445C33.6575 76.7379 32.3058 76.6735 31.068 76.7328C29.828 76.7944 28.7172 76.933 30.437 77.0195C22.7564 77.1357 20.8983 79.3236 21.1249 78.2274C25.4617 76.8518 23.4561 77.6919 23.9458 77.6917ZM522.657 139.721C522.661 139.721 522.665 139.721 522.668 139.721C522.155 139.715 517.926 139.514 518.441 139.445C523.526 139.505 522.619 139.636 527.354 139.42C527.613 139.489 527.835 139.557 528.115 139.628C526.237 139.669 525.195 139.753 522.657 139.721ZM285.18 139.82C283.312 139.856 279.902 139.708 277.774 139.717C284.548 139.148 292.643 139.678 285.18 139.82ZM601.404 55.2629C601.404 55.2575 601.404 55.2522 601.404 55.2469C601.404 55.2485 601.404 55.2506 601.405 55.2522C601.405 55.2558 601.404 55.2593 601.404 55.2629ZM140.395 139.479C140.636 139.516 140.772 139.548 140.821 139.576C140.821 139.579 140.821 139.582 140.821 139.584C140.691 139.55 140.552 139.515 140.395 139.479ZM10.4261 85.2322C9.27532 86.3015 10.3742 84.8154 12.3999 83.0616C14.4034 81.2803 17.4851 79.5282 19.0888 78.9172C18.9039 79.0927 18.8992 79.1771 18.4376 79.4995C15.7011 80.2715 10.6848 84.7845 10.4261 85.2322ZM242.594 99.2811C234.211 99.2759 245.121 98.5242 245.57 99.1239C245.554 99.1356 242.811 99.2801 242.594 99.2811ZM66.9659 97.8367C69.1109 98.1716 64.9086 97.2277 71.6312 98.6933C72.0186 98.8122 72.4091 98.9232 72.8033 99.026C70.8262 98.832 68.8657 98.433 66.9659 97.8367ZM187.679 98.2942C177.128 98.421 167.037 98.6446 173.91 99.2723C174.708 99.2521 175.518 99.2326 176.316 99.2124C176.436 98.9062 179.383 99.0734 183.696 99.0834C184.311 98.9618 186.703 98.9337 187.151 98.8304C188.019 98.6307 185.271 98.4903 187.679 98.2942ZM576.669 8.35111C576.495 8.31207 576.324 8.27614 576.15 8.23862C574.665 7.47831 573.14 6.79206 571.589 6.18683C571.876 6.20136 572.164 6.21876 572.451 6.23849C573.886 6.87429 575.287 7.57577 576.659 8.34555C576.662 8.3474 576.665 8.34926 576.669 8.35111ZM45.3337 140.253C46.2921 139.678 42.9429 139.784 36.1491 140.075C39.2065 140.134 42.2764 140.194 45.3337 140.253ZM357.217 98.5274C357.437 98.6908 357.653 98.8537 357.883 99.0171C361.489 98.8469 360.82 98.6597 359.091 98.4434C358.462 98.4713 357.846 98.4994 357.217 98.5274ZM409.172 98.4578C407.676 98.4237 408.439 98.5556 408.283 98.553C404.496 98.4836 403.963 98.4231 399.317 98.5225C398.747 98.5571 398.188 98.5936 397.618 98.6293C399.766 98.9717 401.326 98.7851 405.871 98.9863C405.052 98.8689 404.236 98.7512 403.416 98.6332C405.944 98.6581 408.46 98.6826 410.988 98.7074C411.287 98.6712 411.588 98.6353 411.888 98.5991C410.989 98.5525 410.061 98.5002 409.172 98.4578ZM591.126 20.9905C592.638 22.928 594.012 24.9861 595.222 27.1227C595.339 27.1587 595.456 27.1918 595.574 27.2289C594.252 25.0386 592.759 22.9458 591.126 20.9905ZM95.798 139.991C95.9927 139.961 96.1829 139.931 96.3517 139.9C96.3353 139.938 96.1223 139.967 95.798 139.991ZM529.143 140.184C531.93 140.243 535.946 140.204 539.003 140.216C538.763 140.005 530.993 140.063 528.264 139.935C527.826 139.973 527.964 140.159 529.143 140.184ZM110.443 98.8697C111.143 98.7642 111.841 98.6591 112.531 98.5536C114.219 98.565 115.911 98.577 117.61 98.5884C117.66 98.502 117.709 98.4148 117.759 98.3284C110.277 98.4407 112.002 98.1915 108.298 97.9457C109.017 98.2536 109.724 98.5614 110.443 98.8697ZM601.932 96.8214C602.53 91.3819 602.215 89.4537 601.906 92.4957C601.869 94.4152 601.722 96.3351 601.466 98.2383C601.629 97.7643 601.784 97.2894 601.932 96.8214ZM194.24 140.186C198.763 140.089 198.838 140.437 203.26 140.243C200.892 140.179 198.525 140.114 196.168 140.05C195.531 140.095 194.877 140.141 194.24 140.186ZM1.65026 97.2761C1.16799 98.7671 0.89735 101.457 0.829213 105.21C0.812437 106.178 0.767355 107.223 0.678353 108.348C0.730152 108.87 0.781003 109.313 0.831504 109.729C0.905222 110.355 0.992568 110.911 1.10434 111.574C1.00735 112.24 0.93977 112.995 0.886176 113.644C0.886632 113.648 0.887087 113.651 0.887545 113.655C1.75051 118.638 1.38805 115.363 1.53069 115.46C1.54642 115.509 2.36549 119.134 2.20253 117.976C1.87753 116.49 1.13188 111.9 1.3201 109.729C1.34954 109.053 1.39169 108.624 1.45712 108.619C1.44555 108.954 1.43675 109.33 1.43061 109.729C1.33198 112.429 2.09956 116.023 2.02911 114.712C1.98449 113.769 1.66719 111.816 1.63377 109.729C1.60336 108.212 1.58409 106.639 1.65365 105.371C1.46445 107.25 1.38357 106.61 1.38025 105.21C1.33202 103.352 1.84545 100.302 2.1616 99.777C3.16942 94.6154 1.42493 99.2154 1.34384 104.685C1.25563 102.54 1.18221 103.795 1.13754 105.21C1.11726 105.961 1.08615 106.747 1.01098 107.027C0.993138 106.558 0.979866 105.93 0.969305 105.21C0.609312 100.568 3.33266 92.7518 1.65026 97.2761ZM231.621 98.1911C228.023 98.2075 222.402 98.062 219.939 98.2768C218.504 98.402 224.138 98.4989 220.253 98.6955C223.758 98.6763 224.558 98.5995 223.959 98.4273C224.758 98.4066 225.567 98.3864 226.365 98.3662C226.735 98.3998 227.114 98.433 227.484 98.4666C227.903 98.3957 228.325 98.3254 228.735 98.2545C229.583 98.2685 230.442 98.2825 231.29 98.297C231.39 98.2613 231.56 98.2303 231.621 98.1911ZM324.117 140.176C323.118 140.178 322.129 140.18 321.13 140.182C321.24 140.224 321.371 140.268 321.498 140.311C321.588 140.345 321.679 140.379 321.769 140.413C321.19 140.292 316.432 140.089 314.427 140.219C313.419 140.284 315.713 140.516 311.44 140.556C314.536 140.544 317.405 140.513 320.412 140.493C320.142 140.562 319.883 140.632 319.613 140.7C319.615 140.701 319.616 140.701 319.618 140.701C320.617 140.716 321.628 140.733 322.627 140.748C323.126 140.557 323.618 140.367 324.117 140.176ZM354.289 98.2042C350.881 98.3392 349.741 98.4094 351.35 98.6278C351.353 98.6279 351.357 98.628 351.36 98.6281C352.629 98.5313 353.898 98.4346 355.167 98.3378C354.877 98.2933 354.588 98.2487 354.289 98.2042ZM125.146 140.712C132.389 139.882 116.077 140.391 119.183 140.673C119.323 140.686 124.466 140.62 125.146 140.712ZM99.0918 98.596C101.08 98.5893 103.073 98.5832 105.071 98.5765C104.611 98.4745 104.141 98.373 103.681 98.271C102.153 98.3792 100.621 98.4879 99.0918 98.596ZM602.774 73.2326C603.002 71.1399 603.084 65.7681 602.836 63.1429C602.808 64.5218 602.779 65.9011 602.75 67.28C602.721 64.6733 602.69 62.0958 602.663 59.4691C602.346 59.3293 602.53 62.3564 602.442 66.9126C602.428 67.618 602.034 72.1279 602.331 73.6852C602.392 73.9985 602.434 69.2009 602.611 72.5351C602.625 71.0771 602.622 69.8188 602.63 68.4407C602.705 68.3407 602.781 68.2417 602.856 68.1318C602.829 69.836 602.801 71.5285 602.774 73.2326ZM210.675 98.2158C205.733 98.1983 205.122 98.325 204.094 98.549C206.392 98.5237 208.691 98.4987 210.989 98.4733C210.879 98.3877 210.784 98.302 210.675 98.2158ZM597.615 29.4099C596.395 26.9332 596.764 28.0773 596.206 27.1198C594.02 23.5598 592.451 21.1547 589.663 18.1087C589.871 18.2892 590.063 18.4562 590.261 18.6333C590.259 18.6305 590.257 18.6278 590.254 18.6251C583.685 11.3427 581.204 10.6079 582.552 11.4946C583.774 12.4962 588.033 16.0107 591.645 20.608C591.761 20.8646 591.868 21.1131 591.98 21.3703C595.265 25.4193 597.423 29.7673 597.615 29.4099ZM60.7903 140.74C61.0102 140.783 59.1419 141.052 62.6485 140.926C65.4256 140.532 60.8711 140.728 59.7308 140.576C60.68 140.538 61.6507 140.502 62.59 140.464C56.9147 140.353 56.0864 140.446 58.1548 140.734C58.3024 140.753 60.5701 140.698 60.7903 140.74ZM98.0875 140.934C98.8668 140.354 91.7047 140.615 91.9645 140.795C92.9531 140.802 93.7217 140.704 94.7704 140.747C95.8293 140.791 96.1001 140.926 98.0875 140.934ZM66.0684 96.2455C65.8673 96.1872 64.1001 95.1504 64.2096 95.3966C66.2805 97.0239 71.443 97.8707 70.5798 97.4897C68.9326 97.1572 67.8225 96.9246 66.0686 96.2449C66.0685 96.2451 66.0685 96.2453 66.0684 96.2455ZM600.365 105.896C600.476 105.822 601.981 100.66 601.954 99.9394C601.963 99.3605 601.905 99.0625 601.874 98.6244C601.574 101.571 599.66 107.238 600.368 105.885C600.367 105.889 600.366 105.892 600.365 105.896Z" fill="var(--stroke-0, black)"/>
</g>
</svg>
