<svg preserveAspectRatio="none" width="100%" height="100%" overflow="visible" style="display: block;" viewBox="0 0 226.007 160.323" fill="none" xmlns="http://www.w3.org/2000/svg">
<g id="Subtract" filter="url(#filter0_d_148_324)">
<path d="M73.0394 46.2263C73.0394 70.8102 92.9686 90.7395 117.553 90.7395H186.509C199.67 90.7395 210.339 101.409 210.339 114.57C210.339 127.731 199.67 138.4 186.509 138.4H58.428C30.8138 138.4 8.42804 116.014 8.42804 88.3996V34.0188C8.42804 16.1768 22.8918 1.71311 40.7337 1.71311C58.5756 1.71311 73.0394 16.1768 73.0394 34.0188V46.2263Z" fill="var(--fill-0, white)"/>
<path d="M76.1258 67.433C76.5497 68.7851 74.605 64.5405 75.6796 67.4703C75.3653 66.9023 75.0605 66.3243 74.7702 65.7438C74.8152 65.5422 74.8596 65.3379 74.9073 65.1379C75.292 65.9137 75.6976 66.6772 76.1264 67.4327C76.1262 67.4328 76.126 67.4329 76.1258 67.433ZM78.0475 67.7259C77.3642 67.2356 76.1708 65.0663 77.09 67.589C77.2971 67.7194 77.5067 67.8514 77.715 67.9778C78.0738 68.8308 78.4607 69.6765 78.8742 70.5106C79.0908 70.7674 79.3096 71.0209 79.5305 71.272C79.5857 71.7408 79.647 72.2093 79.7185 72.6819C79.5258 72.3528 79.3346 72.0166 79.151 71.6839C78.1826 70.527 77.4331 69.4057 76.4529 67.6091C76.4915 67.7916 76.5318 67.9743 76.5726 68.1568C76.156 67.1992 75.7718 66.2269 75.4248 65.2525C75.8694 66.0345 76.3943 66.892 76.8485 67.5858C76.5166 66.2701 75.3887 64.2444 74.8889 63.1362C74.2049 61.6282 74.4898 61.9225 74.0281 60.7874C73.9567 60.6052 73.8311 60.6233 73.7102 60.2542C73.0637 58.4018 72.3347 54.6759 73.1015 56.7719C73.8126 59.8935 74.9287 62.3989 76.1472 65.2712C76.1175 64.3774 76.8564 65.8503 78.0475 67.7259ZM64.1708 14.0561C64.8867 14.6281 65.9622 16.1371 66.5332 17.2436C66.534 17.2448 66.5348 17.246 66.5356 17.2472C66.6644 17.4905 66.8108 18.1227 66.3412 17.3737C65.5645 16.1655 65.3978 15.4059 64.7461 14.949C64.5681 14.6562 64.3705 14.3557 64.1708 14.0561ZM61.9888 11.7758C61.3946 11.1067 61.8734 11.1826 62.6294 12.0234C62.6295 12.0232 62.6297 12.0231 62.6298 12.0229C62.9375 12.3798 62.1591 11.8517 63.4664 12.9266C63.5831 13.2873 63.6992 13.6342 63.802 13.9883C63.5336 13.6837 63.2825 13.4117 62.9896 13.1028C63.3774 13.1332 62.5776 12.4468 61.9888 11.7758ZM72.6146 55.2144C72.3552 55.1109 72.4696 55.7358 72.5576 56.8335C72.3298 55.8293 72.1372 54.822 71.9778 53.8098C72.1834 54.2863 72.3949 54.7513 72.6146 55.2144ZM83.0709 76.4562C83.0719 76.4573 83.073 76.4585 83.074 76.4596C83.3223 76.6862 83.5735 76.9102 83.823 77.1279C83.8953 77.3317 83.9681 77.5335 84.0439 77.7372C84.9127 78.5452 85.8149 79.3219 86.7392 80.0564C86.4543 80.157 84.9372 78.6711 84.0104 77.9316C82.8698 76.6049 82.4614 75.8519 82.5532 75.6287C82.722 75.9049 82.8929 76.1796 83.0709 76.4562ZM55.3344 137.989C55.7209 137.941 56.0985 137.889 56.4787 137.832C55.9794 137.78 55.4785 137.728 54.9742 137.656C53.6257 137.863 53.5216 137.588 51.7938 137.388C46.5394 136.586 47.7564 137.321 43.3344 135.309C47.0153 136.449 45.6937 135.701 47.9864 135.989C48.4155 136.288 46.0734 136.202 47.5758 136.64C50.2534 137.024 52.8414 137.207 55.807 137.235C55.722 137.197 55.6376 137.159 55.553 137.12C55.082 137.114 54.6161 137.102 54.1475 137.082C54.6589 137.036 55.1582 136.982 55.6766 136.92C55.0167 137.09 56.6739 137.061 56.443 137.282C56.3413 137.384 55.6002 137.495 55.1561 137.564C56.2349 137.687 57.3253 137.771 58.428 137.821C58.4771 137.823 58.5261 137.826 58.575 137.828C58.526 137.835 58.477 137.842 58.428 137.848C57.882 137.925 57.3361 137.993 56.7931 138.051C56.3084 138.038 55.8313 138.018 55.3433 137.991C55.3403 137.99 55.3374 137.99 55.3344 137.989ZM146.911 92.1418C148.36 91.8986 150.993 91.8584 152.379 92.129C150.555 92.1331 148.735 92.1377 146.911 92.1418ZM82.6187 75.4266C82.6947 75.5819 82.7686 75.7326 82.8466 75.8873C82.3053 75.3724 81.7735 74.8397 81.2557 74.2961C81.2625 74.1097 81.2685 73.9212 81.2746 73.7326C81.7086 74.3066 82.1582 74.8739 82.6187 75.4266ZM71.7445 30.9876C71.7983 31.4944 71.7999 31.5397 71.8228 32.1778C71.8229 32.177 71.8229 32.1763 71.823 32.1756C71.8332 32.3577 71.8414 33.4667 71.7819 34.0188C71.76 34.2513 71.7351 34.3855 71.7084 34.3147C71.7083 34.2166 71.7082 34.1179 71.7081 34.0188C71.7076 33.0547 71.6624 32.0492 71.5713 31.0841C71.6285 31.0463 71.6876 31.0337 71.7445 30.9876ZM71.8363 43.6664C71.8361 43.6679 71.8359 43.6694 71.8357 43.6709C71.8217 44.0665 71.7933 44.4412 71.7881 44.8494C71.6433 43.3797 71.9031 43.1474 71.8296 41.8122C71.7556 40.4771 71.6123 39.6521 71.9681 38.5191C72.0214 38.9404 72.0977 39.394 72.1598 39.8278C72.0175 41.7232 72.1514 42.2337 72.2916 43.754C72.1395 43.7245 71.9884 43.6959 71.8363 43.6664ZM33.1381 130.336C32.7428 130.303 32.4962 129.945 32.4631 129.922C32.4638 129.922 32.4646 129.923 32.4653 129.923C29.7416 128.347 32.8411 130.091 30.4067 128.407C30.7923 128.624 31.1763 128.829 31.5629 129.032C32.0763 129.474 32.6134 129.928 33.1381 130.336ZM9.48005 35.5524C9.53128 35.5229 9.58262 35.4876 9.63385 35.4581C9.62195 37.2778 9.82362 37.7419 9.63996 39.254C9.58615 38.02 9.53273 36.7864 9.47944 35.5524C9.47965 35.5524 9.47985 35.5524 9.48005 35.5524ZM70.0065 22.2835C70.8209 24.0764 71.29 25.4865 71.5447 27.3648C71.5448 27.3663 71.5449 27.3678 71.545 27.3692C71.5591 27.4774 71.3413 26.9859 71.3455 27.1308C71.4463 27.5069 71.5507 27.8948 71.6407 28.2771C71.5659 28.345 71.4905 28.4101 71.4159 28.4771C71.2466 27.3954 71.0188 26.3167 70.7327 25.2496C70.7302 25.42 70.7276 25.5937 70.7222 25.7635C70.4506 24.8721 70.1395 23.9958 69.7892 23.1349C70.035 23.3896 70.276 23.6462 70.5138 23.9077C70.3603 23.3636 70.1898 22.8208 70.0065 22.2835ZM8.91947 65.8479C8.97536 65.5277 9.06909 66.1205 9.11722 65.6234C9.16473 65.1263 9.06044 64.2099 9.21822 64.4247C9.23943 65.094 9.26374 65.7968 9.28597 66.4787C9.57049 64.2841 9.31303 62.0947 9.66437 62.0609C9.5733 64.1671 9.61561 65.899 9.71289 67.9378C9.43401 67.8535 9.19287 65.8142 8.93107 67.0982C8.92745 66.6857 8.92215 66.2523 8.92008 65.8524C8.91988 65.8509 8.91968 65.8494 8.91947 65.8479ZM108.688 87.3227C109.832 87.6107 112.511 87.9153 113.982 88.1794C114.337 88.2548 115.543 88.8444 115.534 88.9088C115.491 89.1398 113.958 89.0857 115.586 89.3233C115.038 89.3003 114.499 89.2745 113.955 89.2339C114.04 89.3961 114.125 89.5577 114.208 89.7186C114.882 89.7463 115.557 89.7584 116.227 89.7546C116.258 89.8068 116.29 89.8591 116.321 89.9112C113.904 89.8126 115.32 90.0724 114.044 90.1736C115.206 90.3584 116.374 90.4969 117.553 90.5901C116.873 90.5796 116.076 90.5509 115.484 90.5094C115.39 90.7722 116.818 90.7577 117.065 90.8026C118.441 91.1742 111.414 90.6726 110.795 90.8201C111.907 91.0305 113.094 91.205 114.248 91.3299C113.912 91.3528 113.571 91.3717 113.234 91.3872C110.624 90.8785 107.729 90.2671 104.846 89.2437C104.578 89.1761 104.313 89.1067 104.05 89.0346C104.091 89.1719 104.13 89.3075 104.172 89.4446C103.767 89.3339 103.357 89.2154 102.955 89.0934C104.254 89.1055 102.609 88.6169 100.803 87.6279C101.858 87.9128 103.092 88.4263 103.088 88.1536C99.5044 87.1488 95.724 84.9313 92.6359 83.0785C91.8696 82.6116 91.6619 82.9093 89.9914 81.5916C90.0705 81.6074 90.1204 81.5633 90.1863 81.5543C87.2233 79.4051 85.5094 77.9031 83.157 74.8967C83.2072 75.1417 83.257 75.3846 83.3119 75.6301C83.8883 76.2104 84.481 76.774 85.0828 77.317C85.333 77.8448 84.6702 77.3449 86.4212 79.044C87.8867 80.4038 87.0741 79.5285 87.5133 79.8516C88.1123 80.28 88.5014 80.8176 89.1702 81.2474C89.6898 81.5741 89.2662 81.0492 90.497 82.0478C89.8624 81.83 89.2149 81.5935 88.5788 81.3425C88.3064 81.0565 88.041 80.7688 87.7774 80.4763C88.1122 80.6935 88.4437 80.9021 88.7829 81.1098C87.6503 80.3033 86.6103 79.493 85.5117 78.5521C86.056 78.6666 84.9208 77.7047 84.3492 77.1327C83.4577 76.2444 84.3371 76.8995 83.7608 76.3122C83.191 75.7217 82.4262 75.1996 81.5489 73.9879C82.1454 74.5361 81.5743 73.6047 81.8019 73.6948C82.0256 73.7885 83.0163 74.9893 82.1941 73.7323C80.3768 71.496 81.8734 74.2892 80.6476 72.7559C79.1983 70.8695 79.5973 69.9619 80.1014 70.4614C80.4976 70.8524 81.5453 72.4021 81.9844 72.7551C80.2173 69.9229 79.8986 70.0994 79.4987 69.6675C78.1443 68.0395 79.5924 68.82 78.141 66.8151C78.3082 66.7797 78.4565 66.7439 78.6174 66.7108C78.3956 66.3531 78.2322 66.123 77.9853 65.677C78.3755 67.1638 77.8275 66.0628 77.5515 65.4883C77.1193 64.5872 77.6458 66.048 77.4965 65.8274C77.0801 65.2318 76.6599 64.1725 76.8195 64.867C76.7486 64.5546 76.6707 64.2178 76.6032 63.8971C76.053 62.8717 74.4416 60.4821 75.5176 62.9236C75.1879 62.7884 74.988 61.9318 74.8041 61.2867C74.6197 60.6392 74.4705 60.7025 74.3152 60.1282C73.7377 57.8392 74.4557 59.241 74.7699 59.5233C73.7887 56.6083 74.411 59.5643 73.3139 55.2418C73.0498 54.8493 73.2919 56.9275 72.8367 55.2497C73.0843 54.8762 73.0143 53.5935 72.8421 51.1434C72.7457 50.9128 72.6507 50.6836 72.5581 50.4526C72.737 49.089 73.0453 49.7584 72.6033 47.3032C73.2166 48.4544 72.9175 47.8938 73.0209 46.2263C73.036 46.0041 73.0577 45.7624 73.089 45.5026C73.1423 45.0561 73.277 46.0879 73.3453 45.4645C73.3761 45.1818 73.2744 44.4958 73.353 43.8056C73.3918 43.4686 73.6422 41.8931 73.5232 40.8021C73.2086 41.6024 72.941 39.5295 72.6807 41.3072C72.7448 38.0214 72.5938 35.7219 73.0228 39.4036C73.118 38.5695 73.2128 37.7347 73.3075 36.9007C73.2324 36.3193 73.158 35.733 73.0835 35.1475C73.2872 35.0779 73.3754 35.1182 73.3815 34.0188C73.383 33.7179 73.3752 33.3335 73.3484 32.8443C73.386 33.2337 73.4169 33.6249 73.4409 34.0188C73.4785 34.6243 73.5162 35.23 73.5537 35.8389C73.606 35.8726 73.6602 36.0114 73.7109 35.9781C73.6751 35.5378 73.6467 34.8094 73.6217 34.0188C73.5859 32.5841 73.414 30.9687 73.3064 30.4364C73.1453 29.6025 73.3022 31.2287 73.207 30.9917C72.4469 29.0491 72.8511 29.1697 72.5029 27.764C72.2889 26.9493 72.6032 28.9333 72.4949 28.4953C72.114 26.8769 72.21 26.0555 71.794 24.6234C71.7875 25.176 71.7635 25.7252 71.7236 26.2576C71.3638 24.7621 70.8194 23.1324 70.2205 21.835C69.9855 21.3275 70.035 21.7652 69.9921 21.6841C69.7903 21.2759 68.9402 19.6522 68.8392 19.4865C68.1529 18.2005 68.2786 18.0789 67.5295 16.8635C67.844 17.3272 68.1279 17.7711 68.412 18.2399C68.7765 18.3187 69.1442 18.4095 69.5102 18.5024C68.8446 17.2282 68.0952 15.9991 67.2641 14.8181C67.8082 15.7264 68.3083 16.6602 68.7574 17.6087C67.7369 16.3123 66.6271 15.109 65.4443 14.007C65.0263 13.2729 64.5785 12.5537 64.097 11.8465C62.4624 10.2302 62.3967 10.9966 61.9252 9.90237C61.392 9.4885 60.8468 9.09219 60.291 8.7137C60.4096 8.71718 60.5277 8.72067 60.6467 8.72557C59.9803 8.25489 59.2988 7.81103 58.601 7.39418C59.1712 8.07578 59.6836 8.77405 60.1808 9.47481C58.9191 8.55992 58.9995 8.39754 58.8418 8.21412C58.4145 7.73644 57.2749 7.22609 56.9152 6.86863C56.7958 6.73758 58.1835 7.44016 57.8163 7.02236C57.7582 6.93671 56.2504 5.33231 54.9545 4.8713C54.9308 4.97778 54.9669 5.1404 54.9642 5.26795C53.3313 4.5373 52.6632 3.7197 52.9465 3.65723C52.0018 3.38459 50.6496 2.94898 50.4065 3.05615C49.934 2.91306 49.4614 2.78144 48.9807 2.65961C49.5917 2.38384 47.5457 1.95518 47.3387 2.29271C48.1712 2.47416 48.9915 2.68783 49.8048 2.9339C49.0566 3.22531 51.5047 3.96948 46.4168 2.44271C45.456 2.0318 48.186 2.81827 47.4049 2.49358C46.0103 2.09989 44.648 1.99244 43.2897 1.72747C41.7578 1.46066 43.3153 1.33134 40.7337 1.42841C40.4372 1.44541 40.0874 1.47026 39.6758 1.50918C40.0634 1.52429 40.4155 1.54566 40.7337 1.57003C44.6558 2.00216 43.3001 2.00083 40.7337 1.98782C38.774 1.99736 36.0953 2.29935 34.4579 2.72901C33.2639 2.34692 29.6265 2.84722 25.4127 5.30458C25.9344 5.21257 27.2556 4.46144 28.0903 4.17961C28.918 3.89829 28.0842 4.34622 29.1194 4.02124C30.1515 3.68561 32.3751 3.11346 33.4611 3.00658C32.5614 3.23894 28.3713 4.92084 31.1119 3.70551C28.9431 4.24863 27.8661 4.46386 25.3726 5.74124C24.7779 6.39847 24.8738 6.44109 22.643 7.9488C23.7538 6.72566 21.0631 8.28436 21.3928 7.5857C23.0511 6.51886 22.3662 7.46156 23.3983 6.99188C23.4975 6.93547 24.9917 5.92443 25.3726 5.74124C23.6166 6.32937 23.005 6.61096 23.7725 5.65882C22.6572 6.37045 21.9614 6.81041 21.9711 7.03445C21.6985 7.12287 21.4248 7.21612 21.1565 7.30986C20.8105 7.56679 20.5058 7.80872 20.147 8.09165C20.8205 7.93071 19.747 8.53704 19.1849 9.20702C18.6346 9.8812 19.6116 9.25661 17.9204 10.8723C18.5235 10.3737 19.0869 9.93566 19.6974 9.49541C18.6081 10.5287 17.5914 11.6381 16.6622 12.8044C17.4732 12.116 19.2704 10.7465 19.3887 10.972C18.817 11.3486 17.338 13.1249 17.194 13.3286C16.5749 14.079 16.8111 13.5843 16.7597 13.6369C15.7081 14.7607 15.0224 15.8274 14.5088 16.1865C13.9421 17.2038 13.4369 17.9173 12.8529 19.0022C12.5371 19.6008 12.7459 19.5603 12.5393 19.8978C11.2769 22.1918 11.9011 19.7798 10.5919 24.6961C10.882 24.143 11.1862 23.6127 11.5061 23.0852C11.3481 23.6302 11.2073 24.1731 11.0796 24.7248C10.9474 25.0776 10.8225 25.4296 10.7028 25.7887C10.4669 25.7158 10.231 25.6409 9.99518 25.5676C9.8697 25.9742 9.75308 26.3823 9.64426 26.7928C9.78427 26.0798 9.95096 25.3642 10.1404 24.6611C10.1183 24.5847 10.0951 24.5127 10.0736 24.4357C9.68549 25.4532 9.3483 26.4912 9.06334 27.5538C9.1433 27.5915 9.22396 27.6288 9.30403 27.6661C8.74915 30.0529 8.67521 30.126 8.75607 32.4639C8.7291 33.0112 8.75154 33.5322 8.80254 34.0188C8.91743 35.1216 9.12181 36.05 9.22646 36.7735C9.17835 37.1484 9.12962 37.5237 9.08151 37.9027C9.15292 38.1428 9.22402 38.3854 9.29543 38.6255C9.19609 39.1015 9.09672 39.5839 8.9979 40.0599C9.22339 40.3252 9.29379 40.4626 9.37294 38.6053C9.65339 39.2414 9.52968 42.5112 9.4355 43.8423C9.36403 44.8522 9.13011 43.7317 9.10165 43.8581C9.00498 44.2797 9.0884 45.9441 9.07236 46.2936C9.00561 47.7721 9.0173 48.8081 8.96555 50.1434C8.9552 50.4034 8.80694 51.13 8.80229 51.1917C8.77693 51.6719 8.70488 52.8573 8.70281 52.9921C8.59214 59.9452 9.23534 52.5156 9.16757 58.9811C9.25239 58.7874 9.33664 58.6094 9.42146 58.4199C9.42663 58.9083 9.43155 59.4019 9.43672 59.8902C9.36583 60.5095 9.23691 59.7603 9.3409 60.9902C9.23638 60.9102 9.13181 60.8298 9.0278 60.7455C9.08421 61.2805 9.14015 61.7962 9.19656 62.3438C8.83383 63.2031 8.75146 66.3402 8.32563 66.1173C8.18074 66.0414 8.03207 63.8173 7.87735 64.9926C7.84689 65.9476 8.01993 65.3012 8.02901 65.6907C8.09214 68.5047 7.84959 68.3412 7.91427 69.4912C8.01823 69.6722 8.12421 69.8626 8.2292 70.0479C8.19869 70.4815 8.16816 70.9164 8.13765 71.3543C8.20751 71.4554 8.27744 71.5608 8.3473 71.6619C8.35195 71.2533 8.35668 70.7932 8.36133 70.4182C8.6319 70.941 8.75344 75.7419 8.52276 73.9111C8.42911 73.1656 8.4689 71.8002 8.14925 72.663C8.1953 73.9477 8.24235 75.4054 8.2884 76.7575C8.21958 76.7996 8.15063 76.8388 8.08181 76.881C8.12636 78.7032 8.40152 77.0459 8.54901 77.0493C8.55314 77.4661 8.55677 77.8873 8.56091 78.3041C8.49422 78.4808 8.42443 78.6488 8.35981 78.8339C8.46593 78.8509 8.71259 79.0843 8.62103 80.3267C8.56143 81.1255 8.29369 79.8675 8.33082 81.3907C8.49637 81.2769 8.69801 80.7266 8.75133 82.4233C8.57854 82.5918 8.42025 82.8248 8.23866 82.9553C8.40235 85.0359 8.14517 85.9985 8.32302 88.3996C8.32553 88.4338 8.32817 88.4682 8.33092 88.5029C8.44644 90.0922 9.01006 92.185 8.45031 93.2553C8.54897 94.4055 8.68106 94.0235 8.7558 94.3576C9.1199 95.9255 9.02563 97.1494 9.0604 97.4506C9.29614 99.3529 9.60779 100.167 9.86702 101.716C9.96392 101.601 10.0649 101.526 10.1637 101.429C9.62407 100.1 9.45003 99.3865 9.12062 97.4168C9.26492 98.072 9.42275 98.7232 9.59373 99.3737C9.66771 99.2447 9.74244 99.1173 9.81776 98.9936C8.33957 92.9969 9.14318 94.3607 10.2699 99.3429C10.1861 99.8141 10.1133 100.304 10.0417 100.776C11.0839 103.586 11.2738 104.987 12.5237 108.133C12.6725 108.509 13.3747 109.794 13.6617 110.352C13.6577 110.342 13.6537 110.333 13.6498 110.323C13.9795 110.596 13.8183 110.086 13.9327 109.961C14.0979 110.257 14.266 110.55 14.4368 110.841C14.6786 111.563 14.4567 111.38 15.2026 112.668C15.208 112.435 15.2164 112.205 15.2252 111.973C16.0092 113.386 16.4509 114.36 17.3265 115.589C17.1491 115.403 16.9746 115.218 16.7996 115.028C18.5275 117.829 16.4764 116.064 18.211 117.906C18.2563 118.071 18.2995 118.232 18.3468 118.397C17.7131 117.577 17.1033 116.734 16.5234 115.879C16.4397 115.908 16.3552 115.937 16.2737 115.97C16.9064 116.888 17.5745 117.791 18.266 118.664C17.7297 118.05 17.2049 117.418 16.6971 116.775C17.3933 117.871 18.1318 118.94 18.9117 119.98C18.3062 118.704 19.4432 120.078 19.4805 119.617C20.709 121.534 21.6378 123.165 24.3871 125.429C24.9412 125.867 24.7824 125.464 26.1254 126.961C25.9781 126.394 28.0053 127.831 27.9647 127.362C27.4168 126.954 26.862 126.513 26.3445 126.098C26.8464 126.671 26.7425 127.004 25.798 126.324C24.5867 125.456 23.1965 123.785 23.0149 124.094C22.6058 123.665 22.2284 123.263 21.844 122.834C22.07 122.947 22.2934 123.053 22.5172 123.159C21.2869 122.081 20.648 121.266 20.3114 120.528C21.5987 121.975 22.9646 123.343 24.4056 124.628C24.2086 124.422 24.0108 124.212 23.8172 124.004C25.0312 124.843 24.0658 123.686 26.106 125.452C26.0258 125.518 25.948 125.587 25.8673 125.654C26.7794 126.115 28.8911 127.769 28.4123 126.99C28.9909 127.561 29.0909 127.708 29.5594 127.842C31.1347 129.291 32.1656 130.266 31.3168 130.16C32.0233 130.55 32.7399 130.923 33.4579 131.274C33.1074 130.955 32.7626 130.631 32.423 130.303C33.5976 131.041 34.8143 131.735 36.0433 132.368C36.0206 132.706 33.643 131.18 34.2292 131.798C34.3457 131.925 35.0606 132.186 35.2211 132.303C36.922 133.553 34.1274 131.828 34.5565 132.327C37.2943 133.824 34.8557 133.141 38.9391 134.597C39.0109 134.719 39.0906 134.846 39.1563 134.965C40.5484 135.535 40.5094 135.31 41.7308 135.713C42.494 135.96 43.3653 136.597 44.2869 136.627C44.452 136.62 43.1268 135.851 46.1447 136.683C48.4979 137.264 47.4585 137.31 48.7296 137.681C50.0122 138.063 53.0614 138.062 53.9072 138.573C53.2251 138.453 52.3405 138.322 51.5869 138.169C51.2648 138.214 50.9519 138.258 50.631 138.298C52.3894 138.458 54.2005 138.759 55.4027 138.615C56.4571 138.825 57.5775 138.871 58.428 138.813C59.4437 138.743 60.0539 138.562 59.666 138.361C58.8965 138.414 59.7336 138.574 58.6648 138.472C58.5874 138.412 58.5071 138.352 58.428 138.292C58.395 138.267 58.3623 138.241 58.3301 138.216C58.3629 138.217 58.3956 138.217 58.428 138.217C60.1949 138.227 61.399 138.229 60.5841 138.485C60.8663 138.491 61.1459 138.497 61.4281 138.503C61.4787 138.315 61.5235 138.126 61.574 137.937C61.911 137.916 62.2495 137.895 62.5864 137.874C62.9611 137.915 63.3367 137.957 63.7155 137.999C63.2058 138.297 62.3377 138.307 65.2106 138.474C65.219 138.371 65.2313 138.268 65.2398 138.165C67.6449 138.296 67.7084 138.546 70.7282 138.536C68.4114 138.894 67.1439 138.26 67.1523 138.977C66.571 138.93 65.9849 138.882 65.4036 138.835C65.3152 138.939 65.2275 139.043 65.1432 139.147C68.2644 139.093 73.4491 138.409 75.5388 138.862C75.7915 138.807 76.0451 138.759 76.302 138.699C78.3493 138.973 79.2334 138.358 81.3101 138.712C81.5243 138.749 81.076 139.327 83.7794 139.306C83.712 139.231 83.6769 139.105 83.6222 139.01C84.2076 139.056 84.7898 139.104 85.3709 139.151C85.4762 139.082 85.5866 139.013 85.6919 138.943C84.6936 138.916 83.698 138.889 82.6996 138.862C83.5291 138.838 84.364 138.814 85.1936 138.79C84.1113 138.677 83.6231 138.676 84.2755 138.494C85.2148 138.484 86.1555 138.472 87.0949 138.461C87.1916 138.415 87.2877 138.368 87.3845 138.321C86.9296 138.182 86.4701 138.047 86.0152 137.906C88.4625 138.019 90.5902 138.026 92.4689 138.298C92.789 138.344 91.6568 138.525 93.8382 138.362C93.8719 138.458 93.9305 138.535 93.9684 138.624C96.6391 138.356 97.5165 138.436 100.301 138.629C98.498 138.449 100.107 138.566 100.566 138.469C100.88 138.403 99.6525 138.413 99.7913 138.343C99.9303 138.273 101.526 137.993 100.162 137.96C96.817 138.534 95.9059 137.848 91.6091 138.123C92.2705 138.049 92.9366 137.975 93.598 137.901C93.2865 137.851 93.0077 137.806 92.6709 137.752C95.0674 137.865 93.9018 137.792 94.8865 137.703C95.8722 137.615 97.6637 137.539 98.8643 137.515C99.2424 137.508 98.8436 137.636 99.6971 137.648C100.278 137.656 101.867 137.466 102.234 137.691C102.474 137.837 99.9217 138.24 103.45 138.239C104.115 138.383 102.423 138.338 102.386 138.356C102.079 138.526 104.248 138.655 105.251 138.524C105.332 138.513 104.54 138.38 105.401 138.328C107.444 138.203 108.624 138.356 109.947 138.562C110.09 138.32 111.809 138.031 113.949 138.12C114.059 138.051 114.163 137.981 114.272 137.911C113.94 137.948 113.608 137.984 113.276 138.021C112.913 137.977 112.53 137.946 112.176 137.894C114.328 137.835 114.632 137.501 115.664 137.379C119.196 136.962 117.055 137.844 116.418 137.996C115.959 137.935 115.515 137.866 115.06 137.801C115.111 137.886 115.162 137.971 115.208 138.056C120.495 138.053 116.014 138.603 118.697 138.76C119.388 138.345 121.358 138.305 123.869 138.568C124.147 138.566 124.426 138.566 124.704 138.563C124.75 138.503 124.749 138.41 124.825 138.37C127.85 138.3 128.388 138.939 128.675 138.999C129.947 139.268 130.937 138.896 131.312 138.893C132.892 138.88 133.351 139.045 134.855 138.974C136.472 138.898 135.366 138.771 135.858 138.658C136.253 138.568 137.529 138.552 138.056 138.459C137.846 138.535 137.614 138.61 137.405 138.686C139.081 138.79 140.451 138.892 142.355 138.917C144.503 138.359 146.33 139.3 145.589 138.537C143.786 138.485 142.778 138.398 141.814 138.203C142.997 138.178 144.181 138.154 145.365 138.129C145.71 138.213 145.955 138.295 146.364 138.38C147.248 138.202 149.299 138.278 150.104 138.226C153.874 137.981 152.707 137.678 156.149 138.188C153.668 138.238 153.672 138.486 151.212 138.451C151.743 138.628 152.993 138.592 152.184 138.804C154.564 138.752 153.795 138.562 154.721 138.394C155.52 138.249 157.128 138.241 157.038 138.053C157.202 138.156 157.329 138.256 157.493 138.36C159.035 138.359 160.576 138.359 162.118 138.358C161.46 138.466 160.804 138.574 160.147 138.682C160.643 138.723 161.141 138.763 161.637 138.804C165.428 138.468 171.966 139.084 170.922 138.239C172.75 138.212 172.978 138.318 173.972 138.478C174.082 138.414 174.188 138.361 174.298 138.289C175.477 138.356 176.382 138.116 177.422 138.178C178.463 138.24 178.721 138.468 178.873 138.086C179.546 138.195 180.216 138.286 180.886 138.388C181.29 138.301 181.694 138.215 182.094 138.129C182.726 138.175 183.359 138.22 183.991 138.266C184.218 138.143 185.416 138.138 186.509 138.111C187.039 138.098 187.535 138.06 187.887 137.999C188.917 138.108 188.972 138.81 191.402 138.249C191.308 138.111 191.217 137.973 191.126 137.835C191.679 137.758 192.23 137.662 192.784 137.544C192.83 137.584 192.871 137.625 192.917 137.664C192.635 137.726 192.356 137.782 192.074 137.833C192.336 137.857 192.594 137.879 192.856 137.896C193.66 137.547 194.439 137.157 195.192 136.726C194.081 137.06 192.951 137.309 191.817 137.473C193.182 137.035 194.164 136.828 195.273 136.251C196.35 136.03 196.04 136.291 195.714 136.68C196.085 136.504 196.457 136.317 196.817 136.122C196.663 136.43 197.389 136.328 195.131 137.225C195.31 137.227 195.492 137.223 195.67 137.225C196.037 137.064 196.3 137.012 196.69 136.806C197.76 136.24 198.346 135.422 198.205 135.343C198.135 135.305 197.182 135.97 197.172 135.851C197.162 135.561 199.538 134.504 196.056 135.94C197.114 135.27 197.414 135.26 198.622 134.602C198.486 134.585 198.354 134.565 198.223 134.543C198.785 134.258 199.339 133.949 199.88 133.616C199.399 134.527 203.373 131.78 200.091 134.668C201.175 133.959 202.199 133.164 203.155 132.294C202.992 132.509 202.824 132.722 202.653 132.933C202.196 133.303 201.729 133.654 201.249 133.99C201.847 133.639 202.434 133.259 203.006 132.853C204.15 131.666 204.448 131.064 204.792 130.384C203.43 131.684 203.988 131.363 202.954 132.41C202.909 132.285 202.783 132.248 202.788 132.068C203.537 131.766 205.061 129.81 205.371 129.34C206.381 127.939 205.775 129.177 206.454 128.232C207.126 127.271 207.673 126.011 208.311 125.263C208.179 125.217 208.016 125.222 207.873 125.226C208.607 123.592 208.575 123.964 208.677 123.805C210.093 121.154 210.258 119.426 210.492 116.045C210.422 116.477 210.346 116.903 210.256 117.334C210.166 114.762 210.215 116.504 209.76 118.655C210.082 116.904 209.947 115.764 209.856 114.57C209.841 114.379 209.825 114.188 209.81 113.992C209.735 112.56 209.495 110.116 209.357 109.213C209.877 110.848 210.057 112.688 210.059 114.57C210.06 114.97 210.053 115.371 210.041 115.772C210.195 115.518 210.323 115.266 210.483 114.993C210.455 114.845 210.431 114.704 210.411 114.57C210.227 113.402 210.322 112.698 210.319 112.274C210.286 110.885 210.022 110.973 210.149 110.103C210.062 110.153 209.989 110.192 209.909 110.241C209.468 107.449 208.402 104.496 207.182 103.073C207.298 102.817 207.424 102.598 207.524 102.311C206.76 101.344 206.307 100.391 205.639 99.5999C204.964 98.8265 205.077 99.2357 204.233 98.392C204.075 98.2385 203.844 97.821 203.398 97.4981C202.952 97.1433 201.043 96.3312 201.185 95.7694C200.386 95.1422 199.603 94.5816 198.752 94.0612C199.602 94.5332 200.423 95.0588 201.208 95.6299C200.634 95.0148 200.027 94.4285 199.381 93.8686C199.227 93.9126 199.072 93.9597 198.924 94.0075C196.931 92.9937 195.516 92.1526 193.332 91.5331C192.967 91.4415 193.76 91.8864 192.166 91.4085C190.576 90.9893 189.387 90.2759 186.509 90.4021C186.501 90.4026 186.492 90.4031 186.484 90.4036C186.341 90.4124 185.501 90.7488 184.486 90.5159C184.255 90.4631 185.227 90.3851 184.697 90.3157C184.166 90.2464 181.798 90.1894 181.613 90.0243C181.638 90.0828 181.786 90.1433 181.857 90.2028C181.453 90.2308 181.045 90.2587 180.636 90.2861C180.598 90.1832 180.557 90.0801 180.519 89.9776C178.194 90.2172 176.993 90.608 173.547 90.4787C174.516 90.6282 175.485 90.7783 176.45 90.9279C176.715 90.8228 176.981 90.7171 177.242 90.612C178.83 90.654 180.422 90.6956 182.01 90.7375C182.271 90.6179 182.528 90.4987 182.789 90.3792C183.21 90.3947 183.627 90.4098 184.048 90.4253C183.943 90.5117 183.837 90.5977 183.727 90.6841C184.561 90.6628 185.396 90.6412 186.226 90.62C184.537 91.13 181.509 90.5766 181.727 91.0033C181.352 90.9371 180.977 90.8704 180.603 90.8037C180.438 91.0106 179.676 90.951 178.333 90.9184C178.641 91.0204 178.98 91.1209 179.262 91.2239C177.957 91.0801 175.64 91.094 174.288 91.0387C173.694 91.0143 174.287 90.8643 174.111 90.8467C173.205 90.7546 171.474 91.0163 171.112 90.9956C168.947 90.8725 167.54 90.3763 165.176 90.7033C167.615 90.784 166.289 90.7499 167.156 90.9315C167.428 90.9885 170.579 91.1073 166.633 91.0545C166.171 91.0479 159.011 90.7051 161.365 90.4424C160.206 90.5262 159.299 90.6231 158.238 90.7121C155.643 90.0198 156.541 90.6702 157.295 91.0283C156.87 91.0298 156.465 91.0335 156.027 91.0335C156.958 90.6573 152.215 90.6339 150.606 90.8238C150.066 90.887 151.574 91.0074 150.327 91.0643C149.734 91.0379 149.06 91.0038 148.433 90.9743C149.342 91.2123 147.557 91.304 147.582 91.5461C146.44 91.3304 145.567 90.873 146.195 90.6252C145.251 90.7255 144.303 90.8258 143.359 90.9267C143.798 90.9841 144.241 91.041 144.679 91.0985C141.596 90.9463 137.631 91.2925 136.987 90.7838C136.578 90.7875 136.165 90.7906 135.756 90.7942C135.63 90.8801 135.508 90.9662 135.382 91.0521C133.533 90.9776 131.688 90.9026 129.839 90.8281C131.485 90.7748 131.877 90.6525 133.604 90.7518C132.938 90.653 132.261 90.5537 131.608 90.4549C129.009 90.7209 128.654 90.8957 124.741 90.8165C124.564 90.8129 121.608 90.5898 121.507 90.5681C121.043 90.4688 121.746 90.3244 121.54 90.2742C120.967 90.1335 117.486 89.7801 117.554 89.7268C118.404 89.0727 130.117 89.064 133.285 89.0304C151.174 88.8405 168.849 88.8923 186.509 88.9661C200.129 88.703 212.316 100.956 212.001 114.57C212.002 117.057 211.644 119.547 210.929 121.937C210.826 122.281 210.963 122.16 210.921 122.308C210.657 123.23 210.168 124.047 210.027 124.366C209.721 125.051 210.012 124.728 209.787 125.23C207.392 130.403 203.451 134.452 198.455 137.146C198.128 137.319 198.413 137.049 197.843 137.359C197.552 137.521 196.671 138.123 195.961 138.401C193.487 139.374 191.275 139.847 188.496 140.081C187.917 140.127 187.236 140.157 186.509 140.154C185.4 140.151 184.2 140.146 183.209 140.147C182.506 140.148 181.774 140.226 181.079 140.229C180.093 140.233 180.295 140.074 180.143 140.064C179.478 140.022 179.385 140.195 178.754 140.191C177.578 140.183 177.515 140.067 176.024 140.077C174.958 140.084 172.519 140.175 171.175 140.202C168.033 140.068 164.073 140.121 161.141 140.166C159.406 140.192 159.245 140.03 158.537 140.03C156.044 140.033 154.151 140.241 151.81 140.248C148.702 140.256 145.947 140.119 142.936 140.109C142.448 140.108 142.56 140.257 142.081 140.26C140.307 140.274 138.039 140.301 136.46 140.28C134.699 140.257 134.05 140.041 132.327 140.085C131.822 140.098 131.674 140.287 130.828 140.312C129.476 140.35 127.993 140.183 127.05 140.164C125.756 140.139 126.881 140.332 125.137 140.306C125.065 140.305 124.805 140.167 124.43 140.174C123.339 140.193 123.447 140.301 121.851 140.291C121.698 140.289 119.581 140.158 119.37 140.158C118.132 140.155 115.639 140.109 114.905 140.137C112.285 140.237 114.348 140.444 112.12 139.994C111.138 140.104 110.165 140.216 109.125 140.323C109.819 140.223 107.002 140.079 106.804 140.088C105.166 140.163 106.142 140.338 104.065 140.31C106.808 139.905 101.386 140.257 100.177 140.268C94.3561 140.318 89.0645 140.217 83.2137 140.219C81.255 140.221 78.6301 140.306 76.5579 140.304C76.0749 140.304 76.4399 140.208 76.0147 140.206C75.5906 140.205 76.0611 140.312 75.5769 140.306C72.5652 140.269 70.2054 140.066 67.4464 140.32C67.3121 140.283 67.3163 140.254 67.0939 140.214C64.836 140.441 60.4878 140.136 58.8534 140.094C58.7054 140.09 58.5638 140.087 58.428 140.085C56.1386 140.029 55.4328 140.112 53.6306 139.932C51.089 139.694 47.4131 138.641 48.9929 139.449C47.273 139.148 45.6273 138.765 43.9417 138.229C43.7545 138.169 43.9198 138.086 43.8452 138.061C43.3742 137.904 43.1884 137.963 42.8648 137.868C41.9903 137.603 43.4495 137.931 42.2005 137.566C41.545 137.364 41.1401 137.355 39.359 136.665C28.619 132.533 18.6979 123.886 13.0715 113.525C12.6836 112.815 12.8282 113.343 12.3599 112.442C10.6576 109.334 8.7003 103.312 8.06491 100.352C7.38048 97.3941 7.36993 98.1004 6.9821 96.2266C6.91374 95.8658 7.05788 96.1486 7.0118 95.8201C6.69336 93.6024 6.67354 90.9311 6.68191 89.131C6.68181 88.8078 6.67271 88.5785 6.65772 88.3996C6.61739 87.9353 6.53014 87.8267 6.52183 87.2428C6.50527 86.0507 6.66648 84.8238 6.67166 84.1877C6.69439 81.1974 6.56454 79.1415 6.63077 76.3489C6.59565 76.4582 6.56314 76.5304 6.52854 76.6228C6.53423 73.3164 6.53994 70.0141 6.54563 66.7076C6.51354 66.8635 6.48119 67.0142 6.44859 67.1701C6.46619 63.2906 6.81391 63.7333 6.07965 64.0745C6.05378 63.7924 6.0238 63.4933 6 63.2237C6.37824 63.3332 6.65504 60.9865 6.75131 58.0001C6.75855 57.7811 6.38976 56.3114 6.82546 56.4715C6.71887 56.0881 6.64539 55.8597 6.55173 55.5354C6.68364 54.9037 6.81399 54.2635 6.94539 53.6318C6.92573 53.2907 6.90676 52.9448 6.8871 52.6037C6.80172 52.5532 6.71307 52.592 6.62924 52.4825C6.61631 50.8988 6.72186 47.6506 6.71102 46.3991C6.6836 43.2903 6.45276 40.1253 6.70218 37.7074C6.67675 36.5296 6.50917 37.6992 6.53037 35.9475C6.61521 35.7495 6.69653 35.5634 6.78396 35.3571C6.63427 34.7918 6.57964 34.403 6.57323 34.0188C6.56669 33.3911 6.67016 32.7889 6.80361 31.5411C6.96327 30.1577 6.98854 29.2379 7.2381 27.9253C7.30346 27.5943 7.4045 27.6623 7.44466 27.4363C7.56166 26.6755 7.96476 24.5002 8.13963 23.9806C9.58423 19.2401 11.7544 15.4469 14.8258 11.8791C15.1597 11.4979 14.6464 11.9236 14.9944 11.5297C15.5605 10.9013 15.3556 11.3859 15.6895 11.0302C16.6376 10.0574 16.5037 9.90992 17.8998 8.61097C22.5111 4.33223 29.32 1.18291 35.8067 0.327642C36.0083 0.298761 35.9818 0.197101 36.2021 0.166458C37.6471 -0.0314482 39.1159 0.0158252 40.4272 0.0038563C40.5304 0.00284636 40.6326 0.00198448 40.7337 0.00127196C42.7599 -0.00391996 44.3593 -0.00862694 46.3928 0.32132C50.5548 1.03694 54.1506 2.3964 57.897 4.56473C60.943 6.37445 63.4061 8.2934 66.0322 11.1621C71.6131 17.2883 74.9422 25.5827 74.9653 34.0188C74.996 38.087 75.0219 42.159 75.03 46.2263C75.0375 50.3194 75.6087 54.3858 76.7168 58.2999C76.8246 58.6786 76.691 58.5515 76.7296 58.6655C77.1068 59.7497 77.2671 59.8011 77.152 60.2723C77.6923 61.6334 78.0334 61.9934 78.7272 63.6081C79.1121 64.462 78.5295 63.9608 79.3707 65.3236C80.1781 66.5238 79.4742 65.1016 81.5104 68.8419C81.5668 68.9388 81.7043 69.5121 82.2443 70.2209C82.7952 70.9246 82.2926 70.0216 83.5891 71.7221C86.6355 75.6973 91.2557 80.2252 96.3818 83.0672C96.6854 83.2804 99.8615 84.8016 100.53 85.001C101.799 85.4467 101.584 85.2236 103.22 85.799C104.484 86.2251 105.49 86.7103 107.028 87.0781C107.208 87.1174 107.538 87.0498 108.688 87.3227ZM61.4236 137.774C61.7691 137.617 62.3924 137.039 64.481 137.215C64.679 137.232 63.6102 137.629 64.7639 137.692C63.635 137.734 62.5356 137.748 61.4236 137.775C61.4236 137.774 61.4236 137.774 61.4236 137.774ZM117.14 91.9398C115.534 91.8967 113.93 91.7704 112.342 91.5606C113.449 91.6162 114.555 91.6313 115.653 91.606C116.145 91.7251 116.638 91.8365 117.14 91.9398ZM9.35585 45.3374C9.35585 45.3359 9.35585 45.3344 9.35585 45.3329C9.43037 46.9757 9.50502 48.6195 9.57953 50.2624C9.52468 50.0897 9.4696 49.9166 9.41475 49.7439C9.32835 48.4467 9.24207 47.1489 9.15567 45.8559C9.2224 45.6832 9.28912 45.51 9.35585 45.3374ZM8.81661 32.3761C8.9421 31.3404 9.04049 31.6041 9.19467 31.0498C9.19446 31.0498 9.19426 31.0498 9.19406 31.0498C9.23358 30.9056 9.33218 30.2137 9.37262 29.9492C9.29173 30.0385 9.20858 30.1576 9.12813 30.257C9.23212 27.798 10.8785 23.4248 9.92033 29.3443C9.84756 29.2437 9.77537 29.1447 9.70371 29.0419C9.23677 31.992 9.13339 35.3777 8.81661 32.3761ZM86.1835 137.524C88.8121 137.239 89.655 137.179 92.8438 137.374C92.3933 137.455 91.9428 137.535 91.4924 137.616C90.9658 137.534 90.4431 137.452 89.9166 137.37C89.9151 137.37 89.9136 137.37 89.9121 137.37C89.8068 137.456 89.7011 137.543 89.6001 137.629C88.4628 137.594 87.3207 137.559 86.1835 137.524ZM72.4866 34.804C71.9996 35.4318 72.1724 35.3665 72.1512 34.0188C72.1477 33.7983 72.1366 33.5433 72.1112 33.2524C72.0462 32.5508 71.9681 33.2381 71.9367 32.8033C71.7265 30.4635 72.0117 30.2351 72.2815 30.7437C72.4037 31.8274 72.4696 32.9291 72.4795 34.0188C72.4818 34.2802 72.4842 34.5406 72.4866 34.7996C72.4866 34.801 72.4866 34.8025 72.4866 34.804ZM99.6841 87.4821C99.6855 87.4828 99.6868 87.4834 99.6882 87.484C99.6926 87.6375 98.7627 87.2721 99.7423 87.8419C98.9538 87.5034 98.1803 87.1443 97.4087 86.7596C97.6403 86.8605 97.8783 86.9628 98.1107 87.0593C97.931 86.9209 97.7508 86.7797 97.5732 86.6385C97.2314 86.6455 97.016 86.4402 96.252 85.9719C96.3892 86.2389 96.5289 86.5049 96.6732 86.771C95.7624 86.244 94.8645 85.682 93.9956 85.0949C94.0069 85.0515 94.0179 85.008 94.0292 84.9646C93.6634 84.8062 93.3024 84.6454 92.94 84.477C92.8773 84.3757 92.8183 84.2768 92.7566 84.1752C92.3375 83.9472 91.9203 83.7115 91.5068 83.4697C91.4616 83.2824 92.3422 83.8516 90.8146 82.794C91.3495 83.028 91.8859 83.2504 92.4294 83.4642C94.716 85.0226 97.1478 86.3705 99.6841 87.4821ZM67.4085 17.1106C68.9597 19.6255 68.4131 18.9715 67.8497 18.5137C67.7155 18.0464 67.567 17.5761 67.4085 17.1106ZM12.06 105.831C12.546 106.578 13.0466 107.305 13.57 108.038C14.3641 109.592 14.8707 111.303 14.1499 110.184C13.294 108.822 12.8006 107.216 12.06 105.831ZM39.2788 133.992C37.3304 133.051 39.2876 133.66 39.7816 133.714C40.2469 134.135 41.0287 134.433 42.2748 134.894C41.0914 134.504 39.6004 134.147 39.2785 133.992C39.2786 133.992 39.2787 133.992 39.2788 133.992ZM9.12088 71.2129C9.11514 70.3372 9.06152 69.4661 9.12668 68.683C9.31025 68.9193 9.14324 70.4857 9.41536 69.3654C9.42001 69.9255 9.42453 70.4864 9.4297 71.0423C9.31695 70.689 9.23269 71.1642 9.12149 71.2107C9.12129 71.2114 9.12108 71.2121 9.12088 71.2129ZM43.868 2.81169C42.4152 2.4869 41.9821 2.52674 40.7337 2.63426C40.5718 2.64961 40.3965 2.6673 40.204 2.68772C40.1135 2.62294 40.3409 2.53313 40.7337 2.45099C41.383 2.31243 42.4699 2.21837 43.2694 2.2441C43.4714 2.43127 43.6702 2.62048 43.868 2.81169ZM169.839 91.5928C170.252 91.3673 173.296 91.3379 174.809 91.4045C174.629 91.438 174.448 91.4719 174.268 91.5059C172.793 91.5348 171.313 91.5638 169.839 91.5928ZM42.8701 135.113C42.6605 135.036 42.462 134.963 42.2748 134.894C42.4851 134.965 42.6866 135.037 42.8701 135.113ZM133.86 138.601C133.14 138.814 135.281 138.885 132.682 138.802C132.682 138.802 132.682 138.802 132.682 138.802C130.963 138.747 130.584 138.733 128.991 138.716C129.565 138.443 132.795 138.345 128.343 138.289C128.284 138.289 128.401 138.451 127.689 138.429C127.47 138.422 126.767 138.289 125.698 138.25C125.353 138.238 122.757 138.196 126.295 138.194C126.19 138.003 126.38 137.811 126.372 137.626C127.753 137.572 128.814 137.945 130.275 137.936C132.445 137.921 133.549 137.544 133.966 138.039C132.142 138.161 129.009 138.164 128.601 137.866C126.836 137.862 126.329 138.106 127.752 138.227C133.848 138.074 129.426 138.589 134.763 138.394C134.826 138.325 135.045 138.251 135.012 138.187C136.641 138.429 134.117 138.525 133.86 138.601ZM121.114 138.075C122.168 137.929 123.217 137.783 124.266 137.637C124.266 137.874 123.688 138.087 122.028 138.22C121.725 138.171 121.418 138.123 121.114 138.075ZM205.892 127.76C205.87 127.564 205.991 127.17 206.038 126.863C206.526 126.792 209.445 119.973 208.132 123.511C207.987 124.061 206.24 126.906 205.892 127.76ZM55.011 5.86986C54.2713 5.39701 53.5143 4.95585 52.7366 4.54543C54.0051 5.00334 55.2487 5.54286 56.4553 6.16116C55.9716 6.05084 55.493 5.95547 55.011 5.86986ZM18.8306 118.521C18.6084 118.219 19.4988 119.104 18.589 117.943C19.3358 118.758 20.0494 119.501 20.8207 120.246C20.9635 120.545 21.1122 120.844 21.2618 121.141C21.4678 121.293 21.6776 121.447 21.8853 121.596C21.6942 121.567 21.5161 121.547 21.3174 121.511C20.3179 119.979 19.8326 119.849 18.8306 118.521ZM8.20143 66.6807C8.46684 66.3527 8.62467 68.9939 8.6671 66.3956C8.84148 66.8885 8.93294 67.6809 8.94846 69.2016C8.88178 69.4457 8.81557 69.6893 8.74889 69.9334C8.92734 69.9671 8.99366 70.3583 9.12088 71.2129C9.12067 71.2137 9.12047 71.2144 9.12027 71.2151C9.13319 73.527 9.07369 73.3888 8.78032 73.9448C8.94591 71.4973 8.67787 71.4242 8.51849 69.756C8.4089 68.6104 8.45853 67.1145 8.20143 66.6807ZM200.403 133.458C201.602 132.226 200.332 133.091 202.704 131.253C202.605 131.429 202.502 131.604 202.398 131.778C201.765 132.374 201.099 132.935 200.403 133.458ZM9.11111 58.1393C8.70027 58.3373 8.38047 59.9667 9.04886 60.2449C9.18495 58.6568 8.80635 59.4325 9.11111 58.1393ZM38.3428 134.29C35.5636 133.004 36.3215 132.807 37.5315 133.138C37.6689 133.295 37.8075 133.452 37.9441 133.606C38.443 133.791 38.947 133.968 39.4494 134.136C39.084 134.192 38.7137 134.243 38.3428 134.29ZM21.2969 8.50292C19.6442 10.1364 23.3909 7.15016 22.2083 8.25833C21.2548 9.11121 19.7902 9.98362 20.1575 9.42927C20.4972 9.13786 20.8827 8.82283 21.2934 8.50563C21.2946 8.50473 21.2958 8.50383 21.2969 8.50292ZM12.6817 18.6294C13.1465 18.4533 12.7705 18.8696 13.6589 17.2848C13.8632 16.7946 16.4207 13.5587 15.1759 14.7888C14.2845 15.97 13.4251 17.2816 12.6817 18.6294ZM73.0987 138.022C73.1268 138.158 69.9049 138.458 69.4914 138.383C69.4914 138.383 69.4914 138.383 69.4914 138.384C68.3751 138.179 71.7737 138.15 70.2995 137.87C73.5639 138.117 74.5406 137.52 74.3131 138.306C72.3901 138.341 73.3006 138.179 73.0987 138.022ZM129.864 90.9502C129.862 90.9502 129.861 90.9502 129.859 90.9502C130.076 90.9566 131.859 91.1569 131.642 91.2263C129.498 91.1668 129.88 91.0349 127.884 91.2517C127.775 91.1819 127.681 91.1142 127.563 91.0438C128.355 91.0024 128.794 90.9186 129.864 90.9502ZM209.474 120.521C209.32 121.297 208.739 122.609 208.405 123.432C208.958 120.639 209.982 117.447 209.474 120.521ZM78.0513 67.7316C78.0501 67.7297 78.0488 67.7278 78.0475 67.7259C78.0481 67.7264 78.0488 67.727 78.0494 67.7275C78.0501 67.7289 78.0507 67.7302 78.0513 67.7316ZM156.858 137.947C156.96 137.984 157.017 138.016 157.038 138.044C157.038 138.047 157.038 138.049 157.038 138.052C156.983 138.017 156.924 137.982 156.858 137.947ZM79.7949 137.981C81.1368 138.171 76.6658 138.474 75.22 138.401C75.3211 138.314 75.3368 138.236 75.5725 138.136C76.7394 138.361 79.5716 137.948 79.7949 137.981ZM8.77727 86.3741C8.77209 89.9084 8.02037 85.3089 8.62011 85.1193C8.63173 85.1264 8.77624 86.2828 8.77727 86.3741ZM51.9819 137.645C51.0649 137.743 52.8404 138.082 49.9916 137.598C49.8355 137.512 49.6805 137.424 49.5262 137.337C50.3429 137.46 51.1637 137.563 51.9819 137.645ZM12.2328 109.17C14.1891 113.251 16.8109 116.65 15.7923 113.876C15.6034 113.599 15.4153 113.317 15.2317 113.036C14.9437 113.143 14.4564 111.991 13.6651 110.36C13.4389 110.182 12.984 109.284 12.8135 109.153C12.4787 108.9 12.8366 110.023 12.2328 109.17ZM73.1787 44.8112C73.1264 44.7396 73.0739 44.6696 73.0222 44.598C72.9632 43.8945 72.9045 43.1892 72.8455 42.4857C72.9458 42.5993 73.0461 42.7132 73.1464 42.8269C73.1572 43.4879 73.1681 44.1457 73.179 44.8068C73.1789 44.8083 73.1788 44.8098 73.1787 44.8112ZM116.78 138.721C117.184 138.146 115.772 138.252 112.908 138.542C114.197 138.602 115.491 138.661 116.78 138.721ZM8.02352 38.0486C8.18695 37.956 8.34988 37.8648 8.5133 37.768C8.34306 36.2473 8.1559 36.5297 7.9396 37.2584C7.96752 37.5235 7.99561 37.7835 8.02352 38.0486ZM12.8407 16.7913C12.4769 17.3199 12.7613 17.1095 12.7238 17.1652C11.8502 18.5226 11.6692 18.6973 10.9175 20.5358C10.8488 20.7716 10.7861 21.0049 10.7237 21.2422C11.4045 20.5444 11.4824 19.8507 12.5846 18.2663C12.3132 18.51 12.0458 18.7576 11.7805 19.0125C12.2979 18.0701 12.8594 17.1574 13.4664 16.272C13.5056 16.1456 13.546 16.0193 13.5868 15.8932C13.3353 16.1852 13.077 16.49 12.8407 16.7913ZM73.5305 52.9238C73.6726 53.9556 73.8488 54.9745 74.0632 55.995C74.1538 56.0136 74.2446 56.0305 74.3352 56.0487C74.0292 55.0171 73.7616 53.9802 73.5305 52.9238ZM138.056 138.459C138.138 138.429 138.218 138.399 138.289 138.368C138.282 138.405 138.193 138.435 138.056 138.459ZM127.13 90.4875C125.955 90.4286 124.261 90.4673 122.972 90.4549C123.074 90.6665 126.35 90.608 127.5 90.7362C127.685 90.6983 127.626 90.5124 127.13 90.4875ZM34.5532 132.413C34.2431 132.364 33.9332 132.313 33.6263 132.26C33.0073 131.896 32.3975 131.519 31.7909 131.127C31.7271 131.189 31.6632 131.252 31.5992 131.313C34.3846 132.872 33.6431 132.683 34.9257 133.658C34.7935 133.242 34.6724 132.829 34.5532 132.413ZM89.9302 80.4445C88.1534 79.0633 87.5098 78.5649 88.2865 79.6183C88.9289 80.1027 89.5869 80.5717 90.2519 81.0185C90.1418 80.8268 90.0335 80.6344 89.9302 80.4445ZM179.559 138.654C181.466 138.557 181.498 138.905 183.362 138.711C182.364 138.647 181.366 138.582 180.372 138.518C180.104 138.563 179.828 138.609 179.559 138.654ZM86.0286 139.609C86.8332 139.731 88.3372 139.155 90.599 139.58C91.138 139.453 91.4758 139.332 91.9391 139.208C92.2087 139.343 92.515 139.48 92.7719 139.614C92.7734 139.614 92.7749 139.614 92.7764 139.614C94.8279 139.568 93.4978 139.399 93.5441 139.255C93.5659 139.196 95.0884 139.295 94.6126 139.166C93.7912 138.944 90.7219 139.072 90.7135 138.801C91.7918 138.89 93.8976 138.816 93.2748 138.635C92.5924 138.437 90.6079 138.769 89.3442 138.605C91.1551 139.037 87.4148 138.904 86.9894 138.571C84.7947 138.826 86.8119 138.93 89.0613 138.919C87.6881 139.173 89.7094 139.036 90.0423 139.247C88.6263 139.375 83.7668 139.268 86.0286 139.609ZM7.75465 91.0378C7.83579 92.5783 7.95823 94.9914 8.33895 95.9966C8.54866 96.5797 8.30739 94.2022 8.73343 95.8032C8.50424 94.3407 8.40804 94.0042 8.26203 94.279C8.20226 93.9433 8.14559 93.5988 8.09344 93.2646C8.11199 93.1051 8.13046 92.9417 8.15051 92.7825C8.0646 92.611 7.98006 92.4375 7.8962 92.2683C7.88281 91.9056 7.873 91.5379 7.86784 91.1738C7.82994 91.133 7.79514 91.0617 7.75465 91.0378ZM208.343 104.416C208.524 104.8 208.695 105.187 208.856 105.58C208.877 105.521 208.896 105.453 208.916 105.386C208.933 105.338 208.949 105.289 208.966 105.24C208.968 105.514 209.475 107.483 209.797 108.277C209.964 108.682 209.969 107.655 210.426 109.446C210.134 108.14 209.744 106.955 209.258 105.752C209.364 105.836 209.469 105.917 209.575 106.003C209.575 106.002 209.574 106.001 209.574 106.001C209.437 105.587 209.288 105.173 209.129 104.767C208.867 104.643 208.606 104.528 208.343 104.416ZM7.70036 39.2832C7.83541 40.7196 7.90555 41.2005 8.12392 40.5223C8.12402 40.5208 8.12412 40.5193 8.12422 40.5178C8.02748 39.9829 7.93076 39.4477 7.83402 38.9128C7.78951 39.035 7.74486 39.1568 7.70036 39.2832ZM150.429 139.179C153.483 138.35 146.605 138.859 147.915 139.141C147.974 139.154 150.143 139.088 150.429 139.179ZM38.7599 134.748C37.9788 134.423 37.207 134.079 36.4413 133.714C36.5729 133.891 36.7089 134.069 36.843 134.245C37.4791 134.425 38.1192 134.593 38.7599 134.748ZM83.3438 73.2576C82.9734 72.4445 81.7531 70.6198 80.9701 69.838C81.2545 70.3309 81.5489 70.8191 81.8533 71.302C81.2097 70.4366 80.6025 69.5605 80.0205 68.6408C79.7219 68.7507 80.5034 69.7511 81.5142 71.3536C81.6598 71.6038 82.4647 73.3612 83.114 73.6801C83.2366 73.7474 82.0506 72.1434 83.0374 73.1314C82.6767 72.6461 82.3617 72.2303 82.0342 71.7628C82.0713 71.6851 82.1088 71.6077 82.1439 71.5269C82.5304 72.1137 82.9286 72.6887 83.3438 73.2576ZM9.02131 99.8986C9.49452 101.954 9.72392 102.171 10.0531 102.528C9.75549 101.598 9.4849 100.656 9.2422 99.7102C9.1691 99.7748 9.09469 99.8335 9.02131 99.8986ZM75.3748 57.0156C75.142 55.9274 75.0812 56.4317 74.9441 56.0013C74.4433 54.3628 74.3726 53.1891 74.0833 51.5316C74.1317 51.6386 74.177 51.7364 74.2245 51.8387C74.2243 51.8373 74.2242 51.8358 74.224 51.8344C73.7701 43.8856 73.4791 48.0879 74.1694 52.8363C74.119 52.9565 74.0687 53.0749 74.0199 53.1968C74.468 55.3079 75.0884 57.1915 75.3748 57.0156ZM123.296 139.208C123.389 139.25 122.601 139.52 124.08 139.394C125.251 139 123.33 139.195 122.85 139.044C123.25 139.006 123.659 138.969 124.055 138.932C121.662 138.82 121.313 138.914 122.185 139.202C122.247 139.221 123.204 139.166 123.296 139.208ZM139.021 139.402C139.35 138.822 136.33 139.083 136.44 139.263C136.856 139.27 137.18 139.172 137.623 139.215C138.069 139.259 138.183 139.394 139.021 139.402ZM52.4194 138.909C52.5066 138.924 53.387 139.263 53.3149 139.062C52.2423 138.516 50.002 138.465 50.3588 138.676C51.0993 138.784 51.5954 138.786 52.4193 138.909C52.4194 138.909 52.4194 138.909 52.4194 138.909ZM93.2514 82.2639C93.2175 82.2365 91.5149 80.9041 91.2463 80.7957C91.0012 80.7374 90.8433 80.7539 90.641 80.7306C91.6356 81.4088 93.6 82.8323 93.2477 82.2615C93.2489 82.2623 93.2501 82.2631 93.2514 82.2639Z" fill="var(--stroke-0, black)"/>
</g>
<defs>
<filter id="filter0_d_148_324" x="4.76837e-07" y="0" width="226.007" height="160.323" filterUnits="userSpaceOnUse" color-interpolation-filters="sRGB">
<feFlood flood-opacity="0" result="BackgroundImageFix"/>
<feColorMatrix in="SourceAlpha" type="matrix" values="0 0 0 0 0 0 0 0 0 0 0 0 0 0 0 0 0 0 127 0" result="hardAlpha"/>
<feOffset dx="4" dy="10"/>
<feGaussianBlur stdDeviation="5"/>
<feComposite in2="hardAlpha" operator="out"/>
<feColorMatrix type="matrix" values="0 0 0 0 0 0 0 0 0 0 0 0 0 0 0 0 0 0 0.25 0"/>
<feBlend mode="normal" in2="BackgroundImageFix" result="effect1_dropShadow_148_324"/>
<feBlend mode="normal" in="SourceGraphic" in2="effect1_dropShadow_148_324" result="shape"/>
</filter>
</defs>
</svg>
