<svg preserveAspectRatio="none" width="100%" height="100%" overflow="visible" style="display: block;" viewBox="0 0 70 70" fill="none" xmlns="http://www.w3.org/2000/svg">
<path id="Vector" d="M35.0003 0C15.6726 0 0 16.0665 0 35.8862C0 51.7416 10.0286 65.1934 23.9354 69.9385C25.6845 70.2707 26.3268 69.16 26.3268 68.2121C26.3268 67.3564 26.294 64.5296 26.2793 61.5311C16.5421 63.7017 14.4875 57.2969 14.4875 57.2969C12.8953 53.149 10.6012 52.0458 10.6012 52.0458C7.42574 49.8186 10.8407 49.8646 10.8407 49.8646C14.3552 50.1174 16.2058 53.5625 16.2058 53.5625C19.3277 59.0485 24.3939 57.4626 26.3911 56.5455C26.7053 54.2264 27.6123 52.6429 28.6133 51.7469C20.8392 50.8396 12.667 47.7624 12.667 34.012C12.667 30.094 14.0342 26.8925 16.2731 24.3794C15.9097 23.4755 14.7118 19.8258 16.6121 14.8826C16.6121 14.8826 19.5513 13.9181 26.2399 18.5611C29.0317 17.766 32.0258 17.3674 35.0003 17.3536C37.9747 17.3674 40.9713 17.7658 43.7683 18.5611C50.4487 13.9184 53.3837 14.8828 53.3837 14.8828C55.2888 19.8256 54.0903 23.4758 53.7269 24.3794C55.971 26.8925 57.3289 30.094 57.3289 34.012C57.3289 47.7952 49.1411 50.8301 41.3473 51.7186C42.6027 52.8322 43.7213 55.0161 43.7213 58.3642C43.7213 63.1656 43.6808 67.0301 43.6808 68.2121C43.6808 69.1672 44.3108 70.2862 46.0849 69.9335C59.984 65.1833 70 51.7365 70 35.8864C70 16.0665 54.3296 0 35.0003 0ZM13.1089 51.1206C13.0318 51.2989 12.758 51.3524 12.5089 51.2299C12.2549 51.113 12.1125 50.8699 12.1945 50.6911C12.27 50.5074 12.5442 50.4561 12.7974 50.5792C13.0517 50.6964 13.1966 50.9417 13.1089 51.1206ZM14.8304 52.6956C14.6636 52.8543 14.3371 52.7806 14.1157 52.5299C13.8868 52.2799 13.8439 51.9451 14.0131 51.7842C14.1854 51.6255 14.5018 51.6998 14.7312 51.9499C14.9603 52.203 15.0046 52.5353 14.8304 52.6956ZM16.0117 54.7108C15.797 54.8636 15.4465 54.7204 15.2296 54.4013C15.0153 54.0823 15.0153 53.6996 15.2343 53.5462C15.4517 53.3929 15.797 53.5308 16.0166 53.8476C16.2304 54.172 16.2304 54.5547 16.0114 54.7111M18.0086 57.0451C17.8169 57.2621 17.4081 57.2038 17.109 56.9077C16.803 56.6184 16.718 56.208 16.9105 55.991C17.1046 55.7734 17.5156 55.8345 17.8169 56.1283C18.1204 56.4171 18.2134 56.8306 18.0086 57.0451ZM20.5904 57.8329C20.5056 58.1141 20.1119 58.242 19.7157 58.1225C19.3197 57.9994 19.0608 57.6703 19.1406 57.3863C19.2229 57.1031 19.6183 56.9702 20.0175 57.0981C20.4129 57.2203 20.6727 57.5472 20.5904 57.8332M23.5282 58.1677C23.538 58.4634 23.202 58.7087 22.7858 58.7144C22.3675 58.7239 22.0287 58.4845 22.024 58.1929C22.024 57.8943 22.3527 57.6512 22.7713 57.6439C23.1875 57.6355 23.5282 57.8733 23.5282 58.1677ZM26.4143 58.0541C26.4641 58.3429 26.1751 58.6395 25.7616 58.7186C25.3556 58.7945 24.9793 58.6162 24.9277 58.33C24.8773 58.0339 25.1718 57.7373 25.5773 57.6608C25.9913 57.587 26.3616 57.7606 26.4143 58.0541Z" fill="var(--fill-0, black)"/>
</svg>
