<svg width="114" height="75" viewBox="0 0 114 75" fill="none" xmlns="http://www.w3.org/2000/svg">
<path d="M4.10195 26.209C4.32743 25.4267 4.17963 28.0383 4.51636 26.3041C4.53911 26.6657 4.56258 27.0296 4.58533 27.3912C4.46062 27.4829 4.33621 27.5769 4.21151 27.6686C4.17478 27.183 4.13807 26.6971 4.10134 26.209C4.10155 26.209 4.10175 26.209 4.10195 26.209ZM2.54014 25.5459C2.89584 25.991 2.99067 27.405 3.31891 25.8775C3.19684 25.756 3.07479 25.6317 2.95272 25.5103C3.0474 24.9799 3.14205 24.4463 3.23621 23.9159C3.18967 23.7252 3.14308 23.5347 3.09706 23.344C3.30919 23.1011 3.52189 22.8604 3.73454 22.6175C3.70349 22.8331 3.6719 23.0517 3.64085 23.2674C3.81312 24.1199 3.86023 24.8785 3.89231 26.036C3.9425 25.9343 3.99225 25.8325 4.04245 25.7309C3.95707 26.3182 3.87148 26.9054 3.78611 27.4903C3.70231 26.9823 3.60911 26.4143 3.531 25.9435C3.19839 26.6969 3.3835 28.0257 3.45288 28.7174C3.54757 29.6593 3.38941 29.4464 3.45562 30.1453C3.46597 30.2568 3.58993 30.2695 3.59203 30.4901C3.60186 31.603 3.53615 33.7646 3.24689 32.5005C3.28415 30.6687 3.05187 29.1064 3.13673 27.3093C2.80226 27.7847 2.68845 26.838 2.54014 25.5459ZM3.60515 59.1973C3.44271 58.6421 3.50826 57.5116 3.62102 56.7457C3.62102 56.7448 3.62102 56.7439 3.62102 56.743C3.64586 56.5745 3.86174 56.1927 3.85294 56.743C3.83787 57.6401 3.49804 58.0738 3.72874 58.5447C3.68579 58.7554 3.64758 58.9767 3.60515 59.1973ZM3.62529 61.1469C3.54198 61.6972 3.28592 61.4476 3.35522 60.7586C3.35502 60.7586 3.35482 60.7586 3.35461 60.7586C3.38359 60.471 3.58599 61.0355 3.38055 60.0043C3.54038 59.7937 3.68578 59.5863 3.84043 59.3782C3.84302 59.6307 3.84721 59.861 3.84928 60.1259C3.58658 59.9476 3.70795 60.5968 3.62529 61.1469ZM3.39154 33.4304C3.62787 33.517 3.62638 33.1545 3.79038 32.5375C3.78262 33.1199 3.77434 33.7024 3.76658 34.2824C3.64141 33.9974 3.51671 33.7153 3.39154 33.4304ZM3.42816 19.7472C3.42816 19.7463 3.42816 19.7454 3.42816 19.7445C3.3909 19.5537 3.35351 19.3623 3.31677 19.1739C3.40112 19.0599 3.4851 18.9471 3.56945 18.8331C3.49028 18.1589 3.41111 17.481 3.33142 16.8068C3.58907 16.8887 3.54715 18.099 3.72722 18.7657C3.64959 19.7571 3.50004 20.2349 3.28168 20.2993C3.3303 20.1159 3.37954 19.933 3.42816 19.7472ZM111.675 65.2312C111.638 65.0068 111.591 64.7879 111.535 64.5732C111.483 64.8492 111.423 65.121 111.334 65.3883C111.481 66.1701 111.211 66.1943 110.86 67.0775C110.251 68.4178 109.915 68.884 109.603 69.299C109.27 69.6809 108.866 70.0657 107.55 70.4097C109.329 69.3141 108.464 69.4517 109.118 68.4623C109.448 68.3987 108.91 69.6035 109.564 69.0496C110.415 67.8059 110.869 66.4321 110.936 64.892C110.897 64.9324 110.858 64.9718 110.818 65.0106C110.804 65.2517 110.778 65.4909 110.739 65.7304C110.716 65.4554 110.677 65.1913 110.621 64.926C110.782 65.2788 110.77 64.4349 110.987 64.5631C111.089 64.6206 111.195 65.0239 111.249 65.276C111.357 64.8738 111.429 64.4515 111.464 64.0225C111.48 63.8037 111.497 63.585 111.514 63.3674C111.565 63.586 111.617 63.8045 111.669 64.0225C111.7 64.1492 111.729 64.2766 111.754 64.4044C111.743 64.681 111.717 64.9537 111.677 65.2263C111.676 65.228 111.676 65.2296 111.675 65.2312ZM27.3607 3.4248C28.2134 3.18159 29.7629 3.14135 30.5784 3.41198C29.5051 3.41612 28.434 3.42066 27.3607 3.4248ZM3.10164 20.364C3.14298 20.2675 3.18388 20.1739 3.22523 20.0774C3.30179 20.5036 3.37783 20.9324 3.4544 21.3587C3.33492 21.4404 3.21541 21.5241 3.09645 21.6083C3.098 21.1945 3.10008 20.7778 3.10164 20.364ZM3.23469 47.6354C3.22746 47.3236 3.23137 47.2959 3.24842 46.9076C3.24832 46.908 3.24821 46.9085 3.24811 46.9089C3.25448 46.7549 3.32427 45.4669 3.41626 45.6104C3.41781 46.25 3.41626 46.9321 3.41626 47.5865C3.35575 47.6063 3.29571 47.6106 3.23469 47.6354ZM3.28839 40.1076C3.2886 40.1067 3.2888 40.1058 3.289 40.1049C3.30298 39.8721 3.33142 39.6517 3.33661 39.4114C3.48139 40.2763 3.22164 40.4129 3.29511 41.1986C3.3691 41.9842 3.51242 42.4698 3.15656 43.1364C3.10327 42.8885 3.02702 42.6216 2.96492 42.3663C3.10721 41.251 2.97331 40.9506 2.83309 40.056C2.98521 40.0734 3.13628 40.0902 3.28839 40.1076ZM101.253 70.9869C101.04 71.1628 100.802 70.9902 100.777 70.9881C100.778 70.9879 100.778 70.9877 100.779 70.9875C98.8908 71.1505 101.025 70.8902 99.2426 70.8627C99.5077 70.8188 99.7685 70.7723 100.031 70.7278C100.438 70.8127 100.857 70.9088 101.253 70.9869ZM39.9063 70.9705C39.8889 70.9192 39.8682 70.8679 39.8508 70.8167C40.9216 70.8286 41.1947 70.6269 42.0845 70.8105C41.3584 70.8643 40.6324 70.9178 39.9063 70.9711C39.9063 70.9709 39.9063 70.9706 39.9063 70.9705ZM2.86208 53.0326C2.76429 51.8453 2.72119 50.967 2.87643 49.8268C2.87663 49.8259 2.87683 49.825 2.87704 49.8241C2.88659 49.7584 2.99377 50.0764 3.02077 49.9906C3.00474 49.7553 2.98009 49.5124 2.96096 49.2746C3.04678 49.2424 3.13259 49.2117 3.2179 49.1795C3.19358 49.8487 3.16929 50.5183 3.14497 51.1899C3.19516 51.0908 3.24492 50.9892 3.29511 50.8901C3.32098 51.4601 3.34675 52.028 3.37262 52.598C3.23192 52.3998 3.09119 52.202 2.94997 52.0063C2.92049 52.3482 2.89209 52.6907 2.86208 53.0326ZM57.7332 71.531C57.5448 71.4751 57.8936 71.3814 57.6011 71.3333C57.3086 71.2858 56.7694 71.3901 56.8958 71.2323C57.2896 71.2111 57.7032 71.1868 58.1044 71.1645C56.813 70.88 55.5247 71.1375 55.5049 70.7861C56.7442 70.8772 57.7633 70.8349 58.963 70.7376C58.9134 71.0165 57.7134 71.2576 58.469 71.5194C58.2262 71.5231 57.9712 71.5284 57.7359 71.5304C57.735 71.5306 57.7341 71.5308 57.7332 71.531ZM3.37038 1.97501C4.07839 1.33703 5.99165 0.129724 7.23296 0.00773692C7.5414 -0.0521243 8.58491 0.274599 8.58115 0.353782C8.57972 0.581271 7.51758 0.811108 8.69445 0.752963C8.3063 0.812531 7.93628 0.900443 7.56274 1.00892C7.67147 1.13919 7.77684 1.2708 7.8765 1.40449C8.30608 1.27063 8.7478 1.16905 9.19658 1.10093C9.22361 1.14974 9.25024 1.19879 9.27657 1.24784C7.6938 1.4649 8.6526 1.52713 7.91371 1.87666C8.64474 1.77828 9.38032 1.7796 10.0853 1.87306C9.67802 1.8598 9.19749 1.89119 8.84043 1.93391C8.83381 2.19132 9.65541 2.0375 9.80186 2.09316C10.206 2.22965 9.38251 2.23024 8.47467 2.4753C7.55821 2.70073 6.61773 3.23907 6.57941 3.48527C7.13704 3.23272 7.75027 3.04116 8.3564 2.93784C8.19673 3.02508 8.03917 3.11861 7.88938 3.2164C6.50303 3.37904 5.02319 4.21485 3.88944 5.50049C3.80711 5.63146 3.72894 5.76525 3.65586 5.89807C3.7798 5.92433 3.90127 5.95427 4.02358 5.9844C3.91238 6.17606 3.80887 6.37447 3.71622 6.57458C3.71813 5.81954 3.18933 6.55857 2.59968 7.60628C2.6539 6.95898 3.09613 6.29298 2.84663 6.2239C2.36162 7.37083 1.9798 8.68424 1.96734 10.0225C1.95426 11.0629 1.95464 12.0884 2.0528 13.029C2.10764 13.5569 2.43718 13.5552 2.40679 14.7964C2.37056 14.7543 2.30517 14.7471 2.25756 14.7198C2.41539 16.8664 2.50974 18.1688 2.3488 20.3997C2.46724 20.2709 2.58618 20.1441 2.70462 20.0153C2.64563 19.5419 2.5857 19.0676 2.52671 18.5967C2.7223 18.2745 2.80861 18.7506 2.80655 17.3378C2.80499 16.1802 2.71863 16.8693 2.66068 16.5545C2.58156 16.1283 2.73721 15.7542 2.64878 15.2957C2.58099 14.9413 2.41961 15.3247 2.46049 14.4001C2.66955 14.772 2.88542 15.1513 3.09706 15.5256C3.04997 15.7511 3.00216 15.975 2.95455 16.2005C2.89866 15.9725 2.84351 15.7483 2.78763 15.5203C2.88801 16.3233 2.98268 17.0821 3.08668 17.9124C2.78448 17.6422 2.89779 18.5005 2.93349 18.9665C2.98932 19.6924 2.78134 19.0705 2.81601 19.5464C2.85121 20.0223 3.08356 20.5355 3.03389 21.3956C2.89937 20.9347 2.77874 21.5617 2.65458 21.4406C2.53041 21.3191 2.50292 20.4093 2.36742 21.2834C2.47039 22.9639 2.94325 21.1403 3.01985 22.2754C3.11195 23.6386 2.34117 23.963 2.17547 23.5566C2.04507 23.2369 2.0713 22.1366 1.94142 21.8144C1.70702 23.7849 2.16975 23.802 2.26031 24.1392C2.5899 25.3636 1.71019 24.5411 2.02839 25.9911C1.86388 25.9638 1.71591 25.9417 1.55813 25.9145C1.58814 26.1646 1.62802 26.3307 1.65182 26.633C1.97235 25.7416 1.95861 26.4713 1.95911 26.8457C1.96015 27.4356 2.1165 26.5244 2.15686 26.6806C2.26487 27.102 2.21582 27.7684 2.35704 27.3595C2.29133 27.5429 2.22542 27.7418 2.16022 27.9302C2.2421 28.6194 2.92873 30.2392 2.79007 28.6976C3.04518 28.8414 2.92256 29.3401 2.88375 29.7292C2.84498 30.1183 3.00745 30.111 2.97744 30.4531C2.85738 31.8137 2.57947 30.9236 2.36162 30.708C2.51168 32.505 2.61095 30.7457 2.71134 33.3353C2.88882 33.5856 3.07821 32.3891 3.18067 33.3855C2.87233 33.569 2.65082 34.3027 2.54838 35.7327C2.61927 35.8716 2.69079 36.01 2.76169 36.1488C2.47708 36.9296 2.18113 36.5305 2.53404 37.9756C1.88464 37.1998 2.30009 37.7332 2.03571 39.0271C1.98241 39.2898 1.84768 38.6827 1.77938 39.0495C1.74857 39.2158 1.85027 39.6195 1.77175 40.0257C1.73294 40.2239 1.48254 41.151 1.60147 41.793C1.91608 41.3221 2.18373 42.5419 2.44401 41.4958C2.37985 43.4293 2.53091 44.7824 2.10193 42.616C2.00672 43.1068 1.91191 43.598 1.81722 44.0888C1.89225 44.4308 1.96669 44.7758 2.0412 45.1204C1.78263 45.1724 1.71009 45.1201 1.75557 46.4677C1.69454 45.883 1.6325 45.3007 1.57095 44.7136C1.51873 44.6937 1.46446 44.612 1.41379 44.6317C1.51311 45.3508 1.55585 47.3758 1.62466 47.8665C1.69348 48.3573 1.71232 47.4096 1.77907 47.5508C2.32952 48.728 1.92354 48.6347 2.01801 49.4794C2.0739 49.9751 2.13458 48.7915 2.15838 49.0567C2.24563 50.0401 1.95308 50.4963 1.94935 51.3683C2.1154 51.0585 2.28404 50.7512 2.45164 50.4489C2.44285 51.3636 2.44137 52.3832 2.49467 53.2334C2.51548 53.5671 2.63898 53.3149 2.64725 53.3694C2.68968 53.6398 2.7569 54.7403 2.75741 54.8568C2.7584 55.7337 2.58735 55.7588 2.57798 56.6109C2.5635 56.2764 2.55044 55.9618 2.53648 55.6348C2.25915 55.4861 1.98184 55.3344 1.704 55.1857C1.68382 56.0209 1.66406 56.8564 1.64388 57.6941C1.73649 57.0819 1.82866 56.4675 1.92127 55.8554C2.14533 56.8121 2.36989 57.7689 2.59446 58.7257C2.45682 59.2239 2.31921 59.7201 2.18158 60.2183C2.21789 61.5713 2.7766 61.2989 2.28716 61.9408C2.32854 62.3397 2.36989 62.7386 2.41075 63.1375C2.34092 63.0805 2.27094 63.0241 2.20111 62.9671C2.23253 63.3189 2.2638 63.6707 2.29535 64.0225C2.30692 64.1489 2.32154 64.2741 2.33911 64.3979C2.39648 64.27 2.45783 64.1448 2.52236 64.0225C2.7096 63.6495 2.8993 63.28 3.07783 62.9077C3.13158 63.854 2.92177 63.8721 2.86941 64.0133C2.86828 64.0163 2.86718 64.0194 2.86609 64.0225C2.72606 64.3712 2.97268 65.0189 2.90066 65.2991C2.8646 65.4037 2.61677 64.5664 2.49545 64.8791C2.45363 64.9182 2.06975 66.2676 2.52693 66.9918C2.62 66.9387 2.71922 66.8348 2.81627 66.765C3.24052 67.6864 3.10327 68.4117 2.88801 68.3782C3.28001 68.8389 3.84028 69.4921 4.04992 69.4608C4.25025 69.6768 4.46027 69.8803 4.6823 70.0732C4.15854 70.1761 5.20106 70.9489 5.47742 70.6779C5.0682 70.3833 4.6871 70.0503 4.34063 69.6864C4.62686 69.6654 4.55392 69.3439 4.64745 69.3391C4.75931 69.3167 4.90463 69.6941 6.08331 70.6865C6.46539 71.195 5.22334 70.0891 5.53145 70.4922C6.17157 71.0621 6.92734 71.3405 7.65355 71.7353C8.11306 71.9767 8.0407 72.046 8.13962 72.1146C8.2392 72.1656 8.5334 72.2897 9.75015 72.2366C7.92796 71.8895 7.59463 71.4682 7.83906 71.5115C8.09484 71.5182 9.02037 71.7567 10.0853 71.7264C11.0694 71.7059 12.1521 71.6838 12.9044 71.6235C13.5737 72.2444 15.6294 72.4411 18.4601 72.2564C18.1652 72.0836 17.2745 72.1726 16.7614 72.1157C16.2484 72.0588 16.8035 71.9563 16.1644 71.8756C15.5251 71.7949 14.1671 71.6851 13.5199 71.5631C14.0681 71.4653 16.7738 71.234 14.9848 71.5118C16.3203 71.683 16.9475 71.859 18.6028 71.8911C19.0985 71.6215 19.0618 71.4537 20.6753 71.4459C19.721 71.8205 21.5544 72.0809 21.1508 72.4679C20.0066 72.3777 20.6461 72.0016 19.9844 71.8215C19.9166 71.8036 18.8505 71.8978 18.6028 71.8911C19.6785 72.229 20.0506 72.3548 19.3887 72.7569C20.1497 72.7217 20.623 72.7721 20.6924 72.5802C20.851 72.6635 21.0105 72.7468 21.1667 72.8301C21.4143 72.828 21.6372 72.8203 21.8997 72.8219C21.5382 72.5323 22.239 72.7105 22.7372 72.5793C23.2354 72.4478 22.567 72.2192 23.9353 72.2161C23.4792 72.1483 23.0622 72.0902 22.621 72.026C23.5033 71.9515 24.3884 71.8765 25.2707 71.802C24.651 71.6251 23.3081 71.3622 23.3448 71.1294C23.7512 71.2173 25.1434 71.0629 25.2958 71.0565C25.8857 71.0327 25.5642 71.1795 25.6088 71.1831C26.5357 71.2545 27.299 71.2045 27.651 71.427C28.3474 71.3266 28.8727 71.3838 29.6112 71.3781C30.0177 71.375 29.9386 71.2116 30.1765 71.2427C31.7579 71.4496 30.2513 71.6608 33.3018 71.2588C32.9325 71.145 32.5681 71.0285 32.1988 70.9137C32.5434 70.8707 32.8859 70.8276 33.2305 70.7846C33.461 70.8053 33.6895 70.8262 33.92 70.8469C33.915 71.0937 33.9091 71.341 33.9041 71.5878C34.1569 71.6012 34.4108 71.6143 34.6636 71.6278C34.2299 71.6521 33.795 71.6764 33.3612 71.7007C33.3216 71.7441 33.2846 71.7876 33.245 71.831C33.8894 71.8983 34.5317 71.9661 35.1761 72.0339C35.1885 71.9481 35.2008 71.8616 35.2131 71.7758C36.6657 71.8953 36.7002 71.968 38.0808 71.7315C39.1442 71.7341 40.0102 71.3751 40.6249 71.224C40.8454 71.2721 41.0663 71.3209 41.2893 71.369C41.4306 71.2976 41.5733 71.2265 41.7146 71.1551C41.9947 71.2544 42.2786 71.3538 42.5587 71.4526C42.7148 71.2271 42.7956 71.1567 41.7027 71.0776C42.0771 70.7971 44.0011 70.9208 44.7844 71.015C45.3786 71.0865 44.7193 71.3204 44.7937 71.3488C45.0418 71.4455 46.0211 71.3621 46.2268 71.3781C47.0968 71.4449 47.7064 71.4332 48.4922 71.4849C48.6451 71.4953 49.0727 71.6436 49.109 71.6482C49.3916 71.6736 50.0891 71.7456 50.1684 71.7477C54.2599 71.8584 49.888 71.2152 53.6926 71.2829C53.5786 71.1981 53.4738 71.1139 53.3623 71.029C53.6497 71.0239 53.9402 71.019 54.2275 71.0138C54.5919 71.0847 54.1511 71.2136 54.8748 71.1096C54.8277 71.2141 54.7804 71.3187 54.7308 71.4227C55.0456 71.3663 55.3491 71.3103 55.6713 71.2539C56.1769 71.6167 58.0229 71.699 57.8917 72.1249C57.8471 72.2698 56.5384 72.4184 57.23 72.5732C57.7919 72.6036 57.4115 72.4306 57.6408 72.4215C59.2966 72.3584 59.2003 72.6009 59.877 72.5362C59.9836 72.4323 60.0956 72.3263 60.2046 72.2213C60.4598 72.2518 60.7157 72.2823 60.9734 72.3129C61.0329 72.243 61.0949 72.1731 61.1544 72.1032C60.9139 72.0985 60.6432 72.0938 60.4226 72.0892C60.7302 71.8186 63.5552 71.6971 62.4779 71.9277C62.0392 72.0214 61.2357 71.9816 61.7435 72.3013C62.4994 72.2552 63.3572 72.2082 64.1528 72.1621C64.1776 72.2309 64.2007 72.2999 64.2255 72.3687C65.2977 72.3241 64.3225 72.049 64.3245 71.9015C64.5698 71.8974 64.8176 71.8937 65.0629 71.8896C65.1669 71.9563 65.2657 72.0261 65.3746 72.0907C65.3846 71.9846 65.522 71.7379 66.253 71.8295C66.7231 71.8891 65.9829 72.1568 66.8792 72.1197C66.8122 71.9541 66.4884 71.7525 67.4868 71.6992C67.5859 71.872 67.723 72.0303 67.7998 72.2118C69.0414 72.0458 69.6064 72.3127 71.0638 72.1197C71.9883 71.9976 73.2548 71.564 73.8522 72.232C74.5285 72.2496 74.3138 72.0832 74.514 72.0458C75.4584 71.8689 76.1608 72.1856 76.3368 72.2042C77.4592 72.3236 77.9624 72.214 78.8769 72.3635C78.8273 72.2398 78.8003 72.1228 78.7607 72.0022C77.9229 72.1874 77.4986 72.1787 76.3236 72.1389C76.7176 72.1141 77.1118 72.0887 77.5058 72.0638C77.4414 71.9635 77.3776 71.8631 77.3156 71.7633C73.6817 72.1586 74.5294 71.534 77.5758 71.3974C77.8385 71.5831 78.1108 71.7683 78.371 71.9546C80.1308 71.6731 80.959 71.9175 82.9493 71.976C83.1859 71.9826 84.0477 71.8756 84.4181 71.8704C84.4119 71.8697 84.4058 71.8689 84.3996 71.8682C84.6301 71.6928 84.3179 71.6121 84.2807 71.4553C84.4815 71.4357 84.6823 71.4161 84.8831 71.3965C85.3314 71.516 85.1738 71.6141 86.056 71.5857C85.9371 71.4667 85.8197 71.3476 85.7007 71.2286C86.6674 71.2245 87.3001 71.3538 88.1999 71.2979C88.0487 71.3429 87.8993 71.3881 87.7481 71.4331C89.7063 71.548 88.1479 72.2476 89.6278 71.8994C89.7219 71.9604 89.8136 72.022 89.9078 72.0831C89.2981 72.0981 88.6881 72.1126 88.081 72.1276C88.0686 72.214 88.0552 72.3 88.0453 72.3864C88.6972 72.3605 89.3523 72.3338 90.0042 72.308C89.5283 72.3659 89.0496 72.424 88.5737 72.4819C89.3296 72.5233 90.0857 72.5647 90.8417 72.6061C90.0389 72.2885 91.0796 72.2496 90.8839 71.9351C92.2225 72.1969 93.2739 72.542 95.3486 72.3211C95.7599 72.2771 95.5365 72.0573 96.7038 72.3248C96.4213 71.975 97.8837 71.8109 97.6958 71.4782C97.2894 71.4943 96.868 71.5044 96.474 71.524C96.9226 71.6394 96.997 71.9568 96.3155 72.051C95.4455 72.1711 94.1766 71.9511 94.2285 72.3034C93.8816 72.2868 93.5589 72.2771 93.2219 72.2631C93.3606 72.1757 93.4965 72.0878 93.6327 72.0004C92.6739 72.1374 92.0714 72.0928 91.6104 71.8725C92.7529 71.8218 93.893 71.7716 95.0355 71.7215C94.8672 71.7065 94.6966 71.6914 94.5283 71.6769C95.3934 71.4518 94.501 71.2386 96.1147 71.1905C96.1048 71.2934 96.0969 71.3964 96.087 71.4999C96.6744 71.2246 98.2829 71.2261 97.7698 70.9094C98.2556 71.0067 98.3546 71.0682 98.6297 70.8975C99.9112 71.1381 100.734 71.4424 100.278 71.8057C100.754 71.7472 101.23 71.6887 101.703 71.6302C101.428 71.5309 101.153 71.432 100.878 71.3327C101.706 71.3389 102.54 71.345 103.365 71.3507C103.444 71.6446 101.772 71.4398 102.254 71.7025C102.351 71.7553 102.796 71.6423 102.913 71.672C104.148 71.9933 102.21 71.7612 102.574 72.0074C103.867 72.0609 103.524 72.2805 104.085 72.286C104.33 72.2846 104.751 72.2566 105.49 72.0283C105.572 72.1002 105.661 72.1716 105.741 72.2415C106.642 72.0406 106.516 71.8669 107.22 71.5582C107.648 71.3593 108.367 71.36 108.694 70.86C108.726 70.7599 107.851 70.9702 109.268 69.8637C110.283 68.9004 110.076 69.4985 110.66 68.9524C111.286 68.3752 111.653 66.5789 112.181 66.1694C112.016 66.5654 111.806 67.0627 111.565 67.4629C111.567 67.6712 111.561 67.8783 111.547 68.0891C111.976 67.0864 112.407 66.019 112.298 65.2642C112.455 64.8635 112.527 64.4225 112.528 64.0225C112.532 63.1123 112.306 62.4313 112.047 62.7254C112.1 63.1782 112.26 62.6856 112.158 63.3145C112.072 63.379 111.987 63.4469 111.902 63.5113C111.912 62.4405 111.91 61.6968 112.17 62.1852C112.177 62.0191 112.183 61.8546 112.189 61.6885C112.001 61.6588 111.812 61.6324 111.623 61.6026C111.602 61.4044 111.581 61.2052 111.56 61.0069C111.601 60.7864 111.643 60.5655 111.685 60.3425C111.983 60.6424 111.993 61.1533 112.159 59.4628C112.056 59.4578 111.954 59.4506 111.851 59.4456C111.982 58.0303 112.231 57.993 112.222 56.216C112.579 57.5793 111.946 58.3252 112.663 58.3202C112.616 58.6623 112.568 59.0071 112.521 59.3492C112.625 59.4012 112.729 59.4528 112.833 59.5024C112.778 57.6658 112.094 54.615 112.548 53.3853C112.492 53.2366 112.444 53.0874 112.385 52.9362C112.659 51.7315 112.044 51.2113 112.398 49.9893C112.435 49.8632 113.013 50.127 112.992 48.5363C112.917 48.5759 112.79 48.5965 112.696 48.6287C112.742 48.2843 112.79 47.9417 112.837 47.5997C112.768 47.5378 112.699 47.4728 112.629 47.4109C112.602 47.9983 112.574 48.5841 112.548 49.1716C112.524 48.6835 112.5 48.1922 112.476 47.7041C112.363 48.3409 112.362 48.6282 112.18 48.2443C112.169 47.6916 112.158 47.1381 112.147 46.5853C112.1 46.5284 112.053 46.4718 112.007 46.4149C111.868 46.6826 111.732 46.953 111.592 47.2206C111.705 45.7806 111.711 44.5285 111.984 43.423C112.03 43.2347 112.211 43.9009 112.048 42.6173C112.143 42.5975 112.221 42.563 112.309 42.5407C112.041 40.9691 112.121 40.4529 112.315 38.8144C112.134 39.8753 112.252 38.9287 112.155 38.6586C112.088 38.4734 112.098 39.196 112.028 39.1143C111.959 39.0325 111.679 38.0935 111.645 38.8963C112.219 40.8644 111.533 41.4006 111.809 43.929C111.735 43.5398 111.661 43.1478 111.587 42.7586C111.537 42.9419 111.491 43.106 111.438 43.3042C111.55 41.894 111.477 42.5799 111.389 42.0004C111.3 41.4204 111.225 40.3662 111.201 39.6598C111.193 39.4373 111.322 39.672 111.334 39.1697C111.342 38.8277 111.151 37.8929 111.376 37.6771C111.523 37.5358 111.926 39.0376 111.925 36.9612C112.069 36.5704 112.024 37.5659 112.041 37.5873C112.212 37.7683 112.34 36.4918 112.21 35.9018C112.199 35.854 112.066 36.3199 112.013 35.8133C111.889 34.6111 112.041 33.9168 112.248 33.1385C112.006 33.0542 111.716 32.0425 111.806 30.7833C111.737 30.7189 111.667 30.6575 111.597 30.5931C111.634 30.7886 111.67 30.9841 111.706 31.1796C111.663 31.3928 111.631 31.6186 111.58 31.8268C111.521 30.5605 111.187 30.3814 111.065 29.7742C110.648 27.6961 111.53 28.9555 111.682 29.3303C111.621 29.6005 111.552 29.8618 111.487 30.1295C111.571 30.0997 111.656 30.0696 111.741 30.0423C111.739 26.9316 112.289 29.5686 112.446 27.9896C112.031 27.5831 111.991 26.4235 112.254 24.9462C112.252 24.7827 112.251 24.6185 112.249 24.4549C112.188 24.4277 112.096 24.4281 112.056 24.3835C111.986 22.6038 112.625 22.2868 112.685 22.1182C112.954 21.3697 112.582 20.7868 112.579 20.5661C112.566 19.6367 112.731 19.3665 112.66 18.4817C112.584 17.5301 112.457 18.1808 112.344 17.8913C112.254 17.6591 112.238 16.9083 112.144 16.5981C112.221 16.7214 112.295 16.8583 112.372 16.9812C112.476 15.9949 112.577 15.1888 112.603 14.0686C112.045 12.8046 112.986 11.7291 112.223 12.1652C112.17 13.2261 112.083 13.8193 111.889 14.3869C111.864 13.6906 111.84 12.9937 111.815 12.2973C111.899 12.0941 111.98 11.9499 112.066 11.7095C111.936 11.329 111.941 10.5819 111.934 10.0225C111.931 9.81893 111.918 9.64446 111.896 9.51972C111.347 7.3981 111.241 8.2154 110.888 6.22781C111.563 7.46715 111.81 7.41479 112.053 8.85257C112.192 8.51449 111.974 7.77467 112.294 8.21058C111.87 6.80149 111.783 7.33132 111.439 6.88039C111.135 6.49746 110.647 5.71346 110.512 5.86541C110.548 5.73135 110.591 5.61479 110.621 5.47684C110.104 4.73685 109.462 4.08474 108.729 3.55867C109.104 3.69555 109.476 3.86395 109.838 4.0646C109.649 3.82507 109.445 3.59413 109.227 3.37394C107.716 2.36659 104.986 1.47304 104.085 1.80599C103.839 1.87553 103.75 1.99184 103.889 2.18279C102.813 2.2097 102.678 2.10373 102.093 1.94385C102.029 2.008 101.966 2.06135 101.902 2.13275C101.208 2.0656 100.675 2.30643 100.063 2.24383C99.4511 2.18171 99.2991 1.95423 99.2099 2.3366C98.8133 2.22691 98.4191 2.1358 98.025 2.03388C97.7873 2.12074 97.5497 2.20661 97.3144 2.29296C96.9426 2.24743 96.57 2.20208 96.1982 2.15655C95.9995 2.33907 94.5377 2.2604 93.8933 2.38298C93.2815 2.18623 93.2983 1.56674 91.8591 1.67775C91.8962 1.8314 91.9329 1.9846 91.97 2.13824C91.6404 2.10616 91.3101 2.07419 90.978 2.04212C90.9582 1.99197 90.941 1.94182 90.9212 1.89167C91.0897 1.90719 91.256 1.92263 91.4245 1.93867C91.2782 1.8538 91.135 1.76933 90.9912 1.68447C90.4881 1.81019 89.9844 1.93592 89.4788 2.06165C90.1603 2.15684 90.8421 2.25209 91.5236 2.34728C90.6684 2.46008 90.0732 2.34756 89.3295 2.47331C88.6827 2.26118 88.9215 2.13895 89.1842 1.90876C88.9439 1.92842 88.7007 1.94739 88.4604 1.96705C88.6189 1.73682 88.2124 1.59964 89.6175 1.61825C89.5209 1.55258 89.4223 1.48997 89.3282 1.42172C89.0977 1.43207 88.9483 1.37657 88.6955 1.40189C88.0064 1.47123 87.4781 1.87561 87.5252 2.0174C87.5506 2.09167 88.23 1.94963 88.2028 2.05463C88.1356 2.31067 86.577 2.19571 88.8249 2.45286C88.0789 2.61586 87.9122 2.49293 87.0893 2.44584C87.1537 2.53116 87.2163 2.61594 87.2782 2.70126C86.8966 2.66195 86.5145 2.62278 86.1329 2.58347C86.6634 2.1452 83.8499 1.98059 86.3826 1.59719C85.6342 1.57753 84.8883 1.55777 84.1423 1.53707C84.296 1.49207 84.4497 1.44751 84.6033 1.4025C84.9404 1.4263 85.2754 1.44971 85.6125 1.47299C85.216 1.39074 84.8188 1.30898 84.4224 1.22673C83.4855 1.32867 83.1181 1.48545 82.6894 1.67897C83.7797 1.8202 83.4235 1.62729 84.2731 1.58895C84.2434 1.71151 84.2827 1.82424 84.2084 1.95301C83.7694 1.69915 82.3372 1.88383 82.0051 1.89625C80.9944 1.93396 81.787 1.68452 81.1109 1.67928C80.4342 1.6741 79.636 1.82257 79.0833 1.57522C79.0932 1.71386 79.1374 1.85729 79.1771 1.98352C78.1236 2.02906 78.3338 1.86528 78.2247 1.84407C76.4846 1.49531 75.5405 1.78975 73.55 1.82545C73.8028 1.86839 74.0582 1.90716 74.3135 1.94752C72.8119 2.24187 73.8235 2.15174 75.1272 2.24901C73.9052 2.21952 73.2053 2.4702 72.3427 2.54471C71.4802 2.6191 70.0011 2.49035 69.4605 2.39C70.6974 2.22855 72.0315 2.33502 73.4047 2.29052C73.2486 2.14929 73.0969 2.02976 72.9358 1.87458C72.1006 2.171 71.6166 1.9728 71.3415 1.93348C70.5336 1.81814 70.559 2.07255 70.0708 1.7989C70.0906 1.89304 70.1051 1.97219 70.1249 2.06012C68.4568 2.02079 66.6575 1.85437 65.5718 2.20202C65.4726 1.97591 65.3978 1.75807 65.2838 1.52731C64.5775 1.69751 63.9726 1.52322 63.3777 1.56301C62.7853 1.60286 63.0109 1.78559 62.3144 1.85597C62.1855 1.8689 61.9171 1.75453 61.5998 1.83888C61.2794 1.92367 60.0979 2.55413 59.9566 2.00336C59.3593 2.00077 58.794 1.98063 58.209 1.97132C58.7791 1.94027 59.3494 1.9102 59.917 1.87916C59.4312 1.74567 58.9484 1.61258 58.4627 1.47909C58.4007 1.59811 58.3385 1.71928 58.2791 1.83674C56.9703 1.98163 56.0205 1.78704 54.6994 1.83308C54.4788 1.84084 54.9992 2.07615 54.0205 2.01618C53.0414 1.95615 52.3148 1.51697 50.6469 1.6866C50.5626 1.6954 50.0687 2.03176 49.4713 1.7989C49.3353 1.74613 49.9075 1.66803 49.5954 1.59872C49.2831 1.52938 47.8896 1.47236 47.7805 1.30729C47.7954 1.36575 47.8823 1.42632 47.9245 1.48581C47.6866 1.51374 47.4463 1.5417 47.2059 1.56912C47.1836 1.46616 47.1595 1.36304 47.1372 1.2606C45.769 1.50017 45.0619 1.89098 43.0345 1.76167C43.6046 1.91121 44.1748 2.06134 44.7424 2.21087C44.8986 2.10582 45.055 2.00007 45.2087 1.89503C46.1431 1.93694 47.08 1.97854 48.0143 2.02045C48.168 1.90092 48.319 1.78172 48.4727 1.66219C48.7205 1.67771 48.9659 1.69275 49.2137 1.70827C49.1517 1.79468 49.0892 1.88064 49.0248 1.96705C49.5155 1.94584 50.0068 1.92417 50.495 1.90296C49.5011 2.41302 47.7194 1.85958 47.8479 2.28624C47.6274 2.22004 47.4066 2.15338 47.1861 2.08667C47.0894 2.29355 46.641 2.23401 45.8507 2.20141C46.0316 2.30335 46.2315 2.4039 46.3975 2.50687C45.6291 2.36304 44.2661 2.37701 43.4704 2.32164C43.121 2.29733 43.47 2.14733 43.3661 2.1297C42.8331 2.03759 41.8145 2.29931 41.6013 2.27861C40.3273 2.15544 39.4994 1.65924 38.1089 1.98627C39.5441 2.067 38.7633 2.0329 39.2739 2.21453C39.4337 2.27148 41.2879 2.39027 38.9661 2.33751C38.6939 2.33091 34.4812 1.98807 35.866 1.72536C35.1843 1.80919 34.6506 1.90612 34.0259 1.99512C32.499 1.30276 33.0275 1.95318 33.4712 2.31127C33.2208 2.31282 32.9827 2.31645 32.7249 2.31645C33.2727 1.94026 30.4818 1.9169 29.5349 2.10681C29.2176 2.16994 30.1047 2.29035 29.3711 2.34728C29.0217 2.32089 28.6254 2.28674 28.2562 2.25725C28.7916 2.49527 27.7409 2.58699 27.7556 2.82912C27.0839 2.61336 26.5702 2.15603 26.9393 1.90815C26.3842 2.00852 25.8261 2.10876 25.271 2.20965C25.5288 2.26708 25.7899 2.32402 26.0477 2.38145C24.2332 2.22932 21.9002 2.5755 21.521 2.06683C21.2805 2.07046 21.0375 2.07359 20.7971 2.07721C20.7227 2.16311 20.6509 2.24917 20.5765 2.33507C19.4886 2.26057 18.4031 2.18558 17.3152 2.11108C18.2839 2.05777 18.5145 1.93551 19.5304 2.03479C19.1389 1.936 18.7401 1.83666 18.3561 1.73787C16.8267 2.00384 16.6181 2.17865 14.3154 2.09949C14.2113 2.09586 12.4715 1.87282 12.412 1.85108C12.1395 1.75174 12.5532 1.60742 12.4318 1.55722C12.0947 1.41647 10.0462 1.06306 10.0859 1.00976C10.5866 0.355685 17.4788 0.347015 19.3428 0.31338C38.677 -0.0353701 57.5854 0.431214 76.7981 0.351525C76.9956 0.350292 76.9094 0.253737 76.9936 0.249602C77.5165 0.225352 78.0301 0.375833 78.2234 0.382041C78.6364 0.394836 78.409 0.255804 78.7108 0.255705C81.8291 0.257257 84.7716 0.339013 87.8924 0.315211C88.0956 0.313659 87.8881 0.424897 88.2451 0.405234C88.4293 0.394467 89.0061 0.223806 89.422 0.221222C90.8745 0.212429 92.0946 0.267142 93.6264 0.264555C94.4643 0.26301 95.7211 0.277517 96.6579 0.27493C97.0716 0.27383 97.5027 0.195756 97.9114 0.193147C98.4915 0.189525 98.373 0.347797 98.4623 0.357629C98.8539 0.400568 98.9081 0.226853 99.2799 0.230987C99.9715 0.239266 100.009 0.355249 100.886 0.345422C101.513 0.338178 102.949 0.246604 103.739 0.219696C103.853 0.227962 103.968 0.235519 104.085 0.242411C106.273 0.294624 108.819 1.24321 110.338 2.52049C111.297 3.32272 111.218 3.55822 111.546 3.93229C112.641 5.29909 113.41 6.49618 113.758 8.16693C113.881 8.79585 113.926 9.41714 113.912 10.0225C113.874 11.2675 113.802 12.4583 113.795 13.7265C113.793 14.0138 113.942 13.9479 113.946 14.2298C113.96 15.2733 113.987 16.6078 113.966 17.5373C113.943 18.5732 113.727 18.9554 113.771 19.9691C113.784 20.2663 113.973 20.3534 113.997 20.8514C114.036 21.647 113.869 22.5194 113.85 23.0745C113.825 23.8355 114.018 23.1737 113.992 24.1999C113.991 24.2421 113.853 24.3957 113.86 24.616C113.878 25.258 113.987 25.1943 113.977 26.1337C113.975 26.2239 113.844 27.4695 113.843 27.5933C113.841 28.3221 113.795 29.7892 113.823 30.2206C113.922 31.7624 114.13 30.5486 113.68 31.8599C113.79 32.4372 113.902 33.0099 114.009 33.6219C113.909 33.2134 113.765 34.8713 113.774 34.9878C113.849 35.9514 114.024 35.3774 113.995 36.5993C113.591 34.9856 113.943 38.1756 113.953 38.8871C114.004 42.3125 113.903 45.4263 113.905 48.8691C113.906 50.0217 113.992 51.5662 113.99 52.7856C113.99 53.0699 113.894 52.8551 113.892 53.1053C113.89 53.3548 113.998 53.078 113.992 53.3628C113.955 55.135 113.752 56.5236 114.006 58.1472C113.969 58.2262 113.94 58.2237 113.9 58.3545C114.127 59.6832 113.821 62.2418 113.779 63.2036C113.766 63.5206 113.762 63.7878 113.764 64.0225C113.753 65.0799 113.772 65.6106 113.485 66.6262C113.045 68.3886 111.151 70.2929 112.255 69.6253C111.572 70.6436 110.721 71.5034 109.677 72.1677C109.56 72.2409 109.568 72.0834 109.521 72.1118C109.226 72.2867 109.188 72.4392 108.987 72.5623C108.437 72.8827 109.281 72.2701 108.504 72.7288C108.085 72.9455 107.896 73.2091 106.608 73.5795C105.792 73.7959 104.94 73.9069 104.085 73.9068C98.1586 73.9086 91.8648 73.8788 85.8869 73.864C85.4284 73.8629 85.7302 73.9846 85.1552 73.9769C83.1573 73.95 79.5812 73.7451 77.8585 73.773C76.1359 73.801 76.5245 73.979 75.4465 74.0535C75.2383 74.068 75.409 73.9665 75.2207 73.965C73.954 73.9557 72.444 73.7975 71.4178 73.7737C70.7392 73.7577 70.7935 73.9173 70.3227 73.9287C69.6213 73.9452 68.8993 73.784 68.525 73.7788C66.7654 73.7561 65.5556 73.886 63.9124 73.8197C63.9767 73.8549 64.0191 73.8874 64.0736 73.922C62.1279 73.9163 60.1847 73.9106 58.2391 73.9049C58.3308 73.937 58.4195 73.9693 58.5112 74.0019C56.2284 73.9843 56.4889 73.6366 56.6897 74.3708C56.5237 74.3967 56.3477 74.4267 56.1891 74.4505C56.2535 74.0723 54.8726 73.7955 53.1153 73.6992C52.9864 73.6919 52.1216 74.0607 52.2158 73.625C51.9902 73.7316 51.8558 73.8051 51.665 73.8988C51.2933 73.7669 50.9166 73.6365 50.5449 73.5051C50.3441 73.5248 50.1406 73.5437 49.9399 73.5634C49.9101 73.6488 49.933 73.7374 49.8686 73.8213C48.9367 73.8342 47.0253 73.7286 46.2889 73.7395C44.4596 73.7669 42.5972 73.9977 41.1744 73.7483C40.4813 73.7738 41.1696 73.9413 40.1388 73.9201C40.0223 73.8353 39.9128 73.754 39.7914 73.6665C38.949 74.0456 38.7729 73.815 37.6185 73.7358C36.8378 73.682 36.3265 73.7747 35.583 73.7566C35.3946 73.7519 35.4213 73.6406 35.2924 73.6443C34.8607 73.6557 33.629 73.8089 33.3242 73.813C30.5631 73.8534 28.1911 73.8362 25.5613 73.7953C25.2787 73.7912 25.6451 73.901 25.3526 73.8963C24.882 73.889 25.1589 73.7203 24.8863 73.712C24.1259 73.6899 24.1201 73.8678 23.0595 73.8771C19.567 73.9076 15.5517 73.774 11.9031 73.7621C11.7891 73.7621 11.7959 73.8663 11.672 73.8673C11.1384 73.8707 10.6005 73.8104 10.0853 73.7695C9.76249 73.7484 9.45096 73.7168 9.15078 73.6886C7.69124 73.5342 6.54569 73.327 5.24222 72.6111C2.73379 71.1633 1.09899 68.8491 0.49807 65.9571C0.367552 65.3015 0.30718 64.6578 0.306028 64.0225C0.303406 62.6555 0.296225 61.3219 0.2966 59.752C0.298669 50.2782 -0.0322232 40.6109 0.143714 31.0726C0.148368 30.8298 0.240471 30.9287 0.236483 30.8546C0.19664 30.1507 0.0723667 30.0879 0.332608 29.8375C0.281319 28.9408 0.0858029 28.6578 0.0997709 27.5748C0.107094 26.9976 0.41013 27.4286 0.253877 26.4521C0.112623 25.5703 -0.0534527 26.5433 0.11625 23.9212C0.120914 23.8518 0.305626 23.5101 0.257539 22.9649C0.209932 22.4171 0.077668 23.0512 0.0378232 21.7325C-0.0553095 18.6366 0.104356 14.718 0.0552175 11.119C0.0538661 11.0208 0.0343978 10.5539 0.00908422 10.0225C-0.0352516 9.15554 0.0950618 8.145 0.1429 7.83977C0.319249 6.79527 0.0927637 6.94957 0.610795 5.64045C1.05654 4.64258 1.66764 3.9611 2.4891 3.00969C2.59019 2.90527 2.62225 2.5877 3.37038 1.97501ZM111.46 61.6911C111.303 61.4879 110.725 61.1211 110.901 59.8921C110.917 59.7756 111.315 60.4045 111.378 59.7256C111.42 60.3899 111.433 61.0368 111.46 61.6911C111.46 61.6911 111.46 61.6911 111.46 61.6911ZM9.88441 3.22751C9.1007 3.22072 8.31176 3.35037 7.56548 3.61338C8.04741 3.34849 8.57007 3.13896 9.11562 2.99361C9.38175 3.05703 9.63737 3.13582 9.88441 3.22751ZM45.6641 71.0947C45.6632 71.0947 45.6624 71.0947 45.6615 71.0947C46.6282 71.0201 47.5955 70.9455 48.5622 70.871C48.4606 70.9258 48.3587 70.9809 48.2571 71.0358C47.4938 71.1222 46.7301 71.2084 45.9692 71.2948C45.8677 71.2281 45.7657 71.1614 45.6641 71.0947ZM38.0267 71.6754C37.4094 71.6102 37.5605 71.5002 37.2209 71.3931C37.2209 71.3933 37.2209 71.3935 37.2209 71.3937C37.1313 71.3658 36.7139 71.3414 36.5525 71.3372C36.612 71.4061 36.6889 71.474 36.7533 71.5423C35.3132 71.7089 32.4968 71.1168 36.1431 70.8783C36.0885 70.9652 36.0364 71.0517 35.9819 71.1386C37.7939 71.1143 39.8138 71.3028 38.0267 71.6754ZM111.209 47.1216C110.925 45.5748 110.865 45.0789 111.06 43.2025C111.141 43.4675 111.221 43.7326 111.302 43.9976C111.22 44.3075 111.138 44.6151 111.056 44.9249C111.056 44.9258 111.056 44.9267 111.056 44.9276C111.142 44.9895 111.229 45.0517 111.315 45.1112C111.28 45.7804 111.245 46.4524 111.209 47.1216ZM2.6381 45.3225C3.20651 44.8914 2.87611 45.0158 3.00429 46.2471C3.04879 46.6735 3.14825 46.258 3.1648 46.5232C3.25525 47.9554 2.87442 48.07 2.67624 47.7503C2.66279 46.9397 2.65052 46.1208 2.6381 45.3251C2.6381 45.3242 2.6381 45.3234 2.6381 45.3225ZM2.72216 8.27736C2.72235 8.27655 2.72254 8.27574 2.72274 8.27493C2.86403 8.27635 2.78413 8.79651 3.04557 8.24806C2.93562 8.68368 2.8659 9.12947 2.83835 9.58075C2.83344 9.44681 2.83283 9.31209 2.83536 9.17726C2.77452 9.2895 2.71582 9.40244 2.6603 9.51945C2.7733 9.65226 2.74135 9.76158 2.69842 10.0225C2.68506 10.1117 2.66989 10.2166 2.65702 10.3423C2.7835 10.2355 2.91004 10.1291 3.03656 10.0225C3.08033 9.98968 3.12432 9.95753 3.16851 9.92599C3.16498 9.95804 3.16167 9.9902 3.15857 10.0225C3.11095 10.5905 3.06319 11.1602 3.01558 11.7279C2.97268 11.7354 2.92971 11.743 2.8868 11.7504C2.94163 11.9784 2.99706 12.204 3.05189 12.432C3.00068 12.494 2.94992 12.5536 2.8987 12.6156C2.9375 12.8906 2.97627 13.1661 3.01558 13.4412C2.89151 13.5249 2.83789 12.9187 2.86941 13.9933C2.74213 13.6637 2.61524 13.3347 2.48796 13.0026C2.49433 12.0093 2.50088 11.0159 2.50751 10.0225C2.51155 9.43374 2.58331 8.84702 2.72216 8.27736ZM2.81295 56.5251C2.78915 54.7479 2.87907 55.2484 3.16053 55.6599C3.04466 55.9473 2.92883 56.2376 2.81295 56.5251ZM81.5835 71.5454C82.099 71.3534 82.6168 71.1633 83.1448 70.9781C84.1958 70.871 85.2471 71.2209 84.4564 71.358C83.5046 71.5225 82.5105 71.3384 81.5835 71.5454ZM105.414 71.3417C104.222 71.4189 105.312 71.054 105.517 70.8632C105.865 71.006 106.307 70.8888 106.973 70.6278C106.374 70.9189 105.618 71.327 105.414 71.3423C105.414 71.3421 105.414 71.3419 105.414 71.3417ZM60.8902 71.3296C60.3749 71.3354 59.8623 71.389 59.4015 71.3238C59.5405 71.1403 60.4622 71.3073 59.8031 71.0351C60.1327 71.0305 60.4627 71.026 60.7898 71.0208C60.5819 71.1335 60.8615 71.2178 60.8889 71.329C60.8893 71.3292 60.8897 71.3294 60.8902 71.3296ZM7.62803 70.6391C8.40168 71.1318 8.63706 71.0886 9.53669 71.0312C9.6633 71.2256 8.51415 71.422 7.79802 71.2392C7.73306 71.0395 7.67708 70.8395 7.62803 70.6391ZM40.8524 2.87581C41.0952 2.65026 42.8867 2.62085 43.7769 2.68753C43.6709 2.72098 43.5645 2.75488 43.4585 2.78884C42.591 2.81782 41.7199 2.84684 40.8524 2.87581ZM107.289 70.4971C107.178 70.5448 107.073 70.588 106.973 70.6278C107.082 70.5775 107.187 70.5323 107.289 70.4971ZM112.287 19.0669C112.499 19.4906 112.571 18.2312 112.487 19.7604C112.488 19.7604 112.488 19.7604 112.488 19.7604C112.433 20.7717 112.419 20.995 112.402 21.9319C112.129 21.5947 112.031 19.6938 111.975 22.3137C111.974 22.3482 112.137 22.2795 112.115 22.6981C112.108 22.8273 111.974 23.2408 111.936 23.8697C111.923 24.073 111.882 25.6004 111.88 23.5184C111.689 23.5803 111.496 23.4685 111.312 23.4734C111.258 22.6607 111.631 22.0361 111.622 21.1764C111.607 19.8998 111.23 19.2502 111.725 19.0048C111.846 20.0782 111.849 21.9214 111.552 22.1618C111.548 23.2002 111.792 23.4984 111.912 22.6611C111.759 19.0743 112.274 21.6765 112.08 18.5359C112.011 18.4987 111.937 18.3696 111.872 18.3893C112.114 17.4306 112.211 18.9157 112.287 19.0669ZM111.761 26.567C111.615 25.9473 111.469 25.3297 111.323 24.7125C111.56 24.7125 111.772 25.0528 111.906 26.0294C111.857 26.2077 111.809 26.3887 111.761 26.567ZM81.0686 2.40953C80.9794 2.53837 80.7415 2.65644 80.568 2.77908C80.3796 2.67042 75.9177 2.56617 78.1877 2.45957C78.5174 2.44405 80.5282 2.67188 81.0686 2.40953ZM3.24221 66.424C3.31821 66.9016 3.44389 67.3781 3.61983 67.8446C3.18729 67.2226 2.84397 66.5271 2.61295 65.7884C2.81317 66.0189 3.02357 66.2299 3.24221 66.424ZM90.1376 71.7715C89.9157 71.7667 90.6529 71.5895 89.7783 71.6174C90.4302 71.5041 91.0407 71.4081 91.6778 71.3015C91.8687 71.3854 92.0615 71.4689 92.2524 71.5527C92.4011 71.4989 92.5528 71.4454 92.7015 71.3916C92.6123 71.5137 92.5328 71.633 92.4386 71.7571C91.3653 71.4953 91.1192 71.7922 90.1376 71.7715ZM58.2233 72.2491C58.0303 71.9837 59.5844 71.8258 58.0555 71.7834C58.3455 71.609 58.8118 71.5176 59.7066 71.502C59.8503 71.5687 59.9936 71.6349 60.1373 71.7016C60.1571 71.5232 60.3873 71.4568 60.8902 71.3296C60.8906 71.3298 60.8911 71.33 60.8915 71.3302C62.2519 71.3173 62.1706 71.3768 62.4977 71.6702C61.0576 71.5046 61.0145 71.7726 60.0329 71.932C59.3588 72.0416 58.4785 71.992 58.2233 72.2491ZM85.8225 2.40648C84.8042 2.63052 85.7181 2.83949 83.9112 2.60147C84.0277 2.54455 84.1447 2.48812 84.2612 2.4312C84.7817 2.4224 85.3021 2.41424 85.8225 2.40648ZM53.1972 71.3394C53.3137 71.7502 54.2726 72.07 54.4362 71.4016C53.5018 71.2655 53.9582 71.6441 53.1972 71.3394ZM105.09 72.0413C104.622 72.0935 104.295 72.0626 104.085 72.0105C103.6 71.8874 103.726 71.6665 104.085 71.496C104.163 71.4569 104.25 71.4193 104.343 71.3841C104.45 71.4649 104.562 71.5433 104.674 71.6188C104.969 71.5579 105.261 71.4794 105.543 71.3854C105.407 71.6078 105.255 71.8274 105.09 72.0413ZM21.518 71.7907C22.8913 71.4973 20.0356 71.6275 20.9949 71.4444C21.7609 71.2979 22.7702 71.5936 22.3885 71.7788C22.1233 71.784 21.828 71.7876 21.5207 71.7907C21.5198 71.7907 21.5189 71.7907 21.518 71.7907ZM29.4646 71.7068C29.2391 71.3933 29.5641 71.4847 28.4792 71.5411C28.1693 71.5571 25.7072 71.4394 26.7409 71.6992C27.6206 71.6992 28.5501 71.7037 29.4646 71.7068ZM111.707 54.8211C111.844 54.8046 112.144 56.7005 112.069 56.9438C112.069 56.9438 112.069 56.9438 112.069 56.9438C111.865 57.6007 111.836 55.6008 111.555 56.4683C111.802 54.5474 111.205 53.9727 111.992 54.1065C112.026 55.2381 111.864 54.7024 111.707 54.8211ZM17.3297 2.23315C17.3288 2.23315 17.328 2.23315 17.3271 2.23315C17.4544 2.23957 18.5035 2.43992 18.3759 2.50932C17.1143 2.44981 17.3392 2.31793 16.1647 2.53464C16.1003 2.46485 16.0451 2.39715 15.9758 2.32683C16.4418 2.28543 16.7001 2.20158 17.3297 2.23315ZM76.2447 2.13427C76.7082 2.09857 77.554 2.24652 78.082 2.23772C76.4015 2.80589 74.3932 2.27607 76.2447 2.13427ZM2.53953 25.542C2.53973 25.5433 2.53994 25.5446 2.54014 25.5459C2.53983 25.5455 2.53953 25.545 2.53923 25.5446C2.53933 25.5437 2.53943 25.5428 2.53953 25.542ZM110.477 6.00687C110.478 5.93948 110.487 5.89507 110.505 5.87006C110.507 5.86862 110.509 5.86718 110.511 5.86575C110.499 5.91044 110.487 5.95683 110.477 6.00687ZM111.666 50.8809C111.857 50.0912 112.159 52.7221 112.087 53.5729C112 53.5134 111.921 53.5041 111.822 53.3655C112.047 52.6788 111.634 51.0122 111.666 50.8809ZM69.8116 71.6732C71.8912 71.6784 69.1847 72.4301 69.0732 71.8304C69.0774 71.8188 69.7578 71.6743 69.8116 71.6732ZM111.12 67.0575C111.1 67.6114 111.661 66.723 110.815 68.1786C110.713 68.2309 110.611 68.2802 110.509 68.3268C110.752 67.9217 110.957 67.4959 111.12 67.0575ZM83.4354 72.6601C86.0528 72.5333 88.5561 72.3097 86.8512 71.6821C86.6531 71.7022 86.4523 71.7217 86.2542 71.7419C86.2244 72.0481 85.4934 71.881 84.4234 71.871C84.2709 71.9925 83.6775 72.0207 83.5661 72.124C83.3508 72.3236 84.0326 72.464 83.4354 72.6601ZM1.94599 39.4339C1.99826 39.476 2.05079 39.5172 2.10254 39.5594C2.16153 39.9733 2.22024 40.3884 2.27923 40.8024C2.17893 40.7355 2.07864 40.6684 1.97834 40.6016C1.96748 40.2126 1.95655 39.8255 1.94569 39.4365C1.94579 39.4357 1.94589 39.4348 1.94599 39.4339ZM112.407 29.1177C111.831 28.8799 111.937 29.7108 112.228 31.3962C112.288 30.6377 112.347 29.8761 112.407 29.1177ZM41.3751 72.427C41.3206 72.2635 41.267 72.1006 41.21 71.9372C40.3152 72.1074 40.4814 72.2946 40.9102 72.5109C41.0662 72.483 41.2191 72.4549 41.3751 72.427ZM28.4858 72.4966C28.857 72.5307 28.6675 72.3987 28.7064 72.4013C29.6458 72.4707 29.7781 72.5312 30.9308 72.4319C31.072 72.3972 31.2109 72.3607 31.3521 72.3251C30.8193 71.9826 30.4324 72.1693 29.3047 71.968C29.508 72.0855 29.7104 72.2031 29.9137 72.3211C29.2867 72.2963 28.6623 72.2718 28.0353 72.2469C27.961 72.2832 27.8865 72.319 27.8121 72.3553C28.0351 72.4018 28.2653 72.4541 28.4858 72.4966ZM2.09461 34.6469C2.10806 34.0372 2.12204 33.4246 2.1355 32.8149C2.05116 32.7925 1.96625 32.7711 1.88191 32.7488C1.95278 33.3807 2.02373 34.015 2.09461 34.6469ZM112.144 16.5981C112.114 16.5498 112.084 16.5027 112.054 16.4608C112.091 16.4649 112.12 16.5177 112.144 16.5981ZM15.7209 1.77052C15.0294 1.71154 14.033 1.75027 13.2746 1.73787C13.3342 1.94946 15.2619 1.89097 15.9388 2.01923C16.0476 1.98126 16.0131 1.79534 15.7209 1.77052ZM102.596 72.0846C102.423 72.1901 102.25 72.2952 102.079 72.4007C101.66 72.3894 101.24 72.3773 100.818 72.3659C100.806 72.4524 100.794 72.5395 100.781 72.6259C102.638 72.5137 102.21 72.7629 103.129 73.0086C102.95 72.7008 102.775 72.3929 102.596 72.0846ZM1.54654 15.2455C1.60501 16.5865 1.71422 17.0622 1.97346 16.3062C1.91397 15.8329 1.85443 15.3569 1.79494 14.8836C1.71217 15.005 1.62931 15.1266 1.54654 15.2455ZM98.8057 1.76808C97.6835 1.86495 97.6649 1.51703 96.5681 1.71132C97.1554 1.77547 97.7427 1.84034 98.3275 1.90449C98.4855 1.85913 98.6476 1.81344 98.8057 1.76808ZM113.295 47.2127C113.416 46.7393 112.841 45.8543 113.266 44.5234C113.139 44.2062 113.018 44.0074 112.894 43.7348C113.029 43.5761 113.165 43.3959 113.299 43.2447C113.299 43.2438 113.299 43.243 113.299 43.2421C113.254 42.0349 113.085 42.8176 112.941 42.7903C112.882 42.7775 112.981 41.8816 112.852 42.1616C112.63 42.6449 112.757 44.451 112.487 44.456C112.575 43.8214 112.501 42.5823 112.321 42.9488C112.123 43.3504 112.455 44.5181 112.29 45.2617C112.723 44.1961 112.589 46.397 112.257 46.6474C112.512 47.9388 112.616 46.7518 112.604 45.4282C112.859 46.2362 112.721 45.0468 112.933 44.8509C113.061 45.6842 112.954 48.5437 113.295 47.2127ZM72.5339 72.7633C73.4265 72.7468 74.8209 72.8924 75.432 72.6775C75.7879 72.5523 74.3902 72.4554 75.3541 72.2588C74.4844 72.278 74.286 72.3548 74.4347 72.5271C74.2365 72.5478 74.0359 72.5679 73.8377 72.5881C73.746 72.5545 73.6519 72.5213 73.5603 72.4877C73.4562 72.5586 73.3515 72.6289 73.2499 72.6998C73.0394 72.6858 72.8263 72.6719 72.6158 72.6574C72.5911 72.693 72.5489 72.724 72.5339 72.7633ZM66.5849 1.77876C66.8327 1.77669 67.0781 1.77463 67.3259 1.77205C67.2986 1.73009 67.2661 1.68639 67.2348 1.64327C67.2123 1.60919 67.1899 1.57512 67.1674 1.54104C67.311 1.66279 68.4916 1.86514 68.9889 1.73512C69.239 1.6699 68.67 1.43834 69.73 1.39792C68.9618 1.40983 68.2502 1.44143 67.5042 1.46109C67.5712 1.39227 67.6355 1.32271 67.7024 1.25389C67.7019 1.25378 67.7015 1.25368 67.7011 1.25358C67.4533 1.23806 67.2025 1.2218 66.9548 1.20628C66.8308 1.39722 66.7088 1.58782 66.5849 1.77876ZM42.1016 72.7501C42.9469 72.6151 43.2299 72.545 42.8308 72.3266C42.8299 72.3265 42.829 72.3264 42.8281 72.3263C42.5134 72.423 42.1984 72.5197 41.8837 72.6165C41.9556 72.661 42.0273 72.7056 42.1016 72.7501ZM112.832 9.24991C112.208 8.18603 112.357 9.18212 112.469 10.0225C112.552 10.6027 112.709 11.1177 112.827 10.7967C112.834 10.778 112.818 10.3959 112.816 10.0225C112.815 9.67578 112.798 9.33827 112.832 9.24991ZM105.462 72.2451C105.009 72.3265 104.549 72.3699 104.085 72.3757C104.033 72.3764 103.981 72.3771 103.929 72.3778C103.981 72.424 104.033 72.4702 104.085 72.5163C104.153 72.5719 104.221 72.6268 104.29 72.6809C104.697 72.5634 105.09 72.4166 105.462 72.2451ZM1.16997 21.0839C0.942283 21.6031 0.859793 22.9358 1.10741 23.587C1.13639 23.245 1.1654 22.9028 1.19438 22.5607C1.22283 23.2074 1.25415 23.8468 1.28105 24.4984C1.59825 24.5331 1.41423 23.7822 1.50168 22.6518C1.51578 22.4768 1.90952 21.358 1.61276 20.9716C1.55176 20.8939 1.51029 22.0841 1.33293 21.2569C1.31897 21.6187 1.32206 21.9308 1.31431 22.2727C1.23876 22.2975 1.16313 22.3221 1.08758 22.3493C1.11493 21.9266 1.14261 21.5067 1.16997 21.0839ZM77.7304 72.7385C78.9564 72.7561 79.1078 72.6293 79.363 72.4053C78.7929 72.4307 78.2226 72.4556 77.6524 72.481C77.6796 72.5667 77.7032 72.6524 77.7304 72.7385ZM1.09734 32.0421C1.0607 32.7133 1.24303 32.4259 1.27769 32.696C1.40807 33.7171 1.27776 34.4136 1.35947 35.4223C1.32429 35.3554 1.2914 35.2939 1.25725 35.2295C1.25725 35.2303 1.25725 35.2312 1.25725 35.2321C1.10358 40.0084 1.51707 37.4996 1.4498 34.6417C1.51759 34.5747 1.58546 34.5105 1.65273 34.4435C1.53424 33.1646 1.42022 31.9851 1.09734 32.0421ZM112.894 25.2831C112.936 25.2285 113.206 25.692 113.079 24.8221C112.686 24.1332 112.881 25.263 112.73 25.5459C112.692 25.3105 112.655 25.0696 112.617 24.8366C112.506 26.2446 112.6 26.45 112.887 25.9369C112.907 25.9003 112.851 25.3377 112.894 25.2831ZM113.088 16.0302C112.508 15.8368 112.768 17.6136 112.949 17.5492C112.956 17.3039 112.857 17.1132 112.901 16.8531C112.944 16.5904 113.08 16.5232 113.088 16.0302ZM112.366 67.1799C112.393 67.1322 112.811 66.6508 112.608 66.648C112.001 67.2043 111.604 68.5356 111.846 68.4069C112.073 67.9824 112.152 67.6664 112.367 67.1801C112.367 67.1801 112.367 67.18 112.366 67.1799ZM1.03326 12.9973C1.01707 13.0221 0.91908 14.3269 1.01007 14.4952C1.1125 14.634 1.22229 14.7029 1.32835 14.807C1.23003 14.0881 1.30493 12.6331 1.03326 13C1.03326 12.9991 1.03326 12.9982 1.03326 12.9973Z" fill="black"/>
</svg>
