<svg width="126" height="75" viewBox="0 0 126 75" fill="none" xmlns="http://www.w3.org/2000/svg">
<path d="M4.13937 27.987C4.36485 27.155 4.21704 29.9326 4.55378 28.0882C4.57653 28.4728 4.59999 28.8598 4.62274 29.2443C4.49803 29.3419 4.37363 29.4418 4.24892 29.5394C4.2122 29.0229 4.17548 28.5061 4.13876 27.987C4.13896 27.987 4.13916 27.987 4.13937 27.987ZM2.57756 27.2818C2.93325 27.7551 3.02809 29.259 3.35633 27.6344C3.23425 27.5053 3.11221 27.373 2.99013 27.2439C3.08481 26.6798 3.17947 26.1123 3.27363 25.5483C3.22709 25.3454 3.1805 25.1428 3.13447 24.94C3.3466 24.6817 3.55931 24.4256 3.77195 24.1673C3.74091 24.3967 3.70932 24.6291 3.67827 24.8585C3.85053 25.7652 3.89764 26.572 3.92972 27.803C3.97992 27.6949 4.02967 27.5866 4.07986 27.4785C3.99449 28.1032 3.9089 28.7276 3.82353 29.3497C3.73972 28.8094 3.64652 28.2054 3.56841 27.7047C3.2358 28.5059 3.42092 29.9192 3.49029 30.6548C3.58498 31.6565 3.42683 31.4301 3.49304 32.1734C3.50339 32.292 3.62735 32.3055 3.62944 32.5401C3.63928 33.7237 3.57357 36.0227 3.28431 34.6782C3.32156 32.73 3.08928 31.0685 3.17414 29.1572C2.83968 29.6629 2.72586 28.6559 2.57756 27.2818ZM3.64257 63.0712C3.48012 62.4808 3.54568 61.2784 3.65843 60.4638C3.65843 60.4629 3.65843 60.4619 3.65843 60.461C3.68327 60.2817 3.89915 59.8758 3.89036 60.461C3.87528 61.4151 3.53546 61.8764 3.76616 62.3772C3.72321 62.6013 3.685 62.8366 3.64257 63.0712ZM3.73106 64.9182C3.73124 65.3982 3.42167 65.2407 3.42245 64.6122C3.42225 64.6122 3.42205 64.6122 3.42184 64.6123C3.4351 64.3557 3.64381 64.8322 3.42618 63.9736C3.42352 63.9592 3.42078 63.9445 3.41797 63.9295C3.57779 63.7055 3.7232 63.485 3.87784 63.2636C3.88017 63.5048 3.88379 63.7269 3.886 63.9736C3.88625 63.9958 3.8866 64.0181 3.88705 64.0407C3.62416 63.8914 3.73921 64.4435 3.73106 64.9182ZM3.42895 35.6672C3.66529 35.7593 3.6638 35.3738 3.8278 34.7176C3.82004 35.337 3.81176 35.9565 3.804 36.5733C3.67882 36.2703 3.55412 35.9703 3.42895 35.6672ZM3.46557 21.1146C3.46557 21.1137 3.46557 21.1127 3.46557 21.1118C3.42832 20.9088 3.39093 20.7053 3.35419 20.5049C3.43854 20.3836 3.52252 20.2637 3.60686 20.1425C3.52769 19.4254 3.44853 18.7045 3.36884 17.9875C3.62649 18.0746 3.58456 19.3617 3.76463 20.0708C3.68701 21.1252 3.53745 21.6333 3.3191 21.7018C3.36772 21.5068 3.41695 21.3123 3.46557 21.1146ZM122.79 64.4972C122.747 64.3174 122.698 64.146 122.644 63.9736C122.627 63.9165 122.61 63.8592 122.593 63.8018C122.587 63.8592 122.581 63.9164 122.576 63.9736C122.551 64.2182 122.517 64.4584 122.463 64.697C122.671 65.5101 122.404 65.5639 122.102 66.5275C121.556 67.9957 121.213 68.5038 120.904 68.9602C120.568 69.3812 120.162 69.8171 118.787 70.248C120.634 69.0141 119.733 69.2089 120.387 68.136C120.726 68.0424 120.198 69.3332 120.858 68.7056C121.703 67.3458 122.093 65.8507 122.023 64.2108C121.988 64.2575 121.952 64.3027 121.916 64.3483C121.924 64.6058 121.917 64.8611 121.895 65.1191C121.852 64.8298 121.791 64.5549 121.713 64.278C121.841 64.5238 121.852 64.179 121.907 63.9736C121.933 63.8661 121.972 63.7943 122.045 63.8384C122.074 63.8561 122.106 63.9055 122.14 63.9736C122.228 64.1285 122.313 64.3991 122.369 64.5868C122.403 64.3855 122.428 64.182 122.444 63.9736C122.48 63.4766 122.515 62.9751 122.551 62.4785C122.634 62.8527 122.718 63.2266 122.801 63.5981C122.802 63.7236 122.803 63.8486 122.804 63.9736C122.805 64.1476 122.801 64.3178 122.791 64.4919C122.79 64.4937 122.79 64.4954 122.79 64.4972ZM28.4957 3.37597C29.4025 3.13276 31.0505 3.09252 31.9178 3.36315C30.7763 3.36729 29.6371 3.37183 28.4957 3.37597ZM3.13905 21.7707C3.1804 21.668 3.2213 21.5685 3.26264 21.4658C3.33921 21.9192 3.41525 22.3752 3.49182 22.8285C3.37233 22.9155 3.25283 23.0044 3.13386 23.094C3.13542 22.6539 3.1375 22.2108 3.13905 21.7707ZM3.2721 50.7747C3.26487 50.4431 3.26879 50.4137 3.28583 50.0007C3.28573 50.0011 3.28563 50.0016 3.28553 50.0021C3.29189 49.8383 3.36168 48.4684 3.45367 48.6211C3.45522 49.3013 3.45367 50.0268 3.45367 50.7227C3.39316 50.7438 3.33313 50.7484 3.2721 50.7747ZM3.32581 42.7686C3.32601 42.7677 3.32622 42.7667 3.32642 42.7658C3.34039 42.5182 3.36884 42.2837 3.37402 42.0283C3.51881 42.948 3.25905 43.0934 3.33252 43.929C3.40652 44.7645 3.54983 45.2809 3.19398 45.9899C3.14068 45.7263 3.06443 45.4424 3.00234 45.1709C3.14462 43.9847 3.01072 43.6652 2.87051 42.7138C3.02262 42.7323 3.1737 42.7501 3.32581 42.7686ZM112.11 70.9381C111.884 71.114 111.631 70.9414 111.605 70.9393C111.605 70.9391 111.606 70.9389 111.606 70.9387C109.598 71.1016 111.867 70.8413 109.972 70.8139C110.254 70.7699 110.532 70.7235 110.811 70.679C111.243 70.7639 111.689 70.86 112.11 70.9381ZM46.8661 70.9216C46.8477 70.8704 46.8256 70.819 46.8071 70.7678C47.946 70.7797 48.2364 70.578 49.1827 70.7617C48.4104 70.8155 47.6384 70.8689 46.8661 70.9222C46.8661 70.922 46.8661 70.9218 46.8661 70.9216ZM2.8995 56.5148C2.8017 55.2521 2.75861 54.318 2.91384 53.1053C2.91405 53.1044 2.91425 53.1035 2.91445 53.1025C2.92401 53.0326 3.03118 53.3708 3.05818 53.2795C3.04215 53.0293 3.01751 52.771 2.99837 52.5181C3.0842 52.4839 3.17001 52.4512 3.25532 52.417C3.231 53.1287 3.2067 53.8408 3.18238 54.5551C3.23258 54.4497 3.28233 54.3417 3.33252 54.2362C3.35839 54.8424 3.38416 55.4464 3.41003 56.0527C3.26933 55.8418 3.1286 55.6315 2.98739 55.4233C2.9579 55.7869 2.9295 56.1512 2.8995 56.5148ZM65.8257 71.4822C65.6253 71.4263 65.9963 71.3326 65.6852 71.2845C65.3741 71.2369 64.8006 71.3412 64.935 71.1834C65.3538 71.1622 65.7937 71.1379 66.2204 71.1157C64.847 70.8312 63.4768 71.0886 63.4557 70.7373C64.7738 70.8284 65.8576 70.7861 67.1336 70.6888C67.0808 70.9677 65.8046 71.2088 66.6081 71.4706C66.35 71.4742 66.0787 71.4795 65.8285 71.4816C65.8275 71.4818 65.8266 71.482 65.8257 71.4822ZM3.0595 2.23028C3.77883 1.51528 5.77705 0.170433 7.0941 0.0107358C7.4194 -0.0618942 8.52776 0.239434 8.52337 0.320147C8.52267 0.547112 7.394 0.803285 8.64403 0.717644C8.2322 0.78476 7.83945 0.883101 7.44415 1.00515C7.55927 1.13227 7.6707 1.26099 7.77645 1.39198C8.23136 1.24368 8.70125 1.13169 9.17768 1.05783C9.20669 1.1063 9.23496 1.15505 9.26293 1.20381C7.58163 1.44921 8.59975 1.49371 7.8164 1.86487C8.59095 1.74142 9.37274 1.73073 10.1227 1.82423C9.68973 1.81072 9.17861 1.84733 8.79916 1.89749C8.79322 2.15407 9.66489 1.98845 9.82134 2.04498C10.2512 2.18136 9.37461 2.17754 8.41131 2.44858C7.43813 2.69767 6.45251 3.29655 6.41418 3.5495C6.99777 3.25978 7.64331 3.03853 8.28659 2.91594C8.1166 3.00866 7.95085 3.10796 7.79238 3.21239C6.32741 3.42956 4.7809 4.38614 3.66755 5.82943C3.58778 5.97347 3.51315 6.11993 3.44388 6.2657C3.57064 6.28151 3.69507 6.30143 3.82039 6.32151C3.71425 6.53198 3.61737 6.7495 3.53306 6.96771C3.50456 6.17779 2.98921 6.99799 2.46842 8.1629C2.4782 7.47418 2.89338 6.73218 2.63871 6.68373C2.28648 7.698 2.02829 8.8226 2.01533 9.97363C1.99712 11.3499 1.9685 12.7291 2.09021 13.9697C2.14505 14.5311 2.47459 14.5293 2.4442 15.8493C2.40798 15.8045 2.34258 15.7968 2.29498 15.7678C2.4528 18.0508 2.54715 19.436 2.38622 21.8086C2.50466 21.6716 2.6236 21.5368 2.74204 21.3998C2.68305 20.8963 2.62312 20.3919 2.56413 19.891C2.75971 19.5484 2.84603 20.0548 2.84396 18.5522C2.84241 17.3211 2.75605 18.054 2.69809 17.7192C2.61897 17.2658 2.77462 16.868 2.68619 16.3804C2.6184 16.0034 2.45703 16.4112 2.49791 15.4279C2.70696 15.8233 2.92283 16.2267 3.13447 16.6248C3.08738 16.8647 3.03957 17.1028 2.99196 17.3427C2.93608 17.1001 2.88093 16.8617 2.82504 16.6192C2.92542 17.4732 3.0201 18.2802 3.1241 19.1633C2.8219 18.876 2.9352 19.7887 2.97091 20.2844C3.02673 21.0564 2.81875 20.395 2.85342 20.9011C2.88862 21.4072 3.12098 21.9531 3.0713 22.8678C2.93679 22.3776 2.81616 23.0445 2.69199 22.9156C2.56783 22.7864 2.54033 21.8189 2.40483 22.7484C2.50781 24.5358 2.98066 22.5963 3.05727 23.8035C3.14937 25.2533 2.37858 25.5983 2.21289 25.1661C2.08249 24.8261 2.10871 23.6559 1.97883 23.3132C1.74443 25.4089 2.20717 25.4271 2.29772 25.7857C2.62732 27.0879 1.74761 26.2131 2.0658 27.7552C1.90129 27.7262 1.75333 27.7027 1.59555 27.6738C1.62556 27.9398 1.66544 28.1165 1.68923 28.438C2.00977 27.49 1.99603 28.2659 1.99653 28.6642C1.99756 29.2916 2.15391 28.3225 2.19427 28.4886C2.30228 28.9367 2.25324 29.6455 2.39446 29.2106C2.32874 29.4057 2.26283 29.6172 2.19763 29.8175C2.27952 30.5505 2.96615 32.2733 2.82748 30.6337C3.08259 30.7866 2.95998 31.317 2.92117 31.7309C2.88239 32.1447 3.04486 32.137 3.01485 32.5007C2.89479 33.9478 2.61688 33.0012 2.39904 32.7719C2.54909 34.683 2.64837 32.812 2.74875 35.5661C2.92624 35.8323 3.11563 34.5598 3.21809 35.6195C2.90974 35.8147 2.68824 36.5949 2.58579 38.1158C2.65669 38.2635 2.72821 38.4107 2.7991 38.5583C2.5145 39.3888 2.21855 38.9643 2.57145 40.5012C1.92205 39.6761 2.33751 40.2434 2.07312 41.6195C2.01983 41.8989 1.88509 41.2532 1.81679 41.6433C1.78599 41.8202 1.88769 42.2496 1.80916 42.6815C1.77036 42.8924 1.51996 43.8784 1.63888 44.5612C1.9535 44.0603 2.22115 45.3576 2.48143 44.2451C2.41726 46.3014 2.56832 47.7405 2.13934 45.4364C2.04413 45.9584 1.94933 46.4808 1.85463 47.0028C1.92966 47.3666 2.0041 47.7335 2.07862 48.0999C1.82004 48.1552 1.7475 48.0997 1.79299 49.5329C1.73196 48.911 1.66991 48.2917 1.60836 47.6672C1.55615 47.6462 1.50188 47.5593 1.45121 47.5801C1.55052 48.345 1.59326 50.4986 1.66207 51.0206C1.7309 51.5425 1.74973 50.5345 1.81648 50.6848C2.36693 51.9368 1.96096 51.8375 2.05543 52.7359C2.11131 53.2631 2.172 52.0042 2.1958 52.2863C2.28304 53.3322 1.99049 53.8174 1.98676 54.7448C2.15282 54.4153 2.32145 54.0885 2.48906 53.767C2.48026 54.7398 2.47879 55.8242 2.53209 56.7284C2.55289 57.0833 2.67639 56.8151 2.68467 56.8731C2.7271 57.1607 2.79431 58.331 2.79483 58.4549C2.79581 59.3876 2.62476 59.4142 2.61539 60.3205C2.60091 59.9648 2.58786 59.6302 2.57389 59.2823C2.29657 59.1242 2.01926 58.9629 1.74142 58.8047C1.72124 59.693 1.70148 60.5816 1.6813 61.4725C1.77391 60.8214 1.86608 60.168 1.95869 59.517C2.18274 60.5345 2.4073 61.5521 2.63187 62.5696C2.51013 63.0383 2.38841 63.5053 2.26667 63.9736C2.25078 64.034 2.23557 64.0947 2.22104 64.1555C2.3479 65.5871 2.91423 65.1629 2.56889 65.9181C2.71182 66.3086 2.88521 66.684 3.08539 67.0405C2.99809 67.0151 2.9109 66.9886 2.82368 66.9599C3.05442 67.41 3.32686 67.8339 3.63536 68.2245C3.55591 67.6526 3.56452 67.0977 3.61425 66.5764C4.00706 67.3605 3.87145 67.457 3.88589 67.6054C3.94311 67.9965 4.52029 68.4679 4.61568 68.7594C4.6418 68.873 3.9656 68.2386 4.03322 68.5838C4.01709 68.6417 4.43454 70.0591 5.24764 70.4661C5.29833 70.3716 5.32537 70.2288 5.36999 70.1173C6.26573 70.7199 6.57053 71.416 6.36192 71.4996C6.97271 71.6997 7.85019 71.9614 8.01665 71.822C8.3202 71.899 8.62551 71.9579 8.93603 71.9993C8.53503 72.3725 9.91343 72.4489 9.9959 72.0668C9.46015 72.0499 8.92618 71.9797 8.40581 71.8578C8.6355 71.694 8.41213 71.4742 8.46201 71.4073C8.51673 71.3213 8.78546 71.4992 10.1227 71.695C10.2549 71.7106 10.3966 71.7276 10.5485 71.7459C10.9273 71.8799 10.4601 71.8446 10.1227 71.8285C9.89284 71.8169 9.72542 71.8061 9.93333 71.8825C9.99639 71.8909 10.0595 71.8977 10.1227 71.903C10.9586 71.973 11.7506 71.912 12.5518 72.0586C13.6244 72.2558 12.3047 72.4454 14.8038 72.1944C9.2915 71.5657 15.5598 71.7697 18.1487 71.5747C18.8604 72.1956 21.0467 72.3923 24.0574 72.2076C23.7437 72.0347 22.7965 72.1238 22.2508 72.0669C21.7051 72.01 22.2955 71.9074 21.6158 71.8267C20.9358 71.746 19.4916 71.6363 18.8033 71.5142C19.3863 71.4164 22.2639 71.1852 20.3613 71.463C21.7817 71.6342 22.4487 71.8102 24.2091 71.8423C24.7363 71.5727 24.6973 71.4048 26.4133 71.3971C25.3984 71.7717 27.3483 72.032 26.919 72.419C25.7021 72.3289 26.3823 71.9528 25.6785 71.7727C25.6064 71.7547 24.4726 71.849 24.2091 71.8423C25.3532 72.1802 25.7488 72.306 25.045 72.708C25.8543 72.6728 26.3577 72.7233 26.4315 72.5313C26.6002 72.6146 26.7698 72.698 26.9358 72.7813C27.1992 72.7792 27.4363 72.7715 27.7155 72.773C27.331 72.4834 28.0764 72.6617 28.6062 72.5304C29.1361 72.399 28.4252 72.1704 29.8804 72.1673C29.3953 72.0995 28.9518 72.0413 28.4826 71.9772C29.4209 71.9027 30.3623 71.8277 31.3006 71.7532C30.6416 71.5762 29.2134 71.3134 29.2524 71.0806C29.6846 71.1685 31.1653 71.014 31.3273 71.0077C31.9548 70.9839 31.6128 71.1307 31.6603 71.1343C32.646 71.2057 33.4578 71.1557 33.8321 71.3781C34.5728 71.2778 35.1314 71.335 35.9169 71.3293C36.3492 71.3262 36.2652 71.1628 36.5182 71.1938C38.2 71.4008 36.5977 71.6119 39.842 71.21C39.4492 71.0962 39.0617 70.9797 38.669 70.8649C39.0354 70.8219 39.3997 70.7787 39.7661 70.7358C40.0113 70.7565 40.2543 70.7773 40.4994 70.798C40.4942 71.0448 40.4879 71.2922 40.4826 71.539C40.7515 71.5524 41.0215 71.5655 41.2904 71.5789C40.829 71.6033 40.3666 71.6275 39.9052 71.6519C39.8631 71.6953 39.8237 71.7387 39.7816 71.7822C40.467 71.8494 41.15 71.9173 41.8354 71.9851C41.8486 71.8993 41.8616 71.8128 41.8748 71.7269C43.4196 71.8465 43.4564 71.9192 44.9247 71.6827C46.0556 71.6853 46.9766 71.3263 47.6303 71.1752C47.8649 71.2233 48.0998 71.272 48.337 71.3202C48.4873 71.2487 48.639 71.1777 48.7893 71.1062C49.0872 71.2056 49.3891 71.3049 49.687 71.4038C49.853 71.1783 49.939 71.1079 48.7767 71.0287C49.1748 70.7483 51.2211 70.872 52.0541 70.9662C52.6861 71.0376 51.9849 71.2716 52.064 71.3C52.3279 71.3967 53.3695 71.3133 53.5882 71.3293C54.5135 71.3961 55.1618 71.3844 55.9975 71.4361C56.1602 71.4465 56.6149 71.5947 56.6535 71.5994C56.9541 71.6247 57.6959 71.6968 57.7802 71.6989C62.1317 71.8095 57.482 71.1663 61.5283 71.2341C61.4071 71.1493 61.2957 71.065 61.1771 70.9802C61.4827 70.975 61.7916 70.9701 62.0973 70.965C62.4848 71.0358 62.0159 71.1648 62.7856 71.0608C62.7355 71.1653 62.6852 71.2699 62.6325 71.3739C62.9673 71.3175 63.29 71.2615 63.6327 71.2051C64.1705 71.5678 66.1338 71.6502 65.9942 72.076C65.9468 72.2209 64.5549 72.3696 65.2904 72.5243C65.888 72.5548 65.4835 72.3817 65.7273 72.3727C67.4883 72.3095 67.386 72.5521 68.1057 72.4874C68.219 72.3834 68.3382 72.2775 68.4541 72.1725C68.7255 72.203 68.9977 72.2335 69.2717 72.264C69.335 72.1942 69.4009 72.1242 69.4642 72.0544C69.2085 72.0497 68.9205 72.045 68.6859 72.0403C69.0131 71.7698 72.0175 71.6482 70.8718 71.8789C70.4052 71.9726 69.5507 71.9328 70.0907 72.2524C70.8947 72.2064 71.8069 72.1593 72.6531 72.1133C72.6795 72.1821 72.704 72.251 72.7304 72.3199C73.8708 72.2753 72.8336 72.0001 72.8358 71.8527C73.0966 71.8485 73.3602 71.8449 73.621 71.8408C73.7316 71.9074 73.8367 71.9772 73.9526 72.0419C73.9632 71.9357 74.1093 71.6891 74.8868 71.7806C75.3867 71.8402 74.5994 72.108 75.5527 72.0709C75.4814 71.9053 75.1371 71.7037 76.1989 71.6503C76.3044 71.8231 76.4501 71.9814 76.5318 72.163C77.8523 71.997 78.4532 72.2638 80.0032 72.0709C80.9865 71.9487 82.3334 71.5152 82.9688 72.1832C83.688 72.2007 83.4597 72.0344 83.6726 71.997C84.677 71.82 85.4241 72.1368 85.6112 72.1554C86.8049 72.2748 87.3401 72.1652 88.3127 72.3147C88.26 72.191 88.2313 72.0739 88.1891 71.9534C87.298 72.1386 86.8468 72.1299 85.5972 72.0901C86.0163 72.0652 86.4355 72.0398 86.8545 72.015C86.786 71.9146 86.7181 71.8143 86.6522 71.7144C82.7875 72.1098 83.689 71.4852 86.929 71.3485C87.2084 71.5343 87.4979 71.7195 87.7747 71.9058C89.6463 71.6243 90.5271 71.8686 92.6438 71.9271C92.8954 71.9338 93.812 71.8268 94.206 71.8215C94.1994 71.8208 94.1929 71.8201 94.1863 71.8194C94.4314 71.644 94.0994 71.5633 94.0599 71.4065C94.2734 71.3869 94.487 71.3673 94.7005 71.3476C95.1773 71.4671 95.0096 71.5653 95.948 71.5368C95.8214 71.4178 95.6966 71.2988 95.5701 71.1798C96.5982 71.1756 97.271 71.3049 98.228 71.2491C98.0672 71.2941 97.9083 71.3392 97.7475 71.3842C99.8302 71.4991 98.1728 72.1988 99.7466 71.8505C99.8467 71.9116 99.9443 71.9732 100.044 72.0342C99.396 72.0492 98.7473 72.0638 98.1016 72.0788C98.0884 72.1652 98.0742 72.2512 98.0636 72.3376C98.757 72.3117 99.4537 72.285 100.147 72.2591C99.6408 72.3171 99.1317 72.3751 98.6256 72.4331C99.4295 72.4745 100.234 72.5159 101.038 72.5573C100.184 72.2396 101.291 72.2008 101.083 71.8862C102.506 72.1481 103.624 72.4932 105.831 72.2723C106.268 72.2282 106.031 72.0084 107.272 72.2759C106.972 71.9262 108.527 71.762 108.327 71.4294C107.895 71.4454 107.447 71.4555 107.028 71.4752C107.505 71.5906 107.584 71.908 106.859 72.0022C105.934 72.1222 104.584 71.9022 104.64 72.2546C104.271 72.238 103.928 72.2282 103.569 72.2143C103.717 72.1269 103.861 72.0389 104.006 71.9515C102.986 72.0886 102.345 72.044 101.855 71.8237C103.07 71.773 104.283 71.7228 105.498 71.6726C105.319 71.6576 105.138 71.6425 104.959 71.6281C105.879 71.403 104.93 71.1898 106.646 71.1416C106.635 71.2446 106.627 71.3476 106.616 71.4511C107.241 71.1758 108.952 71.1773 108.406 70.8606C108.923 70.9579 109.028 71.0194 109.321 70.8487C110.683 71.0893 111.559 71.3936 111.074 71.7568C111.58 71.6984 112.086 71.6398 112.59 71.5814C112.297 71.482 112.004 71.3832 111.712 71.2838C112.592 71.2901 113.479 71.2962 114.357 71.3018C114.441 71.5957 112.662 71.391 113.175 71.6537C113.278 71.7064 113.752 71.5935 113.876 71.6232C115.189 71.9445 113.128 71.7124 113.515 71.9586C114.89 72.012 114.525 72.2317 115.123 72.2372C115.382 72.2353 115.831 72.2083 116.616 71.9636C116.702 72.0338 116.796 72.1033 116.882 72.1712C117.837 71.9433 117.703 71.7721 118.446 71.4284C118.896 71.2069 119.649 71.1653 119.985 70.6325C120.016 70.5259 119.114 70.8103 120.57 69.5697C121.596 68.4934 121.394 69.1264 121.976 68.5082C122.603 67.854 122.878 65.9252 123.369 65.4393C123.233 65.8744 123.054 66.4196 122.832 66.864C122.844 67.0834 122.849 67.3005 122.844 67.5233C123.234 66.4313 123.587 65.2574 123.413 64.4703C123.458 64.3078 123.49 64.1421 123.512 63.9736C123.686 62.6591 123.411 61.4008 123.084 61.7957C123.137 62.2773 123.297 61.7534 123.195 62.4223C123.11 62.4908 123.025 62.5631 122.94 62.6316C122.95 61.4928 122.947 60.7018 123.208 61.2212C123.214 61.0445 123.22 60.8696 123.226 60.693C123.038 60.6613 122.849 60.6333 122.661 60.6016C122.639 60.3908 122.618 60.179 122.597 59.9681C122.639 59.7336 122.68 59.4986 122.722 59.2614C123.02 59.5804 123.03 60.1237 123.197 58.3258C123.094 58.3205 122.991 58.3128 122.888 58.3076C123.019 56.8023 123.269 56.7626 123.259 54.8728C123.617 56.3227 122.983 57.1159 123.7 57.1106C123.653 57.4744 123.605 57.8412 123.558 58.205C123.662 58.2604 123.767 58.3152 123.871 58.368C123.816 56.4147 123.132 53.17 123.585 51.8622C123.53 51.7041 123.482 51.5453 123.422 51.3846C123.696 50.1033 123.081 49.5501 123.435 48.2504C123.473 48.1163 124.05 48.3969 124.029 46.7051C123.954 46.7472 123.828 46.7692 123.733 46.8034C123.779 46.4371 123.827 46.0727 123.875 45.7091C123.805 45.6432 123.736 45.5741 123.666 45.5082C123.639 46.133 123.612 46.756 123.585 47.3808C123.561 46.8617 123.537 46.3392 123.514 45.8201C123.4 46.4974 123.399 46.8029 123.218 46.3946C123.207 45.8067 123.195 45.218 123.184 44.6302C123.138 44.5696 123.091 44.5095 123.044 44.4489C122.906 44.7336 122.77 45.0212 122.629 45.3059C122.742 43.7743 122.749 42.4427 123.021 41.267C123.067 41.0667 123.248 41.7752 123.085 40.4101C123.181 40.389 123.258 40.3523 123.347 40.3286C123.079 38.6572 123.159 38.1081 123.352 36.3656C123.172 37.4939 123.289 36.4871 123.192 36.1998C123.126 36.0029 123.136 36.7714 123.066 36.6845C122.997 36.5975 122.717 35.5989 122.683 36.4527C123.257 38.5459 122.571 39.1161 122.846 41.8051C122.772 41.3912 122.698 40.9743 122.624 40.5604C122.574 40.7553 122.529 40.9298 122.475 41.1406C122.588 39.6408 122.515 40.3703 122.426 39.754C122.338 39.1371 122.263 38.016 122.238 37.2647C122.231 37.028 122.359 37.2776 122.371 36.7435C122.38 36.3797 122.189 35.3855 122.414 35.156C122.56 35.0058 122.963 36.6029 122.962 34.3946C123.106 33.9789 123.061 35.0377 123.079 35.0605C123.249 35.2529 123.378 33.8954 123.247 33.2679C123.236 33.2171 123.103 33.7126 123.051 33.1738C122.926 31.8952 123.079 31.1568 123.285 30.329C123.043 30.2394 122.754 29.1634 122.843 27.8242C122.774 27.7557 122.704 27.6904 122.634 27.6219C122.671 27.8299 122.707 28.0377 122.744 28.2457C122.7 28.4724 122.669 28.7126 122.618 28.934C122.558 27.5872 122.224 27.3968 122.102 26.7509C121.685 24.5409 122.567 25.8803 122.719 26.2789C122.658 26.5663 122.589 26.8441 122.525 27.1288C122.609 27.0972 122.694 27.0651 122.779 27.0361C122.776 23.7277 123.326 26.5323 123.483 24.853C123.068 24.4207 123.028 23.1874 123.291 21.6163C123.289 21.4423 123.289 21.2677 123.286 21.0937C123.226 21.0648 123.133 21.0652 123.093 21.0178C123.023 19.125 123.662 18.7878 123.723 18.6086C123.991 17.8125 123.62 17.1926 123.616 16.9579C123.603 15.9694 123.768 15.6821 123.698 14.7411C123.621 13.729 123.494 14.421 123.381 14.1131C123.291 13.8661 123.275 13.0676 123.182 12.7378C123.258 12.8688 123.333 13.0145 123.409 13.1452C123.513 12.0962 123.615 11.2389 123.64 10.0475C123.63 10.0228 123.62 9.9982 123.611 9.97363C123.128 8.63944 123.613 7.3801 123.021 8.00879C123.191 8.88606 123.154 9.48255 123.041 9.97363C123.007 10.1159 122.969 10.2517 122.926 10.3861C122.921 10.2486 122.917 10.1111 122.912 9.97363C122.892 9.38553 122.807 8.80215 122.657 8.23878C122.691 8.01692 122.732 7.84945 122.738 7.58122C122.429 7.10084 121.942 5.94436 121.597 5.57415C120.828 4.70077 120.415 4.57181 120.128 4.3554C119.821 4.15545 119.645 3.88121 118.864 3.14094C120.167 3.88384 120.353 3.71295 121.365 4.88772C121.299 4.51038 120.695 3.95571 121.216 4.18559C120.056 3.13638 120.277 3.65828 119.72 3.43273C119.238 3.24704 118.354 2.81686 118.324 3.02024C118.278 2.88503 118.247 2.76183 118.193 2.62695C117.307 2.25687 116.354 2.05071 115.395 2.02012C115.807 1.92579 116.234 1.86278 116.673 1.83641C116.364 1.73633 116.046 1.65406 115.725 1.59036C115.531 1.60252 115.332 1.61512 115.123 1.63078C112.724 1.8195 109.282 1.35383 109.886 2.13397C108.742 2.16087 108.599 2.0549 107.977 1.89503C107.908 1.95917 107.841 2.01253 107.773 2.08392C107.035 2.01677 106.468 2.2576 105.817 2.195C105.166 2.13288 105.005 1.9054 104.91 2.28777C104.488 2.17809 104.069 2.08697 103.65 1.98505C103.397 2.07191 103.144 2.15778 102.894 2.24413C102.498 2.1986 102.102 2.15325 101.707 2.10772C101.495 2.29025 99.9408 2.21157 99.2554 2.33415C98.6048 2.1374 98.6226 1.51792 97.092 1.62893C97.1315 1.78257 97.1704 1.93577 97.21 2.08941C96.8594 2.05734 96.5081 2.02536 96.1549 1.99329C96.1339 1.94314 96.1156 1.89299 96.0945 1.84284C96.2737 1.85836 96.4505 1.8738 96.6298 1.88984C96.4742 1.80497 96.3219 1.7205 96.169 1.63564C95.6339 1.76136 95.0981 1.8871 94.5604 2.01282C95.2852 2.10801 96.0103 2.20326 96.7351 2.29845C95.8256 2.41125 95.1926 2.29874 94.4017 2.42448C93.7138 2.21236 93.9678 2.09013 94.2472 1.85993C93.9916 1.87959 93.7329 1.89856 93.4773 1.91822C93.646 1.68799 93.2136 1.55081 94.708 1.56942C94.6052 1.50375 94.5004 1.44115 94.4003 1.3729C94.1552 1.38324 93.9962 1.32774 93.7274 1.35306C92.9945 1.4224 92.4326 1.82678 92.4827 1.96857C92.5097 2.04284 93.2324 1.9008 93.2034 2.0058C93.1319 2.26184 91.4743 2.14688 93.8651 2.40403C93.0716 2.56703 92.8943 2.44411 92.0191 2.39701C92.0876 2.48233 92.1542 2.56711 92.22 2.65243C91.8142 2.61312 91.4078 2.57395 91.002 2.53464C91.5662 2.09637 88.574 1.93176 91.2675 1.54836C90.4716 1.5287 89.6783 1.50894 88.8849 1.48825C89.0484 1.44324 89.2118 1.39868 89.3752 1.35367C89.7337 1.37747 90.09 1.40088 90.4485 1.42416C90.0269 1.34191 89.6044 1.26015 89.1828 1.1779C88.1863 1.27984 87.7957 1.43662 87.3396 1.63015C88.4993 1.77137 88.1204 1.57846 89.024 1.54012C88.9925 1.66268 89.0342 1.77542 88.9552 1.90418C88.4883 1.65032 86.9651 1.835 86.6119 1.84742C85.537 1.88513 86.3799 1.6357 85.6609 1.63045C84.9412 1.62528 84.0924 1.77374 83.5045 1.52639C83.515 1.66503 83.562 1.80847 83.6042 1.9347C82.4838 1.98023 82.7073 1.81645 82.5913 1.79524C80.7407 1.44648 79.7365 1.74092 77.6196 1.77662C77.8885 1.81956 78.1602 1.85833 78.4316 1.89869C76.8346 2.19304 77.9104 2.10291 79.297 2.20019C77.9973 2.17069 77.2531 2.42137 76.3356 2.49589C75.4184 2.57027 73.8452 2.44152 73.2703 2.34117C74.5858 2.17972 76.0046 2.28619 77.4651 2.24169C77.2991 2.10046 77.1377 1.98093 76.9664 1.82575C76.0781 2.12217 75.5634 1.92397 75.2708 1.88465C74.4116 1.76931 74.4386 2.02373 73.9193 1.75007C73.9404 1.84421 73.9558 1.92337 73.9769 2.01129C72.2028 1.97197 70.2892 1.80554 69.1345 2.15319C69.0291 1.92708 68.9495 1.70924 68.8282 1.47848C68.077 1.64869 67.4337 1.47439 66.8011 1.51419C66.171 1.55403 66.4109 1.73676 65.6702 1.80714C65.5331 1.82008 65.2476 1.7057 64.9102 1.79005C64.5694 1.87484 63.3128 2.5053 63.1626 1.95453C62.5273 1.95194 61.9261 1.9318 61.304 1.92249C61.9103 1.89145 62.5168 1.86138 63.1204 1.83033C62.6038 1.69684 62.0904 1.56375 61.5737 1.43027C61.5078 1.54928 61.4417 1.67045 61.3784 1.78791C59.9865 1.9328 58.9764 1.73821 57.5714 1.78425C57.3368 1.79201 57.8903 2.02732 56.8493 1.96735C55.808 1.90733 55.0353 1.46814 53.2614 1.63778C53.1717 1.64657 52.6464 1.98293 52.0111 1.75007C51.8665 1.6973 52.475 1.61921 52.1431 1.54989C51.8109 1.48055 50.3289 1.42353 50.2129 1.25846C50.2287 1.31692 50.3212 1.37749 50.366 1.43698C50.113 1.46491 49.8574 1.49287 49.6018 1.52029C49.5781 1.41733 49.5524 1.31421 49.5287 1.21177C48.0736 1.45134 47.3216 1.84216 45.1653 1.71284C45.7716 1.86238 46.3781 2.01251 46.9818 2.16204C47.1479 2.057 47.3142 1.95124 47.4777 1.8462C48.4714 1.88811 49.4678 1.92971 50.4615 1.97162C50.625 1.85209 50.7856 1.7329 50.949 1.61336C51.2126 1.62888 51.4736 1.64392 51.7371 1.65944C51.6712 1.74585 51.6048 1.83181 51.5362 1.91822C52.0581 1.89701 52.5806 1.87535 53.0998 1.85413C52.0427 2.3642 50.1478 1.81075 50.2845 2.23742C50.05 2.17122 49.8152 2.10456 49.5807 2.03784C49.4779 2.24473 49.001 2.18518 48.1604 2.15258C48.3529 2.25452 48.5654 2.35507 48.742 2.45805C47.9248 2.31421 46.4751 2.32818 45.6289 2.27281C45.2573 2.2485 45.6285 2.0985 45.518 2.08087C44.9512 1.98876 43.8678 2.25049 43.6411 2.22979C42.2861 2.10661 41.4056 1.61042 39.9267 1.93744C41.4531 2.01817 40.6227 1.98407 41.1658 2.1657C41.3358 2.22265 43.3077 2.34144 40.8385 2.28868C40.549 2.28208 36.0686 1.93925 37.5413 1.67653C36.8164 1.76036 36.2488 1.85729 35.5844 1.94629C33.9605 1.25393 34.5225 1.90435 34.9944 2.26244C34.7281 2.26399 34.4748 2.26763 34.2007 2.26763C34.7833 1.89143 31.8151 1.86807 30.808 2.05798C30.4706 2.12111 31.4141 2.24153 30.6338 2.29845C30.2623 2.27207 29.8408 2.23791 29.4481 2.20843C30.0175 2.44644 28.9001 2.53816 28.9157 2.7803C28.2014 2.56453 27.6549 2.1072 28.0475 1.85932C27.4571 1.95969 26.8636 2.05993 26.2732 2.16082C26.5474 2.21826 26.8251 2.27519 27.0993 2.33263C25.1695 2.18049 22.6883 2.52667 22.2849 2.01801C22.0292 2.02163 21.7708 2.02476 21.5151 2.02838C21.436 2.11428 21.3596 2.20034 21.2805 2.28624C20.1234 2.21174 18.969 2.13675 17.812 2.06225C18.8422 2.00895 19.0874 1.88668 20.1679 1.98596C19.7515 1.88717 19.3274 1.78783 18.919 1.68904C17.2924 1.95501 17.0705 2.12982 14.6216 2.05066C14.5109 2.04703 12.6605 1.82399 12.5972 1.80226C12.3074 1.70291 12.7474 1.55859 12.6183 1.50839C12.2598 1.36764 10.0812 1.01423 10.1233 0.960929C10.6559 0.306857 17.9859 0.298187 19.9684 0.264552C40.5309 -0.0841982 60.6407 0.382386 81.0741 0.302697C81.2842 0.301464 81.1925 0.204909 81.282 0.200774C81.8382 0.176523 82.3843 0.327005 82.5899 0.333213C83.0292 0.346008 82.7873 0.206976 83.1083 0.206877C86.4247 0.208429 89.5542 0.290185 92.8733 0.266383C93.0894 0.264831 92.8687 0.376069 93.2483 0.356405C93.4443 0.345639 94.0577 0.174977 94.5 0.172394C96.0448 0.163601 97.3424 0.218314 98.9716 0.215726C99.8627 0.214182 101.199 0.228689 102.196 0.226102C102.636 0.225002 103.094 0.146927 103.529 0.144319C104.146 0.140697 104.02 0.298969 104.115 0.3088C104.531 0.35174 104.589 0.178025 104.984 0.182159C105.72 0.190438 105.759 0.306421 106.693 0.296594C107.36 0.28935 108.886 0.197776 109.727 0.170868C111.392 0.284799 113.425 0.263936 115.123 0.227846C115.497 0.221301 115.857 0.235531 116.198 0.266131C117.52 0.416881 117.59 0.667637 118.099 0.812262C119.869 1.40809 121.227 2.0771 122.458 3.40314C124.057 5.19558 124.747 7.355 124.826 9.62229C124.832 9.82793 124.877 9.8927 124.919 9.97363C124.952 10.026 124.982 10.0863 124.983 10.2189C124.997 11.3288 125.025 12.748 125.003 13.7366C124.98 14.8384 124.764 15.2448 124.808 16.3229C124.821 16.639 125.01 16.7316 125.035 17.2613C125.073 18.1074 124.906 19.0352 124.887 19.6257C124.863 20.435 125.055 19.7312 125.03 20.8226C125.028 20.8674 124.891 21.0307 124.897 21.2651C124.916 21.9479 125.024 21.8801 125.014 22.8792C125.013 22.9751 124.881 24.2999 124.881 24.4316C124.879 25.2066 124.833 26.767 124.861 27.2258C124.96 28.8655 125.167 27.5746 124.717 28.9692C124.827 29.5832 124.939 30.1922 125.046 30.8432C124.946 30.4087 124.802 32.1719 124.811 32.2958C124.886 33.3207 125.062 32.7102 125.033 34.0097C124.628 32.2935 124.98 35.6862 124.991 36.4428C125.041 40.0859 124.94 43.3975 124.943 47.0591C124.944 48.2849 125.029 49.9276 125.027 51.2244C125.027 51.5267 124.931 51.2983 124.929 51.5644C124.928 51.8298 125.035 51.5353 125.03 51.8383C124.992 53.7231 124.789 55.1999 125.043 56.9266C125.006 57.0107 124.977 57.008 124.937 57.1472C125.164 58.5602 124.859 61.2814 124.817 62.3043C124.786 63.0568 124.804 63.5458 124.828 63.9736C124.851 64.5555 124.856 65.0554 124.705 65.7918C124.402 67.7037 122.518 69.861 123.622 69.0631C122.963 70.1889 122.102 71.1487 121.021 71.8992C120.901 71.9819 120.907 71.8207 120.859 71.8529C120.552 72.0514 120.513 72.2086 120.304 72.3465C119.731 72.7047 120.61 72.0329 119.799 72.5441C119.36 72.7854 119.165 73.0698 117.802 73.4879C116.937 73.7327 116.033 73.8581 115.123 73.858C108.819 73.8597 102.126 73.83 95.7681 73.8152C95.2804 73.8141 95.6015 73.9358 94.9899 73.9281C92.8651 73.9011 89.0618 73.6963 87.2296 73.7242C85.3975 73.7522 85.8109 73.9301 84.6644 74.0047C84.443 74.0191 84.6245 73.9177 84.4242 73.9162C83.0771 73.9068 81.471 73.7486 80.3797 73.7248C79.6579 73.7089 79.7157 73.8684 79.2151 73.8798C78.469 73.8964 77.7012 73.7352 77.3031 73.73C75.4317 73.7073 74.1451 73.8371 72.3974 73.7709C72.4658 73.806 72.511 73.8385 72.5688 73.8731C70.4996 73.8674 68.433 73.8617 66.3637 73.856C66.4613 73.8881 66.5556 73.9205 66.6531 73.9531C64.2253 73.9355 64.5023 73.5878 64.7159 74.322C64.5393 74.3479 64.3521 74.3779 64.1834 74.4017C64.2519 74.0234 62.7833 73.7466 60.9144 73.6504C60.7773 73.6431 59.8575 74.0119 59.9577 73.5762C59.7178 73.6828 59.5749 73.7563 59.3719 73.8499C58.9766 73.718 58.5759 73.5877 58.1806 73.4563C57.9671 73.4759 57.7506 73.4949 57.5372 73.5146C57.5056 73.6 57.5299 73.6886 57.4613 73.7724C56.4702 73.7854 54.4374 73.6798 53.6542 73.6907C51.7087 73.7181 49.728 73.9489 48.2148 73.6995C47.4776 73.7249 48.2097 73.8925 47.1134 73.8713C46.9895 73.7865 46.873 73.7051 46.7439 73.6177C45.8479 73.9968 45.6608 73.7662 44.433 73.687C43.6026 73.6332 43.0589 73.7258 42.2681 73.7077C42.0678 73.7031 42.0961 73.5918 41.9591 73.5954C41.4999 73.6069 40.19 73.7601 39.8659 73.7642C36.9293 73.8045 34.4066 73.7874 31.6097 73.7465C31.3092 73.7424 31.6988 73.8522 31.3877 73.8475C30.8873 73.8402 31.1818 73.6715 30.8918 73.6632C30.0831 73.641 30.077 73.819 28.949 73.8283C25.2346 73.8588 20.9641 73.7251 17.0838 73.7132C16.9625 73.7132 16.9698 73.8175 16.8379 73.8185C15.9788 73.8236 15.1091 73.6827 14.3289 73.6842C13.0345 73.6863 12.0618 73.8328 10.7831 73.8322C10.5611 73.8322 10.3411 73.8316 10.1227 73.8304C7.37016 73.8076 4.83823 72.6696 2.90546 70.5721C1.27999 68.753 0.361649 66.6144 0.33403 63.9736C0.333997 63.8704 0.333991 63.7663 0.334014 63.6612C0.336084 53.5854 0.00519133 43.3039 0.181129 33.1596C0.185782 32.9014 0.277886 33.0065 0.273897 32.9278C0.234054 32.1791 0.109781 32.1123 0.370023 31.8461C0.318734 30.8923 0.123217 30.5914 0.137185 29.4396C0.144509 28.8258 0.447544 29.2841 0.291292 28.2455C0.150038 27.3078 -0.0160382 28.3426 0.153664 25.5539C0.158329 25.48 0.343041 25.1167 0.294954 24.5368C0.247347 23.9542 0.115083 24.6285 0.0752378 23.2261C-0.017895 19.9335 0.141771 15.766 0.0926321 11.9383C0.0906541 11.7855 0.0498571 10.7923 0.00873113 9.97363C-0.0160887 9.38524 0.018877 8.86566 0.0302367 8.65413C0.128857 7.53458 -0.0913315 7.71673 0.355862 6.28827C0.753883 5.1957 1.34877 4.42348 2.16965 3.36807C2.27175 3.25205 2.29475 2.9177 3.0595 2.23028ZM122.497 60.6958C122.34 60.4796 121.763 60.0895 121.938 58.7824C121.955 58.6585 122.352 59.3273 122.415 58.6054C122.457 59.3119 122.471 59.9998 122.498 60.6958C122.497 60.6958 122.497 60.6958 122.497 60.6958ZM9.90912 3.17907C9.07543 3.17516 8.23765 3.32582 7.45144 3.62625C7.95853 3.33653 8.51247 3.10855 9.09209 2.95337C9.37421 3.01223 9.64625 3.08831 9.90912 3.17907ZM52.9898 71.0458C52.9888 71.0458 52.9879 71.0458 52.987 71.0458C54.0151 70.9713 55.0438 70.8967 56.0719 70.8221C55.9639 70.877 55.8555 70.9321 55.7474 70.9869C54.9356 71.0733 54.1234 71.1596 53.3143 71.246C53.2062 71.1793 53.0978 71.1126 52.9898 71.0458ZM44.8671 71.6265C44.2106 71.5613 44.3713 71.4514 44.0101 71.3443C44.0101 71.3445 44.0101 71.3447 44.0101 71.3449C43.9148 71.317 43.4708 71.2926 43.2993 71.2884C43.3625 71.3572 43.4442 71.4252 43.5128 71.4935C41.9811 71.6601 38.9858 71.068 42.8638 70.8295C42.8058 70.9164 42.7504 71.0028 42.6924 71.0898C44.6195 71.0654 46.7678 71.254 44.8671 71.6265ZM122.247 45.2005C121.962 43.5555 121.902 43.028 122.097 41.0324C122.178 41.3143 122.259 41.5962 122.339 41.8781C122.257 42.2076 122.175 42.5348 122.093 42.8643C122.093 42.8652 122.093 42.8662 122.093 42.8671C122.179 42.933 122.266 42.9991 122.352 43.0624C122.317 43.7741 122.282 44.4888 122.247 45.2005ZM2.67551 48.3149C3.24393 47.8564 2.91353 47.9886 3.0417 49.2982C3.08621 49.7517 3.18566 49.3098 3.20222 49.5919C3.29267 51.1151 2.91183 51.2369 2.71366 50.8969C2.7002 50.0349 2.68793 49.1639 2.67551 48.3177C2.67551 48.3167 2.67551 48.3158 2.67551 48.3149ZM2.63872 8.86018C2.63885 8.8593 2.63898 8.85843 2.63911 8.85756C2.78022 8.84476 2.74069 9.40274 2.95955 8.79662C2.89595 9.18429 2.86346 9.57748 2.8629 9.97363C2.86278 10.0674 2.86267 10.1613 2.86258 10.2553C2.85483 10.1621 2.84729 10.0678 2.83972 9.97363C2.83467 9.91604 2.83027 9.8586 2.82641 9.8017C2.80341 9.85829 2.78092 9.91562 2.75909 9.97363C2.73301 10.0484 2.70692 10.1231 2.681 10.1977C2.84037 10.3849 2.74773 10.5588 2.69443 11.1122C2.86467 10.9593 3.03503 10.8072 3.20527 10.6543C3.15457 11.2974 3.10369 11.9428 3.053 12.5859C3.01009 12.5938 2.96712 12.6019 2.92422 12.6098C2.97905 12.8522 3.03448 13.0922 3.08931 13.3347C3.03809 13.4006 2.98734 13.4641 2.93612 13.53C2.97492 13.8225 3.01368 14.1155 3.053 14.408C2.92893 14.497 2.8753 13.8523 2.90682 14.9952C2.77954 14.6446 2.65265 14.2948 2.52537 13.9416C2.53335 12.619 2.54161 11.2963 2.54995 9.97363C2.55244 9.59955 2.58197 9.22812 2.63872 8.86018ZM2.85037 60.2292C2.82657 58.3391 2.91649 58.8714 3.19795 59.309C3.08207 59.6147 2.96624 59.9235 2.85037 60.2292ZM91.1912 71.4965C91.7396 71.3046 92.2902 71.1145 92.8517 70.9293C93.9695 70.8221 95.0877 71.172 94.2467 71.3092C93.2344 71.4737 92.1772 71.2896 91.1912 71.4965ZM116.535 71.2773C115.269 71.3763 116.427 70.9935 116.644 70.7951C117.013 70.9288 117.482 70.7983 118.183 70.501C117.553 70.8274 116.751 71.2587 116.535 71.2779C116.535 71.2777 116.535 71.2775 116.535 71.2773ZM69.1832 71.2808C68.6352 71.2865 68.09 71.3401 67.6 71.275C67.7478 71.0914 68.7281 71.2584 68.027 70.9863C68.3776 70.9817 68.7285 70.9771 69.0764 70.972C68.8553 71.0847 69.1527 71.169 69.1818 71.2802C69.1823 71.2804 69.1827 71.2806 69.1832 71.2808ZM12.1248 71.0296C13.2004 71.247 13.4042 71.154 14.4877 71.0034C14.6403 71.1804 13.3485 71.4768 12.5392 71.542C12.4021 71.3713 12.2645 71.2004 12.1248 71.0296ZM42.8446 2.82699C43.1028 2.60144 45.0082 2.57202 45.9549 2.6387C45.8421 2.67215 45.729 2.70605 45.6163 2.74002C44.6936 2.76899 43.7673 2.79801 42.8446 2.82699ZM118.514 70.3519C118.398 70.4061 118.287 70.4559 118.183 70.501C118.296 70.4449 118.408 70.393 118.514 70.3519ZM123.324 15.3634C123.537 15.814 123.608 14.4746 123.525 16.1009C123.525 16.1009 123.525 16.1009 123.525 16.1009C123.471 17.1765 123.456 17.414 123.439 18.4105C123.166 18.0518 123.069 16.0301 123.012 18.8165C123.012 18.8532 123.174 18.7801 123.152 19.2253C123.145 19.3627 123.012 19.8025 122.973 20.4714C122.961 20.6875 122.92 22.312 122.917 20.0977C122.727 20.1636 122.534 20.0446 122.349 20.0499C122.295 19.1856 122.668 18.5213 122.659 17.6069C122.645 16.2493 122.268 15.5584 122.762 15.2974C122.884 16.439 122.887 18.3993 122.589 18.6549C122.586 19.7593 122.829 20.0765 122.95 19.1859C122.797 15.3713 123.312 18.1388 123.117 14.7987C123.048 14.7591 122.974 14.6218 122.91 14.6427C123.152 13.6232 123.248 15.2026 123.324 15.3634ZM122.798 23.34C122.653 22.681 122.506 22.0241 122.36 21.3676C122.597 21.3677 122.81 21.7296 122.943 22.7683C122.895 22.9579 122.846 23.1504 122.798 23.34ZM85.6159 2.3607C85.521 2.48954 85.268 2.60762 85.0835 2.73025C84.8831 2.62159 80.1378 2.51734 82.552 2.41075C82.9026 2.39522 85.0412 2.62305 85.6159 2.3607ZM5.546 69.5969C5.88422 69.984 6.26811 70.3403 6.69283 70.6559C5.9532 70.3374 5.25559 69.8949 4.64048 69.3469C4.94355 69.4531 5.24533 69.5351 5.546 69.5969ZM100.289 71.7227C100.053 71.7178 100.837 71.5406 99.9068 71.5686C100.6 71.4552 101.249 71.3593 101.927 71.2527C102.13 71.3365 102.335 71.42 102.538 71.5039C102.696 71.4501 102.857 71.3966 103.016 71.3427C102.921 71.4649 102.836 71.5841 102.736 71.7083C101.595 71.4465 101.333 71.7434 100.289 71.7227ZM66.3469 72.2002C66.1416 71.9348 67.7945 71.777 66.1684 71.7346C66.4769 71.5602 66.9728 71.4687 67.9245 71.4532C68.0772 71.5199 68.2297 71.5861 68.3824 71.6528C68.4035 71.4743 68.6484 71.408 69.1832 71.2808C69.1837 71.281 69.1841 71.2812 69.1846 71.2814C70.6314 71.2685 70.5449 71.328 70.8929 71.6214C69.3612 71.4558 69.3154 71.7238 68.2715 71.8832C67.5545 71.9928 66.6183 71.9431 66.3469 72.2002ZM90.6719 2.35765C89.5888 2.58169 90.5608 2.79066 88.6391 2.55265C88.763 2.49573 88.8875 2.43929 89.0114 2.38237C89.5649 2.37357 90.1184 2.36541 90.6719 2.35765ZM61.0015 71.2906C61.1254 71.7014 62.1451 72.0212 62.3192 71.3528C61.3254 71.2167 61.8108 71.5953 61.0015 71.2906ZM116.191 71.9844C115.693 72.0441 115.345 72.0137 115.123 71.9616C114.606 71.8385 114.741 71.6177 115.123 71.4471C115.205 71.4081 115.298 71.3703 115.396 71.3347C115.51 71.415 115.63 71.4926 115.749 71.567C116.063 71.5031 116.372 71.4194 116.671 71.3181C116.527 71.5444 116.366 71.7677 116.191 71.9844ZM27.3095 71.7419C28.77 71.4485 25.733 71.5787 26.7532 71.3955C27.5678 71.2491 28.6413 71.5447 28.2353 71.73C27.9532 71.7352 27.6392 71.7388 27.3123 71.7419C27.3114 71.7419 27.3105 71.7419 27.3095 71.7419ZM35.761 71.658C35.5212 71.3445 35.8668 71.4359 34.713 71.4923C34.3834 71.5083 31.7649 71.3906 32.8642 71.6503C33.7999 71.6503 34.7884 71.6549 35.761 71.658ZM122.745 53.3893C122.881 53.3717 123.181 55.388 123.106 55.6468C123.106 55.6468 123.107 55.6468 123.107 55.6468C122.902 56.3454 122.873 54.2185 122.593 55.1411C122.84 53.0981 122.243 52.4869 123.029 52.6292C123.064 53.8327 122.902 53.263 122.745 53.3893ZM17.8274 2.18432C17.8265 2.18432 17.8255 2.18432 17.8246 2.18432C17.96 2.19074 19.0757 2.39109 18.94 2.46049C17.5983 2.40099 17.8374 2.26911 16.5884 2.48582C16.5199 2.41602 16.4612 2.34832 16.3875 2.278C16.8831 2.23661 17.1578 2.15275 17.8274 2.18432ZM80.4855 2.08545C80.9785 2.04974 81.8781 2.19769 82.4396 2.1889C80.6523 2.75706 78.5164 2.22724 80.4855 2.08545ZM2.57694 27.2776C2.57715 27.279 2.57735 27.2804 2.57756 27.2818C2.57725 27.2814 2.57695 27.2808 2.57664 27.2804C2.57674 27.2795 2.57684 27.2785 2.57694 27.2776ZM118.375 3.16114C118.337 3.10205 118.32 3.05871 118.32 3.028C118.321 3.0256 118.322 3.0232 118.324 3.0208C118.339 3.0659 118.356 3.11226 118.375 3.16114ZM122.704 49.1987C122.894 48.3589 123.197 51.1569 123.124 52.0617C123.038 51.9985 122.959 51.9886 122.859 51.8411C123.084 51.1108 122.672 49.3384 122.704 49.1987ZM78.6714 71.6244C80.8832 71.6296 78.0047 72.3813 77.8861 71.7816C77.8905 71.7699 78.6143 71.6254 78.6714 71.6244ZM122.363 66.4813C122.37 67.064 122.897 66.0806 122.107 67.6866C122.006 67.7506 121.904 67.812 121.802 67.8701C122.035 67.4249 122.222 66.9586 122.363 66.4813ZM93.1608 72.6113C95.9445 72.4845 98.6069 72.2609 96.7937 71.6333C96.583 71.6534 96.3694 71.6729 96.1587 71.6931C96.1271 71.9993 95.3496 71.8321 94.2116 71.8222C94.0494 71.9437 93.4183 71.9718 93.2999 72.0751C93.0708 72.2748 93.796 72.4152 93.1608 72.6113ZM1.98341 42.0522C2.03567 42.097 2.08821 42.1408 2.13995 42.1856C2.19895 42.6259 2.25765 43.0673 2.31664 43.5076C2.21634 43.4364 2.11605 43.3651 2.01575 43.294C2.00489 42.8803 1.99396 42.4686 1.9831 42.055C1.9832 42.054 1.98331 42.0531 1.98341 42.0522ZM123.444 26.0527C122.869 25.7999 122.975 26.6836 123.265 28.4761C123.325 27.6694 123.384 26.8594 123.444 26.0527ZM48.4283 72.3782C48.3703 72.2147 48.3133 72.0518 48.2527 71.8884C47.301 72.0586 47.4777 72.2458 47.9338 72.4621C48.0997 72.4342 48.2624 72.4061 48.4283 72.3782ZM34.72 72.4477C35.1148 72.4818 34.9133 72.3499 34.9546 72.3525C35.9537 72.4219 36.0945 72.4824 37.3203 72.383C37.4706 72.3484 37.6182 72.3119 37.7685 72.2762C37.2018 71.9338 36.7902 72.1204 35.591 71.9192C35.8072 72.0367 36.0224 72.1543 36.2386 72.2723C35.5718 72.2474 34.9078 72.2229 34.2409 72.1981C34.1619 72.2343 34.0826 72.2702 34.0035 72.3064C34.2407 72.353 34.4855 72.4053 34.72 72.4477ZM2.13202 36.9611C2.14547 36.3126 2.15946 35.6611 2.17291 35.0126C2.08857 34.9888 2.00366 34.966 1.91932 34.9423C1.9902 35.6144 2.06115 36.289 2.13202 36.9611ZM123.182 12.7378C123.152 12.6864 123.122 12.6362 123.091 12.5917C123.128 12.596 123.158 12.6522 123.182 12.7378ZM16.1163 1.72169C15.381 1.66271 14.3212 1.70144 13.5146 1.68904C13.578 1.90063 15.6282 1.84214 16.3481 1.9704C16.4638 1.93244 16.4272 1.74651 16.1163 1.72169ZM113.539 72.0358C113.355 72.1413 113.17 72.2464 112.989 72.3519C112.543 72.3405 112.096 72.3285 111.648 72.3171C111.635 72.4035 111.622 72.4907 111.609 72.5771C113.583 72.4648 113.128 72.714 114.105 72.9598C113.916 72.652 113.729 72.3441 113.539 72.0358ZM1.58395 16.327C1.64242 17.7532 1.75164 18.259 2.01087 17.455C1.95138 16.9517 1.89184 16.4454 1.83235 15.942C1.74958 16.0712 1.66673 16.2005 1.58395 16.327ZM104.48 1.71925C103.286 1.81612 103.267 1.46821 102.1 1.66249C102.725 1.72664 103.349 1.79151 103.971 1.85566C104.139 1.8103 104.312 1.76462 104.48 1.71925ZM124.333 45.2975C124.454 44.7939 123.878 43.8527 124.303 42.4372C124.176 42.0999 124.055 41.8885 123.931 41.5985C124.066 41.4298 124.203 41.2382 124.337 41.0774C124.337 41.0764 124.337 41.0755 124.337 41.0745C124.291 39.7907 124.122 40.6231 123.979 40.5941C123.919 40.5805 124.019 39.6276 123.889 39.9254C123.667 40.4395 123.795 42.3603 123.524 42.3656C123.613 41.6907 123.539 40.3729 123.358 40.7627C123.16 41.1897 123.492 42.4316 123.328 43.2225C123.76 42.0892 123.627 44.43 123.294 44.6962C123.55 46.0696 123.654 44.8073 123.642 43.3995C123.896 44.2589 123.759 42.9939 123.97 42.7856C124.098 43.6718 123.992 46.713 124.333 45.2975ZM81.5667 72.7144C82.516 72.698 83.999 72.8435 84.6489 72.6287C85.0275 72.5035 83.541 72.4066 84.566 72.21C83.6412 72.2292 83.4301 72.306 83.5883 72.4782C83.3775 72.4989 83.1641 72.5191 82.9533 72.5393C82.8558 72.5057 82.7558 72.4725 82.6583 72.4389C82.5476 72.5098 82.4362 72.5801 82.3282 72.651C82.1043 72.637 81.8777 72.623 81.6538 72.6086C81.6275 72.6442 81.5826 72.6752 81.5667 72.7144ZM70.212 1.72993C70.4755 1.72786 70.7365 1.72581 71.0001 1.72322C70.9711 1.68126 70.9365 1.63757 70.9032 1.59444C70.8793 1.56037 70.8554 1.52629 70.8315 1.49221C70.9843 1.61396 72.2399 1.81631 72.7688 1.6863C73.0347 1.62107 72.4296 1.38951 73.5569 1.34909C72.7399 1.361 71.9831 1.3926 71.1898 1.41226C71.2609 1.34344 71.3293 1.27388 71.4005 1.20506C71.4 1.20496 71.3995 1.20485 71.3991 1.20475C71.1355 1.18923 70.8689 1.17297 70.6053 1.15745C70.4735 1.3484 70.3438 1.53899 70.212 1.72993ZM49.2009 72.7013C50.0999 72.5663 50.4009 72.4961 49.9764 72.2778C49.9755 72.2776 49.9745 72.2775 49.9736 72.2775C49.6389 72.3742 49.3039 72.4709 48.9691 72.5677C49.0456 72.6122 49.1219 72.6568 49.2009 72.7013ZM122.256 4.8544C121.292 4.28723 121.658 4.83734 122.124 5.43381C122.598 6.03257 123.132 6.82648 123.086 6.36239C123.105 6.30446 122.325 5.0485 122.256 4.8544ZM116.586 72.1814C116.106 72.2727 115.615 72.321 115.123 72.3269C115.067 72.3276 115.012 72.3283 114.957 72.329C115.012 72.3752 115.067 72.4213 115.123 72.4674C115.194 72.5231 115.267 72.5778 115.34 72.6318C115.773 72.513 116.191 72.3613 116.586 72.1814ZM1.20738 22.5363C0.979698 23.0885 0.897207 24.5058 1.14483 25.1984C1.1738 24.8346 1.20282 24.4707 1.2318 24.1069C1.26025 24.7947 1.29156 25.4747 1.31846 26.1678C1.63567 26.2047 1.45164 25.406 1.53909 24.2038C1.5532 24.0177 1.94694 22.8278 1.65017 22.4169C1.58918 22.3342 1.5477 23.6001 1.37034 22.7203C1.35638 23.105 1.35948 23.437 1.35172 23.8006C1.27618 23.827 1.20054 23.8531 1.12499 23.8821C1.15234 23.4325 1.18003 22.9859 1.20738 22.5363ZM87.0933 72.6897C88.3972 72.7072 88.5582 72.5805 88.8297 72.3565C88.2234 72.3818 87.6168 72.4068 87.0104 72.4322C87.0394 72.5178 87.0644 72.6035 87.0933 72.6897ZM1.13476 34.1907C1.09812 34.9046 1.28044 34.5988 1.31511 34.8861C1.44548 35.9722 1.31518 36.7129 1.39689 37.7857C1.3617 37.7145 1.32881 37.6491 1.29466 37.5806C1.29466 37.5815 1.29466 37.5825 1.29466 37.5834C1.14099 42.6632 1.55449 39.995 1.48722 36.9554C1.555 36.8843 1.62288 36.8159 1.69015 36.7447C1.57166 35.3845 1.45764 34.1301 1.13476 34.1907ZM123.931 21.9745C123.973 21.9165 124.243 22.4095 124.117 21.4842C123.723 20.7515 123.919 21.9532 123.767 22.2541C123.729 22.0036 123.693 21.7475 123.655 21.4997C123.544 22.9971 123.637 23.2156 123.925 22.6699C123.944 22.631 123.889 22.0326 123.931 21.9745ZM124.125 12.1337C123.545 11.9281 123.806 13.8178 123.986 13.7493C123.993 13.4884 123.895 13.2856 123.938 13.0089C123.982 12.7295 124.117 12.6581 124.125 12.1337ZM123.621 66.4872C123.646 66.4349 124.033 65.8852 123.829 65.9022C123.265 66.5509 122.922 67.9868 123.161 67.8275C123.372 67.3608 123.435 67.0214 123.622 66.4874C123.622 66.4874 123.622 66.4873 123.621 66.4872ZM1.07067 13.9359C1.05449 13.9623 0.956495 15.3499 1.04748 15.529C1.14992 15.6766 1.25971 15.7499 1.36576 15.8606C1.26744 15.0961 1.34234 13.5486 1.07067 13.9388C1.07067 13.9378 1.07067 13.9369 1.07067 13.9359Z" fill="black"/>
</svg>
