<svg width="50" height="50" viewBox="0 0 50 50" fill="none" xmlns="http://www.w3.org/2000/svg">
<g clip-path="url(#clip0_319_830)">
<path d="M25 9.96094C18.3333 9.96094 14.1667 13.2943 12.5 19.9609C15 16.6276 17.9167 15.3776 21.25 16.2109C23.1518 16.6863 24.5111 18.0662 26.0158 19.5934C28.467 22.0814 31.3037 24.9609 37.5 24.9609C44.1667 24.9609 48.3333 21.6276 50 14.9609C47.5 18.2943 44.5833 19.5443 41.25 18.7109C39.3482 18.2355 37.9889 16.8557 36.4842 15.3285C34.033 12.8404 31.1963 9.96094 25 9.96094ZM12.5 24.9609C5.83333 24.9609 1.66667 28.2943 0 34.9609C2.5 31.6276 5.41667 30.3776 8.75 31.2109C10.6518 31.6863 12.0111 33.0662 13.5158 34.5934C15.967 37.0814 18.8037 39.9609 25 39.9609C31.6667 39.9609 35.8333 36.6276 37.5 29.9609C35 33.2943 32.0833 34.5443 28.75 33.7109C26.8482 33.2355 25.4889 31.8557 23.9842 30.3285C21.533 27.8404 18.6963 24.9609 12.5 24.9609Z" fill="black"/>
</g>
<defs>
<clipPath id="clip0_319_830">
<rect width="50" height="50" fill="white"/>
</clipPath>
</defs>
</svg>
