<svg width="136" height="75" viewBox="0 0 136 75" fill="none" xmlns="http://www.w3.org/2000/svg">
<path d="M4.22469 29.6029C4.45017 28.7257 4.30237 31.6541 4.6391 29.7095C4.66185 30.115 4.68532 30.523 4.70807 30.9285C4.58336 31.0313 4.45896 31.1367 4.33425 31.2395C4.29752 30.695 4.26081 30.1502 4.22408 29.6029C4.22429 29.6029 4.22449 29.6029 4.22469 29.6029ZM2.66288 28.8593C3.01858 29.3584 3.11341 30.9439 3.44165 29.2311C3.31958 29.095 3.19753 28.9555 3.07546 28.8194C3.17014 28.2247 3.26479 27.6263 3.35895 27.0316C3.31241 26.8178 3.26582 26.6042 3.2198 26.3903C3.43193 26.118 3.64463 25.8481 3.85728 25.5757C3.82623 25.8175 3.79464 26.0626 3.7636 26.3044C3.93586 27.2604 3.98297 28.111 4.01505 29.4088C4.06524 29.2949 4.11499 29.1807 4.16519 29.0667C4.07981 29.7254 3.99423 30.3837 3.90885 31.0396C3.82505 30.4699 3.73185 29.8331 3.65374 29.3052C3.32113 30.1499 3.50624 31.6399 3.57562 32.4155C3.67031 33.4716 3.51216 33.233 3.57836 34.0166C3.58871 34.1417 3.71268 34.1559 3.71477 34.4032C3.7246 35.6511 3.6589 38.0749 3.36963 36.6574C3.40689 34.6035 3.17461 32.8517 3.25947 30.8366C2.925 31.3697 2.81119 30.3081 2.66288 28.8593ZM4.08178 66.0476C3.75873 65.6427 3.60857 64.6245 3.73289 63.9287C3.73646 63.8999 3.74008 63.8714 3.74376 63.8434C3.74376 63.8424 3.74376 63.8414 3.74376 63.8405C3.7686 63.6514 3.98448 63.2234 3.97568 63.8405C3.97524 63.8703 3.9745 63.8997 3.9735 63.9287C3.94759 64.6604 3.7242 65.1 4.03449 65.4508C4.03742 65.6431 4.05642 65.8445 4.08178 66.0476ZM4.89769 67.6085C5.12781 68.0587 4.77198 68.0485 4.4751 67.4561C4.47492 67.4562 4.47475 67.4563 4.47458 67.4564C4.36566 67.2043 4.78413 67.5785 4.15724 66.8212C4.21611 66.5741 4.27676 66.3441 4.35767 66.1193C4.43784 66.325 4.52162 66.5079 4.62665 66.714C4.32176 66.6883 4.67757 67.1584 4.89769 67.6085ZM3.51428 37.7002C3.75062 37.7972 3.74912 37.3909 3.91313 36.6989C3.90536 37.352 3.89708 38.0052 3.88932 38.6555C3.76415 38.336 3.63945 38.0197 3.51428 37.7002ZM3.5509 22.3572C3.5509 22.3562 3.5509 22.3553 3.5509 22.3543C3.51364 22.1403 3.47625 21.9256 3.43952 21.7144C3.52386 21.5866 3.60784 21.4602 3.69219 21.3323C3.61302 20.5763 3.53385 19.8163 3.45416 19.0603C3.71181 19.1521 3.66989 20.5091 3.84996 21.2568C3.77233 22.3684 3.62278 22.9041 3.40442 22.9763C3.45304 22.7707 3.50228 22.5656 3.5509 22.3572ZM132.892 63.8205C132.821 63.5676 132.75 63.3179 132.678 63.0651C132.65 63.3532 132.628 63.6394 132.598 63.9287C132.594 63.9736 132.588 64.0184 132.582 64.0631C132.85 64.9002 132.591 64.9796 132.341 66.0154C131.866 67.5972 131.519 68.1457 131.215 68.6403C130.881 69.0977 130.476 69.5815 129.051 70.0952C130.045 69.4659 130.215 69.0978 130.309 68.8622C130.389 68.6111 130.385 68.4299 130.67 67.8284C131.014 67.7067 130.503 69.0773 131.164 68.381C131.941 67.0107 132.265 65.5217 132.14 63.9287C132.131 63.7984 132.122 63.6671 132.113 63.5346C132.079 63.593 132.045 63.651 132.012 63.7094C132.017 63.7826 132.022 63.8557 132.026 63.9287C132.043 64.1376 132.05 64.345 132.047 64.555C132.002 64.3402 131.947 64.1343 131.883 63.9287C131.857 63.8312 131.831 63.733 131.805 63.6338C132.009 64.0729 131.895 62.9538 132.13 63.1036C132.231 63.1682 132.371 63.6343 132.47 63.9287C132.473 63.9374 132.476 63.946 132.479 63.9544C132.48 63.9458 132.481 63.9373 132.482 63.9287C132.535 63.1845 132.584 62.4218 132.636 61.6699C132.72 62.0644 132.803 62.4586 132.886 62.8503C132.889 63.1726 132.891 63.4923 132.893 63.8145C132.893 63.8165 132.893 63.8185 132.892 63.8205ZM29.5788 3.33105C30.5349 3.08784 32.2724 3.0476 33.1868 3.31823C31.9833 3.32237 30.7823 3.32691 29.5788 3.33105ZM3.22438 23.0489C3.26572 22.9407 3.30662 22.8358 3.34797 22.7275C3.42453 23.2055 3.50058 23.6862 3.57714 24.1642C3.45766 24.2559 3.33816 24.3497 3.21919 24.4441C3.22074 23.9801 3.22283 23.5129 3.22438 23.0489ZM3.35743 53.6281C3.3502 53.2785 3.35412 53.2475 3.37116 52.812C3.37106 52.8125 3.37096 52.813 3.37085 52.8135C3.37722 52.6409 3.44701 51.1966 3.539 51.3576C3.54055 52.0747 3.539 52.8395 3.539 53.5733C3.47849 53.5955 3.41845 53.6004 3.35743 53.6281ZM3.41114 45.1872C3.41134 45.1862 3.41154 45.1852 3.41175 45.1843C3.42572 44.9232 3.45417 44.676 3.45935 44.4067C3.60413 45.3764 3.34438 45.5296 3.41785 46.4106C3.49184 47.2915 3.63516 47.8359 3.27931 48.5834C3.22601 48.3055 3.14976 48.0062 3.08767 47.7199C3.22995 46.4693 3.09605 46.1325 2.95584 45.1295C3.10795 45.1489 3.25903 45.1678 3.41114 45.1872ZM122.032 70.8932C121.793 71.0691 121.527 70.8965 121.499 70.8944C121.5 70.8942 121.5 70.894 121.501 70.8938C119.383 71.0567 121.776 70.7964 119.778 70.769C120.075 70.725 120.368 70.6786 120.662 70.6341C121.118 70.7189 121.588 70.8151 122.032 70.8932ZM53.2445 70.8767C53.2251 70.8255 53.2018 70.7741 53.1823 70.7229C54.383 70.7348 54.6892 70.5331 55.6869 70.7168C54.8727 70.7706 54.0587 70.824 53.2445 70.8773C53.2445 70.8771 53.2445 70.8769 53.2445 70.8767ZM2.98483 59.68C2.88703 58.3486 2.84393 57.3638 2.99917 56.0853C2.99937 56.0843 2.99958 56.0833 2.99978 56.0823C3.00933 56.0086 3.11651 56.3652 3.14351 56.269C3.12748 56.0052 3.10284 55.7328 3.0837 55.4662C3.16953 55.4301 3.25533 55.3957 3.34064 55.3596C3.31633 56.1099 3.29203 56.8607 3.26771 57.6138C3.3179 57.5026 3.36766 57.3888 3.41785 57.2776C3.44372 57.9168 3.46949 58.5535 3.49536 59.1927C3.35466 58.9704 3.21393 58.7487 3.07271 58.5292C3.04323 58.9126 3.01483 59.2966 2.98483 59.68ZM73.2337 71.4373C73.0225 71.3814 73.4136 71.2877 73.0856 71.2395C72.7576 71.192 72.153 71.2963 72.2947 71.1385C72.7363 71.1173 73.2001 71.093 73.6499 71.0708C72.2019 70.7863 70.7573 71.0437 70.7351 70.6924C72.1248 70.7835 73.2674 70.7411 74.6127 70.6439C74.5571 70.9227 73.2115 71.1639 74.0587 71.4257C73.7866 71.4293 73.5006 71.4346 73.2367 71.4367C73.2357 71.4369 73.2347 71.4371 73.2337 71.4373ZM2.84008 2.47481C3.56499 1.68747 5.63403 0.211988 7.01979 0.0157077C7.36017 -0.0692071 8.5275 0.207612 8.52241 0.289832C8.52229 0.5163 7.33405 0.797704 8.64947 0.685754C8.21725 0.759904 7.80199 0.868777 7.38842 1.00353C7.50968 1.12749 7.62636 1.25352 7.73749 1.38195C8.21521 1.21976 8.71045 1.0978 9.21167 1.01844C9.24215 1.06661 9.27216 1.11505 9.30184 1.16351C7.53152 1.43613 8.60331 1.4636 7.78003 1.8555C8.59239 1.70826 9.41752 1.68569 10.2081 1.77931C9.75169 1.76556 9.21284 1.80718 8.81315 1.8645C8.80721 2.12038 9.72501 1.94329 9.89038 2.00069C10.3437 2.13695 9.4186 2.12893 8.40545 2.42489C7.38135 2.69663 6.35612 3.35364 6.31853 3.61277C6.92337 3.28803 7.59932 3.03764 8.27445 2.89703C8.09663 2.99459 7.92179 3.09997 7.75655 3.21045C6.22086 3.48009 4.61886 4.55215 3.5371 6.1408C3.46078 6.29684 3.39049 6.45486 3.32589 6.61247C3.45451 6.61854 3.58095 6.62911 3.70833 6.63981C3.60856 6.86735 3.51968 7.10188 3.44458 7.33687C3.3842 6.51618 2.88853 7.41022 2.44305 8.67888C2.40718 7.95398 2.7903 7.14376 2.53206 7.1152C2.28385 7.99755 2.1142 8.95117 2.10784 9.92871C2.09513 11.602 2.03472 13.311 2.17554 14.8242C2.23038 15.4162 2.55992 15.4143 2.52953 16.806C2.4933 16.7587 2.42791 16.7507 2.3803 16.7201C2.53813 19.1271 2.63248 20.5874 2.47155 23.0889C2.58999 22.9444 2.70892 22.8023 2.82736 22.6579C2.76837 22.127 2.70845 21.5953 2.64946 21.0672C2.84504 20.7059 2.93136 21.2398 2.92929 19.6557C2.92774 18.3577 2.84138 19.1304 2.78342 18.7774C2.7043 18.2994 2.85995 17.8799 2.77152 17.3659C2.70373 16.9684 2.54236 17.3984 2.58324 16.3617C2.79229 16.7786 3.00816 17.2039 3.2198 17.6236C3.17271 17.8765 3.1249 18.1275 3.07729 18.3804C3.0214 18.1247 2.96625 17.8733 2.91037 17.6176C3.01075 18.5181 3.10542 19.3689 3.20942 20.3C2.90723 19.997 3.02053 20.9593 3.05623 21.4819C3.11206 22.2958 2.90408 21.5985 2.93875 22.1321C2.97395 22.6657 3.20631 23.2413 3.15663 24.2057C3.02211 23.6888 2.90149 24.3919 2.77732 24.256C2.65315 24.1199 2.62566 23.0997 2.49016 24.0798C2.59313 25.9642 3.06599 23.9194 3.14259 25.1921C3.23469 26.7206 2.46391 27.0844 2.29822 26.6288C2.16781 26.2702 2.19404 25.0365 2.06416 24.6752C1.82976 26.8848 2.29249 26.9039 2.38305 27.282C2.71264 28.6549 1.83293 27.7327 2.15113 29.3585C1.98662 29.3279 1.83866 29.3032 1.68088 29.2726C1.71088 29.5531 1.75077 29.7394 1.77456 30.0783C2.09509 29.0788 2.08136 29.8969 2.08186 30.3168C2.08289 30.9783 2.23924 29.9565 2.2796 30.1316C2.38761 30.6042 2.33857 31.3514 2.47979 30.8929C2.41407 31.0986 2.34816 31.3215 2.28296 31.5328C2.36484 32.3056 3.05147 34.1219 2.91281 32.3933C3.16792 32.5545 3.0453 33.1137 3.00649 33.5501C2.96772 33.9863 3.13019 33.9782 3.10018 34.3617C2.98012 35.8874 2.70221 34.8894 2.48436 34.6476C2.63442 36.6625 2.7337 34.6898 2.83408 37.5935C3.01156 37.8742 3.20096 36.5326 3.30341 37.6498C2.99507 37.8556 2.77357 38.6782 2.67112 40.2817C2.74201 40.4374 2.81354 40.5926 2.88443 40.7483C2.59983 41.6238 2.30388 41.1763 2.65678 42.7967C2.00738 41.9268 2.42283 42.5249 2.15845 43.9757C2.10515 44.2703 1.97042 43.5895 1.90212 44.0008C1.87131 44.1873 1.97301 44.64 1.89449 45.0954C1.85568 45.3177 1.60528 46.3573 1.72421 47.0771C2.03883 46.549 2.30647 47.9168 2.56676 46.7439C2.50259 48.9118 2.65365 50.4291 2.22467 47.9999C2.12946 48.5502 2.03465 49.101 1.93996 49.6513C2.01499 50.0349 2.08943 50.4217 2.16394 50.8081C1.90537 50.8664 1.83283 50.8078 1.87831 52.3188C1.81728 51.6632 1.75524 51.0103 1.69369 50.3519C1.64148 50.3297 1.58721 50.238 1.53653 50.2601C1.63585 51.0665 1.67859 53.3371 1.7474 53.8873C1.81622 54.4376 1.83506 53.3749 1.90181 53.5333C2.45226 54.8533 2.04628 54.7486 2.14075 55.6958C2.19664 56.2517 2.25732 54.9244 2.28113 55.2218C2.36837 56.3245 2.07582 56.836 2.07209 57.8138C2.23815 57.4664 2.40678 57.1219 2.57439 56.7829C2.56559 57.8085 2.56411 58.9518 2.61741 59.9051C2.63822 60.2794 2.76172 59.9966 2.76999 60.0577C2.81243 60.3609 2.87964 61.5948 2.88016 61.7254C2.88114 62.7088 2.71009 62.7368 2.70072 63.6923C2.68624 63.3173 2.67319 62.9645 2.65922 62.5978C2.3819 62.431 2.10458 62.261 1.82674 62.0942C1.81357 62.7054 1.80058 63.3167 1.78754 63.9287C1.78062 64.2727 1.79417 64.6151 1.82883 64.9583C1.8309 64.6114 1.85443 64.2687 1.89824 63.9287C1.94679 63.5673 1.99534 63.2059 2.04402 62.8451C2.11945 63.2063 2.19494 63.5675 2.27047 63.9287C2.41916 64.6363 2.66129 65.3012 2.98055 65.9051C2.98535 66.4457 3.05056 66.998 3.18161 67.5515C3.96584 68.8475 4.28047 68.1973 4.33218 69.0558C4.65019 69.3571 4.99108 69.6292 5.34906 69.8695C5.25739 69.8847 5.16522 69.8987 5.07194 69.9106C5.50298 70.2245 5.96207 70.4921 6.43989 70.7085C6.07987 70.2246 5.81162 69.7117 5.59922 69.2074C6.34398 69.7584 6.27076 69.9027 6.35774 70.0328C6.60503 70.3651 7.37041 70.5306 7.60591 70.7471C7.68696 70.8382 6.74806 70.5742 6.98434 70.8544C6.99783 70.9159 8.10106 71.9996 9.05976 71.9667C9.05756 71.8593 9.0094 71.7208 8.99259 71.6012C9.52124 71.6539 9.92237 71.766 10.2081 71.8989C10.5436 72.0553 10.6829 72.2562 10.5972 72.3402C11.2337 72.2316 12.1639 72.2225 12.2945 72.0528C12.6197 72.0486 12.9424 72.0447 13.2676 72.0406C12.9288 72.4539 14.2851 72.3784 14.374 72.0229C13.8154 72.0141 13.256 72.0048 12.6974 71.996C13.1199 71.5603 11.4222 71.2973 14.9546 71.7009C15.63 71.9276 13.7541 71.6701 14.3044 71.8398C15.2604 71.9386 16.1579 71.8559 17.0667 72.0137C18.1975 72.2109 16.8062 72.4005 19.4409 72.1495C13.6293 71.5208 20.238 71.7248 22.9675 71.5297C23.7179 72.1507 26.0229 72.3474 29.1971 72.1626C28.8663 71.9898 27.8677 72.0789 27.2924 72.022C26.7171 71.965 27.3395 71.8625 26.6229 71.7818C25.906 71.7011 24.3834 71.5914 23.6577 71.4693C24.2723 71.3715 27.3062 71.1403 25.3002 71.4181C26.7978 71.5893 27.501 71.7653 29.357 71.7974C29.9129 71.5278 29.8718 71.3599 31.6809 71.3521C30.6109 71.7268 32.6667 71.9871 32.2141 72.3741C30.9311 72.284 31.6482 71.9078 30.9063 71.7278C30.8302 71.7098 29.6348 71.8041 29.357 71.7974C30.5633 72.1353 30.9804 72.261 30.2383 72.6631C31.0916 72.6279 31.6223 72.6784 31.7002 72.4864C31.878 72.5697 32.0569 72.6531 32.2319 72.7363C32.5096 72.7343 32.7596 72.7266 33.0539 72.7281C32.6485 72.4385 33.4343 72.6168 33.9929 72.4855C34.5516 72.3541 33.8021 72.1255 35.3363 72.1224C34.8249 72.0546 34.3573 71.9964 33.8626 71.9323C34.852 71.8577 35.8444 71.7828 36.8337 71.7083C36.1389 71.5313 34.6331 71.2685 34.6743 71.0357C35.13 71.1236 36.691 70.9691 36.8619 70.9628C37.5234 70.9389 37.1629 71.0858 37.2129 71.0894C38.2521 71.1607 39.1081 71.1108 39.5027 71.3332C40.2836 71.2328 40.8726 71.2901 41.7007 71.2844C42.1565 71.2813 42.0679 71.1179 42.3346 71.1489C44.1078 71.3559 42.4185 71.567 45.8389 71.1651C45.4249 71.0512 45.0163 70.9348 44.6022 70.8199C44.9885 70.777 45.3726 70.7338 45.759 70.6909C46.0174 70.7116 46.2736 70.7324 46.5321 70.7531C46.5266 70.9999 46.5199 71.2472 46.5143 71.494C46.7978 71.5075 47.0825 71.5206 47.366 71.534C46.8796 71.5583 46.392 71.5826 45.9056 71.6069C45.8612 71.6504 45.8197 71.6938 45.7753 71.7373C46.4979 71.8045 47.218 71.8724 47.9406 71.9402C47.9545 71.8543 47.9682 71.7679 47.9821 71.682C49.6108 71.8016 49.6496 71.8742 51.1976 71.6378C52.39 71.6404 53.361 71.2814 54.0503 71.1303C54.2976 71.1784 54.5452 71.2271 54.7953 71.2752C54.9537 71.2038 55.1138 71.1327 55.2722 71.0613C55.5863 71.1607 55.9046 71.26 56.2186 71.3588C56.3937 71.1334 56.4843 71.063 55.2589 70.9838C55.6786 70.7034 57.836 70.8271 58.7143 70.9212C59.3806 70.9927 58.6413 71.2266 58.7247 71.2551C59.0029 71.3518 60.1011 71.2684 60.3317 71.2844C61.3072 71.3511 61.9908 71.3395 62.8718 71.3912C63.0433 71.4016 63.5228 71.5498 63.5635 71.5545C63.8804 71.5798 64.6624 71.6519 64.7514 71.6539C69.3391 71.7646 64.437 71.1214 68.703 71.1892C68.5752 71.1044 68.4577 71.0201 68.3327 70.9353C68.655 70.9301 68.9806 70.9252 69.3028 70.92C69.7114 70.9909 69.2171 71.1198 70.0286 71.0159C69.9758 71.1204 69.9227 71.2249 69.8672 71.3289C70.2202 71.2725 70.5604 71.2166 70.9217 71.1602C71.4887 71.5229 73.5586 71.6053 73.4115 72.0311C73.3615 72.176 71.894 72.3247 72.6694 72.4794C73.2995 72.5099 72.873 72.3368 73.1301 72.3277C74.9867 72.2646 74.8788 72.5072 75.6376 72.4425C75.757 72.3385 75.8827 72.2325 76.0049 72.1275C76.2911 72.1581 76.578 72.1886 76.8669 72.2191C76.9336 72.1492 77.0032 72.0793 77.0699 72.0095C76.8003 72.0048 76.4967 72.0001 76.2493 71.9954C76.5942 71.7248 79.7619 71.6033 78.5539 71.834C78.062 71.9276 77.1611 71.8878 77.7304 72.2075C78.5781 72.1615 79.5399 72.1144 80.432 72.0684C80.4598 72.1372 80.4857 72.2061 80.5135 72.2749C81.7158 72.2304 80.6223 71.9552 80.6245 71.8077C80.8996 71.8036 81.1775 71.8 81.4525 71.7958C81.5691 71.8625 81.6799 71.9323 81.802 71.9969C81.8132 71.8908 81.9672 71.6442 82.787 71.7357C83.314 71.7953 82.484 72.0631 83.489 72.0259C83.4139 71.8604 83.0509 71.6587 84.1703 71.6054C84.2815 71.7782 84.4352 71.9365 84.5214 72.1181C85.9136 71.9521 86.5471 72.2189 88.1812 72.0259C89.2179 71.9038 90.638 71.4703 91.3079 72.1382C92.0662 72.1558 91.8255 71.9895 92.0499 71.9521C93.1089 71.7751 93.8965 72.0918 94.0938 72.1105C95.3524 72.2299 95.9166 72.1202 96.942 72.2698C96.8865 72.1461 96.8562 72.029 96.8117 71.9084C95.8723 72.0937 95.3965 72.085 94.079 72.0452C94.5208 72.0203 94.9628 71.9949 95.4046 71.9701C95.3324 71.8697 95.2608 71.7693 95.1914 71.6695C91.1167 72.0648 92.0672 71.4402 95.4831 71.3036C95.7777 71.4893 96.083 71.6746 96.3748 71.8608C98.3481 71.5794 99.2767 71.8237 101.508 71.8822C101.774 71.8889 102.74 71.7819 103.155 71.7766C103.148 71.7759 103.142 71.7752 103.135 71.7745C103.393 71.5991 103.043 71.5184 103.001 71.3616C103.226 71.3419 103.452 71.3224 103.677 71.3027C104.179 71.4222 104.003 71.5204 104.992 71.4919C104.859 71.3729 104.727 71.2539 104.594 71.1349C105.677 71.1307 106.387 71.26 107.396 71.2041C107.226 71.2492 107.059 71.2943 106.889 71.3393C109.085 71.4542 107.338 72.1539 108.997 71.8056C109.102 71.8666 109.205 71.9283 109.311 71.9893C108.627 72.0043 107.943 72.0189 107.262 72.0339C107.249 72.1202 107.234 72.2063 107.222 72.2926C107.953 72.2668 108.688 72.2401 109.419 72.2142C108.885 72.2722 108.349 72.3302 107.815 72.3882C108.663 72.4296 109.51 72.471 110.358 72.5124C109.458 72.1947 110.625 72.1559 110.405 71.8413C111.906 72.1031 113.085 72.4483 115.412 72.2273C115.873 72.1833 115.622 71.9635 116.931 72.231C116.614 71.8812 118.254 71.7171 118.044 71.3845C117.588 71.4005 117.115 71.4106 116.674 71.4303C117.177 71.5456 117.26 71.8631 116.496 71.9573C115.52 72.0773 114.097 71.8573 114.156 72.2096C113.767 72.1931 113.405 72.1833 113.027 72.1694C113.183 72.082 113.335 71.994 113.488 71.9066C112.412 72.0436 111.737 71.9991 111.22 71.7788C112.501 71.7281 113.779 71.6779 115.061 71.6277C114.872 71.6127 114.681 71.5976 114.492 71.5831C115.462 71.358 114.461 71.1448 116.271 71.0967C116.26 71.1997 116.251 71.3027 116.24 71.4062C116.898 71.1309 118.702 71.1324 118.127 70.8157C118.671 70.9129 118.782 70.9745 119.091 70.8038C120.528 71.0444 121.451 71.3487 120.939 71.7119C121.473 71.6535 122.007 71.5949 122.537 71.5365C122.229 71.4371 121.92 71.3383 121.612 71.2389C122.54 71.2451 123.475 71.2512 124.401 71.2569C124.489 71.5508 122.614 71.3461 123.155 71.6088C123.263 71.6615 123.763 71.5486 123.894 71.5783C125.278 71.8996 123.105 71.6674 123.513 71.9136C124.963 71.9671 124.578 72.1868 125.208 72.1922C125.482 72.1899 125.956 72.1639 126.781 71.9034C126.872 71.9721 126.972 72.0394 127.061 72.1056C128.064 71.8521 127.925 71.6827 128.7 71.3058C129.169 71.0629 129.953 70.9808 130.296 70.417C130.325 70.3044 129.403 70.6584 130.885 69.2915C131.915 68.1097 131.72 68.7751 132.295 68.0901C132.917 67.3636 133.091 65.3202 133.54 64.7657C133.436 65.2346 133.291 65.8218 133.09 66.3057C133.115 66.5341 133.13 66.7605 133.135 66.9939C133.453 65.9046 133.714 64.7461 133.554 63.9287C133.542 63.8673 133.528 63.808 133.513 63.7509C133.837 62.2083 133.536 60.4831 133.17 60.9501C133.223 61.4578 133.382 60.9054 133.281 61.6106C133.195 61.6829 133.11 61.7591 133.025 61.8313C133.035 60.6306 133.033 59.7967 133.293 60.3443C133.299 60.1581 133.305 59.9736 133.312 59.7874C133.123 59.754 132.934 59.7245 132.746 59.6911C132.725 59.4688 132.704 59.2454 132.682 59.0231C132.724 58.7759 132.766 58.5281 132.808 58.2781C133.106 58.6144 133.115 59.1873 133.282 57.2917C133.179 57.2861 133.077 57.278 132.974 57.2724C133.104 55.6855 133.354 55.6436 133.345 53.6511C133.702 55.1797 133.068 56.0161 133.786 56.0105C133.739 56.3941 133.691 56.7807 133.644 57.1643C133.748 57.2227 133.852 57.2805 133.956 57.3361C133.901 55.2767 133.217 51.8559 133.671 50.4771C133.615 50.3103 133.567 50.143 133.508 49.9735C133.781 48.6227 133.167 48.0393 133.521 46.6691C133.558 46.5277 134.135 46.8236 134.115 45.0399C134.04 45.0843 133.913 45.1074 133.819 45.1435C133.865 44.7573 133.913 44.3732 133.96 43.9897C133.891 43.9203 133.821 43.8474 133.751 43.7779C133.725 44.4367 133.697 45.0935 133.67 45.7523C133.646 45.2049 133.623 44.6541 133.599 44.1068C133.486 44.8209 133.484 45.143 133.303 44.7125C133.292 44.0927 133.28 43.4721 133.27 42.8522C133.223 42.7884 133.176 42.725 133.13 42.6612C132.991 42.9613 132.855 43.2645 132.714 43.5647C132.828 41.9499 132.834 40.546 133.107 39.3064C133.153 39.0952 133.333 39.8422 133.17 38.403C133.266 38.3807 133.344 38.3421 133.432 38.3171C133.164 36.5549 133.244 35.976 133.438 34.1388C133.257 35.3284 133.375 34.267 133.278 33.964C133.211 33.7565 133.221 34.5667 133.151 34.475C133.082 34.3833 132.802 33.3305 132.768 34.2306C133.342 36.4375 132.656 37.0387 132.932 39.8737C132.858 39.4373 132.784 38.9978 132.71 38.5614C132.659 38.7669 132.614 38.9509 132.561 39.1731C132.673 37.592 132.6 38.361 132.512 37.7113C132.423 37.0609 132.348 35.8789 132.324 35.0867C132.316 34.8372 132.445 35.1004 132.457 34.5372C132.465 34.1537 132.274 33.1056 132.499 32.8636C132.645 32.7052 133.049 34.389 133.048 32.0608C133.191 31.6226 133.147 32.7388 133.164 32.7628C133.335 32.9658 133.463 31.5344 133.333 30.8729C133.322 30.8194 133.188 31.3417 133.136 30.7737C133.012 29.4257 133.164 28.6472 133.371 27.7744C133.128 27.6799 132.839 26.5455 132.929 25.1336C132.859 25.0614 132.79 24.9925 132.72 24.9203C132.756 25.1395 132.793 25.3587 132.829 25.5779C132.786 25.817 132.754 26.0702 132.703 26.3037C132.643 24.8838 132.31 24.6829 132.187 24.002C131.77 21.6719 132.653 23.0841 132.805 23.5044C132.743 23.8073 132.675 24.1003 132.61 24.4004C132.694 24.3671 132.779 24.3333 132.864 24.3027C132.861 20.8146 133.412 23.7715 133.568 22.001C133.153 21.5452 133.113 20.2449 133.377 18.5885C133.375 18.4051 133.374 18.221 133.372 18.0376C133.311 18.007 133.219 18.0075 133.179 17.9576C133.108 15.9619 133.747 15.6065 133.808 15.4174C134.076 14.5782 133.705 13.9246 133.702 13.6771C133.689 12.6349 133.854 12.332 133.783 11.3399C133.706 10.2729 133.58 11.0025 133.466 10.6779C133.418 10.5391 133.392 10.235 133.363 9.92871C133.338 9.65392 133.295 9.38236 133.237 9.22312C133.325 9.35466 133.409 9.50822 133.49 9.64731C133.543 8.50349 133.446 7.51032 132.908 6.28328C131.798 5.21317 131.618 3.77182 131.385 4.63124C132.123 5.59278 132.335 6.26473 132.405 6.90711C132.087 6.21432 131.668 5.57188 131.168 5.00628C131.091 4.78343 131.047 4.60991 130.922 4.35741C130.41 4.0452 129.393 3.19799 128.889 3.02007C127.759 2.57974 127.308 2.65932 126.938 2.60256C126.557 2.57131 126.263 2.41847 125.208 2.1564C125.184 2.15113 125.161 2.14577 125.136 2.14031C125.161 2.13957 125.184 2.13879 125.208 2.13797C126.722 2.15849 126.829 1.92285 128.33 2.50478C128.079 2.19428 127.241 1.97973 127.836 1.94377C126.234 1.54984 126.704 1.91565 126.076 1.98093C125.838 2.01885 125.503 2.03488 125.208 2.07387C124.831 2.12178 124.516 2.17078 124.55 2.2758C124.441 2.17222 124.357 2.07195 124.249 1.96851C123.232 1.96954 122.215 1.96961 121.198 1.97064C121.631 1.86251 122.065 1.75418 122.498 1.64656C122.171 1.60572 121.843 1.56503 121.515 1.52419C119.013 1.86054 114.7 1.2441 115.389 2.08904C114.183 2.11595 114.032 2.00998 113.376 1.8501C113.304 1.91425 113.234 1.9676 113.161 2.039C112.383 1.97185 111.786 2.21268 111.1 2.15008C110.413 2.08796 110.243 1.86048 110.143 2.24285C109.698 2.13316 109.256 2.04205 108.814 1.94013C108.548 2.02699 108.281 2.11286 108.017 2.19921C107.601 2.15368 107.183 2.10833 106.766 2.0628C106.543 2.24532 104.904 2.16665 104.181 2.28923C103.495 2.09248 103.514 1.47299 101.9 1.584C101.942 1.73765 101.983 1.89085 102.025 2.04449C101.655 2.01241 101.285 1.98044 100.913 1.94837C100.89 1.89822 100.871 1.84807 100.849 1.79792C101.038 1.81344 101.224 1.82888 101.413 1.84492C101.249 1.76005 101.089 1.67558 100.927 1.59072C100.363 1.71644 99.7983 1.84217 99.2315 1.9679C99.9956 2.06309 100.76 2.15834 101.524 2.25353C100.565 2.36633 99.8979 2.25381 99.0641 2.37956C98.3388 2.16743 98.6066 2.0452 98.9012 1.81501C98.6317 1.83467 98.359 1.85364 98.0895 1.8733C98.2673 1.64307 97.8114 1.50589 99.387 1.5245C99.2786 1.45883 99.1682 1.39622 99.0626 1.32797C98.8042 1.33832 98.6366 1.28282 98.3531 1.30814C97.5805 1.37748 96.9881 1.78186 97.0409 1.92365C97.0694 1.99792 97.8313 1.85588 97.8007 1.96088C97.7253 2.21692 95.9776 2.10196 98.4983 2.35911C97.6617 2.52211 97.4748 2.39918 96.5521 2.35209C96.6243 2.43741 96.6945 2.52219 96.7639 2.60751C96.3361 2.5682 95.9076 2.52903 95.4798 2.48972C96.0745 2.05145 92.9199 1.88684 95.7597 1.50344C94.9205 1.48378 94.0841 1.46402 93.2477 1.44332C93.42 1.39832 93.5923 1.35376 93.7646 1.30875C94.1426 1.33255 94.5182 1.35596 94.8962 1.37924C94.4516 1.29699 94.0063 1.21523 93.5617 1.13298C92.5111 1.23492 92.0993 1.3917 91.6185 1.58522C92.8411 1.72645 92.4417 1.53354 93.3943 1.4952C93.3611 1.61776 93.4051 1.73049 93.3218 1.85926C92.8295 1.6054 91.2236 1.79008 90.8513 1.8025C89.7179 1.84021 90.6067 1.59077 89.8485 1.58553C89.0898 1.58035 88.1948 1.72882 87.575 1.48147C87.5861 1.62011 87.6357 1.76354 87.6802 1.88977C86.4989 1.93531 86.7346 1.77153 86.6123 1.75032C84.6612 1.40156 83.6025 1.696 81.3706 1.7317C81.6541 1.77464 81.9405 1.81341 82.2267 1.85377C80.543 2.14812 81.6772 2.05799 83.1391 2.15526C81.7688 2.12577 80.9841 2.37645 80.0169 2.45096C79.0498 2.52535 77.3912 2.3966 76.7851 2.29625C78.172 2.1348 79.6679 2.24127 81.2077 2.19677C81.0326 2.05554 80.8625 1.93601 80.6819 1.78083C79.7453 2.07725 79.2027 1.87905 78.8942 1.83973C77.9883 1.72439 78.0168 1.9788 77.4693 1.70515C77.4916 1.79929 77.5079 1.87844 77.5301 1.96637C75.6596 1.92704 73.6421 1.76062 72.4247 2.10827C72.3135 1.88216 72.2296 1.66432 72.1018 1.43356C71.3097 1.60376 70.6315 1.42947 69.9645 1.46926C69.3003 1.50911 69.5531 1.69184 68.7722 1.76222C68.6277 1.77515 68.3267 1.66078 67.9709 1.74513C67.6117 1.82992 66.2868 2.46038 66.1284 1.90961C65.4586 1.90702 64.8248 1.88688 64.1689 1.87757C64.8081 1.84652 65.4475 1.81645 66.084 1.78541C65.5393 1.65192 64.9979 1.51883 64.4533 1.38534C64.3838 1.50436 64.3141 1.62553 64.2474 1.74299C62.7799 1.88788 61.7149 1.69329 60.2335 1.73933C59.9862 1.74709 60.5697 1.9824 59.4723 1.92243C58.3745 1.8624 57.5598 1.42322 55.6895 1.59285C55.595 1.60165 55.0411 1.93801 54.3713 1.70515C54.2188 1.65238 54.8604 1.57428 54.5105 1.50497C54.1603 1.43563 52.5977 1.37861 52.4754 1.21354C52.4921 1.272 52.5896 1.33257 52.6369 1.39206C52.3701 1.41999 52.1007 1.44795 51.8312 1.47537C51.8061 1.37241 51.7791 1.26929 51.7541 1.16685C50.22 1.40642 49.4271 1.79723 47.1538 1.66792C47.793 1.81746 48.4324 1.96759 49.0689 2.11712C49.244 2.01207 49.4194 1.90632 49.5917 1.80128C50.6394 1.84319 51.6899 1.88479 52.7376 1.9267C52.9099 1.80717 53.0792 1.68797 53.2515 1.56844C53.5294 1.58396 53.8046 1.599 54.0825 1.61452C54.013 1.70093 53.9429 1.78689 53.8707 1.8733C54.4208 1.85209 54.9717 1.83042 55.5191 1.80921C54.4047 2.31927 52.4069 1.76583 52.551 2.19249C52.3037 2.12629 52.0562 2.05963 51.8089 1.99292C51.7005 2.1998 51.1977 2.14026 50.3115 2.10766C50.5144 2.2096 50.7385 2.31015 50.9247 2.41312C50.0631 2.26929 48.5347 2.28326 47.6425 2.22789C47.2507 2.20358 47.6421 2.05358 47.5255 2.03595C46.928 1.94384 45.7858 2.20556 45.5468 2.18486C44.1182 2.06169 43.1899 1.56549 41.6307 1.89252C43.24 1.97325 42.3645 1.93915 42.937 2.12078C43.1163 2.17773 45.1953 2.29652 42.5919 2.24376C42.2867 2.23716 37.5629 1.89432 39.1157 1.63161C38.3514 1.71544 37.7529 1.81237 37.0525 1.90137C35.3404 1.20901 35.9329 1.85943 36.4305 2.21752C36.1497 2.21907 35.8827 2.2227 35.5936 2.2227C36.2079 1.84651 33.0785 1.82315 32.0167 2.01306C31.661 2.07619 32.6557 2.1966 31.8331 2.25353C31.4413 2.22714 30.9969 2.19299 30.583 2.1635C31.1833 2.40152 30.0052 2.49324 30.0217 2.73537C29.2685 2.51961 28.6924 2.06228 29.1063 1.8144C28.4839 1.91477 27.8581 2.01501 27.2357 2.1159C27.5247 2.17333 27.8175 2.23027 28.1066 2.2877C26.072 2.13557 23.456 2.48175 23.0308 1.97308C22.7612 1.97671 22.4887 1.97984 22.2191 1.98346C22.1357 2.06936 22.0551 2.15542 21.9718 2.24132C20.7519 2.16682 19.5348 2.09183 18.3149 2.01733C19.4011 1.96402 19.6596 1.84176 20.7987 1.94104C20.3598 1.84225 19.9126 1.74291 19.482 1.64412C17.7671 1.91009 17.5332 2.0849 14.9513 2.00574C14.8345 2.00211 12.8837 1.77907 12.817 1.75733C12.5114 1.65799 12.9753 1.51367 12.8392 1.46347C12.4612 1.32272 10.1642 0.969306 10.2087 0.916007C10.7702 0.261935 18.4983 0.253265 20.5884 0.21963C42.2677 -0.12912 63.4696 0.337464 85.0127 0.257775C85.2342 0.256542 85.1375 0.159987 85.2319 0.155852C85.8182 0.131602 86.3941 0.282083 86.6108 0.288291C87.074 0.301086 86.8189 0.162054 87.1574 0.161955C90.6539 0.163507 93.9533 0.245263 97.4526 0.221461C97.6805 0.219909 97.4478 0.331147 97.8481 0.311484C98.0547 0.300717 98.7014 0.130056 99.1678 0.127472C100.796 0.118679 102.165 0.173392 103.882 0.170805C104.822 0.16926 106.231 0.183767 107.281 0.18118C107.745 0.18008 108.229 0.102006 108.687 0.0993969C109.337 0.0957748 109.204 0.254047 109.305 0.263879C109.744 0.306818 109.804 0.133103 110.221 0.137237C110.997 0.145516 111.039 0.261499 112.022 0.251672C112.726 0.244428 114.335 0.152854 115.222 0.125946C117.295 0.260473 119.908 0.207066 121.842 0.162565C122.987 0.136185 123.093 0.298574 123.56 0.298057C124.15 0.296929 124.688 0.269573 125.208 0.234621C126.33 0.175645 127.421 0.2614 128.575 0.672081C130.96 1.55154 132.642 3.24484 133.776 5.35639C133.954 5.70352 134.048 5.55728 134.215 5.9101C134.77 7.07393 135.123 8.68416 135.094 9.92871C135.093 10.0507 135.091 10.1685 135.089 10.2809C135.065 11.4425 134.849 11.871 134.893 13.0077C134.906 13.3409 135.096 13.4386 135.12 13.9971C135.158 14.8891 134.991 15.8673 134.973 16.4898C134.948 17.3431 135.141 16.601 135.115 17.7517C135.114 17.799 134.976 17.9711 134.982 18.2182C135.001 18.9381 135.11 18.8667 135.099 19.9201C135.098 20.0211 134.967 21.4178 134.966 21.5567C134.964 22.3738 134.918 24.0189 134.946 24.5026C135.045 26.2314 135.253 24.8704 134.802 26.3407C134.913 26.9881 135.024 27.6302 135.131 28.3165C135.032 27.8585 134.887 29.7174 134.897 29.848C134.972 30.9286 135.147 30.2849 135.118 31.655C134.713 29.8456 135.066 33.4226 135.076 34.2203C135.126 38.0612 135.025 41.5527 135.028 45.4131C135.029 46.7055 135.115 48.4374 135.112 49.8046C135.112 50.1233 135.017 49.8825 135.014 50.1631C135.013 50.4429 135.121 50.1324 135.115 50.4519C135.078 52.439 134.875 53.996 135.128 55.8165C135.092 55.9051 135.063 55.9023 135.022 56.049C135.25 57.5388 134.944 60.4078 134.902 61.4862C134.856 62.6929 134.921 63.2568 134.95 63.9287C134.962 64.2543 134.954 64.601 134.899 65.0223C134.74 67.0601 132.886 69.4531 133.979 68.5345C133.351 69.7586 132.487 70.8127 131.378 71.6446C131.254 71.7364 131.259 71.5716 131.21 71.6074C130.894 71.8283 130.855 71.9901 130.639 72.1417C130.045 72.5362 130.956 71.8079 130.115 72.369C129.658 72.634 129.459 72.9378 128.029 73.402C127.122 73.6735 126.167 73.8133 125.208 73.8131C118.562 73.8148 111.505 73.7851 104.802 73.7702C104.288 73.7692 104.627 73.8909 103.982 73.8831C101.742 73.8562 97.7318 73.6514 95.8001 73.6793C93.8685 73.7072 94.3043 73.8852 93.0956 73.9597C92.8621 73.9742 93.0535 73.8728 92.8423 73.8712C91.422 73.8619 89.7288 73.7037 88.5782 73.6799C87.8172 73.664 87.8782 73.8235 87.3503 73.8349C86.5637 73.8515 85.7542 73.6903 85.3345 73.6851C83.3615 73.6624 82.005 73.7922 80.1624 73.726C80.2345 73.7611 80.2821 73.7936 80.3431 73.8282C78.1615 73.8225 75.9826 73.8168 73.801 73.8111C73.9039 73.8432 74.0033 73.8756 74.1061 73.9082C71.5464 73.8906 71.8385 73.5428 72.0637 74.2771C71.8775 74.303 71.6801 74.333 71.5023 74.3568C71.5746 73.9785 70.0262 73.7017 68.0558 73.6054C67.9112 73.5982 66.9415 73.967 67.0471 73.5313C66.7942 73.6379 66.6435 73.7114 66.4295 73.805C66.0127 73.6731 65.5903 73.5428 65.1735 73.4114C64.9484 73.431 64.7202 73.45 64.4951 73.4697C64.4618 73.555 64.4874 73.6437 64.4152 73.7275C63.3702 73.7404 61.227 73.6349 60.4013 73.6457C58.3501 73.6731 56.2618 73.904 54.6664 73.6546C53.8893 73.68 54.661 73.8476 53.5052 73.8264C53.3746 73.7415 53.2518 73.6602 53.1157 73.5728C52.1711 73.9519 51.9737 73.7213 50.6792 73.6421C49.8038 73.5883 49.2305 73.6809 48.3968 73.6628C48.1856 73.6582 48.2155 73.5469 48.071 73.5505C47.5869 73.562 46.2059 73.7151 45.8641 73.7193C42.7681 73.7596 40.1083 73.7424 37.1596 73.7016C36.8427 73.6974 37.2535 73.8072 36.9256 73.8026C36.3979 73.7953 36.7084 73.6265 36.4027 73.6183C35.5501 73.5961 35.5436 73.774 34.3543 73.7834C30.4383 73.8139 25.9359 73.6802 21.8448 73.6683C21.7169 73.6683 21.7246 73.7726 21.5856 73.7736C20.6797 73.7787 19.7628 73.6378 18.9403 73.6393C17.5756 73.6414 16.55 73.7878 15.202 73.7873C13.4765 73.787 11.8715 73.7547 10.2081 73.7313C9.13657 73.7188 8.04437 73.5373 6.96345 73.156C4.42912 72.2216 2.4645 70.5534 1.23189 67.8386C0.695613 66.6117 0.414775 65.2677 0.410319 63.9287C0.358681 54.3622 0.108622 44.6511 0.266456 35.0564C0.271109 34.7842 0.363213 34.895 0.359225 34.812C0.319382 34.0227 0.195108 33.9522 0.45535 33.6715C0.404061 32.666 0.208545 32.3487 0.222513 31.1343C0.229836 30.4871 0.532871 30.9703 0.376619 29.8754C0.235365 28.8867 0.069289 29.9778 0.238991 27.0376C0.243656 26.9597 0.428368 26.5766 0.380281 25.9652C0.332674 25.351 0.20041 26.062 0.160565 24.5833C0.0674322 21.112 0.227098 16.7181 0.177959 12.6825C0.175404 12.4744 0.108046 10.7872 0.0589018 9.92871C0.0483453 9.69434 0.046612 9.50949 0.0440245 9.40177C0.0627756 8.21803 -0.149793 8.42849 0.219957 6.89384C0.564542 5.71682 1.13644 4.86154 1.94931 3.70912C2.05154 3.58227 2.06472 3.23252 2.84008 2.47481ZM132.582 59.7903C132.425 59.5624 131.848 59.1511 132.024 57.7731C132.04 57.6424 132.437 58.3476 132.501 57.5864C132.542 58.3313 132.556 59.0566 132.583 59.7903C132.583 59.7903 132.583 59.7903 132.582 59.7903ZM9.9829 3.13451C9.10406 3.13333 8.22133 3.3044 7.40012 3.64068C7.93045 3.32677 8.51087 3.08156 9.12212 2.91671C9.41878 2.97117 9.70564 3.04465 9.9829 3.13451ZM59.7008 71.0009C59.6998 71.0009 59.6988 71.0009 59.6978 71.0009C60.7818 70.9264 61.8664 70.8517 62.9503 70.7772C62.8364 70.8321 62.7221 70.8872 62.6082 70.942C61.7523 71.0284 60.896 71.1147 60.0429 71.2011C59.929 71.1343 59.8147 71.0676 59.7008 71.0009ZM51.1369 71.5816C50.4448 71.5164 50.6142 71.4065 50.2334 71.2993C50.2334 71.2996 50.2334 71.2998 50.2334 71.3C50.1329 71.2721 49.6648 71.2477 49.484 71.2435C49.5507 71.3123 49.6368 71.3803 49.7091 71.4486C48.0943 71.6152 44.9363 71.0231 49.0248 70.7845C48.9637 70.8715 48.9053 70.9579 48.8441 71.0448C50.8759 71.0205 53.1409 71.209 51.1369 71.5816ZM132.332 43.4536C132.048 41.7192 131.988 41.1631 132.183 39.0591C132.263 39.3563 132.344 39.6535 132.425 39.9507C132.342 40.2982 132.261 40.643 132.178 40.9905C132.178 40.9915 132.178 40.9925 132.178 40.9934C132.265 41.0629 132.351 41.1326 132.438 41.1993C132.403 41.9497 132.367 42.7032 132.332 43.4536ZM2.76084 51.0347C3.32925 50.5513 2.99886 50.6907 3.12703 52.0715C3.17153 52.5495 3.27099 52.0836 3.28755 52.381C3.37799 53.987 2.99716 54.1154 2.79898 53.757C2.78553 52.8481 2.77326 51.9298 2.76084 51.0376C2.76084 51.0367 2.76084 51.0357 2.76084 51.0347ZM2.66116 9.39635C2.66123 9.39542 2.66129 9.39448 2.66136 9.39355C2.80108 9.36843 2.80296 9.95927 2.97664 9.30236C2.95867 9.51062 2.94953 9.71831 2.94918 9.92871C2.94871 10.2546 2.94821 10.5809 2.9479 10.9082C2.93499 10.7444 2.92267 10.5772 2.90976 10.4135C2.86215 10.558 2.81394 10.7029 2.76633 10.8474C2.92569 11.0448 2.83306 11.2281 2.77976 11.8117C2.95 11.6504 3.12036 11.49 3.2906 11.3288C3.2399 12.0068 3.18902 12.6873 3.13832 13.3653C3.09542 13.3737 3.05245 13.3822 3.00954 13.3905C3.06437 13.6461 3.11981 13.8992 3.17464 14.1548C3.12342 14.2243 3.07266 14.2912 3.02145 14.3607C3.06024 14.6691 3.09901 14.978 3.13832 15.2864C3.01425 15.3802 2.96063 14.7005 2.99215 15.9055C2.86487 15.5359 2.73798 15.167 2.6107 14.7946C2.61998 13.1727 2.62964 11.5506 2.63937 9.92871C2.64052 9.74969 2.64769 9.5745 2.66116 9.39635ZM2.9357 63.5961C2.91189 61.6033 3.00181 62.1646 3.28327 62.6259C3.1674 62.9482 3.05157 63.2738 2.9357 63.5961ZM99.9769 71.4516C100.555 71.2596 101.136 71.0696 101.728 70.8843C102.906 70.7772 104.085 71.1271 103.198 71.2643C102.131 71.4288 101.016 71.2446 99.9769 71.4516ZM126.695 71.2175C125.363 71.3374 126.583 70.9374 126.811 70.7316C127.198 70.8565 127.692 70.7135 128.422 70.3813C127.766 70.7414 126.924 71.1951 126.696 71.2181C126.696 71.2179 126.695 71.2177 126.695 71.2175ZM76.7736 71.2359C76.1958 71.2416 75.6211 71.2952 75.1044 71.2301C75.2603 71.0465 76.2938 71.2135 75.5547 70.9414C75.9242 70.9367 76.2943 70.9322 76.6611 70.927C76.4279 71.0398 76.7415 71.1241 76.7721 71.2353C76.7726 71.2355 76.7731 71.2357 76.7736 71.2359ZM16.6164 70.9847C17.7504 71.2021 17.9654 71.1091 19.1077 70.9585C19.2686 71.1354 17.9066 71.4318 17.0534 71.4971C16.9088 71.3263 16.7637 71.1555 16.6164 70.9847ZM44.707 2.78206C44.9793 2.55651 46.9881 2.5271 47.9862 2.59378C47.8673 2.62723 47.7481 2.66113 47.6292 2.69509C46.6564 2.72407 45.6798 2.75309 44.707 2.78206ZM128.768 70.2145C128.647 70.2755 128.532 70.3307 128.422 70.3813C128.541 70.3192 128.657 70.2617 128.768 70.2145ZM133.409 11.9961C133.622 12.4712 133.693 11.0589 133.61 12.7736C133.61 12.7736 133.611 12.7736 133.611 12.7736C133.556 13.9077 133.541 14.158 133.525 15.2086C133.252 14.8304 133.154 12.699 133.097 15.6367C133.097 15.6753 133.26 15.5983 133.238 16.0677C133.231 16.2125 133.097 16.6762 133.058 17.3814C133.046 17.6093 133.005 19.322 133.002 16.9874C132.812 17.0569 132.619 16.9315 132.434 16.9371C132.381 16.0258 132.754 15.3254 132.744 14.3614C132.73 12.93 132.353 12.2016 132.848 11.9264C132.969 13.13 132.972 15.1968 132.675 15.4663C132.671 16.6307 132.915 16.9651 133.035 16.0262C132.882 12.0044 133.397 14.9221 133.202 11.4007C133.134 11.359 133.06 11.2141 132.995 11.2362C133.237 10.1613 133.333 11.8265 133.409 11.9961ZM132.883 20.4059C132.738 19.711 132.591 19.0184 132.445 18.3264C132.682 18.3264 132.895 18.708 133.029 19.803C132.98 20.003 132.931 20.2059 132.883 20.4059ZM89.8012 2.31578C89.7011 2.44462 89.4343 2.56269 89.2398 2.68533C89.0286 2.57667 84.0255 2.47242 86.5708 2.36582C86.9405 2.3503 89.1952 2.57813 89.8012 2.31578ZM8.88609 71.0587C9.30935 71.2097 9.75197 71.3226 10.2081 71.3944C10.3072 71.409 10.4062 71.4236 10.5053 71.4382C10.4062 71.4442 10.3072 71.4502 10.2081 71.4563C9.44977 71.5056 8.67885 71.4423 7.92814 71.261C8.25948 71.2151 8.57892 71.1466 8.88609 71.0587ZM109.569 71.6777C109.32 71.6729 110.146 71.4957 109.166 71.5236C109.897 71.4103 110.581 71.3144 111.296 71.2078C111.51 71.2916 111.726 71.3751 111.94 71.4589C112.107 71.4051 112.277 71.3516 112.443 71.2978C112.343 71.4199 112.254 71.5392 112.149 71.6634C110.945 71.4016 110.669 71.6984 109.569 71.6777ZM73.7832 72.1553C73.5668 71.8899 75.3095 71.7321 73.5951 71.6896C73.9203 71.5153 74.4432 71.4238 75.4465 71.4083C75.6076 71.475 75.7683 71.5412 75.9294 71.6079C75.9516 71.4294 76.2098 71.3631 76.7736 71.2359C76.7741 71.2361 76.7746 71.2363 76.7751 71.2365C78.3005 71.2236 78.2093 71.2831 78.5761 71.5764C76.9613 71.4108 76.913 71.6789 75.8124 71.8383C75.0564 71.9479 74.0695 71.8982 73.7832 72.1553ZM95.1317 2.31273C93.9898 2.53677 95.0146 2.74574 92.9885 2.50772C93.1191 2.4508 93.2504 2.39437 93.381 2.33745C93.9646 2.32865 94.5482 2.32049 95.1317 2.31273ZM68.1476 71.2456C68.2782 71.6565 69.3533 71.9763 69.5369 71.3079C68.489 71.1718 69.0008 71.5504 68.1476 71.2456ZM126.334 71.9316C125.809 71.9986 125.443 71.9686 125.208 71.9167C124.663 71.7936 124.806 71.5727 125.208 71.4022C125.295 71.3632 125.393 71.3252 125.496 71.2892C125.616 71.3691 125.743 71.4459 125.868 71.5193C126.2 71.4524 126.524 71.3638 126.839 71.2553C126.687 71.4857 126.519 71.712 126.334 71.9316ZM32.6259 71.697C34.1657 71.4036 30.9637 71.5338 32.0393 71.3506C32.8982 71.2042 34.0299 71.4998 33.6019 71.6851C33.3045 71.6902 32.9735 71.6939 32.6288 71.697C32.6278 71.697 32.6269 71.697 32.6259 71.697ZM41.5363 71.6131C41.2835 71.2996 41.6479 71.3909 40.4314 71.4473C40.0839 71.4634 37.3232 71.3457 38.4822 71.6054C39.4687 71.6054 40.5109 71.6099 41.5363 71.6131ZM132.83 52.087C132.967 52.0685 133.266 54.1943 133.191 54.4672C133.192 54.4672 133.192 54.4672 133.192 54.4672C132.988 55.2037 132.959 52.9613 132.678 53.934C132.925 51.7801 132.328 51.1356 133.115 51.2857C133.149 52.5546 132.987 51.9539 132.83 52.087ZM18.3312 2.1394C18.3302 2.1394 18.3292 2.1394 18.3282 2.1394C18.471 2.14582 19.6473 2.34617 19.5042 2.41557C18.0897 2.35606 18.3417 2.22418 17.0248 2.44089C16.9526 2.3711 16.8908 2.3034 16.813 2.23308C17.3356 2.19168 17.6252 2.10783 18.3312 2.1394ZM84.3921 2.04052C84.9119 2.00482 85.8603 2.15277 86.4523 2.14397C84.5679 2.71214 82.3161 2.18232 84.3921 2.04052ZM2.66227 28.8549C2.66248 28.8564 2.66268 28.8579 2.66288 28.8593C2.66257 28.8589 2.66228 28.8583 2.66197 28.8579C2.66207 28.8569 2.66217 28.8559 2.66227 28.8549ZM124.668 2.38139C124.601 2.34451 124.563 2.31247 124.55 2.28435C124.55 2.2817 124.55 2.27906 124.55 2.27641C124.586 2.31095 124.625 2.34587 124.668 2.38139ZM132.789 47.6688C132.979 46.7834 133.282 49.7334 133.21 50.6874C133.123 50.6207 133.044 50.6103 132.944 50.4548C133.169 49.6849 132.757 47.8162 132.789 47.6688ZM86.7771 71.5795C89.109 71.5847 86.0743 72.3364 85.9492 71.7366C85.9539 71.725 86.7169 71.5805 86.7771 71.5795ZM132.6 65.9447C132.636 66.5537 133.123 65.4826 132.399 67.2253C132.299 67.3004 132.199 67.3724 132.097 67.4412C132.317 66.9593 132.485 66.4566 132.6 65.9447ZM102.053 72.5664C104.988 72.4396 107.795 72.216 105.884 71.5883C105.661 71.6085 105.436 71.628 105.214 71.6481C105.181 71.9543 104.361 71.7872 103.161 71.7772C102.99 71.8988 102.325 71.9269 102.2 72.0302C101.959 72.2299 102.723 72.3703 102.053 72.5664ZM2.06873 44.4318C2.121 44.4791 2.17354 44.5253 2.22528 44.5726C2.28427 45.0367 2.34298 45.5021 2.40197 45.9663C2.30167 45.8913 2.20138 45.8161 2.10108 45.7412C2.09022 45.305 2.07929 44.871 2.06843 44.4348C2.06853 44.4338 2.06863 44.4328 2.06873 44.4318ZM133.529 23.2659C132.954 22.9993 133.06 23.931 133.351 25.8208C133.41 24.9704 133.47 24.1164 133.529 23.2659ZM54.8916 72.3332C54.8304 72.1698 54.7703 72.0069 54.7064 71.8434C53.703 72.0137 53.8894 72.2009 54.3702 72.4172C54.5451 72.3892 54.7166 72.3611 54.8916 72.3332ZM40.4388 72.4028C40.855 72.4369 40.6426 72.3049 40.6861 72.3076C41.7395 72.3769 41.8879 72.4375 43.1803 72.3381C43.3387 72.3035 43.4944 72.267 43.6528 72.2313C43.0553 71.8889 42.6215 72.0755 41.3571 71.8743C41.585 71.9917 41.812 72.1094 42.0399 72.2273C41.3369 72.2025 40.6367 72.178 39.9337 72.1532C39.8503 72.1894 39.7668 72.2253 39.6834 72.2615C39.9335 72.3081 40.1915 72.3604 40.4388 72.4028ZM2.21735 39.0643C2.2308 38.3805 2.24479 37.6937 2.25824 37.01C2.1739 36.9849 2.08899 36.9609 2.00465 36.9359C2.07553 37.6445 2.14647 38.3557 2.21735 39.0643ZM133.237 9.22312C133.202 9.1713 133.167 9.12223 133.132 9.07848C133.169 9.07919 133.205 9.13489 133.237 9.22312ZM16.5272 1.67677C15.7518 1.61779 14.6346 1.65652 13.7841 1.64412C13.851 1.85571 16.0125 1.79722 16.7716 1.92548C16.8935 1.88751 16.8549 1.70159 16.5272 1.67677ZM123.539 71.9908C123.344 72.0964 123.15 72.2014 122.958 72.307C122.488 72.2956 122.017 72.2836 121.545 72.2722C121.531 72.3586 121.517 72.4458 121.503 72.5322C123.585 72.4199 123.105 72.6691 124.135 72.9149C123.935 72.607 123.739 72.2992 123.539 71.9908ZM1.66928 17.3096C1.72775 18.8132 1.83696 19.3465 2.0962 18.4989C2.03671 17.9682 1.97717 17.4344 1.91768 16.9037C1.83491 17.0399 1.75205 17.1762 1.66928 17.3096ZM109.69 1.67433C108.431 1.7712 108.41 1.42328 107.181 1.61757C107.839 1.68172 108.498 1.74659 109.153 1.81074C109.331 1.76538 109.512 1.71969 109.69 1.67433ZM134.418 43.5558C134.539 43.0249 133.964 42.0326 134.388 40.5402C134.262 40.1846 134.14 39.9617 134.016 39.656C134.151 39.4781 134.288 39.276 134.422 39.1065C134.422 39.1055 134.422 39.1045 134.422 39.1035C134.377 37.7499 134.207 38.6276 134.064 38.597C134.005 38.5826 134.104 37.578 133.975 37.892C133.753 38.434 133.88 40.4591 133.61 40.4647C133.698 39.7532 133.624 38.3638 133.444 38.7747C133.245 39.2249 133.577 40.5343 133.413 41.3682C133.846 40.1733 133.712 42.6411 133.38 42.9219C133.635 44.3699 133.739 43.039 133.727 41.5548C133.982 42.4608 133.844 41.1272 134.056 40.9075C134.183 41.8418 134.077 45.0482 134.418 43.5558ZM89.8297 72.6695C90.8305 72.6531 92.3941 72.7986 93.0793 72.5838C93.4784 72.4586 91.9111 72.3617 92.9919 72.1651C92.0168 72.1842 91.7943 72.261 91.961 72.4333C91.7388 72.454 91.5138 72.4742 91.2916 72.4944C91.1888 72.4607 91.0833 72.4276 90.9805 72.394C90.8638 72.4648 90.7464 72.5352 90.6325 72.606C90.3964 72.5921 90.1576 72.5781 89.9215 72.5636C89.8938 72.5993 89.8465 72.6303 89.8297 72.6695ZM73.5607 1.68501C73.8385 1.68294 74.1137 1.68088 74.3916 1.6783C74.361 1.63634 74.3245 1.59264 74.2894 1.54952C74.2642 1.51544 74.239 1.48137 74.2138 1.44729C74.3749 1.56904 75.6987 1.77139 76.2563 1.64137C76.5367 1.57615 75.8987 1.34459 77.0872 1.30417C76.2258 1.31608 75.4279 1.34768 74.5915 1.36734C74.6666 1.29852 74.7387 1.22896 74.8137 1.16014C74.8132 1.16003 74.8127 1.15993 74.8122 1.15983C74.5344 1.14431 74.2532 1.12805 73.9754 1.11253C73.8364 1.30347 73.6996 1.49407 73.5607 1.68501ZM55.7062 72.6564C56.6539 72.5213 56.9712 72.4512 56.5237 72.2328C56.5228 72.2327 56.5218 72.2326 56.5208 72.2325C56.1679 72.3293 55.8147 72.426 55.4618 72.5227C55.5424 72.5672 55.6228 72.6119 55.7062 72.6564ZM129.129 2.0709C127.958 1.99676 128.575 2.32309 129.3 2.6558C130.034 2.98655 130.908 3.48477 130.637 3.07749C130.629 3.01282 129.291 2.2125 129.129 2.0709ZM126.75 72.1222C126.244 72.223 125.727 72.2761 125.208 72.282C125.15 72.2827 125.091 72.2834 125.033 72.2841C125.091 72.3303 125.149 72.3764 125.208 72.4225C125.284 72.4782 125.36 72.5328 125.437 72.5866C125.894 72.4666 126.334 72.3101 126.75 72.1222ZM1.29271 23.8561C1.06502 24.4383 0.982534 25.9326 1.23015 26.6628C1.25913 26.2793 1.28815 25.8956 1.31712 25.512C1.34557 26.2371 1.37689 26.9541 1.40379 27.6848C1.72099 27.7237 1.53697 26.8816 1.62442 25.6142C1.63852 25.418 2.03227 24.1634 1.7355 23.7302C1.6745 23.6431 1.63303 24.9776 1.45567 24.0501C1.44171 24.4557 1.4448 24.8058 1.43705 25.1891C1.3615 25.2169 1.28587 25.2445 1.21032 25.275C1.23767 24.801 1.26536 24.3301 1.29271 23.8561ZM95.6564 72.6448C97.0311 72.6623 97.2009 72.5356 97.4871 72.3116C96.8478 72.3369 96.2083 72.3619 95.569 72.3872C95.5995 72.4729 95.626 72.5586 95.6564 72.6448ZM1.22008 36.1435C1.18344 36.8961 1.36577 36.5738 1.40043 36.8767C1.53081 38.0217 1.4005 38.8026 1.48222 39.9337C1.44703 39.8586 1.41414 39.7897 1.37999 39.7174C1.37999 39.7184 1.37999 39.7194 1.37999 39.7204C1.22632 45.0761 1.63981 42.263 1.57254 39.0583C1.64033 38.9833 1.7082 38.9112 1.77548 38.8362C1.65698 37.4021 1.54296 36.0796 1.22008 36.1435ZM134.016 18.9662C134.059 18.9051 134.328 19.4248 134.202 18.4493C133.808 17.6768 134.004 18.9437 133.852 19.261C133.815 18.9969 133.778 18.7269 133.74 18.4656C133.629 20.0443 133.723 20.2747 134.01 19.6994C134.03 19.6583 133.974 19.0275 134.016 18.9662ZM134.086 8.43091C133.661 8.3402 133.828 9.33407 133.914 9.92871C133.958 10.1571 134.018 10.3156 134.071 10.2943C134.075 10.1636 134.054 10.0467 134.037 9.92871C134.017 9.78427 133.998 9.64071 134.012 9.47221C134.034 9.14579 134.174 9.0484 134.086 8.43091ZM133.861 65.844C133.883 65.7866 134.235 65.177 134.032 65.2126C133.515 65.9433 133.234 67.4716 133.466 67.2852C133.659 66.7801 133.705 66.4196 133.861 65.8442C133.861 65.8441 133.861 65.8441 133.861 65.844ZM1.156 14.7887C1.13981 14.8165 1.04182 16.2795 1.13281 16.4683C1.23525 16.6239 1.34503 16.7011 1.45109 16.8178C1.35277 16.0118 1.42767 14.3803 1.156 14.7917C1.156 14.7907 1.156 14.7897 1.156 14.7887Z" fill="black"/>
</svg>
