<svg width="478" height="64" viewBox="0 0 478 64" fill="none" xmlns="http://www.w3.org/2000/svg">
<path d="M2.06021 26.9229C2.06021 13.1157 13.2531 1.92285 27.0602 1.92285H451.06C464.867 1.92285 476.06 13.1157 476.06 26.9229V35.9229C476.06 49.73 464.867 60.9229 451.06 60.9229H27.0602C13.2531 60.9229 2.06021 49.73 2.06021 35.9229V26.9229Z" fill="#00FFB2"/>
<path d="M24.6825 58.7849C22.6026 58.4114 29.6032 59.0063 24.9767 58.3971C25.6681 58.4439 26.3623 58.4588 27.0602 58.4422C27.3622 58.4357 27.6642 58.4293 27.9654 58.4229C28.2365 58.5476 28.514 58.672 28.785 58.7967C28.2103 58.8114 27.6355 58.8261 27.0602 58.8408C26.2661 58.8628 25.4735 58.8446 24.6825 58.7855C24.6825 58.7853 24.6825 58.7851 24.6825 58.7849ZM22.618 60.0672C23.9632 59.9973 27.9281 60.1903 23.6774 59.4505C23.3248 59.5237 22.9539 59.5864 22.5922 59.6428C21.1229 59.2718 19.6894 58.7601 18.3334 58.1251C17.8169 57.972 17.3029 57.8002 16.7954 57.6105C16.2638 57.1236 15.7681 56.6205 15.2963 56.0986C15.7947 56.4259 16.3125 56.7383 16.8372 57.0274C19.0401 57.8754 21.0367 58.5511 24.1885 58.94C23.9175 58.856 23.6516 58.7681 23.3849 58.6745C24.5883 58.9338 25.8183 59.0973 27.0602 59.1629C27.4598 59.1826 27.8592 59.2024 28.2582 59.2221C27.8681 59.2438 27.4661 59.2663 27.0602 59.2889C25.9739 59.3546 24.8618 59.3395 23.8891 59.2657C24.731 59.519 25.8714 59.6654 27.0602 59.669C28.8335 59.6767 30.6834 59.5961 31.8838 59.5553C34.6668 59.4606 34.0378 59.6188 36.1027 59.5526C36.4323 59.5422 36.4696 59.4182 37.1213 59.4161C40.4097 59.4063 46.7964 59.472 43.0613 59.7613C37.6491 59.724 33.0332 59.9563 27.7235 59.8714C28.4297 60.0396 28.0738 60.152 27.0602 60.241C26.0822 60.3304 24.4658 60.3324 22.618 60.0672ZM121.94 59.403C120.3 59.5655 116.959 59.4999 114.696 59.3872C114.694 59.3872 114.691 59.3872 114.689 59.3872C114.191 59.3623 113.063 59.1464 114.689 59.1552C117.339 59.1703 118.621 59.5101 120.012 59.2794C120.634 59.3224 121.288 59.3606 121.94 59.403ZM127.7 59.3829C129.326 59.4662 128.589 59.7223 126.553 59.653C126.553 59.6532 126.553 59.6534 126.553 59.6536C125.703 59.6246 127.371 59.4222 124.325 59.6276C123.702 59.4678 123.09 59.3224 122.475 59.1677C123.221 59.1652 123.901 59.161 124.684 59.1589C124.157 59.4216 126.075 59.3002 127.7 59.3829ZM45.8089 59.6166C46.0646 59.3803 44.9938 59.3818 43.1706 59.2178C44.8914 59.2256 46.6127 59.2338 48.3261 59.2416C47.4842 59.3668 46.6507 59.4915 45.8089 59.6166ZM9.02074 51.2285C9.01914 51.2266 9.01755 51.2248 9.01595 51.2229C8.64198 50.8399 8.27945 50.4425 7.93519 50.0386C7.81265 49.731 7.69897 49.4253 7.59054 49.1155C6.4719 47.6098 5.52498 45.9537 4.79053 44.2073C5.07124 44.3485 6.37803 47.4705 7.61722 48.8726C9.09328 51.1807 9.99988 52.1789 9.95268 52.4742C9.62878 52.0695 9.32021 51.6562 9.02074 51.2285ZM475.072 41.6706C475.155 41.0132 475.209 40.3667 475.239 39.709C475.074 40.5627 474.873 41.3979 474.612 42.2292C474.259 44.5021 473.972 44.6647 472.663 47.3404C470.455 51.3616 469.159 52.555 468.096 53.7166C466.957 54.789 465.856 55.9278 462.051 57.5616C467.731 54.2136 465.381 55.1864 468.095 52.4157C468.836 51.9784 466.305 55.03 468.3 53.2402C471.419 49.8115 473.556 45.7403 474.47 40.7861C474.407 40.9237 474.343 41.0595 474.278 41.1949C474.124 41.9736 473.932 42.7405 473.699 43.5037C473.886 42.6588 474.022 41.8293 474.117 40.9658C474.093 42.083 474.538 39.3214 474.683 39.7211C474.765 39.9038 474.684 41.1657 474.587 41.9126C475.115 40.0601 475.421 38.087 475.488 36.1249C475.563 37.1436 475.576 38.1645 475.524 39.1891C475.417 40.0188 475.268 40.8388 475.076 41.6558C475.075 41.6607 475.073 41.6657 475.072 41.6706ZM78.1021 3.32519C80.6215 3.08198 85.1997 3.04174 87.6093 3.31237C84.4381 3.31651 81.2733 3.32105 78.1021 3.32519ZM9.95142 52.7308C9.78908 52.5065 9.63652 52.2865 9.48269 52.058C10.3524 52.8919 11.2858 53.661 12.2619 54.3476C12.365 54.5839 12.4769 54.823 12.5957 55.0621C11.6608 54.3527 10.7725 53.5689 9.95142 52.7308ZM87.7791 59.7735C86.8577 59.7807 86.7762 59.7768 85.6287 59.7598C85.6299 59.7599 85.6314 59.76 85.6326 59.7601C85.1777 59.7537 81.372 59.6839 81.7962 59.5919C83.6858 59.5904 85.7012 59.5919 87.6347 59.5919C87.6932 59.6524 87.7059 59.7125 87.7791 59.7735ZM65.5373 59.7198C65.5347 59.7196 65.5321 59.7194 65.5295 59.7192C64.8417 59.7052 64.1903 59.6768 63.4805 59.6716C66.0357 59.5268 66.4396 59.7865 68.761 59.7131C71.0822 59.6391 72.5166 59.4958 74.4863 59.8516C73.7539 59.9049 72.9654 59.9812 72.211 60.0433C68.9157 59.901 68.0282 60.0349 65.3851 60.1751C65.4364 60.023 65.486 59.8719 65.5373 59.7198ZM442.692 59.8873C442.062 60.0632 441.36 59.8906 441.287 59.8885C441.288 59.8883 441.289 59.8881 441.291 59.8879C435.712 60.0508 442.017 59.7905 436.752 59.7631C437.535 59.7191 438.306 59.6727 439.082 59.6282C440.282 59.7131 441.52 59.8092 442.692 59.8873ZM261.436 59.8708C261.385 59.8196 261.323 59.7683 261.272 59.717C264.436 59.7289 265.243 59.5273 267.872 59.7109C265.726 59.7647 263.582 59.8182 261.436 59.8714C261.436 59.8712 261.436 59.871 261.436 59.8708ZM103.726 60.1461C100.218 60.2439 97.6227 60.287 94.2538 60.1318C94.2512 60.1315 94.2485 60.1313 94.246 60.1311C94.0518 60.1216 94.9912 60.0144 94.7377 59.9874C94.0426 60.0034 93.3249 60.0281 92.6224 60.0472C92.5273 59.9614 92.4365 59.8756 92.3414 59.7903C94.3185 59.8146 96.297 59.8389 98.2814 59.8632C97.9885 59.813 97.6884 59.7633 97.3955 59.7131C99.0797 59.6872 100.758 59.6614 102.442 59.6356C101.856 59.7763 101.272 59.917 100.693 60.0582C101.704 60.0877 102.715 60.1161 103.726 60.1461ZM314.108 60.4314C313.551 60.3755 314.582 60.2818 313.717 60.2337C312.853 60.1862 311.26 60.2905 311.633 60.1327C312.797 60.1115 314.019 60.0872 315.204 60.0649C311.389 59.7804 307.582 60.0379 307.524 59.6865C311.186 59.7776 314.197 59.7353 317.741 59.638C317.595 59.9169 314.049 60.158 316.282 60.4198C315.564 60.4234 314.811 60.4287 314.116 60.4308C314.113 60.431 314.11 60.4312 314.108 60.4314ZM10.2668 5.16867C12.0823 3.62705 16.9398 0.936943 19.9485 0.44409C20.6782 0.256289 23.1719 0.327791 23.1613 0.420973C23.1148 0.646004 20.2713 1.17761 23.3549 0.8091C22.323 0.956196 21.3305 1.16508 20.3328 1.43166C20.5525 1.5338 20.7658 1.63928 20.9717 1.74829C22.1712 1.43528 23.3892 1.20954 24.6235 1.07065C24.6887 1.11603 24.7533 1.16179 24.8179 1.20765C20.4266 1.77528 23.04 1.61838 20.8577 2.25647C22.9025 1.83892 25.0034 1.67933 27.0602 1.77345C25.8704 1.75699 24.4742 1.85808 23.4352 1.99918C23.3321 2.254 25.7906 1.93377 26.2178 2.00255C27.4169 2.13823 24.9583 2.0744 22.1789 2.68926C19.3782 3.24749 16.4293 4.69342 16.0983 5.0994C17.816 4.27969 19.7135 3.63515 21.6094 3.24599C21.0801 3.41553 20.5484 3.60584 20.0355 3.81083C15.7782 4.80639 11.2998 7.42964 7.90429 11.3762C7.61681 11.7471 7.33934 12.1277 7.07763 12.5076C7.25392 12.4659 7.42525 12.4321 7.60098 12.3948C7.19474 12.9612 6.80808 13.5522 6.45274 14.151C7.29005 12.2332 5.50442 14.4929 3.97161 17.6787C4.51763 15.8721 5.79588 13.9136 5.49854 13.9239C3.36536 17.6476 1.91118 22.3355 1.93634 26.9229C1.93464 29.2555 1.95242 31.5339 2.02768 33.6649C2.06069 34.6038 2.19324 34.9757 2.2869 35.9229C2.35272 36.5472 2.40095 37.411 2.5527 38.8439C2.50242 38.7258 2.43522 38.7121 2.37913 38.6375C3.41603 44.8286 5.18813 48.4671 9.48765 53.3326C9.30671 52.9817 9.14009 52.6327 8.97871 52.2779C8.01919 51.3059 7.13609 50.2486 6.35043 49.1283C6.06535 48.2108 6.66475 49.4361 4.87486 45.8007C3.62037 42.7248 4.29328 44.5839 3.91838 43.7555C3.45127 42.6101 3.32615 41.5241 3.00406 40.2419C2.78791 39.2381 2.71581 40.374 2.49777 37.6897C2.78212 38.7513 3.14653 39.8089 3.56828 40.802C3.65202 41.4398 3.7588 42.0672 3.89351 42.6987C3.65752 42.0894 3.44956 41.4819 3.26217 40.8497C3.83091 43.0877 4.65387 45.1162 5.84453 47.1509C5.21303 46.6093 6.45601 48.7387 7.28093 49.7862C8.55281 51.4223 7.32103 50.1267 8.18649 51.1814C9.08507 52.2138 10.2147 53.1685 12.0804 54.741C10.9759 54.016 12.2891 55.2394 11.9456 55.1182C11.5831 55.0179 9.56443 53.2911 11.4099 55.0561C15.3957 57.8922 11.3887 54.4234 14.1057 56.2078C17.441 58.1298 18.1603 58.9701 16.9694 58.7042C16.0291 58.4927 13.2121 56.8486 12.3912 56.3466C17.1834 59.7761 17.6958 58.9071 18.5892 59.2651C22.0998 60.0068 19.5333 60.3329 23.8283 60.7733C23.7272 60.9261 23.6422 61.0641 23.5394 61.2092C24.2922 61.2792 24.7913 61.2928 25.7027 61.3207C23.0661 60.7871 25.2413 61.0172 26.3483 61.0392C28.1007 61.0689 25.4005 60.8599 25.869 60.8234C26.2357 60.8089 26.6658 60.8014 27.0602 60.7877C27.9979 60.7557 28.7223 60.7506 27.8718 60.6511C28.4138 60.7169 29.0011 60.7828 29.5578 60.848C31.5942 60.7661 36.3801 60.0794 31.8253 60.2181C32.2501 59.963 33.7234 60.0856 34.8733 60.1244C36.0229 60.1632 36.0015 60.0007 37.0121 60.0307C41.0322 60.1508 38.4024 60.4287 37.7653 60.6466C43.0747 60.4965 37.8766 60.3972 45.5279 60.2968C46.2675 60.1194 42.7323 59.93 45.6762 59.8275C46.2184 60.1358 48.3861 60.3574 52.6114 60.4598C53.0215 60.3889 53.4306 60.3174 53.8407 60.2465C56.1477 60.5311 54.9685 60.827 59.2382 60.4741C56.946 61.1235 58.5221 60.7081 62.3448 60.9725C63.1212 61.0258 61.3272 61.1605 62.4112 61.2288C62.9026 61.2596 64.0954 61.1579 65.2953 61.2364C65.8812 61.2752 68.6203 61.5256 70.5172 61.4067C69.1257 61.0921 72.7297 60.8244 69.6391 60.5642C75.3515 60.6283 79.3497 60.4773 72.9486 60.9062C74.3987 61.0015 75.8501 61.0963 77.3002 61.191C78.3109 61.1159 79.3302 61.0415 80.3483 60.967C80.5019 61.2256 80.3475 61.2981 84.3291 61.2526C82.6015 61.3136 80.8811 61.3757 79.1462 61.4372C79.0876 61.4894 78.8462 61.5437 78.9042 61.5944C81.0291 61.4951 87.0122 61.4523 88.4621 61.3835C89.9121 61.3147 87.1119 61.2959 87.5293 61.2291C91.0074 60.6787 90.7315 61.0846 93.2274 60.9902C94.692 60.9343 91.1948 60.8736 91.9785 60.8498C94.8841 60.7626 96.2319 61.0551 98.8083 61.0588C97.8931 60.8928 96.9851 60.7241 96.092 60.5565C98.7944 60.5653 101.807 60.5668 104.319 60.5135C105.305 60.4927 104.56 60.3692 104.721 60.3609C105.52 60.3185 108.771 60.2513 109.115 60.2508C111.707 60.2498 111.781 60.4208 114.298 60.4302C113.31 60.4447 112.381 60.4577 111.414 60.4717C110.975 60.749 110.527 61.0263 110.087 61.3042C112.555 61.3244 115.024 61.3441 117.499 61.3643C115.69 61.2717 113.875 61.1795 112.066 61.0869C114.893 60.8629 117.72 60.6383 120.547 60.4137C122.019 60.5514 123.485 60.689 124.957 60.8266C128.954 60.7903 128.149 60.2316 130.046 60.721C131.225 60.6796 132.403 60.6383 133.582 60.5974C133.414 60.6673 133.247 60.7372 133.078 60.8071C134.499 60.7641 135.919 60.7215 137.34 60.678C135.846 60.4307 134.382 60.1704 132.903 59.9303C135.699 59.8766 135.752 60.0864 136.169 60.1388C137.275 60.2775 139.47 60.0904 140.349 60.2187C140.646 60.2628 137.906 60.4009 138.851 60.5602C139.035 60.5911 142.704 61.1766 145.044 61.0414C145 60.9354 144.819 60.8053 144.724 60.6899C147.872 60.6255 149.478 61.1792 149.06 61.3344C150.737 61.2257 153.188 61.2167 153.533 61.0469C154.39 61.0428 155.24 61.0389 156.097 61.0347C155.204 61.4481 158.778 61.3725 159.012 61.017C157.54 61.0082 156.066 60.999 154.594 60.9902C155.707 60.5545 151.234 60.2915 160.542 60.6951C162.322 60.9217 157.379 60.6642 158.829 60.8339C161.348 60.9327 163.713 60.8501 166.107 61.0079C169.087 61.205 165.421 61.3946 172.364 61.1437C157.05 60.515 174.464 60.7189 181.656 60.5239C183.633 61.1448 189.707 61.3415 198.071 61.1568C197.199 60.984 194.568 61.073 193.052 61.0161C191.536 60.9592 193.176 60.8567 191.288 60.7759C189.399 60.6952 185.387 60.5855 183.475 60.4635C185.094 60.3657 193.089 60.1344 187.803 60.4122C191.749 60.5834 193.602 60.7594 198.492 60.7915C199.957 60.5219 199.849 60.3541 204.616 60.3463C201.796 60.7209 207.214 60.9813 206.021 61.3683C202.64 61.2781 204.53 60.902 202.575 60.7219C202.374 60.7039 199.225 60.7982 198.492 60.7915C201.671 61.1294 202.77 61.2552 200.815 61.6572C203.063 61.6221 204.462 61.6725 204.667 61.4806C205.135 61.5638 205.606 61.6472 206.068 61.7305C206.799 61.7284 207.458 61.7207 208.234 61.7222C207.165 61.4327 209.236 61.6109 210.708 61.4796C212.18 61.3482 210.205 61.1196 214.248 61.1165C212.9 61.0487 211.668 60.9906 210.365 60.9264C212.972 60.8519 215.587 60.7769 218.194 60.7024C216.363 60.5255 212.395 60.2626 212.503 60.0298C213.704 60.1177 217.818 59.9632 218.268 59.9569C220.011 59.9331 219.061 60.0799 219.193 60.0835C221.931 60.1549 224.187 60.1049 225.226 60.3274C227.284 60.227 228.836 60.2842 231.018 60.2785C232.219 60.2754 231.986 60.112 232.688 60.143C237.361 60.35 232.909 60.5612 241.922 60.1592C240.831 60.0454 239.755 59.9289 238.664 59.8141C239.682 59.7711 240.694 59.7279 241.712 59.685C242.393 59.7057 243.068 59.7266 243.749 59.7472C243.734 59.9941 243.717 60.2414 243.702 60.4882C244.449 60.5016 245.199 60.5147 245.946 60.5282C244.664 60.5525 243.38 60.5768 242.098 60.6011C241.981 60.6445 241.872 60.688 241.755 60.7314C243.659 60.7987 245.556 60.8665 247.46 60.9343C247.497 60.8485 247.533 60.762 247.57 60.6762C251.861 60.7957 251.963 60.8684 256.043 60.6319C259.184 60.6345 261.743 60.2755 263.559 60.1244C264.211 60.1725 264.863 60.2213 265.522 60.2694C265.94 60.198 266.362 60.1269 266.779 60.0555C267.607 60.1548 268.445 60.2542 269.273 60.353C269.734 60.1275 269.973 60.0571 266.744 59.978C267.85 59.6975 273.535 59.8212 275.849 59.9154C277.605 59.9869 275.657 60.2208 275.876 60.2492C276.609 60.3459 279.503 60.2625 280.111 60.2785C282.681 60.3453 284.482 60.3336 286.804 60.3853C287.256 60.3957 288.519 60.5439 288.627 60.5486C289.462 60.574 291.522 60.646 291.757 60.6481C303.845 60.7588 290.928 60.1156 302.169 60.1833C301.832 60.0985 301.523 60.0143 301.194 59.9294C302.043 59.9243 302.901 59.9193 303.75 59.9142C304.826 59.9851 303.524 60.114 305.662 60.01C305.523 60.1145 305.383 60.2191 305.237 60.3231C306.167 60.2667 307.063 60.2107 308.016 60.1543C309.51 60.5171 314.964 60.5994 314.576 61.0253C314.444 61.1702 310.577 61.3188 312.621 61.4735C314.281 61.504 313.157 61.331 313.835 61.3219C318.727 61.2587 318.443 61.5013 320.442 61.4366C320.757 61.3327 321.088 61.2267 321.41 61.1217C322.164 61.1522 322.92 61.1827 323.681 61.2132C323.857 61.1434 324.04 61.0735 324.216 61.0036C323.505 60.9989 322.706 60.9942 322.054 60.9896C322.963 60.719 331.309 60.5975 328.126 60.8281C326.83 60.9218 324.456 60.882 325.956 61.2016C328.19 61.1556 330.724 61.1085 333.075 61.0625C333.148 61.1313 333.217 61.2003 333.29 61.2691C336.458 61.2245 333.577 60.9494 333.582 60.8019C334.307 60.7977 335.039 60.7941 335.764 60.79C336.071 60.8567 336.363 60.9265 336.685 60.9911C336.715 60.885 337.121 60.6383 339.281 60.7299C340.669 60.7895 338.482 61.0572 341.13 61.0201C340.932 60.8545 339.976 60.6529 342.926 60.5996C343.219 60.7724 343.624 60.9306 343.851 61.1122C347.519 60.9462 349.188 61.2131 353.494 61.0201C356.226 60.8979 359.968 60.4644 361.733 61.1324C363.731 61.15 363.097 60.9836 363.688 60.9462C366.479 60.7693 368.554 61.086 369.074 61.1046C372.39 61.224 373.877 61.1144 376.579 61.2639C376.433 61.1402 376.353 61.0232 376.236 60.9026C373.76 61.0878 372.507 61.0791 369.035 61.0393C370.199 61.0145 371.364 60.9891 372.528 60.9642C372.338 60.8639 372.149 60.7635 371.966 60.6636C361.229 61.059 363.734 60.4344 372.735 60.2978C373.511 60.4835 374.316 60.6687 375.084 60.855C380.284 60.5735 382.731 60.8179 388.611 60.8763C389.31 60.883 391.857 60.776 392.951 60.7708C392.933 60.77 392.915 60.7693 392.897 60.7686C393.577 60.5932 392.655 60.5125 392.545 60.3557C393.138 60.3361 393.732 60.3165 394.325 60.2968C395.65 60.4163 395.184 60.5145 397.791 60.486C397.439 60.367 397.092 60.248 396.741 60.129C399.597 60.1249 401.466 60.2542 404.125 60.1983C403.678 60.2433 403.237 60.2884 402.79 60.3335C408.576 60.4483 403.971 61.148 408.344 60.7997C408.622 60.8608 408.893 60.9224 409.171 60.9835C407.37 60.9985 405.568 61.013 403.774 61.028C403.737 61.1144 403.697 61.2004 403.668 61.2868C405.594 61.2609 407.53 61.2342 409.456 61.2084C408.05 61.2663 406.635 61.3243 405.229 61.3823C407.463 61.4237 409.697 61.4651 411.93 61.5065C409.558 61.1889 412.633 61.15 412.055 60.8355C416.01 61.0973 419.117 61.4424 425.247 61.2215C426.462 61.1775 425.802 60.9576 429.251 61.2251C428.416 60.8754 432.737 60.7113 432.182 60.3786C430.981 60.3947 429.736 60.4048 428.572 60.4244C429.897 60.5398 430.117 60.8572 428.103 60.9514C425.533 61.0715 421.784 60.8515 421.937 61.2038C420.912 61.1872 419.959 61.1775 418.963 61.1635C419.373 61.0761 419.774 60.9882 420.177 60.9008C417.344 61.0378 415.564 60.9932 414.202 60.7729C417.577 60.7222 420.946 60.672 424.322 60.6218C423.824 60.6069 423.32 60.5918 422.823 60.5773C425.379 60.3522 422.742 60.139 427.51 60.0909C427.481 60.1938 427.457 60.2968 427.428 60.4003C429.164 60.125 433.916 60.1265 432.4 59.8098C433.836 59.9071 434.128 59.9686 434.941 59.7979C438.727 60.0385 441.159 60.3428 439.812 60.7061C441.217 60.6476 442.624 60.5891 444.023 60.5306C443.21 60.4313 442.396 60.3324 441.583 60.2331C444.03 60.2393 446.494 60.2454 448.932 60.2511C449.167 60.5449 444.224 60.3402 445.65 60.6029C445.935 60.6556 447.252 60.5427 447.598 60.5724C451.245 60.8937 445.519 60.6616 446.595 60.9078C450.414 60.9612 449.401 61.1809 451.06 61.1864C451.771 61.178 452.971 61.1666 455.169 60.7154C455.379 60.7668 455.606 60.8145 455.804 60.8628C458.383 60.3113 458.128 60.1561 460.226 59.361C461.521 58.838 463.282 58.3416 464.486 57.305C464.653 57.0749 462.416 58.3187 466.78 55.1175C469.927 52.3315 468.818 53.6876 470.445 52.0521C472.152 50.3992 474.26 45.5346 475.065 44.1657C474.617 45.3004 473.975 46.7127 473.288 47.8715C473.107 48.3957 472.914 48.9022 472.7 49.412C474.268 46.7342 475.477 43.7138 475.718 41.6338C476.353 39.6588 476.544 37.4347 476.452 35.9229C476.371 34.4405 476.205 33.6184 476.022 34.2318C476.074 35.5576 476.232 34.1403 476.135 35.9229C476.135 35.9393 476.134 35.9559 476.133 35.9729C476.047 36.1647 475.959 36.3643 475.869 36.5512C475.875 36.3377 475.878 36.1279 475.879 35.9229C475.888 33.1081 475.903 31.2909 476.145 32.6356C476.151 32.1449 476.158 31.6588 476.164 31.1681C475.975 31.0803 475.786 31.0023 475.598 30.9145C475.577 30.3286 475.556 29.7402 475.535 29.1543C475.576 28.5029 475.618 27.85 475.66 27.1912C475.896 27.8937 475.951 28.9879 476.047 26.9229C476.071 26.3797 476.087 25.6248 476.027 24.5873C475.923 24.5822 475.819 24.5705 475.715 24.5658C475.253 20.4727 475.608 20.1702 473.396 15.3812C475.566 18.8833 475.249 21.3398 475.98 21.133C476.167 22.1533 476.292 23.1848 476.353 24.2147C476.473 24.3606 476.592 24.5039 476.709 24.6451C476.543 18.8275 471.194 11.0266 468.59 8.45496C468.227 8.18704 467.862 7.92297 467.48 7.67465C464.833 5.17748 463.155 4.88632 459.932 3.20866C459.565 3.11345 460.628 2.5265 455.859 1.46015C455.965 1.5563 456.002 1.6923 456.079 1.80403C455.067 1.55592 454.037 1.36769 453.006 1.24352C452.813 1.29856 452.612 1.35518 452.42 1.41509C454.19 1.5348 455.94 1.83752 457.642 2.3195C456.216 1.96354 454.753 1.73183 453.291 1.62875C455.183 1.92401 456.009 2.13255 454.855 2.11317C453.6 1.93128 452.331 1.84525 451.06 1.85388C450.691 1.85639 450.322 1.85888 449.953 1.86133C449.785 1.90784 449.618 1.95489 449.449 2.0014C449.984 2.09519 450.523 2.18759 451.06 2.28111C451.315 2.32586 451.568 2.37475 451.817 2.42787C451.564 2.41331 451.312 2.40304 451.06 2.39686C447.127 2.30137 443.677 2.28037 440.61 2.02429C440.053 1.97824 442.022 1.79758 438.229 1.96051C438.17 1.86483 438.069 1.78714 438.003 1.69868C433.359 1.96673 431.834 1.88672 426.993 1.69319C430.127 1.87378 427.331 1.75633 426.532 1.85309C425.985 1.91976 428.12 1.90991 427.879 1.97974C427.637 2.04907 424.863 2.32904 427.235 2.36271C433.05 1.78885 434.634 2.47495 442.104 2.19915C440.955 2.27314 439.796 2.34731 438.647 2.4213C439.188 2.47146 439.673 2.51696 440.258 2.57022C436.092 2.45795 438.118 2.53089 436.406 2.61935C434.693 2.70784 431.578 2.78301 429.491 2.80733C428.833 2.81497 429.527 2.68626 428.043 2.67428C427.032 2.666 424.27 2.85681 423.633 2.63186C423.215 2.48543 427.652 2.08222 421.517 2.08318C420.363 1.93963 423.304 1.98422 423.367 1.96692C423.902 1.79616 420.13 1.66776 418.387 1.79816C418.246 1.80941 419.623 1.94248 418.126 1.99469C414.574 2.1194 412.523 1.96679 410.223 1.76033C409.974 2.0025 406.985 2.29172 403.264 2.2022C403.074 2.2715 402.892 2.34141 402.702 2.41123C403.28 2.37455 403.857 2.33836 404.435 2.30168C405.065 2.34515 405.732 2.37679 406.347 2.42802C402.606 2.48757 402.077 2.82132 400.282 2.94343C394.143 3.36057 397.864 2.47819 398.971 2.32609C399.769 2.38767 400.541 2.45641 401.332 2.52109C401.244 2.43674 401.155 2.35176 401.075 2.26689C391.884 2.26947 399.675 1.71937 395.01 1.56258C393.809 1.97756 390.383 2.01756 386.018 1.75422C385.535 1.75629 385.049 1.75682 384.566 1.75941C384.486 1.81992 384.487 1.9124 384.355 1.95227C379.097 2.02265 378.16 1.38357 377.662 1.32303C375.451 1.05451 373.728 1.42604 373.076 1.42923C370.33 1.44216 369.532 1.27719 366.918 1.34805C364.106 1.42462 366.029 1.5512 365.173 1.6645C364.487 1.75448 362.269 1.77051 361.352 1.86377C361.717 1.78749 362.121 1.71269 362.484 1.63612C359.57 1.53213 357.188 1.43077 353.879 1.40542C350.144 1.96356 346.966 1.02205 348.255 1.78565C351.389 1.83792 353.142 1.92493 354.819 2.1195C352.762 2.14433 350.703 2.16852 348.645 2.19335C348.045 2.10954 347.619 2.02787 346.908 1.94251C345.371 2.12048 341.806 2.04411 340.406 2.09631C333.852 2.34106 335.879 2.64463 329.896 2.13445C334.209 2.08474 334.202 1.83695 338.478 1.8711C337.556 1.69413 335.382 1.7308 336.789 1.51864C332.651 1.57089 333.989 1.76031 332.378 1.92847C330.989 2.07344 328.193 2.08155 328.351 2.26994C328.065 2.16636 327.844 2.06609 327.559 1.96265C324.879 1.96368 322.199 1.96375 319.519 1.96478C320.661 1.85665 321.803 1.74832 322.945 1.6407C322.082 1.59986 321.217 1.55917 320.354 1.51833C313.763 1.85468 302.396 1.23824 304.212 2.08318C301.034 2.11009 300.636 2.00412 298.908 1.84424C298.718 1.90839 298.533 1.96174 298.342 2.03314C296.292 1.96599 294.718 2.20682 292.91 2.14422C291.101 2.0821 290.652 1.85462 290.389 2.23699C289.217 2.1273 288.052 2.03619 286.888 1.93427C286.185 2.02113 285.483 2.107 284.788 2.19335C283.69 2.14782 282.589 2.10247 281.49 2.05694C280.903 2.23947 276.584 2.16079 274.68 2.28337C272.873 2.08662 272.922 1.46713 268.67 1.57814C268.78 1.73179 268.888 1.88499 268.998 2.03863C268.024 2.00656 267.048 1.97458 266.067 1.94251C266.008 1.89236 265.957 1.84221 265.899 1.79206C266.397 1.80758 266.888 1.82302 267.386 1.83906C266.954 1.75419 266.531 1.66972 266.106 1.58486C264.619 1.71058 263.131 1.83631 261.637 1.96204C263.651 2.05723 265.665 2.15248 267.679 2.24767C265.152 2.36047 263.393 2.24795 261.196 2.3737C259.285 2.16157 259.991 2.03935 260.767 1.80915C260.057 1.82881 259.338 1.84778 258.628 1.86744C259.096 1.63721 257.895 1.50003 262.047 1.51864C261.761 1.45297 261.47 1.39036 261.192 1.32211C260.511 1.33246 260.07 1.27696 259.323 1.30228C257.287 1.37162 255.726 1.776 255.865 1.91779C255.94 1.99206 257.947 1.85002 257.867 1.95502C257.668 2.21106 253.063 2.0961 259.705 2.35325C257.501 2.51625 257.008 2.39332 254.577 2.34623C254.767 2.43155 254.952 2.51633 255.135 2.60165C254.008 2.56234 252.879 2.52317 251.751 2.48386C253.319 2.04559 245.006 1.88098 252.489 1.49758C250.278 1.47792 248.074 1.45816 245.87 1.43747C246.324 1.39246 246.778 1.3479 247.232 1.30289C248.228 1.32669 249.218 1.3501 250.214 1.37338C249.042 1.29113 247.869 1.20937 246.697 1.12712C243.929 1.22906 242.844 1.38584 241.577 1.57936C244.799 1.72059 243.746 1.52768 246.256 1.48934C246.169 1.6119 246.285 1.72463 246.065 1.8534C244.768 1.59954 240.536 1.78422 239.555 1.79664C236.569 1.83435 238.911 1.58492 236.913 1.57967C234.914 1.5745 232.556 1.72296 230.922 1.47561C230.952 1.61425 231.082 1.75768 231.199 1.88392C228.087 1.92945 228.708 1.76567 228.386 1.74446C223.244 1.3957 220.455 1.69014 214.574 1.72584C215.321 1.76878 216.075 1.80755 216.83 1.84791C212.393 2.14226 215.382 2.05213 219.234 2.1494C215.623 2.11991 213.555 2.37059 211.007 2.44511C208.458 2.51949 204.088 2.39074 202.491 2.29039C206.145 2.12894 210.087 2.23541 214.144 2.19091C213.683 2.04968 213.235 1.93015 212.759 1.77497C210.291 2.07139 208.861 1.87319 208.048 1.83387C205.661 1.71853 205.736 1.97294 204.294 1.69929C204.352 1.79343 204.395 1.87258 204.454 1.96051C199.525 1.92119 194.209 1.75476 191.001 2.10241C190.708 1.8763 190.487 1.65846 190.15 1.4277C188.063 1.5979 186.276 1.42361 184.519 1.4634C182.768 1.50325 183.435 1.68598 181.377 1.75636C180.996 1.76929 180.203 1.65492 179.265 1.73927C178.319 1.82406 174.828 2.45452 174.41 1.90375C172.646 1.90116 170.975 1.88102 169.247 1.87171C170.931 1.84066 172.616 1.81059 174.293 1.77955C172.858 1.64606 171.432 1.51297 169.996 1.37948C169.813 1.4985 169.63 1.61967 169.454 1.73713C165.587 1.88202 162.781 1.68743 158.877 1.73347C158.226 1.74123 159.763 1.97654 156.871 1.91657C153.979 1.85655 151.832 1.41736 146.904 1.58699C146.655 1.59579 145.195 1.93215 143.43 1.69929C143.029 1.64652 144.719 1.56843 143.797 1.49911C142.874 1.42977 138.757 1.37275 138.435 1.20768C138.479 1.26614 138.736 1.32671 138.86 1.3862C138.157 1.41413 137.447 1.44209 136.737 1.46951C136.671 1.36655 136.6 1.26343 136.534 1.16099C132.492 1.40056 130.402 1.79137 124.412 1.66206C126.097 1.8116 127.782 1.96173 129.459 2.11126C129.92 2.00621 130.382 1.90046 130.836 1.79542C133.597 1.83733 136.365 1.87893 139.126 1.92084C139.58 1.80131 140.026 1.68211 140.48 1.56258C141.212 1.5781 141.937 1.59314 142.669 1.60866C142.486 1.69507 142.302 1.78103 142.111 1.86744C143.561 1.84623 145.013 1.82456 146.455 1.80335C143.518 2.31342 138.254 1.75997 138.634 2.18663C137.982 2.12044 137.33 2.05378 136.679 1.98706C136.393 2.19394 135.068 2.1344 132.733 2.1018C133.268 2.20374 133.858 2.30429 134.349 2.40727C132.078 2.26343 128.051 2.2774 125.7 2.22203C124.668 2.19772 125.699 2.04772 125.392 2.03009C123.817 1.93798 120.808 2.1997 120.178 2.17901C116.414 2.05583 113.967 1.55964 109.859 1.88666C114.099 1.96739 111.792 1.93329 113.301 2.11492C113.773 2.17187 119.252 2.29066 112.392 2.2379C111.588 2.2313 99.1404 1.88847 103.232 1.62575C101.218 1.70958 99.641 1.80651 97.7954 1.89551C93.284 1.20315 94.8453 1.85357 96.1563 2.21166C95.4166 2.21321 94.7129 2.21685 93.9512 2.21685C95.5698 1.84065 87.3238 1.81729 84.5261 2.0072C83.5887 2.07033 86.2098 2.19075 84.0421 2.24767C83.0099 2.22128 81.8389 2.18713 80.7482 2.15764C82.33 2.39566 79.2256 2.48738 79.2691 2.72952C77.2845 2.51375 75.7665 2.05642 76.8572 1.80854C75.2169 1.90891 73.5682 2.00915 71.928 2.11004C72.6896 2.16748 73.4612 2.22441 74.2228 2.28184C68.8618 2.12971 61.9686 2.47589 60.8481 1.96722C60.1377 1.97085 59.4197 1.97398 58.7093 1.9776C58.4896 2.0635 58.2773 2.14956 58.0576 2.23546C54.8432 2.16096 51.6361 2.08597 48.4217 2.01147C51.2838 1.95816 51.9651 1.8359 54.9666 1.93518C53.8099 1.83639 52.6318 1.73705 51.497 1.63826C46.9784 1.90423 46.3619 2.07904 39.5585 1.99988C39.2509 1.99625 34.1104 1.77321 33.9346 1.75148C33.1294 1.65213 34.3518 1.50781 33.9932 1.45761C32.9971 1.31686 26.9447 0.963446 27.0619 0.910148C28.5413 0.256075 48.9049 0.247406 54.4124 0.213771C111.537 -0.134979 167.404 0.331604 224.171 0.251916C224.754 0.250682 224.499 0.154128 224.748 0.149992C226.293 0.125742 227.811 0.276224 228.382 0.282432C229.602 0.295227 228.93 0.156195 229.822 0.156096C239.035 0.157648 247.729 0.239404 256.95 0.215602C257.55 0.214049 256.937 0.325288 257.992 0.305624C258.536 0.294857 260.241 0.124196 261.469 0.121612C265.761 0.112819 269.366 0.167532 273.892 0.164945C276.367 0.163401 280.081 0.177907 282.849 0.175321C284.071 0.174221 285.345 0.0961462 286.552 0.0935376C288.266 0.0899154 287.916 0.248187 288.18 0.258019C289.337 0.300958 289.497 0.127244 290.596 0.131378C292.639 0.139657 292.749 0.255639 295.341 0.245813C297.194 0.238568 301.435 0.146995 303.771 0.120087C309.235 0.254614 316.119 0.201206 321.217 0.156706C324.234 0.130326 324.513 0.292715 325.744 0.292197C330.079 0.289052 333.369 0.0816492 337.44 0.0749228C342.844 0.0661597 347.633 0.203301 352.868 0.213161C353.717 0.214712 353.522 0.0659235 354.355 0.062106C357.438 0.0481346 361.381 0.0210546 364.127 0.0422705C367.188 0.0655859 368.317 0.281554 371.312 0.237573C372.19 0.224514 372.448 0.035151 373.919 0.010839C376.27 -0.0273929 378.847 0.139593 380.488 0.158232C382.736 0.18307 380.781 -0.00984633 383.813 0.0160267C383.937 0.0171436 384.391 0.155046 385.042 0.148466C386.939 0.129838 386.751 0.0212407 389.526 0.03159C389.793 0.0330192 393.473 0.164419 393.839 0.164945C395.992 0.167015 400.327 0.213019 401.602 0.185086C406.157 0.0857329 402.571 -0.121681 406.445 0.328511C408.151 0.218321 409.843 0.106634 411.651 -0.000451922C410.444 0.0994172 415.342 0.24353 415.687 0.234217C418.534 0.159167 416.838 -0.0159987 420.448 0.0129751C415.68 0.417631 425.106 0.0651314 427.208 0.0547822C435.428 0.014027 443.041 0.0729886 451.06 0.0951848C453.048 0.100173 455.062 0.32063 457.061 0.777271C460.641 1.52372 465.196 3.61882 468.155 6.14654C468.847 6.72758 468.266 6.35783 468.862 6.8804C469.447 7.41168 468.872 6.73857 469.532 7.35847C473.565 11.318 475.594 15.3965 477.158 20.2957C477.183 20.548 477.155 20.5468 477.209 20.9602C477.654 22.5032 477.977 24.6767 477.946 26.9229C477.907 30.3172 477.78 33.8853 477.754 35.6446C477.753 35.7388 477.752 35.8316 477.75 35.9229C477.568 40.4064 477.332 41.6694 476.276 44.8771C474.887 49.3335 470.084 54.3716 472.416 52.2901C470.507 54.7956 468.239 56.8928 465.538 58.5736C465.236 58.7592 465.375 58.522 465.254 58.5952C464.486 59.0501 464.286 59.2865 463.756 59.5816C462.307 60.3489 464.628 59.015 462.558 60.0956C461.443 60.6031 460.88 61.1177 457.559 62.0141C455.453 62.5385 453.264 62.8076 451.06 62.8072C433.549 62.809 414.953 62.7792 397.291 62.7644C395.936 62.7633 396.828 62.885 395.129 62.8773C389.226 62.8503 378.66 62.6455 373.57 62.6734C368.48 62.7014 369.629 62.8794 366.444 62.9539C365.829 62.9684 366.333 62.8669 365.776 62.8654C362.034 62.8561 357.572 62.6978 354.54 62.674C352.535 62.6581 352.696 62.8177 351.305 62.8291C349.232 62.8456 347.099 62.6844 345.993 62.6792C340.794 62.6565 337.22 62.7864 332.365 62.7201C332.555 62.7552 332.68 62.7878 332.841 62.8224C327.092 62.8167 321.351 62.811 315.603 62.8053C315.874 62.8373 316.135 62.8697 316.406 62.9023C309.662 62.8847 310.431 62.537 311.025 63.2712C310.534 63.2971 310.014 63.3271 309.545 63.3509C309.736 62.9727 305.656 62.6959 300.464 62.5996C300.083 62.5923 297.528 62.9611 297.806 62.5254C297.139 62.632 296.742 62.7055 296.178 62.7992C295.08 62.6672 293.967 62.5369 292.869 62.4055C292.276 62.4252 291.674 62.4441 291.081 62.4638C290.994 62.5492 291.061 62.6378 290.871 62.7216C288.117 62.7346 282.47 62.629 280.294 62.6399C274.889 62.6673 269.387 62.8981 265.183 62.6487C263.135 62.6741 265.169 62.8417 262.123 62.8205C261.779 62.7357 261.455 62.6544 261.097 62.5669C258.608 62.946 258.087 62.7154 254.677 62.6362C252.37 62.5824 250.859 62.675 248.662 62.657C248.106 62.6523 248.185 62.541 247.804 62.5447C246.528 62.5561 242.889 62.7093 241.989 62.7134C233.831 62.7538 226.822 62.7366 219.052 62.6957C218.217 62.6916 219.3 62.8014 218.436 62.7967C217.045 62.7894 217.863 62.6207 217.058 62.6124C214.811 62.5903 214.794 62.7682 211.66 62.7775C201.342 62.808 189.478 62.6744 178.698 62.6624C178.361 62.6624 178.381 62.7667 178.015 62.7677C175.628 62.7728 173.212 62.6319 171.044 62.6335C167.448 62.6355 164.746 62.782 161.194 62.7815C154.251 62.7809 148.048 62.706 140.907 62.7018C135.063 62.6982 129.987 62.7121 123.579 62.7116C95.5875 62.7095 67.0244 63.0404 38.8424 62.8645C38.1252 62.8598 38.4172 62.7677 38.1985 62.7717C36.1186 62.8115 35.933 62.9358 35.1934 62.6756C32.5438 62.7269 31.7076 62.9224 28.5079 62.9084C27.4434 62.9038 27.5394 62.784 27.0602 62.7327C26.7476 62.6985 26.2223 62.7033 25.0554 62.6805C23.6606 62.6337 23.7168 62.6948 23.0987 62.6511C22.4953 62.5501 21.1051 62.5723 17.2069 61.0347C17.0031 60.9443 16.0534 60.3999 14.5043 59.6367C12.9803 58.8015 14.5765 60.0706 11.0678 57.738C4.91853 53.494 -0.125166 44.9143 0.0354877 35.9229C0.0416501 33.2655 0.0420883 30.6154 0.0301015 28.0215C0.0294421 27.8799 0.0244677 27.4789 0.0166049 26.9229C-0.122704 24.6826 0.649507 20.1774 1.01216 19.1464C1.7734 16.5942 1.37902 17.0209 2.91427 13.8837C4.20096 11.5045 5.62528 9.75574 7.8266 7.49472C8.09567 7.24679 8.37729 6.63742 10.2668 5.16867ZM475.435 31.1759C475.294 30.6384 474.817 29.714 474.844 26.9229C474.847 26.609 474.851 26.2719 474.855 25.9091C474.858 25.573 475.327 27.3574 475.307 25.4117C475.349 25.9187 475.373 26.4174 475.381 26.9229C475.403 28.348 475.415 29.756 475.435 31.1759C475.435 31.1759 475.435 31.1759 475.435 31.1759ZM26.3966 3.13407C23.8106 3.17408 21.2159 3.64038 18.7738 4.5146C20.4291 3.82735 22.1714 3.32704 23.9477 3.02747C24.7744 3.0206 25.5877 3.05741 26.3966 3.13407ZM278.448 59.995C278.446 59.995 278.443 59.995 278.44 59.995C281.297 59.9205 284.155 59.8459 287.011 59.7714C286.711 59.8262 286.41 59.8813 286.109 59.9361C283.854 60.0225 281.598 60.1088 279.35 60.1952C279.05 60.1285 278.748 60.0618 278.448 59.995ZM255.883 60.5758C254.059 60.5106 254.505 60.4006 253.502 60.2935C253.502 60.2937 253.502 60.2939 253.502 60.2941C253.237 60.2662 252.004 60.2418 251.527 60.2376C251.703 60.3065 251.93 60.3744 252.12 60.4427C247.865 60.6093 239.544 60.0172 250.317 59.7787C250.156 59.8656 250.002 59.9521 249.841 60.039C255.195 60.0147 261.163 60.2032 255.883 60.5758ZM451.523 2.80313C451.365 2.81031 451.211 2.81879 451.06 2.82836C446.858 3.08734 445.304 3.13644 439.958 2.94832C440.741 2.86765 441.524 2.78699 442.307 2.70632C443.223 2.7886 444.132 2.87031 445.047 2.95259C445.05 2.95259 445.052 2.95259 445.055 2.95259C445.238 2.86618 445.422 2.77961 445.597 2.6932C447.416 2.72556 449.241 2.75794 451.06 2.7903C451.215 2.79313 451.369 2.79741 451.523 2.80313ZM80.9454 60.3701C79.6716 59.8017 80.0391 60.1321 83.6773 60.0039C84.937 59.9594 83.7093 59.8599 84.493 59.8434C88.7247 59.7529 89.0631 60.1338 88.1187 60.3319C85.7238 60.3454 83.304 60.3577 80.9532 60.3701C80.9506 60.3701 80.948 60.3701 80.9454 60.3701ZM3.62661 19.5302C3.62738 19.5278 3.62815 19.5253 3.62893 19.5229C3.78999 19.4651 3.34083 21.0581 4.01983 19.3122C3.57425 20.6603 3.24744 22.0477 3.04504 23.4613C3.0911 23.0467 3.15108 22.6192 3.21905 22.2071C3.10115 22.5599 2.98994 22.9198 2.88783 23.2813C2.97836 23.8059 2.79522 24.2526 2.65939 25.7534C2.849 25.3462 3.04877 24.949 3.2576 24.5631C3.15794 25.3419 3.09607 26.1286 3.07269 26.9229C3.04527 27.8893 3.01784 28.8559 2.99046 29.8207C2.94756 29.8426 2.90459 29.8651 2.86169 29.887C2.91652 30.5605 2.97195 31.2273 3.02678 31.9008C2.97556 32.0839 2.92481 32.2603 2.87359 32.4433C2.91238 33.256 2.95115 34.0699 2.99046 34.8825C2.875 35.1127 2.82055 33.5773 2.83896 35.9229C2.84034 36.0932 2.84383 36.2841 2.85097 36.4975C2.82078 36.307 2.7928 36.1155 2.76707 35.9229C2.66565 35.1463 2.56437 34.3695 2.46284 33.5868C2.46766 31.3656 2.47259 29.1442 2.47757 26.9229C2.48243 24.4143 2.86847 21.9139 3.62661 19.5302ZM114.045 60.1952C108.794 60.219 110.273 60.1291 111.488 59.8476C112.338 59.9635 113.195 60.0793 114.045 60.1952ZM384.576 60.4458C386.099 60.2538 387.629 60.0637 389.189 59.8785C392.294 59.7714 395.401 60.1213 393.064 60.2584C390.252 60.4229 387.315 60.2388 384.576 60.4458ZM455.189 60.0131C451.498 60.4111 454.946 59.781 455.71 59.4601C456.739 59.4668 458.14 59.1535 460.26 58.3205C458.304 59.1773 455.801 59.9439 455.189 60.0137C455.189 60.0135 455.189 60.0133 455.189 60.0131ZM323.435 60.23C321.913 60.2358 320.398 60.2894 319.037 60.2242C319.448 60.0406 322.171 60.2077 320.223 59.9355C321.197 59.9309 322.172 59.9264 323.139 59.9212C322.524 60.0339 323.351 60.1182 323.431 60.2294C323.433 60.2296 323.434 60.2298 323.435 60.23ZM164.921 59.9789C167.909 60.1962 168.475 60.1032 171.485 59.9526C171.91 60.1296 168.321 60.426 166.072 60.4912C165.691 60.3205 165.309 60.1496 164.921 59.9789ZM117.965 2.7762C118.682 2.55065 123.976 2.52124 126.606 2.58792C126.292 2.62137 125.978 2.65527 125.665 2.68923C123.102 2.71821 120.528 2.74723 117.965 2.7762ZM461.26 57.8994C460.912 58.0541 460.577 58.1946 460.26 58.3205C460.61 58.1743 460.948 58.0295 461.26 57.8994ZM368.647 1.72157C369.899 1.50892 366.177 1.43747 370.696 1.52077C370.696 1.52057 370.696 1.52037 370.696 1.52016C373.684 1.57501 374.343 1.58966 377.112 1.60622C376.115 1.8794 370.499 1.97704 378.24 2.03344C378.342 2.03369 378.139 1.87114 379.375 1.89338C379.757 1.90029 380.979 2.03369 382.837 2.0725C383.438 2.08492 387.951 2.12607 381.799 2.12865C381.982 2.31908 381.652 2.51182 381.666 2.69656C379.265 2.75025 377.42 2.37737 374.879 2.38651C371.108 2.401 369.188 2.77806 368.463 2.28337C371.635 2.16183 377.081 2.15891 377.791 2.4564C380.859 2.46002 381.74 2.21628 379.266 2.0957C368.669 2.24887 376.357 1.73391 367.078 1.92847C366.968 1.99727 366.586 2.07131 366.645 2.13598C363.812 1.89386 368.2 1.79763 368.647 1.72157ZM390.807 2.24767C388.976 2.39307 387.151 2.53965 385.327 2.68557C385.327 2.44858 386.333 2.23591 389.218 2.10241C389.745 2.15101 390.28 2.19958 390.807 2.24767ZM236.788 2.30992C236.525 2.43876 235.822 2.55683 235.309 2.67947C234.752 2.57081 221.569 2.46656 228.276 2.35997C229.25 2.34444 235.192 2.57227 236.788 2.30992ZM144.174 60.1729C145.727 60.2594 147.273 60.3459 148.818 60.4323C146.439 60.4872 144.059 60.5434 141.68 60.5993C142.514 60.4572 143.34 60.315 144.174 60.1729ZM409.85 60.6719C409.194 60.667 411.373 60.4899 408.789 60.5178C410.715 60.4045 412.519 60.3085 414.401 60.2019C414.965 60.2858 415.535 60.3693 416.098 60.4531C416.538 60.3993 416.986 60.3458 417.425 60.292C417.162 60.4141 416.927 60.5334 416.649 60.6575C413.478 60.3957 412.75 60.6926 409.85 60.6719ZM315.556 61.1495C314.985 60.8841 319.577 60.7262 315.06 60.6838C315.917 60.5094 317.295 60.418 319.938 60.4024C320.363 60.4691 320.786 60.5353 321.211 60.602C321.269 60.4236 321.95 60.3572 323.435 60.23C323.437 60.2302 323.438 60.2304 323.439 60.2306C327.459 60.2177 327.218 60.2772 328.185 60.5706C323.93 60.405 323.803 60.673 320.902 60.8324C318.911 60.942 316.31 60.8924 315.556 61.1495ZM250.834 2.30687C247.825 2.53091 250.526 2.73988 245.187 2.50187C245.531 2.44494 245.877 2.38851 246.221 2.33159C247.759 2.32279 249.297 2.31463 250.834 2.30687ZM300.706 60.2398C301.05 60.6506 303.883 60.9704 304.366 60.302C301.605 60.1659 302.954 60.5445 300.706 60.2398ZM454.01 60.8319C452.637 60.9852 451.68 60.9616 451.06 60.9108C449.625 60.7878 450 60.5669 451.06 60.3963C451.299 60.3573 451.572 60.3174 451.864 60.2759C452.194 60.3496 452.528 60.4167 452.859 60.4769C453.767 60.373 454.671 60.2184 455.562 60.0147C455.06 60.3031 454.543 60.5762 454.01 60.8319ZM207.106 60.6911C211.163 60.3977 202.726 60.5279 205.56 60.3448C207.823 60.1983 210.806 60.494 209.678 60.6792C208.894 60.6844 208.022 60.688 207.114 60.6911C207.111 60.6911 207.108 60.6911 207.106 60.6911ZM230.585 60.6072C229.919 60.2937 230.879 60.3851 227.673 60.4415C226.758 60.4575 219.483 60.3398 222.537 60.5996C225.137 60.5996 227.883 60.6041 230.585 60.6072ZM470.785 12.1832C470.968 11.9674 474.105 16.6171 474.165 17.4005C474.165 17.4004 474.165 17.4004 474.165 17.4003C474.758 19.232 472.302 13.9297 473.13 16.3408C470.774 11.2426 468.737 10.6702 469.683 10.3834C471.845 12.9194 470.68 11.8258 470.785 12.1832ZM48.4646 2.13354C48.462 2.13354 48.4594 2.13354 48.4568 2.13354C48.833 2.13996 51.9325 2.34031 51.5556 2.40971C47.8282 2.35021 48.4925 2.21833 45.0224 2.43504C44.8321 2.36524 44.6691 2.29754 44.4643 2.22722C45.8412 2.18582 46.6044 2.10197 48.4646 2.13354ZM222.535 2.03466C223.905 1.99896 226.404 2.14691 227.964 2.13811C222.999 2.70628 217.065 2.17646 222.535 2.03466ZM22.6066 60.0657C22.6104 60.0662 22.6142 60.0667 22.618 60.0672C22.6168 60.0673 22.6152 60.0673 22.614 60.0674C22.6115 60.0668 22.6091 60.0663 22.6066 60.0657ZM328.663 2.37553C328.486 2.33865 328.387 2.30661 328.351 2.27849C328.351 2.27584 328.351 2.2732 328.351 2.27055C328.446 2.30509 328.548 2.34001 328.663 2.37553ZM462.049 4.92881C460.081 3.63734 467.116 7.03979 468.67 9.17515C468.484 9.11388 468.41 9.14887 468.047 8.94181C466.81 7.26623 462.403 5.02653 462.049 4.92881ZM349.795 60.5736C355.939 60.5788 347.943 61.3305 347.613 60.7308C347.625 60.7192 349.636 60.5746 349.795 60.5736ZM473.042 47.1099C472.475 48.5603 474.198 45.9476 471.496 50.1677C471.281 50.3732 471.062 50.5736 470.841 50.7696C471.68 49.6148 472.417 48.3881 473.042 47.1099ZM390.048 61.5605C397.781 61.4337 405.178 61.2101 400.14 60.5825C399.555 60.6026 398.961 60.6221 398.376 60.6423C398.288 60.9485 396.128 60.7813 392.967 60.7714C392.516 60.8929 390.763 60.921 390.434 61.0243C389.798 61.224 391.812 61.3644 390.048 61.5605ZM63.5469 61.0622C63.6714 61.0099 63.7932 60.9574 63.9176 60.9056C65.1408 60.8466 66.367 60.7879 67.5901 60.729C67.3926 60.8293 67.1945 60.9295 66.9969 61.0298C65.8477 61.0407 64.704 61.0516 63.5547 61.0625C63.5521 61.0624 63.5495 61.0623 63.5469 61.0622ZM398.343 1.60164C397.64 2.1769 400.095 2.07095 405.075 1.78016C402.834 1.72065 400.584 1.66115 398.343 1.60164ZM265.776 61.3274C265.615 61.1639 265.456 61.001 265.288 60.8376C262.644 61.0078 263.135 61.195 264.402 61.4113C264.863 61.3834 265.315 61.3553 265.776 61.3274ZM227.693 61.3969C228.79 61.431 228.23 61.2991 228.345 61.3017C231.12 61.3711 231.511 61.4316 234.917 61.3323C235.334 61.2976 235.745 61.2611 236.162 61.2254C234.588 60.883 233.444 61.0696 230.113 60.8684C230.713 60.9859 231.311 61.1035 231.912 61.2215C230.059 61.1966 228.215 61.1722 226.362 61.1473C226.142 61.1835 225.922 61.2194 225.702 61.2557C226.361 61.3022 227.041 61.3545 227.693 61.3969ZM49.4033 60.9136C47.6017 60.9001 45.7918 60.8861 43.9902 60.8727C43.9243 60.957 43.8609 61.0419 43.795 61.1263C45.6621 61.0554 47.5362 60.9844 49.4033 60.9136ZM361.352 1.86377C361.21 1.89369 361.07 1.92379 360.947 1.95441C360.959 1.9171 361.115 1.88797 361.352 1.86377ZM43.711 1.67091C41.6681 1.61193 38.7241 1.65066 36.4831 1.63826C36.6593 1.84985 42.355 1.79136 44.355 1.91962C44.6764 1.88165 44.5746 1.69573 43.711 1.67091ZM446.661 60.985C446.148 61.0905 445.636 61.1956 445.131 61.3011C443.893 61.2897 442.653 61.2777 441.408 61.2663C441.371 61.3528 441.335 61.4399 441.299 61.5263C446.783 61.4141 445.519 61.6633 448.234 61.909C447.707 61.6012 447.188 61.2933 446.661 60.985ZM1.89277 40.2861C2.7283 44.259 3.56261 45.4729 3.04139 43.2737C2.57342 41.947 2.21585 40.5701 1.97693 39.1744C1.94099 39.5446 1.91321 39.9171 1.89277 40.2861ZM289.194 1.66847C285.879 1.76534 285.824 1.41743 282.583 1.61171C284.318 1.67586 286.054 1.74073 287.782 1.80488C288.249 1.75952 288.727 1.71383 289.194 1.66847ZM451.844 0.724517C451.615 0.698864 451.354 0.692198 451.06 0.700852C449.557 0.747561 447.178 1.10084 443.861 0.742614C442.923 0.869367 442.336 0.990438 441.531 1.11461C441.062 0.979547 440.53 0.842764 440.083 0.708741C440.08 0.708741 440.078 0.708741 440.075 0.708741C436.508 0.754278 438.821 0.923663 438.74 1.067C438.702 1.12642 436.055 1.02709 436.883 1.15641C438.311 1.3784 443.647 1.25075 443.662 1.52138C441.787 1.43294 438.126 1.50685 439.209 1.68739C440.395 1.88556 443.845 1.55345 446.042 1.71791C442.894 1.28536 449.397 1.41897 450.136 1.75117C450.514 1.72594 450.819 1.70219 451.06 1.67988C452.125 1.59486 451.945 1.5211 451.06 1.4675C450.118 1.4183 448.371 1.39831 446.534 1.4039C448.922 1.14931 445.407 1.28686 444.829 1.07524C446.135 1.00746 449.127 1.00562 451.06 0.967894C452.834 0.954326 453.765 0.987411 451.844 0.724517ZM357.838 61.6637C360.475 61.6472 364.595 61.7928 366.401 61.5779C367.452 61.4527 363.323 61.3558 366.171 61.1592C363.601 61.1784 363.015 61.2552 363.454 61.4275C362.869 61.4482 362.276 61.4683 361.69 61.4885C361.419 61.4549 361.141 61.4217 360.871 61.3881C360.563 61.459 360.254 61.5293 359.953 61.6002C359.331 61.5862 358.702 61.5722 358.08 61.5578C358.007 61.5934 357.882 61.6244 357.838 61.6637ZM193.994 1.67915C194.727 1.67708 195.452 1.67503 196.184 1.67244C196.103 1.63048 196.007 1.58678 195.915 1.54366C195.848 1.50958 195.782 1.47551 195.716 1.44143C196.14 1.56318 199.628 1.76553 201.098 1.63551C201.836 1.57029 200.155 1.33873 203.287 1.29831C201.017 1.31022 198.915 1.34182 196.711 1.36148C196.909 1.29266 197.098 1.2231 197.296 1.15428C197.295 1.15417 197.294 1.15407 197.292 1.15397C196.56 1.13845 195.819 1.12219 195.087 1.10667C194.721 1.29761 194.361 1.48821 193.994 1.67915ZM267.923 61.6505C270.42 61.5155 271.256 61.4453 270.077 61.227C270.074 61.2269 270.072 61.2268 270.069 61.2267C269.139 61.3234 268.208 61.4201 267.279 61.5169C267.491 61.5614 267.703 61.606 267.923 61.6505ZM339.84 1.14299C334.531 1.97245 346.488 1.46398 344.212 1.18144C344.109 1.1685 340.339 1.23458 339.84 1.14299ZM455.019 60.9512C453.715 61.162 452.391 61.2703 451.06 61.2761C450.906 61.2768 450.753 61.2775 450.599 61.2782C450.751 61.3244 450.906 61.3705 451.06 61.4167C451.251 61.4723 451.443 61.5258 451.634 61.5774C452.777 61.4444 453.917 61.2339 455.019 60.9512ZM10.1832 55.5899C11.1843 56.8579 14.6462 59.2171 16.6217 59.7182C15.6721 59.2694 14.7503 58.7627 13.8649 58.2035C15.5814 59.1883 17.3886 59.9646 19.293 60.5374C19.5021 60.2449 17.1964 59.8677 14.2594 58.0786C13.7668 57.8377 11.2356 55.6221 10.2167 55.0321C9.971 54.9506 12.7655 57.23 10.6924 55.8054C11.534 56.5147 12.3085 57.0708 13.1795 57.6399C13.2024 57.7443 13.2253 57.8484 13.2561 57.957C12.1709 57.2433 11.1474 56.454 10.1832 55.5899ZM373.192 61.6389C376.814 61.6564 377.261 61.5297 378.015 61.3057C376.331 61.3311 374.646 61.356 372.961 61.3814C373.042 61.4671 373.111 61.5528 373.192 61.6389ZM41.7071 61.9108C43.6902 61.9475 42.8408 61.7652 43.6389 61.7305C46.656 61.6001 48.7139 61.7304 51.6942 61.6487C51.4964 61.6839 51.3149 61.7168 51.1244 61.7509C51.1271 61.7509 51.1296 61.7509 51.1322 61.7509C65.2443 61.9046 57.8319 61.4911 49.3877 61.5584C49.1899 61.4906 49 61.4227 48.8023 61.3554C45.0235 61.4739 41.5386 61.588 41.7071 61.9108ZM387.013 1.11461C386.852 1.07217 388.221 0.802526 385.651 0.928762C383.615 1.32246 386.954 1.12705 387.79 1.27848C387.094 1.31625 386.382 1.353 385.694 1.39078C389.854 1.50203 390.461 1.40842 388.945 1.12071C388.837 1.10137 387.174 1.1569 387.013 1.11461ZM359.674 0.920523C359.103 1.5006 364.353 1.23975 364.162 1.05968C363.438 1.0525 362.874 1.15071 362.106 1.10728C361.329 1.06382 361.131 0.928326 359.674 0.920523ZM474.571 46.707C474.651 46.5723 475.489 45.179 475.245 45.2541C474.199 46.9705 472.377 50.4472 472.853 49.9466C473.555 48.8269 473.928 48.0272 474.572 46.7073C474.572 46.7072 474.572 46.7071 474.571 46.707ZM1.00814 33.5712C0.999274 33.6113 0.965853 34.7865 0.952405 35.9229C0.938402 36.9059 1.01198 37.8537 1.07332 38.0844C1.21112 38.5006 1.34326 38.699 1.48548 39.0022C1.34477 38.167 1.24988 36.9934 1.23694 35.9229C1.21112 34.2784 1.17501 32.9132 1.00814 33.579C1.00814 33.5764 1.00814 33.5738 1.00814 33.5712Z" fill="black"/>
</svg>
