<svg width="210" height="107" viewBox="0 0 210 107" fill="none" xmlns="http://www.w3.org/2000/svg">
<g filter="url(#filter0_d_94_156)">
<path d="M11.0897 27.1621C11.0897 13.355 22.2826 2.16211 36.0897 2.16211H178.428C192.235 2.16211 203.428 13.355 203.428 27.1621V71.0642C203.428 84.8713 192.235 96.0641 178.428 96.0641H36.0897C22.2826 96.0641 11.0897 84.8713 11.0897 71.0641V27.1621Z" fill="white"/>
<path d="M13.1064 31.8649C13.3318 30.6685 13.184 34.6626 13.5208 32.0103C13.5435 32.5634 13.567 33.1199 13.5897 33.6729C13.465 33.8132 13.3406 33.9569 13.2159 34.0971C13.1792 33.3545 13.1425 32.6114 13.1058 31.8649C13.106 31.8649 13.1062 31.8649 13.1064 31.8649ZM11.5446 30.8508C11.9002 31.5314 11.9951 33.694 12.3233 31.3578C12.2012 31.1721 12.0792 30.9819 11.9571 30.7962C12.0518 29.9851 12.1465 29.169 12.2406 28.3579C12.1941 28.0663 12.1475 27.7749 12.1015 27.4832C12.1627 27.376 12.224 27.269 12.2854 27.1621C12.4364 26.9097 12.5916 26.6637 12.7504 26.4218C12.7182 26.6655 12.6893 26.9137 12.6645 27.1621C12.6581 27.2302 12.6516 27.2982 12.6453 27.3661C12.8175 28.6699 12.8646 29.8301 12.8967 31.6003C12.9469 31.4448 12.9967 31.289 13.0469 31.1336C12.9615 32.032 12.8759 32.9298 12.7905 33.8244C12.7067 33.0475 12.6135 32.1789 12.5354 31.4588C12.2028 32.611 12.3879 34.6433 12.4573 35.7011C12.552 37.1416 12.3938 36.816 12.46 37.8849C12.4704 38.0555 12.5943 38.0748 12.5964 38.4121C12.6063 40.1143 12.5406 43.4201 12.2513 41.4868C12.2886 38.6853 12.0563 36.2961 12.1411 33.5477C11.8067 34.2747 11.6929 32.8268 11.5446 30.8508ZM14.9418 81.2794C14.4378 80.638 13.8715 79.0895 13.6678 78.0026C13.6674 78.0014 13.667 78.0002 13.6667 77.999C13.6188 77.7596 13.6729 77.1807 13.8883 77.9306C14.2549 79.1462 14.1871 79.8485 14.664 80.3789C14.7449 80.6723 14.8421 80.9761 14.9418 81.2794ZM16.3265 83.7105C16.692 84.4152 16.2696 84.2692 15.8003 83.3779C15.8001 83.378 15.7999 83.3781 15.7998 83.3783C15.6136 83.0027 16.1896 83.6153 15.2753 82.4176C15.2692 82.0731 15.2606 81.7422 15.267 81.4081C15.4298 81.7286 15.5852 82.0155 15.7701 82.3441C15.4176 82.2487 15.9664 83.0045 16.3265 83.7105ZM12.3959 42.909C12.6323 43.0413 12.6308 42.4871 12.7948 41.5433C12.787 42.4341 12.7788 43.325 12.771 44.2119C12.6458 43.7762 12.5211 43.3447 12.3959 42.909ZM12.9339 22.2928C12.9342 22.2916 12.9345 22.2903 12.9347 22.2891C12.955 22.0104 12.9803 21.7313 13.01 21.4572C13.1314 21.3169 13.2534 21.18 13.3775 21.0431C13.5525 20.0863 13.7902 19.1313 14.0868 18.1937C14.2697 18.3963 13.6138 20.0183 13.555 20.991C13.1135 22.3372 12.8764 22.9971 12.6395 23.0515C12.7333 22.7964 12.8312 22.5464 12.9339 22.2928ZM194.169 90.0793C194.386 89.8069 194.592 89.5338 194.795 89.255C194.44 89.5309 194.085 89.8007 193.711 90.0541C192.971 91.0264 192.718 90.8919 191.435 91.7475C187.354 94.0993 188.555 94.0512 184.276 94.6197C187.571 93.7164 186.214 93.7481 187.988 92.7692C188.463 92.7823 186.754 93.9762 188.067 93.5252C190.187 92.3812 192.057 91.0276 193.957 89.2387C193.877 89.2626 193.798 89.2858 193.718 89.3087C193.416 89.5896 193.11 89.8607 192.793 90.1265C193.094 89.7861 193.376 89.4464 193.659 89.0878C193.359 89.6125 194.384 88.583 194.391 88.8812C194.398 89.0177 194.005 89.5555 193.766 89.876C194.573 89.2875 195.363 88.6263 196.101 87.9284C195.798 88.3663 195.48 88.7961 195.148 89.2149C194.831 89.5108 194.508 89.7957 194.176 90.0749C194.173 90.0763 194.171 90.0778 194.169 90.0793ZM62.5099 3.56445C63.814 3.32124 66.1837 3.281 67.4309 3.55163C65.7895 3.55577 64.1513 3.56031 62.5099 3.56445ZM12.446 23.1144C12.5105 22.9815 12.5749 22.8539 12.6416 22.7233C12.6017 23.3493 12.5863 23.9752 12.5962 24.598C12.4646 24.7035 12.3336 24.8122 12.2038 24.924C12.2613 24.3186 12.3424 23.7147 12.446 23.1144ZM12.2391 64.6335C12.2319 64.1566 12.2358 64.1143 12.2528 63.5204C12.2527 63.521 12.2526 63.5217 12.2525 63.5224C12.2589 63.2869 12.3287 61.317 12.4207 61.5366C12.4222 62.5147 12.4207 63.5579 12.4207 64.5587C12.3602 64.589 12.3001 64.5956 12.2391 64.6335ZM12.2928 53.1207C12.293 53.1194 12.2932 53.118 12.2934 53.1167C12.3074 52.7607 12.3358 52.4235 12.341 52.0561C12.4858 53.3787 12.226 53.5878 12.2995 54.7894C12.3735 55.9908 12.5168 56.7334 12.161 57.7529C12.1077 57.3738 12.0314 56.9656 11.9693 56.5752C12.1116 54.8694 11.9777 54.4101 11.8375 53.0419C11.9896 53.0685 12.1407 53.0942 12.2928 53.1207ZM174.096 95.0286C173.77 95.2045 173.407 95.0319 173.369 95.0298C173.37 95.0296 173.371 95.0294 173.371 95.0292C170.484 95.1921 173.747 94.9318 171.022 94.9044C171.427 94.8604 171.826 94.814 172.228 94.7695C172.849 94.8544 173.49 94.9505 174.096 95.0286ZM80.2754 95.0121C80.2489 94.9609 80.2171 94.9096 80.1906 94.8583C81.8282 94.8702 82.2458 94.6686 83.6066 94.8522C82.4961 94.906 81.3859 94.9595 80.2754 95.0127C80.2754 95.0125 80.2754 95.0123 80.2754 95.0121ZM11.93 72.8321C11.8491 72.1967 11.8033 71.6266 11.7887 71.0641C11.7634 70.0494 11.7817 69.0989 11.8808 67.9849C11.881 67.9835 11.8812 67.9822 11.8814 67.9808C11.891 67.8803 11.9982 68.3666 12.0252 68.2354C12.0091 67.8756 11.9845 67.504 11.9654 67.1404C12.0512 67.0912 12.137 67.0442 12.2223 66.995C12.198 68.0184 12.1737 69.0424 12.1494 70.0696C12.1996 69.918 12.2493 69.7627 12.2995 69.6111C12.3139 70.0961 12.3283 70.58 12.3426 71.0641C12.3541 71.4334 12.374 71.8002 12.4021 72.1648C12.2485 71.885 12.0997 71.5994 11.9556 71.3106C11.9313 71.8184 11.9233 72.3217 11.93 72.8321ZM107.539 95.5727C107.251 95.5168 107.784 95.4231 107.337 95.375C106.89 95.3275 106.065 95.4317 106.258 95.274C106.861 95.2528 107.493 95.2285 108.107 95.2062C106.132 94.9217 104.161 95.1792 104.131 94.8278C106.027 94.9189 107.585 94.8766 109.42 94.7793C109.344 95.0582 107.509 95.2993 108.664 95.5611C108.293 95.5647 107.903 95.57 107.543 95.5721C107.542 95.5723 107.54 95.5725 107.539 95.5727ZM26.9158 1.25055C28.0718 0.826552 30.8042 0.0119574 32.3789 0.000507355C32.7692 -0.0206831 34.0725 0.378684 34.0658 0.453669C34.0418 0.682587 32.5578 0.847272 34.1667 0.859032C33.6295 0.899434 33.1093 0.961505 32.5793 1.03616C32.6947 1.17688 32.808 1.31799 32.9164 1.46009C33.5525 1.35896 34.1845 1.28188 34.8274 1.22718C34.8612 1.27685 34.8947 1.3267 34.9281 1.3765C32.6394 1.52905 34.0051 1.63166 32.8547 1.93768C33.9399 1.89369 35.0216 1.91954 36.0897 2.0127C35.4713 2.00004 34.7523 2.02074 34.2076 2.04873C34.1563 2.30897 35.431 2.17767 35.6529 2.23159C36.882 2.36685 30.624 2.75297 30.2605 3.44574C31.2269 3.25208 32.251 3.10906 33.2496 3.03563C32.9691 3.11567 32.6881 3.20105 32.4141 3.29053C30.1359 3.3683 27.6095 4.00115 25.1316 5.05325C24.9187 5.17112 24.7075 5.29249 24.5019 5.41403C24.6202 5.48514 24.7342 5.55835 24.8511 5.63091C24.5383 5.81023 24.2247 5.99919 23.9205 6.19233C24.6612 5.33793 23.3472 6.00617 21.7241 6.86589C22.4333 6.18567 23.514 5.64382 23.3132 5.46766C20.5128 7.30618 17.3868 9.83305 15.6875 12.6543C15.2764 13.3544 15.5122 13.51 14.5479 15.1122C14.5474 15.039 14.4959 14.9974 14.4749 14.9379C13.0577 17.8777 12.4686 19.7595 11.6948 23.0415C11.8439 22.8685 11.9947 22.7022 12.1472 22.5363C12.2224 21.8317 12.328 21.1281 12.4652 20.4298C12.8 20.0252 12.6267 20.712 13.3148 18.7306C13.9378 17.1277 13.488 18.0502 13.6107 17.5928C13.7899 16.9732 14.1675 16.5345 14.404 15.8871C14.5963 15.3893 14.1626 15.8091 14.8929 14.6214C14.7871 15.2096 14.7055 15.8088 14.6479 16.3944C14.4568 16.6693 14.2719 16.9455 14.0913 17.2292C14.1791 16.8996 14.2722 16.5766 14.375 16.2483C13.9294 17.3594 13.5838 18.4348 13.2988 19.6233C13.137 19.1484 12.8419 20.3904 12.7128 21.069C12.5095 22.1215 12.5238 21.1801 12.3977 21.8755C12.2817 22.5774 12.3589 23.3566 12.1723 24.6073C12.1137 23.9142 11.8916 24.825 11.7881 24.6345C11.6774 24.4409 11.8263 23.0747 11.528 24.368C11.4084 26.8991 12.0982 24.2105 12.0569 25.8975C12.0541 26.418 12.0139 26.8356 11.9467 27.1621C11.7562 28.1163 11.3025 28.2682 11.1799 27.8085C11.1431 27.6703 11.1187 27.437 11.0998 27.1621C11.0474 26.4594 11.0876 25.4958 11.0265 25.1328C10.883 26.0501 10.8688 26.6932 10.8953 27.1621C10.9584 28.2188 11.2017 28.3405 11.2647 28.6993C11.5943 30.5719 10.7146 29.3141 11.0328 31.5316C10.8683 31.4899 10.7203 31.4561 10.5625 31.4144C10.5926 31.797 10.6324 32.0511 10.6562 32.5134C10.9768 31.1501 10.963 32.2659 10.9635 32.8386C10.9646 33.7408 11.1209 32.3473 11.1613 32.5861C11.2693 33.2306 11.2202 34.2497 11.3615 33.6244C11.2957 33.9049 11.2298 34.209 11.1646 34.4971C11.2465 35.5512 11.9331 38.0285 11.7945 35.6708C12.0496 35.8907 11.927 36.6534 11.8882 37.2485C11.8494 37.8436 12.0119 37.8325 11.9818 38.3556C11.8618 40.4365 11.5839 39.0753 11.366 38.7455C11.5161 41.4937 11.6154 38.8031 11.7157 42.7635C11.8932 43.1464 12.0826 41.3165 12.1851 42.8403C11.8767 43.121 11.6552 44.243 11.5528 46.43C11.6237 46.6423 11.6952 46.8541 11.7661 47.0664C11.4815 48.2605 11.1855 47.6502 11.5384 49.8602C10.889 48.6737 11.3045 49.4895 11.0401 51.4683C10.9868 51.8701 10.8521 50.9415 10.7838 51.5026C10.753 51.7569 10.8547 52.3744 10.7762 52.9955C10.7374 53.2987 10.487 54.7166 10.6059 55.6984C10.9205 54.9781 11.1881 56.8436 11.4484 55.2439C11.3843 58.2008 11.5353 60.2702 11.1063 56.957C11.0111 57.7076 10.9163 58.4588 10.8216 59.2094C10.8967 59.7326 10.9711 60.2602 11.0456 60.7871C10.787 60.8666 10.7145 60.7868 10.76 62.8477C10.699 61.9534 10.6369 61.0629 10.5754 60.1649C10.5231 60.1346 10.4689 60.0097 10.4182 60.0397C10.5175 61.1395 10.5603 64.2365 10.6291 64.987C10.6979 65.7376 10.7167 64.2881 10.7835 64.5042C11.3339 66.3045 10.928 66.1617 11.0224 67.4536C11.0783 68.2117 11.139 66.4015 11.1628 66.8071C11.25 68.3111 10.9575 69.0088 10.9538 70.3424C11.1198 69.8686 11.2884 69.3987 11.4561 68.9363C11.4517 69.6235 11.4492 70.3493 11.454 71.0641C11.4588 71.7981 11.505 72.512 11.5871 73.1595C11.6523 73.6564 11.7415 73.2681 11.757 73.3488C11.8211 73.7511 12.1256 75.3637 12.1709 75.5309C12.4268 76.8087 12.2707 76.8857 12.6126 78.1179C12.4551 77.6428 12.3201 77.1875 12.1942 76.7143C11.873 76.5607 11.5521 76.394 11.2332 76.2233C11.4759 77.4985 11.8178 78.7561 12.2559 79.9837C12.0086 79.0595 11.8141 78.1225 11.6753 77.1849C12.2498 78.5601 12.942 79.8642 13.7337 81.0798C13.9134 81.8164 14.1287 82.5491 14.3817 83.278C15.4621 85.0421 15.7311 84.3472 15.8746 85.4306C16.259 85.8993 16.6603 86.3535 17.0757 86.791C16.967 86.7692 16.8587 86.7475 16.7498 86.7241C17.2443 87.2657 17.7608 87.7841 18.2986 88.2773C17.9437 87.5548 17.65 86.8273 17.376 86.104C18.2986 87.1421 18.1847 87.2811 18.2828 87.4755C18.5544 87.9842 19.4723 88.6261 19.7145 89.0126C19.7919 89.1531 18.6936 88.2959 18.9276 88.7407C18.9573 88.8277 19.9586 90.5608 21.04 91.1769C21.0852 91.0783 21.0887 90.9181 21.1197 90.7967C22.4393 91.7101 22.8751 92.5823 22.6055 92.6069C23.4059 92.9915 24.5454 93.5823 24.7837 93.5066C25.1843 93.7042 25.5849 93.8888 25.9949 94.0645C25.3932 94.2613 27.1661 94.9247 27.4069 94.6155C26.6912 94.3422 25.9893 94.0358 25.3042 93.6989C26.0327 93.5022 23.9647 92.4933 28.2581 94.573C29.0519 95.0859 26.7356 94.0031 27.3814 94.4108C28.5677 94.9577 29.7674 95.2139 30.9494 95.622C32.4335 96.075 30.5197 96.0617 34.1532 96.2117C28.0274 94.8 32.235 95.775 36.0897 95.7475C37.15 95.7303 38.1854 95.7068 38.9799 95.6652C40.0034 96.2861 43.1473 96.4828 47.4765 96.2981C47.0254 96.1253 45.6634 96.2143 44.8787 96.1574C44.0941 96.1005 44.9429 95.998 43.9655 95.9172C42.9878 95.8365 40.911 95.7268 39.9212 95.6048C40.7595 95.5069 44.8976 95.2757 42.1616 95.5535C44.2041 95.7247 45.1633 95.9007 47.6947 95.9328C48.4528 95.6632 48.3968 95.4954 50.8643 95.4876C49.4049 95.8622 52.2089 96.1225 51.5915 96.5096C49.8417 96.4194 50.8197 96.0433 49.8078 95.8632C49.704 95.8452 48.0736 95.9395 47.6947 95.9328C49.3399 96.2707 49.9089 96.3965 48.8967 96.7985C50.0605 96.7634 50.7844 96.8138 50.8906 96.6219C51.1331 96.7051 51.377 96.7885 51.6158 96.8718C51.9945 96.8697 52.3355 96.862 52.737 96.8635C52.184 96.574 53.2558 96.7522 54.0177 96.6209C54.7797 96.4895 53.7574 96.2609 55.85 96.2578C55.1525 96.19 54.5148 96.1319 53.84 96.0677C55.1893 95.9932 56.543 95.9182 57.8923 95.8437C56.9446 95.6668 54.8908 95.4039 54.947 95.1711C55.5685 95.259 57.6977 95.1045 57.9307 95.0982C58.833 95.0744 58.3412 95.2212 58.4095 95.2248C59.8269 95.2962 60.9944 95.2462 61.5326 95.4687C62.5977 95.3683 63.401 95.4255 64.5305 95.4198C65.1522 95.4167 65.0313 95.2533 65.3951 95.2843C67.8136 95.4913 65.5095 95.7025 70.1747 95.3005C69.61 95.1867 69.0527 95.0702 68.4879 94.9554C69.0149 94.9124 69.5387 94.8692 70.0657 94.8263C70.4182 94.847 70.7676 94.8678 71.1202 94.8885C71.1126 95.1354 71.1035 95.3827 71.0959 95.6295C71.4826 95.6429 71.8708 95.656 72.2575 95.6694C71.5941 95.6938 70.9291 95.7181 70.2657 95.7424C70.2051 95.7858 70.1485 95.8293 70.0879 95.8727C71.0735 95.94 72.0557 96.0078 73.0413 96.0756C73.0602 95.9898 73.0789 95.9033 73.0979 95.8175C75.3193 95.937 75.3722 96.0097 77.4836 95.7732C79.1099 95.7758 80.4342 95.4168 81.3744 95.2657C81.7117 95.3138 82.0494 95.3626 82.3905 95.4107C82.6066 95.3393 82.8249 95.2682 83.041 95.1968C83.4693 95.2961 83.9035 95.3955 84.3318 95.4943C84.5706 95.2688 84.6942 95.1984 83.0228 95.1192C83.5953 94.8388 86.5379 94.9625 87.7358 95.0567C88.6445 95.1282 87.6362 95.3621 87.7499 95.3905C88.1294 95.4872 89.6272 95.4038 89.9417 95.4198C91.2723 95.4866 92.2046 95.4749 93.4063 95.5266C93.6402 95.537 94.2942 95.6852 94.3497 95.6899C94.7818 95.7153 95.8485 95.7873 95.9698 95.7894C102.227 95.9 95.541 95.2569 101.36 95.3246C101.185 95.2398 101.025 95.1555 100.855 95.0707C101.294 95.0656 101.738 95.0606 102.178 95.0555C102.735 95.1264 102.061 95.2553 103.168 95.1513C103.096 95.2558 103.023 95.3604 102.947 95.4644C103.429 95.408 103.893 95.352 104.386 95.2956C105.159 95.6584 107.982 95.7407 107.782 96.1666C107.713 96.3114 105.712 96.4601 106.769 96.6148C107.629 96.6453 107.047 96.4723 107.398 96.4632C109.93 96.4 109.783 96.6426 110.818 96.5779C110.981 96.474 111.152 96.368 111.319 96.263C111.709 96.2935 112.1 96.324 112.495 96.3545C112.585 96.2847 112.68 96.2148 112.771 96.1449C112.404 96.1402 111.99 96.1355 111.652 96.1309C112.123 95.8603 116.443 95.7387 114.795 95.9694C114.125 96.0631 112.896 96.0233 113.672 96.3429C114.828 96.2969 116.14 96.2498 117.357 96.2038C117.395 96.2726 117.43 96.3416 117.468 96.4104C119.108 96.3658 117.617 96.0907 117.62 95.9432C117.995 95.939 118.374 95.9354 118.749 95.9313C118.908 95.998 119.059 96.0678 119.226 96.1324C119.241 96.0263 119.451 95.7796 120.569 95.8712C121.288 95.9308 120.156 96.1985 121.527 96.1614C121.424 95.9958 120.929 95.7942 122.456 95.7409C122.607 95.9137 122.817 96.0719 122.935 96.2535C124.833 96.0875 125.697 96.3544 127.926 96.1614C129.34 96.0392 131.277 95.6057 132.191 96.2737C133.225 96.2913 132.897 96.1249 133.203 96.0875C134.647 95.9105 135.722 96.2273 135.991 96.2459C137.707 96.3653 138.477 96.2557 139.875 96.4052C139.8 96.2815 139.758 96.1645 139.698 96.0439C138.416 96.2291 137.767 96.2204 135.97 96.1806C136.573 96.1558 137.176 96.1304 137.778 96.1055C137.68 96.0052 137.582 95.9048 137.488 95.8049C131.93 96.2003 133.227 95.5757 137.886 95.4391C138.287 95.6248 138.704 95.81 139.102 95.9963C141.793 95.7148 143.06 95.9592 146.103 96.0176C146.465 96.0243 147.783 95.9173 148.35 95.9121C148.34 95.9113 148.331 95.9106 148.322 95.9099C148.674 95.7345 148.197 95.6538 148.14 95.497C148.447 95.4774 148.754 95.4578 149.061 95.4381C149.747 95.5576 149.506 95.6558 150.855 95.6273C150.673 95.5083 150.493 95.3893 150.311 95.2703C151.79 95.2662 152.757 95.3955 154.133 95.3396C153.902 95.3846 153.674 95.4297 153.443 95.4748C156.437 95.5896 154.054 96.2893 156.317 95.941C156.461 96.0021 156.602 96.0637 156.746 96.1247C155.813 96.1398 154.88 96.1543 153.952 96.1693C153.933 96.2557 153.912 96.3417 153.897 96.4281C154.894 96.4022 155.896 96.3755 156.893 96.3497C156.165 96.4076 155.433 96.4656 154.705 96.5236C155.861 96.565 157.018 96.6064 158.174 96.6478C156.946 96.3302 158.538 96.2913 158.238 95.9767C160.285 96.2386 161.893 96.5837 165.066 96.3628C165.695 96.3188 165.354 96.0989 167.139 96.3664C166.707 96.0167 168.944 95.8526 168.656 95.5199C168.035 95.536 167.39 95.546 166.788 95.5657C167.474 95.6811 167.587 95.9985 166.545 96.0927C165.215 96.2128 163.274 95.9928 163.353 96.3451C162.823 96.3285 162.329 96.3188 161.814 96.3048C162.026 96.2174 162.234 96.1294 162.442 96.0421C160.976 96.1791 160.054 96.1345 159.349 95.9142C161.097 95.8635 162.84 95.8133 164.588 95.7631C164.33 95.7482 164.069 95.733 163.812 95.7186C165.135 95.4935 163.77 95.2803 166.238 95.2322C166.223 95.3351 166.211 95.4381 166.196 95.5416C167.094 95.2663 169.554 95.2678 168.769 94.9511C169.512 95.0484 169.664 95.1099 170.084 94.9392C172.044 95.1798 173.303 95.4841 172.606 95.8474C173.333 95.7889 174.061 95.7304 174.785 95.6719C174.365 95.5726 173.943 95.4737 173.523 95.3744C174.789 95.3806 176.064 95.3867 177.327 95.3924C177.448 95.6862 174.89 95.4815 175.628 95.7442C175.775 95.7969 176.457 95.684 176.636 95.7137C178.523 96.035 175.56 95.8029 176.117 96.0491C178.094 96.1025 177.569 96.3222 178.428 96.3277C178.798 96.3271 179.413 96.2978 180.563 96.1016C180.672 96.1775 180.79 96.2537 180.894 96.3284C182.254 96.1841 182.117 96.0029 183.254 95.7615C183.96 95.6034 184.941 95.7129 185.655 95.2591C185.77 95.1626 184.4 95.219 187.058 94.3311C189.086 93.5435 188.359 94.1392 189.486 93.7333C190.642 93.3285 192.726 91.534 193.62 91.3891C193.08 91.7195 192.402 92.1482 191.784 92.474C191.591 92.6997 191.399 92.9178 191.2 93.1359C192.532 92.2384 193.95 91.3538 194.639 90.4954C196.515 89.3844 197.855 87.319 197.15 87.5745C196.727 88.1241 197.355 87.6768 196.623 88.3145C196.493 88.3274 196.36 88.3434 196.231 88.3541C197.369 87.1931 198.043 86.2757 197.781 87.0255C197.948 86.833 198.11 86.6397 198.272 86.442C198.151 86.2905 198.026 86.1432 197.904 85.9931C198.068 85.7439 198.229 85.4915 198.383 85.2372C198.609 84.9922 198.83 84.7414 199.048 84.4835C199.037 85.0122 198.661 85.719 200.152 83.5931C200.067 83.535 199.984 83.4741 199.898 83.4162C201.032 81.5986 201.333 81.6535 202.259 79.082C201.911 81.2038 200.767 81.9598 201.428 82.2667C201.151 82.728 200.858 83.1805 200.553 83.6207C200.604 83.7425 200.654 83.8645 200.704 83.9843C202.236 81.4521 202.971 76.7174 203.603 74.904C203.583 74.6677 203.566 74.4318 203.536 74.1922C203.885 72.8952 203.663 72.0816 203.632 71.0642C203.617 70.6503 203.638 70.1978 203.741 69.6546C203.778 69.4618 204.355 69.8653 204.335 67.4325C204.26 67.4931 204.133 67.5246 204.039 67.5739C204.085 67.0471 204.133 66.5231 204.18 66.0002C204.111 65.9054 204.041 65.806 203.971 65.7113C203.945 66.6098 203.917 67.5057 203.89 68.4041C203.866 67.6576 203.843 66.9063 203.819 66.1598C203.706 67.1338 203.704 67.5731 203.523 66.986C203.512 66.1406 203.5 65.2941 203.49 64.4487C203.443 64.3617 203.396 64.2752 203.349 64.1881C203.211 64.5975 203.075 65.011 202.934 65.4204C203.048 63.218 203.054 61.3032 203.327 59.6125C203.373 59.3244 203.553 60.3433 203.39 58.3802C203.486 58.3499 203.564 58.2972 203.652 58.2631C203.384 55.8596 203.464 55.0701 203.658 52.5643C203.477 54.1868 203.595 52.7391 203.498 52.3259C203.431 52.0428 203.441 53.1478 203.371 53.0229C203.302 52.8978 203.022 51.4618 202.988 52.6895C203.562 55.6995 202.876 56.5195 203.152 60.3862C203.078 59.7911 203.004 59.1916 202.93 58.5964C202.879 58.8767 202.834 59.1277 202.781 59.4307C202.893 57.2741 202.82 58.323 202.732 57.4368C202.643 56.5498 202.568 54.9376 202.544 53.8572C202.536 53.5168 202.665 53.8758 202.677 53.1077C202.685 52.5846 202.494 51.155 202.719 50.825C202.865 50.6089 203.269 52.9055 203.268 49.73C203.411 49.1323 203.367 50.6548 203.384 50.6876C203.555 50.9643 203.683 49.0121 203.553 48.1099C203.541 48.0368 203.408 48.7493 203.356 47.9745C203.231 46.136 203.384 45.0741 203.591 43.8838C203.348 43.7549 203.059 42.2077 203.149 40.2819C203.079 40.1834 203.009 40.0895 202.94 39.991C202.976 40.29 203.013 40.5889 203.049 40.8879C203.006 41.2139 202.974 41.5593 202.923 41.8778C202.863 39.9411 202.53 39.6672 202.407 38.7385C201.99 35.5604 202.873 37.4865 203.025 38.0597C202.963 38.4729 202.894 38.8725 202.83 39.2819C202.914 39.2364 202.999 39.1903 203.084 39.1486C203.081 34.3912 203.632 38.4241 203.788 36.0093C203.373 35.3876 203.333 33.6141 203.597 31.3549C203.595 31.1047 203.594 30.8536 203.591 30.6034C203.531 30.5618 203.438 30.5624 203.399 30.4943C203.338 28.1664 203.797 27.4748 203.969 27.1621C203.998 27.1077 204.019 27.0644 204.028 27.026C204.29 25.8427 203.832 24.9448 203.796 24.6109C203.623 23.1721 203.713 22.7264 203.348 21.3858C202.919 19.961 203.039 20.9792 202.818 20.5722C202.644 20.2467 202.289 19.1461 202.034 18.7326C202.169 18.8845 202.309 19.0596 202.441 19.2162C202.053 17.7385 201.66 16.5307 200.854 14.9777C199.44 13.5356 199.198 11.6957 198.974 12.6756C199.865 14.0429 200.224 14.8947 200.453 15.7452C199.944 14.8192 199.377 13.9257 198.755 13.0746C198.648 12.7744 198.587 12.5484 198.436 12.2031C197.832 11.663 196.692 10.2286 196.136 9.76172C193.514 7.62382 194.149 8.56369 191.943 6.37837C193.793 7.58497 193.954 7.39645 195.582 8.90468C195.359 8.44313 194.468 7.72802 195.165 8.05052C193.468 6.68853 193.876 7.30683 193.113 6.93434C192.453 6.61805 191.232 5.86307 191.201 6.07168C191.13 5.90752 191.084 5.76327 191.009 5.59958C189.813 4.90134 188.558 4.3019 187.263 3.81284C187.854 3.9209 188.443 4.05079 189.031 4.20429C188.639 3.97756 188.237 3.76034 187.831 3.55452C184.563 2.38316 178.629 1.40307 179.542 2.34696C179.07 2.33419 178.715 2.32709 178.428 2.31424C177.726 2.28333 177.438 2.197 176.803 2.0835C176.704 2.14765 176.609 2.201 176.51 2.2724C175.449 2.20525 174.634 2.44608 173.698 2.38347C172.762 2.32135 172.529 2.09387 172.393 2.47624C171.787 2.36656 171.184 2.27545 170.581 2.17352C170.217 2.26039 169.854 2.34626 169.494 2.43261C168.926 2.38707 168.356 2.34173 167.787 2.2962C167.483 2.47872 165.248 2.40005 164.262 2.52263C163.326 2.32588 163.352 1.70639 161.151 1.8174C161.208 1.97105 161.264 2.12425 161.321 2.27789C160.817 2.24581 160.311 2.21384 159.804 2.18176C159.773 2.13162 159.747 2.08147 159.717 2.03132C159.974 2.04684 160.229 2.06228 160.486 2.07831C160.263 1.99345 160.044 1.90898 159.824 1.82412C159.054 1.94984 158.284 2.07557 157.511 2.20129C158.553 2.29648 159.596 2.39173 160.638 2.48692C159.33 2.59973 158.42 2.48721 157.282 2.61296C156.293 2.40083 156.658 2.2786 157.06 2.04841C156.693 2.06806 156.321 2.08704 155.953 2.10669C156.196 1.87647 155.574 1.73929 157.723 1.7579C157.575 1.69223 157.424 1.62962 157.28 1.56137C156.928 1.57172 156.699 1.51621 156.313 1.54154C155.259 1.61088 154.451 2.01526 154.523 2.15705C154.562 2.23132 155.601 2.08928 155.559 2.19428C155.456 2.45031 153.073 2.33536 156.511 2.59251C155.37 2.75551 155.115 2.63258 153.856 2.58549C153.955 2.67081 154.05 2.75559 154.145 2.84091C153.562 2.8016 152.977 2.76243 152.394 2.72312C153.205 2.28485 148.902 2.12024 152.775 1.73684C151.631 1.71718 150.49 1.69742 149.349 1.67672C149.584 1.63171 149.819 1.58716 150.054 1.54215C150.57 1.56595 151.082 1.58936 151.598 1.61264C150.991 1.53039 150.384 1.44862 149.778 1.36637C148.345 1.46831 147.783 1.6251 147.127 1.81862C148.795 1.95985 148.25 1.76694 149.549 1.7286C149.504 1.85116 149.564 1.96389 149.45 2.09266C148.779 1.83879 146.589 2.02348 146.081 2.0359C144.535 2.07361 145.747 1.82417 144.713 1.81893C143.678 1.81375 142.458 1.96222 141.612 1.71487C141.627 1.8535 141.695 1.99694 141.756 2.12317C140.145 2.16871 140.466 2.00493 140.299 1.98371C137.638 1.63496 136.194 1.9294 133.15 1.9651C133.537 2.00804 133.927 2.04681 134.318 2.08716C132.021 2.38152 133.568 2.29139 135.562 2.38866C133.693 2.35917 132.623 2.60985 131.304 2.68436C129.984 2.75875 127.722 2.63 126.896 2.52965C128.787 2.3682 130.828 2.47467 132.928 2.43016C132.689 2.28893 132.457 2.16941 132.211 2.01423C130.933 2.31065 130.193 2.11245 129.772 2.07313C128.537 1.95779 128.576 2.2122 127.829 1.93855C127.859 2.03269 127.881 2.11184 127.912 2.19977C125.361 2.16044 122.609 1.99402 120.948 2.34167C120.797 2.11556 120.682 1.89772 120.508 1.66696C119.428 1.83716 118.503 1.66287 117.593 1.70266C116.687 1.7425 117.032 1.92524 115.967 1.99562C115.77 2.00855 115.359 1.89418 114.874 1.97853C114.384 2.06332 112.577 2.69378 112.361 2.14301C111.447 2.14042 110.583 2.12028 109.688 2.11097C110.56 2.07992 111.432 2.04985 112.3 2.01881C111.557 1.88532 110.819 1.75223 110.076 1.61874C109.981 1.73776 109.886 1.85893 109.795 1.97639C107.794 2.12128 106.341 1.92669 104.321 1.97273C103.983 1.98049 104.779 2.2158 103.282 2.15583C101.785 2.0958 100.674 1.65662 98.1228 1.82625C97.9939 1.83505 97.2385 2.17141 96.3249 1.93855C96.117 1.88578 96.992 1.80768 96.5148 1.73837C96.0371 1.66903 93.9059 1.61201 93.7391 1.44694C93.7619 1.50539 93.8949 1.56596 93.9593 1.62546C93.5955 1.65339 93.228 1.68135 92.8604 1.70876C92.8263 1.6058 92.7894 1.50269 92.7553 1.40025C90.6628 1.63982 89.5814 2.03063 86.4808 1.90132C87.3526 2.05085 88.2248 2.20098 89.0928 2.35052C89.3317 2.24547 89.5709 2.13972 89.8059 2.03468C91.2349 2.07658 92.6678 2.11819 94.0967 2.1601C94.3317 2.04056 94.5626 1.92137 94.7977 1.80184C95.1767 1.81736 95.552 1.8324 95.931 1.84792C95.8362 1.93433 95.7407 2.02028 95.6421 2.10669C96.3925 2.08548 97.1439 2.06382 97.8905 2.04261C96.3705 2.55267 93.6456 1.99923 93.8422 2.42589C93.505 2.35969 93.1673 2.29303 92.8301 2.22632C92.6822 2.4332 91.9965 2.37366 90.7877 2.34106C91.0645 2.443 91.3701 2.54355 91.6241 2.64652C90.4489 2.50269 88.3643 2.51665 87.1474 2.46129C86.613 2.43697 87.1468 2.28698 86.9878 2.26934C86.1728 2.17724 84.615 2.43896 84.2889 2.41826C82.3405 2.29509 81.0743 1.79889 78.9477 2.12592C81.1427 2.20664 79.9485 2.17255 80.7295 2.35418C80.9739 2.41113 83.8096 2.52992 80.2588 2.47716C79.8425 2.47056 73.3997 2.12772 75.5175 1.86501C74.475 1.94884 73.6588 2.04577 72.7035 2.13477C70.3683 1.4424 71.1765 2.09283 71.855 2.45092C71.4722 2.45247 71.1079 2.4561 70.7137 2.4561C71.5515 2.07991 67.2832 2.05655 65.835 2.24646C65.3498 2.30959 66.7066 2.43 65.5845 2.48692C65.0503 2.46054 64.4441 2.42638 63.8796 2.3969C64.6983 2.63492 63.0914 2.72664 63.1139 2.96877C62.0867 2.75301 61.3009 2.29568 61.8655 2.0478C61.0165 2.14817 60.1631 2.24841 59.3141 2.3493C59.7083 2.40673 60.1077 2.46367 60.5019 2.5211C57.7269 2.36897 54.1589 2.71515 53.5789 2.20648C53.2112 2.2101 52.8396 2.21324 52.4719 2.21686C52.3581 2.30276 52.2482 2.38882 52.1345 2.47472C50.4707 2.40022 48.8106 2.32523 47.1468 2.25073C48.6283 2.19742 48.9809 2.07516 50.5346 2.17444C49.9358 2.07565 49.326 1.97631 48.7387 1.87752C46.3997 2.14349 46.0806 2.31829 42.5591 2.23913C42.3999 2.23551 39.739 2.01247 39.6481 1.99073C39.2312 1.89139 39.864 1.74707 39.6784 1.69686C39.1628 1.55611 36.03 1.2027 36.0906 1.14941C36.8564 0.495333 47.3969 0.486664 50.2477 0.453029C79.8166 0.104278 108.734 0.570862 138.117 0.491174C138.419 0.48994 138.288 0.393386 138.416 0.38925C139.216 0.365 140.001 0.515481 140.297 0.52169C140.929 0.534485 140.581 0.395452 141.043 0.395353C145.812 0.396906 150.312 0.478662 155.085 0.45486C155.395 0.453307 155.078 0.564546 155.624 0.544882C155.906 0.534115 156.788 0.363454 157.424 0.36087C159.645 0.352077 161.511 0.40679 163.854 0.404203C165.135 0.402658 167.057 0.417165 168.49 0.414578C169.123 0.413479 169.782 0.335404 170.407 0.332795C171.294 0.329173 171.113 0.487445 171.25 0.497277C171.849 0.540216 171.931 0.366501 172.5 0.370635C173.558 0.378915 173.615 0.494897 174.957 0.485071C175.71 0.47938 177.226 0.421647 178.428 0.384104C178.781 0.373818 179.108 0.372126 179.385 0.376122C182.41 0.575577 186.163 1.37877 188.777 2.47055C190.325 3.1118 190.376 3.35983 190.978 3.66867C193.075 4.80447 194.689 5.70485 196.388 7.20531C198.621 9.21988 200.194 11.4119 201.628 13.919C201.858 14.3283 201.936 14.1626 202.159 14.5683C202.99 16.0693 203.83 18.1103 204.227 19.5892C204.665 21.2405 204.581 21.8966 204.867 23.5241C204.942 24.0013 205.154 24.1255 205.249 24.937C205.332 25.6762 205.318 26.456 205.272 27.1621C205.237 27.6641 205.201 28.1239 205.193 28.4924C205.168 29.6562 205.361 28.6441 205.335 30.2135C205.334 30.278 205.196 30.5128 205.202 30.8499C205.221 31.8317 205.33 31.7343 205.319 33.171C205.318 33.3089 205.186 35.2139 205.186 35.4033C205.184 36.5177 205.138 38.7615 205.166 39.4213C205.265 41.7793 205.473 39.9229 205.022 41.9283C205.133 42.8113 205.244 43.687 205.351 44.6231C205.251 43.9984 205.107 46.5338 205.117 46.712C205.192 48.1858 205.367 47.3079 205.338 49.1765C204.933 46.7086 205.286 51.5874 205.296 52.6754C205.346 57.9142 205.245 62.6762 205.248 67.9415C205.248 68.8696 205.272 69.9638 205.295 71.0642C205.316 72.1302 205.268 73.1979 205.158 74.1421C205.103 74.6072 205.051 74.2449 204.996 74.6515C204.939 75.0562 205.109 74.6219 205.036 75.0836C204.545 77.9729 203.654 80.0789 202.758 82.5987C202.669 82.7003 202.645 82.6842 202.515 82.8598C201.826 84.9787 199.076 88.2459 197.924 89.2985C196.174 91.0162 195.767 91.5127 194.33 92.5785C192.426 94.0133 189.084 95.2623 190.727 94.9995C189.283 95.7589 187.818 96.3587 186.228 96.7935C186.051 96.8413 186.136 96.6844 186.065 96.7029C185.617 96.8159 185.501 96.9628 185.198 97.0479C184.379 97.2684 185.688 96.8052 184.525 97.1281C183.906 97.2815 183.577 97.4931 181.816 97.735C180.699 97.8765 179.572 97.9482 178.428 97.9485C169.364 97.9503 159.739 97.9205 150.596 97.9057C149.895 97.9046 150.357 98.0263 149.477 98.0186C146.422 97.9916 140.953 97.7868 138.318 97.8147C135.683 97.8427 136.278 98.0207 134.629 98.0952C134.311 98.1097 134.572 98.0082 134.284 98.0067C132.347 97.9974 130.037 97.8391 128.468 97.8153C127.43 97.7994 127.513 97.959 126.793 97.9704C125.72 97.9869 124.616 97.8257 124.044 97.8205C121.353 97.7978 119.502 97.9277 116.989 97.8614C117.088 97.8965 117.153 97.929 117.236 97.9636C114.26 97.958 111.288 97.9522 108.313 97.9466C108.453 97.9786 108.589 98.011 108.729 98.0436C105.238 98.026 105.636 97.6783 105.943 98.4125C105.689 98.4384 105.42 98.4684 105.178 98.4922C105.276 98.1139 103.164 97.8372 100.477 97.7409C100.28 97.7336 98.957 98.1024 99.101 97.6667C98.7561 97.7733 98.5505 97.8468 98.2586 97.9405C97.6902 97.8085 97.114 97.6782 96.5456 97.5468C96.2386 97.5665 95.9273 97.5854 95.6203 97.6051C95.5748 97.6905 95.6098 97.7791 95.5112 97.8629C94.0861 97.8759 91.1629 97.7703 90.0367 97.7812C87.239 97.8086 84.3907 98.0394 82.2147 97.79C81.1548 97.8154 82.2074 97.983 80.631 97.9618C80.4528 97.877 80.2854 97.7957 80.0997 97.7082C78.8113 98.0873 78.5421 97.8567 76.7765 97.7775C75.5825 97.7237 74.8006 97.8163 73.6635 97.7982C73.3754 97.7936 73.4162 97.6823 73.2191 97.686C72.5589 97.6974 70.6752 97.8506 70.2091 97.8547C65.9864 97.8951 62.3586 97.8779 58.3368 97.837C57.9046 97.8329 58.4649 97.9427 58.0176 97.938C57.298 97.9307 57.7214 97.762 57.3045 97.7537C56.1416 97.7316 56.1327 97.9095 54.5106 97.9188C49.1695 97.9493 43.0285 97.8156 37.4486 97.8037C37.2742 97.8037 37.2846 97.908 37.0951 97.909C36.7601 97.9104 36.424 97.9011 36.0897 97.8867C35.1222 97.8485 34.1814 97.7209 33.3155 97.6323C31.3419 97.4184 29.8347 97.2534 27.9443 96.6649C24.2679 95.4723 21.2312 93.6713 18.27 91.0537C15.8749 88.8796 14.0539 86.6665 12.3739 83.5327C10.364 79.7282 9.2703 75.4116 9.24392 71.0641C9.15864 60.4982 9.02093 49.849 9.14812 39.303C9.15278 38.9318 9.24488 39.0829 9.24089 38.9697C9.20105 37.8931 9.07678 37.797 9.33702 37.4142C9.28573 36.0427 9.09021 35.6099 9.10418 33.9537C9.1115 33.071 9.41454 33.73 9.25829 32.2366C9.11703 30.8881 8.95096 32.3762 9.12066 28.366C9.12482 28.2713 9.27231 27.8451 9.2699 27.1621C9.26961 27.0732 9.26756 26.9803 9.26337 26.8836C9.24382 25.9814 9.03696 27.0266 9.14009 24.8464C9.39338 19.7109 12.009 13.4281 16.0378 9.036C16.2412 8.71826 18.7829 6.1679 19.3629 5.74042C20.4101 4.83929 20.0861 4.87773 21.5864 3.86785C22.7644 3.11072 23.8538 2.69678 25.3413 2.01838C25.5168 1.94419 25.7418 1.65169 26.9158 1.25055ZM197.693 85.998C197.75 85.6519 197.65 84.915 198.743 83.5005C198.848 83.3611 198.697 84.3645 199.278 83.5385C198.805 84.4072 198.27 85.211 197.694 85.9984C197.693 85.9982 197.693 85.9981 197.693 85.998ZM35.7457 3.3667C34.4072 3.35642 33.0582 3.4588 31.7318 3.67404C32.633 3.43688 33.5499 3.25256 34.4745 3.1209C34.9071 3.19138 35.3236 3.27392 35.7457 3.3667ZM89.0812 95.1363C89.0798 95.1363 89.0785 95.1363 89.0771 95.1363C90.5556 95.0618 92.0349 94.9872 93.5133 94.9127C93.3579 94.9675 93.2021 95.0226 93.0467 95.0774C91.8793 95.1638 90.7114 95.2501 89.5478 95.3365C89.3924 95.2698 89.2366 95.2031 89.0812 95.1363ZM77.4008 95.7171C76.4568 95.6519 76.6879 95.5419 76.1685 95.4348C76.1685 95.435 76.1685 95.4352 76.1685 95.4354C76.0314 95.4075 75.393 95.3831 75.1463 95.3789C75.2373 95.4478 75.3548 95.5157 75.4534 95.584C73.2508 95.7506 68.9436 95.1585 74.5201 94.92C74.4367 95.0069 74.357 95.0934 74.2736 95.1803C77.0447 95.156 80.134 95.3445 77.4008 95.7171ZM202.552 65.2689C202.268 62.9034 202.207 62.1449 202.403 59.2752C202.483 59.6805 202.564 60.0859 202.645 60.4913C202.562 60.9652 202.481 61.4356 202.398 61.9094C202.398 61.9108 202.398 61.9121 202.398 61.9135C202.485 62.0082 202.571 62.1033 202.658 62.1943C202.623 63.2177 202.587 64.2455 202.552 65.2689ZM11.6425 61.0962C12.2109 60.4369 11.8805 60.6271 12.0087 62.5103C12.0532 63.1623 12.1527 62.5269 12.1692 62.9325C12.2597 65.1229 11.8788 65.2981 11.6807 64.8092C11.6672 63.5696 11.6549 62.3171 11.6425 61.1003C11.6425 61.0989 11.6425 61.0976 11.6425 61.0962ZM21.1271 7.67781C21.1282 7.677 21.1292 7.6762 21.1303 7.67539C21.2571 7.75195 20.6022 8.30707 21.4485 7.81904C20.8622 8.26296 20.2956 8.73278 19.7492 9.23029C19.9006 9.0747 20.0581 8.91844 20.214 8.76675C20.0379 8.85599 19.8616 8.94756 19.6868 9.04165C19.6004 9.3377 19.3549 9.42688 18.7662 9.93898C19.0384 9.90663 19.3088 9.88024 19.5786 9.85808C18.9033 10.4324 18.2555 11.0483 17.6441 11.6979C17.6042 11.6787 17.5641 11.6597 17.5241 11.6406C17.3495 11.9348 17.1845 12.2291 17.0236 12.5283C16.9274 12.5694 16.8337 12.6088 16.7376 12.6514C16.5243 13 16.3199 13.3538 16.1257 13.7118C15.9573 13.7479 16.3987 12.9625 15.5585 14.3154C15.7102 13.8339 15.8779 13.3552 16.0651 12.8744C17.4851 10.9048 19.1979 9.14737 21.1271 7.67781ZM12.8014 77.9283C12.0963 75.3832 12.4176 76.0798 12.81 76.607C12.794 77.0415 12.7922 77.4869 12.8014 77.9283ZM144.015 95.5871C144.803 95.3951 145.595 95.205 146.402 95.0198C148.01 94.9127 149.618 95.2626 148.408 95.3997C146.953 95.5642 145.432 95.3801 144.015 95.5871ZM180.574 95.4088C178.648 95.4501 180.447 95.1141 180.846 94.9312C181.389 95.0892 182.122 94.9922 183.281 94.7848C182.206 95.027 180.892 95.4014 180.574 95.4094C180.574 95.4092 180.574 95.409 180.574 95.4088ZM112.367 95.3713C111.579 95.3771 110.795 95.4307 110.091 95.3655C110.303 95.1819 111.713 95.349 110.705 95.0768C111.209 95.0722 111.713 95.0677 112.214 95.0625C111.896 95.1752 112.323 95.2595 112.365 95.3707C112.366 95.3709 112.367 95.3711 112.367 95.3713ZM30.5816 94.4868C31.9897 95.0183 32.3048 94.976 33.8087 94.9871C34.0111 95.1899 32.1723 95.3033 31.0372 95.1126C30.882 94.9057 30.7308 94.6972 30.5816 94.4868ZM83.1435 3.01546C83.5149 2.78991 86.2548 2.7605 87.6161 2.82718C87.454 2.86063 87.2914 2.89453 87.1293 2.92849C85.8024 2.95747 84.4704 2.98648 83.1435 3.01546ZM183.834 94.6812C183.64 94.7186 183.455 94.7532 183.281 94.7848C183.473 94.7432 183.66 94.7066 183.834 94.6812ZM203.171 22.3527C203.496 22.9592 203.229 21.0188 203.55 23.3773C203.55 23.3773 203.55 23.3773 203.551 23.3772C203.708 24.9395 203.715 25.2909 203.741 26.7381C203.468 26.2225 203.241 23.4173 203.32 27.1621C203.319 27.2163 203.318 27.2718 203.317 27.3288C203.317 27.3816 203.48 27.2765 203.458 27.9166C203.451 28.1142 203.317 28.7467 203.278 29.7085C203.266 30.0194 203.225 32.3553 203.222 29.1711C203.032 29.2659 202.839 29.0949 202.654 29.1025C202.624 28.403 202.729 27.7947 202.825 27.1621C202.899 26.6787 202.955 26.1832 202.917 25.6179C202.772 23.6968 202.178 22.8228 202.601 22.3677C203.08 23.9265 203.22 26.7398 202.894 27.0975C202.894 27.1192 202.894 27.1408 202.894 27.1621C202.898 28.697 203.136 29.1229 203.255 27.8601C203.248 27.608 203.243 27.376 203.238 27.1621C202.915 22.7733 203.758 26.0815 202.801 21.5971C202.721 21.5566 202.604 21.3824 202.548 21.4266C202.433 19.9524 203.073 22.1281 203.171 22.3527ZM203.103 33.8336C202.958 32.8859 202.811 31.9413 202.665 30.9973C202.902 30.9974 203.115 31.5178 203.248 33.0114C203.2 33.2841 203.151 33.5609 203.103 33.8336ZM144.648 2.54918C144.512 2.67802 144.148 2.79609 143.883 2.91873C143.595 2.81006 136.771 2.70582 140.243 2.59922C140.747 2.5837 143.822 2.81153 144.648 2.54918ZM21.2134 90.2166C21.7758 90.7636 22.3652 91.2844 22.981 91.7772C21.9324 91.1772 20.9226 90.4975 19.9663 89.7452C20.3816 89.9162 20.7957 90.0717 21.2134 90.2166ZM157.097 95.8132C156.758 95.8083 157.885 95.6311 156.548 95.6591C157.545 95.5458 158.478 95.4498 159.452 95.3432C159.744 95.4271 160.039 95.5106 160.331 95.5944C160.559 95.5406 160.791 95.4871 161.018 95.4333C160.882 95.5554 160.76 95.6746 160.616 95.7988C158.975 95.537 158.598 95.8339 157.097 95.8132ZM108.289 96.2908C107.993 96.0254 110.37 95.8675 108.032 95.8251C108.476 95.6507 109.189 95.5592 110.557 95.5437C110.777 95.6104 110.996 95.6766 111.216 95.7433C111.246 95.5648 111.598 95.4985 112.367 95.3713C112.368 95.3715 112.369 95.3717 112.369 95.3719C114.45 95.359 114.325 95.4185 114.826 95.7119C112.623 95.5463 112.557 95.8143 111.056 95.9737C110.025 96.0833 108.679 96.0337 108.289 96.2908ZM151.919 2.54613C150.361 2.77017 151.759 2.97914 148.996 2.74112C149.174 2.6842 149.353 2.62776 149.531 2.57084C150.327 2.56205 151.123 2.55389 151.919 2.54613ZM100.602 95.3811C100.78 95.7919 102.247 96.1117 102.497 95.4433C101.068 95.3072 101.766 95.6858 100.602 95.3811ZM179.958 96.099C179.244 96.1363 178.75 96.1045 178.428 96.0521C177.685 95.9291 177.879 95.7082 178.428 95.5376C178.552 95.4986 178.693 95.4613 178.845 95.4267C179.017 95.5082 179.19 95.588 179.36 95.6656C179.829 95.6099 180.305 95.5401 180.768 95.4582C180.506 95.6758 180.236 95.8899 179.958 96.099ZM52.1531 95.8324C54.2533 95.539 49.8861 95.6692 51.3532 95.4861C52.5246 95.3396 54.0682 95.6353 53.4844 95.8205C53.0788 95.8257 52.6272 95.8293 52.1572 95.8324C52.1558 95.8324 52.1545 95.8324 52.1531 95.8324ZM64.3063 95.7485C63.9614 95.435 64.4585 95.5264 62.7992 95.5828C62.3254 95.5988 58.5599 95.4811 60.1407 95.7409C61.4862 95.7409 62.9077 95.7454 64.3063 95.7485ZM202.354 76.9003C202.532 76.9063 201.986 79.7667 201.735 80.0791C201.736 80.0792 201.736 80.0793 201.736 80.0794C201.2 80.9381 202.209 78.0862 201.504 79.2263C202.663 76.5594 202.103 75.5427 202.865 75.9039C202.538 77.5993 202.543 76.7597 202.354 76.9003ZM47.169 2.37279C47.1677 2.37279 47.1663 2.37279 47.165 2.37279C47.3597 2.37921 48.9641 2.57957 48.769 2.64896C46.8396 2.58946 47.1834 2.45758 45.3873 2.67429C45.2888 2.60449 45.2044 2.53679 45.0984 2.46648C45.8111 2.42508 46.2061 2.34123 47.169 2.37279ZM137.271 2.27392C137.98 2.23822 139.274 2.38617 140.081 2.37737C137.511 2.94554 134.439 2.41572 137.271 2.27392ZM11.5439 30.8447C11.5441 30.8467 11.5443 30.8488 11.5446 30.8508C11.5442 30.8502 11.5439 30.8494 11.5436 30.8488C11.5437 30.8474 11.5438 30.8461 11.5439 30.8447ZM191.281 6.24479C191.224 6.16628 191.197 6.1125 191.196 6.07899C191.198 6.07673 191.199 6.07447 191.2 6.07221C191.224 6.12699 191.25 6.18384 191.281 6.24479ZM203.009 71.0182C203.062 70.6784 203.125 70.7528 203.185 71.0642C203.368 71.8515 203.335 74.2059 203.103 75.1191C203.031 75.0155 202.956 74.988 202.889 74.7658C203.281 73.8134 203.041 71.4526 203.007 71.0642C203.007 71.0435 203.007 71.028 203.009 71.0182ZM126.011 95.7149C129.192 95.7201 125.053 96.4718 124.882 95.8721C124.888 95.8605 125.929 95.7159 126.011 95.7149ZM191.724 91.836C191.159 92.4449 192.594 91.6883 190.327 92.9519C190.166 92.9724 190.006 92.9908 189.846 93.0078C190.49 92.6454 191.116 92.254 191.724 91.836ZM146.847 96.7018C150.85 96.575 154.678 96.3514 152.071 95.7238C151.768 95.7439 151.461 95.7634 151.158 95.7836C151.112 96.0898 149.994 95.9226 148.358 95.9127C148.125 96.0342 147.217 96.0623 147.047 96.1656C146.718 96.3653 147.76 96.5057 146.847 96.7018ZM10.9504 52.0905C11.0027 52.1549 11.0552 52.2179 11.1069 52.2824C11.1659 52.9155 11.2246 53.5502 11.2836 54.1833C11.1833 54.081 11.083 53.9785 10.9827 53.8763C10.9719 53.2814 10.961 52.6894 10.9501 52.0945C10.9502 52.0932 10.9503 52.0918 10.9504 52.0905ZM203.749 37.7345C203.174 37.3709 203.28 38.6416 203.571 41.2192C203.63 40.0592 203.69 38.8945 203.749 37.7345ZM82.5218 96.4687C82.4384 96.3052 82.3564 96.1423 82.2693 95.9789C80.9008 96.1491 81.1549 96.3363 81.8107 96.5526C82.0493 96.5247 82.2832 96.4966 82.5218 96.4687ZM62.8093 96.5382C63.377 96.5723 63.0873 96.4404 63.1467 96.443C64.5835 96.5124 64.7858 96.5729 66.5486 96.4735C66.7646 96.4389 66.977 96.4024 67.193 96.3667C66.3781 96.0243 65.7864 96.2109 64.0618 96.0097C64.3727 96.1272 64.6822 96.2448 64.9931 96.3628C64.0342 96.3379 63.0793 96.3135 62.1205 96.2886C62.0067 96.3248 61.8928 96.3607 61.7791 96.397C62.1201 96.4435 62.4721 96.4958 62.8093 96.5382ZM11.099 44.7695C11.1125 43.837 11.1265 42.9001 11.1399 41.9676C11.0556 41.9335 10.9707 41.9007 10.8863 41.8666C10.9572 42.833 11.0281 43.8031 11.099 44.7695ZM202.034 18.7326C201.981 18.673 201.928 18.6156 201.877 18.5661C201.915 18.5592 201.97 18.6247 202.034 18.7326ZM44.7085 1.91017C43.651 1.85119 42.1272 1.88992 40.9672 1.87752C41.0584 2.0891 44.0066 2.03062 45.0418 2.15888C45.2082 2.12091 45.1555 1.93499 44.7085 1.91017ZM176.151 96.1263C175.886 96.2318 175.621 96.3369 175.359 96.4424C174.718 96.431 174.076 96.419 173.432 96.4076C173.413 96.494 173.394 96.5812 173.375 96.6676C176.214 96.5554 175.56 96.8046 176.965 97.0503C176.692 96.7425 176.424 96.4346 176.151 96.1263ZM13.4628 15.3083C12.5608 17.2046 12.448 17.9472 13.131 16.9731C13.3717 16.2849 13.646 15.6001 13.9485 14.931C13.7849 15.0556 13.6225 15.1823 13.4628 15.3083ZM171.775 1.90773C170.059 2.0046 170.03 1.65668 168.353 1.85097C169.251 1.91512 170.149 1.97999 171.044 2.04414C171.285 1.99878 171.533 1.95309 171.775 1.90773ZM204.638 65.4083C204.759 64.6842 204.184 63.3308 204.608 61.2953C204.482 60.8102 204.36 60.5062 204.236 60.0893C204.371 59.8467 204.508 59.571 204.642 59.3398C204.642 59.3385 204.642 59.3371 204.642 59.3358C204.597 57.4896 204.427 58.6866 204.284 58.6449C204.224 58.6253 204.324 57.2551 204.194 57.6833C203.972 58.4225 204.1 61.1847 203.83 61.1923C203.918 60.2218 203.844 58.3268 203.663 58.8873C203.465 59.5014 203.797 61.2873 203.633 62.4246C204.066 60.7949 203.932 64.1608 203.6 64.5437C203.855 66.5187 203.959 64.7034 203.947 62.6791C204.202 63.9149 204.064 62.0958 204.276 61.7963C204.403 63.0706 204.297 67.4438 204.638 65.4083ZM130.175 96.805C131.54 96.7885 133.672 96.9341 134.607 96.7192C135.151 96.594 133.014 96.4971 134.488 96.3005C133.158 96.3197 132.854 96.3965 133.082 96.5688C132.779 96.5894 132.472 96.6096 132.169 96.6298C132.028 96.5962 131.885 96.563 131.744 96.5294C131.585 96.6003 131.425 96.6706 131.27 96.7415C130.948 96.7275 130.622 96.7135 130.3 96.6991C130.262 96.7347 130.198 96.7657 130.175 96.805ZM122.498 1.91841C122.877 1.91634 123.252 1.91428 123.631 1.9117C123.589 1.86974 123.54 1.82604 123.492 1.78292C123.457 1.74884 123.423 1.71477 123.389 1.68069C123.608 1.80244 125.414 2.00479 126.174 1.87477C126.557 1.80955 125.687 1.57799 127.308 1.53757C126.133 1.54948 125.045 1.58108 123.904 1.60074C124.006 1.53192 124.104 1.46236 124.207 1.39353C124.206 1.39343 124.205 1.39333 124.205 1.39323C123.826 1.37771 123.442 1.36145 123.063 1.34593C122.874 1.53687 122.687 1.72747 122.498 1.91841ZM83.6329 96.7918C84.9256 96.6568 85.3583 96.5866 84.748 96.3683C84.7466 96.3682 84.7453 96.3681 84.7439 96.368C84.2626 96.4647 83.7809 96.5614 83.2995 96.6582C83.4095 96.7027 83.5191 96.7473 83.6329 96.7918ZM196.603 8.87935C194.053 7.49043 198.779 11.6311 198.152 10.621C198.14 10.5577 196.742 9.11684 196.603 8.87935ZM180.484 96.3177C179.801 96.3786 179.12 96.4114 178.428 96.4174C178.348 96.4181 178.269 96.4188 178.189 96.4195C178.268 96.4657 178.348 96.5118 178.428 96.558C178.527 96.6136 178.627 96.6687 178.725 96.7233C179.321 96.6084 179.906 96.4727 180.484 96.3177ZM10.3754 23.9196C10.1038 24.5535 9.89247 26.052 10.0025 27.1621C10.027 27.4219 10.063 27.6586 10.1118 27.8549C10.1246 27.624 10.1374 27.3931 10.1502 27.1621C10.1664 26.8573 10.1879 26.5542 10.2145 26.2531C10.2124 26.5559 10.2159 26.8586 10.2246 27.1621C10.2454 27.8553 10.2665 28.5475 10.2855 29.2488C10.555 29.2939 10.4626 28.4712 10.4824 27.1621C10.4859 26.9239 10.4962 26.6709 10.5171 26.406C10.5254 26.1259 11.0358 24.4297 10.837 23.801C10.782 23.6683 10.5448 25.5228 10.5047 24.2109C10.4265 24.778 10.3902 25.2641 10.3538 25.8052C10.2764 25.8408 10.1989 25.8752 10.1214 25.9148C10.1807 25.2418 10.2649 24.5845 10.3754 23.9196ZM138.122 96.7802C139.997 96.7977 140.228 96.671 140.619 96.447C139.747 96.4724 138.875 96.4973 138.003 96.5227C138.044 96.6084 138.08 96.694 138.122 96.7802ZM10.1018 40.7858C10.0651 41.8123 10.2474 41.3726 10.2821 41.7858C10.4125 43.3475 10.2822 44.4127 10.3639 45.9553C10.3287 45.853 10.2958 45.7589 10.2617 45.6604C10.2617 45.6617 10.2617 45.6631 10.2617 45.6644C10.108 52.9691 10.5215 49.1323 10.4542 44.7614C10.522 44.6591 10.5899 44.5608 10.6571 44.4584C10.5387 42.5024 10.4246 40.6986 10.1018 40.7858ZM204.236 31.87C204.279 31.7867 204.548 32.4955 204.422 31.165C204.028 30.1114 204.224 31.8394 204.072 32.2721C204.035 31.9119 203.998 31.5436 203.96 31.1872C203.849 33.3405 203.942 33.6547 204.23 32.87C204.25 32.814 204.194 31.9536 204.236 31.87ZM202.603 17.5694C201.981 17.4934 203.141 20.0229 203.256 19.8934C203.153 19.5193 202.969 19.2608 202.879 18.8581C202.784 18.4525 202.882 18.3042 202.603 17.5694ZM192.828 92.5476C192.898 92.5079 193.719 92.2295 193.54 92.1204C192.463 92.369 190.863 93.6351 191.241 93.5918C191.83 93.2444 192.183 92.9491 192.828 92.5481C192.828 92.5479 192.828 92.5478 192.828 92.5476ZM14.8865 12.0216C14.8359 12.0313 13.6067 13.7222 13.5683 14.0123C13.5453 14.2551 13.5868 14.4044 13.599 14.5994C14.041 13.5447 15.4381 11.7066 14.8841 12.025C14.8849 12.0239 14.8857 12.0227 14.8865 12.0216Z" fill="black"/>
</g>
<path d="M20.5294 30.1306C18.0585 30.994 16.4036 33.3253 16.4036 35.9426V60.3983C16.4036 63.4548 18.3362 66.1772 21.2216 67.1855C28.8649 69.8562 26.9465 81.1621 18.85 81.1621H10.9569C6.24654 81.1621 2.42804 77.3436 2.42804 72.6333V25.7568C2.42804 21.5624 5.82832 18.1621 10.0228 18.1621H18.4985C25.4317 18.1621 27.0745 27.8436 20.5294 30.1306Z" fill="#FFCC00"/>
<path d="M22.5564 25.2677C22.2915 25.4619 22.5792 24.6938 22.156 25.1568C22.1544 25.048 22.1475 24.9387 22.1367 24.8307C22.2637 24.8179 22.3904 24.8018 22.5173 24.7837C22.5396 24.9429 22.5531 25.1044 22.557 25.2678C22.5568 25.2678 22.5566 25.2677 22.5564 25.2677ZM24.0192 25.8707C23.7314 25.5793 23.7356 25.0283 23.296 25.5505C23.4043 25.6238 23.5109 25.7014 23.6161 25.7812C23.4686 25.9697 23.3107 26.1434 23.1459 26.2994C23.161 26.3859 23.1741 26.473 23.1841 26.5614C22.9509 26.5606 22.7201 26.5461 22.493 26.5198C22.5556 26.4686 22.6182 26.4143 22.6788 26.3584C22.6478 26.0128 22.6928 25.7618 22.7495 25.3678C22.693 25.391 22.6368 25.4131 22.5801 25.4336C22.709 25.266 22.8282 25.0823 22.9347 24.8852C22.9998 25.0726 23.0578 25.2912 23.0949 25.4787C23.4889 25.2755 23.3666 24.71 23.2933 24.4542C23.197 24.0979 23.3547 24.1727 23.2687 23.9097C23.2543 23.8681 23.1308 23.8757 23.1194 23.7946C23.0791 23.3864 22.8945 22.5808 23.3102 22.9695C23.4583 23.6694 23.7381 24.3022 23.5725 25.0254C23.9213 24.8664 24.02 25.2713 24.0192 25.8707ZM13.6501 19.6819C13.918 19.5195 14.4636 19.585 14.8333 19.6978C14.8337 19.6978 14.8341 19.6978 14.8345 19.6978C14.9159 19.7226 15.1001 19.9385 14.8345 19.9297C14.4016 19.9146 14.1923 19.5748 13.965 19.8055C13.8633 19.7626 13.7566 19.7244 13.6501 19.6819ZM12.7092 19.7021C12.4436 19.6188 12.5641 19.3627 12.8966 19.432C12.8966 19.4318 12.8966 19.4316 12.8966 19.4314C13.0354 19.4604 12.7629 19.6628 13.2606 19.4573C13.3622 19.6172 13.4623 19.7626 13.5628 19.9172C13.4409 19.9198 13.3298 19.924 13.202 19.9261C13.288 19.6634 12.9747 19.7847 12.7092 19.7021ZM23.0648 22.6639C22.8299 22.7101 22.8812 22.8411 22.7822 23.0989C22.7346 22.896 22.6745 22.6959 22.6017 22.502C22.7564 22.5475 22.9105 22.6009 23.0648 22.6639ZM22.1548 27.5297C22.1546 27.5299 22.1544 27.5301 22.1542 27.5304C22.1348 27.6076 22.1111 27.6869 22.0878 27.7625C21.9977 27.7335 21.9093 27.7024 21.8216 27.6695C21.6994 27.8949 21.5544 28.1138 21.3834 28.3261C21.2672 28.0984 21.6521 27.8685 21.6959 27.5712C21.9953 27.3937 22.215 27.3479 22.4007 27.4684C22.3191 27.4913 22.237 27.5111 22.1548 27.5297ZM2.7437 69.4138C2.81509 69.5226 2.88653 69.63 2.95792 69.7389C2.9905 69.5942 3.01537 69.4506 3.05313 69.3047C2.7427 68.9232 3.0173 68.8873 2.9982 68.3874C2.93921 66.855 2.45705 67.2616 3.1633 65.8776C3.1297 66.9888 3.46155 66.5618 3.71716 67.2317C3.5226 67.3704 3.08378 66.7066 2.99271 67.1564C3.19863 67.9315 3.39041 68.6768 3.52339 69.5368C3.55701 69.5117 3.59076 69.4867 3.62439 69.4616C3.60318 69.3252 3.58183 69.19 3.56061 69.0536C3.65065 69.2007 3.73991 69.3445 3.83099 69.4941C3.62661 69.3051 3.74081 69.7868 3.50599 69.7223C3.40146 69.6936 3.25645 69.4807 3.15658 69.3551C3.10226 69.6792 3.0525 70.0117 2.99973 70.3394C2.91645 70.1696 2.83308 69.9999 2.7498 69.8313C2.74722 69.6926 2.74537 69.555 2.74278 69.4163C2.74309 69.4155 2.74339 69.4146 2.7437 69.4138ZM15.0013 44.2799C15.2445 44.6914 15.2847 45.4392 15.0141 45.8328C15.01 45.3148 15.0054 44.7979 15.0013 44.2799ZM22.556 27.5629C22.5 27.5663 22.4452 27.5682 22.3896 27.5697C22.437 27.3962 22.4761 27.2191 22.5002 27.0477C22.6158 27.0902 22.7327 27.1303 22.8509 27.1668C22.7602 27.3033 22.6611 27.436 22.556 27.5629ZM19.1121 19.3426C19.2384 19.3492 19.2498 19.354 19.3988 19.3938C19.3986 19.3937 19.3984 19.3935 19.3983 19.3934C19.4574 19.4024 19.939 19.5817 19.8561 19.6601C19.6225 19.6006 19.3666 19.5522 19.1125 19.5252C19.1112 19.4642 19.1158 19.4043 19.1121 19.3426ZM21.7399 20.501C21.7401 20.5014 21.7402 20.5017 21.7403 20.5021C21.7984 20.5707 21.8408 20.648 21.9027 20.7151C21.5691 20.6003 21.6963 20.3707 21.409 20.2495C21.1162 20.1349 20.9101 20.1821 20.837 19.7474C20.9473 19.7421 21.0788 19.7255 21.1999 19.7235C21.515 20.0777 21.6724 20.0341 22.0536 20.1704C21.9483 20.2803 21.8443 20.3901 21.7399 20.501ZM3.46357 62.5914C3.28765 62.4886 3.46027 62.3738 3.46235 62.3619C3.46256 62.3621 3.46276 62.3623 3.46296 62.3626C3.30004 61.4514 3.56034 62.4811 3.58777 61.6212C3.63174 61.7491 3.67817 61.875 3.72265 62.0017C3.63782 62.1979 3.54168 62.4001 3.46357 62.5914ZM3.48005 32.9848C3.53128 32.9764 3.58262 32.9664 3.63385 32.958C3.62195 33.4748 3.82362 33.6066 3.63996 34.036C3.58615 33.6856 3.53273 33.3352 3.47944 32.9848C3.47965 32.9848 3.47985 32.9848 3.48005 32.9848ZM16.6252 18.9389C17.1983 18.8411 17.6221 18.798 18.1724 18.9532C18.1728 18.9534 18.1733 18.9536 18.1737 18.9538C18.2054 18.9634 18.052 19.0706 18.0934 19.0976C18.2069 19.0815 18.3241 19.0569 18.4389 19.0377C18.4544 19.1236 18.4692 19.2094 18.4848 19.2947C18.1618 19.2704 17.8387 19.2461 17.5145 19.2218C17.5624 19.2719 17.6114 19.3217 17.6592 19.3719C17.3841 19.3978 17.1101 19.4235 16.835 19.4494C16.9306 19.3087 17.0261 19.168 17.1206 19.0268C16.9555 18.9973 16.7903 18.9689 16.6252 18.9389ZM2.91947 41.5883C2.97536 41.4973 3.06909 41.6657 3.11722 41.5245C3.16473 41.3833 3.06044 41.1231 3.21822 41.1841C3.23943 41.3742 3.26374 41.5738 3.28597 41.7674C3.57049 41.1442 3.31303 40.5224 3.66437 40.5128C3.5733 41.111 3.61561 41.6028 3.71289 42.1818C3.43401 42.1578 3.19287 41.5787 2.93107 41.9433C2.92745 41.8262 2.92215 41.7031 2.92008 41.5895C2.91988 41.5891 2.91968 41.5887 2.91947 41.5883ZM19.2279 34.3907C19.1103 34.5771 19.0691 35.0572 18.871 35.2931C18.8192 35.3431 18.2751 35.5189 18.2079 35.5187C17.9779 35.4935 17.9868 35.1444 17.7966 35.4952C17.8068 35.3704 17.8142 35.2485 17.8314 35.1247C17.6751 35.1204 17.519 35.1183 17.363 35.1175C17.36 35.2854 17.3652 35.4533 17.3788 35.6187C17.3271 35.6236 17.2754 35.6287 17.2238 35.6341C17.275 35.0267 17.0449 35.3679 16.908 35.0105C16.7654 35.3028 16.6461 35.6169 16.553 35.9426C16.5639 35.7542 16.5839 35.5341 16.6135 35.371C16.352 35.3217 16.3858 35.7354 16.3394 35.8033C16.2021 36.0008 16.1563 35.5906 16.1748 35.0959C16.1862 34.6019 16.29 34.0382 16.1385 33.8941C15.9919 34.213 15.8665 34.5637 15.7712 34.9164C15.7401 34.8066 15.712 34.6932 15.6864 34.5801C16.105 33.8117 16.5248 33.0019 17.1692 32.3353C17.2057 32.2612 17.2436 32.1874 17.2827 32.1157C17.1727 32.0657 17.0632 32.0159 16.9519 31.9681C17.0162 31.8533 17.085 31.7387 17.1562 31.6271C17.232 32.1735 17.5382 31.7235 18.128 31.4753C18.0013 31.7899 17.7002 32.0296 17.9155 32.1706C18.4233 31.2184 19.5986 30.721 20.4603 30.1898C20.4877 30.1726 20.5101 30.1529 20.5295 30.1311C20.6688 29.9733 20.6424 29.7313 21.1033 29.548C21.1011 29.5891 21.126 29.6497 21.1345 29.6983C21.9728 29.1035 22.3687 28.6976 23.1507 28.0248C23.0216 27.9961 22.8943 27.9631 22.7685 27.9277C22.68 28.1208 22.5783 28.3117 22.4631 28.497C22.2237 28.4428 22.3315 28.2604 21.8626 28.6295C21.461 28.9159 21.749 28.8167 21.6686 28.9418C21.5536 29.1105 21.3297 29.0615 21.1972 29.2307C21.0876 29.361 21.3182 29.4345 20.915 29.5754C20.9852 29.3158 21.0413 29.0472 21.0718 28.7896C21.173 28.7882 21.2788 28.7825 21.384 28.7739C21.3319 28.8713 21.2751 28.9677 21.2176 29.0625C21.4733 28.8088 21.685 28.5538 21.8778 28.2629C21.9811 28.5689 22.1907 28.2532 22.2994 28.0923C22.4692 27.8429 22.4382 28.1711 22.552 28.0022C22.6651 27.8272 22.623 27.5253 22.8561 27.2721C22.8607 27.503 23.1058 27.3591 23.1811 27.4685C23.2589 27.5798 23.0374 27.9326 23.3792 27.6878C23.7028 26.9936 22.8747 27.4234 23.0559 26.9782C23.2323 26.4708 23.9804 26.6118 24.0625 26.8552C24.1263 27.05 23.8543 27.5101 23.8741 27.7104C24.5778 26.9701 24.1061 26.7364 24.0887 26.5686C23.9627 25.927 24.695 26.5629 24.5653 25.7888C24.723 25.8376 24.8648 25.8812 25.0154 25.9304C25.0151 25.7958 24.9936 25.7033 24.997 25.5456C24.5971 25.9326 24.6847 25.5695 24.711 25.3904C24.7522 25.1043 24.5319 25.5214 24.503 25.4379C24.4316 25.2226 24.5098 24.9207 24.3494 25.0942C24.4244 25.0176 24.4988 24.9307 24.5702 24.8457C24.5201 24.4874 23.8066 23.8093 23.956 24.4711C23.7023 24.406 23.8242 24.202 23.8517 24.0328C23.879 23.8646 23.717 23.8821 23.7315 23.7377C23.7712 23.1573 24.0975 23.4719 24.3286 23.5499C24.0335 22.7673 24.1271 23.5471 23.721 22.4807C23.522 22.4415 23.4927 22.9652 23.2699 22.612C23.5346 22.4468 23.6597 22.0622 23.4422 21.4476C23.3501 21.4277 23.2578 21.4108 23.1663 21.3959C23.2295 20.9666 23.5718 20.9122 22.8937 20.6105C23.6162 20.4889 23.1735 20.5463 22.9404 19.9133C22.8881 19.7828 23.1951 19.9067 23.1166 19.7268C23.0794 19.644 22.8638 19.5724 22.7619 19.3798C22.7189 19.2859 22.4923 18.7783 22.1347 18.6963C22.158 19.0859 21.5261 18.9966 21.7931 19.4801C21.0958 18.95 20.4087 18.8638 21.5248 18.9163C21.3603 18.7181 21.1861 18.5312 20.9875 18.3505C20.7994 18.3567 20.6159 18.3718 20.4321 18.394C20.4806 18.145 20.5338 18.0553 19.8493 17.9572C20.157 17.954 20.4575 17.9679 20.772 18.0092C20.7985 17.963 20.8572 17.9258 20.8639 17.8745C20.4625 17.8162 19.4247 17.6645 19.1581 17.7297C18.9048 17.7772 19.3839 17.8383 19.3052 17.8993C18.7668 18.3163 18.7631 18.1064 18.4985 18.0813C18.4537 18.0776 18.4021 18.0804 18.3401 18.0948C18.1789 18.1324 18.3856 18.1723 18.4985 18.2015C18.5541 18.2157 18.5868 18.2279 18.5446 18.2353C18.529 18.2381 18.5136 18.2404 18.4985 18.2425C18.0549 18.3037 17.8356 18.0297 17.4285 18.0261C17.578 18.1922 17.7262 18.3608 17.8722 18.5284C17.4307 18.5196 16.9387 18.5182 16.5283 18.5715C16.3673 18.5923 16.489 18.7158 16.4627 18.724C16.3322 18.7665 15.8011 18.8337 15.7449 18.8342C15.3216 18.8352 15.3096 18.6641 14.8983 18.6548C15.0597 18.6403 15.2115 18.6272 15.3694 18.6133C15.4412 18.3359 15.5144 18.0586 15.5861 17.7808C15.1831 17.7606 14.7798 17.7408 14.3756 17.7207C14.671 17.8133 14.9675 17.9054 15.2629 17.9981C14.8012 18.2221 14.3394 18.4467 13.8777 18.6712C13.6372 18.5336 13.3978 18.396 13.1573 18.2584C12.5044 18.2947 12.6359 18.8534 12.3261 18.3639C12.1335 18.4053 11.941 18.4467 11.7485 18.4875C11.776 18.4177 11.8032 18.3477 11.8307 18.2779C11.5987 18.3208 11.3667 18.3635 11.1346 18.407C11.3786 18.6543 11.6178 18.9145 11.8594 19.1546C11.4027 19.2084 11.394 18.9986 11.3258 18.9462C11.1452 18.8075 10.7867 18.9946 10.6431 18.8662C10.5946 18.8222 11.0421 18.6841 10.8879 18.5248C10.8614 18.4976 10.3949 18.0416 10.0228 18.0238C9.97047 18.0214 9.92005 18.0277 9.87343 18.0449C9.88286 18.1509 9.9145 18.2804 9.93091 18.3956C9.44523 18.4676 9.12857 17.9587 9.17858 17.7946C8.90228 17.9297 8.49591 18.0141 8.47496 18.1933C8.3359 18.2258 8.19963 18.2616 8.06336 18.3016C8.10864 17.8592 7.52483 18.1014 7.60545 18.4556C7.83951 18.3875 8.07689 18.331 8.31497 18.2858C8.23998 18.7681 8.98639 18.7876 7.47798 18.8412C7.13166 18.724 7.96459 18.7048 7.69113 18.6202C7.27032 18.6542 6.94858 18.8787 6.52824 18.9164C6.00714 18.9827 6.41644 18.4902 5.56532 19.3362C8.06744 18.6102 5.39249 19.7513 4.82741 20.7782C4.18542 20.5544 3.24876 21.2431 2.84464 22.6275C3.05874 22.5621 3.16801 22.1328 3.34617 21.9426C3.52133 21.7563 3.47265 22.0369 3.6996 21.8195C3.92345 21.6002 4.39169 21.158 4.68177 21.0252C4.56567 21.2677 4.07627 22.3837 4.30595 21.5724C3.82105 21.9624 3.50166 22.1304 3.15258 22.8359C3.31689 23.1576 3.45521 23.1914 3.2578 23.8816C3.01697 23.3524 2.53738 24.1156 2.21157 23.8444C2.44735 23.3034 2.72559 23.7189 2.98911 23.4707C3.01186 23.4459 3.09524 22.941 3.15258 22.8359C2.64542 23.1766 2.46705 23.3504 2.20266 22.8838C2.09783 23.2729 1.98752 23.5026 2.16219 23.5878C2.06003 23.6451 1.95823 23.7056 1.85767 23.7667C1.82862 23.8955 1.81037 24.0144 1.78224 24.151C2.10396 24.0198 1.85308 24.3485 1.94925 24.625C2.05022 24.8951 2.30247 24.5907 2.24968 25.2649C2.33154 25.0438 2.41099 24.847 2.50515 24.6458C2.51554 25.0227 2.55467 25.3937 2.61967 25.7568C2.62928 25.8118 2.63889 25.8666 2.64849 25.9215C2.67656 25.874 2.7068 25.8178 2.73873 25.7568C2.90479 25.4416 3.16024 25.0454 3.35456 25.0819C3.27703 25.1998 3.31813 25.5517 3.36279 25.7568C3.37904 25.8466 3.39223 25.9132 3.394 25.9336C3.4178 26.2183 3.27098 26.0631 3.26736 26.0847C3.19601 26.532 3.246 26.9004 3.02353 27.0702C3.12391 27.4063 3.06668 27.6598 3.07236 28.0163C3.07546 28.2124 3.23886 28.1743 3.20785 28.2891C3.00088 29.0523 2.78972 28.3252 3.19168 29.7974C3.3055 29.6192 3.42195 29.4433 3.53681 29.2651C3.57976 29.4314 3.62295 29.5967 3.6659 29.763C3.6452 29.8742 3.62434 29.9845 3.60364 30.0957C3.35684 30.0933 3.10952 30.0905 2.86271 30.0881C2.84926 30.2101 2.83619 30.3326 2.82274 30.4546C2.79842 30.2453 2.77412 30.0354 2.7498 29.8261C2.70637 29.8069 2.66293 29.7891 2.6195 29.77C2.55223 30.081 2.48436 30.3909 2.41657 30.702C2.50242 30.708 2.58888 30.7138 2.67473 30.7198C2.5552 31.4208 2.48252 31.4375 2.71898 32.1038C2.71639 32.617 3.07536 33.0349 3.22646 33.3316C3.17835 33.438 3.12962 33.5446 3.08151 33.6522C3.15292 33.7204 3.22402 33.7893 3.29543 33.8575C3.19609 33.9927 3.09672 34.1297 2.9979 34.2649C3.22339 34.3402 3.29379 34.3792 3.37294 33.8518C3.65339 34.0324 3.52968 34.961 3.4355 35.339C3.36403 35.6258 3.13011 35.3076 3.10165 35.3435C3.00498 35.4632 3.0884 35.9359 3.07236 36.0352C3.00561 36.455 3.0173 36.7492 2.96555 37.1284C2.9552 37.2023 2.80694 37.4086 2.80229 37.4261C2.77693 37.5625 2.70488 37.8991 2.70281 37.9374C2.59214 39.912 3.23534 37.8021 3.16757 39.6382C3.25239 39.5832 3.33664 39.5326 3.42146 39.4788C3.42663 39.6175 3.43155 39.7577 3.43672 39.8964C3.36583 40.0722 3.23691 39.8595 3.3409 40.2088C3.23638 40.186 3.13181 40.1632 3.0278 40.1393C3.08421 40.2912 3.14015 40.4376 3.19656 40.5932C2.83383 40.8372 2.75146 41.7281 2.32563 41.6648C2.18074 41.6432 2.03207 41.0116 1.87735 41.3454C1.84689 41.6166 2.01993 41.433 2.02901 41.5436C2.09214 42.3428 1.84959 42.2963 1.91427 42.6229C2.01823 42.6743 2.12421 42.7284 2.2292 42.781C2.19869 42.9042 2.16816 43.0277 2.13765 43.152C2.20751 43.1807 2.27744 43.2106 2.3473 43.2393C2.35195 43.1233 2.35668 42.9927 2.36133 42.8862C2.6319 43.0347 2.75344 44.398 2.52276 43.8781C2.42911 43.6664 2.4689 43.2786 2.14925 43.5237C2.1953 43.8885 2.24235 44.3025 2.2884 44.6864C2.21958 44.6984 2.15063 44.7095 2.08181 44.7215C2.12636 45.239 2.40152 44.7684 2.54901 44.7693C2.55314 44.8877 2.55677 45.0073 2.56091 45.1257C2.49422 45.1758 2.42443 45.2235 2.35981 45.2761C2.46593 45.2809 2.71259 45.3472 2.62103 45.7C2.56143 45.9269 2.29369 45.5696 2.33082 46.0022C2.49637 45.9699 2.69801 45.8136 2.75133 46.2954C2.57854 46.3433 2.42025 46.4095 2.23866 46.4465C2.40466 47.0457 2.13782 47.3184 2.33082 48.0217C2.45294 48.4679 2.88645 49.0792 2.21852 49.3675C2.20094 49.6939 2.36727 49.5903 2.40467 49.6868C2.58164 50.1426 2.26492 50.4816 2.24629 50.5666C2.12687 51.1082 2.23651 51.3511 2.08699 51.7924C2.21067 51.7685 2.32774 51.7555 2.4483 51.7364C2.26305 51.332 2.27175 51.1272 2.31159 50.5602C2.33642 50.7504 2.36183 50.9406 2.38666 51.1307C2.48702 51.0997 2.5874 51.0688 2.68724 51.0389C2.2919 49.2852 2.91652 49.6943 3.05313 51.1645C2.8674 51.2913 2.68216 51.4227 2.49591 51.5483C2.7774 52.3976 2.53303 52.7973 2.47455 53.7578C2.46786 53.872 2.57485 54.2879 2.58013 54.4667C2.58085 54.4637 2.58156 54.4607 2.58227 54.4578C2.75766 54.569 2.83838 54.4184 2.99515 54.4004C3.01481 54.4973 3.03439 54.5942 3.05405 54.6911C2.93455 54.9074 2.83639 54.8314 2.86485 55.2572C2.98385 55.1998 3.10288 55.1431 3.22189 55.0857C3.22603 55.5522 3.09673 55.8576 3.15261 56.2918C3.1076 56.2188 3.06245 56.1468 3.01743 56.0738C2.90255 57.0188 2.20289 56.2667 2.55114 56.9809C2.49011 57.0264 2.42847 57.0706 2.36744 57.1161C2.35243 56.8218 2.33789 56.5275 2.32288 56.2344C2.2365 56.2285 2.15049 56.222 2.06411 56.2172C2.08998 56.5318 2.11666 56.848 2.14253 57.1626C2.08458 56.9329 2.02655 56.7019 1.96859 56.4722C1.9272 56.837 1.88578 57.202 1.84439 57.5668C2.16204 57.1793 2.20088 57.6816 2.51544 57.5872C2.2536 58.2332 1.90846 58.7406 2.12941 59.7419C2.17343 59.9404 2.39325 59.8325 2.12575 60.3959C2.47551 60.2596 2.63963 60.9653 2.97226 60.8747C2.95623 60.6785 2.94614 60.4751 2.92649 60.285C2.8111 60.5015 2.49368 60.5374 2.39948 60.2085C2.27943 59.7886 2.49943 59.1762 2.14711 59.2013C2.16366 59.0339 2.17343 58.8781 2.18739 58.7155C2.27479 58.7825 2.36274 58.848 2.45014 58.9138C2.31311 58.451 2.35767 58.1602 2.578 57.9378C2.6287 58.4892 2.67887 59.0394 2.72905 59.5908C2.74404 59.5095 2.75914 59.4272 2.77361 59.346C2.9987 59.7635 3.21191 59.3328 3.26003 60.1116C3.15708 60.1068 3.05406 60.103 2.9506 60.0982C3.22589 60.3817 3.2244 61.158 3.54108 60.9104C3.44381 61.1448 3.38229 61.1926 3.55299 61.3254C3.31237 61.9438 3.00809 62.3411 2.64483 62.1209C2.70329 62.3506 2.76183 62.5804 2.82029 62.8088C2.91963 62.676 3.0185 62.5431 3.11783 62.4104C3.11162 62.8099 3.10551 63.2124 3.09982 63.6107C2.80595 63.649 3.01067 62.8417 2.74797 63.0746C2.69524 63.1212 2.80819 63.3362 2.77849 63.3927C2.45717 63.9884 2.68932 63.0533 2.44312 63.2289C2.36705 64.1165 1.95452 63.4062 2.30122 64.6288C2.21637 64.6611 2.12982 64.6958 2.04549 64.7257C2.0404 65.1501 2.23204 65.1157 2.26826 65.4805C2.29079 65.7089 1.95426 65.9957 2.18342 66.248C2.22567 66.293 2.63699 65.8686 2.61889 66.7606C2.60486 67.4528 2.31419 67.1647 2.21119 67.5389C2.10822 67.9134 2.51126 68.7699 2.05434 69.0223C2.11486 68.8262 2.14751 68.5764 2.19716 68.3587C2.10817 68.2702 2.02014 68.184 1.93167 68.0967C2.04654 68.5944 1.91115 69.1088 2.12331 69.4437C1.79886 70.1076 2.09995 70.8502 2.46631 70.6492C2.41349 70.4307 2.25374 70.6684 2.35554 70.3649C2.44092 70.3338 2.52588 70.301 2.61126 70.2699C2.60091 70.7867 2.60331 71.1456 2.34302 70.9099C2.33681 70.9901 2.33062 71.0695 2.32441 71.1496C2.51277 71.164 2.70182 71.1767 2.89018 71.1911C2.91139 71.2868 2.93244 71.3829 2.95365 71.4786C2.91228 71.585 2.87042 71.6916 2.82853 71.7992C2.53048 71.6545 2.52063 71.4079 2.35401 72.2238C2.45698 72.2262 2.55955 72.2297 2.66253 72.2321C2.63077 72.3978 2.59203 72.5243 2.5517 72.6333C2.43108 72.9693 2.28207 73.1501 2.37017 73.8061C1.92702 73.1691 2.57188 72.7661 1.85174 72.7852C1.86438 72.7345 1.87749 72.6839 1.89103 72.6333C1.92483 72.515 1.95877 72.3965 1.99239 72.2786C1.88838 72.2535 1.78422 72.2286 1.68021 72.2047C1.68836 72.3362 1.71036 72.4807 1.74045 72.6333C1.89914 73.6049 2.55938 74.6502 2.35408 75.2556C2.42895 75.3115 2.49784 75.3692 2.57813 75.4221C2.52235 76.0955 3.18702 76.089 3.14617 76.7799C3.14958 76.8519 2.54725 77.0102 3.01407 77.7281C3.06577 77.6697 3.16638 77.5926 3.23734 77.5278C3.29398 77.7028 3.35417 77.8777 3.4209 78.0509C3.49615 78.0368 3.57201 78.0233 3.64709 78.0075C3.48999 77.7487 3.34732 77.4837 3.218 77.2128C3.36514 77.4143 3.52094 77.61 3.68321 77.7971C3.59052 77.4689 3.52124 77.3511 3.77492 77.4084C3.93356 77.6269 4.10283 77.8374 4.28048 78.0393C4.33404 78.0315 4.3877 78.0227 4.44089 78.0141C4.46624 77.8271 4.49458 77.644 4.53372 77.462C4.84113 78.057 5.23833 78.4697 5.45579 79.0177C5.49549 79.1093 5.12948 79.0473 5.71296 79.3122C5.6613 79.3933 5.62665 79.4648 5.58101 79.5414C6.36386 79.7929 6.5033 79.9777 7.14278 80.5198C6.75581 80.123 7.11997 80.4413 7.28085 80.4087C7.38988 80.3876 7.07119 80.2438 7.13877 80.1981C7.20855 80.1579 7.71933 80.0903 7.40096 79.9009C6.31731 79.977 6.43792 79.2717 5.39327 78.7285C5.57734 78.7964 5.76311 78.8575 5.94742 78.91C5.91374 78.8188 5.88554 78.7367 5.85262 78.6388C6.26957 79.1252 6.08144 78.8748 6.33809 78.9595C6.59722 79.0428 7.02259 79.2279 7.30352 79.35C7.39218 79.3888 7.23973 79.4549 7.43045 79.5673C7.56291 79.6474 8.00853 79.6385 8.0114 79.8796C8.02501 80.041 7.20585 80.1512 8.1212 80.5092C8.24829 80.7082 7.81546 80.5023 7.80073 80.5116C7.65015 80.6383 8.19847 80.9879 8.51763 80.9382C8.54208 80.9338 8.36597 80.7428 8.61357 80.7614C9.1984 80.7963 9.48172 80.9961 9.83582 81.253C9.91266 81.0224 10.3912 80.8053 10.9569 80.8781C10.9682 80.8796 10.9795 80.8811 10.9908 80.8828C11.0219 80.8135 11.0515 80.7435 11.0826 80.6737C11.0407 80.69 10.9988 80.7062 10.9569 80.7224C10.9068 80.7427 10.8565 80.7624 10.8059 80.7819C10.7081 80.7367 10.6064 80.7013 10.5146 80.645C10.7104 80.6352 10.8496 80.5847 10.9569 80.5205C11.1809 80.3951 11.2843 80.2222 11.4778 80.1415C12.4807 79.7244 11.8729 80.6068 11.692 80.7589C11.5616 80.6973 11.4356 80.6286 11.3064 80.5639C11.3207 80.6482 11.3353 80.7332 11.3484 80.8181C12.8497 80.8155 11.5771 81.3656 12.3391 81.5224C12.5353 81.1074 13.0949 81.0674 13.8078 81.3307C13.8868 81.3287 13.966 81.3281 14.045 81.3256C14.0581 81.265 14.0579 81.1726 14.0794 81.1327C14.9383 81.0623 15.0913 81.7014 15.1727 81.7619C15.5339 82.0304 15.8152 81.6589 15.9217 81.6557C16.3703 81.6428 16.5007 81.8078 16.9277 81.7369C17.387 81.6603 17.0729 81.5338 17.2126 81.4205C17.3247 81.3305 17.6871 81.3144 17.8367 81.2212C17.7773 81.2975 17.7112 81.3723 17.6519 81.4488C18.0648 81.539 18.4123 81.6273 18.85 81.6656C18.9224 81.6715 18.9969 81.6753 19.0737 81.6768C19.6718 81.1074 20.3134 81.9434 19.9955 81.2215C19.4634 81.2395 19.1816 81.1557 18.9038 80.9653C19.2405 80.938 19.5527 80.8933 19.8783 80.826C19.9833 80.8966 20.0623 80.9677 20.189 81.0331C20.4075 80.8218 20.9692 80.762 21.1707 80.636C22.0701 80.0388 21.5904 79.9207 22.6594 79.8958C22.1047 80.2856 22.2078 80.512 21.5384 80.7461C21.742 80.8616 22.0738 80.677 21.9344 80.9679C22.5647 80.6281 22.2661 80.5457 22.4225 80.2759C22.5524 80.0437 22.9165 79.7908 22.7869 79.6488C22.8822 79.7088 22.9686 79.7706 23.0665 79.8277C23.4187 79.5731 23.7471 79.2836 24.0435 78.9656C23.996 79.1745 23.9363 79.3857 23.8644 79.5959C24.0006 79.5277 24.1364 79.4534 24.2697 79.3751C24.8573 78.4038 26.1937 76.9051 25.2818 76.8444C25.4509 76.3651 25.5606 76.3409 25.7994 76.1157C25.7469 76.0673 25.7042 76.0233 25.644 75.9741C25.7996 75.6706 25.6175 75.3717 25.7259 75.1029C25.8323 74.831 26.0628 74.7794 25.6882 74.6964C25.8174 74.5258 25.922 74.3462 26.0306 74.1601C25.9478 74.0425 25.8634 73.9288 25.776 73.8201C25.8199 73.6466 25.8574 73.4696 25.8885 73.2902C25.7062 73.2113 25.6961 72.525 25.4986 72.2642C25.6183 71.9504 26.238 71.7744 25.8796 71.1195C25.7432 71.1928 25.6067 71.2645 25.4694 71.3357C25.4437 71.1779 25.412 71.0197 25.3742 70.8615C25.4157 70.8318 25.4577 70.8031 25.499 70.7731C25.52 70.8547 25.539 70.9353 25.5563 71.0171C25.6066 70.9183 25.6551 70.8191 25.7017 70.7175C25.4809 70.5388 25.2529 70.3771 25.0206 70.234C25.1065 70.5626 25.1657 70.8937 25.1979 71.2189C24.9432 70.905 24.9154 70.6121 24.6326 70.388C24.6563 70.0276 24.8105 70.044 25.0761 70.032C24.9963 69.9419 24.915 69.8541 24.8318 69.77C25.0615 69.7062 25.074 69.4419 25.4372 70.0672C25.4689 69.9914 25.4963 69.9154 25.5285 69.8374C25.4563 69.7401 25.4593 69.642 25.3643 69.5465C25.1002 69.281 24.6099 69.3277 24.5179 69.438C24.4683 69.4915 24.7818 69.6672 24.6881 69.7199C24.4564 69.8404 24.136 69.2052 24.527 70.1848C24.2047 70.0021 24.2621 69.8715 24.0592 69.5573C24.0136 69.6351 23.9669 69.711 23.9188 69.7864C23.8433 69.6354 23.7576 69.4833 23.6673 69.3364C24.1762 69.2146 23.2768 68.1255 24.4567 68.7334C24.2078 68.4446 23.9298 68.1709 23.6378 67.9234C23.7284 67.9356 23.8187 67.9499 23.9094 67.9655C24.0296 68.0935 24.1497 68.2291 24.2618 68.366C24.1667 68.1643 24.0591 67.9638 23.9445 67.7684C23.4815 67.5375 23.2322 67.5738 22.946 67.6216C23.3307 68.0364 23.2841 67.7745 23.6597 68.0055C23.5729 68.0933 23.5192 68.1943 23.4119 68.2742C23.3959 67.9299 22.6901 67.6947 22.5409 67.6363C22.0895 67.4379 22.5492 67.3971 22.2476 67.2396C21.9455 67.087 21.5607 67.079 21.3599 66.7896C21.3529 66.778 21.3462 66.7658 21.3401 66.753C21.307 66.8566 21.2824 66.9664 21.2621 67.0694C21.2567 67.0979 21.2516 67.1258 21.2466 67.153C21.2424 67.1519 21.2382 67.1508 21.2341 67.1497C20.7563 67.0195 20.9131 66.8971 20.8733 66.8605C20.279 66.2144 19.7787 66.2692 19.0236 65.6916C19.0853 65.8017 19.1543 65.9085 19.2257 66.0152C18.484 65.7802 18.8919 66.0383 19.3671 66.493C18.891 66.1215 18.4694 66.0744 18.0975 65.8087C17.721 65.5466 17.3466 64.8508 17.2891 64.5658C17.7656 64.9949 18.1143 65.5697 18.6648 65.9958C18.6996 65.8382 18.7251 65.6999 18.7757 65.5345C18.2803 65.4744 18.2631 65.1496 18.2101 65.0288C18.0534 64.6632 17.8615 64.8221 17.9443 64.4746C17.8734 64.5372 17.8134 64.5892 17.7479 64.6487C17.2918 63.9633 17.0971 63.1311 16.6049 62.7381C16.8038 62.6199 17 62.5187 17.2048 62.4007C16.9463 62.1439 17.0519 61.8288 16.9665 61.5756C16.8838 61.3175 16.7163 61.4483 16.6082 61.1305C16.5889 61.0706 16.6907 60.9366 16.5983 60.7938C16.5537 60.7246 16.3816 60.5661 16.2806 60.3983C16.1697 60.2194 16.1349 60.0467 16.4227 60.011C16.4253 59.7228 16.4455 59.4499 16.4548 59.1677C16.4858 59.4428 16.5159 59.718 16.5469 59.9919C16.6804 59.7575 16.8135 59.5245 16.947 59.29C16.828 59.2601 16.7068 59.2301 16.5893 59.2014C16.4445 58.5698 16.639 58.1115 16.593 57.4739C16.5852 57.3674 16.3499 57.6186 16.4099 57.1462C16.4699 56.6737 16.9091 56.323 16.7395 55.5181C16.7307 55.4774 16.3943 55.239 16.6272 54.9507C16.68 54.8851 16.7581 55.1612 16.8274 55.0106C16.8967 54.8599 16.9537 54.1874 17.1188 54.1347C17.0603 54.1419 16.9998 54.1839 16.9403 54.2042C16.9123 54.0894 16.8844 53.9734 16.857 53.8574C16.9599 53.8467 17.063 53.835 17.1655 53.8243C16.9259 53.164 16.5351 52.8227 16.6644 51.8442C16.5149 52.1194 16.3647 52.3946 16.2152 52.6685C16.3203 52.7439 16.426 52.8194 16.5311 52.8935C16.4892 53.3445 16.4475 53.7966 16.4056 54.2476C16.5252 54.3217 16.6444 54.3946 16.7639 54.4688C16.7484 54.5884 16.7333 54.7068 16.7178 54.8264C16.6314 54.7965 16.5455 54.7663 16.459 54.7352C16.4803 54.972 16.5019 55.2091 16.5231 55.4448C16.0131 54.9651 16.5665 54.1052 16.1398 54.1672C16.206 54.0608 16.2727 53.9543 16.3394 53.8479C16.1325 53.8012 16.1921 53.5848 16.2247 53.2034C16.1227 53.2907 16.0222 53.3871 15.9192 53.4673C16.063 53.0964 16.0491 52.4386 16.1044 52.0546C16.1288 51.886 16.2788 52.0544 16.2964 52.0043C16.3885 51.7471 16.1268 51.2555 16.1475 51.1526C16.2706 50.5377 16.7668 50.1382 16.4398 49.4671C16.3591 50.1597 16.3932 49.7829 16.2116 50.0293C16.1546 50.1065 16.0358 51.0013 16.0886 49.8808C16.0952 49.7494 16.438 47.7163 16.7007 48.3846C16.6169 48.0557 16.52 47.7981 16.431 47.4966C17.1233 46.7597 16.4729 47.0147 16.1148 47.2289C16.1133 47.1081 16.1096 46.9931 16.1096 46.8687C16.4858 47.1331 16.5092 45.7862 16.3193 45.3292C16.2561 45.1761 16.1357 45.6042 16.0788 45.2501C16.1052 45.0815 16.1394 44.8903 16.1688 44.7121C15.9308 44.9705 15.8391 44.4634 15.597 44.4705C15.8127 44.1463 16.2701 43.8984 16.5179 44.0765C16.4176 43.8086 16.3173 43.5393 16.2164 43.2714C16.159 43.3958 16.1021 43.5218 16.0446 43.6462C16.1968 42.7705 15.8506 41.6446 16.3593 41.4616C16.3556 41.3455 16.3525 41.2283 16.3489 41.1122C16.263 41.0763 16.1769 41.0417 16.091 41.0058C16.1655 40.4807 16.2405 39.9569 16.315 39.4318C16.3683 39.8993 16.4906 40.0106 16.3913 40.5009C16.4901 40.312 16.5894 40.1195 16.6882 39.9342C16.4222 39.1961 16.2474 39.0954 16.3266 37.9841C16.3302 37.9339 16.5533 37.0942 16.575 37.0655C16.6743 36.934 16.8187 37.1336 16.8689 37.0751C17.0096 36.9124 17.363 35.9237 17.4163 35.9429C18.0704 36.1845 18.0791 39.5108 18.1127 40.4104C18.3641 47.1358 18.1919 53.7545 18.1059 60.3983C18.0506 62.3688 19.1981 64.346 20.9753 65.2569C21.0403 65.2902 21.0573 65.1897 21.0863 65.2003C21.264 65.2663 21.3741 65.4786 21.4395 65.5126C21.5772 65.5831 21.5511 65.4224 21.6534 65.4623C21.7034 65.4815 21.7536 65.5002 21.8041 65.5183C23.4315 66.0959 24.8643 67.1257 25.9787 68.5418C26.0545 68.6393 25.8912 68.6057 26.0341 68.7664C26.1078 68.8472 26.4472 69.0379 26.5816 69.2585C27.0446 70.0189 27.2866 70.7331 27.5219 71.6211C27.6535 72.1082 27.7564 72.8551 27.7821 73.4111C27.7959 73.656 27.8768 73.9123 27.8723 74.1575C27.8634 74.505 27.7052 74.4241 27.6931 74.4762C27.6346 74.7018 27.8046 74.7485 27.7764 74.9688C27.7159 75.3764 27.6021 75.3804 27.5082 75.8864C27.446 76.248 27.2887 77.0885 27.1212 77.535C26.5868 78.5072 25.852 79.6889 25.1197 80.4512C24.6871 80.9027 24.5287 80.8032 24.3361 80.962C23.6499 81.5 23.1525 82.0203 22.3691 82.3502C21.3244 82.7754 20.3254 82.8232 19.3025 82.8618C19.1354 82.8669 19.1787 83.0145 19.0108 83.0216C18.9585 83.0236 18.9048 83.0253 18.85 83.0266C18.3693 83.041 17.7944 83.0621 17.3835 83.0427C16.8835 83.0194 16.6991 82.8034 16.2099 82.8474C16.0665 82.8604 16.0244 83.0498 15.784 83.0741C15.4001 83.1124 14.9791 82.9454 14.7112 82.9267C14.3439 82.9019 14.6633 83.0948 14.168 83.0689C14.1477 83.0678 14.0736 82.9299 13.9672 82.9365C13.6574 82.9551 13.6881 83.0637 13.2347 83.0534C13.1912 83.0519 12.5901 82.9205 12.5303 82.92C12.1786 82.9179 11.4706 82.8719 11.2624 82.8999C11.1149 82.9196 11.0197 82.9435 10.9569 82.9657C10.6506 83.0512 10.9705 83.1262 10.3819 82.7403C10.0453 82.8317 9.70188 82.909 9.32819 82.959C9.57659 82.9027 8.65113 82.5918 8.58894 82.5746C8.0304 82.5081 8.30227 82.7729 7.62178 82.5273C8.64361 82.4362 6.76633 82.1972 6.38991 81.9756C4.5545 81.1197 3.20469 79.7585 2.14184 78.0569C1.78292 77.4878 1.31082 76.7007 1.08382 76.0131C1.03025 75.8539 1.16111 75.9438 1.11746 75.8036C1.07447 75.6635 1.02071 75.8513 0.97624 75.6889C0.710144 74.6649 0.795384 73.8476 0.511375 72.9093C0.546895 72.8618 0.575742 72.8626 0.614778 72.7854C0.600047 72.7376 0.587637 72.6867 0.57748 72.6333C0.423283 71.9677 0.694588 70.8539 0.733912 70.4184C0.799074 69.6925 0.645538 69.507 0.676542 68.9796C0.717937 68.2822 1.01789 67.2351 0.522741 67.7028C0.507223 67.2243 0.502938 66.7637 0.548984 66.2805C0.554204 66.2267 0.680058 66.2638 0.682645 66.2423C0.700714 66.1059 0.588031 66.0615 0.582857 65.9694C0.568939 65.7197 0.70386 66.1272 0.666166 65.7712C0.645986 65.5834 0.547705 65.4767 0.545628 64.9552C0.534761 61.8114 0.56996 58.3983 0.586519 55.1756C0.587554 54.9543 0.465848 55.0999 0.47361 54.8224C0.500543 53.8582 0.705365 52.1324 0.677457 51.301C0.649516 50.4696 0.471538 50.6572 0.397014 50.1369C0.382525 50.0364 0.483959 50.1188 0.485511 50.0279C0.494834 49.4166 0.653044 48.6878 0.676847 48.1926C0.692796 47.8651 0.533223 47.8913 0.521825 47.6641C0.505266 47.3256 0.666484 46.9771 0.671659 46.7965C0.694391 45.9473 0.56454 45.3635 0.630767 44.5704C0.595649 44.6014 0.56314 44.6219 0.528539 44.6482C0.53423 43.7092 0.539936 42.7714 0.545628 41.8324C0.513545 41.8767 0.481187 41.9195 0.448586 41.9637C0.466193 40.862 0.813912 40.9878 0.0796473 41.0847C0.0537798 41.0045 0.0237966 40.9196 4.76837e-07 40.8431C0.37824 40.8741 0.65504 40.2077 0.751306 39.3596C0.75855 39.2974 0.389756 38.88 0.82546 38.9255C0.718866 38.8166 0.645387 38.7518 0.551731 38.6597C0.683643 38.4803 0.813994 38.2985 0.945388 38.1191C0.92573 38.0222 0.90676 37.924 0.887102 37.8271C0.801721 37.8128 0.713071 37.8238 0.629242 37.7927C0.616307 37.343 0.721859 36.4205 0.711025 36.0651C0.683599 35.1823 0.452758 34.2835 0.702175 33.5968C0.676746 33.2623 0.509167 33.5945 0.53037 33.097C0.615213 33.0408 0.696531 32.9879 0.783958 32.9293C0.404879 32.5228 0.635483 32.4378 0.714687 31.8807C0.768497 31.5039 0.675848 31.2571 0.693936 30.8983C0.698593 30.8074 0.809857 30.8203 0.806235 30.7581C0.79476 30.5497 0.641619 29.9553 0.637481 29.8082C0.597128 28.4757 0.614305 27.3309 0.65518 26.0617C0.65932 25.9254 0.549515 26.1022 0.554172 25.961C0.561046 25.7475 0.710638 25.8529 0.735359 25.7568C0.736929 25.7494 0.738003 25.7409 0.738524 25.7313C0.769087 25.2848 0.582756 25.274 0.639092 24.6383C0.827893 22.5299 2.09112 20.3087 3.70735 18.8833C3.75713 18.8377 3.68406 18.7632 3.73875 18.7128C4.09841 18.3844 4.57329 18.2023 4.93343 17.9656C5.53362 17.5757 5.95618 17.1946 6.63287 16.93C7.75225 16.5046 8.85277 16.3611 10.0228 16.3767C10.1962 16.3802 10.3723 16.3825 10.5519 16.3831C11.5066 16.3868 12.3356 16.3729 13.3824 16.3734C15.0776 16.3741 16.7856 16.3291 18.4985 16.2812C22.2399 15.9749 26.1683 19.2581 26.4933 23.0289C26.5123 23.1795 26.4114 23.132 26.4222 23.1768C26.5203 23.6008 26.6401 23.6363 26.3936 23.8083C26.4743 24.3501 26.6772 24.5325 26.6064 25.2163C26.5562 25.5795 26.3003 25.2702 26.3549 25.8931C26.3593 26.4544 26.7558 25.9296 26.0386 27.4682C26.0161 27.5094 25.7687 27.638 25.6588 27.9666C25.5353 28.2975 25.8682 28.0053 25.4588 28.7661C24.6611 30.2212 22.9348 31.4802 21.1962 32.0391C20.9797 32.1119 20.7725 32.2063 20.5822 32.3208C20.5088 32.3476 19.9892 32.8215 19.9328 32.9539C19.8022 33.194 19.934 33.2516 19.7482 33.5076C19.6125 33.706 19.364 33.7804 19.2419 34.0536C19.2287 34.0863 19.3371 34.2103 19.2279 34.3907ZM3.05374 71.1483C3.21067 71.2464 3.78827 71.4235 3.61249 72.0166C3.59593 72.0728 3.19872 71.7693 3.13553 72.0969C3.09361 71.7763 3.08004 71.4641 3.05313 71.1483C3.05334 71.1483 3.05354 71.1483 3.05374 71.1483ZM15.2027 35.8069C15.2413 35.2779 15.3372 34.7527 15.4875 34.2497C15.4712 34.6179 15.4837 34.9828 15.5239 35.3373C15.4119 35.4873 15.3046 35.6434 15.2027 35.8069ZM3.35585 35.7636C3.35585 35.7632 3.35585 35.7627 3.35585 35.7623C3.43037 36.2289 3.50502 36.6957 3.57953 37.1622C3.52468 37.1132 3.4696 37.064 3.41475 37.015C3.32835 36.6466 3.24207 36.278 3.15567 35.9108C3.2224 35.8618 3.28912 35.8126 3.35585 35.7636ZM2.77513 32.0777C2.84033 31.7798 2.95029 31.8527 3.0574 31.6888C3.0572 31.6888 3.057 31.6888 3.05679 31.6888C3.08468 31.6455 3.10908 31.4441 3.11325 31.3662C3.04443 31.3949 2.97649 31.432 2.90818 31.4631C2.74156 30.7681 3.33366 29.4089 3.57221 31.1686C3.4853 31.1423 3.39882 31.1172 3.31191 31.0908C3.33623 31.9653 3.1477 32.9402 2.77513 32.0777ZM4.8651 77.2662C5.50701 77.615 5.65968 77.7064 6.13063 78.3788C5.99249 78.368 5.85326 78.353 5.71309 78.3336C5.66883 78.1811 5.63043 78.0299 5.59717 77.8783C5.59691 77.878 5.59665 77.8777 5.59639 77.8775C5.51622 77.9191 5.43535 77.96 5.35488 78.0009C5.17681 77.7643 5.01282 77.5182 4.8651 77.2662ZM20.1732 18.9401C20.192 19.5427 20.2307 19.1892 19.7052 19.2017C19.5226 19.2105 19.6724 19.3415 19.5625 19.3371C18.9944 19.333 18.9578 18.972 19.1185 18.782C19.4795 18.8028 19.8361 18.8569 20.1721 18.9397C20.1725 18.9398 20.1729 18.94 20.1732 18.9401ZM18.1569 31.0376C18.1565 31.0379 18.1562 31.0383 18.1559 31.0386C18.0468 30.9497 18.2549 30.7149 17.906 30.8503C18.104 30.6699 18.3131 30.5014 18.5318 30.3446C18.4752 30.4012 18.4183 30.4591 18.364 30.5174C18.448 30.5126 18.5319 30.51 18.6148 30.5087C18.597 30.3257 18.7229 30.3455 18.9827 30.2438C18.8281 30.1399 18.6692 30.04 18.5063 29.9446C18.8191 29.7943 19.1409 29.668 19.4653 29.567C19.4878 29.6039 19.5103 29.6407 19.5325 29.6776C19.6204 29.5743 19.7117 29.4723 19.8076 29.3727C19.8593 29.4066 19.9091 29.4411 19.9596 29.4759C20.0489 29.4102 20.1399 29.3465 20.2336 29.2842C20.2622 29.2624 20.2903 29.2404 20.318 29.2182C20.3941 29.3209 20.1693 29.4673 20.5909 29.2691C20.5256 29.4054 20.4525 29.5414 20.3709 29.6772C20.3463 29.7132 20.3221 29.7494 20.2984 29.7857C19.5162 30.0614 18.7841 30.4882 18.1569 31.0376ZM14.9397 18.8897C15.7974 18.8659 15.5559 18.9559 15.3573 19.2373C15.2186 19.1214 15.0785 19.0056 14.9397 18.8897ZM2.90513 53.0987C3.09711 53.3475 3.28717 53.5974 3.47242 53.8522C3.57954 54.3594 3.22963 54.8668 3.0925 54.4852C2.92796 54.0258 3.11211 53.5461 2.90513 53.0987ZM2.99057 64.6511C3.0796 64.0305 3.30771 64.6144 3.44069 64.7544C3.22697 64.9261 3.24582 65.1655 3.22097 65.55C3.20711 65.1889 2.97546 64.7537 2.98996 64.6511C2.99017 64.6511 2.99037 64.6511 2.99057 64.6511ZM3.12088 43.1118C3.11514 42.8632 3.06152 42.6158 3.12668 42.3934C3.31025 42.4605 3.14324 42.9053 3.41536 42.5872C3.42001 42.7463 3.42453 42.9055 3.4297 43.0634C3.31695 42.9631 3.23269 43.098 3.12149 43.1112C3.12129 43.1114 3.12108 43.1116 3.12088 43.1118ZM7.14918 19.757C6.66907 19.7531 6.62483 19.8853 6.34882 20.2435C6.19346 20.1324 6.48009 19.588 6.76846 19.3738C6.89838 19.4992 7.02525 19.6271 7.14918 19.757ZM15.5503 50.7911C15.7758 50.9083 15.8052 51.7729 15.7386 52.2025C15.7051 52.1514 15.6712 52.1 15.6372 52.0489C15.6083 51.6302 15.5793 51.2098 15.5503 50.7911ZM3.20571 65.7329C3.21232 65.6686 3.21725 65.6076 3.22097 65.55C3.22343 65.614 3.21959 65.6758 3.20571 65.7329ZM16.6453 81.3634C16.4408 81.576 17.0486 81.6475 16.3106 81.5642C16.3106 81.5644 16.3106 81.5646 16.3106 81.5648C15.8225 81.5099 15.7148 81.4953 15.2626 81.4787C15.4254 81.2056 16.3427 81.1079 15.0783 81.0515C15.0617 81.0513 15.0948 81.2138 14.8928 81.1916C14.8305 81.1847 14.6309 81.0513 14.3274 81.0125C14.2293 81 13.4922 80.9589 14.497 80.9563C14.4671 80.7659 14.521 80.5731 14.5186 80.3884C14.9109 80.3347 15.2123 80.7076 15.6272 80.6984C16.2433 80.684 16.5568 80.3069 16.6752 80.8016C16.1572 80.9231 15.2677 80.9261 15.1517 80.6286C14.6505 80.6249 14.5066 80.8687 14.9107 80.9893C16.6417 80.8361 15.3859 81.3511 16.9015 81.1565C16.9195 81.0877 16.9818 81.0136 16.9723 80.949C17.435 81.1911 16.7182 81.2873 16.6453 81.3634ZM13.0257 80.8373C13.3247 80.6919 13.6228 80.5453 13.9207 80.3994C13.9207 80.6364 13.7564 80.849 13.2851 80.9826C13.199 80.9339 13.1117 80.8854 13.0257 80.8373ZM21.9115 67.8883C21.8189 67.9865 21.6678 68.0461 21.5514 68.1288C21.5407 68.0798 21.2961 67.9271 21.0115 67.7867C20.4559 67.5218 19.9258 67.176 20.6172 67.4205C20.6801 67.4406 20.8487 67.5447 21.0612 67.6446C21.3651 67.7894 21.699 67.9623 21.9115 67.8883ZM10.0188 18.912C9.78869 18.8257 9.55246 18.7506 9.30948 18.688C9.54206 18.6287 9.77989 18.5803 10.0228 18.5437C10.1571 18.5244 10.2914 18.505 10.4257 18.4857C10.291 18.6262 10.1574 18.7669 10.0228 18.9074C10.0214 18.9089 10.0201 18.9105 10.0188 18.912ZM2.67901 57.227C2.68384 57.1199 2.86104 57.4757 2.83311 57.0536C2.94644 57.3682 3.04236 57.6629 3.14895 57.9703C3.06512 58.0624 2.98163 58.1555 2.89781 58.2476C2.95162 58.3194 3.00511 58.3926 3.05893 58.4643C2.93681 58.4213 2.81754 58.3829 2.69335 58.3375C2.95518 57.8195 2.65831 57.7007 2.67901 57.227ZM2.20143 41.8248C2.46684 41.7316 2.62467 42.4817 2.6671 41.7438C2.84148 41.8838 2.93294 42.1088 2.94846 42.5407C2.88178 42.61 2.81557 42.6792 2.74889 42.7485C2.92734 42.7581 2.99366 42.8692 3.12088 43.1118C3.12067 43.1121 3.12047 43.1123 3.12027 43.1125C3.13319 43.769 3.07369 43.7298 2.78032 43.8877C2.94591 43.1926 2.67787 43.1719 2.51849 42.6981C2.4089 42.3728 2.45853 41.948 2.20143 41.8248ZM23.693 69.1132C23.1972 68.9669 23.3889 69.3859 22.9116 68.7095C22.9873 68.6944 23.0633 68.681 23.14 68.6684C23.3313 68.8049 23.5174 68.9545 23.693 69.1132ZM3.11111 39.3992C2.70027 39.4554 2.38047 39.9181 3.04886 39.9971C3.18495 39.5461 2.80635 39.7664 3.11111 39.3992ZM2.3473 64.4395C2.36647 63.5723 2.83017 63.7362 3.06198 64.0927C2.97764 64.1477 2.89314 64.2027 2.80931 64.2565C2.8476 64.4085 2.88597 64.5604 2.92374 64.7123C2.73177 64.6214 2.53927 64.5304 2.3473 64.4395ZM2.83066 24.1723C2.98382 24.8481 3.14462 23.5507 3.22266 24.0198C3.27853 24.3773 2.92319 24.7724 2.76627 24.5743C2.78101 24.4505 2.80248 24.3153 2.83039 24.1735C2.83048 24.1731 2.83057 24.1727 2.83066 24.1723ZM2.7437 27.9455C3.05718 27.8367 2.96581 27.9935 2.9094 27.4699C2.89336 27.3204 3.01109 26.1322 2.75133 26.631C2.75133 27.0556 2.7468 27.5042 2.7437 27.9455ZM2.99138 74.3704C2.85087 74.4185 2.40622 73.57 2.4821 73.4371C2.4819 73.4371 2.48169 73.4371 2.48149 73.4372C2.65224 73.1122 2.78488 74.0383 3.01611 73.6035C2.8908 74.5174 3.57793 74.6244 2.79249 74.7623C2.63078 74.2454 2.85217 74.4584 2.99138 74.3704ZM16.1929 39.4388C16.1929 39.4384 16.1929 39.438 16.1929 39.4376C16.1865 39.499 15.9862 40.0053 15.9168 39.9437C15.9763 39.3349 16.1082 39.4434 15.8914 38.8766C15.9612 38.8455 16.0289 38.8189 16.0993 38.7854C16.1407 39.0103 16.2245 39.135 16.1929 39.4388ZM19.8939 66.6936C20.1041 66.7788 20.4071 67.1007 20.6555 67.1956C19.6191 67.375 19.0338 66.3093 19.8939 66.6936ZM24.0193 25.8726C24.0193 25.872 24.0192 25.8713 24.0192 25.8707C24.0194 25.871 24.0196 25.8713 24.0199 25.8715C24.0197 25.8719 24.0195 25.8722 24.0193 25.8726ZM22.6876 79.5888C22.7306 79.6042 22.7615 79.6218 22.782 79.6418C22.7835 79.6439 22.785 79.6461 22.7865 79.6483C22.7547 79.6283 22.7221 79.6083 22.6876 79.5888ZM3.60932 76.0704C3.59214 76.4974 2.79362 75.4724 2.76903 75.0348C2.86048 75.0377 2.93724 75.02 3.05157 75.0529C2.9235 75.4409 3.61005 76.0155 3.60932 76.0704ZM2.77727 47.4174C2.77209 48.4211 2.02037 47.1149 2.62011 47.0611C2.63173 47.0631 2.77624 47.3915 2.77727 47.4174ZM2.76842 68.4505C2.54083 68.1948 2.48039 68.7087 2.51971 67.887C2.57866 67.8392 2.63775 67.7914 2.6967 67.7435C2.7205 67.9791 2.74462 68.2149 2.76842 68.4505ZM1.79038 53.9924C1.91715 55.2556 2.1408 56.4638 2.76842 55.6409C2.74826 55.5453 2.72876 55.4484 2.70861 55.3528C2.40241 55.3384 2.56955 54.9857 2.57952 54.4692C2.45796 54.3956 2.42985 54.1093 2.32655 54.0555C2.12686 53.9516 1.98646 54.2807 1.79038 53.9924ZM22.8625 19.7088C22.8112 19.7319 22.7603 19.756 22.71 19.7796C22.5245 19.6854 22.3373 19.6033 22.1472 19.5321C22.233 19.4715 22.3201 19.4122 22.4083 19.354C22.5657 19.465 22.7149 19.5811 22.8618 19.7077C22.862 19.7081 22.8623 19.7084 22.8625 19.7088ZM11.7947 81.4833C11.8963 80.9736 11.5931 80.9987 10.9569 81.2133C10.8741 81.2409 10.7852 81.2705 10.6901 81.3008C10.7782 81.3176 10.8672 81.3332 10.9569 81.3473C11.2361 81.3927 11.5158 81.438 11.7947 81.4833ZM2.02352 33.6937C2.18695 33.6674 2.34988 33.6415 2.5133 33.614C2.34306 33.1821 2.1559 33.2623 1.9396 33.4693C1.96752 33.5446 1.99561 33.6184 2.02352 33.6937ZM1.95394 27.4731C1.91985 27.6523 2.0518 27.5608 2.04915 27.5796C1.97981 28.033 1.91929 28.0968 2.01864 28.6531C2.0533 28.7213 2.08975 28.7883 2.12544 28.8565C2.4679 28.5993 2.28125 28.4126 2.48248 27.8684C2.36502 27.9665 2.24739 28.0642 2.12941 28.1622C2.15424 27.8597 2.17873 27.5583 2.20357 27.2557C2.16734 27.2199 2.13146 27.1839 2.09523 27.148C2.04868 27.2556 1.99636 27.3667 1.95394 27.4731ZM24.0737 21.6949C24.1824 21.9683 24.2718 22.2499 24.3418 22.5337C24.4257 22.5201 24.5101 22.5062 24.5942 22.4933C24.4384 22.2111 24.2637 21.9433 24.0737 21.6949ZM17.8367 81.2212C17.8601 81.1913 17.8828 81.1612 17.903 81.1306C17.9011 81.1679 17.8756 81.197 17.8367 81.2212ZM16.6556 38.6624C16.7145 38.3287 16.6758 37.8478 16.6882 37.4818C16.4766 37.5105 16.5351 38.4409 16.4069 38.7676C16.4448 38.8201 16.6307 38.8034 16.6556 38.6624ZM2.36591 63.2397C2.26036 63.156 2.15531 63.0724 2.04976 62.9898C2.06115 62.7877 2.07317 62.585 2.08455 62.3817C1.99814 62.3757 1.91097 62.3698 1.82456 62.3638C1.93683 63.2597 1.68764 63.0531 1.44188 63.4966C1.74972 63.4105 2.05756 63.3258 2.36591 63.2397ZM21.6842 30.2198C22.2769 29.8362 22.391 29.5933 21.9403 29.5834C21.771 29.7589 21.5972 29.9224 21.4066 30.0811C21.4981 30.1287 21.5911 30.1747 21.6842 30.2198ZM26.2728 74.5581C26.2133 74 26.5609 73.9886 26.3451 73.4397C26.2979 73.7382 26.2329 74.0301 26.1532 74.3128C26.1943 74.3926 26.2343 74.4758 26.2728 74.5581ZM3.17561 78.4902C3.24619 78.7809 3.96396 78.7796 4.17376 79.5799C4.38691 79.6104 4.54789 79.5943 4.73796 79.598C4.71035 79.7545 4.69411 79.9216 4.67134 80.0778C4.67171 80.0781 4.67208 80.0784 4.67245 80.0787C5.21592 80.4642 4.98581 80.0571 5.08877 79.9574C5.12904 79.9172 5.44698 80.2831 5.40627 80.09C5.32814 79.7725 4.54904 79.2496 4.74227 79.0465C4.90829 79.3397 5.44597 79.6827 5.41588 79.4241C5.38967 79.1521 4.73475 79.012 4.59951 78.6219C4.65885 79.314 3.97755 78.3961 4.17571 78.0849C3.58519 77.7309 3.84033 78.2797 4.31284 78.7749C3.84429 78.638 4.35693 78.9997 4.28301 79.2194C3.85467 79.0164 3.01769 77.7086 3.17561 78.4902ZM1.68723 48.7313C1.70365 49.162 1.55813 49.835 1.77298 50.1299C1.89816 50.3017 1.99509 49.6271 2.19166 50.0923C2.1725 49.6726 2.09571 49.5768 1.92343 49.6486C1.90274 49.5529 1.88257 49.4561 1.8624 49.3605C1.89601 49.3162 1.92918 49.2708 1.96279 49.2266C1.89191 49.1763 1.82159 49.1258 1.75071 49.0768C1.76467 48.9752 1.77865 48.8724 1.79312 48.7708C1.75748 48.7588 1.72646 48.7385 1.68723 48.7313ZM17.1714 63.046C17.2175 63.1522 17.2655 63.2558 17.3172 63.3592C17.3497 63.3298 17.3829 63.2976 17.416 63.2665C17.4425 63.2428 17.4692 63.2192 17.4959 63.1958C17.4053 63.302 17.4781 63.892 17.7177 64.0205C17.8344 64.081 17.891 63.75 18.183 64.1171C17.9818 63.8449 17.7961 63.5878 17.6327 63.298C17.7076 63.2946 17.7824 63.289 17.8569 63.2838C17.8569 63.2836 17.8569 63.2834 17.8569 63.2831C17.8228 63.1808 17.7914 63.0764 17.7628 62.9732C17.5667 63.0019 17.37 63.0267 17.1714 63.046ZM1.70036 34.0443C1.83541 34.4522 1.90555 34.5888 2.12392 34.3962C2.12402 34.3958 2.12412 34.3953 2.12422 34.3949C2.02748 34.243 1.93076 34.091 1.83402 33.9391C1.78951 33.9738 1.74486 34.0084 1.70036 34.0443ZM21.562 81.5106C22.1593 80.4389 20.3743 81.5366 20.7919 81.6888C20.8154 81.7035 21.4489 81.4606 21.562 81.5106ZM2.09218 64.5988C2.08545 64.3608 2.07938 64.1222 2.07265 63.8829C1.97071 63.938 1.86913 63.9943 1.76719 64.0493C1.87534 64.2324 1.98403 64.4158 2.09218 64.5988ZM24.3006 28.4592C24.6601 28.3683 25.1382 27.7098 25.0469 27.2696C24.9435 27.4339 24.833 27.5941 24.7166 27.7479C24.8637 27.4168 24.9777 27.0808 25.0707 26.7353C24.7749 26.6108 24.8315 27.0609 24.4694 27.5588C24.4136 27.6465 23.786 27.9242 23.9061 28.2491C23.9338 28.3234 24.3242 27.8201 24.2224 28.2873C24.3453 28.1343 24.4352 27.9854 24.5347 27.8279C24.607 27.8537 24.6794 27.8793 24.7528 27.9031C24.6116 28.0974 24.4598 28.2838 24.3006 28.4592ZM1.71195 51.2391C1.69445 51.8308 1.82119 51.9039 2.04519 52.027C2.01983 51.7519 1.99486 51.4767 1.96951 51.2015C1.88383 51.2146 1.79814 51.226 1.71195 51.2391ZM25.4473 22.6536C25.3931 22.2825 25.2542 22.4843 25.1823 22.3521C24.9023 21.8634 24.8841 21.468 24.5611 21.0176C24.6089 21.0332 24.6534 21.0477 24.6998 21.0637C24.6996 21.0633 24.6994 21.0629 24.6992 21.0624C24.145 19.8703 23.7991 19.7158 23.894 19.9191C23.969 20.1318 24.3265 20.7541 24.6625 21.4321C24.6154 21.4924 24.5669 21.5506 24.5188 21.6089C24.8938 22.1646 25.1385 22.7543 25.4473 22.6536ZM13.6453 81.9704C13.6716 82.0128 13.4479 82.2824 13.8678 82.1562C14.2003 81.7625 13.655 81.9579 13.5184 81.8065C13.6321 81.7687 13.7483 81.732 13.8608 81.6942C13.1813 81.5829 13.0821 81.6765 13.3297 81.9643C13.3474 81.9836 13.6189 81.9281 13.6453 81.9704ZM18.1109 82.1644C18.2042 81.5844 17.3466 81.8452 17.3777 82.0253C17.4961 82.0325 17.5881 81.9342 17.7137 81.9777C17.8405 82.0211 17.8729 82.1566 18.1109 82.1644ZM1.56761 68.6169C1.56502 68.642 1.32123 68.8944 1.51207 68.8693C1.96382 68.5571 1.67304 67.928 1.51573 68.0381C1.52351 68.2461 1.5913 68.3849 1.567 68.6169C1.5672 68.6169 1.56741 68.6169 1.56761 68.6169ZM20.7979 31.152C20.8015 31.1548 20.8347 31.1517 20.8837 31.1448C21.0986 31.1054 21.5163 30.9739 21.5497 30.8804C21.5784 30.755 21.5673 30.6389 21.5726 30.519C21.3745 30.6851 21.0065 30.8262 20.8155 30.9495C20.7357 31.0115 20.7136 31.0771 20.7989 31.1516C20.7985 31.1517 20.7982 31.1519 20.7979 31.152Z" fill="black"/>
<defs>
<filter id="filter0_d_94_156" x="5.04884" y="0" width="204.303" height="107.492" filterUnits="userSpaceOnUse" color-interpolation-filters="sRGB">
<feFlood flood-opacity="0" result="BackgroundImageFix"/>
<feColorMatrix in="SourceAlpha" type="matrix" values="0 0 0 0 0 0 0 0 0 0 0 0 0 0 0 0 0 0 127 0" result="hardAlpha"/>
<feOffset dy="5"/>
<feGaussianBlur stdDeviation="2"/>
<feComposite in2="hardAlpha" operator="out"/>
<feColorMatrix type="matrix" values="0 0 0 0 0 0 0 0 0 0 0 0 0 0 0 0 0 0 0.25 0"/>
<feBlend mode="normal" in2="BackgroundImageFix" result="effect1_dropShadow_94_156"/>
<feBlend mode="normal" in="SourceGraphic" in2="effect1_dropShadow_94_156" result="shape"/>
</filter>
</defs>
</svg>
