<svg width="558" height="517" viewBox="0 0 558 517" fill="none" xmlns="http://www.w3.org/2000/svg">
<g opacity="0.99">
<path d="M2.07739 51.8398C2.07739 24.2256 24.4632 1.83984 52.0774 1.83984H506.077C533.692 1.83984 556.077 24.2256 556.077 51.8398V463.84C556.077 491.454 533.692 513.84 506.077 513.84H52.0774C24.4632 513.84 2.07739 491.454 2.07739 463.84V51.8398Z" fill="white"/>
<path d="M4.09402 143.207C4.3195 138.585 4.17169 154.017 4.50843 143.769C4.53118 145.906 4.55464 148.056 4.57739 150.193C4.45268 150.735 4.32828 151.29 4.20357 151.832C4.16685 148.963 4.13013 146.092 4.09341 143.207C4.09361 143.207 4.09381 143.207 4.09402 143.207ZM2.53221 139.289C2.8879 141.919 2.98274 150.275 3.31098 141.248C3.1889 140.531 3.06686 139.796 2.94478 139.078C3.03946 135.944 3.13412 132.791 3.22828 129.657C3.18174 128.53 3.13515 127.404 3.08912 126.277C3.30125 124.842 3.51396 123.419 3.7266 121.984C3.69556 123.258 3.66397 124.55 3.63292 125.824C3.80518 130.862 3.85229 135.345 3.88437 142.185C3.93457 141.584 3.98432 140.982 4.03451 140.382C3.94914 143.853 3.86355 147.322 3.77818 150.779C3.69437 147.777 3.60117 144.421 3.52306 141.638C3.19045 146.09 3.37557 153.943 3.44494 158.03C3.53963 163.596 3.38148 162.338 3.44769 166.468C3.45804 167.127 3.582 167.202 3.58409 168.505C3.59393 175.082 3.52822 187.855 3.23896 180.385C3.27622 169.56 3.04393 160.329 3.1288 149.709C2.79433 152.519 2.68051 146.924 2.53221 139.289ZM3.59722 338.142C3.43477 334.862 3.50033 328.181 3.61308 323.655C3.61308 323.65 3.61308 323.645 3.61308 323.64C3.63792 322.643 3.8538 320.388 3.84501 323.64C3.82993 328.941 3.49011 331.504 3.72081 334.286C3.67786 335.531 3.63965 336.839 3.59722 338.142ZM3.61736 349.663C3.53405 352.915 3.27799 351.44 3.34729 347.368C3.34709 347.368 3.34688 347.368 3.34668 347.368C3.37566 345.669 3.57805 349.005 3.37262 342.911C3.53244 341.667 3.67785 340.441 3.8325 339.212C3.83508 340.704 3.83928 342.064 3.84135 343.629C3.57864 342.576 3.70001 346.412 3.61736 349.663ZM3.3836 185.88C3.61994 186.392 3.61845 184.25 3.78245 180.604C3.77469 184.045 3.76641 187.488 3.75865 190.915C3.63347 189.231 3.50878 187.564 3.3836 185.88ZM3.42022 105.023C3.42022 105.018 3.42022 105.012 3.42022 105.007C3.38297 103.879 3.34558 102.748 3.30884 101.635C3.39319 100.961 3.47717 100.295 3.56151 99.6213C3.48234 95.6372 3.40318 91.6318 3.32349 87.6477C3.58114 88.1318 3.53921 95.2832 3.71928 99.2233C3.64166 105.082 3.4921 107.905 3.27375 108.285C3.32237 107.202 3.3716 106.121 3.42022 105.023ZM554.408 475.409C554.646 474.102 554.826 472.812 554.959 471.493C554.657 473.225 554.275 474.92 553.784 476.614C552.766 481.122 552.457 481.526 549.788 486.942C545.29 495.067 542.57 497.381 540.403 499.691C538.071 501.827 535.938 504.137 528.393 507.773C539.906 500.945 535.321 503.215 541.074 497.722C542.429 496.699 536.974 502.572 540.954 498.875C547.412 492.09 551.962 483.899 553.97 473.788C553.876 474.077 553.779 474.362 553.68 474.648C553.342 476.24 552.927 477.805 552.429 479.361C552.902 477.661 553.273 475.982 553.563 474.224C553.301 476.474 554.335 470.823 554.387 471.606C554.448 471.964 554.133 474.509 553.837 475.998C554.855 472.224 555.422 468.218 555.504 464.249C555.571 466.309 555.512 468.363 555.324 470.414C555.106 472.084 554.804 473.735 554.416 475.379C554.413 475.389 554.411 475.399 554.408 475.409ZM154.161 3.24218C159.2 2.99897 168.356 2.95873 173.175 3.22936C166.833 3.2335 160.504 3.23804 154.161 3.24218ZM3.0937 108.668C3.13505 108.097 3.17595 107.545 3.21729 106.974C3.29386 109.493 3.3699 112.027 3.44647 114.545C3.32698 115.029 3.20748 115.523 3.08851 116.021C3.09007 113.575 3.09215 111.113 3.0937 108.668ZM3.22675 269.821C3.21952 267.978 3.22344 267.815 3.24048 265.52C3.24038 265.522 3.24028 265.525 3.24018 265.527C3.24654 264.618 3.31633 257.006 3.40832 257.855C3.40987 261.634 3.40832 265.665 3.40832 269.532C3.34781 269.649 3.28778 269.674 3.22675 269.821ZM3.28046 225.337C3.28066 225.332 3.28087 225.327 3.28107 225.321C3.29505 223.946 3.32349 222.643 3.32868 221.223C3.47346 226.334 3.2137 227.141 3.28717 231.784C3.36117 236.427 3.50448 239.296 3.14863 243.235C3.09533 241.77 3.01908 240.193 2.95699 238.684C3.09927 232.094 2.96537 230.319 2.82516 225.033C2.97727 225.135 3.12835 225.234 3.28046 225.337ZM489.341 512.804C488.081 512.98 486.677 512.808 486.531 512.806C486.533 512.805 486.536 512.805 486.538 512.805C475.382 512.968 487.991 512.708 477.461 512.68C479.027 512.636 480.568 512.59 482.121 512.545C484.522 512.63 486.998 512.726 489.341 512.804ZM126.829 512.788C126.727 512.737 126.604 512.685 126.501 512.634C132.829 512.646 134.443 512.444 139.701 512.628C135.41 512.682 131.12 512.735 126.829 512.788C126.829 512.788 126.829 512.788 126.829 512.788ZM2.85415 301.714C2.75635 294.698 2.71326 289.508 2.86849 282.77C2.8687 282.765 2.8689 282.759 2.8691 282.754C2.87866 282.366 2.98584 284.245 3.01283 283.738C2.9968 282.348 2.97216 280.912 2.95302 279.507C3.03885 279.317 3.12466 279.135 3.20997 278.945C3.18565 282.9 3.16135 286.856 3.13703 290.825C3.18723 290.239 3.23698 289.639 3.28717 289.053C3.31304 292.422 3.33882 295.778 3.36468 299.146C3.22399 297.974 3.08325 296.806 2.94204 295.649C2.91255 297.669 2.88415 299.693 2.85415 301.714ZM232.172 513.348C231.059 513.293 233.12 513.199 231.392 513.151C229.663 513.103 226.477 513.207 227.224 513.05C229.551 513.028 231.995 513.004 234.366 512.982C226.735 512.697 219.122 512.955 219.005 512.604C226.328 512.695 232.35 512.652 239.439 512.555C239.146 512.834 232.055 513.075 236.52 513.337C235.086 513.34 233.579 513.346 232.188 513.348C232.183 513.348 232.178 513.348 232.172 513.348ZM20.0078 10.2943C23.4727 7.32995 32.7737 2.29433 38.4781 1.21111C39.8512 0.819339 44.5562 0.486064 44.5372 0.601236C44.4228 0.822451 38.8791 1.82841 44.8579 0.971144C42.8477 1.2562 40.913 1.65503 38.9682 2.17056C39.3589 2.22769 39.7403 2.29089 40.1099 2.36043C42.4726 1.76714 44.8683 1.34621 47.2935 1.09638C47.4168 1.13635 47.5395 1.17691 47.6623 1.21775C39.016 2.33466 44.1373 1.83454 39.7766 2.92254C43.809 2.00574 47.9756 1.59533 52.0774 1.69044C49.7048 1.66893 46.9219 1.8789 44.8534 2.1733C44.6077 2.42359 49.5379 1.84439 50.3905 1.93354C52.7912 2.0679 47.8605 1.90414 42.259 3.09367C36.6165 4.16902 30.6525 7.02274 29.8912 7.67165C33.3482 5.97379 37.1793 4.62656 41.0172 3.79474C39.9324 4.09155 38.8391 4.43125 37.7808 4.80186C29.2005 7.08752 20.2226 12.4836 13.5094 20.5384C12.9221 21.2782 12.3543 22.0379 11.8186 22.797C12.0763 22.6426 12.3256 22.5028 12.5845 22.3543C11.7486 23.4951 10.9517 24.6869 10.2176 25.8956C12.251 22.223 8.62482 26.8189 5.77375 33.3009C6.9951 29.7333 9.47853 25.779 9.10231 25.9316C4.7351 33.294 1.89701 42.6963 1.95352 51.8398C1.95182 56.5051 1.9696 61.0618 2.04486 65.3239C2.09971 68.4433 2.42924 68.4332 2.39885 75.7677C2.36263 75.5186 2.29723 75.4761 2.24963 75.315C2.40745 87.9998 2.5018 95.6959 2.34087 108.879C2.45931 108.117 2.57825 107.369 2.69669 106.607C2.6377 103.81 2.57777 101.007 2.51878 98.2242C2.71436 96.3204 2.80068 99.134 2.79861 90.7855C2.79706 83.9451 2.7107 88.0171 2.65274 86.1568C2.57362 83.6379 2.72927 81.4275 2.64084 78.7182C2.57306 76.6236 2.41168 78.8896 2.45256 73.426C2.66161 75.6231 2.87748 77.8646 3.08912 80.0763C3.04203 81.4092 2.99422 82.732 2.94661 84.0649C2.89073 82.7174 2.83558 81.3927 2.77969 80.0451C2.88007 84.7904 2.97475 89.2745 3.07875 94.1809C2.77655 92.5843 2.88985 97.6559 2.92556 100.41C2.98138 104.699 2.7734 101.024 2.80807 103.836C2.84327 106.649 3.07563 109.682 3.02596 114.764C2.89144 112.04 2.77081 115.746 2.64664 115.029C2.52248 114.312 2.49498 108.936 2.35949 114.101C2.46246 124.031 2.93531 113.255 3.01192 119.963C3.10402 128.018 2.33323 129.935 2.16754 127.534C2.03714 125.644 2.06336 119.143 1.93348 117.238C1.69908 128.883 2.16182 128.984 2.25237 130.976C2.58197 138.212 1.70226 133.351 2.02045 141.919C1.85594 141.758 1.70798 141.628 1.5502 141.467C1.58021 142.945 1.62009 143.927 1.64388 145.713C1.96442 140.446 1.95068 144.757 1.95118 146.97C1.95222 150.456 2.10856 145.071 2.14892 145.994C2.25693 148.484 2.20789 152.422 2.34911 150.006C2.28339 151.09 2.21748 152.265 2.15228 153.378C2.23417 157.451 2.9208 167.023 2.78213 157.913C3.03724 158.763 2.91463 161.709 2.87582 164.009C2.83704 166.308 2.99951 166.265 2.9695 168.286C2.84944 176.327 2.57153 171.067 2.35369 169.793C2.50374 180.412 2.60302 170.016 2.7034 185.318C2.88089 186.797 3.07028 179.727 3.17274 185.615C2.86439 186.699 2.64289 191.035 2.54045 199.485C2.61134 200.305 2.68286 201.124 2.75375 201.944C2.46915 206.558 2.1732 204.199 2.5261 212.739C1.8767 208.154 2.29216 211.306 2.02778 218.952C1.97448 220.505 1.83975 216.917 1.77144 219.085C1.74064 220.068 1.84234 222.453 1.76381 224.853C1.72501 226.025 1.47461 231.503 1.59353 235.297C1.90815 232.514 2.1758 239.722 2.43608 233.541C2.37191 244.966 2.52297 252.962 2.094 240.16C1.99878 243.06 1.90398 245.963 1.80928 248.863C1.88431 250.884 1.95875 252.923 2.03327 254.959C1.77469 255.266 1.70215 254.957 1.74764 262.92C1.68661 259.465 1.62456 256.025 1.56302 252.555C1.5108 252.438 1.45653 251.955 1.40586 252.071C1.50517 256.321 1.54792 268.287 1.61672 271.186C1.68555 274.087 1.70438 268.486 1.77114 269.321C2.32158 276.277 1.91561 275.726 2.01008 280.717C2.06596 283.647 2.12665 276.652 2.15045 278.219C2.23769 284.03 1.94515 286.726 1.94142 291.879C2.10747 290.049 2.2761 288.233 2.44371 286.446C2.43491 291.851 2.43344 297.876 2.48674 302.9C2.50754 304.873 2.63104 303.382 2.63932 303.704C2.68175 305.302 2.74896 311.805 2.74948 312.493C2.75047 317.676 2.57941 317.823 2.57005 322.859C2.55556 320.882 2.54251 319.023 2.52854 317.091C2.25122 316.212 1.97391 315.316 1.69607 314.437C1.67589 319.372 1.65613 324.31 1.63595 329.259C1.72856 325.642 1.82073 322.012 1.91334 318.394C2.13739 324.048 2.36196 329.702 2.58652 335.356C2.44889 338.3 2.31128 341.232 2.17364 344.176C2.20995 352.171 2.76867 350.561 2.27923 354.354C2.32061 356.711 2.36196 359.069 2.40282 361.426C2.33298 361.089 2.26301 360.756 2.19317 360.419C2.23612 363.261 2.27879 366.101 2.32226 368.943C2.56957 365.955 2.82983 363.026 3.0699 360.068C3.12364 365.66 2.91383 365.767 2.86147 366.601C2.72279 368.813 2.90985 373.203 2.78152 374.961C2.73746 375.555 2.59934 370.075 2.44005 371.963C2.40917 372.332 1.8236 379.669 1.95881 384.351C2.06489 384.263 2.19496 383.901 2.31035 383.711C2.37479 390.007 1.82106 393.217 1.66585 392.383C1.77451 395.737 1.78359 400.639 1.95332 401.328C1.95746 403.042 1.96138 404.742 1.96552 406.456C1.55217 404.67 1.62775 411.818 1.98322 412.287C1.99202 409.343 2.00128 406.395 2.01008 403.451C2.44577 405.677 2.70876 396.731 2.30517 415.346C2.07852 418.906 2.33605 409.02 2.16632 411.92C2.06753 416.958 2.15019 421.688 1.99238 426.477C1.79524 432.437 1.60563 425.104 1.85658 438.989C2.48528 408.362 2.2813 443.19 2.47636 457.574C2.27601 458.85 2.11982 460.979 2.00637 463.84C1.7499 469.783 2.82696 479.48 8.76051 489.294C7.96745 487.729 5.54748 483.03 4.6831 480.103C3.8065 477.194 4.85038 480.303 3.88779 476.659C3.10616 473.716 2.29962 467.963 2.46749 463.84C2.49004 462.848 2.51318 461.951 2.53678 461.212C2.55373 461.773 2.57469 462.717 2.59631 463.84C2.54059 469.178 4.61355 478.28 2.94278 469.796C3.94974 477.502 4.70248 481.349 9.50779 489.829C11.4025 492.063 10.9194 492.208 17.3984 499.054C13.1625 495.359 20.6915 503.095 18.7556 501.714C13.857 496.974 16.8687 499.339 14.3567 496.354C14.0394 496.1 10.173 491.146 9.50779 489.829C12.6322 495.359 14.2315 497.022 11.4116 494.181C14.1846 497.808 16.2619 499.77 16.6756 499.934C17.2936 500.657 17.9381 501.368 18.5877 502.049C19.7085 503.026 20.755 503.862 22.0228 504.799C20.465 503.26 23.6798 505.991 26.3382 507.363C29.0199 508.651 25.5009 506.838 32.8741 510.229C30.4013 509.127 28.2247 507.945 26.032 506.533C30.5174 509.191 35.4319 511.138 40.498 512.266C36.9171 511.428 29.8175 508.002 30.173 507.803C32.1777 509.12 39.9164 511.534 40.8122 511.574C44.1595 512.278 42.3105 512.016 42.5619 512.08C46.3355 512.876 49.717 513.043 52.0774 513.112C53.0292 513.14 53.8179 513.181 54.4097 513.244C58.5251 513.144 61.629 513.201 65.9931 513.196C68.3951 513.192 67.9282 513.029 69.3338 513.06C78.6784 513.267 69.7757 513.478 87.8017 513.076C85.6194 512.962 83.4663 512.846 81.2841 512.731C83.3201 512.688 85.3442 512.645 87.3802 512.602C88.7424 512.623 90.0924 512.644 91.4547 512.664C91.4253 512.911 91.3903 513.158 91.361 513.405C92.8551 513.419 94.3551 513.432 95.8492 513.445C93.2858 513.469 90.7163 513.494 88.1529 513.518C87.9187 513.562 87.7002 513.605 87.4661 513.648C91.2744 513.716 95.0693 513.784 98.8777 513.851C98.9509 513.765 99.0231 513.679 99.0962 513.593C107.68 513.713 107.884 513.785 116.042 513.549C122.326 513.551 127.443 513.193 131.075 513.041C132.379 513.09 133.684 513.138 135.002 513.186C135.837 513.115 136.68 513.044 137.515 512.972C139.17 513.072 140.848 513.171 142.503 513.27C143.425 513.044 143.903 512.974 137.445 512.895C139.657 512.615 151.026 512.738 155.655 512.832C159.166 512.904 155.27 513.138 155.71 513.166C157.176 513.263 162.963 513.179 164.179 513.196C169.32 513.262 172.922 513.251 177.565 513.302C178.469 513.313 180.996 513.461 181.21 513.466C182.88 513.491 187.002 513.563 187.47 513.565C211.648 513.676 185.814 513.033 208.295 513.1C207.622 513.016 207.003 512.931 206.344 512.846C208.042 512.841 209.758 512.836 211.457 512.831C213.61 512.902 211.005 513.031 215.281 512.927C215.003 513.031 214.723 513.136 214.431 513.24C216.291 513.184 218.084 513.128 219.988 513.071C222.976 513.434 233.884 513.516 233.109 513.942C232.845 514.087 225.112 514.236 229.199 514.391C232.519 514.421 230.272 514.248 231.626 514.239C241.411 514.176 240.842 514.418 244.841 514.354C245.47 514.25 246.132 514.144 246.777 514.039C248.284 514.069 249.797 514.1 251.319 514.13C251.671 514.06 252.037 513.99 252.389 513.921C250.968 513.916 249.368 513.911 248.064 513.907C249.882 513.636 266.576 513.514 260.21 513.745C257.618 513.839 252.87 513.799 255.87 514.119C260.337 514.073 265.406 514.026 270.107 513.979C270.254 514.048 270.39 514.117 270.537 514.186C276.873 514.142 271.11 513.866 271.122 513.719C272.571 513.715 274.036 513.711 275.485 513.707C276.1 513.774 276.684 513.843 277.327 513.908C277.386 513.802 278.198 513.555 282.518 513.647C285.296 513.706 280.921 513.974 286.218 513.937C285.822 513.772 283.909 513.57 289.808 513.517C290.394 513.689 291.204 513.848 291.658 514.029C298.995 513.863 302.334 514.13 310.946 513.937C316.409 513.815 323.893 513.381 327.423 514.049C331.419 514.067 330.151 513.901 331.334 513.863C336.914 513.686 341.065 514.003 342.105 514.022C348.738 514.141 351.711 514.031 357.115 514.181C356.822 514.057 356.663 513.94 356.428 513.82C351.478 514.005 348.97 513.996 342.027 513.956C344.356 513.931 346.685 513.906 349.013 513.881C348.632 513.781 348.255 513.68 347.889 513.581C326.416 513.976 331.425 513.351 349.427 513.215C350.979 513.4 352.588 513.586 354.126 513.772C364.525 513.49 369.419 513.735 381.18 513.793C382.578 513.8 387.671 513.693 389.859 513.688C389.823 513.687 389.787 513.686 389.75 513.686C391.112 513.51 389.268 513.43 389.048 513.273C390.234 513.253 391.421 513.233 392.607 513.214C395.256 513.333 394.325 513.431 399.538 513.403C398.835 513.284 398.142 513.165 397.439 513.046C403.151 513.042 406.89 513.171 412.207 513.115C411.313 513.16 410.431 513.205 409.537 513.25C421.109 513.365 411.9 514.065 420.644 513.717C421.201 513.778 421.743 513.839 422.299 513.9C418.697 513.915 415.092 513.93 411.504 513.945C411.431 514.031 411.352 514.117 411.293 514.204C415.146 514.178 419.017 514.151 422.869 514.125C420.057 514.183 417.228 514.241 414.416 514.299C418.883 514.341 423.351 514.382 427.818 514.423C423.074 514.106 429.224 514.067 428.067 513.752C435.977 514.014 442.19 514.359 454.45 514.138C456.88 514.094 455.56 513.875 462.458 514.142C460.789 513.792 469.431 513.628 468.32 513.296C465.919 513.312 463.429 513.322 461.1 513.341C463.751 513.457 464.191 513.774 460.164 513.868C455.023 513.988 447.524 513.768 447.831 514.121C445.781 514.104 443.874 514.094 441.883 514.081C442.703 513.993 443.506 513.905 444.311 513.818C438.645 513.955 435.084 513.91 432.36 513.69C439.112 513.639 445.849 513.589 452.6 513.539C451.606 513.524 450.597 513.509 449.603 513.494C454.715 513.269 449.442 513.056 458.977 513.008C458.919 513.111 458.872 513.214 458.813 513.317C462.285 513.042 471.79 513.043 468.758 512.727C471.628 512.824 472.213 512.886 473.839 512.715C481.412 512.956 486.275 513.26 483.58 513.623C486.392 513.565 489.205 513.506 492.002 513.448C490.377 513.348 488.749 513.249 487.124 513.15C492.016 513.156 496.944 513.162 501.822 513.168C502.29 513.462 492.405 513.257 495.257 513.52C495.828 513.573 498.461 513.46 499.152 513.489C506.446 513.811 494.996 513.579 497.146 513.825C504.785 513.878 502.758 514.098 506.077 514.103C507.492 514.084 509.875 514.098 514.274 513.3C514.68 513.319 515.116 513.33 515.493 513.344C520.609 512.245 520.154 512.119 524.35 510.567C526.95 509.541 530.29 508.262 532.799 506.397C533.163 505.967 528.883 508.821 537.637 502.377C543.948 496.772 541.513 499.286 544.68 495.96C547.985 492.63 552.555 483.086 553.733 480.204C552.9 482.476 551.654 485.298 550.33 487.628C549.891 488.629 549.433 489.592 548.936 490.555C552.143 485.3 554.416 479.272 555.096 475.193C556.2 471.232 556.57 466.843 556.469 463.84C556.388 460.875 556.222 459.231 556.039 460.458C556.091 463.109 556.249 460.275 556.153 463.84C556.152 463.873 556.151 463.906 556.15 463.94C556.064 464.323 555.973 464.724 555.879 465.101C555.89 464.673 555.896 464.251 555.896 463.84C555.905 458.21 555.92 454.576 556.162 457.265C556.169 456.284 556.175 455.312 556.181 454.33C555.993 454.155 555.804 453.999 555.615 453.823C555.594 452.651 555.573 451.474 555.552 450.303C555.593 449 555.635 447.694 555.677 446.377C555.975 448.149 555.985 451.168 556.151 441.178C556.048 441.149 555.946 441.106 555.843 441.077C555.974 432.713 556.223 432.493 556.214 421.992C556.571 430.048 555.938 434.456 556.655 434.426C556.608 436.448 556.56 438.486 556.513 440.507C556.617 440.814 556.721 441.119 556.825 441.412C556.77 430.559 556.086 412.531 556.54 405.265C556.485 404.386 556.436 403.504 556.377 402.611C556.651 395.492 556.036 392.418 556.39 385.197C556.427 384.452 557.005 386.011 556.984 376.611C556.909 376.845 556.783 376.967 556.688 377.157C556.734 375.122 556.782 373.098 556.829 371.077C556.76 370.711 556.691 370.327 556.621 369.961C556.594 373.432 556.566 376.894 556.54 380.365C556.516 377.481 556.492 374.578 556.468 371.693C556.355 375.457 556.354 377.154 556.172 374.886C556.161 371.619 556.15 368.349 556.139 365.082C556.092 364.746 556.045 364.412 555.999 364.075C555.86 365.657 555.725 367.255 555.584 368.837C555.697 360.327 555.703 352.928 555.976 346.396C556.022 345.283 556.203 349.219 556.04 341.634C556.135 341.517 556.213 341.314 556.302 341.182C556.034 331.895 556.114 328.844 556.307 319.162C556.126 325.432 556.244 319.838 556.147 318.241C556.081 317.147 556.09 321.417 556.021 320.934C555.951 320.451 555.671 314.903 555.638 319.646C556.211 331.277 555.525 334.445 555.801 349.385C555.727 347.086 555.653 344.769 555.579 342.47C555.529 343.553 555.483 344.522 555.43 345.693C555.542 337.36 555.469 341.413 555.381 337.989C555.292 334.562 555.217 328.332 555.193 324.158C555.185 322.843 555.314 324.23 555.326 321.262C555.334 319.241 555.143 313.717 555.368 312.442C555.515 311.607 555.918 320.481 555.917 308.211C556.061 305.902 556.016 311.785 556.033 311.911C556.204 312.98 556.332 305.437 556.202 301.951C556.191 301.669 556.058 304.422 556.006 301.428C555.881 294.324 556.033 290.221 556.24 285.622C555.998 285.124 555.708 279.146 555.798 271.705C555.729 271.324 555.659 270.961 555.589 270.581C555.626 271.736 555.662 272.891 555.699 274.047C555.655 275.306 555.623 276.641 555.572 277.871C555.513 270.388 555.179 269.33 555.057 265.741C554.64 253.462 555.522 260.904 555.674 263.119C555.613 264.715 555.544 266.259 555.479 267.841C555.563 267.665 555.648 267.487 555.733 267.326C555.731 248.944 556.281 264.527 556.438 255.196C556.023 252.794 555.983 245.941 556.246 237.212C556.244 236.246 556.243 235.275 556.241 234.309C556.18 234.148 556.088 234.15 556.048 233.887C555.978 223.37 556.617 221.497 556.677 220.501C556.946 216.078 556.574 212.633 556.571 211.329C556.558 205.837 556.723 204.241 556.652 199.012C556.576 193.389 556.449 197.234 556.336 195.523C556.246 194.151 556.23 189.714 556.136 187.881C556.213 188.61 556.288 189.419 556.364 190.145C556.468 184.317 556.569 179.553 556.595 172.934C556.037 165.464 556.978 159.109 556.215 161.686C556.162 167.955 556.075 171.461 555.881 174.815C555.856 170.7 555.832 166.582 555.807 162.467C555.891 161.266 555.972 160.414 556.058 158.993C555.88 155.918 555.956 148.788 555.904 145.989C555.659 132.88 555.356 136.935 555.866 124.969C555.916 133.594 556.163 133.58 556.129 142.133C556.306 140.288 556.269 135.941 556.482 138.754C556.429 130.479 556.24 133.154 556.072 129.933C555.927 127.156 555.919 121.562 555.73 121.878C555.834 121.306 555.934 120.864 556.038 120.294C556.037 114.934 556.036 109.574 556.035 104.214C556.144 106.499 556.252 108.783 556.36 111.067C556.4 109.341 556.441 107.611 556.482 105.885C556.146 92.702 556.762 69.9695 555.917 73.6009C555.89 67.2445 555.996 66.4493 556.156 62.9933C556.092 62.6125 556.039 62.2422 555.967 61.8615C556.029 58.083 555.829 55.1134 555.847 51.8398C555.848 51.5607 555.849 51.2799 555.849 50.9966C555.817 47.3983 555.844 46.4806 555.424 46.0006C555.263 43.6811 554.919 41.3664 554.426 39.0937C553.984 37.7547 553.489 36.443 552.944 35.1695C552.254 33.0941 551.424 31.0612 550.463 29.0901C549.911 28.0561 545.372 20.7144 542.532 18.148C540.133 15.5082 540.91 14.728 533.854 9.84439C533.953 10.0946 534.047 10.3425 534.142 10.5931C532.555 9.47247 530.896 8.43987 529.173 7.50395C529.092 7.40537 529.025 7.31412 528.943 7.2159C529.824 7.68535 530.68 8.17539 531.53 8.69646C530.829 8.18334 530.124 7.69468 529.408 7.2233C526.698 5.94534 523.88 4.91337 520.992 4.14322C524.807 5.43409 528.451 7.18904 531.82 9.34686C527.459 6.87748 524.238 5.42314 520.034 4.28338C516.434 3.08323 517.794 3.33694 519.365 3.50677C517.986 3.14875 516.574 2.84587 515.177 2.60945C516.118 2.65846 513.878 1.61957 521.912 3.97331C521.386 3.72992 520.842 3.49531 520.322 3.272C518.995 2.89939 518.144 2.62251 516.657 2.32673C512.592 1.5307 509.412 1.81768 509.688 1.9631C509.833 2.00801 513.84 2.32925 513.658 2.44337C513.215 2.67908 504.21 1.15314 517.18 3.51839C512.873 2.79422 511.923 2.5161 507.106 2.27368C507.482 2.36668 507.844 2.46304 508.2 2.56348C507.497 2.52122 506.789 2.49368 506.077 2.48121C504.538 2.45443 502.998 2.42768 501.46 2.40085C504.594 1.96258 487.969 1.79797 502.935 1.41457C498.512 1.39491 494.105 1.37515 489.697 1.35446C490.605 1.30945 491.513 1.26489 492.421 1.21988C494.413 1.24368 496.393 1.26709 498.384 1.29037C496.041 1.20812 493.694 1.12636 491.352 1.04411C485.815 1.14605 483.645 1.30283 481.111 1.49636C487.554 1.63758 485.449 1.44467 490.47 1.40633C490.294 1.52889 490.526 1.64163 490.087 1.77039C487.493 1.51653 479.03 1.70121 477.067 1.71363C471.095 1.75134 475.778 1.50191 471.783 1.49666C467.784 1.49149 463.068 1.63995 459.802 1.3926C459.86 1.53124 460.122 1.67468 460.356 1.80091C454.131 1.84644 455.373 1.68266 454.728 1.66145C444.446 1.31269 438.866 1.60713 427.104 1.64283C428.598 1.68578 430.108 1.72454 431.616 1.7649C422.743 2.05925 428.72 1.96912 436.424 2.0664C429.203 2.0369 425.068 2.28758 419.97 2.3621C414.873 2.43648 406.133 2.30774 402.939 2.20738C410.248 2.04593 418.131 2.1524 426.246 2.1079C425.323 1.96667 424.427 1.84714 423.475 1.69196C418.539 1.98838 415.679 1.79019 414.054 1.75086C409.28 1.63552 409.43 1.88994 406.545 1.61629C406.662 1.71042 406.748 1.78958 406.865 1.8775C397.007 1.83818 386.375 1.67175 379.959 2.0194C379.373 1.79329 378.931 1.57545 378.258 1.34469C374.083 1.5149 370.509 1.3406 366.994 1.3804C363.493 1.42024 364.826 1.60297 360.711 1.67335C359.949 1.68629 358.363 1.57191 356.488 1.65626C354.595 1.74105 347.613 2.37151 346.778 1.82074C343.248 1.81815 339.908 1.79801 336.451 1.7887C339.82 1.75766 343.19 1.72759 346.544 1.69654C343.673 1.56305 340.82 1.42996 337.95 1.29648C337.584 1.41549 337.216 1.53666 336.865 1.65413C329.131 1.79901 323.519 1.60442 315.712 1.65046C314.408 1.65822 317.484 1.89353 311.7 1.83356C305.915 1.77354 301.621 1.33435 291.765 1.50399C291.267 1.51278 288.348 1.84914 284.818 1.61629C284.014 1.56351 287.395 1.48542 285.551 1.4161C283.706 1.34676 275.471 1.28974 274.827 1.12467C274.914 1.18313 275.428 1.2437 275.677 1.30319C274.272 1.33112 272.852 1.35908 271.431 1.3865C271.299 1.28354 271.157 1.18043 271.025 1.07798C262.94 1.31756 258.762 1.70837 246.781 1.57906C250.15 1.72859 253.52 1.87872 256.874 2.02825C257.797 1.92321 258.721 1.81746 259.629 1.71241C265.151 1.75432 270.687 1.79592 276.208 1.83783C277.116 1.7183 278.009 1.59911 278.917 1.47957C280.381 1.49509 281.831 1.51013 283.296 1.52565C282.929 1.61206 282.56 1.69802 282.179 1.78443C285.079 1.76322 287.982 1.74156 290.867 1.72034C284.994 2.23041 274.465 1.67696 275.225 2.10363C273.922 2.03743 272.617 1.97077 271.314 1.90405C270.743 2.11094 268.093 2.05139 263.423 2.01879C264.492 2.12073 265.673 2.22128 266.654 2.32426C262.114 2.18042 254.059 2.19439 249.357 2.13903C247.292 2.11471 249.355 1.96471 248.741 1.94708C245.591 1.85497 239.572 2.1167 238.312 2.096C230.784 1.97282 225.892 1.47663 217.675 1.80365C226.156 1.88438 221.542 1.85028 224.559 2.03191C225.504 2.08886 236.46 2.20766 222.74 2.15489C221.132 2.14829 196.238 1.80546 204.421 1.54274C200.393 1.62657 197.239 1.7235 193.548 1.8125C184.525 1.12014 187.648 1.77057 190.27 2.12865C188.79 2.1302 187.383 2.13384 185.859 2.13384C189.097 1.75764 172.604 1.73428 167.009 1.92419C165.134 1.98732 170.377 2.10774 166.041 2.16466C163.977 2.13828 161.635 2.10412 159.453 2.07464C162.617 2.31265 156.408 2.40438 156.495 2.64651C152.526 2.43075 149.49 1.97341 151.671 1.72553C148.391 1.8259 145.093 1.92615 141.813 2.02703C143.336 2.08447 144.879 2.1414 146.403 2.19884C135.681 2.0467 121.894 2.39288 119.653 1.88422C118.232 1.88784 116.796 1.89097 115.376 1.89459C114.936 1.98049 114.512 2.06655 114.072 2.15245C107.643 2.07796 101.229 2.00296 94.8003 1.92846C100.525 1.87516 101.887 1.75289 107.89 1.85217C105.577 1.75338 103.22 1.65405 100.951 1.55525C91.9137 1.82122 90.6808 1.99603 77.074 1.91687C76.4588 1.91325 66.1778 1.6902 65.8263 1.66847C64.2157 1.56912 66.6605 1.4248 65.9433 1.3746C63.9513 1.23385 51.8464 0.880438 52.0807 0.82714C55.0396 0.173068 95.7668 0.164398 106.782 0.130763C221.032 -0.217987 332.766 0.248597 446.298 0.168908C447.465 0.167675 446.956 0.0711199 447.453 0.0669845C450.543 0.0427344 453.578 0.193216 454.72 0.199424C457.161 0.212219 455.817 0.0731868 457.601 0.0730877C474.091 0.0744771 489.751 0.140104 506.077 0.136816C508.066 0.136555 510.051 0.246895 512.042 0.473033C513.275 0.626238 512.008 0.556636 514.162 0.852307C515.278 0.994824 518.773 1.51206 521.209 2.28409C529.684 4.95669 536.325 8.93036 542.961 15.5291C546.632 19.1145 551.104 25.4806 553.353 30.7654C554.387 33.073 555.355 35.5402 556.025 37.9526C556.929 41.3904 556.537 40.7348 556.659 41.2669C557.078 43.6161 557.297 43.9196 557.563 46.1826C557.834 48.908 557.797 49.9717 557.781 51.8398C557.763 52.8205 557.751 54.0313 557.754 55.859C557.762 59.5649 557.853 68.0463 557.88 72.7189C557.746 83.6459 557.799 97.4151 557.844 107.61C557.87 113.644 557.708 114.203 557.708 116.664C557.711 125.334 557.919 131.914 557.925 140.057C557.934 150.864 557.797 160.442 557.787 170.912C557.786 172.61 557.934 172.22 557.938 173.886C557.952 180.053 557.979 187.938 557.958 193.431C557.935 199.553 557.719 201.811 557.763 207.801C557.776 209.557 557.965 210.072 557.989 213.015C558.028 217.716 557.861 222.871 557.842 226.152C557.817 230.649 558.01 226.738 557.984 232.802C557.983 233.051 557.845 233.959 557.852 235.261C557.87 239.055 557.979 238.678 557.969 244.229C557.967 244.762 557.836 252.123 557.835 252.855C557.833 257.161 557.787 265.83 557.815 268.38C557.914 277.49 558.122 270.318 557.672 278.066C557.782 281.478 557.894 284.862 558.001 288.479C557.901 286.065 557.757 295.861 557.766 296.55C557.841 302.244 558.016 298.852 557.987 306.073C557.583 296.537 557.935 315.388 557.945 319.592C557.996 339.834 557.895 358.233 557.897 378.578C557.898 385.389 557.984 394.516 557.982 401.721C557.982 403.401 557.886 402.132 557.884 403.61C557.882 405.085 557.99 403.449 557.984 405.132C557.947 415.605 557.744 423.81 557.998 433.404C557.961 433.871 557.932 433.856 557.892 434.629C558.119 442.481 557.813 457.6 557.772 463.283C557.77 463.472 557.769 463.657 557.768 463.84C557.465 472.535 556.872 474.954 554.858 481.162C552.218 489.78 543.125 499.735 547.278 495.414C543.582 500.24 539.209 504.279 534.019 507.559C533.439 507.921 533.769 507.562 533.537 507.706C532.06 508.601 531.621 508.967 530.596 509.532C527.789 511.003 532.333 508.536 528.314 510.595C526.149 511.56 525.027 512.468 518.62 514.195C514.558 515.206 510.334 515.725 506.077 515.724C471.055 515.726 433.864 515.696 398.539 515.681C395.829 515.68 397.613 515.802 394.215 515.794C382.409 515.767 361.277 515.562 351.097 515.59C340.918 515.618 343.215 515.796 336.844 515.871C335.614 515.885 336.623 515.784 335.51 515.782C328.025 515.773 319.101 515.615 313.038 515.591C309.027 515.575 309.349 515.735 306.567 515.746C302.422 515.763 298.155 515.601 295.943 515.596C285.546 515.573 278.397 515.703 268.687 515.637C269.067 515.672 269.317 515.705 269.639 515.739C258.142 515.734 246.659 515.728 235.162 515.722C235.704 515.754 236.228 515.787 236.77 515.819C223.28 515.802 224.82 515.454 226.006 516.188C225.025 516.214 223.985 516.244 223.048 516.268C223.429 515.89 215.269 515.613 204.884 515.517C204.123 515.509 199.012 515.878 199.569 515.442C198.236 515.549 197.442 515.622 196.314 515.716C194.117 515.584 191.891 515.454 189.695 515.323C188.509 515.342 187.306 515.361 186.12 515.381C185.944 515.466 186.079 515.555 185.698 515.639C180.192 515.652 168.897 515.546 164.545 515.557C153.736 515.584 142.73 515.815 134.323 515.566C130.227 515.591 134.294 515.759 128.203 515.737C127.515 515.653 126.868 515.571 126.15 515.484C121.172 515.863 120.132 515.632 113.31 515.553C108.697 515.499 105.675 515.592 101.282 515.574C100.169 515.569 100.326 515.458 99.5646 515.462C97.0137 515.473 89.7354 515.626 87.9344 515.63C75.1863 515.662 63.8416 515.658 52.0774 515.636C48.6681 515.629 45.2228 515.293 41.7746 514.587C40.0801 514.226 42.2548 514.806 40.5016 514.417C37.7045 513.73 39.3887 513.973 37.7837 513.527C33.3762 512.093 33.1954 512.387 27.3952 509.454C11.835 501.447 -0.0811615 482.741 0.320443 463.84C0.329198 459.727 0.335589 455.655 0.337796 451.658C0.337796 450.984 0.23355 451.024 0.232515 450.292C0.227418 445.518 0.368333 440.686 0.366786 436.351C0.364716 429.159 0.218266 423.754 0.218783 416.65C0.219301 402.764 0.294288 390.358 0.29843 376.077C0.302052 364.388 0.288148 354.237 0.288665 341.421C0.290735 285.437 -0.0401578 228.311 0.13578 171.947C0.140433 170.513 0.232537 171.097 0.228548 170.659C0.188705 166.5 0.0644321 166.128 0.324674 164.649C0.273385 159.35 0.0778683 157.678 0.0918363 151.278C0.0991595 147.867 0.402195 150.414 0.245942 144.644C0.104689 139.433 -0.0613873 145.183 0.108315 129.688C0.11298 129.278 0.297692 127.259 0.249604 124.037C0.201998 120.8 0.0697334 124.547 0.0298886 116.754C-0.0632441 98.4605 0.0964218 75.3045 0.0472829 54.0371C0.0466235 53.754 0.0416491 52.9519 0.0337863 51.8398C-0.206745 47.5215 1.3411 38.8756 2.06802 36.9092C3.60597 32.0362 2.96789 32.9024 5.9288 26.9211C8.40535 22.3906 11.0158 18.9596 15.2553 14.6453C15.7737 14.1721 16.4129 13.1128 20.0078 10.2943ZM555.452 454.346C555.295 453.145 554.717 450.977 554.893 443.715C554.909 443.027 555.307 446.743 555.37 442.731C555.412 446.657 555.425 450.479 555.452 454.346C555.452 454.346 555.452 454.346 555.452 454.346ZM50.7173 3.06057C45.4176 3.17293 40.1059 4.15905 35.1175 5.97715C38.5315 4.63889 42.108 3.68894 45.7365 3.15099C47.4078 3.03529 49.0621 3.00714 50.7173 3.06057ZM160.853 512.912C160.848 512.912 160.843 512.912 160.838 512.912C166.55 512.838 172.266 512.763 177.979 512.688C177.378 512.743 176.776 512.798 176.176 512.853C171.665 512.94 167.152 513.026 162.657 513.112C162.056 513.045 161.454 512.979 160.853 512.912ZM115.722 513.493C112.075 513.428 112.967 513.318 110.961 513.21C110.961 513.211 110.961 513.211 110.961 513.211C110.431 513.183 107.964 513.159 107.011 513.155C107.363 513.223 107.817 513.291 108.197 513.36C99.6873 513.526 83.0447 512.934 104.591 512.696C104.269 512.783 103.961 512.869 103.639 512.956C114.346 512.932 126.283 513.12 115.722 513.493ZM555.201 368.251C554.917 359.111 554.857 356.18 555.052 345.092C555.133 346.659 555.213 348.225 555.294 349.791C555.212 351.622 555.13 353.44 555.048 355.271C555.048 355.276 555.048 355.281 555.048 355.286C555.134 355.652 555.221 356.02 555.307 356.371C555.272 360.326 555.237 364.297 555.201 368.251ZM2.63016 256.153C3.19858 253.606 2.86818 254.34 2.99636 261.617C3.04086 264.136 3.14031 261.681 3.15687 263.248C3.24732 271.712 2.86648 272.389 2.66831 270.5C2.65485 265.71 2.64258 260.871 2.63016 256.169C2.63016 256.164 2.63016 256.158 2.63016 256.153ZM4.79563 36.9239C4.79718 36.919 4.79874 36.9141 4.80029 36.9091C4.99187 36.7464 4.04325 39.969 5.29207 36.386C4.38765 39.1239 3.7251 41.9417 3.31464 44.8121C3.42135 43.9723 3.55562 43.1067 3.70658 42.273C3.51542 42.9982 3.33888 43.7359 3.18049 44.4743C3.20226 45.512 2.92483 46.436 2.70469 49.4741C2.91431 48.642 3.14478 47.8215 3.3948 47.0148C3.21524 48.61 3.11326 50.2186 3.08988 51.8398C3.06245 53.7728 3.03502 55.706 3.00765 57.6355C2.96474 57.6794 2.92177 57.7243 2.87887 57.7682C2.9337 59.1153 2.98913 60.4487 3.04396 61.7958C2.99274 62.162 2.94199 62.5146 2.89077 62.8808C2.92957 64.5061 2.96833 66.134 3.00765 67.7592C2.88358 68.2538 2.82996 64.6718 2.86147 71.0219C2.7342 69.0741 2.6073 67.1302 2.48002 65.1678C2.48484 60.7253 2.48977 56.2826 2.49475 51.8398C2.49871 46.7811 3.27143 41.7355 4.79563 36.9239ZM2.80502 322.352C2.78122 311.85 2.87114 314.808 3.1526 317.239C3.03672 318.938 2.9209 320.653 2.80502 322.352ZM373.109 513.363C376.155 513.171 379.215 512.981 382.335 512.795C388.546 512.688 394.758 513.038 390.086 513.175C384.461 513.34 378.587 513.156 373.109 513.363ZM514.429 512.575C506.97 513.471 513.971 512.429 515.571 511.908C517.629 511.703 520.476 511.087 524.78 509.368C520.787 511.1 515.66 512.421 514.429 512.576C514.429 512.575 514.429 512.575 514.429 512.575ZM250.828 513.147C247.783 513.153 244.754 513.206 242.031 513.141C242.852 512.958 248.299 513.125 244.404 512.853C246.351 512.848 248.301 512.843 250.234 512.838C249.006 512.951 250.658 513.035 250.82 513.146C250.822 513.147 250.825 513.147 250.828 513.147ZM3.02138 424.104C2.80404 430.081 2.89704 431.213 3.04762 437.233C2.87067 438.081 2.57426 430.904 2.50901 426.407C2.67976 425.645 2.85063 424.881 3.02138 424.104ZM233.887 2.6932C235.322 2.46765 245.908 2.43823 251.168 2.50491C250.542 2.53837 249.913 2.57226 249.287 2.60623C244.16 2.6352 239.013 2.66422 233.887 2.6932ZM526.805 508.498C526.1 508.819 525.421 509.109 524.78 509.368C525.49 509.074 526.176 508.775 526.805 508.498ZM556.279 202.47C556.491 204.974 556.563 197.531 556.479 206.568C556.48 206.568 556.48 206.568 556.48 206.568C556.425 212.544 556.411 213.863 556.394 219.4C556.121 217.407 556.023 206.174 555.967 221.656C555.967 221.86 556.129 221.454 556.107 223.927C556.1 224.691 555.967 227.134 555.928 230.851C555.915 232.052 555.874 241.078 555.872 228.775C555.681 229.141 555.488 228.48 555.304 228.509C555.25 223.707 555.623 220.016 555.614 214.935C555.599 207.392 555.222 203.553 555.717 202.103C555.838 208.446 555.841 219.338 555.544 220.758C555.54 226.895 555.784 228.657 555.905 223.709C555.751 202.514 556.266 217.89 556.072 199.332C556.003 199.112 555.929 198.349 555.864 198.466C556.106 192.801 556.203 201.577 556.279 202.47ZM555.753 246.79C555.607 243.128 555.461 239.478 555.315 235.831C555.552 235.831 555.764 237.842 555.898 243.613C555.849 244.667 555.801 245.736 555.753 246.79ZM471.533 2.22691C471.006 2.35575 469.6 2.47383 468.575 2.59646C467.462 2.4878 441.096 2.38355 454.51 2.27696C456.458 2.26143 468.34 2.48926 471.533 2.22691ZM2.8273 382.61C2.74088 385.715 2.65433 388.808 2.56791 391.899C2.51309 387.141 2.45684 382.38 2.40099 377.622C2.54306 379.29 2.68523 380.943 2.8273 382.61ZM423.657 513.589C422.346 513.584 426.702 513.407 421.534 513.435C425.386 513.321 428.994 513.226 432.759 513.119C433.886 513.203 435.026 513.286 436.154 513.37C437.033 513.316 437.929 513.263 438.808 513.209C438.28 513.331 437.811 513.45 437.254 513.575C430.912 513.313 429.458 513.61 423.657 513.589ZM235.068 514.066C233.928 513.801 243.112 513.643 234.077 513.601C235.791 513.426 238.546 513.335 243.834 513.319C244.683 513.386 245.53 513.452 246.378 513.519C246.496 513.341 247.856 513.274 250.828 513.147C250.83 513.147 250.833 513.147 250.835 513.148C258.874 513.135 258.394 513.194 260.327 513.488C251.817 513.322 251.562 513.59 245.762 513.749C241.778 513.859 236.577 513.809 235.068 514.066ZM499.625 2.22386C493.608 2.4479 499.008 2.65687 488.331 2.41886C489.019 2.36194 489.711 2.3055 490.399 2.24858C493.475 2.23978 496.55 2.23162 499.625 2.22386ZM205.368 513.157C206.057 513.568 211.723 513.887 212.69 513.219C207.168 513.083 209.865 513.462 205.368 513.157ZM511.968 513.578C509.227 513.889 507.318 513.876 506.077 513.828C503.207 513.705 503.956 513.484 506.077 513.313C506.561 513.274 507.113 513.231 507.705 513.18C508.37 513.242 509.042 513.292 509.702 513.328C511.535 513.158 513.365 512.885 515.171 512.511C514.122 512.901 513.054 513.257 511.968 513.578ZM20.8546 502.598C24.1442 504.944 22.4064 503.617 20.5072 502.037C18.6126 500.443 16.6568 498.476 18.7542 500.338C22.0948 503.315 26.9957 506.631 25.004 505.593C23.6936 504.748 22.2759 503.74 20.8667 502.608C20.8627 502.604 20.8586 502.601 20.8546 502.598ZM65.1267 513.524C63.7942 513.211 65.7149 513.302 59.3038 513.358C58.4733 513.366 55.0265 513.346 52.0774 513.345C48.5585 513.334 45.7566 513.005 49.0506 513.426C50.0508 513.486 51.0519 513.517 52.0774 513.517C56.351 513.518 60.7677 513.522 65.1267 513.524ZM555.699 413.75C555.836 413.652 556.136 424.855 556.061 426.293C556.061 426.293 556.061 426.293 556.061 426.293C555.857 430.175 555.828 418.357 555.547 423.483C555.794 412.132 555.197 408.736 555.984 409.527C556.018 416.214 555.856 413.048 555.699 413.75ZM94.8862 2.05053C94.881 2.05053 94.8758 2.05053 94.8706 2.05053C95.6229 2.05695 101.822 2.2573 101.068 2.3267C93.6134 2.2672 94.9419 2.13532 88.0017 2.35203C87.6212 2.28223 87.2953 2.21453 86.8855 2.14421C89.6393 2.10282 91.1657 2.01896 94.8862 2.05053ZM443.028 1.95166C445.767 1.91595 450.765 2.0639 453.885 2.05511C443.954 2.62327 432.087 2.09345 443.028 1.95166ZM2.5316 139.266C2.5318 139.273 2.532 139.281 2.53221 139.289C2.5319 139.287 2.5316 139.283 2.53129 139.281C2.53139 139.276 2.53149 139.271 2.5316 139.266ZM555.625 122.502C555.662 122.149 555.694 121.95 555.722 121.878C555.724 121.878 555.727 121.878 555.73 121.878C555.695 122.069 555.66 122.272 555.625 122.502ZM555.658 390.466C555.849 385.8 556.151 401.346 556.079 406.373C555.992 406.022 555.913 405.967 555.814 405.148C556.039 401.09 555.626 391.242 555.658 390.466ZM303.546 513.491C315.835 513.496 299.842 514.247 299.183 513.648C299.208 513.636 303.229 513.492 303.546 513.491ZM550.345 486.369C549.002 489.176 552.404 483.906 547.024 492.382C546.641 492.828 546.251 493.265 545.854 493.695C547.559 491.387 549.065 488.932 550.345 486.369ZM384.052 514.477C399.519 514.351 414.312 514.127 404.237 513.499C403.067 513.52 401.88 513.539 400.709 513.559C400.533 513.865 396.214 513.698 389.891 513.688C388.989 513.81 385.483 513.838 384.825 513.941C383.552 514.141 387.582 514.281 384.052 514.477ZM1.93806 221.356C1.99032 221.605 2.04286 221.849 2.09461 222.098C2.1536 224.544 2.2123 226.996 2.27129 229.443C2.171 229.047 2.0707 228.651 1.97041 228.256C1.95954 225.958 1.94861 223.67 1.93775 221.372C1.93785 221.367 1.93796 221.361 1.93806 221.356ZM556.399 261.862C555.823 260.457 555.929 265.367 556.22 275.327C556.28 270.845 556.339 266.344 556.399 261.862ZM135.509 514.244C135.187 514.081 134.87 513.918 134.533 513.755C129.246 513.925 130.227 514.112 132.761 514.328C133.683 514.3 134.587 514.272 135.509 514.244ZM59.3428 514.314C61.5362 514.348 60.4169 514.216 60.6463 514.219C66.1978 514.288 66.9795 514.349 73.7908 514.249C74.6255 514.215 75.446 514.178 76.2808 514.142C73.1319 513.8 70.8456 513.987 64.1822 513.785C65.3833 513.903 66.5794 514.021 67.7805 514.138C64.0756 514.114 60.386 514.089 56.6811 514.064C56.2417 514.101 55.8014 514.136 55.362 514.173C56.6798 514.219 58.0397 514.272 59.3428 514.314ZM2.08667 193.069C2.10013 189.466 2.11411 185.846 2.12756 182.243C2.04322 182.111 1.95831 181.984 1.87397 181.852C1.94485 185.587 2.0158 189.335 2.08667 193.069ZM556.136 187.881C556.107 187.596 556.076 187.317 556.046 187.07C556.083 187.094 556.112 187.406 556.136 187.881ZM85.3791 1.58791C81.2931 1.52892 75.4051 1.56765 70.9233 1.55525C71.2756 1.76684 82.6669 1.70835 86.667 1.83661C87.3097 1.79865 87.1062 1.61273 85.3791 1.58791ZM497.279 513.902C496.254 514.008 495.23 514.113 494.219 514.218C491.744 514.207 489.263 514.195 486.773 514.183C486.699 514.27 486.627 514.357 486.554 514.443C497.523 514.331 494.994 514.58 500.424 514.826C499.37 514.518 498.333 514.21 497.279 513.902ZM1.5386 78.4216C1.59707 86.3457 1.70629 89.1565 1.96552 84.6894C1.90603 81.8927 1.84649 79.0795 1.787 76.2829C1.70423 77.0004 1.62138 77.7186 1.5386 78.4216ZM555.653 43.5579C554.253 37.0638 554.522 36.807 551.821 30.8644C553.221 34.0647 554.279 37.4062 554.976 40.8003C555.226 41.7073 555.454 42.6367 555.653 43.5579ZM557.287 368.79C557.408 365.992 556.833 360.763 557.258 352.898C557.131 351.024 557.01 349.849 556.886 348.238C557.021 347.3 557.157 346.236 557.292 345.342C557.292 345.337 557.292 345.332 557.292 345.326C557.246 338.193 557.077 342.818 556.933 342.657C556.874 342.581 556.973 337.287 556.844 338.942C556.622 341.798 556.75 352.47 556.479 352.5C556.567 348.75 556.493 341.428 556.313 343.594C556.115 345.966 556.447 352.867 556.282 357.261C556.715 350.964 556.581 363.97 556.249 365.449C556.504 373.08 556.608 366.066 556.596 358.245C556.851 363.02 556.713 355.991 556.925 354.834C557.053 359.757 556.946 376.655 557.287 368.79ZM319.633 514.581C324.908 514.564 333.147 514.71 336.759 514.495C338.862 514.37 330.602 514.273 336.298 514.076C331.159 514.095 329.987 514.172 330.865 514.344C329.694 514.365 328.508 514.385 327.337 514.406C326.796 514.372 326.24 514.339 325.698 514.305C325.083 514.376 324.464 514.446 323.864 514.517C322.62 514.503 321.361 514.489 320.117 514.475C319.971 514.51 319.722 514.541 319.633 514.581ZM385.946 1.59614C387.41 1.59408 388.861 1.59202 390.325 1.58943C390.164 1.54747 389.971 1.50378 389.786 1.46065C389.654 1.42658 389.521 1.3925 389.388 1.35842C390.237 1.48017 397.213 1.68252 400.152 1.55251C401.63 1.48728 398.267 1.25572 404.531 1.2153C399.991 1.22721 395.786 1.25881 391.379 1.27847C391.774 1.20965 392.154 1.14009 392.549 1.07127C392.547 1.07117 392.544 1.07106 392.542 1.07096C391.077 1.05544 389.596 1.03918 388.131 1.02366C387.399 1.21461 386.678 1.4052 385.946 1.59614ZM139.802 514.568C144.797 514.432 146.469 514.362 144.111 514.144C144.105 514.144 144.1 514.144 144.095 514.144C142.235 514.24 140.374 514.337 138.514 514.434C138.939 514.478 139.363 514.523 139.802 514.568ZM556.857 144.857C556.028 134.238 556.536 158.153 556.819 153.6C556.832 153.395 556.766 145.854 556.857 144.857ZM513.942 513.565C511.351 513.978 508.721 514.187 506.077 514.193C505.77 514.194 505.462 514.195 505.155 514.195C505.46 514.241 505.769 514.288 506.077 514.334C506.456 514.389 506.835 514.441 507.21 514.488C509.471 514.331 511.736 514.021 513.942 513.565ZM1.16203 112.922C0.934349 115.99 0.851858 123.865 1.09948 127.713C1.12845 125.692 1.15747 123.67 1.18645 121.648C1.2149 125.47 1.24621 129.249 1.27311 133.099C1.59032 133.304 1.40629 128.866 1.49374 122.187C1.50785 121.153 1.90159 114.541 1.60482 112.258C1.54383 111.799 1.50235 118.832 1.32499 113.944C1.31103 116.082 1.31413 117.927 1.30638 119.947C1.23083 120.093 1.15519 120.239 1.07964 120.4C1.107 117.901 1.13468 115.42 1.16203 112.922ZM350.34 514.556C357.585 514.573 358.479 514.447 359.988 514.223C356.619 514.248 353.248 514.273 349.88 514.298C350.04 514.384 350.179 514.47 350.34 514.556ZM1.08941 177.676C1.05277 181.643 1.23509 179.944 1.26976 181.54C1.40013 187.574 1.26983 191.69 1.35154 197.651C1.31635 197.255 1.28346 196.892 1.24931 196.511C1.24931 196.516 1.24931 196.522 1.24931 196.527C1.09564 224.751 1.50914 209.926 1.44187 193.038C1.50965 192.642 1.57753 192.262 1.6448 191.867C1.52631 184.309 1.41229 177.34 1.08941 177.676ZM556.886 239.203C556.928 238.88 557.198 241.619 557.071 236.479C556.678 232.408 556.873 239.084 556.722 240.756C556.684 239.364 556.647 237.941 556.609 236.564C556.498 244.884 556.592 246.099 556.88 243.066C556.899 242.85 556.843 239.526 556.886 239.203ZM557.08 184.525C556.5 183.383 556.76 193.882 556.941 193.501C556.948 192.052 556.85 190.925 556.893 189.388C556.936 187.836 557.072 187.439 557.08 184.525ZM552.318 485.049C552.473 484.779 553.9 481.958 553.593 482.173C551.939 485.716 548.078 492.478 548.897 491.393C550.282 489.198 551.074 487.656 552.318 485.049C552.318 485.049 552.318 485.049 552.318 485.049ZM1.02532 65.1366C1.00914 65.283 0.911145 72.9929 1.00213 73.988C1.10457 74.808 1.21436 75.215 1.32041 75.8301C1.2221 71.5823 1.29699 62.9843 1.02532 65.1522C1.02532 65.147 1.02532 65.1418 1.02532 65.1366Z" fill="black"/>
</g>
</svg>
