<svg width="213" height="114" viewBox="0 0 213 114" fill="none" xmlns="http://www.w3.org/2000/svg">
<g filter="url(#filter0_d_96_164)">
<path d="M12.2331 76.9551C12.2331 90.7622 23.426 101.955 37.2331 101.955H181.874C195.681 101.955 206.874 90.7622 206.874 76.9551V33.053C206.874 19.2459 195.681 8.05304 181.874 8.05304H37.2331C23.426 8.05304 12.2331 19.2459 12.2331 33.053V76.9551Z" fill="white"/>
<path d="M14.2497 71.8699C14.4752 73.0767 14.3274 69.0479 14.6642 71.7232C14.6869 71.1653 14.7104 70.604 14.7331 70.0461C14.6084 69.9046 14.484 69.7597 14.3593 69.6182C14.3226 70.3674 14.2859 71.1169 14.2491 71.8699C14.2493 71.8699 14.2495 71.8699 14.2497 71.8699ZM12.6879 72.8928C13.0436 72.2062 13.1385 70.0249 13.4667 72.3814C13.3446 72.5687 13.2226 72.7605 13.1005 72.9478C13.1952 73.766 13.2898 74.5892 13.384 75.4073C13.3375 75.7016 13.2909 75.9954 13.2449 76.2897C13.3708 76.5122 13.497 76.7335 13.6233 76.9551C13.7096 77.0992 13.7973 77.2415 13.8862 77.3825C13.8695 77.2412 13.854 77.0985 13.8398 76.9551C13.8227 76.7723 13.8056 76.5894 13.7887 76.4078C13.9609 75.0926 14.008 73.9224 14.0401 72.1368C14.0903 72.2936 14.14 72.4508 14.1902 72.6075C14.1049 71.7014 14.0193 70.7957 13.9339 69.8933C13.8501 70.677 13.7569 71.5532 13.6788 72.2795C13.3462 71.1172 13.5313 69.0673 13.6007 68.0003C13.6954 66.5473 13.5372 66.8757 13.6034 65.7975C13.6138 65.6255 13.7377 65.6059 13.7398 65.2657C13.7497 63.5488 13.684 60.2141 13.3947 62.1643C13.4319 64.9902 13.1997 67.4002 13.2845 70.1725C12.9501 69.4391 12.8362 70.8996 12.6879 72.8928ZM16.4326 22.1491C15.9036 22.7811 15.2819 24.3225 15.041 25.4108C15.0406 25.412 15.0402 25.4132 15.0398 25.4144C14.9834 25.6546 15.0174 26.2405 15.2591 25.4899C15.6674 24.2775 15.6255 23.5669 16.1216 23.0477C16.2128 22.7554 16.3217 22.4514 16.4326 22.1491ZM17.9102 19.7449C18.3038 19.0469 17.874 19.1818 17.3706 20.0634C17.3704 20.0632 17.3702 20.0631 17.37 20.063C17.1694 20.4353 17.769 19.8366 16.8086 21.0138C16.7897 21.36 16.7685 21.6934 16.7628 22.0297C16.9373 21.7122 17.1043 21.4268 17.3013 21.1026C16.9445 21.1884 17.523 20.4433 17.9102 19.7449ZM13.5393 60.7298C13.7757 60.5962 13.7742 61.1553 13.9382 62.1073C13.9304 61.2088 13.9221 60.3101 13.9144 59.4155C13.7892 59.855 13.6645 60.2902 13.5393 60.7298ZM14.0216 81.5497C14.0218 81.551 14.0221 81.5523 14.0223 81.5535C14.0393 81.8326 14.0622 82.1166 14.0893 82.3934C14.2095 82.5369 14.3302 82.6763 14.4528 82.815C14.6195 83.784 14.8489 84.7476 15.139 85.6968C15.323 85.4938 14.6802 83.8541 14.63 82.87C14.201 81.5073 13.9715 80.8387 13.735 80.7799C13.826 81.0387 13.9217 81.2937 14.0216 81.5497ZM197.729 14.133C197.946 14.4086 198.153 14.6848 198.357 14.9669C198.001 14.6861 197.645 14.4117 197.268 14.1535C196.527 13.1707 196.272 13.3029 194.982 12.4336C190.876 10.0437 192.084 10.1003 187.772 9.5098C191.093 10.4295 189.725 10.3914 191.512 11.3826C191.991 11.3727 190.269 10.1658 191.592 10.6262C193.727 11.7859 195.608 13.1591 197.514 14.9744C197.434 14.9496 197.354 14.9255 197.274 14.9017C196.971 14.6166 196.664 14.3415 196.346 14.0718C196.648 14.4162 196.931 14.76 197.215 15.1228C196.914 14.593 197.942 15.637 197.95 15.3378C197.957 15.2008 197.563 14.657 197.324 14.3328C198.134 14.9317 198.926 15.604 199.665 16.3135C199.363 15.8702 199.044 15.435 198.712 15.011C198.393 14.7103 198.069 14.4211 197.736 14.1375C197.733 14.136 197.731 14.1345 197.729 14.133ZM63.883 100.553C65.1985 100.796 67.5888 100.836 68.8469 100.566C67.1912 100.561 65.5388 100.557 63.883 100.553ZM13.5421 80.7137C13.6052 80.8489 13.6683 80.9786 13.7336 81.1116C13.7 80.4777 13.692 79.848 13.7093 79.2202C13.5791 79.1132 13.4493 79.0014 13.3208 78.8866C13.3706 79.4942 13.4456 80.1113 13.5421 80.7137ZM13.3825 38.8164C13.3753 39.2974 13.3792 39.34 13.3962 39.9391C13.3961 39.9384 13.396 39.9378 13.3959 39.9371C13.4023 40.1746 13.4721 42.1617 13.5641 41.9402C13.5656 40.9536 13.5641 39.9013 13.5641 38.8918C13.5035 38.8612 13.4435 38.8545 13.3825 38.8164ZM13.4362 50.4292C13.4364 50.4306 13.4366 50.4319 13.4368 50.4333C13.4508 50.7924 13.4792 51.1325 13.4844 51.5031C13.6292 50.169 13.3694 49.9581 13.4429 48.7461C13.5169 47.5341 13.6602 46.7852 13.3044 45.7568C13.2511 46.1392 13.1748 46.5509 13.1127 46.9447C13.255 48.6653 13.1211 49.1287 12.9809 50.5087C13.133 50.4819 13.2841 50.456 13.4362 50.4292ZM177.505 9.08858C177.176 8.91265 176.809 9.08527 176.771 9.08736C176.772 9.08755 176.773 9.08776 176.773 9.08797C173.861 8.92504 177.152 9.18534 174.403 9.21278C174.812 9.25674 175.215 9.30317 175.62 9.34766C176.247 9.26282 176.893 9.16668 177.505 9.08858ZM82.8678 9.10505C82.841 9.15628 82.809 9.20763 82.7822 9.25885C84.4341 9.24695 84.8553 9.44862 86.228 9.26495C85.1078 9.21115 83.988 9.15773 82.8678 9.10444C82.8678 9.10464 82.8678 9.10485 82.8678 9.10505ZM13.1352 30.573C12.9942 31.4719 12.9246 32.2634 12.9219 33.053C12.9201 33.8193 12.9487 34.5797 13.0242 35.4358C13.0244 35.4372 13.0246 35.4385 13.0248 35.4399C13.0344 35.5413 13.1416 35.0508 13.1686 35.1831C13.1525 35.5461 13.1279 35.9208 13.1088 36.2876C13.1946 36.3372 13.2804 36.3846 13.3657 36.4343C13.3414 35.402 13.3171 34.369 13.2928 33.3329C13.343 33.4859 13.3927 33.6425 13.4429 33.7955C13.4502 33.5478 13.4575 33.3004 13.4647 33.053C13.4834 32.4484 13.524 31.8562 13.5874 31.2567C13.4254 31.5354 13.2682 31.8219 13.116 32.1058C13.106 31.5982 13.1137 31.081 13.1352 30.573ZM110.369 8.54447C110.078 8.60036 110.616 8.69409 110.165 8.74222C109.714 8.78973 108.882 8.68544 109.077 8.84322C109.684 8.86443 110.322 8.88873 110.941 8.91097C108.949 9.1955 106.962 8.93803 106.931 9.28937C108.843 9.1983 110.415 9.24061 112.266 9.33789C112.189 9.05901 110.338 8.81787 111.504 8.55607C111.129 8.55244 110.736 8.54715 110.373 8.54508C110.371 8.54488 110.37 8.54468 110.369 8.54447ZM27.9826 102.839C29.1474 103.271 31.9019 104.098 33.4902 104.112C33.8836 104.135 35.1985 103.737 35.1916 103.662C35.1674 103.433 33.6708 103.266 35.2933 103.257C34.7517 103.216 34.2267 103.153 33.6923 103.077C33.8087 102.936 33.923 102.796 34.0323 102.654C34.6736 102.756 35.3113 102.834 35.9599 102.889C35.9939 102.84 36.0277 102.79 36.0614 102.74C33.7531 102.585 35.1302 102.484 33.9701 102.176C35.0648 102.222 36.1557 102.198 37.2331 102.104C36.6094 102.117 35.8839 102.096 35.3346 102.067C35.2828 101.807 36.5687 101.94 36.7925 101.886C38.0322 101.753 31.7202 101.357 31.3543 100.659C32.328 100.857 33.3617 101.003 34.3684 101.079C34.0855 100.998 33.8025 100.912 33.5257 100.822C31.2283 100.738 28.6813 100.093 26.1866 99.0198C25.9723 98.9002 25.7598 98.777 25.553 98.6536C25.6721 98.5833 25.7869 98.5108 25.9046 98.439C25.5901 98.2571 25.274 98.0649 24.9682 97.8689C25.7131 98.731 24.3905 98.0516 22.759 97.174C23.4715 97.8631 24.5587 98.4153 24.3564 98.5901C21.5392 96.7243 18.4031 94.1524 16.7113 91.2935C16.3022 90.5841 16.5384 90.4307 15.5807 88.8057C15.5799 88.8794 15.528 88.9207 15.5067 88.9803C14.1038 86.0023 13.529 84.0978 12.79 80.7768C12.9373 80.9537 13.0864 81.1238 13.2372 81.2936C13.3045 82.0028 13.404 82.7171 13.5345 83.4211C13.8663 83.8342 13.6977 83.1387 14.3703 85.1455C14.9817 86.7687 14.5387 85.8338 14.6581 86.2958C14.8329 86.9218 15.208 87.3684 15.4412 88.024C15.6313 88.5281 15.1983 88.0988 15.924 89.3044C15.8207 88.7105 15.7429 88.1072 15.6885 87.5162C15.4989 87.2368 15.3157 86.9568 15.1366 86.6682C15.2225 87.0018 15.3134 87.3277 15.4143 87.6597C14.9751 86.5353 14.6368 85.4474 14.3615 84.2452C14.1956 84.7218 13.9106 83.4656 13.7884 82.7808C13.5949 81.716 13.6002 82.6662 13.4808 81.9623C13.3724 81.2556 13.4572 80.4689 13.2855 79.2055C13.2184 79.8999 13.0075 78.9834 12.9017 79.1733C12.788 79.362 12.9218 80.7482 12.6382 79.4369C12.5495 76.8824 13.2062 79.6024 13.186 77.9032C13.1885 77.5391 13.1729 77.2244 13.142 76.9551C13.0017 75.6915 12.4591 75.4477 12.3233 75.9616C12.272 76.1554 12.245 76.5353 12.2231 76.9551C12.1872 77.6087 12.2027 78.3481 12.1461 78.6593C12.043 77.9401 12.0179 77.39 12.0257 76.9551C12.0524 75.5695 12.3389 75.4603 12.4081 75.063C12.7377 73.1741 11.858 74.4429 12.1762 72.2061C12.0117 72.2482 11.8637 72.2822 11.7059 72.3243C11.7359 71.9383 11.7758 71.6821 11.7996 71.2158C12.1201 72.5909 12.1064 71.4653 12.1069 70.8877C12.1079 69.9776 12.2643 71.3833 12.3047 71.1424C12.4127 70.4923 12.3636 69.4643 12.5048 70.0951C12.4391 69.8121 12.3732 69.5054 12.308 69.2148C12.3899 68.1515 13.0765 65.6527 12.9379 68.0309C13.193 67.8091 13.0704 67.0398 13.0315 66.4394C12.9928 65.8392 13.1552 65.8504 13.1252 65.3228C13.0052 63.2237 12.7273 64.5968 12.5094 64.9295C12.6595 62.1574 12.7588 64.8713 12.8591 60.8765C13.0366 60.4903 13.226 62.3361 13.3285 60.7991C13.0201 60.5159 12.7986 59.3842 12.6962 57.1781C12.7671 56.9639 12.8386 56.7503 12.9095 56.5362C12.6249 55.3317 12.3289 55.9474 12.6818 53.7181C12.0324 54.9149 12.4479 54.092 12.1835 52.0961C12.1302 51.6907 11.9955 52.6273 11.9272 52.0614C11.8964 51.8048 11.9981 51.1821 11.9195 50.5555C11.8807 50.2497 11.6303 48.8195 11.7493 47.8291C12.0639 48.5556 12.3315 46.6739 12.5918 48.2876C12.5276 45.305 12.6787 43.2175 12.2497 46.5596C12.1545 45.8025 12.0597 45.0447 11.965 44.2876C12.04 43.7599 12.1145 43.2277 12.189 42.6961C11.9304 42.6159 11.8579 42.6965 11.9034 40.6177C11.8423 41.5197 11.7803 42.4179 11.7187 43.3237C11.6665 43.3543 11.6123 43.4804 11.5616 43.4501C11.6609 42.3407 11.7036 39.2168 11.7725 38.4598C11.8413 37.7026 11.8601 39.1647 11.9269 38.9468C12.4773 37.1308 12.0713 37.2748 12.1658 35.9717C12.2217 35.207 12.2824 37.033 12.3062 36.6238C12.3934 35.1067 12.1009 34.403 12.0971 33.0578C12.2632 33.5357 12.4318 34.0097 12.5994 34.4761C12.5966 34.0141 12.5945 33.5348 12.5948 33.053C12.5947 32.0733 12.6676 31.0903 12.8025 30.2318C12.8831 29.7308 12.9602 30.1263 12.9783 30.0451C13.0543 29.6421 13.4097 28.0268 13.4609 27.8584C13.7584 26.5787 13.6053 26.4954 13.9893 25.2641C13.8147 25.7405 13.6656 26.1908 13.5231 26.6665C13.1966 26.813 12.8705 26.9703 12.5462 27.1321C12.8308 25.8544 13.215 24.5997 13.6975 23.3745C13.4173 24.298 13.1898 25.2381 13.0202 26.1764C13.6409 24.808 14.3791 23.5151 15.2156 22.3149C15.4227 21.5775 15.6651 20.8472 15.9454 20.1221C17.0939 18.3801 17.3382 19.0864 17.5231 18.0022C17.9268 17.5424 18.3465 17.0987 18.7805 16.6717C18.6707 16.6902 18.5611 16.7088 18.451 16.729C18.9679 16.2001 19.5069 15.6953 20.0663 15.2172C19.6814 15.9312 19.3578 16.6528 19.0548 17.3709C20.0208 16.3566 19.9125 16.2136 20.0186 16.0216C20.3111 15.5193 21.2585 14.9038 21.5173 14.5239C21.6006 14.3854 20.4635 15.2107 20.7163 14.7718C20.7493 14.6855 21.8251 12.9781 22.9372 12.3967C22.9786 12.4971 22.9755 12.6577 23.0018 12.7804C24.3655 11.9082 24.8406 11.0502 24.5705 11.0163C25.3919 10.6579 26.5633 10.1067 26.7996 10.1911C27.2103 10.0079 27.6228 9.83695 28.0422 9.67635C27.4446 9.45757 29.2582 8.85854 29.487 9.17724C28.7557 9.42355 28.0353 9.70468 27.3315 10.0172C28.0571 10.241 25.931 11.1725 30.3427 9.25163C31.1638 8.76869 28.785 9.76444 29.4526 9.38105C30.67 8.87823 31.8929 8.66776 33.0982 8.30721C34.6148 7.9137 32.6836 7.84909 36.3523 7.84732C30.671 8.86206 33.7267 8.38781 37.2331 8.35412C38.6477 8.37337 40.146 8.39657 41.2132 8.45201C42.2456 7.83105 45.4169 7.63437 49.7837 7.81911C49.3287 7.99193 47.9548 7.90289 47.1633 7.95979C46.3718 8.0167 47.2281 8.11922 46.2422 8.19994C45.256 8.28065 43.1611 8.39036 42.1627 8.51243C43.0083 8.61024 47.1824 8.84148 44.4225 8.5637C46.4828 8.39246 47.4503 8.21648 50.0038 8.18438C50.7686 8.45397 50.712 8.62183 53.201 8.62962C51.7289 8.255 54.5572 7.99464 53.9345 7.60763C52.1694 7.69777 53.156 8.07392 52.1352 8.25396C52.0306 8.27195 50.386 8.17766 50.0038 8.18438C51.6634 7.84648 52.2372 7.72071 51.2162 7.31864C52.3902 7.35383 53.1203 7.30335 53.2274 7.49533C53.4721 7.41205 53.7182 7.32869 53.959 7.24541C54.341 7.24747 54.685 7.25519 55.0899 7.25364C54.5322 7.54323 55.6133 7.36496 56.3818 7.49625C57.1504 7.62768 56.1192 7.85629 58.23 7.85939C57.5264 7.92718 56.8832 7.98534 56.2025 8.0495C57.5636 8.12401 58.929 8.19898 60.2901 8.27349C59.3341 8.45043 57.2625 8.71326 57.3191 8.94606C57.9461 8.85817 60.0937 9.01264 60.3288 9.019C61.2389 9.0428 60.7429 8.89598 60.8118 8.89236C62.2415 8.82101 63.4192 8.87099 63.962 8.64853C65.0364 8.74891 65.8467 8.69168 66.986 8.69736C67.6131 8.70046 67.4911 8.86386 67.8581 8.83285C70.2976 8.62588 67.9735 8.41473 72.6793 8.81667C72.1096 8.9305 71.5475 9.04695 70.9778 9.16181C71.5094 9.20476 72.0378 9.24795 72.5693 9.29089C72.9249 9.2702 73.2773 9.24934 73.633 9.22865C73.6253 8.98183 73.6161 8.73452 73.6085 8.48771C73.9985 8.47426 74.3902 8.46119 74.7802 8.44774C74.111 8.42342 73.4402 8.39912 72.771 8.3748C72.7099 8.33138 72.6528 8.28793 72.5917 8.2445C73.5859 8.17723 74.5766 8.10935 75.5708 8.04156C75.5899 8.12742 75.6088 8.21387 75.6279 8.29974C77.8686 8.1802 77.922 8.10752 80.0517 8.34398C81.6922 8.34139 83.028 8.70036 83.9763 8.85146C84.3166 8.80335 84.6573 8.75462 85.0013 8.70651C85.2193 8.77792 85.4395 8.84902 85.6574 8.92043C86.0895 8.82109 86.5275 8.72173 86.9595 8.6229C87.2003 8.84839 87.3251 8.91879 85.6391 8.99794C86.2166 9.2784 89.1847 9.15468 90.3931 9.0605C91.3097 8.98904 90.2926 8.7551 90.4073 8.72665C90.7901 8.62998 92.3009 8.71339 92.6182 8.69736C93.9603 8.63062 94.9007 8.6423 96.1129 8.59055C96.3488 8.58019 97.0085 8.43195 97.0645 8.42729C97.5004 8.40193 98.5763 8.32988 98.6987 8.3278C105.011 8.21714 98.2662 8.86034 104.135 8.79256C103.959 8.87739 103.798 8.96164 103.626 9.04646C104.069 9.05164 104.517 9.05655 104.961 9.06172C105.523 8.99083 104.843 8.86191 105.959 8.9659C105.886 8.86137 105.813 8.75681 105.737 8.6528C106.223 8.70921 106.691 8.76515 107.188 8.82156C107.968 8.45883 110.816 8.37646 110.613 7.95063C110.544 7.80574 108.525 7.65707 109.592 7.50235C110.459 7.47189 109.872 7.64494 110.226 7.65401C112.78 7.71714 112.632 7.47459 113.676 7.53928C113.84 7.64323 114.013 7.74921 114.181 7.8542C114.575 7.82368 114.97 7.79317 115.367 7.76265C115.459 7.83251 115.555 7.90244 115.646 7.9723C115.275 7.97695 114.858 7.98167 114.517 7.98634C114.992 8.2569 119.35 8.37844 117.688 8.14777C117.011 8.05412 115.772 8.0939 116.555 7.77425C117.721 7.8203 119.044 7.86735 120.272 7.9134C120.31 7.84457 120.346 7.77563 120.384 7.70681C122.038 7.75136 120.534 8.02653 120.537 8.174C120.915 8.17815 121.297 8.18177 121.676 8.18591C121.836 8.11922 121.989 8.04942 122.157 7.98481C122.172 8.09093 122.384 8.33759 123.512 8.24603C124.237 8.18642 123.095 7.91869 124.478 7.95582C124.374 8.12137 123.875 8.32301 125.415 8.37633C125.568 8.20354 125.779 8.04525 125.898 7.86366C127.813 8.02966 128.685 7.76283 130.933 7.95582C132.359 8.07794 134.313 8.51145 135.235 7.84352C136.278 7.82594 135.947 7.99227 136.256 8.02966C137.712 8.20664 138.796 7.88992 139.068 7.87128C140.799 7.75188 141.575 7.86151 142.986 7.71199C142.91 7.83567 142.868 7.95274 142.807 8.0733C141.514 7.88805 140.86 7.89675 139.047 7.93659C139.655 7.96143 140.263 7.98683 140.871 8.01167C140.772 8.11202 140.673 8.2124 140.578 8.31225C134.972 7.9169 136.279 8.54152 140.979 8.67813C141.384 8.4924 141.804 8.30716 142.206 8.12091C144.92 8.4024 146.198 8.15804 149.268 8.09955C149.633 8.09286 150.963 8.19985 151.534 8.20513C151.525 8.20585 151.515 8.20656 151.506 8.20727C151.861 8.38266 151.38 8.46339 151.322 8.62016C151.632 8.63981 151.942 8.65939 152.252 8.67905C152.943 8.55955 152.7 8.4614 154.061 8.48985C153.877 8.60885 153.696 8.72788 153.513 8.84689C155.004 8.85103 155.98 8.72173 157.368 8.77762C157.135 8.7326 156.905 8.68745 156.671 8.64243C159.692 8.52755 157.288 7.82789 159.571 8.17614C159.716 8.1151 159.858 8.05347 160.003 7.99244C159.062 7.97743 158.121 7.96288 157.185 7.94788C157.166 7.8615 157.145 7.77549 157.13 7.68911C158.135 7.71498 159.146 7.74166 160.152 7.76753C159.417 7.70958 158.679 7.65155 157.945 7.59359C159.111 7.5522 160.277 7.51078 161.444 7.46939C160.205 7.78703 161.811 7.82588 161.509 8.14044C163.574 7.8786 165.196 7.53345 168.396 7.75441C169.031 7.79842 168.686 8.01824 170.487 7.75075C170.051 8.1005 172.307 8.26463 172.017 8.59727C171.39 8.58123 170.74 8.57114 170.132 8.55149C170.824 8.4361 170.939 8.11868 169.888 8.02448C168.546 7.90443 166.588 8.12443 166.668 7.77211C166.133 7.78867 165.635 7.79843 165.116 7.81239C165.33 7.89979 165.539 7.98774 165.749 8.07513C164.27 7.93812 163.341 7.98267 162.63 8.203C164.392 8.2537 166.151 8.30386 167.913 8.35405C167.654 8.36903 167.39 8.38414 167.131 8.39861C168.465 8.6237 167.089 8.83691 169.578 8.88503C169.563 8.78208 169.551 8.67906 169.535 8.5756C170.442 8.85089 172.923 8.8494 172.131 9.16608C172.881 9.06881 173.034 9.00729 173.458 9.17799C175.435 8.93736 176.704 8.63309 176.001 8.26983C176.735 8.32829 177.469 8.38683 178.2 8.4453C177.775 8.54462 177.35 8.64349 176.926 8.74283C178.203 8.73662 179.49 8.73051 180.763 8.72482C180.885 8.43095 178.305 8.63567 179.049 8.37297C179.198 8.32024 179.886 8.43319 180.066 8.40349C181.97 8.08218 178.981 8.31432 179.542 8.06812C181.537 8.01465 181.008 7.79497 181.874 7.78952C182.247 7.79015 182.868 7.81937 184.027 8.01717C184.137 7.94138 184.257 7.86536 184.361 7.7908C185.733 7.93774 185.595 8.1188 186.741 8.36375C187.454 8.52425 188.443 8.41875 189.162 8.87632C189.278 8.97381 187.897 8.90916 190.576 9.81295C192.619 10.6144 191.886 10.0131 193.022 10.4278C194.185 10.8414 196.281 12.6587 197.179 12.8133C196.637 12.4765 195.955 12.0402 195.334 11.7084C195.14 11.4805 194.947 11.26 194.746 11.0398C196.087 11.9504 197.511 12.8516 198.202 13.7202C200.086 14.8542 201.424 16.9463 200.717 16.6812C200.294 16.124 200.923 16.5806 200.19 15.9316C200.06 15.9171 199.926 15.8996 199.796 15.8874C200.936 17.0664 201.609 17.9973 201.349 17.2403C201.515 17.4358 201.678 17.6321 201.839 17.8329C201.717 17.9838 201.591 18.1303 201.468 18.2798C201.632 18.5323 201.792 18.7881 201.946 19.0458C202.171 19.2953 202.392 19.5498 202.61 19.8123C202.601 19.2802 202.228 18.5639 203.712 20.7224C203.626 20.7798 203.542 20.84 203.456 20.8972C204.582 22.7421 204.884 22.6894 205.79 25.2941C205.459 23.151 204.318 22.3742 204.982 22.0744C204.707 21.6067 204.416 21.1464 204.114 20.6999C204.165 20.5779 204.216 20.4557 204.267 20.3358C205.79 22.9029 206.485 27.6887 207.094 29.5233C207.071 29.7619 207.052 30 207.019 30.2418C207.316 31.4011 207.163 32.1805 207.098 33.053C207.057 33.5644 207.055 34.1156 207.187 34.8163C207.224 35.0108 207.801 34.6038 207.781 37.0578C207.705 36.9967 207.579 36.9649 207.485 36.9152C207.531 37.4465 207.579 37.975 207.626 38.5025C207.556 38.5981 207.487 38.6984 207.417 38.7939C207.39 37.8877 207.363 36.9839 207.336 36.0777C207.312 36.8307 207.289 37.5886 207.265 38.3416C207.152 37.3591 207.15 36.916 206.969 37.5081C206.958 38.3609 206.946 39.2148 206.936 40.0675C206.889 40.1553 206.842 40.2425 206.795 40.3304C206.657 39.9174 206.521 39.5003 206.38 39.0874C206.494 41.3089 206.5 43.2404 206.773 44.9458C206.819 45.2363 206.999 44.2086 206.836 46.1888C206.932 46.2193 207.01 46.2725 207.098 46.3069C206.83 48.7313 206.91 49.5277 207.104 52.0553C206.923 50.4187 207.041 51.8789 206.944 52.2957C206.877 52.5813 206.887 51.4667 206.817 51.5927C206.748 51.7189 206.468 53.1673 206.434 51.929C207.008 48.8928 206.322 48.0657 206.598 44.1653C206.524 44.7657 206.45 45.3704 206.376 45.9707C206.325 45.688 206.28 45.4348 206.227 45.1291C206.339 47.3045 206.266 46.2465 206.178 47.1404C206.089 48.0351 206.014 49.6614 205.99 50.7512C205.982 51.0945 206.111 50.7324 206.123 51.5071C206.131 52.0348 205.94 53.4768 206.165 53.8097C206.311 54.0277 206.715 51.7111 206.714 54.9142C206.857 55.5171 206.813 53.9813 206.83 53.9483C207.001 53.6692 207.129 55.6383 206.999 56.5484C206.987 56.6221 206.854 55.9034 206.802 56.6849C206.677 58.5395 206.83 59.6106 207.037 60.8113C206.794 60.9413 206.505 62.502 206.595 64.4445C206.525 64.5439 206.455 64.6386 206.386 64.7379C206.422 64.4363 206.458 64.1348 206.495 63.8332C206.452 63.5043 206.42 63.1559 206.369 62.8347C206.309 64.7882 205.976 65.0645 205.853 66.0013C205.436 69.207 206.319 67.2641 206.471 66.686C206.409 66.2692 206.34 65.8662 206.276 65.4532C206.36 65.4991 206.445 65.5456 206.53 65.5877C206.527 70.3865 207.077 66.3184 207.234 68.7542C206.819 69.3813 206.779 71.1703 207.043 73.4491C207.041 73.7015 207.04 73.9548 207.037 74.2071C206.977 74.2491 206.884 74.2485 206.845 74.3172C206.81 75.6525 206.944 76.454 207.097 76.9551C207.258 77.4918 207.432 77.6962 207.459 77.8336C207.688 79.0328 207.202 79.9239 207.155 80.2623C206.938 81.7044 207.013 82.1608 206.604 83.4983C206.127 84.9242 206.282 83.8998 206.047 84.3031C205.862 84.6259 205.469 85.7232 205.199 86.1336C205.34 85.9843 205.485 85.8117 205.623 85.6576C205.184 87.1351 204.747 88.3403 203.882 89.8784C202.413 91.2867 202.098 93.1282 201.911 92.1365C202.857 90.7891 203.247 89.943 203.509 89.0939C202.965 90.0102 202.362 90.8925 201.707 91.7289C201.588 92.0275 201.518 92.2529 201.353 92.5954C200.727 93.1197 199.527 94.5253 198.95 94.9763C196.231 97.0385 196.907 96.116 194.599 98.2327C196.509 97.0859 196.663 97.2797 198.359 95.8188C198.117 96.2749 197.193 96.9635 197.906 96.6625C196.145 97.9738 196.581 97.366 195.798 97.7148C195.123 98.0098 193.862 98.7246 193.84 98.5144C193.762 98.6765 193.709 98.8195 193.627 98.9808C192.394 99.639 191.107 100.193 189.782 100.634C190.38 100.549 190.981 100.44 191.578 100.308C191.174 100.52 190.759 100.723 190.342 100.914C187.386 101.803 182.358 102.592 181.874 102.035C181.827 101.988 181.825 101.932 181.874 101.864C181.89 101.842 181.912 101.819 181.939 101.795C181.917 101.794 181.896 101.794 181.874 101.794C180.274 101.771 180.06 101.876 179.17 102.034C179.071 101.97 178.974 101.916 178.875 101.845C177.804 101.912 176.982 101.671 176.038 101.734C175.094 101.796 174.859 102.023 174.722 101.641C174.11 101.751 173.502 101.842 172.894 101.944C172.527 101.857 172.161 101.771 171.798 101.685C171.224 101.73 170.649 101.775 170.076 101.821C169.769 101.638 167.514 101.717 166.52 101.595C165.576 101.791 165.602 102.411 163.382 102.3C163.439 102.146 163.496 101.993 163.553 101.839C163.045 101.871 162.535 101.903 162.023 101.935C161.992 101.986 161.966 102.036 161.935 102.086C162.195 102.07 162.452 102.055 162.712 102.039C162.486 102.124 162.265 102.208 162.043 102.293C161.267 102.167 160.49 102.042 159.71 101.916C160.761 101.821 161.813 101.725 162.864 101.63C161.545 101.517 160.627 101.63 159.48 101.504C158.482 101.716 158.85 101.839 159.256 102.069C158.885 102.049 158.51 102.03 158.139 102.01C158.383 102.241 157.756 102.378 159.924 102.359C159.775 102.425 159.623 102.488 159.478 102.556C159.122 102.545 158.892 102.601 158.502 102.576C157.439 102.506 156.624 102.102 156.696 101.96C156.735 101.886 157.784 102.028 157.742 101.923C157.638 101.667 155.233 101.782 158.701 101.525C157.55 101.362 157.293 101.485 156.024 101.532C156.123 101.446 156.22 101.362 156.315 101.276C155.727 101.316 155.137 101.355 154.548 101.394C155.367 101.832 151.027 101.997 154.934 102.38C153.779 102.4 152.628 102.42 151.478 102.44C151.715 102.485 151.952 102.53 152.189 102.575C152.709 102.551 153.226 102.528 153.746 102.505C153.134 102.587 152.521 102.669 151.91 102.751C150.464 102.649 149.898 102.492 149.236 102.299C150.918 102.157 150.369 102.35 151.679 102.389C151.634 102.266 151.694 102.153 151.58 102.025C150.902 102.278 148.693 102.094 148.181 102.081C146.621 102.044 147.844 102.293 146.801 102.298C145.757 102.303 144.526 102.155 143.673 102.402C143.689 102.264 143.757 102.12 143.818 101.994C142.193 101.948 142.517 102.112 142.349 102.133C139.664 102.482 138.208 102.188 135.137 102.152C135.527 102.109 135.921 102.07 136.315 102.03C133.999 101.736 135.559 101.826 137.57 101.729C135.685 101.758 134.606 101.507 133.275 101.433C131.944 101.358 129.663 101.487 128.829 101.588C130.737 101.749 132.795 101.643 134.913 101.687C134.672 101.828 134.438 101.948 134.19 102.103C132.901 101.807 132.155 102.005 131.73 102.044C130.484 102.159 130.523 101.905 129.77 102.179C129.801 102.084 129.823 102.005 129.854 101.917C127.28 101.957 124.505 102.123 122.83 101.776C122.677 102.002 122.561 102.219 122.385 102.45C121.296 102.28 120.363 102.454 119.445 102.415C118.531 102.375 118.879 102.192 117.805 102.122C117.606 102.109 117.192 102.223 116.702 102.139C116.208 102.054 114.385 101.423 114.167 101.974C113.246 101.977 112.374 101.997 111.471 102.006C112.351 102.037 113.231 102.067 114.106 102.098C113.357 102.232 112.612 102.365 111.863 102.498C111.767 102.379 111.671 102.258 111.579 102.141C109.561 101.996 108.095 102.191 106.057 102.144C105.717 102.137 106.52 101.901 105.01 101.961C103.5 102.021 102.379 102.461 99.8057 102.291C99.6756 102.282 98.9137 101.946 97.9921 102.179C97.7824 102.231 98.665 102.31 98.1836 102.379C97.7018 102.448 95.5521 102.505 95.3838 102.67C95.4068 102.612 95.5409 102.551 95.606 102.492C95.239 102.464 94.8682 102.436 94.4974 102.408C94.463 102.511 94.4259 102.614 94.3915 102.717C92.2808 102.477 91.19 102.087 88.0624 102.216C88.9418 102.066 89.8215 101.916 90.6971 101.767C90.938 101.872 91.1794 101.977 91.4164 102.083C92.8578 102.041 94.3032 101.999 95.7445 101.957C95.9816 102.077 96.2145 102.196 96.4516 102.315C96.8339 102.3 97.2125 102.285 97.5948 102.269C97.4992 102.183 97.4028 102.097 97.3034 102.01C98.0603 102.032 98.8182 102.053 99.5713 102.075C98.038 101.565 95.2895 102.118 95.4878 101.691C95.1476 101.757 94.807 101.824 94.4669 101.891C94.3177 101.684 93.626 101.744 92.4068 101.776C92.6859 101.674 92.9942 101.574 93.2504 101.471C92.065 101.615 89.9623 101.601 88.7348 101.656C88.1957 101.68 88.7342 101.83 88.5739 101.848C87.7517 101.94 86.1803 101.678 85.8515 101.699C83.8861 101.822 82.6089 102.318 80.4638 101.991C82.6778 101.911 81.4733 101.945 82.2611 101.763C82.5076 101.706 85.3679 101.587 81.7863 101.64C81.3664 101.647 74.8675 101.989 77.0038 102.252C75.9522 102.168 75.1289 102.071 74.1653 101.982C71.8098 102.675 72.625 102.024 73.3094 101.666C72.9232 101.665 72.5558 101.661 72.1581 101.661C73.0032 102.037 68.6978 102.061 67.2371 101.871C66.7477 101.808 68.1162 101.687 66.9844 101.63C66.4455 101.657 65.8341 101.691 65.2646 101.72C66.0905 101.482 64.4696 101.391 64.4923 101.148C63.4561 101.364 62.6636 101.822 63.233 102.069C62.3766 101.969 61.5158 101.869 60.6594 101.768C61.0571 101.71 61.4599 101.654 61.8576 101.596C59.0585 101.748 55.4594 101.402 54.8744 101.911C54.5035 101.907 54.1286 101.904 53.7577 101.9C53.643 101.814 53.5321 101.728 53.4174 101.642C51.7391 101.717 50.0646 101.792 48.3863 101.866C49.8807 101.92 50.2364 102.042 51.8036 101.943C51.1996 102.042 50.5845 102.141 49.992 102.24C47.6328 101.974 47.3109 101.799 43.7587 101.878C43.5981 101.882 40.9142 102.105 40.8224 102.126C40.4019 102.226 41.0402 102.37 40.853 102.42C40.3329 102.561 37.1728 102.914 37.234 102.968C38.0064 103.622 48.6386 103.631 51.5142 103.664C81.3402 104.013 110.509 103.546 140.148 103.626C140.453 103.627 140.32 103.724 140.45 103.728C141.256 103.752 142.049 103.602 142.347 103.595C142.984 103.583 142.633 103.722 143.099 103.722C147.909 103.72 152.448 103.639 157.263 103.662C157.576 103.664 157.256 103.553 157.807 103.572C158.091 103.583 158.981 103.754 159.622 103.756C161.863 103.765 163.745 103.71 166.108 103.713C167.401 103.715 169.34 103.7 170.785 103.703C171.423 103.704 172.088 103.782 172.719 103.784C173.613 103.788 173.431 103.63 173.568 103.62C174.172 103.577 174.256 103.751 174.83 103.747C175.897 103.738 175.954 103.622 177.308 103.632C178.275 103.639 180.489 103.731 181.709 103.758C181.764 103.755 181.819 103.753 181.874 103.75C184.902 103.664 188.622 103.009 191.249 102.033C192.834 101.448 192.897 101.201 193.515 100.913C195.673 99.8488 197.332 99.0002 199.1 97.5492C201.424 95.5992 203.087 93.4452 204.618 90.9659C204.864 90.5607 204.935 90.731 205.174 90.3288C206.061 88.8437 206.975 86.8128 207.422 85.3349C207.916 83.686 207.855 83.0179 208.193 81.3877C208.283 80.9044 208.498 80.7953 208.618 79.9737C208.765 78.9474 208.722 77.8298 208.668 76.9551C208.654 76.7301 208.643 76.5218 208.639 76.3365C208.614 75.1626 208.807 76.1835 208.781 74.6004C208.78 74.5353 208.642 74.2985 208.648 73.9585C208.667 72.9681 208.776 73.0665 208.765 71.6172C208.764 71.4782 208.632 69.5566 208.632 69.3656C208.63 68.2414 208.584 65.9781 208.612 65.3126C208.711 62.9341 208.919 64.8066 208.468 62.7838C208.579 61.8931 208.69 61.0097 208.797 60.0655C208.697 60.6957 208.553 58.1382 208.563 57.9585C208.638 56.4719 208.813 57.3574 208.784 55.4725C208.379 57.9619 208.732 53.0407 208.742 51.9432C208.792 46.6589 208.691 41.8555 208.694 36.5443C208.694 35.5122 208.724 34.2763 208.747 33.053C208.765 32.1005 208.727 31.1568 208.641 30.3148C208.591 29.8442 208.535 30.2095 208.485 29.7978C208.432 29.3882 208.597 29.8294 208.529 29.3618C208.07 26.4441 207.197 24.3078 206.316 21.7574C206.228 21.6539 206.204 21.6697 206.074 21.4917C205.399 19.3476 202.654 16.0276 201.499 14.9579C199.747 13.2127 199.338 12.7105 197.894 11.6271C195.983 10.1685 192.617 8.89321 194.272 9.16872C192.819 8.39684 191.342 7.7868 189.74 7.34364C189.561 7.29499 189.647 7.4524 189.575 7.4336C189.124 7.31832 189.007 7.17081 188.702 7.08434C187.875 6.86018 189.195 7.32908 188.023 7.0013C187.399 6.84566 187.068 6.63195 185.291 6.38593C184.165 6.24191 183.028 6.16895 181.874 6.16866C172.731 6.16693 163.022 6.19669 153.8 6.21152C153.093 6.21255 153.558 6.09085 152.671 6.09861C149.589 6.12554 144.073 6.33037 141.415 6.30246C138.758 6.27451 139.357 6.09653 137.694 6.02201C137.373 6.00752 137.636 6.10896 137.346 6.11051C135.392 6.11983 133.062 6.27805 131.479 6.30185C130.432 6.31779 130.516 6.15823 129.79 6.14683C128.708 6.13026 127.594 6.29148 127.017 6.29666C124.302 6.31939 122.436 6.18954 119.901 6.25577C120 6.22065 120.066 6.18814 120.15 6.15354C117.148 6.15923 114.15 6.16494 111.149 6.17063C111.291 6.13854 111.427 6.10619 111.569 6.07359C108.047 6.09119 108.449 6.43891 108.759 5.70465C108.503 5.67878 108.231 5.6488 107.987 5.625C108.086 6.00324 105.956 6.28004 103.245 6.3763C103.046 6.38355 101.712 6.01476 101.857 6.45046C101.509 6.34386 101.302 6.27039 101.007 6.17673C100.434 6.30864 99.8529 6.439 99.2795 6.57039C98.9698 6.55073 98.6558 6.53176 98.3462 6.5121C98.3003 6.42672 98.3356 6.33807 98.2362 6.25424C96.7986 6.24131 93.85 6.34686 92.714 6.33602C89.892 6.3086 87.0189 6.07776 84.824 6.32717C83.7549 6.30174 84.8166 6.13417 83.2265 6.15537C83.0468 6.24021 82.8779 6.32153 82.6906 6.40896C81.391 6.02988 81.1195 6.26048 79.3385 6.33968C78.1341 6.39349 77.3454 6.30085 76.1984 6.31894C75.9078 6.32359 75.949 6.43486 75.7501 6.43124C75.0842 6.41976 73.1841 6.26662 72.714 6.26248C68.4545 6.22213 64.7952 6.2393 60.7384 6.28018C60.3025 6.28432 60.8677 6.17451 60.4164 6.17917C59.6905 6.18649 60.1177 6.35521 59.6971 6.36349C58.5241 6.38563 58.5152 6.20771 56.879 6.19839C51.4914 6.16788 45.2971 6.30154 39.6686 6.31345C39.4927 6.31345 39.5032 6.2092 39.312 6.20816C38.6153 6.20531 37.9139 6.24809 37.2331 6.2861C36.6543 6.31612 36.1015 6.36139 35.5672 6.39359C33.5704 6.52671 32.0446 6.63179 30.1157 7.14809C26.3625 8.20086 23.2297 9.89945 20.1493 12.4304C17.6558 14.5353 15.7427 16.7033 13.9441 19.8058C11.6624 23.7955 10.4089 28.4057 10.3814 33.053C10.2959 43.4734 10.1672 53.9699 10.2915 64.3671C10.2962 64.7415 10.3883 64.5891 10.3843 64.7033C10.3444 65.7892 10.2202 65.8862 10.4804 66.2723C10.4291 67.6557 10.2336 68.0923 10.2476 69.7629C10.2549 70.6533 10.5579 69.9886 10.4017 71.495C10.2604 72.8552 10.0943 71.3541 10.264 75.3992C10.2687 75.5063 10.4534 76.0334 10.4053 76.8745C10.4037 76.9034 10.402 76.9302 10.4002 76.9551C10.3653 77.7108 10.1807 76.8002 10.2562 78.9228C10.4447 84.1051 13.0164 90.4758 17.05 94.9351C17.2525 95.2574 19.7999 97.8461 20.3831 98.2799C21.4351 99.1944 21.1086 99.1527 22.6172 100.179C23.8019 100.948 24.8986 101.372 26.3963 102.061C26.5736 102.136 26.7993 102.431 27.9826 102.839ZM201.257 18.2723C201.312 18.6211 201.21 19.3601 202.299 20.7975C202.403 20.939 202.258 19.928 202.835 20.766C202.366 19.8861 201.833 19.0703 201.258 18.272C201.257 18.2721 201.257 18.2722 201.257 18.2723ZM36.8861 100.75C35.5357 100.76 34.1754 100.656 32.8377 100.436C33.746 100.676 34.6716 100.863 35.6038 100.995C36.0401 100.925 36.4604 100.843 36.8861 100.75ZM91.7502 8.98085C91.7488 8.98085 91.7475 8.98085 91.7461 8.98085C93.2374 9.05537 94.7296 9.13002 96.2209 9.20454C96.0641 9.14968 95.9069 9.0946 95.7502 9.03975C94.5727 8.95335 93.3945 8.86707 92.2209 8.78067C92.0641 8.8474 91.9069 8.91412 91.7502 8.98085ZM79.9682 8.40013C79.016 8.46533 79.2491 8.57529 78.7252 8.6824C78.7252 8.6822 78.7252 8.682 78.7252 8.68179C78.5869 8.70968 77.943 8.73408 77.6941 8.73825C77.7859 8.66943 77.9044 8.60149 78.0038 8.53318C75.7822 8.36656 71.4375 8.95866 77.0624 9.19721C76.9783 9.1103 76.8979 9.02383 76.8138 8.93691C79.6091 8.96123 82.7252 8.77271 79.9682 8.40013ZM205.998 39.2402C205.713 41.6263 205.653 42.3914 205.849 45.286C205.929 44.8772 206.01 44.4682 206.091 44.0594C206.008 43.5814 205.927 43.1069 205.844 42.6289C205.844 42.6275 205.844 42.6262 205.844 42.6248C205.931 42.5292 206.017 42.4333 206.104 42.3416C206.068 41.3092 206.033 40.2725 205.998 39.2402ZM12.7859 42.3844C13.3543 43.0494 13.0239 42.8576 13.1521 40.958C13.1966 40.3003 13.296 40.9413 13.3126 40.5321C13.403 38.3226 13.0222 38.1459 12.824 38.6391C12.8106 39.8895 12.7983 41.1528 12.7859 42.3803C12.7859 42.3817 12.7859 42.383 12.7859 42.3844ZM22.1598 96.3537C22.1609 96.3546 22.1619 96.3554 22.163 96.3562C22.2906 96.2807 21.6331 95.7173 22.4832 96.2152C21.8943 95.7642 21.3256 95.2868 20.7776 94.7814C20.9296 94.9393 21.0875 95.0978 21.2438 95.2517C21.067 95.1603 20.8901 95.0666 20.7146 94.9702C20.6284 94.672 20.3819 94.5799 19.7918 94.059C20.0652 94.0946 20.3367 94.1241 20.6076 94.1493C19.9306 93.5651 19.282 92.9391 18.6705 92.2787C18.6304 92.2976 18.59 92.3162 18.5499 92.3349C18.3758 92.0374 18.2111 91.7394 18.0508 91.4365C17.9545 91.394 17.8606 91.3533 17.7645 91.3094C17.552 90.9563 17.3481 90.5974 17.1553 90.2354C16.9866 90.1967 17.4257 90.993 16.5894 89.6207C16.7393 90.1075 16.9049 90.5906 17.0908 91.0768C18.5067 93.0753 20.2224 94.8604 22.1598 96.3537ZM14.1716 25.4609C13.3799 28.0056 13.7258 27.3124 14.1355 26.7926C14.1346 26.3519 14.1466 25.9075 14.1716 25.4609ZM147.161 8.53013C147.957 8.72211 148.755 8.91217 149.57 9.09742C151.191 9.20454 152.813 8.85463 151.593 8.7175C150.125 8.55296 148.591 8.73711 147.161 8.53013ZM184.038 8.71004C182.096 8.66648 183.911 9.0043 184.313 9.18808C184.861 9.03107 185.6 9.12944 186.768 9.34085C185.685 9.0947 184.36 8.71786 184.038 8.70944C184.038 8.70964 184.038 8.70985 184.038 8.71004ZM115.239 8.74588C114.444 8.74014 113.653 8.68652 112.942 8.75168C113.157 8.93525 114.579 8.76823 113.562 9.04036C114.07 9.04501 114.579 9.04953 115.084 9.0547C114.763 8.94196 115.195 8.85769 115.237 8.74649C115.237 8.74628 115.238 8.74608 115.239 8.74588ZM32.6798 9.42717C34.1227 8.95124 34.4367 9.00658 35.954 9.05671C36.1629 8.86256 34.3182 8.6737 33.1649 8.81985C32.9998 9.02045 32.8388 9.22287 32.6798 9.42717ZM84.6961 101.102C85.0707 101.327 87.8344 101.357 89.2076 101.29C89.0441 101.257 88.88 101.223 88.7165 101.189C87.3781 101.16 86.0345 101.131 84.6961 101.102ZM187.326 9.44659C187.13 9.40835 186.944 9.37318 186.768 9.34085C186.963 9.38324 187.151 9.42045 187.326 9.44659ZM206.459 82.5196C206.804 81.9172 206.474 83.8653 206.871 81.4985C206.871 81.4986 206.871 81.4986 206.871 81.4987C207.079 79.9256 207.096 79.578 207.165 78.1138C206.868 78.6384 206.569 81.5256 206.757 77.5096C206.757 77.4572 206.916 77.563 206.905 76.9551C206.904 76.9428 206.904 76.9302 206.903 76.9173C206.897 76.718 206.763 76.08 206.724 75.1098C206.712 74.7963 206.671 72.44 206.668 75.6519C206.478 75.5563 206.285 75.7288 206.1 75.7211C206.082 76.1585 206.115 76.5606 206.166 76.9551C206.259 77.6735 206.389 78.3754 206.307 79.2205C206.104 81.1534 205.482 82.0146 205.89 82.4882C206.421 80.9317 206.645 78.0943 206.328 77.7297C206.337 77.4302 206.348 77.1705 206.363 76.9551C206.425 76.0364 206.601 75.9309 206.699 76.9551C206.7 76.9614 206.701 76.9678 206.701 76.9743C206.208 82.4326 207.185 78.558 206.064 83.2692C205.983 83.3078 205.86 83.4804 205.806 83.4342C205.64 84.919 206.354 82.7424 206.459 82.5196ZM206.549 70.9488C206.404 71.9048 206.257 72.8576 206.111 73.8098C206.348 73.8097 206.561 73.2848 206.694 71.7782C206.646 71.5031 206.597 71.2239 206.549 70.9488ZM146.736 101.568C146.598 101.439 146.231 101.321 145.964 101.198C145.673 101.307 138.79 101.411 142.292 101.518C142.8 101.533 145.902 101.306 146.736 101.568ZM23.0721 13.3649C23.6598 12.8349 24.2738 12.3327 24.9135 11.8601C23.8337 12.4257 22.7914 13.0731 21.8 13.7972C22.2239 13.6392 22.6467 13.4963 23.0721 13.3649ZM160.357 8.30401C160.015 8.30885 161.152 8.48604 159.803 8.45811C160.809 8.57143 161.751 8.66736 162.733 8.77396C163.028 8.69012 163.325 8.60664 163.62 8.5228C163.849 8.57662 164.083 8.63011 164.313 8.68393C164.175 8.56181 164.052 8.44254 163.907 8.31835C162.251 8.58018 161.872 8.28331 160.357 8.30401ZM111.125 7.82643C110.827 8.09184 113.224 8.24966 110.866 8.29211C111.313 8.46648 112.033 8.55794 113.413 8.57346C113.635 8.50677 113.856 8.44057 114.077 8.37389C114.108 8.55234 114.463 8.61867 115.239 8.74588C115.239 8.74567 115.24 8.74547 115.241 8.74527C117.339 8.75819 117.214 8.69868 117.719 8.40532C115.497 8.57091 115.431 8.30287 113.916 8.14349C112.876 8.0339 111.518 8.08353 111.125 7.82643ZM154.07 101.571C152.499 101.347 153.908 101.138 151.121 101.376C151.301 101.433 151.481 101.489 151.661 101.546C152.464 101.555 153.267 101.563 154.07 101.571ZM103.371 8.73611C103.551 8.32527 105.03 8.00547 105.283 8.67386C103.841 8.80995 104.545 8.43135 103.371 8.73611ZM183.417 8.019C182.697 7.98093 182.199 8.01271 181.874 8.06505C181.125 8.18813 181.32 8.409 181.874 8.57954C181.999 8.61858 182.141 8.65594 182.294 8.69054C182.468 8.6091 182.642 8.52935 182.814 8.45193C183.287 8.50793 183.767 8.57825 184.234 8.66092C183.97 8.44282 183.697 8.22834 183.417 8.019ZM54.501 8.28478C56.6194 8.57818 52.2142 8.44795 53.6941 8.63113C54.8757 8.77757 56.4327 8.48193 55.8438 8.29668C55.4347 8.2915 54.9792 8.28789 54.5051 8.28478C54.5037 8.28478 54.5024 8.28478 54.501 8.28478ZM66.7598 8.3687C66.412 8.68218 66.9134 8.59081 65.2397 8.5344C64.7617 8.51836 60.9635 8.63609 62.5581 8.37633C63.9152 8.37633 65.3491 8.3718 66.7598 8.3687ZM205.866 27.4941C206.045 27.4906 205.523 24.599 205.275 24.2823C205.275 24.2822 205.275 24.2822 205.275 24.2821C204.745 23.4092 205.733 26.2971 205.036 25.138C206.174 27.8438 205.6 28.8582 206.366 28.5054C206.057 26.793 206.053 27.6381 205.866 27.4941ZM48.4087 101.744C48.4074 101.744 48.406 101.744 48.4047 101.744C48.6011 101.738 50.2194 101.538 50.0226 101.468C48.0765 101.528 48.4233 101.66 46.6115 101.443C46.5122 101.513 46.4271 101.58 46.3201 101.651C47.039 101.692 47.4375 101.776 48.4087 101.744ZM139.294 101.843C140.009 101.879 141.314 101.731 142.129 101.74C139.536 101.172 136.438 101.701 139.294 101.843ZM12.6873 72.8989C12.6875 72.8969 12.6877 72.8948 12.6879 72.8928C12.6876 72.8934 12.6873 72.8942 12.687 72.8949C12.6871 72.8962 12.6872 72.8976 12.6873 72.8989ZM193.928 98.3438C193.868 98.4205 193.838 98.4734 193.836 98.507C193.837 98.5093 193.838 98.5116 193.84 98.5139C193.866 98.4598 193.894 98.4038 193.928 98.3438ZM206.455 33.4409C206.525 33.8863 206.609 33.6263 206.685 33.053C206.836 32.0643 206.783 30.1153 206.596 29.3011C206.524 29.4042 206.448 29.43 206.379 29.653C206.687 30.4603 206.581 32.2637 206.482 33.053C206.46 33.2592 206.448 33.3995 206.455 33.4409ZM129.001 8.40227C132.21 8.39709 128.034 7.64537 127.862 8.24511C127.869 8.25673 128.918 8.40125 129.001 8.40227ZM195.272 12.3474C194.705 11.7322 196.148 12.5024 193.868 11.2171C193.706 11.1952 193.544 11.1755 193.383 11.1572C194.031 11.5254 194.662 11.923 195.272 12.3474ZM150.018 7.41537C154.056 7.54215 157.918 7.7658 155.288 8.39342C154.982 8.37326 154.672 8.35377 154.367 8.3336C154.321 8.0274 153.193 8.19455 151.542 8.20452C151.307 8.08296 150.392 8.05485 150.22 7.95155C149.888 7.75185 150.94 7.61147 150.018 7.41537ZM12.0938 51.4684C12.1461 51.4034 12.1986 51.3399 12.2503 51.2749C12.3093 50.6363 12.368 49.996 12.427 49.3574C12.3267 49.4605 12.2264 49.564 12.1261 49.6671C12.1153 50.2672 12.1043 50.8643 12.0935 51.4644C12.0936 51.4657 12.0937 51.4671 12.0938 51.4684ZM207.195 67.014C206.62 67.3808 206.726 66.099 207.017 63.499C207.076 64.6691 207.136 65.844 207.195 67.014ZM85.1338 7.64852C85.0497 7.81195 84.9669 7.97488 84.879 8.13831C83.4986 7.96806 83.755 7.7809 84.4165 7.5646C84.6572 7.59251 84.8931 7.62061 85.1338 7.64852ZM65.2499 7.57894C65.8225 7.54485 65.5303 7.6768 65.5902 7.67416C67.0394 7.60481 67.2436 7.54429 69.0216 7.64364C69.2396 7.6783 69.4538 7.71475 69.6717 7.75044C68.8497 8.0929 68.2528 7.90625 66.5132 8.10748C66.8268 7.99002 67.1391 7.87239 67.4526 7.75441C66.4854 7.77924 65.5222 7.80373 64.555 7.82857C64.4403 7.79234 64.3254 7.75645 64.2107 7.72023C64.5547 7.67368 64.9097 7.62136 65.2499 7.57894ZM12.2424 58.8531C12.2559 59.7937 12.2698 60.7387 12.2833 61.6794C12.199 61.7138 12.114 61.7468 12.0297 61.7812C12.1006 60.8064 12.1715 59.8279 12.2424 58.8531ZM205.199 86.1336C205.144 86.1922 205.089 86.2486 205.036 86.2969C205.073 86.3051 205.131 86.2405 205.199 86.1336ZM45.9268 102.207C44.8602 102.266 43.323 102.227 42.153 102.24C42.245 102.028 45.2188 102.087 46.263 101.958C46.4309 101.996 46.3777 102.182 45.9268 102.207ZM179.577 7.99091C179.309 7.88536 179.042 7.78031 178.778 7.67477C178.132 7.68615 177.484 7.69817 176.834 7.70956C176.815 7.62314 176.796 7.53597 176.777 7.44955C179.641 7.56183 178.981 7.31264 180.398 7.06689C180.123 7.37472 179.852 7.68256 179.577 7.99091ZM14.4949 88.5944C13.6028 86.6727 13.4971 85.9242 14.1732 86.9132C14.4098 87.6104 14.6801 88.3032 14.9791 88.9804C14.8162 88.8534 14.6541 88.7234 14.4949 88.5944ZM174.098 102.209C172.367 102.113 172.338 102.461 170.646 102.266C171.552 102.202 172.458 102.137 173.361 102.073C173.604 102.118 173.854 102.164 174.098 102.209ZM208.084 39.0996C208.205 39.8299 207.63 41.1952 208.054 43.2483C207.927 43.7376 207.806 44.0443 207.682 44.4649C207.817 44.7096 207.954 44.9876 208.088 45.2208C208.088 45.2222 208.088 45.2236 208.088 45.2249C208.043 47.0872 207.873 45.8798 207.73 45.9218C207.67 45.9415 207.77 47.3237 207.64 46.8918C207.418 46.1461 207.546 43.3599 207.275 43.3523C207.364 44.3312 207.29 46.2427 207.109 45.6773C206.911 45.0579 207.243 43.2565 207.079 42.1093C207.512 43.7532 207.378 40.3579 207.046 39.9717C207.301 37.9795 207.405 39.8106 207.393 41.8525C207.648 40.606 207.51 42.4408 207.722 42.743C207.849 41.4576 207.743 37.0464 208.084 39.0996ZM133.201 7.31223C134.578 7.32865 136.729 7.18314 137.672 7.39799C138.221 7.52316 136.065 7.62009 137.552 7.81667C136.21 7.7975 135.904 7.72071 136.133 7.54843C135.828 7.52774 135.518 7.50757 135.212 7.4874C135.071 7.52101 134.926 7.55418 134.784 7.58779C134.624 7.51691 134.462 7.44659 134.305 7.37571C133.981 7.38966 133.652 7.40365 133.327 7.41812C133.289 7.38248 133.224 7.35146 133.201 7.31223ZM124.393 102.199C124.775 102.201 125.153 102.203 125.536 102.205C125.494 102.247 125.443 102.291 125.395 102.334C125.36 102.368 125.326 102.402 125.291 102.436C125.513 102.315 127.334 102.112 128.101 102.242C128.487 102.308 127.609 102.539 129.244 102.58C128.059 102.568 126.961 102.536 125.811 102.516C125.914 102.585 126.013 102.655 126.116 102.724C126.116 102.724 126.115 102.724 126.114 102.724C125.732 102.739 125.345 102.756 124.963 102.771C124.772 102.58 124.584 102.39 124.393 102.199ZM86.2545 7.32536C87.5584 7.46041 87.9949 7.53055 87.3793 7.74892C87.3779 7.74902 87.3766 7.74912 87.3752 7.74922C86.8897 7.65247 86.4038 7.55576 85.9183 7.45901C86.0291 7.41451 86.1398 7.36986 86.2545 7.32536ZM199.384 95.8764C196.768 97.1905 201.677 93.1819 201.007 94.176C200.992 94.2393 199.533 95.6427 199.384 95.8764ZM183.948 7.80088C183.259 7.73904 182.572 7.70574 181.874 7.69975C181.794 7.69906 181.713 7.69836 181.633 7.69765C181.713 7.65146 181.793 7.60535 181.874 7.55923C181.974 7.50358 182.074 7.44852 182.174 7.39391C182.774 7.50896 183.365 7.64511 183.948 7.80088ZM11.4804 79.8736C11.246 79.2995 11.0588 78.0222 11.1208 76.9551C11.1424 76.5597 11.1859 76.196 11.2552 75.9147C11.2742 76.2615 11.2933 76.6083 11.3124 76.9551C11.3223 77.1437 11.3343 77.3316 11.3482 77.5188C11.3494 77.331 11.3526 77.1431 11.3579 76.9551C11.3819 76.1413 11.4068 75.3313 11.4288 74.5087C11.721 74.4594 11.588 75.4381 11.6334 76.9551C11.6373 77.0892 11.6436 77.227 11.6527 77.3683C11.6573 77.6539 12.1465 79.3684 11.9407 79.9999C11.8837 80.1306 11.6692 78.2636 11.613 79.5811C11.542 79.0142 11.511 78.5131 11.4819 77.9733C11.4048 77.937 11.3278 77.9007 11.2508 77.8597C11.3012 78.5332 11.3779 79.2055 11.4804 79.8736ZM141.217 7.33695C143.109 7.31945 143.342 7.44619 143.736 7.67019C142.856 7.64483 141.977 7.61987 141.097 7.59451C141.139 7.50883 141.175 7.42314 141.217 7.33695ZM11.2451 62.8714C11.2085 61.836 11.3908 62.2795 11.4255 61.8627C11.5559 60.2875 11.4256 59.213 11.5073 57.6569C11.4721 57.7602 11.4392 57.855 11.405 57.9544C11.405 57.9531 11.405 57.9517 11.405 57.9504C11.2514 50.5821 11.6649 54.4523 11.5976 58.8612C11.6654 58.9645 11.7333 59.0636 11.8005 59.1669C11.682 61.1399 11.568 62.9593 11.2451 62.8714ZM207.682 72.9295C207.725 73.0136 207.994 72.2986 207.868 73.6406C207.474 74.7034 207.67 72.9604 207.518 72.524C207.481 72.8873 207.444 73.2588 207.406 73.6182C207.295 71.4463 207.388 71.1293 207.676 71.9208C207.695 71.9773 207.64 72.8452 207.682 72.9295ZM205.728 87.3211C205.103 87.378 206.351 84.8685 206.461 84.9999C206.345 85.3754 206.153 85.6277 206.049 86.0314C205.939 86.438 206.033 86.5899 205.728 87.3211ZM196.384 11.6439C196.455 11.6844 197.28 11.9712 197.1 12.079C196.017 11.8188 194.408 10.5367 194.788 10.5834C195.381 10.9362 195.736 11.2355 196.384 11.6434C196.384 11.6436 196.384 11.6437 196.384 11.6439ZM15.9053 91.9199C15.8541 91.9093 14.63 90.1933 14.5933 89.9003C14.5714 89.6556 14.6139 89.5058 14.6271 89.3095C15.064 90.3779 16.457 92.2434 15.9029 91.9164C15.9037 91.9176 15.9045 91.9187 15.9053 91.9199Z" fill="black"/>
</g>
<path d="M25.4297 27.2603C25.4297 22.3773 29.3881 18.4189 34.271 18.4189H68.353C72.8994 18.4189 76.585 14.7334 76.585 10.187C76.585 5.64064 72.8994 1.95508 68.353 1.95508H18.9473C9.51797 1.95508 1.87402 9.59903 1.87402 19.0283V24.3237C1.87402 30.8284 7.14714 36.1016 13.6519 36.1016H16.5884C21.4713 36.1016 25.4297 32.1432 25.4297 27.2603Z" fill="#00FFB2"/>
<path d="M23.2499 28.7523C23.1051 28.3902 22.9949 29.4636 22.8371 28.6992C22.7828 28.8342 22.723 28.968 22.6602 29.0974C22.7692 29.1679 22.8766 29.2413 22.9836 29.316C23.0805 29.1345 23.1697 28.9464 23.2505 28.7524C23.2503 28.7524 23.2501 28.7523 23.2499 28.7523ZM24.8426 28.7524C24.4538 28.9271 24.2058 29.5527 24.0468 28.7687C24.1778 28.7366 24.3089 28.7001 24.4396 28.6621C24.3925 28.3857 24.3308 28.115 24.2562 27.8552C24.3095 27.7677 24.3615 27.6772 24.4113 27.5868C24.2209 27.4702 24.0276 27.3619 23.8322 27.2603C23.8149 27.2474 23.7977 27.2346 23.7805 27.2216C23.7833 27.2345 23.7861 27.2474 23.789 27.2603C23.8173 27.3493 23.8443 27.4398 23.8693 27.5298C23.6807 27.9098 23.6041 28.2329 23.4706 28.7237C23.4308 28.6696 23.3906 28.6169 23.3495 28.5647C23.3861 28.8278 23.4074 29.0976 23.4124 29.3704C23.5593 29.1804 23.713 28.9541 23.8328 28.7567C24.0941 29.1703 23.7281 29.7429 23.5417 30.007C23.288 30.3736 23.4694 30.3464 23.2678 30.6115C23.235 30.6532 23.1223 30.6022 23.0737 30.69C22.8453 31.139 22.2918 31.9806 22.8761 31.6709C23.34 30.9401 23.8837 30.3468 24.0583 29.4782C24.3057 29.7979 24.5758 29.3926 24.8426 28.7524ZM10.825 34.1877C11.0362 34.4203 11.5939 34.4846 11.9733 34.4292C11.9737 34.4293 11.9741 34.4294 11.9745 34.4294C12.0597 34.4183 12.2684 34.2321 12.0122 34.2006C11.6005 34.1466 11.3198 34.427 11.1574 34.1493C11.0504 34.1665 10.9381 34.1759 10.825 34.1877ZM9.94733 33.8713C9.67221 33.8508 9.68375 34.1358 10.0281 34.1905C10.0281 34.1907 10.028 34.1909 10.0279 34.191C10.1713 34.2109 9.97601 33.9314 10.3855 34.2878C10.5334 34.1681 10.6714 34.0587 10.8084 33.9379C10.6961 33.902 10.5943 33.8657 10.4774 33.8245C10.4742 34.1001 10.2214 33.8903 9.94733 33.8713ZM22.4965 31.9376C22.2855 31.822 22.3964 31.6916 22.422 31.3718C22.279 31.5878 22.1241 31.797 21.9585 31.9963C22.1365 31.9837 22.3153 31.9646 22.4965 31.9376ZM24.2542 25.4131C24.2543 25.4126 24.2544 25.412 24.2545 25.4115C24.313 25.2992 24.3735 25.1885 24.435 25.0806C24.3681 24.9924 24.3024 24.9036 24.2378 24.8124C24.4173 24.4093 24.622 24.0203 24.8481 23.6529C24.5843 23.6072 24.3657 24.3514 24.095 24.7324C24.0172 25.3828 24.1343 25.7103 24.3418 25.7805C24.3104 25.6603 24.2808 25.5377 24.2542 25.4131ZM39.1823 2.27074C39.3065 2.34212 39.4291 2.41357 39.5532 2.48496C39.3881 2.51754 39.2244 2.54241 39.0579 2.58017C38.6225 2.26973 38.5816 2.54434 38.0112 2.52524C36.2627 2.46625 36.7266 1.98409 35.1475 2.69033C36.4153 2.65674 35.9281 2.98859 36.6924 3.2442C36.8508 3.04963 36.0934 2.61082 36.6066 2.51975C37.491 2.72567 38.3414 2.91745 39.3227 3.05042C39.294 3.08405 39.2655 3.1178 39.2368 3.15143C39.0812 3.13021 38.9269 3.10887 38.7713 3.08765C38.9392 3.17769 39.1033 3.26695 39.2739 3.35802C39.0583 3.15365 39.6079 3.26785 39.5343 3.03303C39.5016 2.9285 39.2587 2.78349 39.1154 2.68362C39.4852 2.6293 39.8645 2.57954 40.2384 2.52677C40.0447 2.44349 39.8511 2.36012 39.6587 2.27684C39.5005 2.27425 39.3434 2.27241 39.1852 2.26982C39.1842 2.27013 39.1833 2.27043 39.1823 2.27074ZM43.7841 17.0166C44.2536 17.2598 45.1069 17.3001 45.556 17.0294C44.9649 17.0253 44.3751 17.0207 43.7841 17.0166ZM24.5142 25.8461C24.4817 25.7818 24.45 25.7184 24.4188 25.6523C24.3008 25.9012 24.1925 26.1616 24.0944 26.4239C24.2093 26.4853 24.3247 26.5462 24.44 26.6056C24.4551 26.3524 24.4796 26.0974 24.5142 25.8461ZM16.7147 34.9512C16.865 34.9552 16.8775 34.9515 17.0629 34.9241C17.0627 34.9242 17.0625 34.9243 17.0623 34.9244C17.1381 34.9201 17.7396 34.7811 17.6567 34.6954C17.3606 34.7362 17.0408 34.7637 16.7348 34.7692C16.7266 34.8299 16.7256 34.89 16.7147 34.9512ZM20.1504 34.0191C20.1506 34.0187 20.1509 34.0184 20.1512 34.018C20.2424 33.9539 20.3201 33.8782 20.4153 33.8165C19.9919 33.8911 20.0541 34.1491 19.6811 34.2394C19.3057 34.3227 19.0596 34.2584 18.8599 34.6933C18.9899 34.7094 19.1381 34.7407 19.278 34.7565C19.7442 34.4304 19.9183 34.4924 20.386 34.4095C20.3068 34.2794 20.2287 34.1498 20.1504 34.0191ZM31.3978 2.99061C31.2804 2.81469 31.1495 2.98731 31.1359 2.98939C31.1362 2.98959 31.1364 2.9898 31.1367 2.99C30.097 2.82708 31.272 3.08738 30.2907 3.11481C30.4367 3.15878 30.5803 3.20521 30.725 3.24969C30.9487 3.16486 31.1795 3.06872 31.3978 2.99061ZM3.74243 13.9646C3.7882 13.9893 3.83357 14.0156 3.87942 14.0401C4.04425 13.5157 4.28302 13.4605 4.28292 12.9719C4.09149 13.294 3.91075 13.6257 3.74185 13.9644C3.74205 13.9645 3.74224 13.9645 3.74243 13.9646ZM13.7605 35.3248C14.4144 35.4226 14.898 35.4657 15.5259 35.3105C15.5264 35.3103 15.5269 35.3101 15.5274 35.3099C15.5636 35.3003 15.3885 35.1931 15.4357 35.1661C15.5653 35.1822 15.699 35.2068 15.8299 35.2259C15.8477 35.1401 15.8646 35.0543 15.8823 34.969C15.5138 34.9933 15.1451 35.0176 14.7752 35.0419C14.8298 34.9917 14.8858 34.942 14.9404 34.8918C14.6265 34.8659 14.3137 34.8401 13.9998 34.8143C14.109 34.955 14.2179 35.0957 14.3257 35.2369C14.1374 35.2664 13.9488 35.2948 13.7605 35.3248ZM8.59308 6.07578C8.54978 6.18219 8.7528 6.13935 8.66225 6.2739C8.57183 6.40701 8.28716 6.51099 8.44006 6.58852C8.61182 6.471 8.79527 6.35314 8.97442 6.24147C8.62064 6.87528 7.96599 7.13392 8.19574 7.40012C8.60021 6.90372 9.03711 6.59874 9.58563 6.31343C9.40225 6.09899 8.75237 6.29411 8.91027 5.84269C8.80484 5.91849 8.6941 5.99834 8.59457 6.07538C8.59407 6.07551 8.59358 6.07565 8.59308 6.07578ZM32.1106 21.2754C32.379 21.1477 33.0378 21.093 33.381 20.8907C33.4586 20.8372 33.7265 20.2904 33.7256 20.2235C33.7018 19.9932 33.2699 20.0012 33.7146 19.8115C33.5595 19.8213 33.4079 19.8285 33.2542 19.8451C33.2608 19.6881 33.2691 19.5314 33.2781 19.3749C33.4804 19.3732 33.6797 19.3795 33.8802 19.3936C33.8873 19.3419 33.8947 19.2902 33.9023 19.2385C33.1754 19.2866 33.5916 19.0583 33.1807 18.9172C33.5303 18.7781 33.895 18.6615 34.271 18.5683C34.0534 18.5793 33.8011 18.5981 33.6119 18.6263C33.5652 18.3643 34.0337 18.4012 34.1121 18.3546C34.5602 18.0284 32.2595 18.359 31.9816 18.1155C32.3465 17.9804 32.7431 17.8649 33.1354 17.7765C33.0154 17.7433 32.8932 17.7125 32.7707 17.6839C31.9021 18.0838 30.9665 18.4658 30.1285 19.0757C30.0415 19.1076 29.9547 19.1407 29.87 19.1751C29.837 19.0582 29.8038 18.942 29.7727 18.8243C29.6386 18.8801 29.5037 18.9403 29.3718 19.0025C29.938 19.1302 29.4054 19.4026 29.0024 19.9905C29.3678 19.8912 29.6932 19.5981 29.7999 19.8327C28.66 20.2801 27.8223 21.4549 27.0043 22.2799C26.801 22.49 26.5075 22.303 26.1883 22.9407C26.2316 22.9366 26.2911 22.9641 26.3402 22.9733C25.6466 23.9635 25.2957 24.6965 25.2565 25.9732C25.1494 25.8846 25.043 25.7939 24.9386 25.6994C25.0425 25.4338 25.159 25.1747 25.2842 24.9265C25.1485 24.696 24.969 24.9388 25.23 24.138C25.4678 23.4905 25.4086 23.9075 25.5285 23.755C25.6943 23.5551 25.6417 23.2901 25.841 23.0864C25.9965 22.9327 26.0312 23.2002 26.2509 22.7161C25.9635 22.7987 25.6678 22.8978 25.3775 23.0142C25.3604 23.1593 25.3477 23.3033 25.3377 23.4478C25.4434 23.3426 25.5492 23.2429 25.658 23.1449C25.3619 23.5327 25.1051 23.9252 24.8561 24.382C25.1923 24.3152 24.9323 24.7734 24.837 25.041C24.6873 25.4574 24.9701 25.1349 24.8786 25.4061C24.7914 25.6746 24.5058 25.9503 24.5118 26.4804C24.6692 26.2143 24.7578 26.6003 24.8879 26.5365C25.0151 26.4726 25.0955 25.9605 25.1814 26.4693C25.0199 27.4248 24.6035 26.3424 24.4982 27.0158C24.4862 27.1039 24.4853 27.1856 24.4934 27.2603C24.5562 27.7579 25.164 27.9303 25.3266 27.74C25.3973 27.6558 25.4316 27.4597 25.4575 27.2603C25.4829 27.0658 25.5169 26.876 25.5859 26.7932C25.6169 26.9799 25.6341 27.1323 25.6382 27.2603C25.6506 27.8986 25.3031 27.9071 25.2193 28.0494C24.8166 28.662 25.758 28.3421 25.2994 29.0847C25.4635 29.1034 25.611 29.1208 25.7688 29.1368C25.7099 29.2741 25.6502 29.3598 25.5851 29.5231C25.3899 28.9529 25.3115 29.3643 25.2573 29.5634C25.1703 29.8806 25.1515 29.3504 25.0889 29.4254C24.9293 29.6226 24.8689 29.9754 24.7982 29.7254C24.8332 29.8376 24.8632 29.9606 24.8919 30.0788C24.693 30.431 23.7294 30.9064 24.1617 30.2413C23.8984 30.2154 23.9192 30.4871 23.8699 30.681C23.8206 30.8741 23.6763 30.7984 23.6252 30.9617C23.4033 31.6099 23.8551 31.3709 24.1056 31.3686C23.4869 32.1072 23.9164 31.2993 23.0596 32.322C22.8464 32.3088 23.0517 31.7295 22.6751 32.0516C22.8608 32.3075 22.8164 32.7537 22.3459 33.3469C22.2445 33.3452 22.1435 33.341 22.0436 33.3354C21.9319 33.8059 22.2721 33.9305 21.4507 34.1017C22.1615 34.3794 21.7132 34.2271 21.2547 34.8296C21.1574 34.9524 21.5189 34.887 21.3786 35.0544C21.3132 35.1311 21.0663 35.1608 20.9 35.3382C20.8245 35.4259 20.4473 35.8953 20.0501 35.9216C20.1744 35.5323 19.4603 35.5316 19.8822 35.0798C18.9618 35.5227 18.1838 35.5343 19.4401 35.614C19.2151 35.7914 18.9781 35.9593 18.7297 36.1165C18.5234 36.089 18.3187 36.0553 18.1182 36.0145C18.1337 36.2686 18.1762 36.3609 17.4041 36.3955C17.742 36.427 18.0843 36.4409 18.4315 36.4343C18.4529 36.4833 18.5108 36.5269 18.5097 36.5788C18.0734 36.5886 16.8908 36.6492 16.6063 36.5622C16.5999 36.5607 16.5939 36.5592 16.5884 36.5577C16.4909 36.5301 16.5238 36.5107 16.5884 36.4926C16.6809 36.4682 16.8327 36.4424 16.7863 36.4057C16.711 36.3465 16.6459 36.2979 16.5884 36.2585C16.136 35.9409 16.131 36.2529 15.7172 36.1689C15.4442 36.113 16.096 36.0523 15.95 36.0285C15.4084 35.9413 15.1572 36.2338 14.677 36.2375C14.8476 36.0715 15.0168 35.9029 15.1833 35.7352C14.6803 35.744 14.1197 35.7455 13.6519 35.6924C13.6512 35.6924 13.6506 35.6923 13.65 35.6922C13.4718 35.6707 13.6074 35.5478 13.5783 35.5394C13.4342 35.5002 12.8664 35.4064 12.8064 35.3978C12.3553 35.3583 12.32 35.5262 11.8742 35.4698C12.0464 35.5116 12.2086 35.5466 12.3798 35.5798C12.4277 35.8642 12.4825 36.1485 12.5413 36.4328C12.0665 36.4101 11.5915 36.359 11.1196 36.2802C11.4803 36.2616 11.8392 36.2275 12.189 36.1769C11.6871 35.8899 11.2164 35.5699 10.7869 35.2251C10.4974 35.2915 10.2038 35.3474 9.90131 35.3902C9.2122 35.1071 9.57528 34.6361 9.06556 34.9557C8.88337 34.8319 8.70695 34.7041 8.53374 34.5717C8.52979 34.6479 8.52607 34.7241 8.52325 34.8005C8.30646 34.6463 8.09685 34.4861 7.8938 34.3187C8.25393 34.241 8.60403 34.1317 8.93627 34.0265C8.53432 33.7668 8.43104 33.9398 8.34081 33.952C8.10214 33.9805 7.86951 33.6221 7.67323 33.6465C7.60282 33.6561 7.94379 34.0295 7.71819 34.0775C7.67975 34.0938 6.7805 34.2184 6.50333 33.8337C6.5738 33.754 6.67878 33.6701 6.76158 33.5879C6.34671 33.1965 5.76766 33.4129 5.72344 33.5826C5.54721 33.2918 5.21641 32.9612 5.29073 32.7941C5.1788 32.6778 5.06998 32.5603 4.96291 32.4397C4.77776 32.8506 4.36331 32.2838 4.61121 32.019C4.79727 32.2238 4.99078 32.4218 5.19018 32.6127C5.36779 32.15 6.08857 32.6037 4.67747 31.5951C4.29347 31.4855 5.07307 32.0214 4.77262 31.926C4.39261 31.6338 4.19364 31.2348 3.81271 30.953C3.34847 30.5898 3.52663 31.2855 3.08525 30.0131C5.13532 32.1238 3.12247 29.5184 2.94771 28.1932C2.25121 28.0844 1.63936 26.9843 1.685 25.3695C1.86891 25.5175 1.83723 26.0195 1.94328 26.2925C2.04819 26.5625 2.0946 26.2451 2.23808 26.5723C2.37871 26.901 2.67007 27.5809 2.89832 27.865C2.87837 27.5588 2.78552 26.135 2.73126 27.1082C2.40107 26.4663 2.15681 26.1565 2.04251 25.2608C2.27459 24.9941 2.42297 24.9857 2.44581 24.3237C2.44838 24.2644 2.44998 24.2001 2.4506 24.1301C2.07598 24.6556 1.81563 23.6459 1.42861 23.8682C1.48936 24.2929 1.68001 24.2714 1.85299 24.3237C1.93677 24.3492 2.01598 24.3919 2.07638 24.5081C2.09162 24.5441 2.0209 25.1254 2.04251 25.2608C1.66304 24.6999 1.54235 24.4702 1.15137 24.8705C1.15974 24.6404 1.15312 24.4549 1.17096 24.3237C1.18758 24.2091 1.22379 24.1391 1.31631 24.1206C1.23303 24.0333 1.14967 23.9455 1.06639 23.8595C1.06846 23.7231 1.07617 23.6004 1.07463 23.4558C1.36422 23.6549 1.18594 23.269 1.31723 22.9946C1.44866 22.7203 1.67727 23.0884 1.68037 22.3349C1.74816 22.5861 1.80632 22.8157 1.87049 23.0586C1.94499 22.5728 2.01997 22.0854 2.09447 21.5995C2.27142 21.9408 2.53424 22.6803 2.76705 22.66C2.67915 22.4362 2.83362 21.6696 2.83998 21.5857C2.86378 21.2608 2.71696 21.4379 2.71334 21.4133C2.64199 20.9029 2.69198 20.4826 2.46952 20.2888C2.56989 19.9053 2.51267 19.616 2.51834 19.2093C2.51975 19.1076 2.55427 19.0611 2.5886 19.0283C2.62984 18.9904 2.67075 18.9719 2.6543 18.9032C2.47412 18.0693 2.19763 18.835 2.73217 17.2617C2.82448 17.4678 2.92372 17.6654 3.02457 17.8639C3.08019 17.6896 3.13863 17.5196 3.19979 17.3488C3.19159 17.229 3.18444 17.1103 3.1789 16.9904C2.93377 16.9616 2.68804 16.9334 2.44288 16.9048C2.44667 16.7685 2.45258 16.6319 2.45967 16.496C2.40064 16.7221 2.3461 16.9512 2.29631 17.1823C2.2508 17.199 2.20545 17.2143 2.15998 17.2313C2.13028 16.8732 2.1103 16.519 2.10308 16.1553C2.18887 16.1629 2.27523 16.1708 2.36099 16.1786C2.38425 15.3846 2.32216 15.3355 2.73622 14.6706C2.88395 14.1102 3.37505 13.7776 3.62499 13.5284C3.61864 13.4037 3.61368 13.277 3.61106 13.1495C3.70455 13.1051 3.79813 13.0611 3.89183 13.0191C3.8539 12.8463 3.81924 12.6706 3.7878 12.4941C4.02966 12.5073 4.10207 12.4984 3.96152 13.0536C4.28729 12.9743 4.57101 12.029 4.68437 11.6261C4.76462 11.3197 4.39793 11.5142 4.39044 11.4677C4.36337 11.3054 4.68822 10.8894 4.73054 10.789C4.90541 10.3572 5.09041 10.0886 5.28261 9.71371C5.31938 9.64066 5.32986 9.36785 5.33798 9.34903C5.40434 9.21 5.57245 8.86479 5.59793 8.82961C6.91682 7.05 5.88274 9.24411 7.17652 7.70399C7.196 7.80608 7.21925 7.90386 7.24131 8.00413C7.34732 7.89914 7.45566 7.79436 7.56445 7.69247C7.64846 7.50914 7.39402 7.57738 7.73717 7.38821C7.64697 7.32997 7.55635 7.27213 7.46496 7.21593C7.62426 7.13977 7.77936 7.07031 7.9425 6.99742C7.88611 6.5453 8.60522 5.84453 8.29066 5.55748C8.18147 5.45477 7.5185 5.81111 7.72004 5.44271C7.94771 5.21664 7.88981 5.48775 7.996 5.41323C8.76606 4.88677 8.58946 4.73546 8.93966 4.5644C9.04857 4.61539 9.16049 4.66717 9.2697 4.71999C9.37023 4.615 9.47262 4.51085 9.57757 4.4072C9.64335 4.44798 9.71006 4.48837 9.77527 4.52974C9.66534 4.60486 9.5425 4.69057 9.44376 4.76216C9.7299 4.875 11.1094 4.2086 10.4895 4.30305C10.2341 4.34024 9.87561 4.6088 9.94956 4.18847C10.3344 4.00801 10.7758 3.81572 11.1907 3.65805C11.1719 3.59042 11.1524 3.52305 11.1339 3.4553C11.694 3.22907 11.3222 3.71784 11.3922 3.84846C11.5142 3.79226 11.6379 3.73645 11.7607 3.68339C11.7838 3.59892 11.8037 3.51276 11.8316 3.42896C11.8817 3.52367 12.0491 3.71399 12.3783 3.47388C12.5922 3.3203 12.1125 3.2276 12.5856 3.07495C12.612 3.2439 12.5252 3.49067 13.0477 3.34678C13.0369 3.16618 13.0528 2.99153 13.0308 2.80631C13.7323 2.73287 13.9548 2.37994 14.79 2.36457C15.3237 2.35489 16.0622 2.65709 16.2868 1.9491C16.6565 1.87604 16.5614 2.05954 16.6757 2.0813C17.2118 2.1886 17.5644 1.84674 17.6637 1.82035C18.229 1.67202 18.5116 1.74792 18.9473 1.64795C18.9886 1.63844 19.0314 1.62725 19.0759 1.61403C19.0486 1.73771 19.0337 1.85477 19.0119 1.97534C18.9899 1.9665 18.9683 1.95809 18.9473 1.95011C18.5231 1.7935 18.2802 1.80531 17.6612 1.88602C17.8809 1.89465 18.1015 1.90802 18.3184 1.92504C18.2866 2.02662 18.2558 2.12828 18.2265 2.22945C16.215 1.9857 16.7645 2.5481 18.3796 2.58978C18.5123 2.39942 18.6555 2.21106 18.7972 2.0236C18.8487 2.03807 18.8986 2.05131 18.9473 2.06339C19.8165 2.27905 20.2805 2.05697 21.3184 2.00159C21.4487 1.9949 21.9233 2.10189 22.1273 2.10717C22.1239 2.10788 22.1205 2.1086 22.1171 2.10931C22.244 2.2847 22.0721 2.36542 22.0516 2.52219C22.1622 2.54185 22.2728 2.56143 22.3833 2.58109C22.6302 2.46159 22.5434 2.36343 23.0292 2.39189C22.9637 2.51089 22.8991 2.62992 22.8336 2.74892C23.3659 2.75306 23.7143 2.62377 24.2098 2.67965C24.1265 2.63464 24.0443 2.58949 23.961 2.54447C25.0394 2.42959 24.1812 1.72993 24.9961 2.07818C25.0479 2.01714 25.0984 1.95551 25.1503 1.89447C24.8146 1.87947 24.4787 1.86493 24.1443 1.84992C24.1375 1.76354 24.1301 1.67753 24.1247 1.59114C24.4837 1.61702 24.8444 1.6437 25.2034 1.66957C24.9413 1.61161 24.6777 1.55359 24.4156 1.49563C24.8319 1.45424 25.2483 1.41282 25.6645 1.37143C25.2225 1.68908 25.7956 1.72792 25.6878 2.04248C26.4249 1.78064 27.0039 1.43549 28.1464 1.65645C28.3729 1.70047 28.2498 1.92028 28.8927 1.65279C28.7371 2.00254 29.5424 2.16667 29.439 2.4993C29.2152 2.48327 28.9831 2.47318 28.7661 2.45353C29.0132 2.33814 29.0541 2.02072 28.6788 1.92652C28.1997 1.80647 27.501 2.02646 27.5296 1.67415C27.3385 1.6907 27.1609 1.70047 26.9753 1.71443C27.0517 1.80183 27.1265 1.88977 27.2015 1.97717C26.6735 1.84015 26.3417 1.88471 26.0879 2.10504C26.717 2.15574 27.3448 2.20591 27.974 2.25609C27.8813 2.27108 27.7874 2.28617 27.6947 2.30064C28.1711 2.52574 27.6797 2.73895 28.5683 2.78707C28.5628 2.68412 28.5584 2.5811 28.553 2.47764C28.8765 2.75293 29.7622 2.75143 29.4797 3.06812C29.7472 2.97085 29.8017 2.90932 29.9532 3.08002C30.6589 2.83941 31.1121 2.53513 30.861 2.17187C31.123 2.23033 31.3852 2.28887 31.6458 2.34733C31.4944 2.44667 31.3427 2.54553 31.1912 2.64487C31.6471 2.63866 32.1064 2.63255 32.5609 2.62686C32.6046 2.33298 31.6834 2.5377 31.9492 2.27501C32.0023 2.22228 32.2477 2.33523 32.3121 2.30553C32.9918 1.98421 31.9248 2.21635 32.1252 1.97015C33.138 1.89409 32.3275 1.48156 33.7225 1.82825C33.7594 1.74341 33.799 1.65686 33.8331 1.57253C34.3173 1.56744 34.2781 1.75908 34.6943 1.7953C34.955 1.81783 35.2822 1.4813 35.5701 1.71046C35.6214 1.75271 35.1371 2.16403 36.1549 2.14593C36.9448 2.1319 36.6161 1.84122 37.043 1.73823C37.4703 1.63526 38.4477 2.0383 38.7357 1.58138C38.5119 1.6419 38.2268 1.67455 37.9785 1.7242C37.8775 1.63521 37.7791 1.54718 37.6795 1.45871C38.2473 1.57357 38.8343 1.43819 39.2165 1.65035C39.974 1.3259 40.8213 1.62698 40.592 1.99335C40.3426 1.94053 40.6139 1.78077 40.2675 1.88257C40.2321 1.96796 40.1946 2.05292 40.1592 2.1383C40.7488 2.12795 41.1584 2.13034 40.8895 1.87006C40.9809 1.86385 41.0715 1.85766 41.1629 1.85145C41.1793 2.0398 41.1939 2.22886 41.2102 2.41721C41.3194 2.43843 41.4291 2.45947 41.5383 2.48069C41.6597 2.43932 41.7814 2.39746 41.9042 2.35557C41.739 2.05751 41.4577 2.04767 42.3886 1.88105C42.3913 1.98402 42.3953 2.08659 42.3981 2.18956C43.1774 2.05865 43.198 1.80921 44.1765 1.81849C43.4258 1.46097 43.0151 2.09472 43.0178 1.37753C42.8294 1.42462 42.6395 1.47234 42.4511 1.51943C42.4225 1.41542 42.3941 1.31126 42.3668 1.20725C43.3781 1.26212 45.0582 1.94614 45.7353 1.49258C45.8172 1.54793 45.8994 1.59604 45.9826 1.65553C46.646 1.3818 46.9325 1.99636 47.6054 1.64241C47.6748 1.60527 47.5295 1.02788 48.4055 1.04857C48.3837 1.12361 48.3723 1.24992 48.3546 1.34457C48.5443 1.29854 48.7329 1.25036 48.9212 1.20329C48.9554 1.2726 48.9911 1.34188 49.0253 1.41171C48.7018 1.43862 48.3792 1.46598 48.0557 1.49289C48.3245 1.51668 48.595 1.5405 48.8638 1.56429C48.5131 1.67757 48.3549 1.67878 48.5663 1.8603C48.8707 1.87116 49.1755 1.88269 49.4799 1.89356C49.5112 1.94007 49.5424 1.98712 49.5737 2.03363C49.4263 2.17229 49.2774 2.30791 49.13 2.44865C49.923 2.33533 50.6125 2.32917 51.2212 2.05651C51.325 2.01046 50.9581 1.8298 51.6649 1.99274C51.6759 1.89706 51.6949 1.81936 51.7071 1.73091C52.5725 1.99895 52.8568 1.91895 53.7591 1.72542C53.1749 1.90601 53.6961 1.78856 53.8449 1.88532C53.9469 1.95199 53.549 1.94214 53.594 2.01196C53.639 2.0813 54.156 2.36126 53.714 2.39494C52.6302 1.82107 52.3349 2.50718 50.9426 2.23137C51.157 2.30537 51.3728 2.37953 51.5871 2.45353C51.4862 2.50368 51.3958 2.54919 51.2867 2.60245C52.0632 2.49018 51.6856 2.56311 52.0046 2.65158C52.324 2.74007 52.9045 2.81524 53.2936 2.83956C53.4161 2.8472 53.2868 2.71849 53.5634 2.70651C53.7518 2.69823 54.2665 2.88904 54.3854 2.66409C54.4632 2.51766 53.6362 2.11445 54.7796 2.11541C54.9948 1.97186 54.4466 2.01644 54.4348 1.99915C54.3352 1.82838 55.0381 1.69999 55.363 1.83039C55.3893 1.84164 55.1327 1.9747 55.4117 2.02692C56.0737 2.15162 56.4561 1.99902 56.8847 1.79255C56.9311 2.03473 57.4882 2.32394 58.1816 2.23442C58.2171 2.30373 58.2509 2.37364 58.2863 2.44346C58.1787 2.40678 58.071 2.37059 57.9634 2.33391C57.846 2.37737 57.7216 2.40902 57.6069 2.46024C58.3043 2.5198 58.4029 2.85355 58.7373 2.97566C59.8816 3.3928 59.1881 2.51041 58.9817 2.35832C58.8329 2.4199 58.6891 2.48864 58.5416 2.55332C58.558 2.46897 58.5746 2.38398 58.5896 2.29912C60.3026 2.3017 58.8505 1.7516 59.72 1.59481C59.9438 2.00978 60.5824 2.04978 61.3959 1.78645C61.486 1.78852 61.5764 1.78905 61.6665 1.79164C61.6815 1.85214 61.6813 1.94463 61.7058 1.9845C62.6858 2.05487 62.8604 1.4158 62.9532 1.35526C63.3654 1.08674 63.6864 1.45827 63.8079 1.46145C64.3197 1.47439 64.4685 1.30942 64.9557 1.38028C65.4798 1.45685 65.1214 1.58343 65.2809 1.69673C65.4088 1.78671 65.8222 1.80274 65.993 1.896C65.9251 1.81972 65.8497 1.74492 65.782 1.66835C66.3252 1.56436 66.7691 1.463 67.3859 1.43765C67.7917 1.763 68.1621 1.57878 68.353 1.51976C68.4984 1.47793 68.5427 1.50135 68.4358 1.81828C68.4076 1.82048 68.3801 1.82289 68.353 1.82552C67.819 1.8786 67.5084 1.96635 67.2106 2.15173C67.5913 2.17638 67.9723 2.20039 68.353 2.22504C68.3557 2.22522 68.3584 2.2254 68.3611 2.22558C68.4702 2.14208 68.5498 2.0616 68.6846 1.9813C68.9624 2.16348 69.6124 2.16267 69.8563 2.26847C70.9733 2.77995 70.4702 2.94827 71.6643 2.87991C70.9667 2.5302 71.0386 2.29208 70.2519 2.12199C70.4603 1.9863 70.8582 2.1392 70.6526 1.86049C71.4129 2.14227 71.097 2.25439 71.3233 2.51326C71.5138 2.73717 71.9687 2.96404 71.8574 3.12167C71.9493 3.0517 72.0306 2.98055 72.1252 2.91309C72.5658 3.14318 72.9857 3.41277 73.3774 3.71875C73.2764 3.50325 73.1643 3.28912 73.0398 3.07794C73.2011 3.13552 73.3621 3.19897 73.5216 3.26728C74.3803 4.2175 76.0939 5.70063 75.1763 5.87293C75.4574 6.38114 75.5718 6.39649 75.8604 6.6182C75.8179 6.67805 75.7841 6.73189 75.7339 6.79355C75.9537 7.11316 75.8303 7.46882 75.9888 7.75813C76.1451 8.05052 76.3825 8.08048 76.0248 8.22064C76.1829 8.39642 76.3169 8.58665 76.454 8.78246C76.3907 8.92657 76.3243 9.06568 76.254 9.20074C76.3236 9.39273 76.3858 9.58669 76.4412 9.78678C76.3685 9.83449 76.3452 9.99215 76.3262 10.187C76.3006 10.4663 76.2757 10.8197 76.1819 11.0109C76.3355 11.3493 76.9754 11.4423 76.684 12.2333C76.5398 12.176 76.3956 12.1203 76.2508 12.0653C76.2409 12.2461 76.2241 12.4298 76.2011 12.6129C76.2458 12.6381 76.2909 12.662 76.3354 12.6876C76.3487 12.5931 76.3601 12.5 76.3696 12.4052C76.4297 12.5063 76.4882 12.6076 76.5451 12.7112C76.3399 12.9503 76.1245 13.1728 75.9008 13.3787C75.9587 12.998 75.988 12.6183 75.9895 12.2459C75.7627 12.6478 75.7605 12.9806 75.4911 13.2896C75.5468 13.6839 75.7043 13.6301 75.9759 13.5892C75.9032 13.7038 75.828 13.8176 75.7501 13.9277C75.9908 13.9488 76.0314 14.2305 76.34 13.4777C76.3795 13.5542 76.4146 13.6317 76.4549 13.7101C76.3909 13.8306 76.4045 13.9343 76.3163 14.0583C76.0724 14.4003 75.5646 14.4536 75.458 14.357C75.4023 14.3094 75.7082 14.0508 75.607 14.0136C75.3585 13.931 75.0825 14.7033 75.4007 13.5373C75.0833 13.8138 75.1558 13.9411 74.9704 14.3343C74.9161 14.2605 74.8609 14.1885 74.8044 14.1173C74.7374 14.3025 74.6624 14.4862 74.5797 14.6682C75.1223 14.6811 74.2907 16.05 75.4633 15.127C75.2319 15.4939 74.9731 15.8436 74.6894 16.1738C74.7837 16.1396 74.8776 16.1032 74.9716 16.0651C75.0863 15.9002 75.1946 15.7331 75.2974 15.5624C75.2198 15.7968 75.1302 16.0308 75.0299 16.2631C74.571 16.6096 74.2966 16.6351 73.9855 16.6534C74.3526 16.1305 74.3327 16.4116 74.7036 16.0829C74.6022 16.0119 74.5346 15.9191 74.4123 15.8614C74.4361 16.2232 73.7035 16.6407 73.5488 16.7344C73.0773 17.0484 73.5827 16.98 73.2729 17.2112C72.9551 17.4423 72.4954 17.5415 72.3262 17.9053C72.2679 17.7794 72.2243 17.6404 72.1851 17.5185C71.6458 17.7399 71.8134 17.8279 71.7675 17.8753C70.9912 18.5811 70.3402 18.4725 69.2384 18.57C69.3763 18.5124 69.5126 18.4556 69.6464 18.3938C68.7856 18.2031 69.3638 18.2522 70.0283 18.0169C69.3873 18.1781 68.9847 17.9544 68.5424 17.8944C68.4841 17.8861 68.4205 17.8807 68.353 17.8774C67.8757 17.8554 67.2261 17.9642 66.9673 18.0514C67.4095 18.1562 67.8744 18.1481 68.353 18.1417C68.6043 18.1382 68.8566 18.1237 69.1132 18.1151C69.0438 18.2635 68.9709 18.3893 68.8905 18.5499C68.6622 18.4247 68.4932 18.3974 68.353 18.4088C68.1962 18.4215 68.0835 18.4871 68.0031 18.5079C67.5582 18.6233 67.5722 18.3689 67.3033 18.6425C67.3142 18.5484 67.3222 18.4692 67.3332 18.3813C66.4146 18.4206 65.4237 18.587 64.8259 18.2394C64.7713 18.4655 64.7301 18.6833 64.6673 18.9141C64.2783 18.7439 63.9452 18.9182 63.6177 18.8784C63.2914 18.8386 63.4156 18.6558 63.0321 18.5854C62.9611 18.5725 62.8133 18.6869 62.6386 18.6025C62.4622 18.5177 61.8115 17.8873 61.7337 18.438C61.4048 18.4406 61.0935 18.4608 60.7714 18.4701C61.0853 18.5011 61.3994 18.5312 61.7119 18.5622C61.4444 18.6957 61.1786 18.8288 60.9111 18.9623C60.8769 18.8433 60.8427 18.7221 60.81 18.6047C60.0893 18.4598 59.5663 18.6544 58.8387 18.6083C58.7173 18.6006 59.0039 18.3653 58.4649 18.4252C57.9257 18.4853 57.5256 18.9244 56.6071 18.7548C56.5607 18.746 56.2887 18.4096 55.9598 18.6425C55.8849 18.6953 56.2 18.7734 56.0281 18.8427C55.8561 18.912 55.0888 18.969 55.0287 19.1341C55.0369 19.0757 55.0848 19.0151 55.108 18.9556C54.977 18.9277 54.8447 18.8997 54.7123 18.8723C54.7 18.9753 54.6867 19.0784 54.6745 19.1808C53.921 18.9412 53.5316 18.5504 52.4152 18.6797C52.7291 18.5302 53.0432 18.3801 53.3557 18.2305C53.4417 18.3356 53.5279 18.4413 53.6125 18.5464C54.127 18.5045 54.6429 18.4629 55.1574 18.421C55.2421 18.5405 55.3252 18.6597 55.4099 18.7792C55.5463 18.7637 55.6815 18.7487 55.8179 18.7331C55.7838 18.6467 55.7494 18.5608 55.7139 18.4744C55.9841 18.4956 56.2546 18.5172 56.5235 18.5384C55.9762 18.0284 54.995 18.5818 55.0658 18.1552C54.9444 18.2214 54.8228 18.288 54.7014 18.3547C54.6481 18.1479 54.4012 18.2074 53.966 18.24C54.0656 18.1381 54.1757 18.0375 54.2671 17.9345C53.844 18.0784 53.0934 18.0644 52.6552 18.1198C52.4628 18.1441 52.655 18.2941 52.5978 18.3117C52.3043 18.4038 51.7434 18.1421 51.626 18.1628C50.9244 18.286 50.4685 18.7822 49.7028 18.4551C50.4931 18.3744 50.0632 18.4085 50.3443 18.2269C50.4324 18.1699 51.4534 18.0511 50.1749 18.1039C50.025 18.1105 47.7051 18.4533 48.4677 18.716C48.0923 18.6322 47.7984 18.5353 47.4544 18.4463C46.6136 19.1387 46.9046 18.4882 47.1489 18.1301C47.0111 18.1286 46.8799 18.125 46.738 18.125C47.0396 18.5011 45.5028 18.5245 44.9813 18.3346C44.8066 18.2715 45.2951 18.1511 44.8911 18.0941C44.6988 18.1205 44.4805 18.1547 44.2772 18.1842C44.572 17.9461 43.9934 17.8544 44.0015 17.6123C43.6317 17.828 43.3487 18.2854 43.552 18.5333C43.2463 18.4329 42.939 18.3326 42.6333 18.2318C42.7753 18.1743 42.9191 18.1174 43.061 18.06C42.0619 18.2121 40.7771 17.8659 40.5683 18.3746C40.4359 18.371 40.3021 18.3678 40.1697 18.3642C40.1287 18.2783 40.0892 18.1922 40.0482 18.1063C39.4491 18.1808 38.8514 18.2558 38.2523 18.3303C38.7857 18.3836 38.9127 18.5059 39.4721 18.4066C39.2565 18.5054 39.0369 18.6047 38.8255 18.7035C37.9833 18.4376 37.8684 18.2628 36.6004 18.3419C36.5431 18.3455 35.585 18.5686 35.5522 18.5903C35.4021 18.6897 35.63 18.834 35.5631 18.8842C35.3775 19.0249 34.2495 19.3784 34.2713 19.4317C34.547 20.0857 38.3424 20.0944 39.3688 20.128C49.124 20.4476 58.6823 20.0826 68.353 20.0806C69.4132 20.0808 70.4775 19.9139 71.4924 19.5815C71.6169 19.5407 71.5941 19.6503 71.6486 19.6358C71.99 19.5434 72.248 19.269 72.3608 19.2115C72.6041 19.0871 72.5256 19.2762 72.7079 19.1896C74.5885 18.2679 76.0162 16.8014 77.0465 15.0079C77.1128 14.8901 76.9504 14.9578 77.0782 14.7597C77.1446 14.6594 77.469 14.3905 77.5807 14.1314C77.9674 13.2344 78.1367 12.4195 78.2689 11.4075C78.312 11.0678 78.3396 10.6246 78.3353 10.187C78.3332 9.90657 78.3194 9.63286 78.301 9.38905C78.2806 9.11606 78.3231 8.81824 78.2808 8.54572C78.2177 8.1591 78.0729 8.27021 78.0527 8.21371C77.9577 7.96883 78.1187 7.89529 78.0531 7.65381C77.9215 7.20713 77.8083 7.21656 77.6182 6.66735C77.4881 6.2739 77.1561 5.36907 76.8877 4.90718C76.1352 3.9154 75.1051 2.7613 74.1799 2.06166C73.6339 1.64724 73.4856 1.76579 73.2512 1.62511C72.4148 1.14952 71.7953 0.678871 70.892 0.430077C70.0205 0.198593 69.1837 0.172939 68.353 0.214775C68.0969 0.230701 67.8387 0.242714 67.5743 0.245388C67.4161 0.246937 67.4524 0.0981483 67.2972 0.0943336C66.7225 0.0803604 65.9877 0.0532799 65.4758 0.0744972C64.9053 0.0978127 64.6949 0.313782 64.1367 0.269798C63.973 0.256741 63.9251 0.067379 63.6508 0.0430641C63.2127 0.00483322 62.7323 0.171822 62.4266 0.190456C62.0075 0.215298 62.372 0.0223808 61.8069 0.0482521C61.7836 0.0493698 61.6991 0.187271 61.5777 0.180695C61.2242 0.162064 61.2593 0.0534668 60.742 0.0638161C60.6923 0.0652466 60.0064 0.196644 59.9382 0.19717C59.5369 0.199242 58.729 0.245247 58.4914 0.217312C57.6424 0.117958 58.3108 -0.0894547 57.5888 0.360737C57.2708 0.250549 56.9555 0.138863 56.6184 0.0317764C56.8434 0.131645 55.9305 0.275757 55.8663 0.266441C55.3356 0.191395 55.6517 0.0162277 54.9789 0.0452003C55.8675 0.449856 54.1108 0.0973587 53.7191 0.0870094C51.8328 0.0368309 50.1181 0.13781 48.2222 0.135223C47.5875 0.134163 46.737 0.0486259 46.0655 0.0506935C45.909 0.0508156 46.0273 0.146584 45.8895 0.148651C45.7521 0.15007 45.9045 0.0425644 45.7477 0.0482521C44.7718 0.0855255 44.0071 0.288372 43.1131 0.0348244C43.0695 0.0714836 43.0709 0.100452 42.9989 0.140717C42.2672 -0.0864258 40.8582 0.219036 40.3286 0.260952C39.5003 0.326111 39.2887 0.172577 38.6869 0.203579C37.8912 0.244976 36.6964 0.544922 37.23 0.049778C36.6841 0.0342636 36.1585 0.0299759 35.6072 0.0760231C35.5458 0.0812416 35.5881 0.207096 35.5635 0.209682C35.408 0.227753 35.3573 0.11507 35.2522 0.109898C34.9673 0.0959778 35.4323 0.2309 35.026 0.193203C34.8117 0.173023 34.69 0.0747452 34.0949 0.0726662C30.5078 0.0617981 26.6134 0.0970001 22.9361 0.113556C22.6836 0.114594 22.8498 -0.00711441 22.5332 0.000648499C21.5805 0.0239677 19.9763 0.180664 18.9473 0.204159C18.7709 0.207794 18.6104 0.210682 18.4702 0.210434C17.4285 0.221897 17.6478 0.0403366 16.983 0.0239563C16.8535 0.0228882 16.9689 0.112675 16.8538 0.12664C16.0789 0.217598 15.1994 0.539238 14.5996 0.708851C14.2037 0.820976 14.1963 0.659958 13.9141 0.723942C13.4934 0.821434 13.1218 1.11016 12.909 1.18822C11.9084 1.55668 11.1766 1.73159 10.3123 2.24533C10.331 2.19619 10.3393 2.15544 10.3533 2.10949C9.29431 2.65472 8.2893 3.2989 7.35256 4.0313C7.37726 3.97161 7.40068 3.91286 7.42582 3.85279C6.33178 4.73271 6.70558 4.91948 6.31533 4.27548C6.21957 4.32345 6.11662 4.3734 6.02622 4.42167C6.30558 4.68246 5.84399 5.43938 5.19587 6.2822C5.14847 6.34094 4.52135 6.49008 4.88778 6.73499C4.71811 6.76719 4.6092 6.78142 4.46243 6.80993C4.41663 7.06863 4.37411 7.32746 4.3402 7.58357C4.2506 7.66593 4.16119 7.75108 4.07295 7.83552C3.99398 7.79846 3.9315 7.73401 3.84092 7.71504C3.48153 8.15678 2.93318 9.18772 2.7076 9.57043C2.12541 10.5064 1.43679 11.4613 1.36466 12.3626C1.19462 12.7491 1.17811 12.2959 0.989204 12.8981C1.04648 12.993 1.1024 13.082 1.16251 13.1791C0.645778 13.5505 0.828607 13.7271 0.729697 14.423C0.668017 14.8929 0.511935 15.1784 0.447466 15.6245C0.431633 15.7378 0.54416 15.7413 0.5272 15.8173C0.467296 16.0712 0.214809 16.7872 0.194118 16.9747C0.0997434 17.6872 0.0596759 18.3626 0.060617 19.0283C0.0621721 19.83 0.077795 20.6116 0.101164 21.4395C0.105304 21.5951 -0.0045011 21.3933 0.000156045 21.5544C0.00746679 21.8135 0.176195 21.6611 0.184473 21.8112C0.206614 22.2299 0.028693 22.2331 0.0193812 22.8172C0.0116645 23.3036 0.0144492 23.8084 0.0231096 24.3237C0.0417382 26.0847 0.489726 27.9273 1.16592 29.5108C1.19365 29.5772 1.09585 29.6136 1.12602 29.6869C1.32493 30.1648 1.68416 30.5655 1.91051 30.9671C2.28896 31.6317 2.49372 32.1962 2.96924 32.8C3.90776 33.9692 4.95325 34.8303 6.23031 35.6703C7.28379 36.3474 8.26548 36.847 9.57824 37.2676C10.8892 37.6798 12.2657 37.9072 13.6519 37.931C14.6288 37.9508 15.608 37.9754 16.5884 37.9995C20.3468 38.1268 24.166 35.9854 25.9307 32.6477C26.0078 32.5038 25.8943 32.5161 25.9221 32.4751C26.1824 32.0845 26.3083 32.0937 26.1474 31.832C26.4414 31.3187 26.702 31.2138 26.9177 30.5126C27.0218 30.1365 26.6583 30.3349 26.9696 29.7464C27.2152 29.2026 27.3343 29.8743 27.3668 28.0962C27.3653 28.0482 27.201 27.8096 27.2558 27.452C27.2767 27.3095 27.3078 27.2873 27.342 27.2603C27.3962 27.2334 27.4477 27.1964 27.4888 26.8589C27.6317 25.5701 28.0706 23.8985 29.1488 22.7705C29.2052 22.6878 29.9322 22.1167 30.1081 22.0563C30.435 21.9153 30.4557 22.0648 30.833 21.8555C31.125 21.7018 31.294 21.4302 31.6715 21.297C31.7164 21.2827 31.8465 21.3951 32.1106 21.2754ZM41.1615 2.58078C41.2734 2.73771 41.4754 3.31531 42.1522 3.13953C42.2163 3.12297 41.87 2.72576 42.2438 2.66256C41.878 2.62065 41.5218 2.60707 41.1615 2.58017C41.1615 2.58038 41.1615 2.58058 41.1615 2.58078ZM34.1237 17.2179C33.5507 17.255 32.9791 17.3408 32.4236 17.4747C32.8239 17.4706 33.2203 17.4912 33.607 17.5357C33.7756 17.4253 33.945 17.3193 34.1237 17.2179ZM4.83078 11.1861C4.83055 11.1865 4.83033 11.1869 4.83011 11.1873C5.1401 10.7837 5.4676 10.3974 5.80994 10.0303C5.73518 10.0423 5.65997 10.055 5.58509 10.0681C5.29264 10.3484 5.00837 10.643 4.73486 10.9485C4.76632 11.0281 4.79823 11.1074 4.83078 11.1861ZM2.7829 14.7134C2.76171 15.0524 2.8899 14.9996 2.95123 15.2C2.95103 15.1999 2.95083 15.1999 2.95064 15.1999C2.96638 15.2525 2.94083 15.4731 2.92733 15.5576C2.86669 15.5123 2.80906 15.4578 2.74989 15.4092C2.41182 16.148 2.78375 17.676 3.33297 15.8605C3.24226 15.8706 3.1522 15.8801 3.06144 15.8913C3.26135 14.9743 3.40603 13.8948 2.7829 14.7134ZM49.1846 2.83101C50.0363 3.11562 50.3094 3.17562 51.3427 2.98054C51.1967 2.89988 51.0508 2.81922 50.9048 2.73855C50.7342 2.82082 50.5648 2.90254 50.3942 2.98481C50.3937 2.98481 50.3932 2.98481 50.3927 2.98481C50.3586 2.8984 50.3244 2.81184 50.2916 2.72543C49.9231 2.76061 49.5531 2.79583 49.1846 2.83101ZM17.9131 35.4436C18.0359 34.8424 18.0247 35.1984 17.4025 35.1414C17.19 35.1169 17.3832 34.999 17.2536 34.994C16.7599 34.9679 16.5923 35.1294 16.5884 35.3092C16.5884 35.3108 16.5884 35.3124 16.5884 35.3141C16.589 35.3843 16.6173 35.4548 16.6644 35.5103C17.0811 35.5202 17.505 35.4967 17.9117 35.4438C17.9122 35.4437 17.9126 35.4437 17.9131 35.4436ZM28.5338 19.9709C28.5342 19.9706 28.5346 19.9703 28.535 19.9699C28.4675 19.8463 28.175 20.0311 28.3969 19.6878C28.1638 19.8695 27.9395 20.0624 27.723 20.2657C27.7955 20.2156 27.8694 20.1649 27.9429 20.117C27.9171 20.2035 27.8931 20.2904 27.8703 20.3766C27.6867 20.3309 27.6757 20.4645 27.5015 20.7197C27.4376 20.5408 27.3773 20.3597 27.3215 20.176C27.0904 20.4737 26.8773 20.7836 26.6846 21.1011C26.715 21.1316 26.7455 21.1623 26.776 21.1928C26.6473 21.2645 26.5196 21.3385 26.3926 21.4176C26.4112 21.4785 26.4307 21.5377 26.4503 21.5979C26.3219 21.7089 26.1954 21.8245 26.0713 21.9434C26.1498 22.0538 26.3857 21.7741 26.0184 22.3037C26.2294 22.1999 26.4409 22.1063 26.6542 22.021C27.1727 21.25 27.8083 20.5563 28.5338 19.9709ZM11.9549 35.2445C12.8634 35.3909 12.6118 35.2556 12.4366 34.9582C12.2802 35.0572 12.1189 35.1526 11.9549 35.2445ZM20.5663 2.43217C20.8502 2.62415 21.1353 2.81421 21.4261 2.99946C22.0048 3.10658 22.5838 2.75666 22.1484 2.61954C21.6242 2.455 21.0768 2.63915 20.5663 2.43217ZM33.748 2.51761C33.0399 2.60664 33.7061 2.83475 33.8658 2.96772C34.0617 2.75401 34.3349 2.77286 34.7736 2.74801C34.3616 2.73415 33.8651 2.5025 33.748 2.517C33.748 2.51721 33.748 2.51741 33.748 2.51761ZM10.0719 5.25834C9.84057 5.4008 9.58528 5.51051 9.42499 5.70552C9.59065 5.81077 9.89144 5.4008 9.76328 5.81999C9.90639 5.72597 10.0509 5.63416 10.1958 5.54606C10.0436 5.51068 10.1194 5.3606 10.0716 5.25924C10.0717 5.25894 10.0718 5.25864 10.0719 5.25834ZM4.78103 30.5448C4.31144 30.2452 4.32939 30.0992 4.20571 29.5793C4.01199 29.5984 4.06502 30.2963 4.24443 30.6691C4.42423 30.6302 4.60305 30.5885 4.78103 30.5448ZM51.2136 17.5656C51.3473 17.7911 52.3338 17.8206 52.824 17.7539C52.7656 17.7204 52.7071 17.6865 52.6487 17.6526C52.171 17.6236 51.6913 17.5946 51.2136 17.5656ZM34.9824 2.73275C34.9089 2.73936 34.8393 2.74429 34.7736 2.74801C34.8467 2.75047 34.9172 2.74662 34.9824 2.73275ZM64.6335 1.7538C64.4002 1.54115 65.0937 1.4697 64.2516 1.553C64.2516 1.5528 64.2516 1.55259 64.2516 1.55239C63.6947 1.60724 63.5718 1.62189 63.0558 1.63845C63.2415 1.91162 64.2883 2.00927 62.8456 2.06567C62.8266 2.06592 62.8644 1.90337 62.6339 1.9256C62.5628 1.93251 62.335 2.06592 61.9887 2.10473C61.8768 2.11715 61.0357 2.15829 62.1822 2.16088C62.1481 2.35131 62.2097 2.54405 62.2069 2.72878C62.6545 2.78247 62.9984 2.40959 63.4719 2.41874C64.1748 2.43323 64.5325 2.81029 64.6677 2.3156C64.0766 2.19406 63.0616 2.19114 62.9292 2.48862C62.3574 2.49224 62.1932 2.24851 62.6543 2.12792C64.6294 2.28109 63.1965 1.76613 64.9259 1.96069C64.9464 2.0295 65.0175 2.10354 65.0066 2.16821C65.5345 1.92609 64.7167 1.82986 64.6335 1.7538ZM60.5034 2.27989C60.8446 2.4253 61.1848 2.57187 61.5246 2.7178C61.5246 2.48081 61.3372 2.26814 60.7994 2.13464C60.7012 2.18324 60.6016 2.23181 60.5034 2.27989ZM72.8353 16.6261C72.723 16.5476 72.5556 16.5188 72.4162 16.4628C72.4447 16.6662 70.3837 17.6864 71.4997 17.3207C71.6795 17.2769 72.4681 16.5868 72.8353 16.6261ZM7.14765 33.2304C6.87791 33.1401 6.6097 33.0388 6.34335 32.9257C6.63159 33.2429 6.93924 33.547 7.26602 33.8342C7.21992 33.6319 7.18115 33.4309 7.14765 33.2304ZM25.2769 2.20604C25.1546 2.21088 25.5606 2.38808 25.079 2.36015C25.438 2.47348 25.7742 2.56939 26.125 2.67599C26.2301 2.59216 26.3363 2.50867 26.4414 2.42484C26.5233 2.47866 26.6068 2.53215 26.6887 2.58597C26.6396 2.46385 26.5958 2.34458 26.544 2.22039C25.9529 2.48222 25.8174 2.18534 25.2769 2.20604ZM8.35917 5.34602C8.43951 5.61775 9.2069 5.23076 8.57256 5.77011C8.80471 5.8107 9.05493 5.72868 9.45417 5.46641C9.47869 5.36777 9.50443 5.2695 9.5311 5.17067C9.64056 5.31239 9.77963 5.29608 10.0719 5.25834C10.072 5.25805 10.072 5.25775 10.0721 5.25745C10.6865 4.88331 10.6228 4.86538 10.6272 4.52094C10.0439 5.05594 9.89144 4.84453 9.35421 5.01249C8.98538 5.1305 8.62838 5.46121 8.35917 5.34602ZM74.6266 14.9029C74.1159 15.1817 74.2813 14.6886 73.8339 15.5281C73.9163 15.5251 73.999 15.5202 74.0822 15.5143C74.2742 15.3208 74.456 15.1166 74.6266 14.9029ZM6.95571 7.85503C6.6922 7.53206 6.83441 6.92524 7.36806 7.34054C7.11662 7.78689 7.01227 7.35232 6.95571 7.85503ZM33.5065 1.87434C32.517 1.89351 32.7041 2.3572 33.1108 2.58902C33.1736 2.50467 33.2363 2.42018 33.2977 2.33635C33.4711 2.37464 33.6445 2.41301 33.8178 2.45078C33.7141 2.25881 33.6102 2.06631 33.5065 1.87434ZM2.10576 23.666C2.39917 22.9098 2.26894 24.4823 2.45212 23.9541C2.59855 23.5323 2.30291 22.9765 2.11767 23.1867C2.11249 23.3327 2.10887 23.4953 2.10576 23.6646C2.10576 23.665 2.10576 23.6655 2.10576 23.666ZM2.18968 19.2901C2.50316 19.4142 2.41179 19.2352 2.35539 19.8327C2.33934 20.0033 2.45708 21.3591 2.19731 20.7899C2.19731 20.3055 2.19279 19.7936 2.18968 19.2901ZM44.9446 2.33299C44.9537 2.19648 43.9097 1.89672 43.7757 1.97168C43.7757 1.97148 43.7757 1.97128 43.7757 1.97107C43.414 2.17546 44.5153 2.20451 44.0376 2.48496C45.0954 2.23817 45.4118 2.83511 45.3381 2.04858C44.715 2.01408 45.01 2.17621 44.9446 2.33299ZM38.2603 18.2083C38.2598 18.2083 38.2593 18.2083 38.2588 18.2083C38.3289 18.2018 38.9066 18.0015 38.8364 17.9321C38.1417 17.9916 38.2655 18.1235 37.6187 17.9068C37.5833 17.9766 37.5529 18.0443 37.5147 18.1146C37.7713 18.156 37.9136 18.2398 38.2603 18.2083ZM70.6407 17.9805C70.8956 17.9458 71.2782 17.6525 71.5374 17.5464C70.5254 17.3774 69.6511 18.0804 70.6407 17.9805ZM24.8436 28.7505C24.8433 28.7511 24.8429 28.7517 24.8426 28.7524C24.8429 28.7522 24.8433 28.752 24.8436 28.7519C24.8436 28.7514 24.8436 28.7509 24.8436 28.7505ZM71.761 3.19191C71.8052 3.17243 71.8353 3.15168 71.8536 3.12933C71.8548 3.12696 71.8559 3.12459 71.8571 3.12222C71.8265 3.14556 71.7948 3.1689 71.761 3.19191ZM47.1144 2.37419C47.5492 2.1838 46.1005 1.88112 45.632 1.95337C45.6647 2.04027 45.6699 2.11905 45.7462 2.21886C46.1243 1.99383 47.0421 2.40627 47.1144 2.37419ZM14.2457 2.97415C15.3346 2.66626 13.699 2.33685 13.8173 2.94066C13.8239 2.94977 14.218 2.98009 14.2457 2.97415ZM38.0832 2.29546C37.7914 2.06787 38.3778 2.00743 37.4402 2.04675C37.3856 2.1057 37.3311 2.16479 37.2765 2.22374C37.5453 2.24754 37.8144 2.27166 38.0832 2.29546ZM21.5861 1.31742C23.0275 1.44419 24.406 1.66784 23.4671 2.29546C23.358 2.2753 23.2474 2.2558 23.1383 2.23565C23.122 1.92945 22.7194 2.09659 22.1302 2.10656C22.0462 1.985 21.7194 1.95689 21.6581 1.85358C21.5395 1.6539 21.915 1.5135 21.5861 1.31742ZM21.1068 35.0231C21.0601 34.9898 21.0141 34.9558 20.9683 34.9224C20.7413 34.9844 20.514 35.0367 20.2872 35.079C20.3626 35.1542 20.4392 35.2287 20.5168 35.3023C20.7166 35.2167 20.9122 35.1244 21.1057 35.0241C21.1061 35.0237 21.1065 35.0234 21.1068 35.0231ZM59.0988 1.63387C59.2297 2.20913 58.7722 2.10318 57.8441 1.81239C58.2617 1.75288 58.6811 1.69337 59.0988 1.63387ZM2.64066 12.7254C2.78199 12.813 2.9234 12.8992 3.06502 12.9866C2.73421 13.3866 2.58919 13.2456 2.46909 12.9418C2.52598 12.8684 2.58287 12.7974 2.64066 12.7254ZM1.39993 19.8291C1.36583 19.6246 1.49779 19.729 1.49514 19.7076C1.45282 19.3919 1.41379 19.2417 1.41237 19.0283C1.41161 18.8877 1.42694 18.7203 1.47341 18.4687C1.51056 18.3903 1.54995 18.3139 1.58914 18.2368C1.84773 18.4807 1.784 18.6576 1.84319 19.0283C1.85971 19.1292 1.88506 19.2442 1.92847 19.3781C1.811 19.2662 1.69338 19.1547 1.5754 19.0428C1.60023 19.388 1.62472 19.7318 1.64955 20.0771C1.61333 20.118 1.57744 20.1591 1.54122 20.2C1.49466 20.0772 1.44234 19.9505 1.39993 19.8291ZM23.0775 33.2516C23.2953 32.9961 23.4985 32.7273 23.685 32.4499C23.7602 32.4899 23.8359 32.5303 23.9115 32.5697C23.645 32.8161 23.3655 33.0444 23.0775 33.2516ZM65.993 1.896C66.0196 1.92592 66.0455 1.95602 66.0686 1.98663C66.0664 1.94933 66.0373 1.9202 65.993 1.896ZM37.3743 18.6709C36.9936 18.7299 36.4449 18.6911 36.0272 18.7035C36.0601 18.492 37.1216 18.5504 37.4944 18.4222C37.5543 18.4601 37.5353 18.6461 37.3743 18.6709ZM32.1375 1.89295C32.042 1.7874 31.9466 1.68235 31.8524 1.5768C31.6217 1.58819 31.3905 1.60021 31.1585 1.61159C31.1517 1.52517 31.1449 1.43801 31.1381 1.35159C32.1603 1.46386 31.9246 1.21468 32.4307 0.968922C32.3324 1.27675 32.2358 1.5846 32.1375 1.89295ZM26.84 23.553C26.4858 24.1479 26.3093 24.3648 26.2175 23.8862C26.372 23.6716 26.5355 23.4656 26.7059 23.2705C26.7489 23.3663 26.7935 23.4609 26.84 23.553ZM76.6293 8.30272C76.6624 8.93908 77.0082 8.90634 76.873 9.55378C76.7846 9.22491 76.6761 8.90276 76.5512 8.59438C76.5791 8.49957 76.605 8.40026 76.6293 8.30272ZM49.1344 0.745239C49.3951 0.62421 49.8824 1.19953 50.6153 0.774841C50.79 0.901592 50.8994 1.02266 51.0496 1.14683C51.1369 1.01177 51.2362 0.874992 51.3194 0.740967C51.3199 0.740967 51.3204 0.740967 51.3209 0.740967C51.9856 0.786507 51.5546 0.955891 51.5697 1.09923C51.5767 1.15865 52.0701 1.05932 51.9159 1.18864C51.6497 1.41063 50.6551 1.28298 50.6524 1.55361C51.0018 1.46516 51.6842 1.53907 51.4824 1.71962C51.2613 1.91779 50.6182 1.58568 50.2087 1.75013C50.7955 1.31759 49.5835 1.4512 49.4457 1.7834C48.7345 1.52829 49.3882 1.42423 50.1171 1.43612C49.6721 1.18154 50.3271 1.31908 50.4349 1.10747C49.9761 0.979725 48.4014 1.08621 49.1344 0.745239ZM15.4594 1.55572C15.9613 1.46809 16.7412 1.21217 17.1147 1.39364C17.3273 1.4962 16.5528 1.67894 17.1141 1.81465C16.6283 1.84845 16.5084 1.7935 16.5679 1.61021C16.4538 1.60477 16.3389 1.60106 16.2242 1.59842C16.1776 1.63966 16.13 1.68085 16.0842 1.72244C16.0144 1.66206 15.9438 1.6027 15.8743 1.54289C15.7579 1.57738 15.6407 1.6133 15.5258 1.65056C15.5051 1.61828 15.4754 1.59253 15.4594 1.55572ZM65.3838 18.6626C65.5202 18.6647 65.6554 18.6668 65.7918 18.6694C65.7768 18.7113 65.7589 18.755 65.7416 18.7981C65.7293 18.8322 65.7169 18.8663 65.7045 18.9004C65.7836 18.7786 66.4337 18.5763 66.7076 18.7063C66.8453 18.7715 66.532 19.0031 67.1157 19.0435C66.6926 19.0316 66.3008 19 65.89 18.9803C65.9269 19.0491 65.9623 19.1187 65.9991 19.1875C65.9989 19.1876 65.9986 19.1877 65.9984 19.1878C65.8619 19.2033 65.7239 19.2196 65.5874 19.2351C65.5192 19.0442 65.452 18.8536 65.3838 18.6626ZM2.49427 12.2216C2.80642 11.8257 2.93948 11.715 3.04651 12.0078C3.0464 12.0083 3.04629 12.0088 3.04619 12.0093C2.88628 12.1317 2.72769 12.258 2.57069 12.3876C2.54485 12.3329 2.51907 12.278 2.49427 12.2216ZM70.1461 1.35376C70.9971 2.36512 68.8139 1.45214 69.2606 1.25904C69.2856 1.24094 70.031 1.41491 70.1461 1.35376ZM33.6883 1.61922C33.4167 1.61249 33.1445 1.60642 32.8715 1.59969C32.9343 1.49775 32.9986 1.39616 33.0613 1.29422C33.2702 1.40237 33.4795 1.51107 33.6883 1.61922ZM26.3835 26.474C26.5108 26.6509 26.5748 26.9689 26.5557 27.2603C26.5443 27.4759 26.4903 27.6765 26.3921 27.8163C26.3768 27.6298 26.3561 27.4453 26.3304 27.2603C26.3272 27.241 26.324 27.2218 26.3208 27.2025C26.319 27.2217 26.3172 27.241 26.3155 27.2603C26.2884 27.629 26.2391 27.9892 26.1728 28.352C25.8552 28.3367 26.097 27.9214 26.0152 27.2603C26.0146 27.256 26.014 27.2518 26.0133 27.2475C25.9942 27.1648 25.626 26.5475 25.9488 26.3724C26.0098 26.3411 26.0034 26.9503 26.2133 26.5446C26.2115 26.7271 26.1999 26.8845 26.2032 27.0564C26.2784 27.0707 26.3538 27.0846 26.429 27.0995C26.4058 26.8925 26.3904 26.6836 26.3835 26.474ZM18.4226 1.24659C18.6571 1.23404 18.8243 1.24348 18.9473 1.268C19.1817 1.31704 19.25 1.42307 19.3436 1.57223C19.2115 1.56156 19.0794 1.55096 18.9473 1.54037C18.76 1.52579 18.5729 1.51418 18.3861 1.50536C18.3987 1.41925 18.4095 1.33319 18.4226 1.24659ZM24.7927 32.6753C24.5928 33.0368 24.5408 32.7863 24.419 32.8991C23.9544 33.3137 23.7823 33.7125 23.2961 34.082C23.3492 34.0792 23.3985 34.0765 23.4501 34.0731C23.4497 34.0734 23.4493 34.0738 23.449 34.0742C22.464 35.1324 22.0804 35.2118 22.2396 35.0282C22.385 34.8308 22.9614 34.2858 23.5533 33.6869C23.5303 33.6119 23.5054 33.5384 23.4813 33.4647C24.0668 32.9985 24.5401 32.4708 24.7927 32.6753ZM61.2104 1.14683C61.2404 1.1044 60.9852 0.834755 61.4643 0.960987C61.8436 1.35469 61.2215 1.15928 61.0657 1.3107C61.1953 1.34848 61.328 1.38523 61.4563 1.423C60.681 1.53426 60.5678 1.44064 60.8504 1.15294C60.8705 1.1336 61.1803 1.18913 61.2104 1.14683ZM66.3057 0.952751C66.4122 1.53283 65.4338 1.27198 65.4693 1.0919C65.6043 1.08472 65.7093 1.18294 65.8526 1.13951C65.9973 1.09605 66.0342 0.960552 66.3057 0.952751ZM38.273 1.09465C38.3017 1.09206 38.5897 0.848263 38.5611 1.03911C38.2048 1.49086 37.487 1.20008 37.6126 1.04277C37.85 1.05055 38.0083 1.11834 38.273 1.09404C38.273 1.09424 38.273 1.09444 38.273 1.09465ZM27.8535 22.8443C27.8537 22.8623 27.6023 23.4431 27.4896 23.4723C27.3674 23.481 27.2547 23.4585 27.1365 23.4545C27.3846 23.1777 27.731 22.54 27.8528 22.8454C27.853 22.845 27.8532 22.8447 27.8535 22.8443Z" fill="black"/>
<defs>
<filter id="filter0_d_96_164" x="6.19223" y="5.625" width="206.605" height="107.488" filterUnits="userSpaceOnUse" color-interpolation-filters="sRGB">
<feFlood flood-opacity="0" result="BackgroundImageFix"/>
<feColorMatrix in="SourceAlpha" type="matrix" values="0 0 0 0 0 0 0 0 0 0 0 0 0 0 0 0 0 0 127 0" result="hardAlpha"/>
<feOffset dy="5"/>
<feGaussianBlur stdDeviation="2"/>
<feComposite in2="hardAlpha" operator="out"/>
<feColorMatrix type="matrix" values="0 0 0 0 0 0 0 0 0 0 0 0 0 0 0 0 0 0 0.25 0"/>
<feBlend mode="normal" in2="BackgroundImageFix" result="effect1_dropShadow_96_164"/>
<feBlend mode="normal" in="SourceGraphic" in2="effect1_dropShadow_96_164" result="shape"/>
</filter>
</defs>
</svg>
