<svg width="275" height="108" viewBox="0 0 275 108" fill="none" xmlns="http://www.w3.org/2000/svg">
<g filter="url(#filter0_d_94_141)">
<path d="M250.185 27.0586C250.185 13.2515 238.992 2.05859 225.185 2.05859H30.9233C17.1162 2.05859 5.92331 13.2515 5.92331 27.0586V70.9606C5.92331 84.7678 17.1162 95.9606 30.9233 95.9606H225.185C238.992 95.9606 250.185 84.7678 250.185 70.9606V27.0586Z" fill="white"/>
<path d="M248.168 40.3846C247.943 38.9536 248.091 43.7309 247.754 40.5586C247.731 41.2201 247.708 41.8857 247.685 42.5472C247.81 42.715 247.934 42.8868 248.059 43.0546C248.095 42.1663 248.132 41.2775 248.169 40.3846C248.169 40.3846 248.169 40.3846 248.168 40.3846ZM249.73 39.1716C249.374 39.9858 249.28 42.5724 248.951 39.7781C249.073 39.556 249.195 39.3285 249.318 39.1064C249.223 38.1362 249.128 37.1601 249.034 36.19C249.081 35.8411 249.127 35.4926 249.173 35.1437C248.961 34.6994 248.748 34.259 248.536 33.8148C248.567 34.2093 248.598 34.6091 248.629 35.0036C248.457 36.5631 248.41 37.9508 248.378 40.0681C248.328 39.8822 248.278 39.6958 248.228 39.5099C248.313 40.5844 248.399 41.6584 248.484 42.7284C248.568 41.7991 248.661 40.7602 248.739 39.8989C249.072 41.2771 248.887 43.7079 248.817 44.9731C248.723 46.6961 248.881 46.3067 248.815 47.5851C248.804 47.7891 248.68 47.8123 248.678 48.2158C248.668 50.2517 248.734 54.2058 249.023 51.8933C248.986 48.5425 249.218 45.6848 249.134 42.3974C249.468 43.267 249.582 41.5351 249.73 39.1716ZM233.899 92.771C234.852 92.5833 236.596 91.6612 237.639 90.8508C237.641 90.85 237.642 90.8492 237.643 90.8484C237.877 90.6723 238.302 90.1392 237.52 90.652C236.237 91.464 235.706 92.0849 234.878 92.2176C234.569 92.4062 234.235 92.5912 233.899 92.771ZM230.707 93.7673C229.804 94.0552 230.28 94.2344 231.424 93.8625C231.424 93.8627 231.424 93.8629 231.424 93.8631C231.896 93.6941 230.905 93.7964 232.669 93.4602C232.965 93.1932 233.25 92.9366 233.526 92.6649C233.123 92.8167 232.754 92.9429 232.324 93.0797C232.695 93.2348 231.606 93.4724 230.707 93.7673ZM248.879 53.5944C248.642 53.7527 248.644 53.0898 248.48 51.961C248.488 53.0264 248.496 54.092 248.504 55.1529C248.629 54.6317 248.754 54.1156 248.879 53.5944ZM248.842 28.5642C248.842 28.5626 248.842 28.561 248.842 28.5594C248.879 28.2102 248.917 27.8601 248.954 27.5155C248.892 27.3626 248.83 27.2109 248.768 27.0586C248.746 27.006 248.723 26.9535 248.7 26.901C248.772 25.7391 248.758 24.559 248.658 23.3909C248.441 23.5659 248.736 25.6408 248.542 26.7863C248.547 26.8795 248.552 26.9703 248.556 27.0586C248.637 28.6759 248.782 29.4628 248.989 29.5742C248.94 29.2388 248.891 28.9041 248.842 28.5642ZM12.7563 87.6724C12.533 87.3243 12.3229 86.976 12.119 86.62C12.488 87.0116 12.8602 87.3923 13.2593 87.7571C14.0295 88.9814 14.3109 88.9015 15.7242 90.0878C20.3028 93.3614 18.9436 93.106 23.959 94.2113C20.086 92.9101 21.6824 93.096 19.6326 91.8162C19.0822 91.7535 21.0487 93.2608 19.5326 92.5843C17.0964 91.053 15.009 89.2267 13.031 86.8135C13.1166 86.8593 13.2021 86.904 13.2879 86.9486C13.6031 87.3275 13.9273 87.6944 14.266 88.0541C13.9475 87.6178 13.653 87.1824 13.363 86.7234C13.6623 87.3676 12.6015 85.9943 12.5786 86.3152C12.5629 86.4629 12.9602 87.1468 13.207 87.551C12.3515 86.718 11.5386 85.7915 10.8061 84.8226C11.095 85.3876 11.4071 85.9436 11.7396 86.4861C12.0643 86.8909 12.3998 87.2822 12.7492 87.666C12.7516 87.6682 12.754 87.6703 12.7563 87.6724ZM193.584 3.46093C192.024 3.21772 189.19 3.17748 187.698 3.44811C189.661 3.45225 191.621 3.45679 193.584 3.46093ZM249.169 29.6926C249.127 29.516 249.086 29.3449 249.045 29.1683C248.968 29.948 248.892 30.7323 248.816 31.5121C248.935 31.6616 249.055 31.8146 249.174 31.9687C249.172 31.2117 249.17 30.4496 249.169 29.6926ZM247.639 79.0231C247.826 78.5134 247.841 78.4651 248.022 77.8134C248.022 77.8142 248.022 77.8149 248.022 77.8157C248.121 77.5633 248.561 75.3603 248.403 75.5863C248.187 76.674 247.877 77.8136 247.496 78.8822C247.542 78.9347 247.596 78.962 247.639 79.0231ZM248.982 65.8087C248.982 65.8071 248.981 65.8054 248.981 65.8038C248.967 65.378 248.939 64.9747 248.934 64.5353C248.789 66.1173 249.049 66.3673 248.975 67.8045C248.909 69.0848 248.788 69.9293 249.014 70.9606C249.042 71.0819 249.074 71.206 249.111 71.3344C249.128 71.2125 249.145 71.0875 249.163 70.9606C249.209 70.6235 249.261 70.2765 249.305 69.9405C249.163 67.9003 249.297 67.3509 249.437 65.7144C249.285 65.7462 249.134 65.7769 248.982 65.8087ZM36.1043 94.9251C36.4942 95.101 36.929 94.9284 36.9742 94.9263C36.9734 94.9261 36.9726 94.9259 36.9718 94.9257C40.4255 95.0886 36.5223 94.8283 39.7819 94.8009C39.2969 94.7569 38.8199 94.7105 38.3394 94.666C37.596 94.7509 36.8296 94.847 36.1043 94.9251ZM148.323 94.9086C148.355 94.8574 148.393 94.806 148.425 94.7548C146.466 94.7667 145.967 94.565 144.339 94.7487C145.667 94.8025 146.995 94.8559 148.323 94.9092C148.323 94.909 148.323 94.9088 148.323 94.9086ZM243.08 87.2872C244.559 85.7906 245.519 84.5125 246.376 82.6757C246.376 82.6743 246.377 82.6728 246.377 82.6713C246.426 82.5658 246.057 83.003 246.108 82.8574C246.327 82.505 246.551 82.1398 246.757 81.7731C246.705 81.6838 246.653 81.5972 246.601 81.509C246.106 82.5671 245.531 83.5924 244.881 84.5733C244.939 84.4019 244.997 84.227 245.05 84.0555C244.482 84.8693 243.865 85.6433 243.202 86.378C243.533 86.2081 243.861 86.0296 244.186 85.8447C243.836 86.3379 243.466 86.8194 243.08 87.2872ZM115.713 95.4692C116.058 95.4133 115.42 95.3196 115.955 95.2715C116.49 95.2239 117.477 95.3282 117.245 95.1704C116.525 95.1492 115.768 95.1249 115.034 95.1027C117.397 94.8182 119.753 95.0756 119.79 94.7243C117.523 94.8154 115.658 94.7731 113.464 94.6758C113.555 94.9547 115.75 95.1958 114.368 95.4576C114.812 95.4612 115.278 95.4665 115.709 95.4686C115.71 95.4688 115.712 95.469 115.713 95.4692ZM236.067 1.81703C234.726 1.2069 231.499 0.0915476 229.618 0.00457263C229.153 -0.0429845 227.595 0.304612 227.604 0.382641C227.629 0.610586 229.41 0.833791 227.484 0.785304C228.124 0.842255 228.748 0.927785 229.378 1.03262C229.24 1.16721 229.104 1.30261 228.976 1.43959C228.223 1.30559 227.461 1.2045 226.695 1.1367C226.654 1.18568 226.614 1.23487 226.574 1.28403C229.306 1.50161 227.682 1.56423 229.048 1.92194C227.759 1.81937 226.46 1.81582 225.185 1.90919C225.923 1.89589 226.787 1.92942 227.435 1.97506C227.498 2.23451 225.972 2.07341 225.707 2.12969C224.966 2.2664 226.48 2.26294 228.221 2.52765C229.967 2.76964 231.899 3.36721 232.128 3.64323C230.985 3.3483 229.772 3.12667 228.578 3.00295C228.91 3.09679 229.248 3.19917 229.575 3.30708C232.283 3.5306 235.268 4.47847 238.089 6.02869C238.332 6.19029 238.571 6.35656 238.803 6.52324C238.667 6.57496 238.535 6.62981 238.401 6.68354C238.754 6.93022 239.107 7.18976 239.447 7.45476C238.622 6.41321 240.117 7.35376 241.89 8.64268C241.129 7.75185 239.92 6.95909 240.151 6.81509C243.284 9.31382 246.528 12.9098 247.93 16.5904C248.264 17.5015 248.022 17.6017 248.753 19.716C248.765 19.6324 248.823 19.6003 248.854 19.5386C249.607 22.4043 249.784 24.4751 249.847 27.0586C249.859 27.89 249.883 28.7746 249.921 29.7578C249.803 29.5222 249.684 29.2904 249.566 29.0547C249.611 28.3891 249.657 27.7226 249.702 27.0586C249.716 26.8613 249.728 26.6645 249.737 26.4682C249.505 25.8984 249.531 26.7446 249.302 24.2445C249.028 22.2081 249.274 23.4065 249.247 22.8423C249.193 22.0772 248.898 21.4558 248.771 20.6443C248.659 20.0165 249.035 20.6259 248.479 19.0527C248.5 19.7552 248.485 20.4622 248.441 21.1522C248.583 21.5231 248.717 21.8979 248.843 22.2792C248.818 21.8732 248.784 21.4725 248.739 21.0672C248.99 22.4763 249.114 23.8186 249.119 25.2809C249.377 24.7964 249.391 26.2176 249.34 27.0586C249.339 27.085 249.338 27.1109 249.337 27.1362C249.281 28.4641 249.489 27.3264 249.454 28.1969C249.419 29.0675 249.187 30.0064 249.236 31.5797C249.371 30.7365 249.492 31.8836 249.616 31.6619C249.74 31.4397 249.767 29.7755 249.903 31.3743C249.8 34.4485 249.327 31.1126 249.25 33.1889C249.158 35.6826 249.929 36.276 250.095 35.5327C250.225 34.9478 250.199 32.9351 250.329 32.3457C250.563 35.9503 250.101 35.9816 250.01 36.5983C249.68 38.8381 250.56 37.3336 250.242 39.9859C250.406 39.9361 250.554 39.8957 250.712 39.8458C250.682 40.3034 250.642 40.6073 250.618 41.1602C250.298 39.5297 250.312 40.8643 250.311 41.5493C250.31 42.6284 250.154 40.9616 250.113 41.2472C250.005 42.0181 250.054 43.2371 249.913 42.4892C249.979 42.8247 250.045 43.1884 250.11 43.533C250.028 44.7938 249.342 47.7569 249.48 44.9369C249.225 45.1999 249.348 46.1121 249.387 46.824C249.425 47.5357 249.263 47.5224 249.293 48.1481C249.413 50.6371 249.691 49.0089 249.909 48.6145C249.759 51.9016 249.659 48.6834 249.559 53.4204C249.381 53.8784 249.192 51.6896 249.09 53.5122C249.398 53.848 249.619 55.19 249.722 57.806C249.651 58.0599 249.579 58.3132 249.509 58.5671C249.793 59.9954 250.089 59.2653 249.736 61.9088C250.386 60.4896 249.97 61.4654 250.235 63.8322C250.288 64.3128 250.423 63.2021 250.491 63.8732C250.522 64.1775 250.42 64.9159 250.499 65.6589C250.537 66.0216 250.788 67.7175 250.669 68.8918C250.354 68.0303 250.087 70.2616 249.826 68.3482C249.844 69.3428 249.845 70.2535 249.847 70.9606C249.821 72.6143 249.806 73.1545 250.106 70.9606C250.126 70.7895 250.146 70.6019 250.168 70.3972C250.188 70.585 250.208 70.7728 250.228 70.9606C250.303 71.6762 250.348 72.3902 250.363 73.113C250.235 73.7338 250.084 74.3595 249.91 74.9696C250.129 75.101 250.313 75.0375 249.674 77.4569C250.01 76.4264 250.281 75.371 250.484 74.2934C250.54 74.2636 250.613 74.1184 250.659 74.1611C250.472 75.5071 249.461 79.1646 249.005 79.9715C248.616 80.8007 249.221 79.1444 249.061 79.3678C247.785 81.2045 248.203 81.174 247.428 82.5307C246.963 83.3105 247.893 81.3549 247.65 81.7763C246.778 83.3388 246.591 84.1994 245.676 85.5225C245.871 84.9617 246.039 84.4022 246.182 83.8498C245.331 85.2622 244.197 86.7256 243.105 87.8C242.677 88.2208 242.9 87.8066 242.827 87.8719C242.476 88.209 240.986 89.4865 240.815 89.6044C239.604 90.5868 239.666 90.751 238.398 91.6048C238.91 91.2932 239.382 90.9813 239.861 90.6414C240.241 90.7037 240.63 90.7537 241.019 90.7983C239.82 91.7824 238.529 92.6584 237.163 93.4115C238.125 92.7922 239.042 92.11 239.902 91.3746C238.343 92.2245 236.713 92.8962 235.053 93.3821C234.292 93.8682 233.501 94.3137 232.676 94.7182C230.29 95.3737 230.653 94.6477 229.612 95.3648C228.89 95.4528 228.171 95.5081 227.449 95.5327C227.558 95.593 227.665 95.6528 227.776 95.7116C226.913 95.7582 226.049 95.7602 225.185 95.7173C225.175 95.7168 225.164 95.7163 225.154 95.7158C225.164 95.713 225.175 95.7102 225.185 95.7074C226.094 95.4624 226.952 95.1574 227.79 94.8285C226.134 94.9326 226.107 95.0979 225.859 95.1674C225.676 95.2109 225.441 95.2285 225.185 95.2304C224.503 95.2357 223.684 95.1638 223.291 95.2565C223.107 95.3006 224.803 95.4387 224.219 95.598C224.104 95.6289 221.833 96.2144 220.384 96.0792C220.411 95.9731 220.523 95.8431 220.582 95.7277C218.633 95.6632 217.639 96.217 217.898 96.3722C216.859 96.2635 215.342 96.2544 215.129 96.0847C214.598 96.0806 214.072 96.0766 213.541 96.0725C214.094 96.4859 211.881 96.4103 211.736 96.0548C212.648 96.046 213.56 96.0367 214.471 96.0279C213.782 95.5923 216.552 95.3293 210.789 95.7329C209.687 95.9595 212.748 95.702 211.85 95.8717C210.29 95.9705 208.826 95.8878 207.343 96.0456C205.499 96.2428 207.768 96.4324 203.47 96.1814C212.951 95.5527 202.17 95.7567 197.717 95.5617C196.493 96.1826 192.732 96.3793 187.554 96.1946C188.094 96.0217 189.723 96.1108 190.661 96.0539C191.6 95.997 190.585 95.8944 191.754 95.8137C192.923 95.733 195.407 95.6233 196.591 95.5012C195.588 95.4034 190.639 95.1722 193.911 95.45C191.468 95.6212 190.321 95.7972 187.293 95.8293C186.386 95.5597 186.453 95.3918 183.502 95.3841C185.248 95.7587 181.894 96.019 182.632 96.406C184.725 96.3159 183.555 95.9398 184.766 95.7597C184.89 95.7417 186.84 95.836 187.293 95.8293C185.325 96.1672 184.645 96.293 185.855 96.695C184.463 96.6598 183.598 96.7103 183.471 96.5183C183.18 96.6016 182.889 96.685 182.603 96.7683C182.15 96.7662 181.742 96.7585 181.262 96.76C181.923 96.4704 180.641 96.6487 179.73 96.5174C178.819 96.386 180.042 96.1574 177.539 96.1543C178.373 96.0865 179.136 96.0283 179.943 95.9642C178.329 95.8897 176.71 95.8147 175.096 95.7402C176.229 95.5632 178.686 95.3004 178.619 95.0676C177.875 95.1555 175.329 95.001 175.05 94.9947C173.971 94.9709 174.559 95.1177 174.477 95.1213C172.782 95.1927 171.385 95.1427 170.742 95.3651C169.468 95.2648 168.507 95.322 167.156 95.3163C166.412 95.3132 166.557 95.1498 166.122 95.1808C163.229 95.3878 165.985 95.5989 160.405 95.197C161.08 95.0832 161.747 94.9667 162.422 94.8519C161.792 94.8089 161.166 94.7657 160.535 94.7228C160.114 94.7435 159.696 94.7643 159.274 94.785C159.283 95.0318 159.294 95.2792 159.303 95.526C158.841 95.5394 158.376 95.5525 157.914 95.5659C158.707 95.5903 159.503 95.6145 160.296 95.6389C160.369 95.6823 160.436 95.7257 160.509 95.7692C159.33 95.8364 158.155 95.9043 156.976 95.9721C156.953 95.8863 156.931 95.7998 156.908 95.7139C154.251 95.8335 154.188 95.9062 151.663 95.6697C149.717 95.6723 148.133 95.3133 147.009 95.1622C146.606 95.2103 146.202 95.259 145.794 95.3072C145.535 95.2357 145.274 95.1646 145.016 95.0932C144.503 95.1926 143.984 95.2919 143.472 95.3908C143.186 95.1653 143.038 95.0949 145.037 95.0157C144.353 94.7353 140.833 94.859 139.4 94.9532C138.313 95.0246 139.519 95.2586 139.383 95.287C138.929 95.3837 137.138 95.3003 136.762 95.3163C135.17 95.3831 134.055 95.3714 132.618 95.4231C132.338 95.4335 131.556 95.5817 131.489 95.5864C130.972 95.6117 129.696 95.6838 129.551 95.6859C122.067 95.7965 130.064 95.1533 123.105 95.2211C123.313 95.1363 123.505 95.052 123.709 94.9672C123.183 94.962 122.652 94.9571 122.126 94.952C121.46 95.0228 122.266 95.1518 120.942 95.0478C121.028 95.1523 121.115 95.2569 121.206 95.3609C120.63 95.3045 120.075 95.2485 119.485 95.1921C118.56 95.5548 115.183 95.6372 115.423 96.063C115.505 96.2079 117.899 96.3566 116.634 96.5113C115.606 96.5418 116.302 96.3687 115.883 96.3597C112.854 96.2965 113.03 96.5391 111.792 96.4744C111.597 96.3704 111.392 96.2645 111.193 96.1595C110.726 96.19 110.258 96.2205 109.786 96.251C109.677 96.1812 109.564 96.1112 109.455 96.0414C109.895 96.0367 110.39 96.032 110.794 96.0273C110.231 95.7568 105.063 95.6352 107.034 95.8659C107.837 95.9596 109.306 95.9198 108.378 96.2394C106.995 96.1934 105.426 96.1463 103.97 96.1003C103.925 96.1691 103.883 96.238 103.837 96.3069C101.876 96.2623 103.66 95.9871 103.656 95.8397C103.207 95.8355 102.754 95.8319 102.305 95.8278C102.115 95.8944 101.934 95.9642 101.735 96.0289C101.717 95.9227 101.466 95.6761 100.128 95.7676C99.2685 95.8272 100.623 96.095 98.9831 96.0579C99.1056 95.8923 99.6979 95.6907 97.8716 95.6373C97.6902 95.8101 97.4395 95.9684 97.2989 96.15C95.0277 95.984 93.9942 96.2508 91.3283 96.0579C89.6371 95.9357 87.3203 95.5022 86.2276 96.1702C84.9905 96.1877 85.3831 96.0214 85.017 95.984C83.2894 95.807 82.0045 96.1238 81.6825 96.1424C79.6294 96.2618 78.7089 96.1522 77.036 96.3017C77.1267 96.178 77.1761 96.0609 77.2487 95.9404C78.7813 96.1256 79.5574 96.1169 81.7067 96.0771C80.9859 96.0522 80.2649 96.0268 79.5441 96.002C79.662 95.9016 79.7787 95.8013 79.8921 95.7014C86.5394 96.0968 84.9887 95.4722 79.4161 95.3355C78.9355 95.5213 78.4375 95.7065 77.9615 95.8928C74.7423 95.6113 73.2274 95.8556 69.5867 95.9141C69.1539 95.9208 67.5773 95.8138 66.8998 95.8085C66.911 95.8078 66.9223 95.8071 66.9336 95.8064C66.5121 95.631 67.083 95.5503 67.1511 95.3935C66.7839 95.3739 66.4164 95.3543 66.0492 95.3346C65.2292 95.4541 65.5175 95.5523 63.9036 95.5238C64.1212 95.4048 64.336 95.2858 64.5536 95.1668C62.7852 95.1626 61.6279 95.2919 59.982 95.2361C60.2586 95.2811 60.5318 95.3262 60.8083 95.3712C57.2262 95.4861 60.077 96.1858 57.37 95.8375C57.1977 95.8986 57.03 95.9602 56.8577 96.0212C57.9729 96.0362 59.0887 96.0508 60.1994 96.0658C60.2221 96.1522 60.2466 96.2382 60.2647 96.3246C59.0722 96.2987 57.8738 96.272 56.6813 96.2461C57.5519 96.3041 58.4276 96.3621 59.2982 96.4201C57.9154 96.4615 56.5322 96.5029 55.1494 96.5443C56.6179 96.2266 54.7141 96.1878 55.0721 95.8732C52.6236 96.1351 50.7003 96.4802 46.9051 96.2593C46.1527 96.2152 46.5614 95.9954 44.426 96.2629C44.9428 95.9132 42.2677 95.749 42.6114 95.4164C43.3547 95.4324 44.1257 95.4425 44.8464 95.4622C44.0258 95.5776 43.8897 95.895 45.1364 95.9892C46.7278 96.1092 49.049 95.8892 48.9541 96.2416C49.5887 96.225 50.1789 96.2152 50.7953 96.2013C50.5415 96.1139 50.293 96.0259 50.0438 95.9385C51.7978 96.0756 52.8999 96.031 53.7431 95.8107C51.6532 95.76 49.5677 95.7098 47.4777 95.6596C47.7856 95.6446 48.0977 95.6295 48.4056 95.6151C46.8231 95.39 48.4555 95.1768 45.5036 95.1286C45.5218 95.2316 45.5363 95.3346 45.5544 95.4381C44.4798 95.1628 41.5374 95.1643 42.4761 94.8476C41.5874 94.9449 41.4062 95.0064 40.9031 94.8357C38.5588 95.0763 37.0533 95.3806 37.8875 95.7438C37.0172 95.6854 36.1462 95.6268 35.2804 95.5684C35.7836 95.469 36.2874 95.3702 36.7906 95.2708C35.2761 95.2771 33.7506 95.2832 32.2407 95.2888C32.0956 95.5827 35.1557 95.378 34.2728 95.6407C34.0961 95.6934 33.2811 95.5805 33.0671 95.6102C30.8092 95.9315 34.3537 95.6994 33.6881 95.9456C31.3233 95.999 31.9507 96.2187 30.9233 96.2242C30.4826 96.2224 29.7399 96.1956 28.3731 95.9596C28.242 96.0317 28.0998 96.1033 27.9756 96.1738C26.3569 95.9656 26.5178 95.7885 25.166 95.4586C24.3303 95.2428 23.1672 95.2543 22.3325 94.7058C22.2001 94.5867 23.7973 94.8396 20.6949 93.5699C18.3466 92.4477 19.1877 93.1713 17.8952 92.5556C16.5661 91.94 14.2729 89.5932 13.3009 89.2165C13.8842 89.6983 14.6255 90.3078 15.3114 90.7828C15.5221 91.0623 15.7336 91.3327 15.9544 91.6025C14.4646 90.3905 12.9294 89.1092 12.2222 88.0078C10.2197 86.3474 9.00449 83.665 9.72382 84.1454C10.1249 84.8712 9.49583 84.2051 10.221 85.1086C10.3583 85.158 10.4989 85.2114 10.6362 85.2577C9.50917 83.6725 8.91508 82.4445 9.1115 83.359C8.95514 83.0971 8.80486 82.8346 8.65826 82.5674C8.79994 82.4318 8.94576 82.3023 9.08881 82.1687C8.94484 81.8424 8.80713 81.5115 8.67821 81.1806C8.47569 80.8395 8.27965 80.4907 8.09138 80.1348C8.03951 80.7334 8.30537 81.6558 7.09778 78.7959C7.19276 78.7551 7.2861 78.7105 7.38116 78.6699C6.5367 76.2523 6.20935 76.2232 5.86623 72.9745C5.72537 75.5299 6.75548 76.7442 6.03802 76.8956C6.2312 77.5053 6.45064 78.1162 6.68898 78.7073C6.61943 78.8314 6.55038 78.9557 6.48111 79.0772C5.75526 76.8776 5.49094 73.5548 5.60002 70.9606C5.63704 69.6676 5.61281 68.5397 5.46082 67.7859C5.51616 67.5139 5.56427 67.2409 5.62376 66.9644C5.35002 64.7607 5.96458 63.8091 5.61064 61.5737C5.5735 61.343 4.99611 61.8256 5.0168 58.9157C5.09184 58.9882 5.21814 59.026 5.31281 59.0849C5.26677 58.4548 5.2186 57.8281 5.17152 57.2026C5.24083 57.0893 5.31012 56.9704 5.37994 56.8571C5.40685 57.9317 5.4342 59.0033 5.46112 60.078C5.48491 59.1851 5.50873 58.2864 5.53252 57.3935C5.64581 58.5585 5.647 59.0839 5.82852 58.3817C5.8394 57.3706 5.85092 56.3581 5.86179 55.3469C5.90829 55.2428 5.95535 55.1394 6.00186 55.0352C6.14053 55.5249 6.27614 56.0195 6.41689 56.5091C6.30356 53.8748 6.29741 51.5846 6.02475 49.5623C5.9787 49.2178 5.79803 50.4364 5.96097 48.0884C5.86528 48.0521 5.7876 47.9891 5.69914 47.9483C5.96719 45.0735 5.88718 44.1291 5.69365 41.132C5.87424 43.0726 5.75679 41.3411 5.85355 40.8468C5.92021 40.5082 5.91037 41.8299 5.98019 41.6805C6.04953 41.5308 6.3295 39.8133 6.36317 41.2818C5.78931 44.882 6.47542 45.8628 6.1996 50.4878C6.27361 49.7759 6.34776 49.0588 6.42177 48.347C6.47191 48.6822 6.51741 48.9824 6.57068 49.3449C6.4584 46.7654 6.53134 48.0199 6.61981 46.96C6.7083 45.899 6.78346 43.9706 6.80779 42.6784C6.81543 42.2713 6.68672 42.7006 6.67474 41.7819C6.66646 41.1563 6.85727 39.4463 6.63232 39.0515C6.48589 38.7931 6.08269 41.5401 6.08365 37.7419C5.94009 37.027 5.98468 38.8481 5.96738 38.8872C5.79662 39.2183 5.66823 36.8832 5.79863 35.8041C5.80988 35.7167 5.94293 36.5689 5.99515 35.6422C6.11986 33.443 5.96725 32.173 5.76079 30.7492C5.98088 30.6091 6.23985 29.0677 6.21802 27.0586C6.21582 26.8583 6.2132 26.6538 6.2101 26.446C6.28223 26.3311 6.35555 26.2229 6.42969 26.1104C6.38474 26.4237 6.34607 26.7398 6.31313 27.0586C6.30946 27.0944 6.3058 27.1301 6.30214 27.1659C6.34561 27.5558 6.37724 27.969 6.42847 28.3499C6.44185 27.8296 6.46906 27.4096 6.50459 27.0586C6.63625 25.871 6.89146 25.5095 7.05859 24.6974C7.959 21.1573 6.78662 23.1811 6.53484 23.8427C6.53297 24.3335 6.55457 24.8063 6.58481 25.2875C6.50449 25.2285 6.42378 25.1681 6.34302 25.1124C7.09166 19.5461 5.83749 24.182 6.22054 21.2967C6.79944 20.6539 7.32098 18.628 8.2747 16.0683C8.40849 15.7978 8.5461 15.5285 8.68967 15.2639C8.7666 15.2482 8.84779 15.2923 8.92137 15.2397C10.5706 12.4544 10.561 11.6977 10.6786 11.3882C11.3316 10.1068 12.3776 9.55759 12.6615 9.27008C13.8942 8.05644 14.1735 7.59733 15.5261 6.63636C17.0084 5.64988 16.0982 6.46936 16.6015 6.25028C17.0006 6.07257 18.1797 5.34917 18.7273 5.16242C18.4927 5.20593 18.2367 5.26719 18.0024 5.31773C19.5218 4.30546 20.8458 3.55592 22.818 2.85551C25.1979 2.638 26.9801 1.46551 26.3257 2.34092C24.4185 2.7587 23.4043 3.19845 22.4995 3.72229C23.6969 3.31634 24.9227 3.00316 26.1653 2.78633C26.5096 2.63462 26.7543 2.508 27.1766 2.35735C28.0527 2.37178 29.9348 2.17349 30.9233 2.22086C31.0204 2.22374 31.1085 2.22738 31.186 2.23205C35.2441 2.4768 33.9887 2.78037 37.693 2.27019C35.0231 2.22048 35.0273 1.9727 32.3796 2.00684C32.951 1.82987 34.2964 1.86654 33.4259 1.65438C35.9874 1.70664 35.1593 1.89605 36.1562 2.06421C37.0161 2.20918 38.7476 2.21729 38.6499 2.40569C38.8268 2.30211 38.9638 2.20183 39.1404 2.09839C40.7995 2.09942 42.4587 2.09949 44.1179 2.10052C43.4106 1.99239 42.7036 1.88406 41.9964 1.77644C42.5309 1.7356 43.0663 1.69492 43.6008 1.65407C47.6816 1.99042 54.7187 1.37399 53.5945 2.21893C55.5622 2.24583 55.8084 2.13986 56.8782 1.97999C56.9961 2.04413 57.1107 2.09749 57.2286 2.16888C58.4979 2.10173 59.4722 2.34256 60.592 2.27996C61.7118 2.21784 61.9897 1.99036 62.153 2.37273C62.8784 2.26305 63.5995 2.17193 64.3204 2.07001C64.7553 2.15688 65.1899 2.24274 65.6203 2.32909C66.3004 2.28356 66.982 2.23821 67.6621 2.19268C68.0256 2.37521 70.6996 2.29653 71.8785 2.41911C72.9975 2.22236 72.9668 1.60288 75.5995 1.71389C75.5315 1.86753 75.4646 2.02073 75.3966 2.17437C75.9995 2.1423 76.6037 2.11032 77.2112 2.07825C77.2474 2.0281 77.2788 1.97795 77.3151 1.9278C77.0068 1.94332 76.7028 1.95876 76.3945 1.9748C76.662 1.88993 76.924 1.80546 77.187 1.7206C78.1073 1.84632 79.0288 1.97206 79.9537 2.09778C78.7071 2.19297 77.4599 2.28822 76.2133 2.38341C77.7776 2.49622 78.8664 2.3837 80.2267 2.50944C81.4099 2.29732 80.973 2.17509 80.4925 1.94489C80.9321 1.96455 81.377 1.98352 81.8166 2.00318C81.5266 1.77295 82.2702 1.63577 79.7 1.65438C79.8766 1.58871 80.057 1.52611 80.2291 1.45786C80.6507 1.4682 80.9242 1.4127 81.3865 1.43802C82.6471 1.50736 83.6135 1.91175 83.5273 2.05353C83.4809 2.1278 82.2379 1.98577 82.2878 2.09076C82.4108 2.3468 85.2619 2.23184 81.1497 2.48899C82.5145 2.65199 82.8194 2.52907 84.3247 2.48198C84.2069 2.5673 84.0925 2.65207 83.9792 2.73739C84.6772 2.69808 85.3761 2.65891 86.0741 2.6196C85.1038 2.18133 90.2502 2.01672 85.6174 1.63332C86.9864 1.61366 88.3509 1.5939 89.7154 1.57321C89.4344 1.5282 89.1532 1.48364 88.8721 1.43863C88.2556 1.46243 87.6427 1.48584 87.0261 1.50912C87.7514 1.42687 88.4779 1.34511 89.2032 1.26286C90.9171 1.3648 91.5889 1.52158 92.3733 1.71511C90.3787 1.85633 91.0304 1.66342 89.4762 1.62508C89.5305 1.74764 89.4587 1.86038 89.5946 1.98914C90.3977 1.73528 93.0175 1.91996 93.625 1.93238C95.4738 1.97009 94.024 1.72066 95.2608 1.71541C96.4986 1.71024 97.9586 1.8587 98.9698 1.61135C98.9516 1.74999 98.8707 1.89343 98.7982 2.01966C100.725 2.06519 100.341 1.90141 100.54 1.8802C103.723 1.53144 105.451 1.82588 109.092 1.86158C108.629 1.90453 108.162 1.94329 107.695 1.98365C110.442 2.278 108.591 2.18787 106.206 2.28515C108.442 2.25565 109.722 2.50633 111.3 2.58085C112.878 2.65523 115.583 2.52649 116.572 2.42613C114.31 2.26468 111.869 2.37115 109.357 2.32665C109.643 2.18542 109.92 2.06589 110.215 1.91071C111.743 2.20713 112.628 2.00894 113.132 1.96961C114.609 1.85427 114.563 2.10869 115.456 1.83504C115.42 1.92917 115.393 2.00833 115.357 2.09625C118.408 2.05693 121.7 1.8905 123.686 2.23815C123.867 2.01204 124.004 1.7942 124.213 1.56344C125.505 1.73365 126.611 1.55935 127.699 1.59915C128.783 1.63899 128.37 1.82172 129.644 1.8921C129.88 1.90504 130.371 1.79066 130.952 1.87501C131.538 1.9598 133.699 2.59026 133.957 2.03949C135.05 2.0369 136.084 2.01676 137.154 2.00745C136.111 1.97641 135.068 1.94634 134.03 1.91529C134.919 1.7818 135.802 1.64871 136.69 1.51523C136.804 1.63424 136.917 1.75541 137.026 1.87288C139.42 2.01776 141.158 1.82317 143.574 1.86921C143.978 1.87697 143.026 2.11228 144.816 2.05231C146.607 1.99229 147.936 1.5531 150.987 1.72274C151.142 1.73153 152.045 2.06789 153.138 1.83504C153.386 1.78226 152.34 1.70417 152.911 1.63485C153.482 1.56551 156.031 1.50849 156.231 1.34342C156.203 1.40188 156.044 1.46245 155.967 1.52194C156.402 1.54987 156.842 1.57783 157.282 1.60525C157.323 1.50229 157.367 1.39918 157.407 1.29673C159.91 1.53631 161.204 1.92712 164.912 1.79781C163.87 1.94734 162.826 2.09747 161.788 2.247C161.502 2.14196 161.216 2.03621 160.935 1.93116C159.226 1.97307 157.512 2.01467 155.803 2.05658C155.522 1.93705 155.246 1.81786 154.965 1.69832C154.511 1.71384 154.062 1.72888 153.609 1.7444C153.722 1.83081 153.837 1.91677 153.955 2.00318C153.057 1.98197 152.158 1.96031 151.265 1.93909C153.083 2.44916 156.343 1.89571 156.107 2.32238C156.511 2.25618 156.915 2.18952 157.318 2.1228C157.495 2.32969 158.315 2.27014 159.761 2.23754C159.43 2.33948 159.064 2.44003 158.76 2.54301C160.166 2.39917 162.659 2.41314 164.115 2.35778C164.754 2.33346 164.116 2.18346 164.306 2.16583C165.281 2.07372 167.144 2.33545 167.534 2.31475C169.865 2.19157 171.379 1.69538 173.923 2.0224C171.297 2.10313 172.726 2.06903 171.791 2.25066C171.499 2.30761 168.107 2.42641 172.354 2.37364C172.852 2.36704 180.559 2.02421 178.025 1.76149C179.272 1.84532 180.249 1.94225 181.391 2.03125C184.184 1.33889 183.218 1.98932 182.406 2.3474C182.864 2.34895 183.3 2.35259 183.771 2.35259C182.769 1.97639 187.875 1.95303 189.607 2.14294C190.187 2.20607 188.564 2.32649 189.906 2.38341C190.545 2.35703 191.27 2.32287 191.946 2.29339C190.966 2.5314 192.888 2.62313 192.861 2.86526C194.09 2.6495 195.03 2.19216 194.355 1.94428C195.37 2.04465 196.391 2.1449 197.406 2.24578C196.935 2.30322 196.457 2.36015 195.986 2.41759C199.305 2.26545 203.572 2.61163 204.266 2.10297C204.706 2.10659 205.151 2.10972 205.59 2.11334C205.726 2.19924 205.858 2.2853 205.994 2.3712C207.984 2.29671 209.97 2.22171 211.96 2.14721C210.188 2.09391 209.766 1.97164 207.908 2.07092C208.624 1.97213 209.353 1.8728 210.056 1.774C212.853 2.03997 213.235 2.21478 217.447 2.13562C217.637 2.132 220.82 1.90895 220.929 1.88722C221.427 1.78787 220.671 1.64355 220.893 1.59335C221.509 1.4526 225.256 1.09919 225.184 1.04589C224.268 0.391818 211.66 0.383148 208.251 0.349513C172.883 0.000762701 138.295 0.467347 103.15 0.387658C102.789 0.386425 102.946 0.28987 102.792 0.285735C101.836 0.261484 100.896 0.411966 100.543 0.418174C99.7871 0.430969 100.203 0.291937 99.6511 0.291838C93.947 0.29339 88.5643 0.375146 82.8556 0.351344C82.4838 0.349792 82.8634 0.46103 82.2105 0.441366C81.8734 0.4306 80.8183 0.259938 80.0576 0.257355C77.4005 0.248562 75.1687 0.303275 72.3666 0.300687C70.8339 0.299143 68.5348 0.31365 66.8212 0.311063C66.0644 0.309963 65.2759 0.231888 64.5282 0.22928C63.4672 0.225658 63.6838 0.38393 63.5206 0.393761C62.8042 0.436701 62.705 0.262986 62.0249 0.26712C60.7599 0.275399 60.6918 0.391382 59.0867 0.381555C57.9395 0.37431 55.314 0.282737 53.8676 0.255829C50.485 0.390356 46.2226 0.336949 43.0668 0.292448C41.1988 0.266068 41.0257 0.428457 40.2639 0.427939C37.58 0.424794 35.5432 0.217391 33.0223 0.210665C32.3074 0.208792 31.6099 0.213583 30.9233 0.22237C28.2097 0.260337 25.6776 0.719923 23.0771 1.5204C22.5415 1.6899 22.6175 1.50857 22.0917 1.68402C20.1419 2.32504 17.7681 3.49324 16.2587 4.52706C14.5784 5.68496 14.1252 6.32182 12.639 7.62171C12.2112 8.01262 11.9502 7.99052 11.2578 8.68662C10.1515 9.80311 9.24452 11.2787 8.66318 12.1935C7.88023 13.461 8.38437 12.2457 7.39003 14.0046C7.35056 14.0783 7.32437 14.4076 7.12071 14.7873C6.54608 15.9064 6.47418 15.7378 5.79659 17.4591C5.70663 17.6201 5.07867 19.9858 5.04568 20.2276C4.64091 21.6016 4.28864 24.46 4.24261 25.2985C4.11266 26.7465 4.07132 26.9525 4.05228 27.0586C4.03911 27.1647 4.09596 27.1688 4.32896 28.4103C4.21878 29.4665 4.10709 30.5139 4 31.6336C4.09987 30.8863 4.24399 33.9189 4.23468 34.132C4.15962 35.8948 3.98447 34.8448 4.01343 37.0799C4.41809 34.128 4.06558 39.9635 4.05524 41.2649C4.00507 47.5309 4.10605 53.2268 4.10345 59.5246C4.1024 61.633 4.01686 64.4584 4.01892 66.6889C4.01904 67.2088 4.11481 66.816 4.11688 67.2736C4.1183 67.7301 4.0108 67.2237 4.01648 67.7448C4.02962 68.8874 4.06332 69.9429 4.09036 70.9606C4.14484 72.9677 4.36703 74.8176 4.65497 76.8738C4.72516 77.0176 4.75171 77.0067 4.85036 77.2471C5.12357 79.8998 7.59021 84.3889 8.76126 85.8454C10.4978 88.2094 10.9309 88.8409 12.4688 90.3276C14.504 92.3317 18.3339 94.2214 16.4538 93.6476C18.0903 94.7095 19.7863 95.5587 21.6519 96.1973C21.8595 96.2676 21.7606 96.0975 21.8436 96.1249C22.3691 96.2935 22.5057 96.4549 22.8626 96.5741C23.8295 96.8828 22.2839 96.2792 23.6582 96.7242C24.3911 96.9348 24.7767 97.1949 26.8771 97.5403C28.2041 97.7419 29.5571 97.8449 30.9233 97.845C41.7648 97.8467 53.2778 97.817 64.2129 97.8022C65.0517 97.8011 64.4995 97.9228 65.5515 97.9151C69.2061 97.8881 75.7477 97.6833 78.899 97.7112C82.0501 97.7392 81.3392 97.9171 83.3111 97.9917C83.692 98.0061 83.3797 97.9047 83.7243 97.9032C86.0413 97.8938 88.8036 97.7356 90.6808 97.7118C91.9221 97.6959 91.8227 97.8554 92.6838 97.8668C93.967 97.8834 95.2877 97.7222 95.9724 97.717C99.1912 97.6943 101.404 97.8241 104.41 97.7579C104.292 97.793 104.215 97.8255 104.115 97.8601C107.674 97.8544 111.229 97.8487 114.788 97.843C114.62 97.8751 114.458 97.9075 114.29 97.9401C118.466 97.9225 117.989 97.5748 117.622 98.309C117.926 98.3349 118.248 98.3649 118.538 98.3887C118.42 98.0104 120.946 97.7336 124.161 97.6374C124.396 97.6301 125.978 97.9989 125.806 97.5632C126.219 97.6698 126.465 97.7433 126.814 97.8369C127.494 97.705 128.183 97.5747 128.863 97.4433C129.23 97.4629 129.602 97.4819 129.969 97.5016C130.024 97.587 129.982 97.6756 130.1 97.7594C131.805 97.7724 135.301 97.6668 136.648 97.6777C139.994 97.7051 143.401 97.9359 146.004 97.6865C147.272 97.7119 146.013 97.8795 147.898 97.8583C148.111 97.7735 148.312 97.6921 148.534 97.6047C150.075 97.9838 150.397 97.7532 152.508 97.674C153.937 97.6202 154.872 97.7128 156.232 97.6947C156.576 97.6901 156.528 97.5788 156.763 97.5824C157.553 97.5939 159.806 97.7471 160.364 97.7512C165.415 97.7915 169.754 97.7744 174.564 97.7335C175.081 97.7294 174.411 97.8392 174.946 97.8345C175.807 97.8272 175.3 97.6585 175.799 97.6502C177.19 97.628 177.2 97.806 179.141 97.8153C185.529 97.8458 192.874 97.7121 199.548 97.7002C199.757 97.7002 199.745 97.8045 199.971 97.8055C201.449 97.8106 202.945 97.6697 204.287 97.6712C206.513 97.6733 208.186 97.8198 210.385 97.8192C214.684 97.8187 218.524 97.7437 222.945 97.7396C223.709 97.7388 224.451 97.7388 225.185 97.7393C228.119 97.7283 230.937 97.3318 234.11 96.2263C244.486 92.706 252.238 82.1775 252.144 70.9606C252.185 63.7216 252.199 56.4814 252.127 49.2813C252.122 48.8373 252.03 49.0181 252.034 48.8827C252.074 47.595 252.198 47.48 251.938 47.0221C251.989 45.3817 252.184 44.8641 252.171 42.883C252.163 41.8272 251.86 42.6155 252.016 40.8292C252.158 39.2163 252.324 40.9962 252.154 36.1996C252.149 36.0727 251.965 35.4476 252.013 34.4502C252.06 33.4482 252.193 34.6081 252.232 32.1959C252.259 30.5887 252.265 28.8604 252.261 27.0586C252.292 22.1288 250.692 16.7306 247.928 12.4447C247.76 12.0217 245.186 8.56627 244.546 7.98571C243.427 6.77191 243.791 6.88052 242.138 5.48496C240.832 4.43702 239.6 3.79212 237.889 2.84579C237.687 2.74272 237.432 2.39501 236.067 1.81703ZM9.3069 82.2339C9.28941 81.8283 9.4521 81.0381 8.53787 79.1091C8.45084 78.9193 8.46085 80.1043 7.99037 78.9942C8.34177 80.1229 8.78976 81.1868 9.30635 82.2342C9.30653 82.2341 9.30672 82.234 9.3069 82.2339ZM225.596 3.26423C227.199 3.26207 228.809 3.42118 230.384 3.74133C229.317 3.43289 228.221 3.19836 227.116 3.04035C226.602 3.09877 226.099 3.17396 225.596 3.26423ZM137.791 95.0328C137.793 95.0328 137.794 95.0328 137.796 95.0328C136.027 94.9583 134.258 94.8837 132.49 94.8091C132.675 94.864 132.862 94.9191 133.048 94.9739C134.444 95.0603 135.841 95.1466 137.233 95.233C137.419 95.1663 137.605 95.0996 137.791 95.0328ZM151.762 95.6135C152.891 95.5483 152.615 95.4384 153.236 95.3313C153.236 95.3315 153.236 95.3317 153.236 95.3319C153.4 95.304 154.163 95.2796 154.458 95.2754C154.35 95.3442 154.209 95.4122 154.091 95.4805C156.726 95.6471 161.877 95.055 155.207 94.8165C155.307 94.9034 155.402 94.9898 155.502 95.0768C152.188 95.0524 148.493 95.241 151.762 95.6135ZM6.79924 56.3279C7.08385 53.4985 7.14386 52.5913 6.94878 49.1588C6.8681 49.6437 6.78745 50.1286 6.70679 50.6134C6.78906 51.1802 6.87077 51.7429 6.95305 52.3096C6.95305 52.3113 6.95305 52.3129 6.95305 52.3145C6.86664 52.4278 6.78008 52.5415 6.69366 52.6503C6.72884 53.8745 6.76405 55.1038 6.79924 56.3279ZM249.26 75.2318C248.81 74.3752 249.175 74.6724 248.563 76.7613C248.334 77.4767 248.421 76.7444 248.286 77.1905C247.507 79.5642 247.685 79.8614 248.094 79.4045C248.608 78.0514 249.001 76.6359 249.26 75.2365C249.26 75.2349 249.26 75.2334 249.26 75.2318ZM242.519 9.65231C242.518 9.65119 242.517 9.65007 242.516 9.64896C242.373 9.70109 243.07 10.4547 242.159 9.72833C242.788 10.3434 243.383 10.992 243.945 11.675C243.79 11.4664 243.628 11.2562 243.467 11.0524C243.654 11.1934 243.84 11.3377 244.024 11.485C244.099 11.8305 244.361 11.9889 244.956 12.7077C244.667 12.6001 244.379 12.5 244.09 12.4055C244.779 13.2105 245.419 14.0669 245.999 14.9616C246.042 14.9513 246.086 14.9413 246.13 14.9311C246.285 15.3078 246.428 15.6841 246.563 16.0652C246.658 16.1386 246.751 16.2096 246.846 16.2849C247.029 16.7388 247.196 17.1951 247.35 17.6574C247.516 17.748 247.172 16.7281 247.848 18.5079C247.761 17.9161 247.651 17.3254 247.515 16.7294C246.285 14.0981 244.583 11.6911 242.519 9.65231ZM238.399 91.3243C241.009 89.5438 240.182 89.9384 239.452 90.1677C239.118 90.5608 238.763 90.9492 238.399 91.3243ZM72.0851 95.4835C71.142 95.2916 70.1949 95.1015 69.229 94.9163C67.3065 94.8091 65.3832 95.159 66.8297 95.2962C68.5708 95.4607 70.3893 95.2766 72.0851 95.4835ZM28.3598 95.2653C30.6543 95.3623 28.5144 94.9808 28.0321 94.7756C27.3867 94.9099 26.5132 94.7795 25.1355 94.4716C26.4137 94.8127 27.9731 95.2474 28.3597 95.2659C28.3597 95.2657 28.3598 95.2655 28.3598 95.2653ZM109.938 95.2678C110.881 95.2735 111.819 95.3271 112.662 95.262C112.407 95.0784 110.721 95.2454 111.927 94.9733C111.324 94.9687 110.72 94.9641 110.122 94.959C110.502 95.0717 109.991 95.156 109.941 95.2672C109.94 95.2674 109.939 95.2676 109.938 95.2678ZM208.078 95.0166C206.228 95.234 205.877 95.141 204.014 94.9904C203.751 95.1674 205.973 95.4638 207.365 95.529C207.601 95.3583 207.838 95.1874 208.078 95.0166ZM168.904 2.91195C168.46 2.6864 165.183 2.65698 163.554 2.72366C163.748 2.75712 163.943 2.79101 164.137 2.82498C165.724 2.85395 167.317 2.88297 168.904 2.91195ZM24.4817 94.3173C24.7115 94.3737 24.9302 94.4251 25.1355 94.4716C24.9089 94.4135 24.6877 94.3596 24.4817 94.3173ZM14.9041 7.60283C14.1695 7.94808 15.8982 6.368 13.8029 8.2925C13.8028 8.29235 13.8026 8.2922 13.8025 8.29205C12.4722 9.61968 12.2058 9.94024 11.1156 11.2904C11.7235 10.9641 14.0232 8.39695 11.0238 12.1065C10.9877 12.1581 10.9265 11.9546 10.4966 12.5905C10.3665 12.789 10.0324 13.4784 9.48561 14.4823C9.30742 14.8085 7.9847 17.2411 9.86409 13.9655C9.96666 14.161 10.2368 14.0919 10.3883 14.1982C11.2016 13.0176 11.5673 11.8975 12.6001 10.7397C14.1568 9.03953 15.33 8.63472 15.348 7.96536C13.7243 9.04887 11.5149 11.6022 11.5266 12.1443C10.4194 13.6304 9.94495 13.9806 10.7006 12.6528C14.9662 7.75784 11.3673 10.8068 15.7969 7.15943C15.8926 7.17255 16.1253 7.09101 16.1351 7.16453C17.406 5.94146 15.1527 7.45492 14.9041 7.60283ZM7.59904 18.9852C8.10234 17.9756 8.67139 17.0139 9.29695 16.1039C9.09541 16.0006 8.58356 16.4225 7.7993 18.0216C7.7265 18.3411 7.65868 18.6658 7.59904 18.9852ZM95.3381 2.44566C95.5013 2.5745 95.9365 2.69258 96.2539 2.81521C96.5984 2.70655 104.76 2.6023 100.608 2.49571C100.005 2.48018 96.3265 2.70801 95.3381 2.44566ZM220.923 95.2107C219.962 95.2971 219.004 95.3837 218.047 95.4701C219.52 95.5249 220.994 95.5812 222.467 95.637C221.951 95.495 221.439 95.3528 220.923 95.2107ZM56.4373 95.7097C56.8433 95.7048 55.4948 95.5276 57.0945 95.5556C55.902 95.4422 54.7852 95.3463 53.6199 95.2397C53.2708 95.3235 52.918 95.407 52.5688 95.4909C52.2968 95.437 52.0194 95.3836 51.7473 95.3297C51.9106 95.4519 52.0558 95.5711 52.2281 95.6953C54.1915 95.4335 54.6417 95.7304 56.4373 95.7097ZM114.817 96.1872C115.17 95.9218 112.327 95.764 115.124 95.7216C114.593 95.5472 113.74 95.4557 112.103 95.4402C111.841 95.5069 111.578 95.5731 111.316 95.6398C111.279 95.4613 110.858 95.395 109.938 95.2678C109.938 95.268 109.937 95.2682 109.936 95.2684C107.448 95.2555 107.596 95.315 106.998 95.6084C109.632 95.4428 109.711 95.7108 111.507 95.8702C112.74 95.9798 114.35 95.9301 114.817 96.1872ZM86.6419 2.44261C88.5048 2.66665 86.833 2.87562 90.1383 2.63761C89.9252 2.58069 89.7111 2.52425 89.498 2.46733C88.546 2.45853 87.5939 2.45037 86.6419 2.44261ZM124.011 95.2776C123.798 95.6884 122.044 96.0082 121.744 95.3398C123.454 95.2037 122.619 95.5823 124.011 95.2776ZM29.0935 95.9756C29.9508 96.0314 30.5376 96.0007 30.9233 95.9486C31.8119 95.8255 31.5799 95.6047 30.9233 95.4341C30.7752 95.3951 30.6063 95.3573 30.4249 95.3217C30.2197 95.4019 30.0131 95.4798 29.8094 95.5546C29.2433 95.4911 28.684 95.4084 28.1261 95.3071C28.4425 95.5362 28.7616 95.7592 29.0935 95.9756ZM181.96 95.7289C179.448 95.4355 184.672 95.5657 182.917 95.3825C181.516 95.2361 179.67 95.5317 180.368 95.717C180.853 95.7222 181.393 95.7258 181.956 95.7289C181.957 95.7289 181.959 95.7289 181.96 95.7289ZM167.424 95.645C167.837 95.3315 167.242 95.4229 169.227 95.4793C169.793 95.4953 174.297 95.3776 172.406 95.6373C170.797 95.6373 169.097 95.6419 167.424 95.645ZM6.30122 70.4124C6.26651 70.4047 6.22124 70.6232 6.17427 70.9606C6.01253 71.942 6.04228 73.9628 6.15918 74.2852C6.15897 74.2852 6.15877 74.2852 6.15857 74.2853C6.49745 75.4391 6.13264 71.8406 6.57034 73.3708C6.40269 72.3851 6.38155 71.5851 6.39705 70.9606C6.43631 69.4107 6.57516 68.9314 6.01682 69.1052C5.98232 71.1751 6.14444 70.1951 6.30122 70.4124ZM211.933 2.26928C211.935 2.26928 211.936 2.26928 211.938 2.26928C211.705 2.2757 209.786 2.47605 210.019 2.54545C212.327 2.48595 211.916 2.35407 214.064 2.57078C214.182 2.50098 214.283 2.43328 214.41 2.36296C213.557 2.32157 213.085 2.23771 211.933 2.26928ZM104.162 2.17041C103.314 2.1347 101.767 2.28265 100.801 2.27386C103.875 2.84202 107.549 2.3122 104.162 2.17041ZM249.731 39.1644C249.731 39.1668 249.73 39.1692 249.73 39.1716C249.73 39.1709 249.731 39.1699 249.731 39.1692C249.731 39.1676 249.731 39.166 249.731 39.1644ZM38.4566 2.51127C38.5659 2.47439 38.6277 2.44235 38.6499 2.41423C38.6499 2.41159 38.6499 2.40894 38.6499 2.4063C38.5907 2.44083 38.5278 2.47576 38.4566 2.51127ZM6.34242 63.2046C6.15204 61.7602 5.84935 66.5728 5.9216 68.129C6.0085 68.0202 6.08728 68.0033 6.18709 67.7496C5.96207 66.4935 6.3745 63.4449 6.34242 63.2046ZM93.6189 95.6114C89.8147 95.6166 94.7656 96.3683 94.9697 95.7686C94.962 95.7569 93.7172 95.6124 93.6189 95.6114ZM15.3972 90.1199C16.0179 90.8803 14.4105 89.7952 16.9483 91.5822C17.1309 91.6349 17.3132 91.6849 17.4958 91.7329C16.7675 91.2328 16.0661 90.6934 15.3972 90.1199ZM68.6975 96.5983C63.9095 96.4715 59.3302 96.2479 62.449 95.6203C62.8114 95.6404 63.1788 95.6599 63.5412 95.6801C63.5956 95.9863 64.9327 95.8191 66.8901 95.8092C67.1691 95.9307 68.2546 95.9588 68.4583 96.0621C68.8522 96.2618 67.6049 96.4022 68.6975 96.5983ZM250.324 64.5764C250.272 64.6535 250.219 64.7288 250.168 64.8059C250.109 65.5632 250.05 66.3224 249.991 67.0796C250.091 66.9573 250.192 66.8347 250.292 66.7124C250.303 66.0008 250.314 65.2927 250.325 64.5812C250.324 64.5796 250.324 64.578 250.324 64.5764ZM5.87042 23.3594C6.49301 23.0419 6.10417 24.3049 5.82768 27.0586C5.81264 27.2215 5.79692 27.3894 5.78062 27.5622C5.77342 27.3944 5.76622 27.2265 5.75903 27.0586C5.7067 25.8264 5.7431 24.5901 5.87042 23.3594ZM145.637 96.3652C145.736 96.2017 145.834 96.0388 145.939 95.8754C147.575 96.0456 147.271 96.2328 146.487 96.4491C146.202 96.4212 145.922 96.3931 145.637 96.3652ZM169.215 96.4347C168.536 96.4688 168.882 96.3369 168.811 96.3395C167.092 96.4089 166.85 96.4694 164.742 96.37C164.484 96.3354 164.23 96.2989 163.971 96.2632C164.946 95.9208 165.654 96.1074 167.716 95.9062C167.345 96.0237 166.974 96.1413 166.603 96.2593C167.749 96.2344 168.892 96.2099 170.038 96.1851C170.175 96.2213 170.311 96.2572 170.447 96.2934C170.039 96.34 169.618 96.3923 169.215 96.4347ZM250.176 55.8198C250.162 54.7044 250.148 53.5838 250.135 52.4684C250.219 52.4276 250.304 52.3884 250.388 52.3476C250.317 53.5036 250.247 54.6638 250.176 55.8198ZM18.7273 5.16242C18.8194 5.1453 18.9096 5.13001 18.9915 5.12021C18.9671 5.09105 18.8681 5.11158 18.7273 5.16242ZM214.876 1.80666C216.141 1.74767 217.964 1.7864 219.351 1.774C219.242 1.98559 215.716 1.9271 214.477 2.05536C214.278 2.0174 214.341 1.83148 214.876 1.80666ZM33.647 96.0228C33.9643 96.1283 34.2813 96.2334 34.5942 96.3389C35.3605 96.3275 36.1285 96.3155 36.8993 96.3041C36.922 96.3905 36.9443 96.4777 36.9669 96.5641C33.5714 96.4518 34.3543 96.701 32.6732 96.9468C32.9996 96.639 33.3206 96.3311 33.647 96.0228ZM249.81 20.2651C250.387 22.7121 250.317 23.6044 249.842 22.276C249.736 21.4107 249.582 20.5425 249.384 19.688C249.529 19.8785 249.671 20.0725 249.81 20.2651ZM62.8923 1.80421C64.9451 1.90108 64.9791 1.55317 66.9855 1.74745C65.9111 1.8116 64.8369 1.87647 63.767 1.94062C63.478 1.89526 63.1814 1.84958 62.8923 1.80421ZM4.71347 56.4946C4.59244 55.6286 5.16777 54.0097 4.74307 51.5751C4.86983 50.9949 4.99089 50.6313 5.11507 50.1326C4.98001 49.8424 4.84322 49.5127 4.7092 49.2361C4.7092 49.2345 4.7092 49.2329 4.7092 49.2313C4.75473 47.0231 4.92412 48.4548 5.06746 48.4049C5.12688 48.3815 5.02754 46.7427 5.15688 47.2548C5.37886 48.139 5.25121 51.4428 5.52184 51.4519C5.4334 50.2911 5.50731 48.0245 5.68785 48.6949C5.88602 49.4294 5.55391 51.5655 5.71837 52.9258C5.28581 50.9765 5.41943 55.0025 5.75163 55.4605C5.49652 57.8228 5.39246 55.6515 5.40436 53.2302C5.14977 54.7084 5.28731 52.5326 5.0757 52.1743C4.94795 53.6986 5.05444 58.9293 4.71347 56.4946ZM88.639 96.7014C87.0062 96.685 84.4555 96.8305 83.3377 96.6157C82.6866 96.4905 85.2434 96.3936 83.4803 96.197C85.071 96.2162 85.434 96.293 85.162 96.4652C85.5245 96.4859 85.8916 96.5061 86.2541 96.5263C86.4218 96.4927 86.5939 96.4595 86.7616 96.4259C86.952 96.4968 87.1435 96.5671 87.3294 96.638C87.7145 96.624 88.1041 96.61 88.4892 96.5956C88.5345 96.6312 88.6117 96.6622 88.639 96.7014ZM121.833 1.81489C121.379 1.81283 120.93 1.81077 120.477 1.80818C120.527 1.76622 120.586 1.72253 120.644 1.6794C120.685 1.64533 120.726 1.61125 120.767 1.57717C120.504 1.69892 118.345 1.90127 117.435 1.77126C116.978 1.70603 118.018 1.47447 116.079 1.43405C117.485 1.44596 118.786 1.47756 120.151 1.49722C120.028 1.4284 119.911 1.35884 119.788 1.29002C119.789 1.28992 119.79 1.28981 119.791 1.28971C120.244 1.27419 120.703 1.25793 121.156 1.24241C121.383 1.43336 121.606 1.62395 121.833 1.81489ZM144.308 96.6883C142.761 96.5533 142.244 96.4831 142.974 96.2648C142.975 96.2646 142.977 96.2645 142.979 96.2645C143.554 96.3612 144.131 96.4579 144.706 96.5547C144.575 96.5992 144.444 96.6438 144.308 96.6883ZM31.5363 1.27873C33.1644 1.68952 32.1703 1.77215 30.9233 1.71659C29.6357 1.64861 28.0567 1.61593 28.7695 1.40604C28.8166 1.38802 30.1011 1.33092 30.9233 1.3232C31.2196 1.31683 31.4526 1.30359 31.5363 1.27873ZM28.4661 96.1788C29.2789 96.2631 30.0972 96.308 30.9233 96.3139C31.0185 96.3146 31.1137 96.3153 31.209 96.316C31.1144 96.3622 31.0189 96.4083 30.9233 96.4544C30.805 96.5101 30.6859 96.5649 30.5679 96.6191C29.8576 96.5013 29.1535 96.3537 28.4661 96.1788ZM251.1 31.0095C251.328 31.9592 251.41 34.397 251.163 35.5883C251.134 34.9626 251.105 34.3366 251.076 33.7109C251.047 34.8938 251.016 36.0635 250.989 37.2555C250.672 37.319 250.856 35.9452 250.769 33.8776C250.754 33.5575 250.361 31.5108 250.658 30.8041C250.719 30.6619 250.76 32.8391 250.937 31.326C250.951 31.9876 250.948 32.5587 250.956 33.1841C251.032 33.2295 251.107 33.2744 251.183 33.3243C251.155 32.5509 251.128 31.7828 251.1 31.0095ZM79.1334 96.6767C76.8907 96.6942 76.6138 96.5675 76.1469 96.3435C77.1897 96.3688 78.233 96.3938 79.2759 96.4192C79.2262 96.5048 79.1831 96.5905 79.1334 96.6767ZM251.173 51.0549C251.21 52.2827 251.027 51.7568 250.993 52.2509C250.862 54.1189 250.993 55.393 250.911 57.2381C250.946 57.1157 250.979 57.0033 251.013 56.8854C251.013 56.887 251.013 56.8886 251.013 56.8902C251.167 65.6273 250.753 61.0381 250.82 55.8101C250.753 55.6877 250.685 55.5701 250.618 55.4477C250.736 53.1081 250.85 50.9506 251.173 51.0549ZM7.42859 16.3638C7.43782 16.2534 6.8071 16.9352 7.63669 15.4951C8.57878 14.5105 7.42958 16.3243 7.3773 16.8828C7.5878 16.4913 7.81041 16.0994 8.03825 15.7253C7.01297 18.1455 6.89143 18.5156 6.94919 17.5016C6.95189 17.428 7.41922 16.4726 7.42859 16.3638ZM19.222 3.83186C19.7841 4.15042 16.7773 5.56096 16.7956 5.39157C17.181 5.13204 17.5391 5.02554 17.9402 4.74055C18.3488 4.45684 18.3904 4.26708 19.222 3.83186ZM14.1392 90.635C14.0611 90.5784 13.1577 90.0957 13.3614 90.0191C14.5401 90.5399 16.3234 92.1978 15.8969 92.0736C15.2378 91.5899 14.8479 91.2043 14.1388 90.6355C14.139 90.6353 14.1391 90.6352 14.1392 90.635ZM248.831 16.1087C248.889 16.1306 249.924 18.4082 249.909 18.7532C249.896 19.037 249.831 19.1953 249.788 19.4145C249.522 18.0719 248.302 15.5926 248.833 16.1133C248.832 16.1118 248.831 16.1102 248.831 16.1087Z" fill="black"/>
</g>
<path d="M242.624 76.7534C242.624 81.6363 238.666 85.5947 233.783 85.5947H186.66C182.114 85.5947 178.428 89.2803 178.428 93.8267C178.428 98.373 182.114 102.059 186.66 102.059H255.112C264.541 102.059 272.185 94.4146 272.185 84.9854V82.6924C272.185 74.5295 265.568 67.9121 257.405 67.9121H251.466C246.583 67.9121 242.624 71.8705 242.624 76.7534Z" fill="#C8FF00"/>
<path d="M245.702 73.0966C245.679 73.5385 246.269 72.3939 246.076 73.2809C246.189 73.1486 246.308 73.0209 246.429 72.8993C246.357 72.7891 246.287 72.6764 246.218 72.5627C246.038 72.7293 245.865 72.9072 245.702 73.0963C245.702 73.0964 245.702 73.0965 245.702 73.0966ZM244.171 72.6123C244.618 72.5353 245.137 71.9258 244.943 72.8358C244.803 72.8315 244.661 72.8321 244.519 72.8347C244.447 73.1549 244.396 73.4757 244.366 73.7917C244.281 73.874 244.198 73.9592 244.116 74.0475C244.266 74.253 244.425 74.4484 244.59 74.635C244.594 74.5158 244.602 74.3942 244.612 74.2743C244.933 73.9027 245.134 73.5621 245.477 73.0608C245.492 73.1324 245.507 73.2031 245.524 73.2734C245.603 72.9711 245.704 72.6689 245.827 72.3713C245.595 72.5322 245.344 72.733 245.143 72.9141C245.07 72.377 245.693 71.8684 246.007 71.6481C246.438 71.3397 246.247 71.3113 246.581 71.1001C246.635 71.0675 246.72 71.1569 246.814 71.0821C247.27 70.6865 248.292 70.0564 247.533 70.1555C246.67 70.7205 245.826 71.1686 245.251 72.0555C245.162 71.6336 244.701 71.9839 244.171 72.6123ZM263.33 70.8255C263.111 70.5305 262.462 70.3126 262 70.2661C261.999 70.2659 261.999 70.2658 261.998 70.2656C261.895 70.254 261.616 70.3831 261.918 70.4831C262.405 70.6492 262.776 70.4457 262.931 70.7706C263.061 70.7834 263.194 70.8053 263.33 70.8255ZM264.323 71.4007C264.642 71.5025 264.657 71.2044 264.264 71.0503C264.265 71.0501 264.265 71.05 264.265 71.0498C264.1 70.9887 264.295 71.3291 263.858 70.8488C263.671 70.9286 263.495 71.0003 263.318 71.0832C263.447 71.1521 263.562 71.218 263.695 71.294C263.731 71.014 264.006 71.3014 264.323 71.4007ZM248.063 70.0283C248.213 70.2183 248.028 70.3034 247.829 70.612C248.09 70.4476 248.362 70.2997 248.643 70.1709C248.454 70.1158 248.262 70.0677 248.063 70.0283ZM243.994 76.1108C243.994 76.1113 243.994 76.1118 243.994 76.1123C243.948 76.2148 243.904 76.3212 243.863 76.4256C243.944 76.4935 244.026 76.5587 244.11 76.6229C244.1 76.6661 244.09 76.7096 244.081 76.7534C244.011 77.2099 243.911 77.6553 243.783 78.0898C244.029 78.0663 244.1 77.2821 244.227 76.7534C244.239 76.7211 244.252 76.6904 244.267 76.6619C244.198 76.1297 244.096 75.8514 243.881 75.7864C243.916 75.8959 243.955 76.0039 243.994 76.1108ZM219.99 101.743C219.842 101.672 219.696 101.6 219.547 101.529C219.744 101.496 219.94 101.471 220.138 101.434C220.658 101.744 220.707 101.469 221.387 101.488C223.473 101.547 222.92 102.03 224.804 101.323C223.291 101.357 223.872 101.025 222.96 100.769C222.771 100.964 223.675 101.403 223.063 101.494C222.008 101.288 220.993 101.096 219.823 100.963C219.857 100.93 219.891 100.896 219.925 100.862C220.111 100.883 220.295 100.905 220.48 100.926C220.28 100.836 220.084 100.747 219.881 100.656C220.138 100.86 219.482 100.746 219.57 100.981C219.609 101.085 219.899 101.23 220.07 101.33C219.629 101.384 219.176 101.434 218.73 101.487C218.961 101.57 219.192 101.654 219.422 101.737C219.61 101.739 219.798 101.741 219.987 101.744C219.988 101.744 219.989 101.743 219.99 101.743ZM222.434 86.9971C221.874 86.7539 220.856 86.7136 220.32 86.9842C221.025 86.9884 221.729 86.9929 222.434 86.9971ZM243.707 75.7265C243.741 75.7875 243.775 75.8461 243.81 75.9057C243.913 75.6711 244.026 75.4439 244.149 75.2285C244.041 75.1597 243.934 75.0879 243.829 75.0138C243.777 75.2492 243.737 75.4885 243.707 75.7265ZM256.655 69.0615C256.45 69.0542 256.432 69.0582 256.177 69.0752C256.177 69.0751 256.177 69.075 256.178 69.0749C256.076 69.0813 255.23 69.151 255.325 69.243C255.745 69.2446 256.193 69.243 256.623 69.243C256.636 69.1825 256.639 69.1225 256.655 69.0615ZM251.709 69.1152C251.709 69.1154 251.708 69.1156 251.708 69.1158C251.626 69.1233 251.546 69.1349 251.466 69.1449C251.405 69.1536 251.344 69.1617 251.281 69.1656C251.35 69.1843 251.411 69.1961 251.466 69.2025C251.854 69.2418 251.983 69.0587 252.426 69.1219C252.942 69.1959 253.261 69.3392 253.699 68.9833C253.536 68.93 253.361 68.8538 253.193 68.7917C252.461 68.934 252.263 68.8001 251.676 68.6599C251.687 68.812 251.698 68.9631 251.709 69.1152ZM229.277 101.023C229.417 101.199 229.573 101.026 229.589 101.024C229.589 101.024 229.589 101.024 229.588 101.024C230.829 101.187 229.427 100.926 230.598 100.899C230.424 100.855 230.252 100.808 230.08 100.764C229.813 100.849 229.537 100.945 229.277 101.023ZM267.12 95.5908C267.089 95.5488 267.059 95.5053 267.028 95.4635C266.599 95.9611 266.339 95.9345 266.079 96.4437C266.437 96.1759 266.784 95.8914 267.121 95.5912C267.121 95.5911 267.121 95.5909 267.12 95.5908ZM260.04 68.9363C259.331 68.7049 258.777 68.5988 258.058 68.7182C258.058 68.7184 258.057 68.7186 258.057 68.7187C258.016 68.7262 258.207 68.8431 258.152 68.8674C258.009 68.8437 257.861 68.8134 257.714 68.7911C257.692 68.8765 257.671 68.9619 257.65 69.0468C258.057 69.0297 258.467 69.0305 258.875 69.0496C258.809 69.093 258.744 69.1365 258.68 69.1809C259.02 69.2386 259.354 69.3085 259.688 69.3916C259.594 69.2329 259.496 69.0751 259.397 68.9182C259.61 68.9189 259.826 68.9261 260.04 68.9363ZM257.778 101.354C257.888 101.279 257.654 101.223 257.829 101.145C258.003 101.069 258.355 101.107 258.247 100.967C258.002 100.993 257.741 101.013 257.491 101.027C258.241 100.634 259.061 100.689 258.988 100.345C258.278 100.615 257.646 100.685 256.912 100.672C256.969 100.95 257.749 101.087 257.313 101.411C257.467 101.394 257.627 101.376 257.777 101.354C257.777 101.354 257.778 101.354 257.778 101.354ZM236.337 82.5809C236.027 82.7523 235.251 82.878 234.843 83.0973C234.751 83.1565 234.432 83.7151 234.433 83.7815C234.46 84.0118 234.977 83.9869 234.446 84.1936C234.631 84.1789 234.811 84.1651 234.994 84.1396C234.986 84.2976 234.976 84.4554 234.966 84.6128C234.727 84.6249 234.488 84.6261 234.249 84.6161C234.241 84.6679 234.232 84.7198 234.223 84.7716C235.088 84.7028 234.594 84.9438 235.082 85.0668C234.668 85.2253 234.231 85.3523 233.783 85.4453C234.042 85.4346 234.345 85.4112 234.569 85.3769C234.625 85.6387 234.066 85.6128 233.973 85.6585C233.704 85.7959 234.259 85.8447 234.921 85.809C235.582 85.7821 236.334 85.6349 236.503 85.7798C236.073 85.9539 235.605 86.1003 235.137 86.2088C235.278 86.2363 235.425 86.2599 235.571 86.2807C236.601 85.8233 237.701 85.3184 238.647 84.5299C238.746 84.4808 238.844 84.43 238.94 84.3778C238.98 84.4939 239.02 84.6092 239.057 84.7264C239.209 84.6428 239.36 84.5533 239.507 84.4612C238.863 84.438 239.466 84.0543 239.891 83.3334C239.49 83.5232 239.131 83.8987 239.005 83.6729C240.281 82.9715 241.118 81.4633 241.851 80.2951C242.031 79.9988 242.363 80.1281 242.585 79.307C242.542 79.3244 242.478 79.3106 242.428 79.3146C242.812 78.3779 242.98 77.6302 242.969 76.7534C242.962 76.4045 242.956 76.0362 242.964 75.6063C243.07 75.7033 243.179 75.796 243.289 75.887C243.2 76.168 243.125 76.4576 243.066 76.7531C243.066 76.7532 243.066 76.7533 243.066 76.7534C243.253 76.9783 243.376 76.6456 243.304 77.6458C243.21 78.4632 243.179 77.9649 243.093 78.1761C242.97 78.4572 243.072 78.7446 242.909 79.0371C242.779 79.2585 242.702 78.9649 242.557 79.5814C242.835 79.4034 243.115 79.2009 243.383 78.982C243.374 78.8102 243.36 78.6411 243.342 78.4726C243.258 78.6246 243.171 78.7708 243.08 78.916C243.306 78.3832 243.478 77.8532 243.613 77.2525C243.373 77.3889 243.408 77.0658 243.441 76.7534C243.452 76.6741 243.465 76.5967 243.476 76.5324C243.549 76.1047 243.324 76.4643 243.375 76.1799C243.432 75.8937 243.69 75.6207 243.742 75.1219C243.555 75.3622 243.512 74.973 243.376 75.0169C243.237 75.0609 243.107 75.6231 243.075 75.0549C243.414 74.0482 243.608 75.2575 243.851 74.6173C244.159 73.8952 243.558 73.4188 243.3 73.5995C243.096 73.7445 242.903 74.4445 242.734 74.6245C242.858 73.2763 243.371 73.4461 243.522 73.2833C244.154 72.7192 243.118 72.7891 243.876 72.1059C243.726 72.0353 243.592 71.9711 243.448 71.9055C243.564 71.7722 243.659 71.6965 243.795 71.5375C243.729 72.2226 243.987 71.7946 244.13 71.594C244.359 71.2759 244.136 71.8582 244.23 71.7963C244.472 71.6298 244.698 71.2667 244.649 71.5594C244.668 71.4266 244.696 71.2853 244.724 71.1493C245.083 70.8311 246.27 70.6388 245.515 71.204C245.76 71.3141 245.874 71.0199 246.021 70.8332C246.168 70.6476 246.272 70.7734 246.407 70.621C246.967 70.0293 246.392 70.1248 246.141 70.0441C247.15 69.5026 246.282 70.1596 247.703 69.4481C247.912 69.5377 247.386 70.0323 247.944 69.852C247.898 69.5361 248.186 69.1078 249.009 68.741C249.112 68.7836 249.214 68.8287 249.313 68.8749C249.699 68.4889 249.418 68.2228 250.369 68.4317C249.794 67.8675 250.168 68.1927 250.997 67.8746C251.17 67.8123 250.755 67.6995 250.999 67.6179C251.083 67.5901 251.263 67.6357 251.466 67.6283C251.527 67.6259 251.591 67.6174 251.656 67.5985C251.786 67.5597 252.395 67.3093 252.817 67.4282C252.507 67.7429 253.309 68.0105 252.621 68.2708C253.892 68.2066 254.781 68.3577 253.357 67.9287C253.68 67.8335 254.002 67.7387 254.325 67.644C254.55 67.719 254.776 67.7935 255.003 67.868C255.037 67.6094 255.002 67.5369 255.888 67.5824C255.504 67.5213 255.121 67.4593 254.735 67.3977C254.722 67.3455 254.669 67.2912 254.682 67.2406C255.154 67.3399 256.484 67.3826 256.807 67.4514C257.129 67.5203 256.506 67.5391 256.599 67.6059C257.065 67.937 257.228 67.922 257.405 67.8781C257.523 67.8492 257.648 67.8077 257.869 67.8519C258.193 67.917 257.414 67.9577 257.589 67.9863C258.226 68.0854 258.541 67.8152 259.12 67.8737C258.896 68.0151 258.682 68.1647 258.476 68.3177C259.06 68.3502 259.713 68.44 260.234 68.5998C260.439 68.6626 260.256 68.7515 260.288 68.7665C260.45 68.8383 261.104 69.0689 261.173 69.0929C261.7 69.245 261.768 69.0876 262.281 69.2584C262.087 69.1725 261.901 69.0961 261.707 69.0201C261.699 68.7271 261.685 68.433 261.667 68.1382C262.212 68.2767 262.753 68.447 263.283 68.6472C262.865 68.5727 262.446 68.5156 262.031 68.4779C262.566 68.8874 263.061 69.3278 263.513 69.7906C263.857 69.8018 264.204 69.8256 264.555 69.8641C265.307 70.3391 264.841 70.7242 265.457 70.5374C265.649 70.7147 265.836 70.8969 266.017 71.0824C266.03 71.0045 266.042 70.9266 266.053 70.8483C266.281 71.0679 266.5 71.2939 266.711 71.5263C266.302 71.5069 265.895 71.5207 265.506 71.5344C265.939 71.9213 266.072 71.7713 266.175 71.784C266.446 71.8219 266.676 72.2674 266.897 72.2982C266.976 72.3076 266.629 71.8159 266.885 71.8295C266.931 71.8243 267.936 71.9413 268.203 72.4274C268.119 72.4933 267.998 72.554 267.9 72.619C268.324 73.156 268.966 73.0812 269.027 72.9091C269.193 73.2701 269.52 73.7191 269.428 73.8823C269.538 74.0396 269.645 74.1977 269.749 74.3592C269.978 73.9558 270.369 74.6859 270.088 74.9173C269.908 74.6409 269.718 74.3714 269.521 74.1081C269.294 74.571 268.568 73.8734 269.985 75.3731C270.381 75.5955 269.601 74.7932 269.91 74.9786C270.288 75.4028 270.465 75.9024 270.837 76.3159C271.285 76.8415 271.163 76.0053 271.505 77.5596C269.57 74.6639 271.443 78.1061 271.475 79.7025C272.094 79.9525 272.558 81.0802 272.464 82.6924C272.453 82.872 272.438 83.0575 272.419 83.2483C272.326 83.1436 272.309 82.9247 272.304 82.6924C272.3 82.492 272.3 82.2826 272.268 82.1281C272.196 81.7934 272.112 82.1621 272.008 81.7492C271.908 81.3371 271.692 80.4812 271.491 80.099C271.483 80.4635 271.415 82.177 271.578 81.027C271.782 81.6631 271.938 82.0489 272.011 82.6924C272.032 82.883 272.046 83.0951 272.054 83.342C271.784 83.6677 271.616 83.6436 271.608 84.7035C271.887 84.2376 272.102 84.7832 272.353 84.9854C272.44 85.0562 272.531 85.0868 272.63 85.0169C272.629 85.0061 272.628 84.9956 272.626 84.9854C272.53 84.2757 272.162 84.6784 271.984 84.2497C271.966 84.2051 272.06 83.5047 272.054 83.342C272.392 84.0487 272.517 84.2931 272.919 83.8583C272.884 84.3582 272.935 84.6692 272.743 84.7148C272.815 84.8052 272.887 84.8959 272.959 84.9854C272.97 84.9997 272.982 85.0141 272.993 85.0285C272.99 85.1996 272.98 85.353 272.976 85.5332C272.693 85.2784 272.861 85.7607 272.708 86.0928C272.551 86.4196 272.367 85.9598 272.278 86.8631C272.243 86.5541 272.207 86.2767 272.16 85.982C272.052 86.5576 271.915 87.1244 271.751 87.6769C271.647 87.2498 271.471 86.373 271.233 86.3807C271.305 86.6415 271.039 87.485 271.012 87.5741C270.928 87.9312 271.106 87.7596 271.105 87.7875C271.076 88.3705 270.913 88.8249 271.073 89.0939C270.865 89.4966 270.827 89.8269 270.673 90.2695C270.586 90.5116 270.448 90.4093 270.427 90.5598C270.254 91.5516 270.846 90.7963 269.661 92.3631C269.665 92.1048 269.658 91.8504 269.648 91.5966C269.521 91.7712 269.391 91.9413 269.258 92.1095C269.213 92.2443 269.167 92.3775 269.119 92.5113C269.338 92.6257 269.557 92.7396 269.776 92.8537C269.711 93.0025 269.643 93.1514 269.574 93.2987C269.734 93.0695 269.889 92.8353 270.038 92.5974C270.088 92.5944 270.138 92.5928 270.188 92.5894C270.059 92.9932 269.915 93.394 269.755 93.7915C269.677 93.7542 269.599 93.7163 269.522 93.6788C269.126 94.5386 269.162 94.6108 268.44 95.1849C268.021 95.7349 267.379 95.9161 267.008 96.0919C266.949 96.2257 266.888 96.3598 266.823 96.494C266.71 96.5077 266.596 96.5208 266.483 96.5318C266.428 96.7252 266.368 96.9205 266.304 97.1138C266.076 97.0137 266.002 97.0005 266.434 96.4714C266.078 96.4424 265.293 97.3175 264.957 97.6818C264.709 97.9631 265.176 97.8993 265.157 97.9491C265.094 98.1245 264.544 98.4237 264.445 98.5079C264.029 98.8748 263.693 99.0698 263.286 99.3629C263.207 99.4203 263.038 99.6821 263.02 99.697C262.873 99.8066 262.504 100.074 262.457 100.097C260.084 101.253 262.425 99.6076 260.203 100.51C260.245 100.407 260.28 100.306 260.318 100.204C260.148 100.256 259.975 100.307 259.804 100.354C259.609 100.486 259.908 100.535 259.446 100.558C259.502 100.651 259.559 100.744 259.618 100.835C259.411 100.835 259.21 100.83 259.001 100.823C258.785 101.263 257.625 101.556 257.769 101.957C257.819 102.101 258.711 102.089 258.281 102.325C257.911 102.421 258.136 102.206 257.982 102.223C256.876 102.328 256.96 102.539 256.499 102.518C256.419 102.42 256.337 102.32 256.257 102.22C256.089 102.262 255.921 102.301 255.75 102.337C255.708 102.269 255.665 102.201 255.624 102.132C255.782 102.123 255.958 102.11 256.105 102.097C255.996 101.972 255.506 101.898 255.112 101.859C254.697 101.82 254.389 101.846 254.751 101.964C254.857 101.998 254.996 102.015 255.112 102.038C255.311 102.077 255.448 102.133 255.236 102.337C255.195 102.334 255.153 102.33 255.112 102.326C254.646 102.284 254.131 102.241 253.65 102.198C253.634 102.267 253.619 102.336 253.603 102.405C252.898 102.36 253.539 102.085 253.537 101.938C253.376 101.933 253.213 101.93 253.052 101.926C252.984 101.992 252.919 102.062 252.848 102.127C252.841 102.021 252.751 101.774 252.27 101.866C251.962 101.925 252.448 102.193 251.859 102.156C251.903 101.99 252.116 101.789 251.46 101.735C251.395 101.908 251.305 102.066 251.254 102.248C250.439 102.082 250.067 102.349 249.11 102.156C248.503 102.034 247.671 101.6 247.278 102.268C246.834 102.286 246.975 102.119 246.843 102.082C246.223 101.905 245.761 102.222 245.646 102.24C244.908 102.36 244.578 102.25 243.977 102.4C244.01 102.276 244.027 102.159 244.053 102.038C244.604 102.224 244.883 102.215 245.655 102.175C245.396 102.15 245.137 102.125 244.878 102.1C244.92 102 244.962 101.899 245.003 101.799C247.39 102.195 246.833 101.57 244.832 101.434C244.659 101.619 244.48 101.804 244.309 101.991C243.153 101.709 242.609 101.954 241.302 102.012C241.146 102.019 240.58 101.912 240.337 101.906C240.341 101.906 240.345 101.905 240.349 101.904C240.198 101.729 240.403 101.648 240.427 101.491C240.295 101.472 240.163 101.452 240.031 101.433C239.737 101.552 239.84 101.65 239.261 101.622C239.339 101.503 239.416 101.384 239.494 101.265C238.859 101.261 238.443 101.39 237.852 101.334C237.952 101.379 238.05 101.424 238.149 101.469C236.863 101.584 237.886 102.284 236.914 101.935C236.852 101.997 236.792 102.058 236.73 102.119C237.131 102.134 237.532 102.149 237.93 102.164C237.939 102.25 237.947 102.336 237.954 102.423C237.526 102.397 237.095 102.37 236.667 102.344C236.98 102.402 237.294 102.46 237.607 102.518C237.11 102.559 236.613 102.601 236.117 102.642C236.644 102.325 235.96 102.286 236.089 101.971C235.21 102.233 234.519 102.578 233.156 102.357C232.886 102.313 233.033 102.093 232.266 102.361C232.451 102.011 231.49 101.847 231.614 101.514C231.881 101.53 232.158 101.54 232.417 101.56C232.122 101.676 232.073 101.993 232.521 102.087C233.092 102.207 233.926 101.987 233.892 102.34C234.12 102.323 234.332 102.313 234.553 102.299C234.462 102.212 234.373 102.124 234.283 102.036C234.913 102.174 235.309 102.129 235.612 101.909C234.861 101.858 234.112 101.808 233.362 101.758C233.472 101.743 233.584 101.727 233.695 101.713C233.126 101.488 233.713 101.275 232.653 101.227C232.659 101.33 232.664 101.433 232.671 101.536C232.285 101.261 231.228 101.262 231.565 100.946C231.246 101.043 231.181 101.104 231 100.934C230.158 101.174 229.618 101.479 229.917 101.842C229.605 101.783 229.292 101.725 228.981 101.666C229.162 101.567 229.343 101.468 229.523 101.369C228.979 101.375 228.432 101.381 227.889 101.387C227.837 101.681 228.936 101.476 228.619 101.739C228.556 101.791 228.263 101.678 228.186 101.708C227.375 102.029 228.648 101.797 228.409 102.044C227.201 102.12 228.168 102.532 226.504 102.185C226.46 102.27 226.412 102.357 226.372 102.441C225.794 102.446 225.841 102.255 225.344 102.218C225.033 102.196 224.643 102.532 224.299 102.303C224.238 102.261 224.816 101.85 223.602 101.868C222.659 101.882 223.052 102.172 222.542 102.275C222.032 102.378 220.866 101.975 220.523 102.432C220.79 102.372 221.13 102.339 221.426 102.289C221.547 102.378 221.664 102.466 221.783 102.555C221.105 102.44 220.405 102.575 219.949 102.363C219.045 102.688 218.035 102.387 218.308 102.02C218.606 102.073 218.282 102.233 218.695 102.131C218.738 102.046 218.782 101.961 218.825 101.875C218.121 101.886 217.632 101.883 217.953 102.144C217.844 102.15 217.736 102.156 217.627 102.162C217.607 101.974 217.59 101.785 217.571 101.596C217.44 101.575 217.31 101.554 217.179 101.533C217.034 101.574 216.889 101.616 216.743 101.658C216.94 101.956 217.275 101.966 216.165 102.133C216.162 102.03 216.157 101.927 216.154 101.824C215.224 101.955 215.199 102.204 214.032 102.195C214.927 102.553 215.417 101.919 215.414 102.636C215.639 102.589 215.865 102.541 216.09 102.494C216.124 102.598 216.158 102.702 216.191 102.806C214.984 102.752 212.98 102.068 212.172 102.521C212.074 102.466 211.976 102.418 211.877 102.358C211.086 102.632 210.744 102.017 209.941 102.371C209.858 102.408 210.032 102.986 208.987 102.965C209.013 102.89 209.026 102.764 209.047 102.669C208.821 102.715 208.596 102.763 208.371 102.81C208.331 102.741 208.288 102.672 208.247 102.602C208.633 102.575 209.018 102.548 209.404 102.521C209.083 102.497 208.761 102.473 208.44 102.449C208.858 102.336 209.047 102.335 208.795 102.153C208.432 102.143 208.068 102.131 207.705 102.12C207.667 102.074 207.63 102.027 207.593 101.98C207.769 101.841 207.946 101.706 208.122 101.565C207.176 101.678 206.354 101.684 205.627 101.957C205.504 102.003 205.941 102.184 205.098 102.021C205.085 102.117 205.062 102.194 205.048 102.283C204.015 102.015 203.676 102.095 202.6 102.288C203.297 102.108 202.675 102.225 202.497 102.128C202.376 102.062 202.85 102.072 202.797 102.002C202.743 101.932 202.126 101.652 202.654 101.619C203.946 102.193 204.299 101.506 205.96 101.782C205.704 101.708 205.447 101.634 205.191 101.56C205.311 101.51 205.419 101.464 205.549 101.411C204.623 101.523 205.073 101.451 204.693 101.362C204.312 101.274 203.619 101.198 203.155 101.174C203.009 101.166 203.163 101.295 202.833 101.307C202.608 101.315 201.994 101.125 201.853 101.35C201.76 101.496 202.746 101.899 201.382 101.898C201.125 102.042 201.779 101.997 201.794 102.015C201.912 102.185 201.074 102.314 200.686 102.183C200.655 102.172 200.961 102.039 200.628 101.987C199.838 101.862 199.382 102.015 198.871 102.221C198.815 101.979 198.151 101.69 197.324 101.779C197.281 101.71 197.241 101.64 197.199 101.57C197.327 101.607 197.456 101.643 197.584 101.68C197.724 101.636 197.872 101.605 198.009 101.553C197.177 101.494 197.06 101.16 196.661 101.038C195.295 100.621 196.123 101.503 196.369 101.655C196.547 101.594 196.718 101.525 196.894 101.46C196.875 101.545 196.855 101.63 196.837 101.715C194.793 101.712 196.526 102.262 195.488 102.419C195.221 102.004 194.459 101.964 193.489 102.227C193.381 102.225 193.274 102.225 193.166 102.222C193.148 102.162 193.148 102.069 193.119 102.029C191.95 101.959 191.742 102.598 191.631 102.658C191.139 102.927 190.756 102.555 190.611 102.552C190.001 102.539 189.823 102.704 189.242 102.633C188.617 102.557 189.044 102.43 188.854 102.317C188.702 102.227 188.208 102.211 188.005 102.118C188.085 102.194 188.175 102.269 188.256 102.345C187.705 102.434 187.24 102.52 186.66 102.56C186.551 102.567 186.439 102.57 186.323 102.57C185.504 101.985 184.647 102.732 185.075 102.046C185.781 102.123 186.188 102.048 186.554 101.861C186.108 101.831 185.665 101.764 185.234 101.661C185.093 101.72 184.985 101.782 184.812 101.83C184.52 101.591 183.763 101.421 183.503 101.243C182.32 100.395 182.918 100.388 181.578 100.031C182.283 100.638 182.158 100.854 183.023 101.271C182.758 101.343 182.336 101.062 182.518 101.406C181.71 100.876 182.089 100.864 181.885 100.526C181.714 100.234 181.259 99.8322 181.413 99.7127C181.299 99.7494 181.196 99.7911 181.079 99.8239C180.646 99.4191 180.256 98.9681 179.919 98.4798C179.974 98.7492 180.044 99.0202 180.13 99.2906C179.972 99.1647 179.816 99.0317 179.665 98.8927C178.946 97.5479 177.793 95.1155 178.734 95.3581C178.64 94.6717 178.544 94.6006 178.359 94.2216C178.421 94.1762 178.473 94.1331 178.543 94.0891C178.526 93.9985 178.524 93.9111 178.53 93.8267C178.557 93.4929 178.716 93.2244 178.701 92.9107C178.686 92.5172 178.488 92.3745 178.873 92.3879C178.81 92.1219 178.779 91.8534 178.751 91.5765C178.877 91.4504 179.006 91.3297 179.136 91.2168C179.17 90.979 179.216 90.7403 179.274 90.5022C179.481 90.4564 179.846 89.5947 180.193 89.3375C180.26 88.9193 179.74 88.5167 180.498 87.861C180.591 87.9862 180.684 88.1099 180.779 88.2332C180.903 88.0564 181.035 87.8833 181.176 87.714C181.152 87.668 181.127 87.623 181.103 87.5768C181.03 87.6631 180.959 87.7497 180.89 87.8388C180.901 87.7104 180.914 87.5827 180.93 87.4539C181.27 87.3173 181.613 87.2056 181.955 87.1185C181.646 87.4526 181.369 87.8076 181.128 88.1766C181.591 87.8853 181.814 87.565 182.268 87.4025C182.485 87.0031 182.305 86.9771 182.029 86.8825C182.173 86.81 182.32 86.7401 182.467 86.6767C182.262 86.5398 182.413 86.2488 181.623 86.8111C181.638 86.719 181.659 86.6282 181.675 86.5344C181.815 86.4517 181.873 86.3474 182.039 86.2749C182.496 86.076 183.003 86.2873 183.034 86.4287C183.051 86.4995 182.591 86.5826 182.658 86.6683C182.83 86.8691 183.617 86.2935 182.519 87.2133C182.999 87.1124 183.021 86.958 183.469 86.6978C183.467 86.7921 183.467 86.8852 183.47 86.9782C183.661 86.8454 183.861 86.7206 184.068 86.6047C183.57 86.3032 185.326 85.5568 183.572 85.7364C184.049 85.5335 184.543 85.3735 185.05 85.2579C184.937 85.2332 184.822 85.2113 184.706 85.1913C184.479 85.2668 184.256 85.3509 184.038 85.4434C184.279 85.2821 184.532 85.1314 184.795 84.992C185.478 84.9589 185.756 85.1031 186.062 85.2718C185.334 85.4804 185.558 85.263 184.971 85.3259C185.014 85.4423 185.01 85.5578 185.083 85.6749C185.323 85.3543 186.319 85.4454 186.532 85.4695C186.581 85.4714 186.623 85.4724 186.66 85.4724C187.129 85.4717 186.71 85.2564 187.122 85.2515C187.567 85.2464 188.091 85.3948 188.454 85.1475C188.448 85.2861 188.419 85.4296 188.393 85.5558C189.085 85.6013 188.947 85.4375 189.018 85.4163C190.162 85.0676 190.782 85.362 192.089 85.3977C191.923 85.4407 191.756 85.4794 191.588 85.5198C192.574 85.8141 191.91 85.724 191.053 85.8213C191.856 85.7918 192.316 86.0425 192.883 86.117C193.449 86.1914 194.421 86.0626 194.776 85.9623C193.963 85.8008 193.087 85.9073 192.185 85.8628C192.287 85.7216 192.387 85.602 192.493 85.4468C193.042 85.7433 193.36 85.5451 193.54 85.5057C194.071 85.3904 194.054 85.6448 194.375 85.3712C194.362 85.4653 194.353 85.5445 194.34 85.6324C195.435 85.5931 196.618 85.4266 197.331 85.7743C197.396 85.5482 197.445 85.3303 197.52 85.0996C197.984 85.2698 198.381 85.0955 198.772 85.1353C199.161 85.1751 199.013 85.3579 199.471 85.4282C199.555 85.4412 199.732 85.3268 199.94 85.4111C200.151 85.4959 200.927 86.1264 201.02 85.5756C201.412 85.573 201.784 85.5529 202.168 85.5436C201.793 85.5125 201.419 85.4825 201.046 85.4514C201.365 85.3179 201.682 85.1848 202.001 85.0514C202.042 85.1704 202.083 85.2915 202.122 85.409C202.982 85.5539 203.606 85.3593 204.474 85.4053C204.618 85.4131 204.277 85.6484 204.92 85.5884C205.563 85.5284 206.04 85.0892 207.136 85.2589C207.191 85.2677 207.516 85.604 207.908 85.3712C207.997 85.3184 207.622 85.2403 207.827 85.171C208.032 85.1016 208.947 85.0446 209.019 84.8796C209.009 84.938 208.952 84.9986 208.924 85.0581C209.081 85.086 209.238 85.114 209.396 85.1414C209.411 85.0384 209.427 84.9353 209.442 84.8329C210.34 85.0724 210.805 85.4632 212.137 85.3339C211.762 85.4835 211.388 85.6336 211.015 85.7831C210.912 85.6781 210.809 85.5723 210.708 85.4673C210.095 85.5092 209.479 85.5508 208.865 85.5927C208.764 85.4732 208.665 85.354 208.564 85.2345C208.401 85.25 208.24 85.265 208.077 85.2805C208.118 85.3669 208.159 85.4529 208.201 85.5393C207.879 85.5181 207.556 85.4964 207.236 85.4752C207.889 85.9853 209.059 85.4318 208.975 85.8585C209.12 85.7923 209.265 85.7257 209.409 85.6589C209.473 85.8658 209.768 85.8063 210.287 85.7737C210.168 85.8756 210.037 85.9762 209.927 86.0791C210.432 85.9353 211.328 85.9493 211.85 85.8939C212.08 85.8696 211.851 85.7196 211.919 85.702C212.269 85.6099 212.938 85.8716 213.078 85.8509C213.915 85.7277 214.459 85.2315 215.373 85.5585C214.43 85.6393 214.943 85.6052 214.607 85.7868C214.502 85.8437 213.284 85.9625 214.81 85.9098C214.988 85.9032 217.756 85.5603 216.846 85.2976C217.294 85.3815 217.645 85.4784 218.055 85.5674C219.058 84.875 218.711 85.5254 218.42 85.8835C218.584 85.8851 218.741 85.8887 218.91 85.8887C218.55 85.5125 220.383 85.4892 221.006 85.6791C221.214 85.7422 220.631 85.8626 221.113 85.9195C221.343 85.8932 221.603 85.859 221.846 85.8295C221.494 86.0675 222.184 86.1593 222.174 86.4014C222.616 86.1856 222.953 85.7283 222.711 85.4804C223.075 85.5808 223.442 85.681 223.807 85.7819C223.637 85.8393 223.466 85.8963 223.296 85.9537C224.489 85.8016 226.021 86.1478 226.27 85.6391C226.428 85.6427 226.588 85.6459 226.746 85.6495C226.795 85.7354 226.842 85.8214 226.891 85.9073C227.606 85.8328 228.319 85.7578 229.033 85.6833C228.397 85.63 228.245 85.5078 227.578 85.6071C227.835 85.5083 228.097 85.4089 228.35 85.3101C229.354 85.5761 229.491 85.7509 231.004 85.6718C231.072 85.6681 232.215 85.4451 232.255 85.4234C232.434 85.324 232.162 85.1797 232.242 85.1295C232.463 84.9887 233.809 84.6353 233.783 84.582C233.454 83.9279 228.926 83.9193 227.701 83.8856C215 83.5369 202.578 84.0035 189.956 83.9238C189.826 83.9226 189.882 83.826 189.827 83.8219C189.484 83.7976 189.146 83.9481 189.019 83.9543C188.748 83.9671 188.897 83.8281 188.699 83.828C188.009 83.8285 187.333 83.8381 186.66 83.8497C185.058 83.873 183.483 84.2808 182.024 85.0331C181.881 85.1079 182.078 85.1265 181.823 85.2456C181.692 85.3048 181.21 85.3949 180.935 85.5866C179.979 86.2515 179.303 86.9766 178.578 87.9546C178.176 88.4889 177.69 89.3715 177.414 90.0657C177.289 90.3699 177.101 90.6706 177.006 90.986C176.875 91.4348 177.059 91.3824 177.05 91.453C177.02 91.7626 176.842 91.7691 176.792 92.0629C176.712 92.6119 176.816 92.654 176.763 93.3442C176.755 93.4693 176.742 93.6358 176.732 93.8267C176.696 94.3823 176.715 95.1419 176.784 95.6108C177.153 97.0493 177.88 98.7661 178.701 99.879C179.185 100.538 179.374 100.47 179.596 100.709C180.399 101.525 181.001 102.223 181.981 102.756C183.289 103.445 184.613 103.661 186.007 103.747C186.235 103.759 186.174 103.905 186.401 103.916C186.485 103.92 186.571 103.922 186.66 103.924C187.307 103.938 188.072 103.958 188.622 103.939C189.302 103.916 189.553 103.7 190.219 103.744C190.414 103.757 190.472 103.946 190.799 103.971C191.321 104.009 191.895 103.842 192.259 103.823C192.759 103.798 192.324 103.991 192.999 103.965C193.026 103.964 193.127 103.826 193.272 103.833C193.694 103.852 193.652 103.96 194.269 103.95C194.328 103.948 195.147 103.817 195.228 103.817C195.707 103.814 196.671 103.768 196.954 103.796C197.967 103.896 197.169 104.103 198.031 103.653C198.41 103.763 198.786 103.875 199.188 103.982C198.92 103.882 200.009 103.738 200.086 103.747C200.719 103.822 200.342 103.997 201.144 103.968C200.084 103.564 202.18 103.916 202.647 103.927C204.898 103.977 206.943 103.876 209.205 103.878C209.962 103.88 210.977 103.965 211.778 103.963C211.965 103.963 211.824 103.867 211.988 103.865C212.152 103.864 211.97 103.971 212.157 103.965C213.322 103.928 214.234 103.725 215.301 103.979C215.352 103.942 215.351 103.913 215.437 103.873C216.31 104.1 217.991 103.795 218.622 103.753C219.611 103.688 219.863 103.841 220.581 103.81C221.53 103.769 222.956 103.469 222.319 103.964C222.97 103.979 223.597 103.984 224.255 103.938C224.328 103.932 224.278 103.807 224.307 103.804C224.493 103.786 224.553 103.899 224.679 103.904C225.019 103.918 224.464 103.783 224.948 103.82C225.204 103.841 225.349 103.939 226.059 103.941C230.339 103.952 234.985 103.917 239.372 103.9C239.673 103.899 239.475 104.021 239.853 104.013C241.165 103.986 243.514 103.781 244.646 103.809C245.778 103.837 245.523 104.015 246.231 104.09C246.368 104.104 246.255 104.003 246.379 104.001C247.211 103.992 248.203 103.834 248.877 103.81C249.323 103.794 249.288 103.953 249.597 103.965C250.058 103.981 250.532 103.82 250.778 103.815C251.934 103.792 252.729 103.922 253.808 103.856C253.766 103.891 253.738 103.923 253.702 103.958C254.172 103.956 254.642 103.954 255.112 103.952C256.01 103.948 256.902 103.882 257.792 103.753C257.731 103.794 257.671 103.835 257.609 103.876C259.264 103.611 258.993 103.257 258.999 104.018C259.125 104.018 259.261 104.02 259.383 104.017C259.257 103.654 260.19 103.186 261.351 102.672C261.433 102.638 262.156 102.759 261.932 102.376C262.122 102.416 262.24 102.447 262.404 102.48C262.604 102.254 262.8 102.024 262.984 101.793C263.122 101.75 263.262 101.703 263.399 101.657C263.457 101.724 263.481 101.811 263.561 101.865C264.18 101.584 265.315 100.777 265.751 100.476C266.852 99.757 268.037 99.0207 268.578 98.1024C268.943 97.7573 268.725 98.239 269.218 97.6708C269.211 97.5509 269.203 97.4376 269.195 97.3142C269.879 97.1006 269.796 96.849 270.232 96.1371C270.521 95.6514 270.805 95.3979 271.076 94.9318C271.145 94.8134 271.039 94.7715 271.091 94.6942C271.266 94.4402 271.831 93.7341 271.931 93.5347C272.87 91.762 273.394 90.0846 273.684 88.2011C273.714 87.9978 273.779 88.2792 273.809 88.0678C273.856 87.7267 273.658 87.9009 273.679 87.7052C273.73 87.1607 273.914 87.1747 273.987 86.4075C274.027 85.9437 274.045 85.4726 274.042 84.9854C274.035 84.2381 274.018 83.4679 273.999 82.6924C273.969 81.2764 273.746 79.8559 273.399 78.5442C273.378 78.4629 273.48 78.4411 273.457 78.3521C273.306 77.7717 272.982 77.2438 272.789 76.743C272.466 75.9139 272.308 75.2398 271.869 74.4635C271.001 72.9562 269.972 71.7697 268.674 70.5593C267.601 69.5784 266.581 68.8117 265.173 68.0541C262.811 66.7945 260.125 66.072 257.405 66.0261C255.427 65.9853 253.446 65.9434 251.466 65.9266C249.143 65.9007 246.799 66.6944 244.992 68.1292C244.84 68.2504 244.96 68.2757 244.911 68.3084C244.449 68.6229 244.331 68.5748 244.357 68.8985C243.809 69.3405 243.501 69.367 242.961 70.0532C242.685 70.4282 243.126 70.3228 242.56 70.8695C242.092 71.3956 242.238 70.6002 241.489 72.5852C241.472 72.6396 241.535 72.9583 241.352 73.3497C241.178 73.753 241.178 73.2163 240.869 74.2395C240.658 75.0016 240.543 75.8611 240.55 76.7534C240.573 77.9626 240.27 79.3002 239.572 80.3448C239.525 80.4552 238.784 81.2686 238.588 81.371C238.234 81.5992 238.207 81.4454 237.791 81.7493C237.467 81.9736 237.28 82.2916 236.846 82.4918C236.795 82.5133 236.643 82.4207 236.337 82.5809ZM217.629 101.433C217.495 101.276 217.254 100.698 216.447 100.874C216.37 100.891 216.783 101.288 216.338 101.351C216.774 101.393 217.199 101.407 217.629 101.434C217.629 101.433 217.629 101.433 217.629 101.433ZM233.959 86.7954C234.643 86.7548 235.324 86.6445 235.982 86.4663C235.508 86.5016 235.036 86.502 234.575 86.4685C234.375 86.5837 234.171 86.6929 233.959 86.7954ZM264.569 98.0727C264.569 98.0724 264.57 98.0721 264.57 98.0717C264.04 98.3638 263.496 98.6239 262.944 98.8507C263.026 98.8677 263.107 98.8842 263.189 98.9C263.641 98.7373 264.089 98.5522 264.53 98.3465C264.544 98.2551 264.557 98.1638 264.569 98.0727ZM268.417 95.123C268.604 94.7666 268.456 94.7787 268.495 94.5417C268.495 94.5418 268.496 94.542 268.496 94.5421C268.507 94.4799 268.638 94.2501 268.691 94.1631C268.727 94.2328 268.755 94.3114 268.788 94.3841C269.467 93.6994 269.813 91.8969 268.45 93.697C268.541 93.7166 268.631 93.7367 268.722 93.7554C268.1 94.6866 267.411 95.7831 268.417 95.123ZM208.057 101.183C207.041 100.898 206.715 100.838 205.482 101.033C205.657 101.114 205.831 101.194 206.005 101.275C206.208 101.193 206.41 101.111 206.614 101.029C206.615 101.029 206.615 101.029 206.616 101.029C206.656 101.115 206.697 101.202 206.736 101.288C207.176 101.253 207.618 101.218 208.057 101.183ZM255.135 68.4649C254.852 69.0333 254.934 68.7029 255.743 68.8311C256.023 68.8756 255.75 68.975 255.924 68.9916C256.865 69.082 256.94 68.7012 256.73 68.503C256.198 68.4896 255.66 68.4773 255.137 68.4649C255.137 68.4649 255.136 68.4649 255.135 68.4649ZM240.408 83.2461C240.408 83.2465 240.407 83.247 240.407 83.2474C240.486 83.3647 240.799 83.0963 240.571 83.5187C240.819 83.2686 241.054 83.0045 241.274 82.7273C241.199 82.8004 241.122 82.8743 241.045 82.9447C241.068 82.8443 241.089 82.7434 241.109 82.6435C241.309 82.6468 241.314 82.4985 241.481 82.1718C241.562 82.3521 241.639 82.5355 241.712 82.7226C241.939 82.3364 242.14 81.9355 242.311 81.5279C242.276 81.5022 242.241 81.4764 242.206 81.4508C242.334 81.3347 242.459 81.2166 242.582 81.0916C242.556 81.0284 242.529 80.9672 242.502 80.9052C242.622 80.7441 242.738 80.5767 242.849 80.4067C242.753 80.304 242.552 80.6903 242.853 79.9825C242.654 80.1621 242.451 80.3292 242.242 80.4868C241.804 81.5052 241.179 82.4446 240.408 83.2461ZM262.151 69.4611C261.104 69.082 261.378 69.2824 261.534 69.62C261.736 69.5623 261.943 69.5097 262.151 69.4611ZM242.199 101.582C241.86 101.39 241.52 101.199 241.173 101.014C240.483 100.907 239.792 101.257 240.312 101.394C240.937 101.559 241.59 101.375 242.199 101.582ZM226.473 101.496C227.318 101.407 226.523 101.179 226.333 101.046C226.099 101.26 225.773 101.241 225.25 101.266C225.741 101.28 226.333 101.511 226.473 101.497C226.473 101.496 226.473 101.496 226.473 101.496ZM255.767 101.353C256.09 101.346 256.421 101.376 256.703 101.284C256.599 101.111 256.04 101.321 256.428 101.018C256.225 101.03 256.018 101.038 255.817 101.042C255.95 101.149 255.781 101.241 255.768 101.352C255.768 101.352 255.767 101.353 255.767 101.353ZM269.799 76.5357C270.266 77.0006 270.235 77.1609 270.322 77.796C270.522 77.8195 270.524 76.9994 270.367 76.5309C270.178 76.5304 269.988 76.5319 269.799 76.5357ZM213.57 86.4481C213.411 86.2225 212.234 86.1931 211.649 86.2598C211.719 86.2932 211.789 86.3271 211.858 86.3611C212.428 86.3901 213 86.4191 213.57 86.4481ZM225.001 101.281C225.088 101.274 225.171 101.269 225.25 101.266C225.162 101.263 225.078 101.267 225.001 101.281ZM189.626 102.26C189.905 102.473 189.077 102.544 190.082 102.461C190.082 102.461 190.082 102.461 190.082 102.461C190.746 102.406 190.893 102.392 191.509 102.375C191.287 102.102 190.038 102.004 191.759 101.948C191.782 101.948 191.737 102.11 192.012 102.088C192.097 102.081 192.368 101.948 192.782 101.909C192.915 101.897 193.919 101.855 192.551 101.853C192.592 101.662 192.518 101.47 192.521 101.285C191.987 101.231 191.577 101.604 191.012 101.595C190.174 101.58 189.747 101.203 189.586 101.698C190.291 101.82 191.502 101.823 191.66 101.525C192.342 101.521 192.538 101.765 191.988 101.886C189.631 101.733 191.341 102.248 189.278 102.053C189.253 101.984 189.168 101.91 189.181 101.845C188.551 102.088 189.527 102.184 189.626 102.26ZM194.554 101.734C194.147 101.588 193.741 101.442 193.335 101.296C193.335 101.533 193.559 101.746 194.2 101.879C194.318 101.83 194.437 101.782 194.554 101.734ZM187.15 85.9818C187.209 86.1106 187.365 86.2287 187.479 86.3513C187.603 86.2427 190.534 86.1384 189.043 86.0318C188.826 86.0163 187.505 86.2441 187.15 85.9818ZM267.446 72.8935C267.737 73.0678 268.023 73.2532 268.304 73.4506C268.015 73.0252 267.702 72.6117 267.365 72.2147C267.399 72.4426 267.425 72.6683 267.446 72.8935ZM236.579 101.808C236.725 101.803 236.241 101.626 236.815 101.654C236.387 101.54 235.986 101.444 235.567 101.338C235.442 101.422 235.315 101.505 235.19 101.589C235.092 101.535 234.993 101.482 234.895 101.428C234.954 101.55 235.006 101.669 235.068 101.793C235.773 101.531 235.934 101.828 236.579 101.808ZM257.57 102.112C257.655 101.834 256.636 101.81 257.612 101.635C257.402 101.489 257.094 101.445 256.527 101.479C256.441 101.553 256.355 101.626 256.267 101.699C256.242 101.521 256.087 101.467 255.767 101.353C255.767 101.353 255.767 101.353 255.766 101.354C255.436 101.361 255.24 101.367 255.112 101.393C254.9 101.434 254.87 101.526 254.738 101.706C254.882 101.681 255.005 101.666 255.112 101.659C255.695 101.615 255.795 101.824 256.35 101.924C256.798 102.004 257.368 101.883 257.57 102.112ZM184.191 86.3748C184.869 86.4112 184.357 86.7333 185.384 86.2795C185.304 86.2352 185.223 86.1926 185.141 86.1507C184.82 86.2049 184.503 86.2797 184.191 86.3748ZM260.517 100.464C260.59 100.876 260.08 101.378 259.791 100.763C260.313 100.46 260.159 100.906 260.517 100.464ZM226.761 102.139C227.942 102.12 227.719 101.656 227.233 101.425C227.158 101.509 227.084 101.593 227.01 101.677C226.803 101.639 226.597 101.601 226.39 101.563C226.514 101.755 226.638 101.947 226.761 102.139ZM271.951 85.2546C271.755 85.8038 271.753 85.2945 271.72 84.9854C271.7 84.7942 271.676 84.6763 271.607 84.9135C271.6 84.9372 271.594 84.9611 271.589 84.9854C271.49 85.4591 271.732 86.0386 271.921 85.8171C271.935 85.6467 271.945 85.4559 271.951 85.2563C271.951 85.2558 271.951 85.2552 271.951 85.2546ZM271.014 90.2855C270.76 90.0487 270.791 90.2787 271.044 89.6327C271.134 89.4504 271.362 87.8907 271.473 88.5915C271.351 89.1453 271.198 89.7246 271.014 90.2855ZM213.115 101.681C213.105 101.817 214.35 102.117 214.51 102.042C214.51 102.042 214.51 102.042 214.51 102.043C214.941 101.838 213.628 101.809 214.198 101.529C212.936 101.775 212.558 101.179 212.646 101.965C213.389 102 213.037 101.837 213.115 101.681ZM229.024 85.8054C229.024 85.8054 229.025 85.8054 229.026 85.8054C228.942 85.8118 228.253 86.0122 228.337 86.0816C229.165 86.0221 229.018 85.8902 229.789 86.1069C229.832 86.0371 229.868 85.9694 229.913 85.8991C229.607 85.8577 229.437 85.7738 229.024 85.8054ZM190.319 85.7065C190.015 85.6708 189.459 85.8188 189.112 85.81C190.216 86.3782 191.536 85.8483 190.319 85.7065ZM244.169 72.6141C244.17 72.6135 244.171 72.6129 244.171 72.6123C244.171 72.6123 244.17 72.6125 244.17 72.6125C244.17 72.6131 244.17 72.6136 244.169 72.6141ZM181.533 99.6774C181.481 99.6806 181.444 99.6904 181.419 99.7063C181.417 99.7083 181.416 99.7103 181.414 99.7122C181.452 99.7 181.491 99.6881 181.533 99.6774ZM210.527 101.639C210.008 101.83 211.736 102.133 212.295 102.06C212.256 101.973 212.25 101.895 212.159 101.795C211.708 102.02 210.613 101.607 210.527 101.639ZM249.933 101.709C248.566 101.715 250.344 102.466 250.418 101.867C250.415 101.855 249.968 101.71 249.933 101.709ZM221.301 101.718C221.649 101.946 220.95 102.006 222.068 101.967C222.133 101.908 222.198 101.849 222.264 101.79C221.943 101.766 221.622 101.742 221.301 101.718ZM240.982 102.696C239.263 102.569 237.618 102.346 238.738 101.718C238.868 101.738 239 101.758 239.131 101.778C239.15 102.084 239.63 101.917 240.333 101.907C240.434 102.029 240.823 102.057 240.897 102.16C241.038 102.36 240.59 102.5 240.982 102.696ZM251.263 67.775C251.292 67.8266 251.321 67.8787 251.349 67.9301C251.388 67.938 251.427 67.9462 251.466 67.9546C251.699 68.0051 251.933 68.0554 252.166 68.106C252.122 68.0057 252.078 67.9054 252.034 67.8051C251.844 67.7971 251.655 67.789 251.466 67.7809C251.399 67.7781 251.332 67.776 251.265 67.7747C251.264 67.7748 251.264 67.7749 251.263 67.775ZM196.229 102.38C196.073 101.805 196.619 101.91 197.726 102.201C197.228 102.261 196.728 102.32 196.229 102.38ZM267.537 97.2767C267.447 97.1357 267.356 96.9961 267.265 96.8553C267.792 96.552 267.858 96.7493 267.816 97.1105C267.723 97.1674 267.631 97.2218 267.537 97.2767ZM271.96 89.9041C271.922 90.1541 271.832 89.9935 271.827 90.0194C271.705 90.6418 271.737 90.752 271.364 91.4412C271.296 91.5167 271.227 91.5892 271.158 91.6625C270.975 91.2055 271.251 91.0367 271.295 90.2686C271.365 90.4317 271.433 90.5963 271.499 90.7636C271.615 90.3602 271.716 89.9549 271.802 89.5456C271.85 89.5073 271.897 89.4685 271.945 89.4294C271.952 89.586 271.961 89.7494 271.96 89.9041ZM248.204 68.5433C247.837 68.7036 247.48 68.8902 247.14 69.0982C247.086 69.032 247.032 68.9652 246.977 68.8995C247.381 68.7498 247.792 68.6307 248.204 68.5433ZM188.005 102.118C187.973 102.088 187.942 102.058 187.914 102.027C187.917 102.064 187.952 102.093 188.005 102.118ZM230.081 85.3428C230.535 85.2838 231.19 85.3225 231.688 85.3101C231.649 85.5217 230.382 85.4632 229.938 85.5915C229.866 85.5535 229.889 85.3676 230.081 85.3428ZM228.394 102.121C228.508 102.226 228.622 102.331 228.735 102.437C229.01 102.425 229.286 102.413 229.562 102.402C229.571 102.488 229.579 102.576 229.587 102.662C228.367 102.55 228.648 102.799 228.045 103.045C228.162 102.737 228.277 102.429 228.394 102.121ZM241.832 78.8002C242.08 78.0141 242.199 77.7079 242.388 78.2324C242.278 78.5248 242.152 78.8099 242.013 79.0835C241.954 78.9868 241.894 78.8915 241.832 78.8002ZM178.367 92.0169C178.637 91.309 178.313 91.1838 178.768 90.5508C178.673 90.9454 178.609 91.342 178.574 91.7361C178.504 91.8264 178.434 91.9217 178.367 92.0169ZM208.117 103.268C207.806 103.389 207.225 102.814 206.35 103.239C206.142 103.112 206.011 102.991 205.832 102.867C205.728 103.002 205.61 103.139 205.51 103.273C205.51 103.273 205.509 103.273 205.508 103.273C204.715 103.227 205.23 103.058 205.212 102.914C205.203 102.855 204.615 102.954 204.799 102.825C205.116 102.603 206.303 102.731 206.306 102.46C205.889 102.549 205.075 102.475 205.316 102.294C205.58 102.096 206.347 102.428 206.835 102.264C206.135 102.696 207.581 102.562 207.746 102.23C208.594 102.485 207.814 102.589 206.945 102.578C207.476 102.832 206.694 102.695 206.565 102.906C207.113 103.034 208.991 102.927 208.117 103.268ZM248.144 102.799C247.558 102.783 246.642 102.928 246.24 102.714C246.006 102.588 246.925 102.492 246.291 102.295C246.863 102.314 246.993 102.391 246.895 102.563C247.026 102.584 247.158 102.604 247.288 102.624C247.348 102.591 247.41 102.557 247.47 102.524C247.538 102.595 247.607 102.665 247.674 102.736C247.812 102.722 247.952 102.708 248.09 102.694C248.107 102.729 248.134 102.76 248.144 102.799ZM196.665 85.351C196.502 85.349 196.341 85.3469 196.178 85.3443C196.196 85.3024 196.218 85.2587 196.238 85.2155C196.253 85.1815 196.268 85.1474 196.283 85.1133C196.188 85.2351 195.413 85.4374 195.086 85.3074C194.922 85.2422 195.295 85.0106 194.599 84.9702C195.104 84.9821 195.571 85.0137 196.061 85.0334C196.017 84.9645 195.975 84.895 195.931 84.8262C195.931 84.826 195.932 84.8259 195.932 84.8258C196.095 84.8103 196.259 84.7941 196.422 84.7785C196.504 84.9695 196.584 85.1601 196.665 85.351ZM267.412 97.8528C266.899 98.1533 266.709 98.2179 266.762 97.8786C266.763 97.8782 266.763 97.8777 266.764 97.8772C266.985 97.8078 267.206 97.7331 267.427 97.6534C267.423 97.7193 267.418 97.7854 267.412 97.8528ZM183.003 102.065C182.6 101.417 182.996 101.528 183.403 101.762C183.813 101.999 184.313 102.344 184.011 102.402C183.977 102.417 183.146 102.042 183.003 102.065ZM226.544 102.394C226.868 102.401 227.193 102.407 227.519 102.414C227.444 102.516 227.367 102.618 227.292 102.719C227.043 102.611 226.793 102.503 226.544 102.394ZM241.874 74.9603C241.705 74.5512 241.895 73.5435 242.312 73.1937C242.248 73.4376 242.195 73.6816 242.15 73.9272C242.314 73.4871 242.508 73.068 242.731 72.6562C243.033 72.7695 242.619 73.166 242.463 73.9554C242.43 74.0838 242.623 74.9133 242.295 75.1177C242.219 75.1624 242.351 74.3328 242.057 74.8692C242.094 74.6127 242.149 74.3976 242.208 74.1594C242.14 74.122 242.072 74.0844 242.005 74.0444C241.946 74.3499 241.903 74.6543 241.874 74.9603ZM244.73 102.775C243.925 102.792 243.825 102.665 243.658 102.441C244.032 102.467 244.407 102.492 244.782 102.517C244.764 102.603 244.748 102.688 244.73 102.775ZM246.146 68.4868C246.542 68.1945 246.46 68.4636 246.644 68.3941C247.34 68.1487 247.74 67.8276 248.45 67.6714C248.394 67.653 248.342 67.6361 248.287 67.619C248.287 67.6188 248.288 67.6186 248.288 67.6184C249.908 67.0198 250.362 67.1608 250.088 67.246C249.823 67.3581 248.907 67.5979 247.962 67.9456C247.943 68.026 247.927 68.1057 247.911 68.1855C247.048 68.4086 246.29 68.7793 246.146 68.4868ZM193.71 102.867C193.674 102.909 193.979 103.179 193.407 103.053C192.955 102.659 193.697 102.854 193.883 102.703C193.728 102.665 193.57 102.628 193.417 102.591C194.342 102.479 194.477 102.573 194.14 102.861C194.116 102.88 193.746 102.825 193.71 102.867ZM187.631 103.061C187.504 102.481 188.672 102.742 188.629 102.922C188.468 102.929 188.343 102.831 188.172 102.874C187.999 102.918 187.955 103.053 187.631 103.061ZM221.075 102.919C221.041 102.922 220.697 103.165 220.731 102.975C221.156 102.523 222.012 102.814 221.863 102.971C221.579 102.963 221.391 102.895 221.075 102.92C221.075 102.919 221.075 102.919 221.075 102.919ZM240.91 79.9016C240.91 79.8819 241.087 79.1523 241.194 79.0844C241.315 79.0386 241.432 79.0313 241.551 79.0009C241.351 79.3914 241.074 80.21 240.911 79.9002C240.911 79.9006 240.91 79.9011 240.91 79.9016Z" fill="black"/>
<defs>
<filter id="filter0_d_94_141" x="0" y="0" width="256.262" height="107.389" filterUnits="userSpaceOnUse" color-interpolation-filters="sRGB">
<feFlood flood-opacity="0" result="BackgroundImageFix"/>
<feColorMatrix in="SourceAlpha" type="matrix" values="0 0 0 0 0 0 0 0 0 0 0 0 0 0 0 0 0 0 127 0" result="hardAlpha"/>
<feOffset dy="5"/>
<feGaussianBlur stdDeviation="2"/>
<feComposite in2="hardAlpha" operator="out"/>
<feColorMatrix type="matrix" values="0 0 0 0 0 0 0 0 0 0 0 0 0 0 0 0 0 0 0.25 0"/>
<feBlend mode="normal" in2="BackgroundImageFix" result="effect1_dropShadow_94_141"/>
<feBlend mode="normal" in="SourceGraphic" in2="effect1_dropShadow_94_141" result="shape"/>
</filter>
</defs>
</svg>
