<svg width="50" height="49" viewBox="0 0 50 49" fill="none" xmlns="http://www.w3.org/2000/svg">
<path d="M25.0002 0C11.1947 0 0 11.1928 0 25.0002C0 36.0459 7.16328 45.4172 17.0967 48.7229C18.3461 48.9543 18.8049 48.1805 18.8049 47.5201C18.8049 46.924 18.7814 44.9547 18.7709 42.8658C11.8158 44.3779 10.3482 39.916 10.3482 39.916C9.21094 37.0264 7.57227 36.2578 7.57227 36.2578C5.3041 34.7062 7.74336 34.7383 7.74336 34.7383C10.2537 34.9145 11.5756 37.3145 11.5756 37.3145C13.8055 41.1363 17.4242 40.0314 18.8508 39.3926C19.0752 37.777 19.723 36.6738 20.4381 36.0496C14.8852 35.4176 9.04785 33.2738 9.04785 23.6945C9.04785 20.965 10.0244 18.7348 11.6236 16.984C11.3641 16.3543 10.5084 13.8117 11.8658 10.368C11.8658 10.368 13.9652 9.69609 18.7428 12.9307C20.7369 12.3768 22.8756 12.099 25.0002 12.0895C27.1248 12.099 29.2652 12.3766 31.2631 12.9307C36.0348 9.69629 38.1312 10.3682 38.1312 10.3682C39.492 13.8115 38.6359 16.3545 38.3764 16.984C39.9793 18.7348 40.9492 20.965 40.9492 23.6945C40.9492 33.2967 35.1008 35.4109 29.5338 36.0299C30.4305 36.8057 31.2295 38.3271 31.2295 40.6596C31.2295 44.0045 31.2006 46.6967 31.2006 47.5201C31.2006 48.1855 31.6506 48.965 32.9178 48.7193C42.8457 45.4102 50 36.0424 50 25.0004C50 11.1928 38.8068 0 25.0002 0ZM9.36348 35.6133C9.3084 35.7375 9.11289 35.7748 8.93496 35.6895C8.75352 35.608 8.65176 35.4387 8.71035 35.3141C8.76426 35.1861 8.96016 35.1504 9.14102 35.2361C9.32266 35.3178 9.42617 35.4887 9.36348 35.6133ZM10.5932 36.7105C10.474 36.8211 10.2408 36.7697 10.0826 36.5951C9.91914 36.4209 9.88848 36.1877 10.0094 36.0756C10.1324 35.965 10.3584 36.0168 10.5223 36.191C10.6859 36.3674 10.7176 36.5988 10.5932 36.7105ZM11.4369 38.1145C11.2836 38.2209 11.0332 38.1211 10.8783 37.8988C10.7252 37.6766 10.7252 37.41 10.8816 37.3031C11.0369 37.1963 11.2836 37.2924 11.4404 37.5131C11.5932 37.7391 11.5932 38.0057 11.4367 38.1147M12.8633 39.7406C12.7264 39.8918 12.4344 39.8512 12.2207 39.6449C12.0021 39.4434 11.9414 39.1574 12.0789 39.0063C12.2176 38.8547 12.5111 38.8973 12.7264 39.102C12.9432 39.3031 13.0096 39.5912 12.8633 39.7406ZM14.7074 40.2895C14.6469 40.4854 14.3656 40.5744 14.0826 40.4912C13.7998 40.4055 13.6148 40.1762 13.6719 39.9783C13.7307 39.7811 14.0131 39.6885 14.2982 39.7775C14.5807 39.8627 14.7662 40.0904 14.7074 40.2896M16.8059 40.5227C16.8129 40.7287 16.5729 40.8996 16.2756 40.9035C15.9768 40.9102 15.7348 40.7434 15.7314 40.5402C15.7314 40.3322 15.9662 40.1629 16.2652 40.1578C16.5625 40.152 16.8059 40.3176 16.8059 40.5227ZM18.8674 40.4436C18.9029 40.6447 18.6965 40.8514 18.4012 40.9064C18.1111 40.9594 17.8424 40.8352 17.8055 40.6357C17.7695 40.4295 17.9799 40.2229 18.2695 40.1695C18.5652 40.1182 18.8297 40.2391 18.8674 40.4436Z" fill="#FFCC00"/>
</svg>
