<svg width="50" height="50" viewBox="0 0 50 50" fill="none" xmlns="http://www.w3.org/2000/svg">
<g clip-path="url(#clip0_94_75)">
<path d="M11.3637 43.6623V24.3439L5.37246 18.8629L0 15.8213V40.2531C0 42.1395 1.52832 43.6623 3.40918 43.6623H11.3637Z" fill="#C8FF00"/>
<path d="M38.6363 43.6621H46.5908C48.4773 43.6621 50 42.1336 50 40.2529V15.8213L43.9148 19.3051L38.6363 24.3437V43.6621Z" fill="#C8FF00"/>
<path d="M11.3637 24.3439L10.5484 16.7957L11.3637 9.57129L25 19.7986L38.6363 9.57129L39.5482 16.4057L38.6363 24.3439L25 34.5713L11.3637 24.3439Z" fill="#C8FF00"/>
<path d="M38.6363 9.57103V24.3437L50 15.821V11.2755C50 7.05971 45.1875 4.65638 41.8184 7.18471L38.6363 9.57103Z" fill="#98C202"/>
<path d="M0 15.8211L5.22637 19.741L11.3637 24.3438V9.57112L8.18164 7.18479C4.80664 4.65628 0 7.05979 0 11.2754V15.8211Z" fill="#98C202"/>
</g>
<defs>
<clipPath id="clip0_94_75">
<rect width="50" height="50" fill="white"/>
</clipPath>
</defs>
</svg>
