<svg width="474" height="122" viewBox="0 0 474 122" fill="none" xmlns="http://www.w3.org/2000/svg">
<path d="M0 31.918C0 15.3494 13.4315 1.91797 30 1.91797H444C460.569 1.91797 474 15.3494 474 31.918V91.918C474 108.487 460.569 121.918 444 121.918H30C13.4315 121.918 0 108.487 0 91.918V31.918Z" fill="#EBEBEB"/>
<path d="M2.01663 79.1654C2.2421 76.5977 2.0943 85.1694 2.43103 79.4775C2.45378 80.6644 2.47725 81.8587 2.5 83.0455C2.37529 83.3466 2.25089 83.6549 2.12618 83.956C2.08946 82.3621 2.05274 80.7674 2.01602 79.1654C2.01622 79.1654 2.01642 79.1654 2.01663 79.1654ZM0.454813 76.989C0.81051 78.4497 0.905344 83.0909 1.23358 78.0772C1.11151 77.6787 0.989464 77.2704 0.867391 76.8719C0.962069 75.1312 1.05672 73.3798 1.15088 71.6391C1.10435 71.0131 1.05775 70.3879 1.01173 69.7619C1.22386 68.9647 1.43656 68.1746 1.64921 67.3774C1.61816 68.0852 1.58658 68.8026 1.55553 69.5104C1.72779 72.3086 1.7749 74.7985 1.80698 78.5974C1.85717 78.2639 1.90693 77.9295 1.95712 77.5959C1.87175 79.5239 1.78616 81.4509 1.70078 83.3707C1.61698 81.7033 1.52378 79.8392 1.44567 78.2939C1.11306 80.7667 1.29818 85.1281 1.36755 87.3983C1.45987 90.4123 1.31185 89.8237 1.36573 91.918C1.36712 91.9697 1.36877 92.0231 1.37073 92.0782C1.38504 92.4291 1.50475 92.4681 1.53297 93.1532C1.47868 96.6627 3.57999 103.148 2.14808 99.4251C1.47682 96.8525 1.14118 94.3826 1.09897 91.918C1.05222 88.9219 1.00558 85.9617 1.0514 82.7768C0.716935 84.3371 0.60312 81.2297 0.454813 76.989ZM78.3941 120.398C76.5721 120.561 72.8616 120.495 70.3476 120.382C70.3447 120.382 70.3418 120.382 70.3389 120.382C69.7856 120.357 68.5328 120.142 70.3389 120.15C73.2833 120.165 74.7069 120.505 76.2524 120.275C76.944 120.318 77.6701 120.356 78.3941 120.398ZM84.7932 120.378C86.5992 120.461 85.78 120.717 83.5185 120.648C83.5185 120.648 83.5185 120.648 83.5185 120.649C82.5748 120.62 84.4275 120.417 81.043 120.623C80.3519 120.463 79.6711 120.318 78.9881 120.163C79.8168 120.16 80.5726 120.156 81.4419 120.154C80.8569 120.417 82.9875 120.295 84.7932 120.378ZM3.18851 102.162C3.51599 102.328 3.05452 101.281 2.70292 99.3946C3.17016 101.135 3.80624 102.831 4.59525 104.445C4.09225 103.709 3.62478 102.952 3.18851 102.162ZM1.34283 57.9565C1.34283 57.9537 1.34283 57.9508 1.34283 57.9479C1.30558 57.3215 1.26818 56.6933 1.23145 56.075C1.31579 55.7007 1.39977 55.3307 1.48412 54.9564C1.40495 52.7435 1.32578 50.5188 1.24609 48.3059C1.50374 48.5748 1.46182 52.547 1.64189 54.7353C1.56427 57.9893 1.41471 59.5573 1.19635 59.7687C1.24497 59.1669 1.29421 58.5665 1.34283 57.9565ZM472.05 101.656C472.223 100.941 472.365 100.232 472.483 99.5094C472.203 100.436 471.888 101.341 471.511 102.237C470.844 104.71 470.536 104.866 468.832 107.721C466.02 111.995 464.51 113.232 463.248 114.451C461.91 115.574 460.628 116.759 456.337 118.463C462.822 114.977 460.175 115.997 463.402 113.081C464.238 112.625 461.19 115.828 463.519 113.951C467.228 110.353 469.969 106.041 471.567 100.635C471.486 100.782 471.403 100.927 471.319 101.072C471.057 101.922 470.757 102.755 470.415 103.58C470.722 102.663 470.975 101.756 471.189 100.806C471.01 102.041 471.837 99.0172 471.925 99.4738C471.984 99.6831 471.73 101.072 471.53 101.887C472.315 99.8845 472.885 97.7333 473.204 95.5697C473.148 96.7007 473.025 97.839 472.838 98.9606C472.62 99.8676 472.36 100.757 472.057 101.64C472.054 101.646 472.052 101.651 472.05 101.656ZM86.7003 3.32031C89.499 3.0771 94.5847 3.03686 97.2614 3.30749C93.7387 3.31163 90.223 3.31617 86.7003 3.32031ZM1.01631 59.9812C1.05765 59.6643 1.09855 59.3573 1.1399 59.0404C1.21647 60.4394 1.29251 61.8467 1.36907 63.2457C1.24959 63.5141 1.13009 63.7886 1.01112 64.0651C1.01267 62.7069 1.01476 61.3394 1.01631 59.9812ZM40.4463 120.769C39.4228 120.776 39.3322 120.772 38.0575 120.755C38.059 120.755 38.0603 120.755 38.0618 120.755C37.5565 120.749 33.3288 120.679 33.8001 120.587C35.8991 120.585 38.1381 120.587 40.2859 120.587C40.3509 120.648 40.365 120.708 40.4463 120.769ZM16.8189 117.528C16.8166 117.527 16.8142 117.525 16.8118 117.524C16.1676 117.175 15.5756 116.809 14.9356 116.409C17.3462 117.659 17.6315 118.065 19.9632 118.911C22.3214 119.685 23.8206 119.88 25.8455 120.551C25.0606 120.492 24.2158 120.413 23.4071 120.289C20.0071 119.275 19.0933 118.996 16.464 117.857C16.5836 117.748 16.7006 117.638 16.8189 117.528ZM434.704 120.882C434.004 121.058 433.224 120.886 433.143 120.884C433.145 120.883 433.146 120.883 433.148 120.883C426.951 121.046 433.954 120.786 428.105 120.758C428.976 120.714 429.832 120.668 430.694 120.623C432.027 120.708 433.403 120.804 434.704 120.882ZM233.355 120.866C233.298 120.815 233.229 120.763 233.173 120.712C236.687 120.724 237.583 120.522 240.504 120.706C238.12 120.76 235.738 120.813 233.355 120.867C233.355 120.866 233.355 120.866 233.355 120.866ZM58.1608 121.141C54.2638 121.239 51.3811 121.282 47.6387 121.127C47.6358 121.127 47.633 121.126 47.6301 121.126C47.4143 121.117 48.4579 121.01 48.1763 120.983C47.4042 120.999 46.6068 121.023 45.8265 121.042C45.7208 120.957 45.6201 120.871 45.5144 120.785C47.7107 120.81 49.9084 120.834 52.1128 120.858C51.7875 120.808 51.4541 120.758 51.1287 120.708C52.9996 120.682 54.8636 120.657 56.7344 120.631C56.0838 120.771 55.4346 120.912 54.7922 121.053C55.9144 121.083 57.0385 121.111 58.1608 121.141ZM291.865 121.427C291.247 121.371 292.392 121.277 291.432 121.229C290.472 121.181 288.702 121.286 289.117 121.128C290.409 121.107 291.767 121.082 293.083 121.06C288.845 120.776 284.617 121.033 284.551 120.682C288.619 120.773 291.964 120.73 295.902 120.633C295.739 120.912 291.8 121.153 294.28 121.415C293.483 121.419 292.646 121.424 291.874 121.426C291.871 121.426 291.868 121.426 291.865 121.427ZM11.4291 5.26656C13.5016 3.68484 18.9101 0.951268 22.203 0.451593C23.0029 0.261093 25.7278 0.327198 25.7137 0.420884C25.6623 0.645415 22.5184 1.18748 25.917 0.809225C24.7816 0.958763 23.6845 1.1715 22.5786 1.44384C22.8132 1.54611 23.0444 1.65087 23.2663 1.75953C24.5945 1.4403 25.947 1.20937 27.3086 1.06827C27.3798 1.11356 27.4505 1.15922 27.5212 1.20498C22.6651 1.78517 25.5495 1.62069 23.1186 2.27114C25.3903 1.8405 27.7182 1.67447 30 1.76856C28.6778 1.75211 27.1336 1.85566 25.9753 2.00133C25.8545 2.25629 28.5913 1.92864 29.0636 1.99807C30.3947 2.1339 27.668 2.0664 24.5612 2.69906C21.4386 3.27202 18.1069 4.76491 17.7096 5.18414C19.6531 4.33313 21.7854 3.66505 23.9086 3.2614C23.3101 3.43608 22.7167 3.6302 22.1336 3.84213C17.3643 4.88086 12.2934 7.59472 8.24661 11.7411C7.89897 12.1316 7.56169 12.5319 7.24006 12.9333C7.42886 12.892 7.61175 12.8588 7.79994 12.8217C7.30238 13.4209 6.82341 14.0465 6.37614 14.6823C7.49791 12.6421 5.34511 15.0232 3.35802 18.4112C4.15646 16.4731 5.72884 14.41 5.42183 14.4115C2.08251 19.2454 -0.235219 25.8136 -0.110409 31.918C-0.097362 33.2848 -0.0734358 34.6199 -0.0325281 35.9067C0.0223128 37.6393 0.35185 37.6337 0.321458 41.7074C0.285236 41.5691 0.219841 41.5455 0.172235 41.456C0.330061 48.5015 0.424408 52.7761 0.263478 60.0982C0.381918 59.6754 0.500854 59.2595 0.619295 58.8366C0.560304 57.2827 0.500377 55.7262 0.441386 54.1804C0.63697 53.123 0.723287 54.6858 0.721219 50.0488C0.719666 46.2494 0.633308 48.5111 0.575352 47.4779C0.496231 46.0788 0.651879 44.851 0.563451 43.3462C0.495663 42.1828 0.334287 43.4414 0.375166 40.4068C0.584221 41.6272 0.800089 42.8721 1.01173 44.1006C0.964642 44.8409 0.916828 45.5756 0.869222 46.316C0.813335 45.5675 0.758185 44.8317 0.702299 44.0832C0.802678 46.719 0.897356 49.2095 1.00136 51.9347C0.699158 51.0479 0.81246 53.8648 0.848165 55.3943C0.903991 57.7769 0.696012 55.7357 0.730679 57.2976C0.765882 58.8595 0.998237 60.5442 0.948563 63.3671C0.814046 61.8541 0.693417 63.9123 0.569249 63.5145C0.445085 63.116 0.417591 60.1299 0.282092 62.9986C0.385064 68.5145 0.857919 62.5291 0.934526 66.2545C1.02663 70.7287 0.255839 71.7935 0.0901464 70.4599C-0.0402542 69.4104 -0.0140286 65.7991 -0.143912 64.7415C-0.378309 71.2091 0.0844258 71.2653 0.174981 72.3718C0.504576 76.3906 -0.375134 73.691 -0.0569409 78.45C-0.221451 78.3605 -0.369412 78.288 -0.527193 78.1986C-0.497185 79.0197 -0.457303 79.5649 -0.433509 80.557C-0.112974 77.6314 -0.126713 80.0261 -0.126212 81.255C-0.125177 83.1913 0.0311696 80.2006 0.0715316 80.7131C0.17954 82.0962 0.130497 84.2834 0.271717 82.9415C0.205999 83.5435 0.140089 84.1961 0.0748883 84.8144C0.156774 87.0765 0.843404 92.3931 0.70474 87.3333C0.959849 87.8052 0.837234 89.4419 0.798424 90.7192C0.780067 91.3238 0.806819 91.6368 0.836896 91.918C0.871213 92.2238 0.909028 92.4896 0.914165 93.062C1.11831 97.3927 0.614611 94.6105 0.342236 93.9139C0.661535 96.8201 0.84147 96.8192 0.93342 97.1592C1.09931 97.4776 1.03763 98.2016 2.44536 102.119C2.8698 102.805 1.79907 99.1611 2.94111 102.104C2.89145 102.727 3.34358 105.135 5.90392 109.005C6.22152 109.329 6.54526 109.644 6.8754 109.951C8.27122 112.032 7.09103 111.44 10.769 114.356C8.49872 113.114 9.86945 114.173 13.1915 116.831C13.8798 117.36 12.1445 116.345 13.1096 117.084C13.5494 117.421 14.7275 118.058 15.883 118.751C16.4251 119.112 19.1408 120.665 21.252 121.128C19.864 120.377 23.7531 121.28 20.5745 120.029C26.5594 121.94 31.1127 121.737 24.014 121.304C25.5727 121.717 27.1723 122.004 28.7939 122.162C29.194 122.152 29.5962 122.133 30 122.107C30.7291 122.058 31.4607 122.01 32.1917 121.962C32.3624 122.221 32.1908 122.293 36.6138 122.248C34.6946 122.309 32.7836 122.371 30.8563 122.432C30.7913 122.485 30.5232 122.539 30.5875 122.59C32.948 122.49 39.5942 122.447 41.205 122.379C42.8158 122.31 39.7051 122.291 40.1688 122.224C44.0324 121.674 43.7261 122.08 46.4985 121.985C48.1256 121.929 44.2407 121.869 45.1112 121.845C48.3389 121.758 49.8361 122.05 52.6981 122.054C51.6815 121.888 50.673 121.719 49.6807 121.552C52.6828 121.56 56.0292 121.562 58.8197 121.509C59.9152 121.488 59.0874 121.364 59.2663 121.356C60.1538 121.314 63.7656 121.246 64.148 121.246C67.0263 121.245 67.1085 121.416 69.9054 121.425C68.8075 121.44 67.775 121.453 66.7015 121.467C66.2134 121.744 65.7155 122.021 65.2275 122.299C67.9687 122.319 70.7111 122.339 73.4604 122.359C71.4512 122.267 69.4347 122.175 67.4255 122.082C70.5658 121.858 73.706 121.633 76.8464 121.409C78.4816 121.546 80.1102 121.684 81.7454 121.822C86.1861 121.785 85.2919 121.227 87.3987 121.716C88.708 121.675 90.0173 121.633 91.3266 121.593C91.1396 121.662 90.9544 121.732 90.7674 121.802C92.3457 121.759 93.9233 121.717 95.5016 121.673C93.8422 121.426 92.2155 121.166 90.5723 120.925C93.6781 120.872 93.7379 121.082 94.201 121.134C95.4295 121.273 97.8679 121.086 98.8442 121.214C99.1742 121.258 96.1305 121.396 97.1794 121.555C97.3844 121.586 101.46 122.172 104.06 122.037C104.011 121.93 103.81 121.8 103.704 121.685C107.201 121.621 108.984 122.174 108.521 122.33C110.384 122.221 113.107 122.212 113.489 122.042C114.441 122.038 115.386 122.034 116.338 122.03C115.346 122.443 119.316 122.368 119.576 122.012C117.941 122.003 116.304 121.994 114.668 121.985C115.905 121.55 110.936 121.287 121.276 121.69C123.253 121.917 117.761 121.659 119.372 121.829C122.171 121.928 124.798 121.845 127.458 122.003C130.768 122.2 126.695 122.39 134.408 122.139C117.396 121.51 136.741 121.714 144.73 121.519C146.927 122.14 153.674 122.337 162.965 122.152C161.997 121.979 159.074 122.068 157.39 122.011C155.706 121.954 157.528 121.852 155.43 121.771C153.332 121.69 148.875 121.581 146.75 121.459C148.55 121.361 157.43 121.13 151.558 121.407C155.942 121.579 158 121.755 163.433 121.787C165.06 121.517 164.94 121.349 170.235 121.341C167.103 121.716 173.121 121.976 171.796 122.363C168.041 122.273 170.14 121.897 167.968 121.717C167.745 121.699 164.246 121.793 163.433 121.787C166.964 122.125 168.185 122.25 166.013 122.652C168.51 122.617 170.064 122.668 170.292 122.476C170.812 122.559 171.336 122.642 171.848 122.726C172.661 122.724 173.393 122.716 174.254 122.717C173.068 122.428 175.368 122.606 177.003 122.475C178.638 122.343 176.444 122.115 180.935 122.112C179.438 122.044 178.07 121.986 176.621 121.922C179.517 121.847 182.422 121.772 185.318 121.698C183.284 121.521 178.877 121.258 178.997 121.025C180.331 121.113 184.901 120.958 185.401 120.952C187.337 120.928 186.282 121.075 186.428 121.079C189.47 121.15 191.976 121.1 193.131 121.322C195.416 121.222 197.141 121.279 199.564 121.274C200.899 121.271 200.639 121.107 201.42 121.138C206.61 121.345 201.665 121.556 211.678 121.154C210.465 121.041 209.27 120.924 208.057 120.809C209.188 120.766 210.313 120.723 211.443 120.68C212.2 120.701 212.95 120.722 213.707 120.742C213.69 120.989 213.671 121.236 213.654 121.483C214.484 121.497 215.318 121.51 216.147 121.523C214.724 121.548 213.296 121.572 211.873 121.596C211.743 121.64 211.621 121.683 211.491 121.727C213.606 121.794 215.714 121.862 217.829 121.929C217.87 121.844 217.91 121.757 217.951 121.671C222.718 121.791 222.832 121.863 227.363 121.627C230.853 121.63 233.695 121.271 235.713 121.12C236.437 121.168 237.162 121.216 237.894 121.264C238.357 121.193 238.826 121.122 239.29 121.051C240.209 121.15 241.141 121.249 242.06 121.348C242.572 121.123 242.838 121.052 239.251 120.973C240.479 120.693 246.794 120.816 249.365 120.911C251.316 120.982 249.152 121.216 249.396 121.244C250.21 121.341 253.424 121.258 254.1 121.274C256.955 121.34 258.956 121.329 261.535 121.38C262.037 121.391 263.44 121.539 263.559 121.544C264.487 121.569 266.776 121.641 267.036 121.643C280.465 121.754 266.116 121.111 278.603 121.178C278.229 121.094 277.885 121.009 277.519 120.925C278.463 120.919 279.416 120.914 280.359 120.909C281.555 120.98 280.108 121.109 282.483 121.005C282.329 121.11 282.174 121.214 282.011 121.318C283.044 121.262 284.04 121.206 285.098 121.149C286.757 121.512 292.816 121.595 292.385 122.02C292.239 122.165 287.944 122.314 290.213 122.469C292.058 122.499 290.809 122.326 291.562 122.317C296.996 122.254 296.681 122.496 298.902 122.432C299.251 122.328 299.619 122.222 299.977 122.117C300.814 122.147 301.654 122.178 302.5 122.208C302.695 122.138 302.899 122.069 303.094 121.999C302.305 121.994 301.416 121.989 300.692 121.985C301.702 121.714 310.974 121.593 307.438 121.823C305.998 121.917 303.361 121.877 305.028 122.197C307.509 122.151 310.324 122.104 312.935 122.058C313.017 122.126 313.092 122.195 313.174 122.264C316.693 122.22 313.492 121.944 313.499 121.797C314.304 121.793 315.117 121.789 315.922 121.785C316.264 121.852 316.588 121.922 316.946 121.986C316.978 121.88 317.429 121.633 319.829 121.725C321.371 121.785 318.942 122.052 321.884 122.015C321.664 121.85 320.601 121.648 323.878 121.595C324.203 121.767 324.653 121.926 324.905 122.107C328.98 121.941 330.835 122.208 335.618 122.015C338.653 121.893 342.809 121.46 344.77 122.127C346.99 122.145 346.285 121.979 346.942 121.941C350.042 121.764 352.348 122.081 352.925 122.1C356.609 122.219 358.261 122.109 361.262 122.259C361.099 122.135 361.011 122.018 360.881 121.898C358.131 122.083 356.738 122.074 352.882 122.034C354.175 122.01 355.469 121.984 356.762 121.959C356.551 121.859 356.341 121.759 356.138 121.659C344.211 122.054 346.993 121.429 356.992 121.293C357.854 121.479 358.748 121.664 359.602 121.85C365.378 121.569 368.096 121.813 374.628 121.871C375.405 121.878 378.233 121.771 379.449 121.766C379.429 121.765 379.409 121.764 379.388 121.764C380.145 121.588 379.12 121.508 378.998 121.351C379.657 121.331 380.316 121.312 380.975 121.292C382.447 121.411 381.929 121.51 384.825 121.481C384.435 121.362 384.049 121.243 383.659 121.124C386.832 121.12 388.908 121.249 391.861 121.193C391.365 121.238 390.875 121.284 390.379 121.329C396.806 121.443 391.691 122.143 396.548 121.795C396.857 121.856 397.158 121.918 397.467 121.979C395.466 121.994 393.464 122.008 391.471 122.023C391.431 122.11 391.387 122.196 391.354 122.282C393.494 122.256 395.644 122.229 397.784 122.203C396.222 122.261 394.65 122.319 393.088 122.377C395.569 122.419 398.051 122.46 400.532 122.502C397.897 122.184 401.313 122.145 400.671 121.831C405.064 122.092 408.515 122.438 415.325 122.217C416.675 122.173 415.941 121.953 419.773 122.22C418.845 121.871 423.645 121.706 423.029 121.374C421.695 121.39 420.312 121.4 419.018 121.42C420.491 121.535 420.735 121.852 418.498 121.947C415.643 122.067 411.478 121.847 411.648 122.199C410.51 122.182 409.451 122.173 408.345 122.159C408.8 122.071 409.246 121.983 409.693 121.896C406.546 122.033 404.568 121.988 403.055 121.768C406.805 121.717 410.547 121.667 414.297 121.617C413.745 121.602 413.185 121.587 412.632 121.572C415.472 121.347 412.543 121.134 417.839 121.086C417.807 121.189 417.781 121.292 417.748 121.395C419.676 121.12 424.956 121.122 423.271 120.805C424.866 120.902 425.191 120.964 426.094 120.793C430.3 121.034 433.001 121.338 431.504 121.701C433.066 121.643 434.629 121.584 436.182 121.526C435.279 121.426 434.376 121.328 433.473 121.228C436.19 121.234 438.927 121.24 441.636 121.246C441.897 121.54 436.406 121.335 437.99 121.598C438.307 121.651 439.769 121.538 440.154 121.568C444.205 121.889 437.845 121.657 439.039 121.903C443.282 121.956 442.157 122.176 444 122.181C444.788 122.173 446.119 122.162 448.562 121.702C448.794 121.752 449.043 121.799 449.261 121.847C452.13 121.28 451.852 121.126 454.205 120.308C455.66 119.768 457.612 119.253 459.005 118.184C459.208 117.943 456.673 119.245 461.688 115.914C465.35 113.007 464.014 114.424 465.921 112.716C467.906 110.999 470.709 105.832 471.705 104.386C471.1 105.594 470.258 107.094 469.401 108.317C469.146 108.874 468.881 109.413 468.595 109.952C470.558 107.13 472.183 103.924 472.703 101.665C474.588 97.4166 474.332 92.1422 473.919 93.538C473.867 95.026 474.171 93.426 473.864 95.476C473.755 95.677 473.642 95.8868 473.528 96.0827C473.788 94.2753 473.825 92.7464 473.862 91.918C473.896 91.159 473.96 91.0003 474.085 91.767C474.091 91.222 474.097 90.682 474.104 90.1369C473.915 90.0393 473.726 89.9527 473.538 89.8551C473.517 89.2043 473.496 88.5507 473.474 87.8998C473.516 87.1762 473.558 86.4509 473.6 85.7191C473.898 86.7035 473.907 88.3803 474.074 82.8318C473.971 82.8155 473.868 82.7916 473.766 82.7754C473.896 78.1302 474.146 78.0076 474.137 72.1753C474.494 76.6498 473.86 79.0979 474.578 79.0816C474.53 80.2044 474.483 81.3362 474.436 82.4589C474.54 82.6297 474.644 82.7991 474.748 82.9618C474.693 76.9338 474.009 66.9205 474.462 62.8845C474.407 62.3965 474.359 61.9066 474.3 61.4105C474.573 57.4565 473.959 55.7491 474.313 51.7382C474.35 51.3244 474.927 52.1903 474.906 46.9693C474.831 47.0993 474.705 47.167 474.611 47.2727C474.657 46.1423 474.705 45.0178 474.752 43.8955C474.682 43.6921 474.613 43.4788 474.543 43.2755C474.516 45.2037 474.489 47.1264 474.462 49.0546C474.438 47.4525 474.415 45.8401 474.391 44.2379C474.277 46.3282 474.276 47.271 474.095 46.0111C474.084 44.1969 474.072 42.3801 474.062 40.5659C474.015 40.379 473.968 40.1935 473.921 40.0066C473.783 40.8852 473.647 41.7726 473.506 42.6512C473.602 38.6609 473.621 35.1104 473.789 31.918C473.82 31.3289 473.839 30.7578 473.85 30.1926C473.826 29.5778 474.28 31.7276 473.648 27.5616C473.733 27.4836 473.793 27.3607 473.87 27.274C472.636 22.2347 472.144 20.5846 469.585 15.81C471.213 18.9184 469.758 16.1451 469.173 15.464C468.794 14.9853 470.065 16.9895 469.853 16.8021C469.676 16.5847 467.778 14.1893 469.159 16.392C472.698 21.6995 473.029 23.7347 473.724 31.8476C473.647 30.5775 473.49 29.3189 473.254 28.0791C473.28 28.6731 473.288 29.2028 473.28 29.8415C472.911 25.3274 473.049 27.5191 472.645 25.7106C472.205 23.8991 471.054 20.7238 469.972 18.7451C469.635 18.1209 470.119 18.7156 469.343 17.3067C468.836 16.3253 466.953 14.0081 466.66 13.3567C466.453 12.9152 469.957 16.3937 465.533 11.2608C464.757 10.2321 466.959 12.6382 466.987 12.7083C467.533 13.0401 464.833 9.76788 463.182 8.68876C463.056 8.59725 464.142 9.67831 462.833 8.65671C459.671 6.31203 457.695 5.18518 455.414 3.98986C455.057 4.1182 451.914 3.04708 447.865 2.44624C447.648 2.48803 447.442 2.53387 447.227 2.5807C447.861 2.61283 448.488 2.66472 449.121 2.7378C449.793 2.89854 450.504 3.08158 451.142 3.29354C447.134 2.46002 446.497 2.92317 444.579 2.94422C444.376 2.95304 444.184 2.96291 444 2.97332C438.027 3.30226 441.948 2.46864 443.14 2.32121C443.429 2.34129 443.715 2.36212 444 2.38333C444.584 2.42728 445.151 2.48911 445.729 2.56617C445.638 2.47641 445.544 2.38632 445.46 2.29733C444.925 2.27157 444.44 2.26075 444 2.25785C436.151 2.20705 443.646 1.70613 438.74 1.5577C437.406 1.97268 433.599 2.01267 428.751 1.74934C428.214 1.75141 427.675 1.75194 427.138 1.75453C427.049 1.81503 427.05 1.90752 426.904 1.94739C421.063 2.01776 420.022 1.37869 419.469 1.31815C417.012 1.04963 415.099 1.42116 414.375 1.42434C411.324 1.43728 410.438 1.27231 407.534 1.34317C404.41 1.41974 406.546 1.54632 405.596 1.65962C404.833 1.7496 402.369 1.76563 401.351 1.85889C401.756 1.78261 402.205 1.70781 402.608 1.63124C399.371 1.52725 396.726 1.42589 393.049 1.40054C388.9 1.95868 385.37 1.01717 386.802 1.78077C390.284 1.83303 392.231 1.92005 394.094 2.11462C391.808 2.13945 389.521 2.16363 387.235 2.18847C386.568 2.10466 386.095 2.02298 385.306 1.93762C383.598 2.11559 379.638 2.03922 378.083 2.09142C370.802 2.33618 373.054 2.63975 366.408 2.12957C371.198 2.07986 371.191 1.83207 375.941 1.86622C374.916 1.68925 372.502 1.72591 374.064 1.51376C369.468 1.56601 370.954 1.75543 369.165 1.92359C367.622 2.06855 364.515 2.07667 364.691 2.26506C364.373 2.16148 364.128 2.06121 363.811 1.95776C360.834 1.9588 357.857 1.95887 354.88 1.9599C356.149 1.85177 357.417 1.74344 358.686 1.63582C357.727 1.59498 356.767 1.55429 355.808 1.51345C348.486 1.84979 335.859 1.23336 337.877 2.0783C334.346 2.10521 333.904 1.99923 331.985 1.83936C331.773 1.90351 331.568 1.95686 331.356 2.02826C329.079 1.96111 327.33 2.20194 325.321 2.13933C323.312 2.07721 322.813 1.84973 322.521 2.2321C321.219 2.12242 319.925 2.03131 318.632 1.92938C317.851 2.01625 317.071 2.10212 316.299 2.18847C315.079 2.14293 313.856 2.09759 312.636 2.05206C311.984 2.23458 307.186 2.15591 305.07 2.27849C303.063 2.08174 303.118 1.46225 298.394 1.57326C298.516 1.72691 298.636 1.8801 298.758 2.03375C297.676 2.00167 296.592 1.9697 295.502 1.93762C295.437 1.88748 295.381 1.83733 295.316 1.78718C295.869 1.8027 296.415 1.81814 296.968 1.83417C296.488 1.74931 296.017 1.66484 295.546 1.57997C293.894 1.7057 292.241 1.83143 290.582 1.95715C292.818 2.05234 295.056 2.14759 297.293 2.24278C294.486 2.35559 292.532 2.24307 290.092 2.36882C287.969 2.15669 288.753 2.03446 289.615 1.80427C288.826 1.82392 288.028 1.8429 287.239 1.86255C287.759 1.63232 286.425 1.49514 291.037 1.51376C290.72 1.44809 290.396 1.38548 290.087 1.31723C289.331 1.32758 288.84 1.27207 288.011 1.2974C285.749 1.36674 284.015 1.77112 284.169 1.91291C284.253 1.98718 286.483 1.84514 286.394 1.95013C286.173 2.20617 281.057 2.09122 288.436 2.34837C285.987 2.51137 285.44 2.38844 282.739 2.34135C282.95 2.42667 283.156 2.51145 283.359 2.59677C282.106 2.55746 280.852 2.51829 279.6 2.47898C281.341 2.04071 272.107 1.8761 280.419 1.4927C277.963 1.47304 275.515 1.45328 273.067 1.43258C273.571 1.38757 274.075 1.34302 274.58 1.29801C275.686 1.32181 276.785 1.34522 277.892 1.3685C276.591 1.28625 275.287 1.20448 273.986 1.12223C270.91 1.22417 269.705 1.38096 268.298 1.57448C271.876 1.71571 270.707 1.5228 273.496 1.48446C273.398 1.60702 273.527 1.71975 273.283 1.84852C271.842 1.59465 267.142 1.77934 266.052 1.79176C262.734 1.82946 265.336 1.58003 263.117 1.57479C260.896 1.56961 258.276 1.71807 256.462 1.47073C256.494 1.60936 256.64 1.7528 256.77 1.87903C253.312 1.92457 254.002 1.76079 253.644 1.73957C247.933 1.39082 244.834 1.68525 238.301 1.72096C239.131 1.7639 239.969 1.80267 240.807 1.84302C235.878 2.13738 239.198 2.04725 243.477 2.14452C239.466 2.11503 237.17 2.36571 234.338 2.44022C231.507 2.51461 226.653 2.38586 224.878 2.28551C228.938 2.12406 233.317 2.23053 237.824 2.18602C237.312 2.04479 236.814 1.92527 236.285 1.77009C233.544 2.06651 231.955 1.86831 231.052 1.82899C228.4 1.71365 228.484 1.96806 226.881 1.69441C226.946 1.78855 226.994 1.8677 227.059 1.95563C221.584 1.9163 215.678 1.74987 212.115 2.09753C211.79 1.87142 211.544 1.65358 211.17 1.42282C208.852 1.59302 206.866 1.41873 204.914 1.45852C202.97 1.49836 203.71 1.68109 201.424 1.75148C201.001 1.76441 200.12 1.65004 199.078 1.73439C198.027 1.81918 194.149 2.44964 193.685 1.89887C191.725 1.89628 189.869 1.87614 187.949 1.86683C189.821 1.83578 191.692 1.80571 193.555 1.77467C191.961 1.64118 190.376 1.50809 188.782 1.3746C188.578 1.49362 188.374 1.61479 188.179 1.73225C183.884 1.87714 180.766 1.68255 176.43 1.72859C175.706 1.73635 177.414 1.97166 174.202 1.91168C170.988 1.85166 168.604 1.41247 163.129 1.58211C162.853 1.59091 161.231 1.92727 159.271 1.69441C158.825 1.64163 160.702 1.56354 159.678 1.49422C158.653 1.42488 154.079 1.36787 153.721 1.2028C153.77 1.26125 154.056 1.32182 154.194 1.38132C153.413 1.40925 152.624 1.43721 151.835 1.46462C151.762 1.36166 151.683 1.25855 151.61 1.15611C147.119 1.39568 144.799 1.78649 138.144 1.65718C140.015 1.80671 141.887 1.95684 143.75 2.10638C144.263 2.00133 144.776 1.89558 145.28 1.79054C148.347 1.83244 151.422 1.87405 154.489 1.91596C154.993 1.79642 155.489 1.67723 155.993 1.5577C156.807 1.57322 157.612 1.58826 158.425 1.60378C158.222 1.69019 158.017 1.77614 157.805 1.86255C159.416 1.84134 161.028 1.81968 162.631 1.79847C159.368 2.30853 153.521 1.75508 153.943 2.18175C153.219 2.11555 152.494 2.04889 151.77 1.98218C151.453 2.18906 149.981 2.12952 147.387 2.09692C147.981 2.19886 148.637 2.29941 149.182 2.40238C146.66 2.25855 142.186 2.27251 139.575 2.21715C138.428 2.19283 139.574 2.04284 139.232 2.0252C137.483 1.9331 134.14 2.19482 133.44 2.17412C129.259 2.05095 126.542 1.55475 121.978 1.88178C126.688 1.9625 124.125 1.92841 125.801 2.11004C126.326 2.16698 132.412 2.28578 124.791 2.23302C123.898 2.22642 110.071 1.88358 114.616 1.62087C112.379 1.7047 110.627 1.80162 108.577 1.89063C103.565 1.19826 105.3 1.84869 106.756 2.20677C105.934 2.20833 105.153 2.21196 104.306 2.21196C106.104 1.83577 96.9442 1.81241 93.8364 2.00232C92.7951 2.06545 95.7068 2.18586 93.2988 2.24278C92.1522 2.2164 90.8514 2.18224 89.6397 2.15276C91.3969 2.39078 87.9483 2.4825 87.9966 2.72463C85.7921 2.50887 84.1058 2.05154 85.3173 1.80366C83.4953 1.90403 81.6637 2.00427 79.8417 2.10516C80.6878 2.16259 81.5449 2.21953 82.3909 2.27696C76.4356 2.12483 68.7783 2.47101 67.5335 1.96234C66.7444 1.96596 65.9468 1.96909 65.1577 1.97272C64.9136 2.05862 64.6777 2.14468 64.4337 2.23058C60.8629 2.15608 57.3003 2.08109 53.7296 2.00659C56.909 1.95328 57.6658 1.83102 61 1.9303C59.7151 1.83151 58.4064 1.73217 57.1459 1.63338C52.1262 1.89935 51.4415 2.07415 43.8838 1.99499C43.5421 1.99137 37.8318 1.76833 37.6365 1.74659C36.742 1.64725 38.0999 1.50292 37.7015 1.45272C36.5951 1.31197 29.8717 0.958563 30.0019 0.905265C31.6453 0.251193 54.2664 0.242523 60.3844 0.208888C123.842 -0.139862 185.903 0.326722 248.962 0.247033C249.61 0.2458 249.327 0.149245 249.603 0.14511C251.32 0.120859 253.005 0.271341 253.64 0.277549C254.995 0.290344 254.249 0.151312 255.239 0.151213C265.474 0.152765 275.132 0.234521 285.375 0.210719C286.042 0.209167 285.361 0.320405 286.532 0.300741C287.137 0.289975 289.03 0.119313 290.395 0.11673C295.162 0.107937 299.167 0.16265 304.195 0.160062C306.945 0.158518 311.07 0.173025 314.145 0.170438C315.502 0.169338 316.917 0.0912634 318.259 0.0886548C320.163 0.0850326 319.774 0.243305 320.067 0.253136C321.352 0.296076 321.53 0.122361 322.75 0.126495C325.02 0.134774 325.142 0.250757 328.022 0.24093C330.081 0.233685 334.791 0.142112 337.387 0.115204C343.456 0.249731 351.104 0.196324 356.766 0.151823C360.118 0.125443 360.428 0.287832 361.795 0.287314C366.611 0.284169 370.265 0.0767664 374.788 0.07004C380.791 0.0612769 386.11 0.198418 391.926 0.208278C392.869 0.209829 392.653 0.0610406 393.578 0.0572232C397.003 0.0432518 401.383 0.0161718 404.434 0.0373877C407.834 0.060703 409.088 0.276671 412.415 0.232691C413.391 0.219632 413.677 0.0302682 415.311 0.00595617C417.922 -0.0322757 420.786 0.134711 422.608 0.153349C425.105 0.178187 422.933 -0.0147291 426.301 0.0111439C426.44 0.0122608 426.944 0.150163 427.667 0.143584C429.774 0.124955 429.565 0.0163579 432.649 0.0267072C432.944 0.0281364 437.033 0.159536 437.439 0.160062C439.106 0.161505 441.95 0.184285 444 0.188507C444.948 0.190128 445.723 0.231419 446.18 0.253995C451.498 0.763371 447.408 -0.0664208 451.759 1.28378C453.721 1.66745 455.646 2.2256 457.626 3.04099C456.331 2.46581 461.373 5.26028 461.64 5.58932C464.385 7.48819 462.981 6.06685 466.135 8.93354C461.753 5.39755 470.159 12.6934 471.105 15.1507C474.327 20.2994 475.884 26.1268 475.861 31.918C475.842 37.2048 475.819 42.5026 475.82 48.0618C475.821 51.8447 475.906 56.9141 475.904 60.9163C475.904 61.8492 475.809 61.1442 475.806 61.9654C475.805 62.7845 475.913 61.8758 475.907 62.8108C475.87 68.6275 475.667 73.185 475.92 78.5137C475.884 78.7731 475.855 78.7648 475.814 79.1943C475.985 82.4687 475.855 88.0193 475.762 91.918C475.732 93.2908 475.615 94.4596 475.518 95.2825C474.759 100.434 474.341 101.754 472.833 105.232C470.859 109.946 465.276 115.149 467.945 113.004C465.666 115.605 463.06 117.762 460.021 119.485C459.682 119.675 459.851 119.432 459.715 119.507C458.851 119.973 458.619 120.214 458.024 120.516C456.403 121.301 459.007 119.938 456.692 121.042C455.45 121.56 454.806 122.086 451.145 122.996C448.823 123.53 446.419 123.803 444 123.802C424.548 123.804 403.89 123.774 384.27 123.759C382.765 123.758 383.756 123.88 381.868 123.872C375.311 123.845 363.574 123.641 357.92 123.669C352.266 123.696 353.541 123.874 350.003 123.949C349.32 123.963 349.88 123.862 349.262 123.86C345.104 123.851 340.148 123.693 336.78 123.669C334.553 123.653 334.731 123.813 333.186 123.824C330.884 123.841 328.514 123.68 327.286 123.674C321.51 123.652 317.54 123.781 312.146 123.715C312.357 123.75 312.497 123.783 312.675 123.817C306.289 123.812 299.912 123.806 293.526 123.8C293.827 123.832 294.118 123.865 294.419 123.897C286.926 123.88 287.781 123.532 288.44 124.266C287.895 124.292 287.318 124.322 286.797 124.346C287.009 123.968 282.476 123.691 276.709 123.595C276.286 123.587 273.447 123.956 273.756 123.521C273.016 123.627 272.575 123.701 271.948 123.794C270.728 123.662 269.492 123.532 268.272 123.401C267.613 123.42 266.945 123.439 266.286 123.459C266.189 123.544 266.264 123.633 266.052 123.717C262.994 123.73 256.72 123.624 254.303 123.635C248.299 123.662 242.186 123.893 237.517 123.644C235.242 123.669 237.501 123.837 234.118 123.816C233.735 123.731 233.376 123.649 232.977 123.562C230.212 123.941 229.635 123.711 225.846 123.631C223.283 123.578 221.605 123.67 219.165 123.652C218.546 123.647 218.634 123.536 218.211 123.54C216.794 123.551 212.752 123.704 211.751 123.709C202.689 123.749 194.903 123.732 186.272 123.691C185.345 123.687 186.547 123.796 185.587 123.792C184.043 123.785 184.951 123.616 184.057 123.608C181.561 123.585 181.542 123.763 178.061 123.773C166.598 123.803 153.419 123.669 141.444 123.658C141.07 123.658 141.092 123.762 140.685 123.763C138.034 123.768 135.35 123.627 132.942 123.629C128.948 123.631 125.945 123.777 122 123.777C114.287 123.776 107.396 123.701 99.4642 123.697C92.972 123.693 87.3336 123.707 80.215 123.707C63.6041 123.706 46.8119 123.8 30 123.86C14.171 124.257 -0.495452 111.03 -1.76153 95.3284C-1.84125 94.4848 -1.71321 94.8204 -1.7404 94.5639C-1.88083 93.0712 -1.92402 92.4123 -1.90962 91.918C-1.89736 91.6227 -1.85438 91.3957 -1.75272 91.0747C-1.80401 88.1314 -1.99952 87.2026 -1.98556 83.6482C-1.97823 81.7537 -1.6752 83.1681 -1.83145 79.9631C-1.9727 77.0691 -2.13878 80.2627 -1.96908 71.6564C-1.96441 71.4286 -1.7797 70.3072 -1.82779 68.5176C-1.87539 66.7196 -2.00766 68.8008 -2.0475 64.4727C-2.13468 54.9621 -2.00038 43.0857 -2.02312 31.918C-2.02457 31.098 -1.99657 30.2945 -1.93903 29.4855C-2.10758 28.6724 -0.598347 21.1726 0.174126 19.8217C1.27371 17.1168 0.817126 17.5569 2.77722 14.2742C4.38756 11.7939 6.0643 9.98713 8.61766 7.65717C8.92715 7.40204 9.28606 6.77077 11.4291 5.26656ZM473.374 90.1456C473.217 89.4784 472.64 88.2745 472.816 84.2408C472.832 83.8584 473.229 85.9225 473.293 83.6945C473.334 85.8747 473.348 87.9979 473.375 90.1456C473.375 90.1456 473.375 90.1456 473.374 90.1456ZM29.2566 3.12952C26.3609 3.17235 23.4556 3.6549 20.6943 4.56489C22.5696 3.85291 24.5299 3.33701 26.5196 3.02944C27.4407 3.01922 28.3516 3.05363 29.2566 3.12952ZM252.253 120.99C252.25 120.99 252.247 120.99 252.244 120.99C255.417 120.916 258.592 120.841 261.765 120.766C261.431 120.821 261.097 120.876 260.763 120.931C258.258 121.018 255.751 121.104 253.254 121.19C252.921 121.124 252.586 121.057 252.253 120.99ZM227.185 121.571C225.16 121.506 225.655 121.396 224.541 121.289C224.541 121.289 224.541 121.289 224.541 121.289C224.247 121.261 222.876 121.237 222.347 121.233C222.542 121.302 222.794 121.37 223.006 121.438C218.279 121.604 209.035 121.012 221.003 120.774C220.824 120.861 220.653 120.947 220.474 121.034C226.421 121.01 233.051 121.198 227.185 121.571ZM473.124 42.326C472.881 37.9982 472.802 36.1768 472.905 31.918C472.922 31.2025 472.921 30.4261 472.879 29.5462C473.018 30.3305 473.126 31.1159 473.202 31.918C473.207 31.9696 473.212 32.0212 473.217 32.0728C473.134 33.0898 473.053 34.0993 472.97 35.1163C472.97 35.1191 472.97 35.122 472.97 35.1249C473.057 35.3283 473.143 35.5323 473.23 35.7275C473.194 37.9239 473.159 40.1296 473.124 42.326ZM32.855 121.365C31.44 120.797 31.8482 121.127 35.8898 120.999C37.2891 120.955 35.9254 120.855 36.7959 120.838C41.4967 120.748 41.8727 121.129 40.8235 121.327C38.1631 121.341 35.4751 121.353 32.8636 121.365C32.8608 121.365 32.8579 121.365 32.855 121.365ZM2.75614 20.4141C2.75725 20.4114 2.75836 20.4088 2.75947 20.4062C2.93046 20.3515 2.25766 22.0734 3.18307 20.1993C2.54705 21.6514 2.02907 23.1552 1.63647 24.7008C1.73888 24.2442 1.85606 23.7797 1.98037 23.3297C1.81422 23.7098 1.65468 24.0963 1.50385 24.4873C1.52387 25.0751 1.27936 25.5545 0.948023 27.1985C1.19004 26.767 1.44062 26.3511 1.70077 25.9408C1.25746 27.8022 0.999616 29.72 0.931521 31.6435C0.888401 31.6669 0.845234 31.6909 0.80217 31.7144C0.806792 31.7823 0.811651 31.8501 0.816745 31.918C0.866582 32.5956 0.916822 33.2682 0.966568 33.9471C0.91535 34.1504 0.864596 34.3463 0.813377 34.5497C0.852173 35.4524 0.890941 36.3566 0.930254 37.2593C0.806184 37.5341 0.752563 35.5445 0.784082 39.0715C0.656803 37.9896 0.529909 36.91 0.402631 35.82C0.405172 34.5193 0.407743 33.2187 0.410335 31.918C0.414977 27.9745 1.21226 24.0371 2.75614 20.4141ZM69.6236 121.19C63.7906 121.214 65.4334 121.124 66.7839 120.843C67.7273 120.959 68.6801 121.074 69.6236 121.19ZM370.145 121.441C371.838 121.249 373.537 121.059 375.27 120.874C378.719 120.766 382.17 121.116 379.575 121.254C376.451 121.418 373.188 121.234 370.145 121.441ZM448.606 120.997C444.489 121.41 448.341 120.768 449.207 120.439C450.352 120.439 451.919 120.117 454.314 119.252C452.096 120.141 449.294 120.924 448.606 120.998C448.606 120.998 448.606 120.997 448.606 120.997ZM302.227 121.225C300.536 121.231 298.853 121.284 297.341 121.219C297.797 121.036 300.822 121.203 298.659 120.931C299.741 120.926 300.824 120.921 301.897 120.916C301.215 121.029 302.133 121.113 302.223 121.225C302.224 121.225 302.225 121.225 302.227 121.225ZM126.14 120.974C129.459 121.191 130.088 121.098 133.432 120.948C133.903 121.125 129.916 121.421 127.419 121.486C126.996 121.316 126.571 121.145 126.14 120.974ZM130.982 2.77132C131.779 2.54577 137.659 2.51636 140.581 2.58304C140.233 2.61649 139.884 2.65039 139.536 2.68435C136.688 2.71333 133.83 2.74234 130.982 2.77132ZM455.444 118.815C455.049 118.976 454.673 119.121 454.314 119.252C454.71 119.1 455.09 118.95 455.444 118.815ZM409.454 1.71669C410.845 1.50403 406.711 1.43259 411.73 1.51589C411.73 1.51569 411.73 1.51548 411.73 1.51528C415.05 1.57013 415.782 1.58478 418.858 1.60134C417.75 1.87452 411.512 1.97216 420.111 2.02856C420.224 2.02881 419.998 1.86626 421.372 1.88849C421.796 1.8954 423.153 2.02881 425.218 2.06762C425.885 2.08004 430.898 2.12118 424.064 2.12377C424.268 2.3142 423.901 2.50694 423.917 2.69167C421.25 2.74536 419.2 2.37248 416.378 2.38163C412.188 2.39612 410.056 2.77318 409.25 2.27849C412.773 2.15695 418.823 2.15402 419.612 2.45151C423.02 2.45514 423.999 2.2114 421.251 2.09081C409.478 2.24398 418.019 1.72902 407.711 1.92359C407.589 1.99239 407.165 2.06643 407.23 2.13109C404.084 1.88898 408.958 1.79275 409.454 1.71669ZM434.071 2.24278C432.037 2.38819 430.009 2.53476 427.984 2.68069C427.984 2.4437 429.101 2.23103 432.306 2.09753C432.891 2.14613 433.485 2.1947 434.071 2.24278ZM262.978 2.30504C262.685 2.43388 261.904 2.55195 261.335 2.67459C260.717 2.56592 246.072 2.46168 253.523 2.35508C254.604 2.33956 261.204 2.56739 262.978 2.30504ZM103.093 121.168C104.818 121.254 106.535 121.341 108.252 121.427C105.61 121.482 102.965 121.539 100.323 121.594C101.249 121.452 102.167 121.31 103.093 121.168ZM398.221 121.667C397.493 121.662 399.913 121.485 397.042 121.513C399.182 121.4 401.186 121.304 403.277 121.197C403.903 121.281 404.536 121.364 405.162 121.448C405.651 121.394 406.148 121.341 406.637 121.287C406.344 121.409 406.083 121.528 405.774 121.653C402.251 121.391 401.443 121.688 398.221 121.667ZM293.474 122.145C292.84 121.879 297.941 121.721 292.923 121.679C293.875 121.505 295.405 121.413 298.342 121.398C298.814 121.464 299.284 121.53 299.756 121.597C299.821 121.419 300.576 121.352 302.227 121.225C302.228 121.225 302.23 121.226 302.231 121.226C306.696 121.213 306.429 121.272 307.503 121.566C302.776 121.4 302.635 121.668 299.413 121.828C297.201 121.937 294.312 121.887 293.474 122.145ZM278.581 2.30198C275.239 2.52603 278.238 2.735 272.308 2.49698C272.69 2.44006 273.074 2.38362 273.457 2.3267C275.165 2.31791 276.873 2.30975 278.581 2.30198ZM276.977 121.235C277.36 121.646 280.507 121.966 281.044 121.297C277.977 121.161 279.475 121.54 276.977 121.235ZM447.276 121.822C445.752 121.98 444.689 121.957 444 121.906C442.406 121.783 442.822 121.562 444 121.391C444.267 121.352 444.571 121.312 444.897 121.271C445.265 121.344 445.635 121.411 446.003 121.47C447.018 121.364 448.025 121.206 449.022 120.997C448.451 121.289 447.875 121.564 447.276 121.822ZM173.001 121.686C177.509 121.393 168.136 121.523 171.285 121.34C173.798 121.193 177.111 121.489 175.858 121.674C174.988 121.68 174.019 121.683 173.01 121.686C173.007 121.686 173.004 121.686 173.001 121.686ZM199.083 121.602C198.343 121.289 199.41 121.38 195.849 121.437C194.832 121.453 186.751 121.335 190.144 121.595C193.031 121.595 196.082 121.599 199.083 121.602ZM473.622 67.5971C473.759 67.5429 474.058 73.7655 473.983 74.5641C473.984 74.5641 473.984 74.5641 473.984 74.5641C473.78 76.7201 473.751 70.1562 473.47 73.0034C473.717 66.6986 473.12 64.8123 473.906 65.2517C473.941 68.9657 473.779 67.2073 473.622 67.5971ZM53.7772 2.12865C53.7744 2.12865 53.7715 2.12865 53.7686 2.12865C54.1864 2.13507 57.6296 2.33543 57.2109 2.40482C53.0703 2.34532 53.8082 2.21344 49.9534 2.43015C49.7421 2.36035 49.561 2.29265 49.3335 2.22234C50.863 2.18094 51.7108 2.09709 53.7772 2.12865ZM247.145 2.02978C248.667 1.99408 251.443 2.14203 253.176 2.13323C247.66 2.7014 241.068 2.17158 247.145 2.02978ZM0.454203 76.976C0.454406 76.9803 0.45461 76.9846 0.454813 76.989C0.454505 76.9877 0.454207 76.9859 0.453898 76.9846C0.454 76.9818 0.454101 76.9789 0.454203 76.976ZM365.038 2.37065C364.842 2.33376 364.731 2.30173 364.691 2.2736C364.691 2.27096 364.691 2.26832 364.691 2.26567C364.797 2.3002 364.91 2.33513 365.038 2.37065ZM473.581 54.6646C473.771 52.0729 474.074 60.7079 474.002 63.5002C473.915 63.305 473.836 63.2746 473.736 62.8195C473.961 60.5657 473.549 55.0958 473.581 54.6646ZM331.508 121.569C338.334 121.574 329.451 122.326 329.085 121.726C329.098 121.714 331.332 121.57 331.508 121.569ZM469.251 107.485C468.473 109.033 470.596 106.273 467.253 110.73C467.003 110.944 466.75 111.154 466.494 111.36C467.515 110.143 468.439 108.845 469.251 107.485ZM376.224 122.556C384.815 122.429 393.031 122.205 387.435 121.578C386.785 121.598 386.126 121.617 385.475 121.637C385.378 121.944 382.979 121.776 379.466 121.766C378.966 121.888 377.018 121.916 376.653 122.019C375.946 122.219 378.184 122.36 376.224 122.556ZM14.2689 117.631C14.415 117.659 14.5578 117.684 14.703 117.71C15.9011 118.354 17.1404 118.914 18.4083 119.386C18.168 119.393 17.9263 119.398 17.6842 119.399C16.5119 118.885 15.3748 118.296 14.2762 117.636C14.2738 117.634 14.2714 117.633 14.2689 117.631ZM442.442 1.59676C442.034 1.89794 442.587 2.01239 444 2.01135C445.284 2.01429 447.286 1.97786 449.912 2.35488C447.979 1.9221 445.992 1.68073 444 1.63397C443.48 1.62156 442.961 1.60916 442.442 1.59676ZM238.176 122.322C237.997 122.159 237.821 121.996 237.634 121.833C234.697 122.003 235.242 122.19 236.649 122.406C237.162 122.378 237.664 122.35 238.176 122.322ZM195.871 122.392C197.089 122.426 196.467 122.294 196.595 122.297C199.678 122.366 200.112 122.427 203.896 122.327C204.359 122.293 204.815 122.256 205.278 122.221C203.53 121.878 202.26 122.065 198.559 121.864C199.226 121.981 199.89 122.099 200.557 122.217C198.499 122.192 196.45 122.167 194.392 122.142C194.148 122.179 193.904 122.215 193.66 122.251C194.391 122.297 195.147 122.35 195.871 122.392ZM3.64738 106.247C2.70139 104.484 1.93138 102.618 1.35932 100.703C1.25732 100.658 1.15567 100.615 1.05381 100.569C1.71854 102.55 2.59262 104.46 3.64738 106.247ZM401.351 1.85889C401.193 1.88881 401.038 1.91891 400.9 1.94952C400.914 1.91221 401.087 1.88309 401.351 1.85889ZM48.4967 1.66603C46.2273 1.60705 42.9569 1.64578 40.4675 1.63338C40.6632 1.84496 46.9903 1.78648 49.2121 1.91474C49.5691 1.87677 49.456 1.69085 48.4967 1.66603ZM439.113 121.98C438.544 122.086 437.975 122.191 437.414 122.296C436.039 122.285 434.661 122.273 433.278 122.261C433.237 122.348 433.197 122.435 433.156 122.521C439.249 122.409 437.844 122.658 440.86 122.904C440.275 122.596 439.699 122.288 439.113 121.98ZM-0.53879 43.1815C-0.480318 47.5828 -0.371104 49.1439 -0.11187 46.6628C-0.171358 45.1094 -0.230901 43.5469 -0.290389 41.9936C-0.373162 42.3921 -0.456017 42.7911 -0.53879 43.1815ZM321.194 1.66359C317.511 1.76045 317.45 1.41254 313.85 1.60683C315.777 1.67098 317.705 1.73585 319.624 1.8C320.143 1.75464 320.675 1.70895 321.194 1.66359ZM475.21 42.6252C475.331 41.0713 474.756 38.1666 475.18 33.7983C475.089 33.0485 475.001 32.5003 474.912 31.918C474.877 31.6837 474.84 31.4453 474.8 31.1891C474.923 30.6523 475.029 30.0354 475.122 29.5092C475.122 29.5062 475.122 29.5033 475.122 29.5002C474.633 25.4096 474.752 28.0924 474.611 28.0108C474.581 27.972 474.143 24.9804 474.185 25.9338C474.279 27.0104 474.664 29.9965 474.569 31.918C474.539 32.8849 474.493 33.5717 474.401 33.5772C474.422 33.0994 474.434 32.5171 474.437 31.918C474.468 29.8711 474.08 27.6609 474.057 28.6102C474.032 29.2667 474.171 30.5101 474.205 31.918C474.243 33.369 474.289 34.9766 474.205 36.2218C474.637 32.7243 474.504 39.948 474.172 40.7696C474.427 45.0082 474.531 41.1124 474.519 36.768C474.774 39.4202 474.636 35.5163 474.848 34.8735C474.975 37.6083 474.869 46.9935 475.21 42.6252ZM340.443 122.659C343.373 122.642 347.95 122.788 349.955 122.573C351.124 122.448 346.536 122.351 349.7 122.154C346.845 122.174 346.194 122.25 346.682 122.423C346.032 122.443 345.373 122.463 344.723 122.484C344.422 122.45 344.113 122.417 343.812 122.383C343.47 122.454 343.127 122.524 342.793 122.595C342.102 122.581 341.403 122.567 340.712 122.553C340.631 122.589 340.493 122.62 340.443 122.659ZM215.44 1.67427C216.254 1.6722 217.059 1.67014 217.872 1.66756C217.783 1.6256 217.676 1.5819 217.573 1.53878C217.5 1.5047 217.426 1.47063 217.352 1.43655C217.824 1.5583 221.698 1.76065 223.331 1.63063C224.151 1.56541 222.284 1.33385 225.763 1.29343C223.242 1.30534 220.906 1.33694 218.458 1.3566C218.677 1.28777 218.888 1.21822 219.108 1.14939C219.107 1.14929 219.105 1.14919 219.104 1.14909C218.29 1.13357 217.467 1.11731 216.654 1.10179C216.247 1.29273 215.847 1.48333 215.44 1.67427ZM240.56 122.646C243.334 122.511 244.263 122.44 242.953 122.222C242.95 122.222 242.947 122.222 242.945 122.222C241.911 122.319 240.878 122.415 239.845 122.512C240.081 122.556 240.316 122.601 240.56 122.646ZM377.454 1.1381C371.556 1.96757 384.839 1.45909 382.31 1.17655C382.196 1.16362 378.008 1.22969 377.454 1.1381ZM448.391 121.938C446.94 122.155 445.477 122.265 444 122.271C443.829 122.272 443.658 122.273 443.487 122.273C443.657 122.32 443.828 122.366 444 122.412C444.212 122.467 444.424 122.521 444.635 122.572C445.899 122.439 447.163 122.226 448.391 121.938ZM-0.915358 62.344C-1.14304 64.048 -1.22553 68.422 -0.977916 70.5596C-0.948938 69.4368 -0.919923 68.3137 -0.890945 67.191C-0.862496 69.3135 -0.831179 71.4122 -0.804279 73.551C-0.487075 73.6649 -0.671099 71.2 -0.583648 67.4901C-0.569545 66.9157 -0.175804 63.2435 -0.47257 61.9755C-0.533566 61.7204 -0.575042 65.6268 -0.752402 62.9119C-0.766359 64.0991 -0.763264 65.1237 -0.771017 66.2458C-0.846566 66.3272 -0.922202 66.4078 -0.997751 66.4973C-0.970397 65.1097 -0.942712 63.7315 -0.915358 62.344ZM357.499 122.634C361.523 122.652 362.02 122.525 362.858 122.301C360.986 122.326 359.114 122.351 357.243 122.377C357.332 122.462 357.41 122.548 357.499 122.634ZM-0.29324 98.4725C0.188766 100.696 0.153567 99.702 0.424441 100.571C1.54898 103.816 2.43782 106.021 4.34485 108.832C4.19157 108.664 4.05174 108.508 3.90681 108.342C3.9084 108.345 3.90998 108.347 3.91157 108.35C8.41277 115.068 10.6202 115.681 9.53377 114.887C8.60483 113.985 5.36098 110.773 3.07269 106.54C3.02512 106.311 2.98465 106.09 2.94216 105.861C0.836985 102.134 -0.0108589 98.211 -0.29324 98.4725ZM429.857 1.10972C429.678 1.06729 431.199 0.797644 428.343 0.92388C426.082 1.31758 429.791 1.12217 430.719 1.27359C429.946 1.31137 429.156 1.34812 428.391 1.38589C433.012 1.49715 433.687 1.40353 432.003 1.11583C431.882 1.09649 430.036 1.15202 429.857 1.10972ZM399.487 0.91564C398.852 1.49572 404.684 1.23487 404.473 1.05479C403.668 1.04761 403.042 1.14583 402.188 1.1024C401.326 1.05894 401.105 0.923443 399.487 0.91564ZM470.865 107.115C470.965 106.972 471.999 105.511 471.742 105.578C470.455 107.381 468.129 111.051 468.685 110.528C469.55 109.354 470.037 108.508 470.866 107.115C470.866 107.115 470.866 107.115 470.865 107.115ZM-1.05207 35.8026C-1.06825 35.8839 -1.16625 40.1663 -1.07526 40.719C-0.972824 41.1744 -0.863036 41.4005 -0.756979 41.7421C-0.855297 39.3828 -0.780402 34.6072 -1.05207 35.8113C-1.05207 35.8084 -1.05207 35.8055 -1.05207 35.8026Z" fill="black"/>
</svg>
