<svg width="232" height="48" viewBox="0 0 232 48" fill="none" xmlns="http://www.w3.org/2000/svg">
<path d="M2.07727 16.9941C2.07727 8.70987 8.793 1.99414 17.0773 1.99414H215.077C223.362 1.99414 230.077 8.70987 230.077 16.9941V31.9941C230.077 40.2784 223.362 46.9941 215.077 46.9941H17.0773C8.793 46.9941 2.07727 40.2784 2.07727 31.9941V16.9941Z" fill="#EBEBEB"/>
<path d="M4.7059 35.9466C4.59074 34.9334 5.56897 38.1203 5.13764 35.9345C5.3015 36.3588 5.48997 36.7753 5.69875 37.1779C5.63296 37.3341 5.57128 37.4946 5.51156 37.656C5.20312 37.1107 4.933 36.5394 4.70532 35.9468C4.70551 35.9467 4.70571 35.9467 4.7059 35.9466ZM2.95538 35.4923C3.44172 36.0562 4.17 37.8592 3.8284 35.7475C3.66541 35.6197 3.50296 35.4819 3.34395 35.3445C3.25839 34.592 3.23508 33.8377 3.27132 33.0964C3.20414 32.8357 3.14427 32.5726 3.09241 32.3064C3.15484 32.2009 3.21849 32.0969 3.28329 31.9941C3.43091 31.7415 3.57871 31.4895 3.72648 31.2359C3.70239 31.4874 3.67796 31.7415 3.65372 31.9941C3.64673 32.0599 3.64022 32.1255 3.63421 32.1909C3.83403 33.3349 3.98112 34.3314 4.43866 35.7922C4.44824 35.6495 4.45967 35.5073 4.47392 35.366C4.58883 36.1283 4.77381 36.8879 5.02703 37.6294C4.66218 37.0532 4.30823 36.3687 4.05714 35.7759C3.99632 36.8682 4.94594 38.5025 5.52771 39.2402C6.31459 40.2575 6.03012 40.1076 6.6822 40.81C6.78942 40.9191 6.89292 40.8522 7.09399 41.0719C8.05567 42.2402 10.505 43.9142 8.90832 43.1655C6.90817 41.6323 5.30609 40.0067 4.33388 37.6751C4.33007 38.4171 3.55648 37.2909 2.95538 35.4923ZM47.7156 45.4743C46.8816 45.6368 45.183 45.5712 44.0322 45.4584C44.0309 45.4584 44.0296 45.4584 44.0282 45.4584C43.775 45.4336 43.2015 45.2177 44.0282 45.2265C45.3761 45.2416 46.0278 45.5814 46.7352 45.3507C47.0518 45.3937 47.3842 45.4319 47.7156 45.4743ZM50.6449 45.4542C51.4716 45.5375 51.0967 45.7935 50.0614 45.7242C50.0614 45.7244 50.0614 45.7247 50.0614 45.7249C49.6294 45.6959 50.4775 45.4935 48.9282 45.6989C48.6118 45.5391 48.3002 45.3937 47.9875 45.239C48.3668 45.2365 48.7129 45.2323 49.1108 45.2302C48.843 45.4929 49.8183 45.3715 50.6449 45.4542ZM10.0565 43.7539C10.2817 43.6086 9.8415 43.3721 9.2693 42.7561C9.89229 43.2187 10.5564 43.6275 11.2479 43.9732C10.8513 43.919 10.456 43.8471 10.0565 43.7539ZM3.4201 26.9233C3.4201 26.922 3.4201 26.9207 3.4201 26.9194C3.38285 26.6326 3.34545 26.3451 3.30872 26.062C3.39306 25.8907 3.47704 25.7213 3.56139 25.55C3.48222 24.537 3.40305 23.5186 3.32337 22.5056C3.58101 22.6287 3.53909 24.447 3.71916 25.4488C3.64154 26.9383 3.49198 27.6561 3.27362 27.7529C3.32225 27.4774 3.37148 27.2026 3.4201 26.9233ZM228.375 38.2314C228.451 37.9011 228.514 37.5736 228.566 37.2434C228.378 37.6359 228.181 38.0197 227.953 38.3925C227.695 39.5468 227.414 39.5322 226.552 40.7452C225.149 42.5614 224.494 43.1372 223.901 43.6698C223.285 44.1584 222.636 44.638 220.611 45.1458C223.578 43.7299 222.292 43.9715 223.691 42.662C224.145 42.5632 222.851 44.1011 223.97 43.3657C225.662 41.7647 226.93 39.8967 227.816 37.5767C227.756 37.6296 227.696 37.6813 227.636 37.7327C227.492 38.0961 227.335 38.4523 227.16 38.8046C227.29 38.3915 227.396 37.9848 227.486 37.5632C227.455 38.1385 227.898 36.8376 228.038 37.0891C228.108 37.2038 228.003 37.8346 227.927 38.2124C228.395 37.3724 228.783 36.4552 229.073 35.5163C229.03 36.0301 228.958 36.5452 228.86 37.0553C228.716 37.4535 228.556 37.841 228.379 38.2247C228.378 38.2269 228.376 38.2292 228.375 38.2314ZM43.0327 3.39648C44.3138 3.15327 46.6419 3.11303 47.8672 3.38366C46.2546 3.3878 44.6453 3.39234 43.0327 3.39648ZM3.09358 27.8502C3.13493 27.7051 3.17582 27.5646 3.21717 27.4195C3.29374 28.0599 3.36978 28.7041 3.44635 29.3446C3.32686 29.4674 3.20736 29.5931 3.08839 29.7196C3.08994 29.0979 3.09203 28.4719 3.09358 27.8502ZM30.3444 45.8448C29.8759 45.852 29.8344 45.8481 29.2509 45.8311C29.2516 45.8312 29.2522 45.8313 29.2529 45.8314C29.0216 45.825 27.0863 45.7552 27.302 45.6632C28.2629 45.6617 29.2878 45.6632 30.271 45.6632C30.3008 45.7237 30.3072 45.7838 30.3444 45.8448ZM19.0342 45.7911C19.0329 45.7909 19.0316 45.7907 19.0302 45.7905C18.6805 45.7765 18.3492 45.748 17.9883 45.7429C19.2877 45.5981 19.493 45.8578 20.6735 45.7844C21.8538 45.7104 22.5833 45.567 23.5849 45.9229C23.2125 45.9762 22.8115 46.0524 22.4279 46.1145C20.7521 45.9723 20.3009 46.1062 18.9568 46.2464C18.9829 46.0943 19.0081 45.9432 19.0342 45.7911ZM210.822 45.9586C210.502 46.1345 210.144 45.9619 210.107 45.9598C210.108 45.9596 210.109 45.9594 210.109 45.9592C207.273 46.1221 210.479 45.8618 207.801 45.8344C208.2 45.7904 208.591 45.744 208.986 45.6995C209.597 45.7844 210.226 45.8805 210.822 45.9586ZM118.651 45.9421C118.625 45.8909 118.594 45.8396 118.568 45.7883C120.177 45.8002 120.587 45.5986 121.924 45.7822C120.833 45.836 119.742 45.8895 118.651 45.9427C118.651 45.9425 118.651 45.9423 118.651 45.9421ZM38.4535 46.2174C36.6696 46.3152 35.35 46.3583 33.6369 46.203C33.6356 46.2028 33.6343 46.2026 33.6329 46.2024C33.5341 46.1929 34.0119 46.0857 33.883 46.0587C33.5295 46.0747 33.1645 46.0994 32.8073 46.1185C32.759 46.0327 32.7128 45.9469 32.6644 45.8616C33.6698 45.8859 34.6759 45.9102 35.685 45.9345C35.536 45.8843 35.3834 45.8346 35.2345 45.7844C36.0909 45.7585 36.9442 45.7327 37.8006 45.7068C37.5028 45.8475 37.2056 45.9883 36.9115 46.1295C37.4252 46.159 37.9397 46.1874 38.4535 46.2174ZM145.435 46.5027C145.152 46.4468 145.676 46.3531 145.237 46.305C144.797 46.2575 143.987 46.3617 144.177 46.204C144.769 46.1828 145.39 46.1584 145.993 46.1362C144.053 45.8517 142.117 46.1091 142.087 45.7578C143.949 45.8489 145.48 45.8066 147.283 45.7093C147.208 45.9882 145.406 46.2293 146.541 46.4911C146.176 46.4947 145.793 46.5 145.439 46.5021C145.438 46.5023 145.437 46.5025 145.435 46.5027ZM7.83146 2.15618C8.8951 1.44591 11.5956 0.145815 13.2375 0.0085367C13.6443 -0.0570028 15.0112 0.257365 15.0051 0.33714C14.9891 0.564706 13.4889 0.818919 15.1265 0.737111C14.5828 0.803454 14.0587 0.901197 13.5281 1.02268C13.6568 1.15266 13.7829 1.28373 13.9024 1.41683C14.5268 1.26637 15.1663 1.15316 15.8069 1.0789C15.8425 1.12748 15.8778 1.1763 15.9128 1.22511C13.6298 1.47494 14.9955 1.51704 13.8789 1.89784C14.9478 1.76726 16.0282 1.75123 17.0773 1.84474C16.4691 1.8312 15.7569 1.87004 15.2229 1.9236C15.1852 2.18169 16.4328 2.00863 16.6494 2.06589C17.2573 2.20249 16.017 2.19464 14.609 2.48473C13.1948 2.74976 11.6774 3.4047 11.5348 3.6815C12.4292 3.35356 13.3971 3.10346 14.3525 2.96279C14.0907 3.06121 13.8268 3.16855 13.5743 3.28151C11.4046 3.55428 9.0565 4.61702 7.04064 6.29478C6.87552 6.4646 6.71463 6.63879 6.56037 6.81298C6.69349 6.84579 6.82291 6.88242 6.95439 6.91822C6.71901 7.17443 6.49032 7.44202 6.27496 7.71395C6.68307 6.69964 5.65414 7.68791 4.49998 9.0694C4.88314 8.1833 5.71143 7.32693 5.46531 7.22691C3.44008 9.83062 1.80163 13.5748 2.04564 16.8286C2.04907 16.8878 2.05439 16.9426 2.06122 16.9941C2.1465 17.6327 2.42687 17.7586 2.39873 19.4851C2.36251 19.4217 2.29711 19.4109 2.24951 19.37C2.40733 22.5952 2.50168 24.5519 2.34075 27.9037C2.45919 27.7102 2.57812 27.5198 2.69657 27.3262C2.63757 26.6149 2.57765 25.9024 2.51866 25.1948C2.71424 24.7107 2.80056 25.4261 2.79849 23.3034C2.79694 21.5642 2.71058 22.5996 2.65262 22.1266C2.5735 21.4861 2.72915 20.9241 2.64072 20.2352C2.57293 19.7027 2.41156 20.2788 2.45244 18.8897C2.66149 19.4483 2.87736 20.0182 3.089 20.5806C3.04191 20.9195 2.9941 21.2558 2.94649 21.5947C2.89061 21.2521 2.83546 20.9153 2.77957 20.5726C2.87995 21.7792 2.97463 22.9192 3.07863 24.1667C2.77643 23.7608 2.88973 25.0503 2.92544 25.7504C2.98126 26.8411 2.77328 25.9067 2.80795 26.6217C2.84315 27.3367 3.07551 28.1079 3.02583 29.4001C2.89132 28.7075 2.77069 29.6497 2.64652 29.4676C2.52236 29.2851 2.49486 27.9182 2.35936 29.2314C2.46233 31.7564 2.93519 29.0165 3.0118 30.7219C3.03534 31.2453 3.00251 31.6668 2.93783 31.9941C2.75899 32.893 2.33247 33.0909 2.1813 32.6435C2.13779 32.5079 2.10511 32.2734 2.08613 31.9941C2.03915 31.3096 2.02575 30.3736 1.93336 30.0292C1.86301 30.9178 1.85546 31.542 1.88178 31.9941C1.95572 33.0647 2.23724 33.161 2.328 33.5022C2.90859 35.245 1.78921 34.2063 2.63407 36.263C2.46466 36.2702 2.31313 36.279 2.14978 36.2818C2.28701 36.6461 2.40295 36.8815 2.58437 37.3116C2.44629 35.9105 2.77778 36.984 2.98726 37.5074C3.32061 38.3342 2.9551 36.9991 3.08319 37.2044C3.39667 37.7601 3.77977 38.6674 3.65231 38.0606C3.70375 38.3339 3.77385 38.6287 3.84684 38.9083C4.3857 39.8302 6.31239 41.3141 4.95154 39.569C5.27443 39.6092 5.55736 40.2605 5.87254 40.721C6.18742 41.1792 6.30698 41.0659 6.6043 41.4468C7.85487 42.9149 6.79019 42.2219 6.40286 42.1354C8.43813 43.8144 6.48719 42.1891 9.5901 44.2667C9.97675 44.3035 8.66196 43.2437 9.89467 43.9026C9.95615 44.2789 10.7188 45.1008 12.6726 45.8519C12.8869 45.8456 13.0982 45.8333 13.3094 45.8172C14.3244 46.3436 13.7276 46.6027 15.8682 46.4959C14.7427 46.9776 15.3828 46.7983 17.0773 47.0035C17.1843 47.0148 17.2955 47.0281 17.4108 47.0438C17.8056 47.0971 16.8933 47.2318 17.4445 47.3001C17.6944 47.3309 18.3009 47.2292 18.9112 47.3077C19.2091 47.3465 20.602 47.5969 21.5665 47.478C20.8589 47.1634 22.6917 46.8957 21.12 46.6355C24.0249 46.6996 26.0579 46.5486 22.803 46.9775C23.5404 47.0728 24.2784 47.1676 25.0158 47.2623C25.5297 47.1872 26.0481 47.1128 26.5657 47.0383C26.6438 47.2968 26.5654 47.3694 28.59 47.3239C27.7116 47.3849 26.8367 47.447 25.9545 47.5085C25.9247 47.5607 25.8019 47.615 25.8315 47.6657C26.912 47.5664 29.9544 47.5236 30.6917 47.4548C31.4291 47.386 30.0051 47.3671 30.2174 47.3004C31.986 46.75 31.8458 47.1559 33.1149 47.0615C33.8598 47.0056 32.0814 46.9449 32.4799 46.9211C33.9574 46.8338 34.6428 47.1264 35.9529 47.1301C35.4875 46.9641 35.0259 46.7954 34.5716 46.6278C35.9459 46.6366 37.4778 46.6381 38.7551 46.5848C39.2566 46.564 38.8777 46.4405 38.9596 46.4322C39.3659 46.3898 41.0192 46.3226 41.1942 46.3221C42.5119 46.3211 42.5494 46.4921 43.8298 46.5015C43.3272 46.516 42.8546 46.529 42.3632 46.543C42.1397 46.8203 41.9118 47.0976 41.6884 47.3755C42.9432 47.3956 44.1986 47.4154 45.4571 47.4356C44.5374 47.343 43.6143 47.2508 42.6946 47.1582C44.1321 46.9341 45.5696 46.7096 47.0071 46.485C47.7557 46.6226 48.5012 46.7603 49.2497 46.8979C51.2826 46.8616 50.8732 46.3029 51.8376 46.7923C52.4369 46.7509 53.0364 46.7096 53.6357 46.6687C53.5501 46.7385 53.4653 46.8085 53.3797 46.8784C54.1022 46.8354 54.8244 46.7927 55.5468 46.7493C54.7872 46.502 54.0425 46.2417 53.2904 46.0016C54.7121 45.9479 54.7394 46.1577 54.9515 46.2101C55.5138 46.3487 56.6301 46.1617 57.077 46.29C57.228 46.3341 55.8347 46.4722 56.3149 46.6315C56.4087 46.6624 58.2742 47.2479 59.4644 47.1127C59.4421 47.0066 59.3501 46.8766 59.3017 46.7612C60.9025 46.6967 61.7188 47.2505 61.5066 47.4057C62.3594 47.297 63.6059 47.2879 63.7809 47.1182C64.2167 47.1141 64.6491 47.1101 65.0848 47.106C64.6308 47.5194 66.4482 47.4438 66.5673 47.0883C65.8188 47.0795 65.0693 47.0703 64.3208 47.0615C64.8868 46.6258 62.6121 46.3628 67.3453 46.7664C68.2502 46.993 65.7367 46.7355 66.474 46.9052C67.7551 47.004 68.9576 46.9213 70.1753 47.0792C71.6906 47.2763 69.8263 47.4659 73.3566 47.215C65.5694 46.5863 74.4247 46.7902 78.082 46.5952C79.0875 47.2161 82.1761 47.4128 86.4292 47.2281C85.986 47.0553 84.648 47.1443 83.877 47.0874C83.1062 47.0305 83.9402 46.928 82.98 46.8472C82.0194 46.7665 79.9792 46.6568 79.0068 46.5347C79.8304 46.4369 83.8956 46.2057 81.2077 46.4835C83.2143 46.6547 84.1566 46.8307 86.6435 46.8628C87.3883 46.5932 87.3333 46.4253 89.7574 46.4176C88.3236 46.7922 91.0783 47.0525 90.4718 47.4396C88.7527 47.3494 89.7136 46.9733 88.7194 46.7932C88.6175 46.7752 87.0158 46.8695 86.6435 46.8628C88.2598 47.2007 88.8187 47.3265 87.8244 47.7285C88.9677 47.6934 89.6789 47.7438 89.7832 47.5518C90.0214 47.6351 90.2611 47.7185 90.4956 47.8018C90.8677 47.7997 91.2027 47.792 91.5971 47.7935C91.0539 47.5039 92.1068 47.6822 92.8553 47.5509C93.6039 47.4195 92.5996 47.1909 94.6553 47.1878C93.9701 47.12 93.3436 47.0618 92.6807 46.9977C94.0063 46.9232 95.3361 46.8482 96.6618 46.7737C95.7307 46.5967 93.7131 46.3339 93.7682 46.1011C94.3789 46.189 96.4705 46.0345 96.6995 46.0282C97.5859 46.0044 97.1028 46.1512 97.1698 46.1548C98.5623 46.2262 99.7093 46.1762 100.238 46.3986C101.284 46.2983 102.074 46.3555 103.183 46.3498C103.794 46.3467 103.675 46.1833 104.033 46.2143C106.408 46.4213 104.145 46.6325 108.728 46.2305C108.173 46.1167 107.626 46.0002 107.071 45.8854C107.589 45.8424 108.103 45.7992 108.621 45.7563C108.967 45.777 109.311 45.7978 109.657 45.8185C109.65 46.0653 109.641 46.3127 109.633 46.5595C110.013 46.5729 110.394 46.586 110.774 46.5994C110.123 46.6238 109.469 46.6481 108.817 46.6724C108.758 46.7158 108.702 46.7593 108.643 46.8027C109.611 46.8699 110.576 46.9378 111.544 47.0056C111.563 46.9198 111.581 46.8333 111.6 46.7474C113.782 46.867 113.834 46.9397 115.908 46.7032C117.506 46.7058 118.807 46.3468 119.731 46.1957C120.062 46.2438 120.394 46.2926 120.729 46.3407C120.941 46.2693 121.156 46.1982 121.368 46.1268C121.789 46.2261 122.215 46.3255 122.636 46.4243C122.871 46.1988 122.992 46.1284 121.35 46.0492C121.913 45.7688 124.803 45.8925 125.98 45.9867C126.873 46.0581 125.882 46.2921 125.994 46.3205C126.367 46.4172 127.838 46.3338 128.147 46.3498C129.455 46.4166 130.37 46.4049 131.551 46.4566C131.781 46.467 132.423 46.6152 132.478 46.6199C132.902 46.6452 133.95 46.7173 134.069 46.7194C140.217 46.83 133.648 46.1868 139.364 46.2546C139.193 46.1698 139.036 46.0855 138.868 46.0007C139.3 45.9955 139.736 45.9906 140.168 45.9855C140.716 46.0564 140.053 46.1853 141.141 46.0813C141.07 46.1858 140.999 46.2904 140.924 46.3944C141.397 46.338 141.853 46.282 142.337 46.2256C143.097 46.5883 145.871 46.6707 145.673 47.0965C145.606 47.2414 143.64 47.3901 144.679 47.5448C145.523 47.5753 144.952 47.4022 145.296 47.3932C147.784 47.33 147.64 47.5726 148.656 47.5079C148.816 47.404 148.985 47.298 149.148 47.193C149.532 47.2235 149.916 47.254 150.303 47.2845C150.393 47.2147 150.486 47.1447 150.575 47.0749C150.214 47.0702 149.807 47.0655 149.476 47.0608C149.938 46.7903 154.183 46.6687 152.564 46.8994C151.905 46.9931 150.698 46.9533 151.461 47.2729C152.596 47.2269 153.885 47.1798 155.08 47.1338C155.118 47.2026 155.152 47.2716 155.19 47.3404C156.801 47.2958 155.335 47.0207 155.338 46.8732C155.707 46.869 156.079 46.8654 156.448 46.8613C156.604 46.928 156.753 46.9978 156.916 47.0624C156.931 46.9562 157.138 46.7096 158.236 46.8012C158.942 46.8608 157.83 47.1285 159.177 47.0914C159.076 46.9258 158.59 46.7242 160.09 46.6709C160.239 46.8436 160.444 47.0019 160.56 47.1835C162.425 47.0175 163.274 47.2844 165.464 47.0914C166.853 46.9692 168.756 46.5357 169.653 47.2037C170.669 47.2212 170.347 47.0549 170.648 47.0175C172.067 46.8405 173.122 47.1573 173.386 47.1759C175.073 47.2953 175.829 47.1857 177.203 47.3352C177.128 47.2115 177.088 47.0944 177.028 46.9739C175.769 47.1591 175.132 47.1504 173.367 47.1106C173.959 47.0858 174.551 47.0603 175.143 47.0355C175.046 46.9352 174.95 46.8348 174.857 46.7349C169.397 47.1303 170.671 46.5057 175.248 46.369C175.643 46.5548 176.052 46.74 176.443 46.9263C179.087 46.6448 180.331 46.8891 183.321 46.9476C183.677 46.9543 184.972 46.8473 185.528 46.842C185.519 46.8413 185.51 46.8406 185.5 46.8399C185.847 46.6645 185.378 46.5838 185.322 46.427C185.623 46.4074 185.925 46.3878 186.227 46.3681C186.9 46.4876 186.663 46.5858 187.989 46.5573C187.81 46.4383 187.634 46.3193 187.455 46.2003C188.908 46.1962 189.858 46.3255 191.21 46.2696C190.983 46.3146 190.758 46.3597 190.531 46.4048C193.473 46.5196 191.132 47.2193 193.355 46.871C193.497 46.9321 193.635 46.9937 193.776 47.0547C192.86 47.0697 191.944 47.0843 191.031 47.0993C191.013 47.1857 190.993 47.2717 190.978 47.3581C191.957 47.3322 192.942 47.3055 193.921 47.2796C193.206 47.3376 192.487 47.3956 191.772 47.4536C192.907 47.495 194.044 47.5364 195.179 47.5778C193.973 47.2601 195.537 47.2213 195.243 46.9067C197.254 47.1686 198.834 47.5137 201.951 47.2928C202.569 47.2488 202.233 47.0289 203.987 47.2964C203.562 46.9467 205.76 46.7826 205.477 46.4499C204.867 46.466 204.234 46.476 203.642 46.4957C204.316 46.6111 204.427 46.9285 203.403 47.0227C202.096 47.1427 200.19 46.9228 200.268 47.2751C199.747 47.2585 199.262 47.2488 198.755 47.2348C198.964 47.1474 199.168 47.0594 199.373 46.972C197.932 47.1091 197.027 47.0645 196.334 46.8442C198.051 46.7935 199.764 46.7433 201.48 46.6931C201.227 46.6781 200.971 46.663 200.718 46.6486C202.018 46.4235 200.677 46.2103 203.102 46.1621C203.087 46.2651 203.075 46.3681 203.06 46.4716C203.943 46.1963 206.359 46.1978 205.588 45.8811C206.318 45.9784 206.467 46.0399 206.88 45.8692C208.806 46.1098 210.042 46.4141 209.357 46.7774C210.072 46.7189 210.787 46.6603 211.499 46.6019C211.085 46.5026 210.672 46.4037 210.258 46.3044C211.502 46.3106 212.755 46.3167 213.995 46.3224C214.114 46.6162 211.601 46.4115 212.326 46.6742C212.471 46.7269 213.141 46.614 213.316 46.6437C215.171 46.965 212.26 46.7329 212.806 46.9791C214.749 47.0325 214.233 47.2522 215.077 47.2577C215.441 47.2554 216.058 47.2297 217.176 46.9765C217.288 47.0466 217.409 47.1161 217.517 47.1842C218.852 46.9466 218.703 46.7728 219.789 46.4075C220.457 46.1693 221.442 46.1289 222.054 45.5524C222.139 45.4301 220.856 45.7607 223.213 44.3703C224.955 43.1506 224.409 43.8862 225.373 43.1994C226.381 42.4989 227.684 40.1219 228.422 39.6322C228.061 40.1457 227.595 40.7907 227.133 41.3034C227.032 41.5792 226.926 41.8476 226.81 42.1181C227.773 40.8453 228.728 39.4737 228.977 38.409C230.211 36.6092 230.263 34.1184 229.794 34.7064C229.713 35.3811 230.027 34.6921 229.717 35.5958C229.611 35.6698 229.503 35.7469 229.396 35.8178C229.811 34.2834 229.85 33.1598 230.04 33.9221C230.078 33.6736 230.11 33.4266 230.135 33.1771C229.951 33.1177 229.765 33.0648 229.58 33.0086C229.579 32.7171 229.569 32.43 229.551 32.1406C229.558 32.0919 229.564 32.0431 229.571 31.9941C229.606 31.713 229.641 31.431 229.677 31.1469C229.975 31.5975 229.985 32.3651 230.151 29.8251C230.048 29.8177 229.946 29.8068 229.843 29.7993C229.974 27.6729 230.223 27.6168 230.214 24.947C230.571 26.9953 229.938 28.1159 230.655 28.1085C230.608 28.6224 230.56 29.1405 230.513 29.6545C230.617 29.7327 230.721 29.8102 230.825 29.8847C230.77 27.1253 230.086 22.5415 230.54 20.694C230.484 20.4706 230.436 20.2463 230.377 20.0192C230.57 18.743 230.321 17.978 230.282 16.9941C230.265 16.5745 230.271 16.1235 230.324 15.564C230.309 15.3696 231.074 15.7182 230.535 13.2273C230.477 13.3063 230.361 13.3672 230.281 13.4377C230.204 12.9037 230.1 12.3719 229.968 11.846C229.871 11.7762 229.772 11.7037 229.673 11.6374C229.963 12.5053 230.173 13.3945 230.305 14.2952C230.15 13.5554 229.94 12.8224 229.679 12.1162C229.875 13.0848 229.954 13.5099 229.636 12.9915C229.404 12.1887 229.104 11.4049 228.743 10.6531C228.664 10.5948 228.586 10.5387 228.507 10.4823C228.557 10.9022 228.592 11.3228 228.601 11.7359C227.941 9.73569 226.885 8.21071 225.967 6.82598C225.798 6.59914 226.654 7.15839 225.154 5.93392C225.197 5.84319 225.21 5.75061 225.244 5.66207C223.243 4.33058 222.655 3.85864 220.416 2.72645C221.844 3.49977 220.559 2.83364 220.139 2.79547C219.856 2.75989 220.877 3.13354 220.733 3.15852C220.59 3.16296 219.201 2.96321 220.293 3.39586C223.167 4.04647 223.649 5.00149 226.334 7.50325C225.908 7.11224 225.458 6.74662 224.995 6.41387C225.154 6.63274 225.291 6.83178 225.45 7.07441C224.077 5.57482 224.722 6.32087 224.039 5.84568C223.344 5.37952 222.045 4.62656 221.125 4.23592C220.836 4.11162 221.197 4.12579 220.543 3.83147C220.096 3.6174 218.781 3.4006 218.533 3.12368C218.351 2.93918 220.635 3.04733 217.625 2.37224C217.073 2.12756 218.531 2.43896 218.563 2.44655C218.88 2.3309 216.992 1.79282 216.08 1.90218C216.009 1.90812 216.696 2.0899 215.935 2.0902C215.628 2.09414 215.345 2.10048 215.077 2.10669C213.773 2.13709 212.89 2.00288 211.92 1.83161C211.793 2.07379 210.273 2.36301 208.382 2.27349C208.285 2.34279 208.193 2.4127 208.096 2.48252C208.39 2.44584 208.683 2.40965 208.977 2.37297C209.297 2.41644 209.637 2.44808 209.949 2.49931C208.047 2.55886 207.778 2.89261 206.865 3.01472C203.743 3.43186 205.635 2.54948 206.198 2.39738C206.604 2.45896 206.997 2.5277 207.399 2.59238C207.354 2.50803 207.309 2.42304 207.268 2.33818C202.594 2.34076 206.556 1.79066 204.184 1.63387C203.573 2.04885 201.831 2.08884 199.612 1.82551C199.366 1.82758 199.119 1.82811 198.873 1.8307C198.832 1.8912 198.833 1.98369 198.766 2.02356C196.092 2.09394 195.616 1.45486 195.363 1.39432C194.238 1.1258 193.362 1.49733 193.031 1.50051C191.634 1.51345 191.228 1.34848 189.899 1.41934C188.469 1.49591 189.447 1.62249 189.012 1.73579C188.663 1.82577 187.535 1.8418 187.069 1.93506C187.254 1.85878 187.46 1.78398 187.644 1.70741C186.163 1.60342 184.951 1.50206 183.268 1.47671C181.369 2.03485 179.753 1.09334 180.409 1.85694C182.003 1.90921 182.894 1.99622 183.747 2.19079C182.7 2.21562 181.653 2.2398 180.607 2.26464C180.302 2.18083 180.085 2.09915 179.724 2.01379C178.942 2.19177 177.129 2.11539 176.418 2.1676C173.084 2.41235 174.116 2.71592 171.073 2.20574C173.266 2.15603 173.263 1.90824 175.437 1.94239C174.968 1.76542 173.863 1.80209 174.578 1.58993C172.474 1.64218 173.154 1.8316 172.335 1.99976C171.629 2.14472 170.207 2.15284 170.287 2.34123C170.142 2.23765 170.029 2.13738 169.884 2.03394C168.521 2.03497 167.159 2.03504 165.796 2.03607C166.377 1.92794 166.958 1.81961 167.538 1.71199C167.099 1.67115 166.66 1.63046 166.221 1.58962C162.869 1.92597 157.089 1.30953 158.012 2.15447C156.396 2.18138 156.194 2.07541 155.315 1.91553C155.219 1.97968 155.124 2.03303 155.028 2.10443C153.985 2.03728 153.185 2.27811 152.265 2.21551C151.345 2.15339 151.117 1.92591 150.983 2.30827C150.387 2.19859 149.795 2.10748 149.203 2.00556C148.846 2.09242 148.489 2.17829 148.135 2.26464C147.577 2.21911 147.017 2.17376 146.458 2.12823C146.16 2.31075 143.963 2.23208 142.995 2.35466C142.076 2.15791 142.101 1.53842 139.939 1.64943C139.995 1.80308 140.05 1.95628 140.105 2.10992C139.61 2.07784 139.114 2.04587 138.615 2.01379C138.585 1.96365 138.559 1.9135 138.53 1.86335C138.783 1.87887 139.033 1.89431 139.286 1.91035C139.066 1.82548 138.851 1.74101 138.635 1.65615C137.879 1.78187 137.122 1.9076 136.362 2.03333C137.386 2.12851 138.411 2.22377 139.435 2.31896C138.15 2.43176 137.255 2.31924 136.138 2.44499C135.166 2.23286 135.525 2.11063 135.92 1.88044C135.559 1.9001 135.193 1.91907 134.832 1.93873C135.071 1.7085 134.46 1.57132 136.571 1.58993C136.426 1.52426 136.278 1.46165 136.136 1.3934C135.79 1.40375 135.565 1.34825 135.186 1.37357C134.15 1.44291 133.356 1.84729 133.427 1.98908C133.465 2.06335 134.486 1.92131 134.445 2.02631C134.344 2.28234 132.003 2.16739 135.38 2.42454C134.259 2.58754 134.009 2.46461 132.772 2.41752C132.869 2.50284 132.963 2.58762 133.056 2.67294C132.483 2.63363 131.909 2.59446 131.335 2.55515C132.132 2.11688 127.905 1.95227 131.711 1.56887C130.586 1.54921 129.465 1.52945 128.345 1.50875C128.575 1.46374 128.806 1.41919 129.037 1.37418C129.544 1.39798 130.047 1.42139 130.554 1.44467C129.958 1.36242 129.361 1.28066 128.765 1.19841C127.358 1.30035 126.806 1.45713 126.162 1.65065C127.8 1.79188 127.265 1.59897 128.541 1.56063C128.497 1.68319 128.555 1.79592 128.444 1.92469C127.784 1.67083 125.633 1.85551 125.134 1.86793C123.615 1.90564 124.806 1.6562 123.79 1.65096C122.773 1.64578 121.574 1.79425 120.744 1.5469C120.759 1.68553 120.825 1.82897 120.885 1.9552C119.302 2.00074 119.618 1.83696 119.454 1.81575C116.839 1.46699 115.421 1.76143 112.43 1.79713C112.81 1.84007 113.194 1.87884 113.577 1.9192C111.321 2.21355 112.841 2.12342 114.8 2.22069C112.964 2.1912 111.912 2.44188 110.616 2.51639C109.32 2.59078 107.098 2.46203 106.286 2.36168C108.144 2.20023 110.149 2.3067 112.212 2.2622C111.977 2.12097 111.749 2.00144 111.507 1.84626C110.252 2.14268 109.525 1.94448 109.112 1.90516C107.898 1.78982 107.936 2.04423 107.203 1.77058C107.233 1.86472 107.254 1.94387 107.284 2.0318C104.778 1.99247 102.074 1.82605 100.443 2.1737C100.294 1.94759 100.182 1.72975 100.011 1.49899C98.9493 1.66919 98.0405 1.4949 97.1468 1.53469C96.2567 1.57454 96.5955 1.75727 95.5492 1.82765C95.3555 1.84058 94.9522 1.72621 94.4755 1.81056C93.9941 1.89535 92.2189 2.52581 92.0066 1.97504C91.1092 1.97245 90.2599 1.95231 89.381 1.943C90.2375 1.91195 91.0943 1.88188 91.9471 1.85084C91.2173 1.71735 90.4919 1.58426 89.7621 1.45077C89.669 1.56979 89.5756 1.69096 89.4862 1.80842C87.5199 1.95331 86.0929 1.75872 84.1079 1.80476C83.7765 1.81252 84.5584 2.04783 83.0879 1.98786C81.6169 1.92783 80.5253 1.48865 78.0192 1.65828C77.8926 1.66708 77.1504 2.00344 76.2529 1.77058C76.0487 1.71781 76.9083 1.63971 76.4395 1.5704C75.9702 1.50106 73.8765 1.44404 73.7126 1.27897C73.735 1.33742 73.8656 1.398 73.9289 1.45749C73.5715 1.48542 73.2105 1.51338 72.8493 1.5408C72.8158 1.43784 72.7796 1.33472 72.7461 1.23228C70.6904 1.47185 69.6281 1.86266 66.582 1.73335C67.4384 1.88288 68.2953 2.03302 69.148 2.18255C69.3827 2.0775 69.6177 1.97175 69.8486 1.86671C71.2524 1.90861 72.6601 1.95022 74.0639 1.99213C74.2948 1.87259 74.5216 1.7534 74.7525 1.63387C75.1249 1.64939 75.4936 1.66443 75.8659 1.67995C75.7728 1.76636 75.6789 1.85231 75.5821 1.93873C76.3193 1.91751 77.0575 1.89585 77.791 1.87464C76.2977 2.3847 73.6207 1.83126 73.8138 2.25792C73.4826 2.19172 73.1508 2.12506 72.8195 2.05835C72.6743 2.26523 72.0006 2.20569 70.8131 2.17309C71.085 2.27503 71.3852 2.37558 71.6347 2.47855C70.4802 2.33472 68.4323 2.34869 67.2369 2.29332C66.7118 2.26901 67.2363 2.11901 67.0801 2.10138C66.2794 2.00927 64.749 2.27099 64.4287 2.25029C62.5145 2.12712 61.2706 1.63092 59.1814 1.95795C61.3377 2.03867 60.1646 2.00458 60.9318 2.18621C61.172 2.24316 63.9577 2.36195 60.4694 2.30919C60.0604 2.30259 53.7309 1.95975 55.8115 1.69704C54.7874 1.78087 53.9855 1.8778 53.047 1.9668C50.7529 1.27444 51.5468 1.92486 52.2135 2.28295C51.8373 2.2845 51.4795 2.28813 51.0922 2.28813C51.9152 1.91194 47.722 1.88858 46.2994 2.07849C45.8227 2.14162 47.1556 2.26203 46.0533 2.31896C45.5284 2.29257 44.9329 2.25841 44.3783 2.22893C45.1826 2.46695 43.604 2.55867 43.6261 2.8008C42.6169 2.58504 41.845 2.12771 42.3996 1.87983C41.5656 1.9802 40.7271 2.08044 39.8931 2.18133C40.2804 2.23876 40.6727 2.2957 41.06 2.35313C38.3339 2.201 34.8286 2.54718 34.2588 2.03851C33.8976 2.04213 33.5325 2.04527 33.1712 2.04889C33.0595 2.13479 32.9515 2.22085 32.8398 2.30675C31.2053 2.23225 29.5744 2.15726 27.9398 2.08276C29.3953 2.02945 29.7417 1.90719 31.268 2.00647C30.6798 1.90768 30.0807 1.80834 29.5037 1.70955C27.2059 1.97552 26.8924 2.15033 23.4328 2.07117C23.2764 2.06754 20.6624 1.8445 20.573 1.82276C20.1635 1.72342 20.7851 1.5791 20.6028 1.52889C20.0963 1.38814 17.0185 1.03474 17.0781 0.981437C17.8304 0.327364 28.1856 0.318695 30.9862 0.28506C60.0349 -0.0636904 88.444 0.402894 117.31 0.323205C117.607 0.321972 117.477 0.225417 117.604 0.221281C118.39 0.197031 119.161 0.347513 119.452 0.353721C120.072 0.366516 119.731 0.227484 120.184 0.227385C124.869 0.228937 129.29 0.310693 133.979 0.286891C134.284 0.285339 133.973 0.396577 134.509 0.376913C134.786 0.366146 135.652 0.195485 136.277 0.192901C138.459 0.184108 140.293 0.238822 142.594 0.236234C143.853 0.23469 145.741 0.249196 147.149 0.24661C147.77 0.24551 148.418 0.167435 149.032 0.164827C149.904 0.161204 149.726 0.319476 149.86 0.329308C150.448 0.372247 150.53 0.198533 151.088 0.202667C152.127 0.210946 152.183 0.326928 153.501 0.317102C154.444 0.309857 156.6 0.218284 157.788 0.191376C160.566 0.325903 164.067 0.272496 166.659 0.227995C168.194 0.201615 168.336 0.364004 168.961 0.363486C171.166 0.360341 172.839 0.152938 174.909 0.146212C177.657 0.137449 180.092 0.27459 182.754 0.28445C183.186 0.286001 183.087 0.137213 183.511 0.133395C185.078 0.119424 187.083 0.0923437 188.48 0.11356C190.036 0.136875 190.611 0.352843 192.134 0.308862C192.58 0.295803 192.711 0.10644 193.459 0.082128C194.655 0.0438962 195.965 0.210882 196.799 0.229521C197.943 0.254359 196.948 0.0614427 198.49 0.0873158C198.554 0.0884327 198.784 0.226335 199.115 0.219756C200.08 0.201127 199.984 0.0925298 201.396 0.102879C201.531 0.104308 203.403 0.235708 203.589 0.236234C204.684 0.238304 206.888 0.284308 207.536 0.256375C209.853 0.157022 208.029 -0.0503924 209.999 0.3998C210.867 0.28961 211.727 0.177923 212.646 0.0708371C212.033 0.170706 214.523 0.314819 214.699 0.305506C214.847 0.29779 214.972 0.289015 215.077 0.279513C216.104 0.226213 215.529 0.0112813 217.372 0.238814C214.628 0.314813 220.004 0.586403 221.105 1.23557C226.533 3.2957 230.341 7.88872 231.546 13.5596C231.757 14.5654 231.924 15.7735 231.944 16.9941C231.964 17.9604 231.983 18.9308 231.982 19.793C231.982 20.22 231.886 19.8974 231.884 20.2733C231.882 20.6482 231.99 20.2322 231.984 20.6603C231.947 23.3229 231.744 25.4092 231.998 27.8485C231.961 27.9672 231.932 27.9634 231.892 28.1601C232.005 29.1545 231.986 30.6075 231.933 31.9941C231.887 33.5668 231.544 35.0234 231.335 35.8016C230.638 38.213 230.449 38.8516 229.543 40.4462C228.347 42.6055 225.401 44.8021 226.932 44.0466C225.746 45.2319 224.424 46.205 222.904 46.9526C222.734 47.035 222.791 46.8633 222.724 46.8954C222.293 47.094 222.201 47.2589 221.908 47.3962C221.111 47.7532 222.368 47.0766 221.238 47.587C220.632 47.8281 220.331 48.1132 218.544 48.5198C217.414 48.7573 216.248 48.8785 215.077 48.8785C206.173 48.8802 196.716 48.8505 187.735 48.8357C187.046 48.8346 187.5 48.9563 186.636 48.9486C183.634 48.9216 178.261 48.7168 175.673 48.7447C173.084 48.7727 173.668 48.9506 172.049 49.0252C171.736 49.0397 171.992 48.9382 171.709 48.9367C169.806 48.9273 167.538 48.7691 165.996 48.7453C164.976 48.7294 165.058 48.889 164.35 48.9004C163.297 48.9169 162.212 48.7557 161.649 48.7505C159.006 48.7278 157.188 48.8576 154.719 48.7914C154.816 48.8265 154.88 48.859 154.961 48.8936C152.038 48.888 149.119 48.8822 146.195 48.8766C146.333 48.9086 146.466 48.941 146.604 48.9736C143.174 48.956 143.566 48.6083 143.867 49.3425C143.618 49.3684 143.354 49.3984 143.115 49.4222C143.212 49.0439 141.137 48.7671 138.497 48.6709C138.303 48.6636 137.004 49.0324 137.146 48.5967C136.807 48.7033 136.605 48.7768 136.318 48.8704C135.76 48.7385 135.194 48.6082 134.635 48.4768C134.334 48.4964 134.028 48.5154 133.726 48.5351C133.681 48.6205 133.716 48.7091 133.619 48.7929C132.219 48.8059 129.347 48.7003 128.241 48.7112C125.492 48.7386 122.694 48.9694 120.556 48.72C119.515 48.7454 120.549 48.913 119 48.8918C118.825 48.807 118.661 48.7257 118.478 48.6382C117.213 49.0173 116.948 48.7867 115.214 48.7075C114.041 48.6537 113.273 48.7463 112.156 48.7282C111.872 48.7236 111.913 48.6123 111.719 48.6159C111.07 48.6274 109.22 48.7806 108.762 48.7847C104.613 48.8251 101.05 48.8079 97.0984 48.767C96.6739 48.7629 97.2243 48.8727 96.7848 48.868C96.0779 48.8607 96.4938 48.692 96.0843 48.6837C94.9418 48.6615 94.9331 48.8395 93.3396 48.8488C88.0923 48.8793 82.0594 48.7456 76.5776 48.7337C76.4063 48.7337 76.4165 48.838 76.2303 48.839C75.0166 48.8441 73.7879 48.7032 72.6859 48.7047C70.8572 48.7068 69.483 48.8533 67.6767 48.8527C64.1462 48.8522 60.9918 48.7772 57.3608 48.7731C54.3889 48.7695 51.8078 48.7834 48.5491 48.7829C38.1507 48.7814 27.5971 48.9575 17.0773 48.984C12.6814 49.0184 8.29841 47.2023 5.2291 44.1036C4.9397 43.8107 5.12501 43.8633 5.03408 43.7774C4.18652 42.9478 4.03921 42.9189 3.9735 42.4327C3.02382 41.2725 2.56919 40.9787 1.75047 39.3233C1.35532 38.4232 1.89166 38.9901 1.16958 37.506C0.66259 36.1183 0.612922 37.7945 0.161666 33.3499C0.15888 33.2424 0.263585 32.7572 0.257336 31.9941C0.256768 31.9185 0.254287 31.8397 0.249482 31.7578C0.201876 30.9348 0.0696113 31.8875 0.0297666 29.9062C-0.0461664 26.1139 0.045948 21.4998 0.0559285 16.9941C0.0579002 15.8387 0.172905 14.6875 0.391083 13.5741C0.365671 13.1748 1.47034 9.61188 1.88211 8.97683C2.50704 7.69133 2.2067 7.84984 3.29313 6.31392C4.17549 5.15352 5.11728 4.38722 6.42646 3.31199C6.58388 3.19434 6.73135 2.83295 7.83146 2.15618ZM229.408 33.1246C229.32 32.9273 229.072 32.6274 228.938 31.9941C228.863 31.6181 228.83 31.1258 228.893 30.4701C228.909 30.2951 229.307 31.24 229.37 30.2201C229.395 30.8181 229.41 31.4068 229.424 31.9941C229.433 32.3728 229.427 32.7456 229.408 33.1246C229.408 33.1246 229.408 33.1246 229.408 33.1246ZM16.7508 3.20007C15.4787 3.2 14.1985 3.37676 12.9699 3.72687C13.7921 3.39938 14.6532 3.1497 15.5327 2.98326C15.946 3.03765 16.3521 3.11047 16.7508 3.20007ZM127.302 46.0663C127.301 46.0663 127.299 46.0663 127.298 46.0663C128.75 45.9918 130.204 45.9172 131.656 45.8426C131.504 45.8975 131.35 45.9526 131.198 46.0074C130.051 46.0938 128.904 46.1801 127.76 46.2665C127.608 46.1998 127.455 46.1331 127.302 46.0663ZM115.827 46.647C114.9 46.5818 115.127 46.4719 114.616 46.3648C114.616 46.365 114.616 46.3652 114.616 46.3654C114.482 46.3375 113.855 46.3131 113.612 46.3089C113.702 46.3778 113.817 46.4457 113.914 46.514C111.75 46.6806 107.519 46.0885 112.997 45.85C112.915 45.9369 112.837 46.0234 112.755 46.1103C115.477 46.086 118.512 46.2745 115.827 46.647ZM228.194 11.7442C227.046 9.86476 226.699 9.30606 225.078 7.23334C225.395 7.44263 225.706 7.66671 226.01 7.90537C226.229 8.29718 226.426 8.69332 226.603 9.09749C226.604 9.09851 226.605 9.09953 226.605 9.10054C226.726 9.12325 226.847 9.14774 226.965 9.17092C227.461 9.98655 227.875 10.8527 228.194 11.7442ZM26.8694 46.4414C26.2217 45.873 26.4086 46.2034 28.2586 46.0752C28.8992 46.0307 28.2749 45.9312 28.6734 45.9147C30.8253 45.8242 30.9974 46.2051 30.5171 46.4032C29.2992 46.4167 28.0689 46.429 26.8734 46.4414C26.872 46.4414 26.8707 46.4414 26.8694 46.4414ZM4.2817 10.0296C4.28232 10.0285 4.28293 10.0273 4.28355 10.0262C4.42875 10.0474 4.07136 10.7921 4.63004 10.0346C4.28391 10.6512 3.98266 11.2945 3.73132 11.9589C3.79299 11.7589 3.86109 11.557 3.93175 11.3597C3.81514 11.5107 3.70067 11.6643 3.58934 11.8215C3.65005 12.1174 3.47151 12.2968 3.20765 13.004C3.42854 12.8516 3.65158 12.7083 3.87669 12.5721C3.56103 13.3548 3.31519 14.1738 3.14611 15.0108C3.10217 15.0152 3.05812 15.0198 3.01418 15.0244C3.02401 15.3527 3.04614 15.6765 3.07847 15.9999C3.0213 16.0834 2.9655 16.1648 2.90978 16.2506C2.92161 16.4981 2.93978 16.7459 2.96447 16.9941C2.97877 17.1458 2.99311 17.2974 3.00752 17.4489C2.88345 17.5746 2.82983 16.6639 2.86135 18.2784C2.75145 17.8508 2.64184 17.4239 2.53202 16.9941C2.51465 16.9278 2.49773 16.8613 2.48124 16.7945C2.51984 14.4339 3.14219 12.0898 4.2817 10.0296ZM43.7008 46.2665C41.0306 46.2903 41.7827 46.2004 42.4009 45.9189C42.8328 46.0348 43.2689 46.1506 43.7008 46.2665ZM181.269 46.5171C182.044 46.3251 182.822 46.135 183.615 45.9498C185.194 45.8426 186.774 46.1926 185.586 46.3297C184.156 46.4942 182.662 46.3101 181.269 46.5171ZM217.148 46.2843C215.293 46.4019 217.014 46.0034 217.38 45.793C217.906 45.9187 218.607 45.7759 219.687 45.4368C218.695 45.8072 217.46 46.2629 217.148 46.2849C217.148 46.2847 217.148 46.2845 217.148 46.2843ZM150.178 46.3013C149.404 46.307 148.634 46.3607 147.942 46.2955C148.151 46.1119 149.536 46.2789 148.545 46.0068C149.04 46.0022 149.536 45.9977 150.028 45.9925C149.715 46.1052 150.135 46.1895 150.176 46.3007C150.177 46.3009 150.178 46.3011 150.178 46.3013ZM69.572 46.0502C71.0915 46.2675 71.3795 46.1745 72.9101 46.0239C73.1258 46.2009 71.3008 46.4973 70.1575 46.5625C69.9638 46.3918 69.7694 46.2209 69.572 46.0502ZM63.3034 2.84749C63.6683 2.62194 66.3599 2.59253 67.6973 2.65921C67.5381 2.69266 67.3783 2.72656 67.219 2.76052C65.9155 2.7895 64.6069 2.81852 63.3034 2.84749ZM220.199 45.2665C220.019 45.3288 219.849 45.3853 219.687 45.4368C219.865 45.3734 220.037 45.3144 220.199 45.2665ZM190.778 1.79286C191.415 1.58021 189.522 1.50876 191.82 1.59206C191.82 1.59186 191.82 1.59166 191.82 1.59145C193.34 1.6463 193.675 1.66095 195.083 1.67751C194.576 1.95069 191.72 2.04833 195.656 2.10473C195.708 2.10498 195.605 1.94243 196.234 1.96466C196.428 1.97158 197.049 2.10498 197.994 2.14379C198.3 2.15621 200.594 2.19735 197.466 2.19994C197.559 2.39037 197.391 2.58311 197.399 2.76785C196.178 2.82153 195.239 2.44866 193.948 2.4578C192.03 2.47229 191.054 2.84935 190.685 2.35466C192.298 2.23312 195.067 2.2302 195.428 2.52769C196.988 2.53131 197.436 2.28757 196.178 2.16699C190.789 2.32015 194.699 1.8052 189.98 1.99976C189.924 2.06856 189.73 2.1426 189.76 2.20727C188.32 1.96515 190.551 1.86892 190.778 1.79286ZM202.047 2.31896C201.116 2.46436 200.188 2.61094 199.26 2.75686C199.26 2.51987 199.772 2.3072 201.239 2.1737C201.507 2.2223 201.779 2.27087 202.047 2.31896ZM123.727 2.38121C123.592 2.51005 123.235 2.62812 122.974 2.75076C122.691 2.64209 115.988 2.53785 119.398 2.43125C119.893 2.41573 122.915 2.64356 123.727 2.38121ZM59.0219 46.2442C59.8114 46.3307 60.5977 46.4172 61.3836 46.5036C60.1739 46.5584 58.9633 46.6147 57.7537 46.6705C58.1776 46.5285 58.598 46.3863 59.0219 46.2442ZM194.121 46.7432C193.788 46.7383 194.896 46.5611 193.582 46.5891C194.561 46.4757 195.478 46.3798 196.436 46.2732C196.722 46.3571 197.012 46.4405 197.299 46.5244C197.522 46.4706 197.75 46.4171 197.974 46.3633C197.839 46.4854 197.72 46.6046 197.579 46.7288C195.966 46.467 195.596 46.7639 194.121 46.7432ZM146.172 47.2208C145.882 46.9553 148.217 46.7975 145.92 46.7551C146.355 46.5807 147.056 46.4892 148.4 46.4737C148.616 46.5404 148.831 46.6066 149.047 46.6733C149.077 46.4948 149.423 46.4285 150.178 46.3013C150.179 46.3015 150.18 46.3017 150.18 46.3019C152.224 46.289 152.102 46.3485 152.594 46.6419C150.43 46.4763 150.365 46.7443 148.89 46.9037C147.878 47.0133 146.555 46.9636 146.172 47.2208ZM130.869 2.37816C129.339 2.6022 130.712 2.81117 127.997 2.57315C128.172 2.51623 128.348 2.4598 128.523 2.40287C129.305 2.39408 130.087 2.38592 130.869 2.37816ZM138.62 46.3111C138.795 46.7219 140.236 47.0417 140.482 46.3733C139.078 46.2372 139.763 46.6158 138.62 46.3111ZM216.581 47.0008C215.881 47.0641 215.393 47.0341 215.077 46.9821C214.347 46.8591 214.538 46.6382 215.077 46.4676C215.197 46.4286 215.334 46.3907 215.479 46.3547C215.646 46.4345 215.813 46.5117 215.983 46.5853C216.441 46.519 216.894 46.4311 217.339 46.3232C217.099 46.5551 216.846 46.7817 216.581 47.0008ZM91.0235 46.7624C93.0868 46.469 88.7963 46.5992 90.2376 46.416C91.3884 46.2696 92.9049 46.5653 92.3314 46.7505C91.9329 46.7557 91.4893 46.7593 91.0275 46.7624C91.0262 46.7624 91.0249 46.7624 91.0235 46.7624ZM102.963 46.6785C102.624 46.365 103.112 46.4564 101.482 46.5128C101.017 46.5288 97.3176 46.4111 98.8706 46.6709C100.192 46.6709 101.589 46.6754 102.963 46.6785ZM229.699 22.8513C229.836 22.8264 230.136 25.6749 230.061 26.0405C230.061 26.0405 230.061 26.0405 230.061 26.0405C229.857 27.0274 229.828 24.0227 229.547 25.3261C229.794 22.4399 229.197 21.5765 229.984 21.7776C230.018 23.4777 229.856 22.6728 229.699 22.8513ZM27.9617 2.20483C27.9603 2.20483 27.959 2.20483 27.9577 2.20483C28.149 2.21125 29.7251 2.4116 29.5335 2.481C27.6381 2.42149 27.9758 2.28961 26.2112 2.50632C26.1145 2.43653 26.0316 2.36883 25.9275 2.29851C26.6276 2.25711 27.0157 2.17326 27.9617 2.20483ZM116.479 2.10595C117.175 2.07025 118.446 2.2182 119.239 2.2094C116.714 2.77757 113.697 2.24775 116.479 2.10595ZM2.95341 35.4869C2.95407 35.4887 2.95473 35.4905 2.95538 35.4923C2.95495 35.4918 2.95447 35.4911 2.95403 35.4907C2.95383 35.4894 2.95362 35.4881 2.95341 35.4869ZM170.446 2.44682C170.356 2.40994 170.305 2.3779 170.287 2.34978C170.287 2.34713 170.287 2.34449 170.287 2.34184C170.336 2.37638 170.387 2.4113 170.446 2.44682ZM229.658 16.9326C229.709 16.6003 229.775 16.6768 229.838 16.9941C229.991 17.7919 230.131 20.0642 230.079 20.9758C229.992 20.8865 229.913 20.8725 229.813 20.6642C230.024 19.6969 229.675 17.4352 229.657 16.9941C229.656 16.9654 229.656 16.9446 229.658 16.9326ZM163.582 46.6449C166.707 46.6501 162.641 47.4018 162.473 46.8021C162.479 46.7905 163.502 46.6459 163.582 46.6449ZM226.85 40.7313C226.539 41.4783 227.627 40.3218 225.93 42.2155C225.786 42.2828 225.641 42.3472 225.496 42.4089C225.988 41.8825 226.441 41.321 226.85 40.7313ZM184.052 47.6318C187.984 47.505 191.745 47.2814 189.184 46.6538C188.886 46.6739 188.584 46.6934 188.287 46.7136C188.242 47.0198 187.144 46.8526 185.536 46.8427C185.307 46.9642 184.415 46.9923 184.248 47.0956C183.925 47.2953 184.949 47.4357 184.052 47.6318ZM18.0221 47.1335C18.0854 47.0812 18.1473 47.0287 18.2106 46.9769C18.8326 46.9179 19.4561 46.8592 20.0781 46.8002C19.9776 46.9005 19.8769 47.0008 19.7764 47.1011C19.192 47.112 18.6104 47.1229 18.026 47.1338C18.0247 47.1337 18.0234 47.1336 18.0221 47.1335ZM205.879 1.67293C205.522 2.24819 206.77 2.14224 209.302 1.85145C208.163 1.79194 207.019 1.73244 205.879 1.67293ZM120.858 47.3987C120.776 47.2352 120.696 47.0723 120.61 46.9089C119.266 47.0791 119.515 47.2663 120.159 47.4826C120.394 47.4547 120.624 47.4266 120.858 47.3987ZM101.492 47.4682C102.05 47.5023 101.765 47.3704 101.824 47.373C103.235 47.4424 103.434 47.5029 105.166 47.4035C105.378 47.3689 105.587 47.3324 105.799 47.2967C104.998 46.9543 104.417 47.1409 102.723 46.9397C103.028 47.0572 103.332 47.1748 103.638 47.2928C102.696 47.2679 101.758 47.2434 100.816 47.2186C100.704 47.2548 100.592 47.2907 100.48 47.3269C100.815 47.3735 101.161 47.4258 101.492 47.4682ZM11.0113 45.7068C10.1795 45.3238 9.38112 44.8617 8.63563 44.3343C8.56037 44.3849 8.4855 44.4364 8.40945 44.4863C9.24001 44.9775 10.115 45.3874 11.0113 45.7068ZM187.069 1.93506C186.996 1.96498 186.925 1.99508 186.863 2.0257C186.869 1.98839 186.948 1.95926 187.069 1.93506ZM25.5444 1.7422C24.5055 1.68322 23.0085 1.72195 21.8689 1.70955C21.9585 1.92113 24.8548 1.86265 25.8719 1.99091C26.0353 1.95294 25.9836 1.76702 25.5444 1.7422ZM212.84 47.0563C212.58 47.1618 212.319 47.2669 212.062 47.3724C211.433 47.361 210.802 47.349 210.169 47.3376C210.15 47.424 210.132 47.5112 210.113 47.5976C212.902 47.4854 212.259 47.7345 213.64 47.9803C213.372 47.6725 213.108 47.3646 212.84 47.0563ZM1.53848 20.1598C1.59695 22.1746 1.70617 22.8892 1.9654 21.7535C1.90591 21.0424 1.84637 20.3271 1.78688 19.6161C1.70411 19.7985 1.62125 19.9811 1.53848 20.1598ZM150.376 1.73976C148.69 1.83663 148.662 1.48871 147.014 1.683C147.896 1.74715 148.779 1.81202 149.657 1.87617C149.895 1.83081 150.138 1.78512 150.376 1.73976ZM230.184 11.1062C230 10.3304 228.97 9.27668 228.046 7.31782C227.636 6.98318 227.34 6.81459 226.963 6.57075C226.899 6.2929 226.803 5.98765 226.728 5.71814C226.727 5.71711 226.726 5.71609 226.725 5.71506C225.291 4.38015 226.088 5.39446 225.958 5.46046C225.913 5.47921 224.899 4.47953 225.153 4.86718C225.648 5.46943 227.612 7.49834 227.36 7.7009C226.863 6.83963 225.427 5.54973 225.706 6.07906C226.014 6.62411 227.446 7.75322 227.904 8.82635C227.374 7.20226 229.112 10.1718 228.882 10.6923C229.853 12.4268 229.398 10.6407 228.307 8.8768C229.17 9.83093 228.11 8.30168 228.084 7.93836C229.111 8.86933 230.628 13.2314 230.184 11.1062ZM167.673 47.7349C169.014 47.7185 171.109 47.864 172.027 47.6492C172.562 47.524 170.462 47.4271 171.91 47.2305C170.603 47.2497 170.305 47.3265 170.529 47.4988C170.231 47.5194 169.929 47.5396 169.632 47.5598C169.494 47.5262 169.352 47.493 169.215 47.4594C169.058 47.5303 168.901 47.6006 168.748 47.6715C168.432 47.6575 168.112 47.6435 167.796 47.6291C167.759 47.6647 167.695 47.6957 167.673 47.7349ZM101.965 1.75044C102.338 1.74837 102.706 1.74631 103.079 1.74373C103.038 1.70177 102.989 1.65807 102.942 1.61495C102.908 1.58087 102.874 1.5468 102.841 1.51272C103.056 1.63447 104.83 1.83682 105.577 1.7068C105.953 1.64158 105.098 1.41002 106.691 1.3696C105.537 1.38151 104.467 1.41311 103.347 1.43277C103.447 1.36395 103.544 1.29439 103.644 1.22557C103.644 1.22546 103.643 1.22536 103.642 1.22526C103.27 1.20974 102.893 1.19348 102.521 1.17796C102.335 1.3689 102.152 1.5595 101.965 1.75044ZM121.95 47.7218C123.219 47.5868 123.645 47.5166 123.045 47.2983C123.044 47.2982 123.042 47.2981 123.041 47.298C122.568 47.3947 122.095 47.4914 121.622 47.5882C121.73 47.6327 121.838 47.6773 121.95 47.7218ZM176.13 1.21427C173.43 2.04374 179.51 1.53526 178.353 1.25272C178.3 1.23979 176.383 1.30587 176.13 1.21427ZM217.111 47.1963C216.437 47.2916 215.762 47.3414 215.077 47.3474C214.999 47.3481 214.921 47.3488 214.843 47.3495C214.92 47.3957 214.999 47.4418 215.077 47.4879C215.176 47.5436 215.275 47.5983 215.374 47.6522C215.965 47.5331 216.546 47.3803 217.111 47.1963ZM1.16191 28.9318C0.98014 29.5545 0.89091 30.9562 0.988309 31.9941C1.01287 32.2766 1.05688 32.531 1.11636 32.7376C1.11818 32.4905 1.12561 32.2427 1.13875 31.9941C1.15461 31.7129 1.17047 31.4317 1.18633 31.1505C1.19458 31.4324 1.20307 31.7134 1.21163 31.9941C1.23276 32.7229 1.30229 33.4408 1.4211 34.166C1.70252 34.1745 1.45295 33.3471 1.47026 31.9941C1.47385 31.7721 1.48083 31.5359 1.49362 31.2875C1.50773 31.0245 1.90147 29.3435 1.6047 28.7631C1.5437 28.6463 1.50223 30.4345 1.32487 29.1917C1.31091 29.7352 1.31401 30.2042 1.30625 30.7179C1.2307 30.7551 1.15507 30.792 1.07952 30.833C1.10687 30.1978 1.13456 29.5669 1.16191 28.9318ZM175.48 47.7102C177.322 47.7277 177.55 47.601 177.933 47.377C177.077 47.4023 176.22 47.4273 175.363 47.4527C175.404 47.5383 175.439 47.624 175.48 47.7102ZM7.0561 44.4524C7.88203 45.1428 7.63016 44.7101 7.99599 44.9345C9.39534 45.7385 10.3217 46.3594 11.8488 46.8297C11.7377 46.8279 11.6355 46.8257 11.5274 46.8217C11.5287 46.8222 11.5301 46.8227 11.5314 46.8232C15.1146 48.1074 16.1188 47.7279 15.4931 47.6797C14.8922 47.5522 12.7992 47.1918 10.7425 46.293C10.6741 46.1885 10.6113 46.0853 10.5461 45.9805C8.6916 45.2639 7.19169 44.1427 7.0561 44.4524ZM200.118 1.18589C200.036 1.14346 200.732 0.873816 199.425 1.00005C198.39 1.39375 200.088 1.19834 200.513 1.34977C200.159 1.38754 199.797 1.42429 199.447 1.46206C201.562 1.57332 201.871 1.47971 201.1 1.192C201.045 1.17266 200.2 1.22819 200.118 1.18589ZM186.216 0.991812C185.925 1.57189 188.595 1.31104 188.498 1.13097C188.129 1.12379 187.843 1.222 187.452 1.17857C187.057 1.13511 186.956 0.999615 186.216 0.991812ZM228.133 41.0027C228.185 40.9419 228.843 40.369 228.634 40.3362C227.748 40.991 226.659 42.6982 226.997 42.5357C227.444 42.0128 227.676 41.614 228.133 41.0031C228.133 41.0029 228.133 41.0028 228.133 41.0027ZM1.02678 16.7665C1.02359 16.7742 1.01588 16.8593 1.00853 16.9941C0.978119 17.5153 0.928666 18.8286 1.00201 19.0326C1.10445 19.2411 1.21423 19.3446 1.32029 19.5009C1.25433 18.7763 1.26633 17.5538 1.19933 16.9941C1.16715 16.7027 1.11986 16.5782 1.02673 16.7708C1.02674 16.7694 1.02676 16.7679 1.02678 16.7665Z" fill="black"/>
</svg>
