<svg width="50" height="50" viewBox="0 0 50 50" fill="none" xmlns="http://www.w3.org/2000/svg">
<path d="M42.6023 42.6031H35.1939V31.0009C35.1939 28.2343 35.1444 24.6728 31.3407 24.6728C27.4821 24.6728 26.8917 27.6872 26.8917 30.7995V42.6023H19.4835V18.7437H26.5954V22.0042H26.695C27.4068 20.7873 28.4353 19.7862 29.671 19.1075C30.9067 18.4288 32.3034 18.0979 33.7122 18.1501C41.221 18.1501 42.6054 23.0892 42.6054 29.5146L42.6023 42.6031ZM11.1241 15.4825C8.74971 15.4829 6.82452 13.5583 6.82413 11.1839C6.82374 8.8095 8.74815 6.8843 11.1226 6.88391C13.497 6.88333 15.4222 8.80794 15.4226 11.1824C15.4228 12.3226 14.97 13.4162 14.1639 14.2227C13.3578 15.0291 12.2644 15.4823 11.1241 15.4825ZM14.8284 42.6032H7.41221V18.7437H14.8282L14.8284 42.6032ZM46.2956 0.00363904H3.68956C1.67588 -0.0190172 0.0245178 1.59407 -9.15527e-05 3.60774V46.3915C0.0237366 48.4062 1.67491 50.0208 3.68936 49.9997H46.2956C48.3144 50.0247 49.972 48.4101 49.9999 46.3915V3.60442C49.9712 1.58684 48.3134 -0.0260485 46.2956 0.000318729" fill="#00FFB2"/>
</svg>
