<svg width="79" height="49" viewBox="0 0 79 49" fill="none" xmlns="http://www.w3.org/2000/svg">
<path d="M10.0932 9.86826C10.5421 9.75101 9.46078 10.5834 10.3419 10.2034C10.2224 10.348 10.1049 10.4953 9.99002 10.6427C9.86849 10.588 9.74585 10.535 9.6233 10.4818C9.77505 10.275 9.93132 10.0705 10.0928 9.86782C10.093 9.86796 10.0931 9.86811 10.0932 9.86826ZM9.29742 8.47655C9.34642 8.91035 8.8549 9.5111 9.68837 9.17486C9.65404 9.04025 9.62201 8.90399 9.58985 8.76827C9.87155 8.64018 10.1558 8.51806 10.4394 8.40386C10.4898 8.30107 10.5411 8.19855 10.5939 8.09655C10.8315 8.177 11.0663 8.26213 11.2996 8.34994C11.1894 8.3964 11.078 8.4445 10.9683 8.49314C10.7211 8.91551 10.445 9.21043 10.0164 9.65282C10.0901 9.65265 10.1635 9.6525 10.2369 9.65318C9.95115 9.79994 9.66733 9.95434 9.3868 10.1159C9.51806 9.86428 9.6729 9.58516 9.80635 9.35473C9.27788 9.38775 8.8894 10.0396 8.68897 10.3613C8.41344 10.8011 8.37419 10.6106 8.17406 10.94C8.1424 10.9927 8.23184 11.0785 8.15656 11.1704C7.77097 11.6268 7.02245 12.5303 7.2035 11.8059C7.83954 11.0351 8.23404 10.2325 8.99615 9.58797C8.57484 9.54006 8.85563 9.07983 9.29742 8.47655ZM3.34535 25.4779C3.2011 25.2444 3.20359 24.7945 3.27575 24.4116C3.27575 24.4116 3.27575 24.4116 3.27575 24.4116C3.29259 24.3211 3.31301 24.2347 3.33553 24.1559C3.33554 24.1554 3.33555 24.1549 3.33555 24.1545C3.36152 24.063 3.58093 23.8638 3.56746 24.1573C3.56337 24.2506 3.54769 24.3347 3.52672 24.4116C3.52672 24.4116 3.52672 24.4116 3.52672 24.4116C3.44042 24.7287 3.26157 24.9266 3.45389 25.1236C3.41483 25.2377 3.38166 25.3575 3.34535 25.4779ZM3.44573 26.5229C3.39494 26.8278 3.12324 26.7208 3.15664 26.3404C3.15644 26.3405 3.15623 26.3405 3.15603 26.3405C3.17165 26.1817 3.39699 26.4713 3.14823 25.9293C3.29935 25.8034 3.43732 25.6824 3.5855 25.5626C3.59567 25.6973 3.60785 25.8196 3.62051 25.96C3.35152 25.8846 3.49729 26.2222 3.44573 26.5229ZM7.01722 12.2998C7.18157 12.4766 7.29404 12.3146 7.62408 12.1508C7.42985 12.3937 7.24094 12.6406 7.05854 12.8914C7.04196 12.695 7.02784 12.4988 7.01722 12.2998ZM12.3757 7.19705C12.3761 7.19679 12.3765 7.19653 12.3769 7.19626C12.4425 7.10789 12.5092 7.01957 12.5759 6.93302C12.6738 6.97027 12.7706 7.00822 12.8676 7.04673C13.1333 6.78547 13.4083 6.5299 13.6908 6.28077C13.7761 6.52613 13.1883 6.81512 12.9823 7.16094C12.4926 7.37824 12.1979 7.40466 12.0444 7.24409C12.1546 7.22741 12.2648 7.2124 12.3757 7.19705ZM61.1488 45.1513C61.2501 45.0457 61.35 44.9392 61.4489 44.832C61.2777 44.8534 61.1101 44.8797 60.9371 44.8921C60.5977 45.3148 60.4779 45.0658 59.92 45.2257C58.1977 45.6676 58.7043 46.0595 57.0186 45.5619C58.303 45.4432 57.768 45.1711 58.4743 44.7975C58.6685 44.9619 57.985 45.5241 58.5155 45.5259C59.369 45.1664 60.1616 44.7819 61.0544 44.3644C61.0169 44.3408 60.9799 44.317 60.9428 44.2933C60.8019 44.359 60.6611 44.423 60.5179 44.4858C60.654 44.3534 60.784 44.2217 60.9166 44.0851C60.774 44.3438 61.2582 44.0721 61.2613 44.3167C61.263 44.4263 61.0734 44.639 60.9632 44.7762C61.3377 44.7198 61.7219 44.6448 62.0983 44.5645C61.9407 44.7102 61.78 44.8541 61.6171 44.9958C61.4625 45.0497 61.3071 45.1011 61.1519 45.1513C61.1509 45.1513 61.1498 45.1513 61.1488 45.1513ZM33.7881 3.81396C34.2812 3.57075 35.1772 3.53051 35.6488 3.80114C35.0281 3.80528 34.4087 3.80982 33.7881 3.81396ZM11.9131 7.11586C11.9804 7.1197 12.046 7.12444 12.1131 7.12894C11.9623 7.32355 11.8146 7.52025 11.6728 7.71817C11.5666 7.64765 11.4591 7.57827 11.3511 7.51012C11.5357 7.37586 11.7241 7.24411 11.9131 7.11586ZM3.60067 19.2129C3.6366 19.0454 3.64407 19.0313 3.71691 18.8306C3.71675 18.8308 3.71659 18.831 3.71642 18.8312C3.74229 18.7496 4.01198 18.0976 4.07833 18.2005C3.97558 18.5319 3.87212 18.8869 3.78315 19.2323C3.72186 19.2276 3.66313 19.215 3.60067 19.2129ZM5.06433 15.3694C5.06472 15.3691 5.06512 15.3687 5.06551 15.3684C5.13361 15.2597 5.21249 15.1644 5.27628 15.0499C5.19528 15.5354 4.9303 15.4896 4.81879 15.9123C4.71063 16.3366 4.74592 16.6277 4.28134 16.8387C4.28098 16.6923 4.26486 16.5272 4.26138 16.3726C4.63112 15.8574 4.57774 15.6571 4.66701 15.1453C4.79962 15.2204 4.93153 15.2946 5.06433 15.3694ZM53.1604 45.3761C53.0372 45.552 52.8997 45.3794 52.8855 45.3773C52.8857 45.3771 52.886 45.3769 52.8862 45.3767C51.7944 45.5396 53.0283 45.2793 51.9979 45.2519C52.1512 45.2079 52.302 45.1615 52.4539 45.117C52.6889 45.2018 52.9312 45.298 53.1604 45.3761ZM18.0498 44.5613C18.0546 44.5094 18.0577 44.4569 18.0627 44.4051C18.6255 44.5752 18.815 44.4127 19.2466 44.7001C18.8475 44.6661 18.4492 44.6203 18.0496 44.5619C18.0497 44.5617 18.0497 44.5615 18.0498 44.5613ZM2.70165 22.0794C2.67804 21.4099 2.71177 20.9091 2.98463 20.3146C2.98492 20.3141 2.98522 20.3137 2.98551 20.3132C3.00176 20.2794 3.07355 20.4728 3.1091 20.4311C3.11779 20.3003 3.11992 20.1645 3.1286 20.0306C3.21628 20.0308 3.30375 20.032 3.39087 20.0325C3.29031 20.3871 3.19954 20.7421 3.11735 21.105C3.1755 21.0588 3.23357 21.0117 3.29201 20.9664C3.26603 21.2797 3.24795 21.5872 3.23627 21.8992C3.10955 21.7751 2.98385 21.6492 2.85864 21.5225C2.80375 21.7065 2.75226 21.8924 2.70165 22.0794ZM27.9943 45.9202C27.8854 45.8643 28.0871 45.7706 27.9179 45.7224C27.7488 45.6749 27.437 45.7792 27.51 45.6214C27.7378 45.6002 27.9769 45.5759 28.209 45.5537C27.4622 45.2692 26.7172 45.5266 26.7057 45.1753C27.4224 45.2664 28.0117 45.2241 28.7054 45.1268C28.6768 45.4057 27.9829 45.6468 28.4198 45.9086C28.2794 45.9122 28.1319 45.9175 27.9958 45.9196C27.9953 45.9198 27.9948 45.92 27.9943 45.9202ZM20.2336 0.18877C20.6998 0.136381 21.7691 -0.0924487 22.3756 0.0415063C22.529 0.0713999 23.0268 0.570719 23.0249 0.640131C23.0166 0.870166 22.4502 0.923249 23.0647 1.05074C22.8594 1.05867 22.6637 1.07587 22.4589 1.09158C22.5042 1.24398 22.5486 1.39611 22.5911 1.54832C22.8318 1.51249 23.0735 1.48029 23.317 1.45147C23.3301 1.50244 23.343 1.55354 23.3559 1.60453C22.4864 1.63021 23.006 1.81247 22.57 2.01638C22.9826 2.08735 23.3932 2.16908 23.7983 2.26222C23.5646 2.25061 23.2897 2.24698 23.0845 2.24022C23.0658 2.50221 23.5486 2.42849 23.633 2.47796C24.0993 2.7301 21.7271 2.67658 21.5837 3.10827C21.9558 3.11262 22.3462 3.12422 22.7268 3.14742C22.621 3.1998 22.5137 3.25312 22.4093 3.30708C21.5434 3.09881 20.5645 3.12222 19.5397 3.15987C19.4524 3.18834 19.3643 3.21785 19.2781 3.24676C19.3289 3.35704 19.3779 3.46732 19.428 3.57788C19.2974 3.61939 19.1659 3.66236 19.0368 3.70626C19.3433 3.23988 18.8029 3.35424 18.0769 3.30403C18.3968 3.07425 18.857 3.05282 18.7694 2.81117C17.5816 3.28224 16.0761 3.49117 15.0271 4.19417C14.769 4.36905 14.9026 4.66191 14.2542 4.94151C14.2599 4.89841 14.2348 4.83786 14.228 4.78821C13.1946 5.47968 12.6131 5.92573 11.4693 6.50738C11.5972 6.56305 11.7236 6.62076 11.85 6.67838C12.0373 6.48073 12.2292 6.28483 12.4248 6.09366C12.6835 6.16603 12.497 6.37145 13.1764 5.96928C13.7389 5.64822 13.3617 5.76344 13.488 5.62628C13.6613 5.44082 13.9196 5.48002 14.1091 5.28449C14.2575 5.13466 13.9895 5.08437 14.4807 4.89144C14.3803 5.17118 14.2856 5.4593 14.1991 5.74195C14.0669 5.75708 13.9351 5.77245 13.8023 5.7898C13.8873 5.68066 13.9721 5.57366 14.06 5.46553C13.7071 5.7605 13.383 6.04848 13.0431 6.37245C13.0175 6.03566 12.6639 6.37822 12.4656 6.54857C12.1563 6.81368 12.3341 6.45131 12.1303 6.62543C11.927 6.80196 11.8216 7.1516 11.4088 7.3902C11.5369 7.131 11.1838 7.23826 11.1649 7.09863C11.1455 6.95786 11.5518 6.634 11.068 6.81401C10.3615 7.4654 11.4705 7.2281 11.0102 7.67041C10.4748 8.20073 9.84569 7.73613 9.91873 7.45791C9.97702 7.2383 10.495 6.86627 10.5691 6.65208C9.50931 7.1639 9.80674 7.54876 9.71562 7.73737C9.40138 8.44429 9.17245 7.4687 8.76303 8.27304C8.66244 8.14191 8.57115 8.02476 8.47562 7.89814C8.38757 8.02103 8.34348 8.11727 8.23155 8.25797C8.83196 8.12893 8.51055 8.41346 8.356 8.5653C8.11193 8.80573 8.59919 8.54776 8.56232 8.64063C8.46225 8.88637 8.16007 9.12289 8.42495 9.05652C8.30441 9.08419 8.17741 9.11924 8.05502 9.15183C7.82882 9.49794 7.73205 10.633 8.21125 9.90174C8.34294 10.1342 8.06637 10.2538 7.89362 10.3916C7.7212 10.5293 7.84686 10.6327 7.70096 10.7574C7.12475 11.2607 7.22386 10.707 7.13766 10.4701C6.61049 11.36 7.29503 10.6342 6.49738 11.858C6.55942 12.0733 7.10274 11.653 6.86082 12.1563C6.55412 12.0571 6.12515 12.2564 5.60255 12.8844C5.62026 12.9888 5.6394 13.0929 5.65865 13.1964C5.18963 13.4214 5.03935 13.0803 4.94139 13.969C4.59386 13.2669 4.79822 13.7261 4.21743 14.2639C4.09964 14.3751 4.1434 13.9988 3.98387 14.1574C3.91134 14.2301 3.89446 14.4861 3.71996 14.6658C3.63392 14.7513 3.17227 15.1419 3.13209 15.5411C3.52927 15.4146 3.49691 16.1656 3.97361 15.7186C3.47888 16.7013 3.3634 17.4977 3.40899 16.1774C3.21458 16.4042 3.02362 16.6385 2.83747 16.8764C2.84045 17.0898 2.84547 17.304 2.8538 17.5171C2.60129 17.465 2.5302 17.413 2.34879 18.1833C2.38552 17.8374 2.42971 17.4905 2.48362 17.1417C2.43795 17.1138 2.40237 17.0502 2.35067 17.0448C2.29621 17.4809 2.00332 18.6449 2.00773 18.9446C2.00472 19.2411 2.1582 18.7058 2.20312 18.803C2.57004 19.6012 2.19265 19.4489 2.18168 19.9527C2.17841 20.2447 2.37755 19.5863 2.36963 19.7419C2.33719 20.3134 2.00398 20.5157 1.92042 21.0207C2.11204 20.867 2.30752 20.72 2.50275 20.5803C2.40162 21.0923 2.32079 21.6649 2.32429 22.1532C2.3258 22.3438 2.46315 22.2137 2.46825 22.2453C2.4928 22.4004 2.51215 23.0212 2.51082 23.0869C2.48447 23.5793 2.31338 23.5834 2.29364 24.0667C2.28217 23.8769 2.27422 23.6987 2.2678 23.5136C1.99415 23.4182 1.72117 23.3188 1.44833 23.2164C1.41115 23.6118 1.38452 24.0093 1.36826 24.4116C1.36826 24.4116 1.36826 24.4116 1.36826 24.4116C1.36446 24.5056 1.36124 24.5995 1.35857 24.6934C1.38139 24.5994 1.40475 24.5054 1.42868 24.4116C1.42868 24.4116 1.42868 24.4116 1.42868 24.4116C1.49719 24.143 1.57034 23.8776 1.64823 23.6164C1.74524 23.8841 1.84712 24.1492 1.95368 24.4116C1.95368 24.4116 1.95368 24.4116 1.95368 24.4116C2.07154 24.7019 2.19513 24.9862 2.32401 25.2644C2.19735 25.5488 2.07656 25.8427 1.96162 26.1388C2.06457 26.9126 2.61034 26.6903 2.16576 27.1124C2.2349 27.3345 2.30721 27.5533 2.38251 27.7716C2.3085 27.7501 2.23441 27.7286 2.1605 27.7068C2.24435 27.9745 2.33293 28.2399 2.42691 28.5013C2.61598 28.1717 2.82596 27.8525 3.02254 27.5436C3.15512 28.0516 2.95529 28.0964 2.91652 28.1835C2.81609 28.4151 3.08105 28.7844 2.99209 28.9739C2.9601 29.0397 2.71824 28.5555 2.59871 28.7638C2.57287 28.8005 2.15152 29.631 2.40411 30.0472C2.50449 30.0118 2.62135 29.9446 2.72842 29.8978C2.94416 30.468 2.51154 30.9247 2.33821 30.8926C2.53704 31.1808 2.7014 31.6397 2.88455 31.6474C2.94363 31.8055 3.00347 31.9606 3.06632 32.1178C2.61507 32.0944 2.94085 32.7393 3.28977 32.6464C3.19019 32.3751 3.09562 32.0995 3.00718 31.8252C3.49911 31.8806 3.41608 30.9827 3.70074 32.8002C3.62336 33.2067 3.4971 32.2207 3.44636 32.545C3.53736 33.038 3.7996 33.4287 3.85871 33.9189C3.94194 34.5292 3.43561 33.9802 4.30016 35.078C3.50698 32.1086 4.79461 35.2917 5.76593 36.3088C5.45466 36.9599 5.97421 38.1108 7.21908 39.2267C7.2324 38.9844 6.82682 38.6518 6.6829 38.3832C6.53993 38.1164 6.8203 38.3016 6.65394 37.964C6.48597 37.6274 6.11398 36.9376 6.01086 36.5646C6.25868 36.776 7.36234 37.8449 6.53362 37.2094C6.85066 37.9142 6.93769 38.3113 7.54614 39.0443C7.93927 39.072 8.03747 38.9514 8.68137 39.5919C8.03079 39.4717 8.59261 40.3976 8.16022 40.5128C7.74341 39.9752 8.27671 39.9738 8.13832 39.5763C8.12316 39.5376 7.63514 39.1567 7.54614 39.0443C7.71144 39.7289 7.78621 39.9792 7.22084 39.9694C7.55757 40.2762 7.72396 40.5096 7.88819 40.4029C7.8961 40.5282 7.9055 40.6543 7.91464 40.7792C8.02264 40.8811 8.12465 40.9677 8.2385 41.0762C8.27905 40.717 8.46156 41.135 8.7706 41.2339C9.07905 41.3295 8.93183 40.9048 9.54091 41.4207C9.38071 41.1977 9.23617 40.9948 9.08928 40.7765C9.51845 41.0623 9.95735 41.3324 10.4012 41.5846C10.2259 41.2282 9.81865 40.5381 9.99 40.3757C10.1015 40.5938 10.7999 40.9624 10.8711 41.0056C11.1436 41.1865 10.9139 41.1941 10.931 41.2121C11.2977 41.5835 11.6754 41.785 11.7126 42.0802C12.0925 42.218 12.3065 42.4256 12.6636 42.6385C12.8604 42.7547 12.9063 42.591 13.0044 42.6855C13.6666 43.2971 12.8281 43.1069 14.5323 43.5254C14.3964 43.3329 14.2686 43.138 14.1421 42.9424C14.3296 42.9919 14.5165 43.0379 14.7045 43.0818C14.8088 43.1558 14.912 43.2281 15.0176 43.3001C14.9109 43.5227 14.8035 43.7455 14.6966 43.968C14.8207 44.0407 14.9465 44.1121 15.0724 44.1825C14.8371 44.1051 14.6027 44.0234 14.3698 43.9377C14.3305 43.967 14.2925 43.9968 14.253 44.0259C14.5556 44.2482 14.8634 44.4634 15.1806 44.6722C15.2208 44.596 15.2612 44.5192 15.3012 44.4429C16.0203 44.8698 16.0264 44.9485 16.8469 44.984C17.4253 45.1819 17.9982 44.9701 18.3668 44.9113C18.4739 44.9893 18.5809 45.0669 18.6907 45.1434C18.7846 45.0929 18.8786 45.0423 18.9712 44.9906C19.1 45.1227 19.2337 45.2542 19.3682 45.3834C19.5016 45.1795 19.5545 45.1252 18.9824 44.9136C19.2474 44.6941 20.2476 45.0222 20.6667 45.1723C20.9805 45.2904 20.5867 45.4694 20.6225 45.5033C20.7451 45.6213 21.3023 45.6091 21.4156 45.6359C21.8953 45.7553 22.2362 45.77 22.6784 45.8454C22.7633 45.8605 22.9983 46.0185 23.0192 46.0236C23.1779 46.0557 23.5752 46.1345 23.6211 46.1361C23.6835 46.1396 23.7425 46.1422 23.7983 46.1441C25.8548 46.2138 23.5162 45.6061 25.6577 45.6721C25.5918 45.5873 25.5312 45.503 25.4668 45.4182C25.633 45.413 25.8009 45.4081 25.9671 45.4029C26.1778 45.4738 25.9229 45.6028 26.3414 45.4988C26.3141 45.6033 26.2868 45.7079 26.2581 45.8119C26.4402 45.7555 26.6156 45.6995 26.802 45.6431C27.0944 46.0058 28.1618 46.0882 28.086 46.514C28.0602 46.6589 27.3034 46.8076 27.7033 46.9623C28.0282 46.9928 27.8083 46.8197 27.9408 46.8106C28.8984 46.7475 28.8427 46.9901 29.234 46.9254C29.2956 46.8214 29.3604 46.7154 29.4235 46.6105C29.571 46.641 29.719 46.6715 29.868 46.702C29.9024 46.6322 29.9383 46.5622 29.9727 46.4924C29.8336 46.4877 29.6771 46.483 29.5495 46.4783C29.7274 46.2078 31.361 46.0862 30.738 46.3169C30.4843 46.4105 30.0197 46.3708 30.3133 46.6904C30.7505 46.6444 31.2465 46.5973 31.7066 46.5513C31.7209 46.6201 31.7342 46.689 31.7486 46.7579C32.3686 46.7133 31.8047 46.4381 31.8059 46.2907C31.9477 46.2865 32.091 46.2829 32.2328 46.2788C32.293 46.3454 32.3501 46.4152 32.4131 46.4799C32.4189 46.3737 32.4983 46.1271 32.9211 46.2186C33.1929 46.2782 32.7648 46.546 33.2831 46.5088C33.2444 46.3433 33.0571 46.1417 33.6345 46.0883C33.6918 46.2611 33.7711 46.4194 33.8155 46.601C34.5335 46.435 34.8602 46.7018 35.703 46.5088C36.2376 46.3867 36.97 45.9532 37.3154 46.6211C37.7065 46.6387 37.5824 46.4724 37.6981 46.435C38.2442 46.258 38.6504 46.5747 38.7522 46.5934C39.4012 46.7128 39.6922 46.6031 40.2211 46.7527C40.1924 46.629 40.1768 46.5119 40.1538 46.3914C39.6693 46.5766 39.424 46.5679 38.7446 46.5281C38.9724 46.5032 39.2003 46.4778 39.4282 46.453C39.3909 46.3526 39.354 46.2523 39.3182 46.1524C37.2168 46.5478 37.707 45.9231 39.4687 45.7865C39.6206 45.9723 39.778 46.1575 39.9285 46.3438C40.9462 46.0623 41.425 46.3066 42.576 46.3651C42.7128 46.3718 43.2111 46.2648 43.4253 46.2595C43.4218 46.2588 43.4182 46.2581 43.4146 46.2574C43.5479 46.082 43.3674 46.0013 43.3459 45.8445C43.462 45.8248 43.5781 45.8053 43.6942 45.7856C43.9535 45.9051 43.8623 46.0033 44.3725 45.9748C44.3037 45.8558 44.2358 45.7368 44.167 45.6178C44.7261 45.6136 45.0919 45.7429 45.6122 45.687C45.5248 45.7321 45.4384 45.7772 45.351 45.8222C46.4834 45.9371 45.5822 46.6368 46.4379 46.2885C46.4924 46.3496 46.5454 46.4112 46.5999 46.4722C46.2473 46.4872 45.8946 46.5018 45.5435 46.5168C45.5363 46.6032 45.5286 46.6892 45.5228 46.7756C45.8998 46.7497 46.2786 46.723 46.6556 46.6971C46.3804 46.7551 46.1036 46.8131 45.8284 46.8711C46.2655 46.9125 46.7028 46.9539 47.1399 46.9953C46.6757 46.6776 47.2775 46.6388 47.1643 46.3242C47.9384 46.5861 48.5463 46.9312 49.7461 46.7103C49.9839 46.6662 49.8547 46.4464 50.5298 46.7139C50.3664 46.3642 51.2121 46.2 51.1034 45.8674C50.8684 45.8834 50.6247 45.8935 50.3969 45.9132C50.6563 46.0286 50.6993 46.346 50.3052 46.4402C49.8021 46.5602 49.0683 46.3402 49.0984 46.6926C48.8978 46.676 48.7112 46.6662 48.5163 46.6523C48.5965 46.5649 48.6751 46.4769 48.7539 46.3895C48.1994 46.5265 47.851 46.482 47.5844 46.2617C48.2451 46.211 48.9044 46.1608 49.5651 46.1106C49.4677 46.0956 49.3691 46.0805 49.2718 46.0661C49.772 45.841 49.256 45.6278 50.1891 45.5796C50.1834 45.6826 50.1788 45.7856 50.1731 45.8891C50.5128 45.6138 51.4429 45.6153 51.1462 45.2986C51.4271 45.3959 51.4844 45.4574 51.6435 45.2867C52.3845 45.5273 52.8605 45.8316 52.5967 46.1948C52.8719 46.1364 53.1472 46.0778 53.4209 46.0194C53.2618 45.92 53.1026 45.8212 52.9435 45.7218C53.4223 45.728 53.9045 45.7341 54.3818 45.7398C54.4277 46.0337 53.4603 45.829 53.7394 46.0917C53.7953 46.1444 54.0529 46.0315 54.1206 46.0612C54.8344 46.3825 53.7138 46.1503 53.9243 46.3965C54.6718 46.45 54.4735 46.6697 54.7983 46.6751C54.9376 46.677 55.1742 46.642 55.6074 46.5239C55.6493 46.6073 55.6945 46.6922 55.7343 46.7749C56.25 46.7559 56.1996 46.5658 56.6347 46.4964C56.9044 46.452 57.2884 46.7514 57.5665 46.4856C57.6121 46.4346 57.0668 46.0998 58.1148 45.9702C58.9306 45.8523 58.6416 46.1928 59.1047 46.2114C59.5782 46.23 60.4777 45.5939 60.8932 45.945C60.647 45.9519 60.3439 45.9983 60.0771 46.0119C59.9942 46.1237 59.9123 46.2335 59.8276 46.3436C60.3928 46.0979 61.038 46.0574 61.3649 45.7339C62.2413 45.8082 62.9903 45.1892 62.6276 44.9367C62.4013 45.0785 62.7245 45.1288 62.3464 45.1598C62.2822 45.0923 62.2166 45.0256 62.1531 44.9577C62.7344 44.7601 63.1281 44.5897 62.9639 44.9379C63.0557 44.9081 63.1465 44.8779 63.2379 44.8468C63.1819 44.6662 63.1234 44.4857 63.0666 44.3054C63.1618 44.2428 63.2574 44.1792 63.3517 44.1151C63.4825 44.1034 63.6138 44.0908 63.7463 44.0764C63.7145 44.4151 63.4479 44.5584 64.4048 44.2913C64.3625 44.1973 64.3215 44.1032 64.2792 44.0093C65.0617 43.7653 65.2049 43.9802 66.0954 43.4525C65.5867 44.1689 64.8929 43.8047 65.2303 44.4397C65.0286 44.4918 64.8249 44.5412 64.6227 44.5874C64.6406 44.6944 64.6585 44.8015 64.677 44.9081C65.6698 44.3869 66.8314 42.8756 67.6656 42.8258C67.7057 42.7301 67.7496 42.6401 67.7869 42.5401C68.5247 42.3424 68.387 41.6714 69.1583 41.4898C69.2375 41.4675 69.4964 42.0237 70.1991 41.3684C70.1309 41.3289 70.037 41.2436 69.9593 41.1862C70.142 41.0831 70.3244 40.9793 70.5048 40.8722C70.4838 40.7965 70.4637 40.7197 70.4417 40.6439C70.1724 40.8661 69.8988 41.0808 69.6206 41.2895C69.8213 41.0814 70.0191 40.8684 70.2111 40.6534C69.8609 40.8286 69.7362 40.9372 69.7782 40.6531C70.0068 40.4274 70.2301 40.1961 70.4483 39.9611C70.4386 39.9049 70.4282 39.8486 70.418 39.7926C70.211 39.8052 70.0059 39.8178 69.7993 39.8225C70.4632 39.3338 70.9438 38.8131 71.561 38.5034C71.665 38.4491 71.5612 38.8629 71.9056 38.1855C71.9872 38.2366 72.0603 38.2697 72.1375 38.3149C72.4954 37.4283 72.7273 37.2478 73.4199 36.5568C72.9275 36.9724 73.3321 36.5782 73.3354 36.3935C73.3381 36.2677 73.1175 36.6229 73.0849 36.5444C73.0554 36.4656 73.1106 35.8657 72.834 36.2293C72.6782 37.4835 71.9492 37.3418 71.2397 38.6107C71.3291 38.3942 71.4155 38.1756 71.4966 37.9583C71.3924 38.0071 71.2985 38.0495 71.1862 38.1008C71.7759 37.5598 71.4749 37.8098 71.6073 37.5013C71.739 37.1911 72.0261 36.6753 72.2263 36.3371C72.2896 36.2306 72.3231 36.4117 72.4894 36.1856C72.6046 36.031 72.7212 35.4912 72.9745 35.5052C73.1422 35.5093 73.0385 36.4598 73.6536 35.4391C73.8916 35.3176 73.5618 35.7893 73.5687 35.8078C73.6603 35.9887 74.1551 35.4144 74.2037 35.0472C74.207 35.0179 73.9606 35.1893 74.0559 34.9078C74.2758 34.2412 74.5817 33.9533 74.9596 33.6276C74.7606 33.4793 74.7398 32.8397 75.0792 32.2045C75.0277 32.1453 74.9748 32.0877 74.9225 32.0289C74.9176 32.1454 74.9112 32.2618 74.9044 32.3786C74.8194 32.4752 74.7419 32.5817 74.6494 32.6705C74.8656 31.9857 74.5814 31.7705 74.5801 31.4165C74.5506 30.2042 75.17 31.1283 75.2446 31.3848C75.1368 31.5101 75.0229 31.6263 74.9107 31.7452C74.9957 31.7584 75.0814 31.7715 75.1664 31.7858C75.734 30.1063 75.7799 31.7095 76.2084 30.8806C75.8803 30.5299 76.0299 29.8928 76.4683 29.1086C76.4864 29.0149 76.5056 28.9203 76.5219 28.8268C76.4657 28.7994 76.375 28.7813 76.3409 28.7484C76.4652 27.7339 77.1046 27.6365 77.1825 27.5457C77.51 27.1397 77.1758 26.7457 77.1849 26.6192C77.2224 26.0744 77.3979 25.9216 77.3521 25.394C77.2963 24.829 77.1557 25.2094 77.048 25.036C76.9793 24.9252 76.9604 24.6213 76.9048 24.4116C76.9048 24.4116 76.9048 24.4116 76.9048 24.4116C76.8912 24.3599 76.8756 24.3141 76.857 24.2785C76.9026 24.3209 76.9475 24.3664 76.9925 24.4116C76.9925 24.4116 76.9925 24.4116 76.9925 24.4116C77.0232 24.4425 77.0539 24.4732 77.0848 24.5026C77.0904 24.4721 77.096 24.4417 77.1014 24.4116C77.1014 24.4116 77.1014 24.4116 77.1014 24.4116C77.1983 23.8697 77.2774 23.4119 77.2574 22.7796C76.6496 22.0894 77.4964 21.3601 76.7716 21.7046C76.7934 22.3268 76.7299 22.674 76.5575 23.013C76.5074 22.6146 76.4476 22.2235 76.3759 21.8289C76.4454 21.7036 76.5162 21.6112 76.5825 21.4624C76.3694 21.1902 76.3318 20.4936 76.2261 20.2374C75.7233 19.0381 75.524 19.519 75.7079 18.2657C75.9829 19.0558 76.2232 18.9954 76.3722 19.8241C76.5088 19.6097 76.3751 19.1967 76.6447 19.4216C76.4042 18.6317 76.2788 18.939 76.0371 18.6754C75.8283 18.4494 75.6641 17.9339 75.4922 18.0193C75.5751 17.9364 75.6579 17.8652 75.7397 17.7808C75.5804 17.2808 75.4049 16.7889 75.2103 16.302C75.3931 16.4693 75.5746 16.6416 75.7529 16.8178C75.733 16.6432 75.7104 16.4672 75.6861 16.292C74.936 15.1932 74.3836 12.9349 73.816 13.6661C73.4857 13.1439 73.5332 13.0278 73.4894 12.6543C73.4152 12.6568 73.3507 12.6548 73.2706 12.6619C73.1112 12.2878 72.74 12.1691 72.5899 11.848C72.438 11.5269 72.566 11.3211 72.2289 11.5077C72.1823 11.2608 72.1169 11.0254 72.0556 10.7836C71.9022 10.7297 71.7497 10.6773 71.5977 10.6283C71.4981 10.4353 71.3947 10.243 71.2886 10.052C71.0789 10.0838 70.576 9.41176 70.2272 9.23875C70.1214 8.85576 70.568 8.41121 69.87 7.91511C69.7825 8.04324 69.6946 8.17055 69.6064 8.29813C69.4885 8.14614 69.368 7.9953 69.2446 7.84497C69.2689 7.79966 69.2944 7.7553 69.3186 7.70991C69.3823 7.78597 69.4446 7.86143 69.5068 7.93856C69.5001 7.81872 69.4933 7.70005 69.4856 7.58061C69.1804 7.48103 68.8747 7.38865 68.5687 7.30352C68.8151 7.62436 69.0514 7.95071 69.2766 8.28092C68.8396 8.04118 68.6526 7.73752 68.2444 7.57112C68.089 7.17722 68.2675 7.163 68.5309 7.07757C68.4092 7.00615 68.2862 6.93443 68.1634 6.86551C68.3754 6.74061 68.2751 6.47843 68.9104 7.00963C68.9076 6.92281 68.9015 6.8375 68.9005 6.74928C68.7871 6.67206 68.7516 6.57338 68.6171 6.50133C68.2485 6.30412 67.7588 6.45159 67.6989 6.58277C67.6674 6.6506 68.0675 6.76999 67.9917 6.84529C67.8042 7.02581 67.1681 6.40244 68.0325 7.37796C67.5982 7.24906 67.5996 7.09591 67.2464 6.78573C67.227 6.87648 67.2066 6.96601 67.1852 7.0556C67.0341 6.89926 66.8796 6.74461 66.723 6.59223C67.2287 6.3991 65.9452 5.35913 67.3942 5.85542C67.0407 5.59126 66.6797 5.33752 66.3119 5.09374C66.4129 5.10164 66.5138 5.11063 66.6153 5.12014C66.7738 5.24537 66.9295 5.37149 67.0842 5.49996C66.9322 5.30286 66.7752 5.10753 66.6147 4.91379C66.0817 4.71126 65.8119 4.74423 65.4982 4.79201C65.9889 5.22659 65.9003 4.95565 66.3514 5.1779C66.2733 5.27395 66.2347 5.38227 66.1315 5.47049C66.0451 5.1175 65.2193 4.86847 65.0433 4.79511C64.5034 4.55966 65.028 4.54734 64.6756 4.36479C64.3197 4.18257 63.837 4.12578 63.635 3.77077C63.5858 3.90051 63.553 4.04254 63.5241 4.16755C62.9452 3.97116 63.1176 3.87072 63.0671 3.82602C62.2449 3.12834 61.6107 3.21913 60.4864 2.9502C60.6184 3.0295 60.7515 3.10634 60.8828 3.18588C59.9647 3.24114 60.5625 3.29762 61.2455 3.60846C60.5851 3.37535 60.1296 3.51981 59.6416 3.48208C59.151 3.44095 58.3594 3.16665 58.066 3.0243C58.79 2.97051 59.5206 3.22489 60.2871 3.37871C60.2358 3.21944 60.1813 3.08228 60.1276 2.90916C59.5881 3.08185 59.3603 2.83441 59.2098 2.76325C58.7717 2.55895 58.7413 2.81454 58.5074 2.49624C58.5032 2.591 58.4984 2.67046 58.495 2.75906C57.5566 2.55611 56.5199 2.29759 55.8756 2.6173C55.8299 2.38873 55.7965 2.16913 55.739 1.93579C55.3916 2.06192 55.0931 1.96321 54.7983 1.94802C54.737 1.9448 54.6762 1.94516 54.6156 1.95217C54.273 1.99202 54.4035 2.17475 54.0007 2.24513C53.9262 2.25806 53.771 2.14369 53.5875 2.22804C53.4022 2.31283 52.719 2.94329 52.6373 2.39252C52.2919 2.38993 51.965 2.36979 51.6267 2.36048C51.9564 2.32943 52.2861 2.29936 52.6144 2.26832C52.3335 2.13483 52.0543 2.00174 51.7734 1.86825C51.7375 1.98727 51.7016 2.10844 51.6672 2.2259C50.9104 2.37079 50.3612 2.1762 49.5972 2.22224C49.4696 2.23 49.7706 2.46531 49.2046 2.40534C48.6384 2.34532 48.2183 1.90613 47.2537 2.07576C47.205 2.08456 46.9194 2.42092 46.5739 2.18806C46.4953 2.13529 46.8262 2.0572 46.6457 1.98788C46.4651 1.91854 45.6593 1.86152 45.5962 1.69645C45.6048 1.75491 45.6551 1.81548 45.6795 1.87497C45.5419 1.9029 45.4029 1.93086 45.264 1.95828C45.251 1.85532 45.2371 1.7522 45.2242 1.64976C44.433 1.88933 44.0241 2.28014 42.8518 2.15083C43.1814 2.30037 43.5112 2.4505 43.8394 2.60003C43.9297 2.49498 44.0202 2.38923 44.109 2.28419C44.6493 2.3261 45.1911 2.3677 45.7314 2.40961C45.8203 2.29008 45.9076 2.17088 45.9965 2.05135C46.1398 2.06687 46.2817 2.08191 46.425 2.09743C46.3892 2.18384 46.353 2.2698 46.3158 2.35621C46.5995 2.335 46.8836 2.31333 47.1659 2.29212C46.5912 2.80218 45.5609 2.24874 45.6352 2.6754C45.5077 2.6092 45.38 2.54254 45.2525 2.47583C45.1966 2.68271 44.9373 2.62317 44.4803 2.59057C44.5849 2.69251 44.7004 2.79306 44.7965 2.89604C44.3521 2.7522 43.5639 2.76617 43.1038 2.7108C42.9017 2.68649 43.1036 2.53649 43.0435 2.51886C42.7353 2.42675 42.1463 2.68847 42.023 2.66777C41.2863 2.5446 40.8075 2.04841 40.0034 2.37543C40.8333 2.45616 40.3818 2.42206 40.6771 2.60369C40.7695 2.66064 41.8417 2.77943 40.4991 2.72667C40.3417 2.72007 37.9056 2.37724 38.7064 2.11452C38.3122 2.19835 38.0036 2.29528 37.6424 2.38428C36.7594 1.69192 37.065 2.34234 37.3216 2.70043C37.1768 2.70198 37.0391 2.70561 36.89 2.70561C37.2068 2.32942 35.5929 2.30606 35.0453 2.49597C34.8619 2.5591 35.3749 2.67951 34.9506 2.73644C34.7486 2.71005 34.5194 2.6759 34.3059 2.64641C34.6155 2.88443 34.0079 2.97615 34.0165 3.21828C33.628 3.00252 33.3309 2.54519 33.5444 2.29731C33.2234 2.39768 32.9007 2.49792 32.5797 2.59881C32.7287 2.65624 32.8797 2.71318 33.0288 2.77061C31.9796 2.61848 30.6305 2.96466 30.4111 2.45599C30.2721 2.45962 30.1316 2.46275 29.9926 2.46637C29.9496 2.55227 29.908 2.63833 29.865 2.72423C29.2359 2.64973 28.6082 2.57474 27.9791 2.50024C28.5393 2.44693 28.6726 2.32467 29.26 2.42395C29.0337 2.32516 28.8031 2.22582 28.581 2.12703C27.6966 2.393 27.576 2.56781 26.2444 2.48865C26.1842 2.48502 25.1781 2.26198 25.1437 2.24024C24.9861 2.1409 25.2254 1.99658 25.1552 1.94638C24.9602 1.80563 23.7757 1.45222 23.7986 1.39892C24.0882 0.744845 28.0737 0.736176 29.1516 0.70254C37.7825 0.433316 46.2666 0.649979 54.7983 0.726129C57.5112 0.747583 60.2196 1.22023 62.7935 2.12546C62.9094 2.16587 62.8919 2.05698 62.9426 2.07101C63.2595 2.1604 63.5033 2.41874 63.6117 2.46922C63.8447 2.57745 63.7664 2.39542 63.9404 2.46732C65.7398 3.22307 67.3059 4.20705 68.8824 5.33966C68.9849 5.41391 68.8151 5.42574 69.0042 5.543C69.1018 5.60247 69.4913 5.68634 69.6959 5.84827C70.4086 6.41264 70.9422 6.96201 71.6203 7.63496C71.9924 8.00276 72.5154 8.58807 72.8943 9.03306C73.0623 9.22879 73.2937 9.38723 73.4552 9.58614C73.6835 9.86904 73.5113 9.90841 73.5378 9.95814C73.652 10.1771 73.8109 10.0994 73.9462 10.2887C74.1947 10.6429 74.115 10.7277 74.431 11.173C74.658 11.4889 75.2126 12.1986 75.478 12.6176C75.9402 13.6841 76.6013 14.9734 77.0206 15.9688C77.2699 16.559 77.1298 16.6689 77.2141 16.9135C77.5033 17.7764 77.8865 18.3929 78.0827 19.2365C78.3376 20.3566 78.3501 21.3843 78.4305 22.4819C78.4429 22.6603 78.5883 22.6082 78.6043 22.7845C78.6497 23.2875 78.6888 23.888 78.6866 24.4116C78.6861 24.5712 78.6822 24.7221 78.6748 24.8587C78.6362 25.5086 78.4083 25.7341 78.404 26.3656C78.4015 26.5507 78.5864 26.6208 78.5786 26.935C78.5648 27.4407 78.3223 27.956 78.2467 28.2963C78.1416 28.7613 78.4061 28.387 78.2618 29.0156C78.2556 29.0415 78.1021 29.1086 78.0807 29.2447C78.0151 29.6419 78.1327 29.6279 77.9834 30.1986C77.9716 30.2537 77.6415 30.9757 77.6166 31.0473C77.4929 31.4843 77.1558 32.3399 77.0857 32.5991C76.8364 33.5341 77.3026 32.9104 76.5796 33.4966C76.5432 33.8696 76.4999 34.2428 76.4323 34.6361C76.4537 34.3643 75.8718 35.2336 75.8423 35.2981C75.6279 35.8633 75.9554 35.6334 75.5537 36.2891C75.7001 35.2123 75.0248 37.1187 74.7665 37.4912C73.6221 39.3147 72.2567 40.7452 70.6586 42.1837C70.124 42.6663 69.4238 43.3428 68.7994 43.7885C68.6545 43.8928 68.7081 43.7364 68.5795 43.8258C68.4511 43.9149 68.655 43.9026 68.5054 44.0009C67.5664 44.6093 66.7268 44.8783 65.9479 45.5795C65.8868 45.5702 65.8748 45.5439 65.7835 45.5461C65.1497 46.1486 63.5422 46.5071 62.9658 46.6599C62.065 46.9145 61.8793 47.1264 61.2145 47.2859C60.3316 47.5007 58.9491 47.4585 59.6389 47.8262C59.0343 47.9662 58.4372 48.0696 57.8099 48.1024C57.7398 48.1059 57.7721 47.975 57.7441 47.9759C57.5669 47.9794 57.5226 48.0976 57.4037 48.1159C57.082 48.1638 57.5941 47.975 57.1393 48.0595C56.9001 48.1014 56.7728 48.2181 56.0932 48.2595C55.6667 48.2834 55.236 48.2958 54.7983 48.296C51.371 48.2977 47.7315 48.268 44.2747 48.2531C44.0095 48.2521 44.1841 48.3738 43.8516 48.3661C42.6963 48.3391 40.6283 48.1343 39.6321 48.1622C38.636 48.1901 38.8607 48.3681 38.2374 48.4426C38.117 48.4571 38.2157 48.3557 38.1068 48.3541C37.3743 48.3448 36.5011 48.1866 35.9077 48.1628C35.5152 48.1469 35.5467 48.3064 35.2744 48.3178C34.8688 48.3344 34.4513 48.1732 34.2349 48.168C33.2173 48.1453 32.5178 48.2751 31.5675 48.2089C31.6047 48.244 31.6293 48.2765 31.6607 48.3111C30.5356 48.3054 29.412 48.2997 28.2869 48.294C28.3399 48.3261 28.3912 48.3585 28.4442 48.3911C27.1241 48.3735 27.2748 48.0257 27.3909 48.76C27.2949 48.7859 27.1931 48.8159 27.1014 48.8397C27.1386 48.4614 26.3401 48.1846 25.3239 48.0884C25.2494 48.0811 24.7493 48.4499 24.8038 48.0142C24.6733 48.1208 24.5956 48.1943 24.4852 48.2879C24.2703 48.156 24.0525 48.0257 23.8375 47.8943C23.8245 47.8965 23.8114 47.8987 23.7983 47.9009C23.6875 47.9182 23.5756 47.9343 23.465 47.9502C23.4453 48.0354 23.4583 48.1242 23.4167 48.2074C22.8329 48.2191 21.6483 48.0333 21.1937 47.9871C20.0626 47.894 18.8589 47.8965 18.054 47.437C17.6296 47.3546 18.0033 47.6276 17.3827 47.4378C17.3349 47.3365 17.2911 47.2396 17.2428 47.1347C16.6335 47.3501 16.5852 47.0977 15.9331 46.789C15.4941 46.5765 15.1617 46.5481 14.7396 46.3552C14.6328 46.3059 14.6912 46.2096 14.6162 46.182C14.3638 46.0917 13.602 45.912 13.4291 45.8291C11.8589 45.1068 10.5972 44.2962 9.31755 43.2666C9.18022 43.1553 9.29452 43.3826 9.15238 43.2665C8.92443 43.0788 9.16548 43.0534 9.03752 42.9414C8.68387 42.627 8.56544 42.7647 8.0568 42.3354C6.38162 40.9172 4.82791 38.9028 3.64433 36.9626C3.60671 36.9022 3.52034 36.9608 3.47863 36.8951C3.2082 36.4659 3.07712 35.9512 2.86149 35.5494C2.50536 34.8814 2.12668 34.4281 1.82937 33.7321C1.25662 32.3721 0.92059 31.092 0.591604 29.6188C0.329665 28.4114 0.154023 27.3449 0.0614415 25.9945C0.0268996 25.4652 0.00736618 24.9442 0.00278449 24.4116C0.00278449 24.4116 0.00278449 24.4116 0.00278449 24.4116C-0.0797112 19.0203 1.65876 13.3542 5.29102 9.22239C5.39172 9.1075 5.42316 9.21431 5.44971 9.17599C5.70193 8.8124 5.63753 8.70141 5.93589 8.75466C6.2682 8.30282 6.24465 8.03656 6.73226 7.5576C6.99501 7.30542 7.01303 7.70964 7.34317 7.17303C7.65283 6.69767 7.07331 6.96367 8.43646 6.0117C8.47357 5.98706 8.75467 5.99142 8.99121 5.74198C9.23283 5.49331 8.83142 5.62967 9.47223 5.09548C10.9857 3.8406 13.2382 2.74023 15.3501 1.90917C15.4779 1.84729 16.7504 1.31253 17.003 1.20274C17.4857 0.973505 17.3449 0.86617 18.0072 0.665598C18.5222 0.514926 18.9865 0.574012 19.596 0.435143C19.6668 0.419737 19.7619 0.237441 20.2336 0.18877ZM62.9579 44.1734C63.0044 43.9825 62.9663 43.3815 63.6446 43.2596C63.7109 43.2468 63.5621 43.7555 63.9317 43.6514C63.6145 43.8487 63.287 44.0089 62.9581 44.174C62.9581 44.1738 62.958 44.1736 62.9579 44.1734ZM23.6689 3.61417C23.163 3.5883 22.6595 3.58053 22.1519 3.59099C22.4942 3.49424 22.8417 3.406 23.1892 3.32578C23.3513 3.42004 23.5103 3.51632 23.6689 3.61417ZM21.1368 45.3174C21.1363 45.3174 21.1358 45.3173 21.1354 45.3173C21.6784 45.3105 22.212 45.2821 22.7482 45.2342C22.69 45.2862 22.6305 45.3382 22.5711 45.3897C22.1426 45.4515 21.7169 45.501 21.2813 45.5367C21.2326 45.4638 21.1843 45.3907 21.1368 45.3174ZM16.8357 44.9209C16.525 44.7452 16.6431 44.6689 16.5 44.5038C16.4999 44.504 16.4998 44.5042 16.4997 44.5043C16.4621 44.4613 16.2506 44.3568 16.1679 44.3202C16.1744 44.3964 16.1907 44.4753 16.2007 44.5521C15.3605 44.416 14.1845 43.2437 16.1231 43.8101C16.0633 43.8799 16.0046 43.9496 15.9442 44.0191C16.8796 44.3722 17.9142 44.8761 16.8357 44.9209ZM69.5719 39.5101C69.9798 38.7009 70.1141 38.4786 70.9321 37.8151C70.9007 37.9791 70.8669 38.1434 70.831 38.308C70.6556 38.3846 70.4811 38.4578 70.3053 38.5287C70.305 38.529 70.3046 38.5294 70.3043 38.5297C70.3452 38.6132 70.3857 38.6971 70.4268 38.78C70.148 39.0312 69.8622 39.2753 69.5719 39.5101ZM3.38544 17.812C4.00295 17.7584 3.65748 17.7232 3.58247 18.4138C3.55885 18.6525 3.71867 18.4601 3.69384 18.6049C3.56851 19.3847 3.1951 19.359 3.04382 19.1365C3.14299 18.6901 3.25869 18.2447 3.38499 17.8135C3.38514 17.813 3.38529 17.8125 3.38544 17.812ZM17.8071 3.68931C17.8075 3.68917 17.808 3.68903 17.8085 3.68889C17.8663 3.8164 17.5669 3.94221 17.9532 3.96705C17.687 4.04249 17.4229 4.12232 17.1577 4.20887C17.2313 4.17112 17.307 4.13379 17.3812 4.09682C17.298 4.07318 17.214 4.04952 17.1301 4.02686C17.0855 4.20945 16.97 4.14873 16.6758 4.19531C16.8086 4.329 16.9395 4.46401 17.069 4.5998C16.7383 4.65854 16.4064 4.72598 16.0761 4.80168C16.0565 4.76327 16.0368 4.72485 16.0172 4.68646C15.9192 4.7841 15.8241 4.88248 15.729 4.9814C15.6777 4.94723 15.6277 4.91318 15.576 4.87935C15.4499 4.97461 15.3247 5.07127 15.2018 5.16936C15.1087 5.07591 15.394 4.88594 14.8621 5.16369C14.9749 4.97084 15.0917 4.77918 15.2143 4.58732C16.0581 4.23265 16.926 3.93222 17.8071 3.68931ZM2.52939 24.0223C2.53386 23.027 2.62196 23.3166 2.89077 23.5529C2.76863 23.7058 2.64814 23.8633 2.52939 24.0223ZM41.7862 45.9345C42.0843 45.7426 42.3837 45.5525 42.689 45.3672C43.2968 45.2601 43.9048 45.61 43.4475 45.7472C42.8971 45.9117 42.3222 45.7276 41.7862 45.9345ZM55.6087 45.8341C54.8829 45.7661 55.5592 45.5206 55.7096 45.3796C55.9129 45.5844 56.1938 45.5528 56.6367 45.5402C56.2251 45.5909 55.7288 45.8455 55.6087 45.8347C55.6087 45.8345 55.6087 45.8343 55.6087 45.8341ZM29.8199 45.7188C29.5219 45.7245 29.2255 45.7781 28.959 45.713C29.0394 45.5294 29.5724 45.6964 29.1912 45.4243C29.3818 45.4196 29.5727 45.4151 29.7618 45.41C29.6416 45.5227 29.8033 45.607 29.8191 45.7182C29.8194 45.7184 29.8196 45.7186 29.8199 45.7188ZM4.69262 33.2746C4.73472 33.8729 4.87018 33.9359 5.26617 34.3611C5.14847 34.5178 4.56541 34.056 4.32199 33.6901C4.44467 33.5507 4.56839 33.4124 4.69262 33.2746ZM41.5899 3.26497C41.7303 3.03942 42.7663 3.01001 43.281 3.07669C43.2197 3.11014 43.1582 3.14404 43.0969 3.178C42.5953 3.20698 42.0916 3.236 41.5899 3.26497ZM56.848 45.5363C56.7736 45.5368 56.7032 45.5382 56.6367 45.5402C56.71 45.5314 56.7812 45.5288 56.848 45.5363ZM76.9617 25.7189C77.1582 25.9805 77.278 25.2436 77.1348 26.1387C77.135 26.1387 77.1352 26.1387 77.1354 26.1387C77.0323 26.7261 77.0029 26.8556 76.9167 27.3987C76.6727 27.1634 76.7088 26.0707 76.4631 27.5591C76.4598 27.5788 76.6274 27.5626 76.569 27.7987C76.5505 27.8721 76.3829 28.0885 76.2789 28.4356C76.2453 28.5486 76.0395 29.3975 76.2596 28.2274C76.0659 28.229 75.8872 28.1329 75.7047 28.104C75.729 27.6491 76.1485 27.3591 76.1958 26.8704C76.2616 26.1462 75.8997 25.7623 76.4029 25.6509C76.4973 26.2696 76.3743 27.3246 76.0565 27.4142C75.9693 27.9898 76.176 28.2042 76.3723 27.7468C76.4776 25.6905 76.8376 27.2286 76.7708 25.4003C76.7031 25.3758 76.6322 25.2988 76.5671 25.3075C76.829 24.7664 76.8947 25.6221 76.9617 25.7189ZM75.772 29.9023C75.7204 29.5243 75.6571 29.1525 75.5851 28.7843C75.8159 28.8323 75.9907 29.0648 75.9883 29.6405C75.9166 29.7282 75.8444 29.8156 75.772 29.9023ZM64.3308 5.00897C64.2283 5.10205 64.0558 5.14933 63.916 5.21871C63.8868 5.04739 61.5877 4.01556 62.818 4.38929C63.0031 4.43863 63.9455 5.1021 64.3308 5.00897ZM3.20289 29.6672C3.19154 29.9731 3.18675 30.2804 3.18855 30.5879C3.00577 30.1683 2.83387 29.739 2.67656 29.3056C2.85114 29.4303 3.02649 29.55 3.20289 29.6672ZM46.7328 46.1607C46.6044 46.1558 47.0307 45.9786 46.525 46.0065C46.902 45.8932 47.255 45.7973 47.6234 45.6907C47.7338 45.7745 47.8453 45.858 47.9557 45.9419C48.0417 45.888 48.1294 45.8345 48.2154 45.7807C48.1638 45.9029 48.1178 46.0221 48.0634 46.1463C47.4427 45.8845 47.3004 46.1814 46.7328 46.1607ZM28.2777 46.6382C28.1661 46.3728 29.0648 46.215 28.1807 46.1726C28.3484 45.9982 28.618 45.9067 29.1355 45.8912C29.2185 45.9579 29.3014 46.0241 29.3845 46.0908C29.396 45.9123 29.5291 45.846 29.8199 45.7188C29.8201 45.719 29.8204 45.7192 29.8206 45.7194C30.6073 45.7065 30.5603 45.766 30.7495 46.0593C29.9167 45.8938 29.8918 46.1618 29.3242 46.3212C28.9343 46.4308 28.4253 46.3811 28.2777 46.6382ZM66.6747 6.34766C66.0661 6.2233 66.3998 6.67058 65.6543 5.9412C65.7396 5.92544 65.8253 5.91075 65.9113 5.89603C66.1688 6.04069 66.4237 6.19156 66.6747 6.34766ZM25.3713 45.7285C25.4387 46.1394 25.9931 46.4592 26.0878 45.7908C25.5474 45.6547 25.8113 46.0333 25.3713 45.7285ZM55.3785 46.4849C55.108 46.4868 54.9197 46.4525 54.7983 46.3996C54.5174 46.2765 54.5907 46.0557 54.7983 45.8851C54.845 45.8461 54.8982 45.8095 54.9555 45.7771C55.0205 45.861 55.086 45.9447 55.1509 46.0275C55.3296 45.9864 55.5068 45.943 55.6826 45.8981C55.5843 46.0942 55.4828 46.2902 55.3785 46.4849ZM8.78347 40.1728C9.55065 40.4979 8.29117 39.4709 8.81053 39.7174C9.21727 39.9136 9.44015 40.5108 9.156 40.5035C9.04032 40.4052 8.91404 40.2929 8.78456 40.1738C8.7842 40.1735 8.78383 40.1731 8.78347 40.1728ZM12.4208 42.875C12.4774 42.5397 12.5837 42.7202 12.0373 42.435C11.8749 42.3617 10.8112 41.4544 11.1344 42.0064C11.5411 42.2998 11.9785 42.5984 12.4208 42.875ZM66.5064 42.5926C66.5955 42.7048 65.8195 43.5326 65.6537 43.5322C65.6538 43.5324 65.6539 43.5326 65.654 43.5328C65.2276 43.5429 66.2012 42.9446 65.6323 42.9519C66.698 42.6057 66.6267 41.9055 67.0041 42.6053C66.4798 42.994 66.6482 42.6863 66.5064 42.5926ZM27.9875 2.62231C27.987 2.62231 27.9865 2.62231 27.986 2.62231C28.0596 2.62873 28.6662 2.82908 28.5924 2.89848C27.8629 2.83898 27.9929 2.70709 27.3138 2.9238C27.2766 2.85401 27.2446 2.78631 27.2046 2.71599C27.474 2.67459 27.6234 2.59074 27.9875 2.62231ZM61.8913 3.69824C62.1561 3.74993 62.5618 4.05665 62.8444 4.16094C61.7563 4.33517 60.8421 3.50696 61.8913 3.69824ZM9.29866 8.47459C9.29825 8.47524 9.29783 8.4759 9.29742 8.47655C9.29737 8.47617 9.2974 8.47575 9.29735 8.47537C9.29779 8.47511 9.29823 8.47485 9.29866 8.47459ZM75.4089 18.1075C75.4343 18.0644 75.4592 18.0367 75.4841 18.0218C75.4866 18.021 75.4891 18.0203 75.4917 18.0195C75.4641 18.0472 75.4364 18.0761 75.4089 18.1075ZM68.2964 41.2512C68.7732 41.1171 67.7724 42.2982 67.3123 42.5103C67.291 42.4193 67.2506 42.3516 67.2583 42.2243C67.7168 42.1854 68.2249 41.2731 68.2964 41.2512ZM34.9788 46.0624C36.1814 46.0676 34.6164 46.8193 34.5519 46.2196C34.5543 46.2079 34.9478 46.0634 34.9788 46.0624ZM60.0469 45.4311C59.8066 45.7221 60.4174 45.6453 59.4521 45.8247C59.3838 45.7791 59.3158 45.7331 59.2482 45.687C59.5172 45.6067 59.7836 45.5211 60.0469 45.4311ZM42.8571 47.0493C44.3706 46.9225 45.8182 46.6989 44.8323 46.0712C44.7178 46.0914 44.6016 46.1109 44.4871 46.1311C44.4699 46.4373 44.0472 46.2701 43.4284 46.2601C43.3402 46.3817 42.9971 46.4098 42.9327 46.5131C42.8082 46.7128 43.2024 46.8532 42.8571 47.0493ZM4.02981 14.4332C4.06538 14.4787 4.10155 14.5237 4.13688 14.5687C4.08222 14.8092 4.0316 15.0499 3.9859 15.2898C3.91087 15.213 3.83619 15.1357 3.76178 15.0581C3.84748 14.8492 3.93637 14.6414 4.02885 14.4345C4.02917 14.4341 4.02949 14.4337 4.02981 14.4332ZM75.9703 31.5004C75.4634 31.19 75.4358 31.6695 75.3424 32.6879C75.5627 32.3008 75.7727 31.9033 75.9703 31.5004ZM18.4875 46.1829C18.495 46.0165 18.5035 45.8508 18.511 45.6843C17.9707 45.7229 18.0088 45.9239 18.2016 46.198C18.2976 46.1938 18.3918 46.1883 18.4875 46.1829ZM11.5177 43.2368C11.683 43.3849 11.6608 43.213 11.6786 43.2277C12.1073 43.5824 12.1445 43.6793 12.7831 43.9314C12.8726 43.9422 12.9617 43.9501 13.0515 43.9589C12.9462 43.5079 12.6555 43.5635 12.2051 43.0486C12.2425 43.2103 12.2817 43.3723 12.3228 43.5346C12.0207 43.324 11.725 43.1071 11.435 42.8826C11.3788 42.8885 11.3226 42.8939 11.266 42.8993C11.3482 43.0114 11.4318 43.13 11.5177 43.2368ZM5.56323 12.1164C5.77186 11.8316 5.98836 11.5513 6.20971 11.2779C6.14989 11.217 6.0894 11.1562 6.02977 11.0951C5.86514 11.4325 5.70917 11.7738 5.56323 12.1164ZM76.857 24.2785C76.8269 24.2505 76.7966 24.2234 76.7657 24.1994C76.803 24.2014 76.8325 24.2317 76.857 24.2785ZM27.0571 2.15968C26.6573 2.1007 26.0811 2.13943 25.6425 2.12703C25.677 2.33862 26.7917 2.28013 27.1832 2.40839C27.2461 2.37042 27.2262 2.1845 27.0571 2.15968ZM53.9373 46.4738C53.8369 46.5793 53.7367 46.6843 53.6378 46.7899C53.3956 46.7785 53.1528 46.7665 52.9091 46.7551C52.902 46.8415 52.8949 46.9287 52.8878 47.0151C53.9612 46.9028 53.7137 47.152 54.2451 47.3978C54.1419 47.0899 54.0405 46.7821 53.9373 46.4738ZM13.6367 4.28817C12.9551 4.70298 12.774 4.94175 13.2836 4.95494C13.4968 4.7718 13.7161 4.5912 13.9387 4.41492C13.8381 4.37225 13.737 4.3302 13.6367 4.28817ZM72.5437 10.9799C72.068 10.5207 72.3306 10.2926 71.766 9.92363C71.9411 10.2273 72.1074 10.5339 72.2656 10.8417C72.3578 10.8864 72.4517 10.9336 72.5437 10.9799ZM70.991 41.0397C71.2862 40.9197 71.2523 40.1495 72.1028 39.8352C72.1366 39.6067 72.1241 39.4366 72.1361 39.2316C72.3006 39.2472 72.4754 39.2522 72.6375 39.2671C72.6378 39.2666 72.6382 39.2662 72.6385 39.2658C73.0704 38.6679 72.6351 38.931 72.5358 38.827C72.4955 38.7847 72.9073 38.4252 72.7014 38.4768C72.3548 38.5706 71.7561 39.4684 71.548 39.2872C71.8657 39.0683 72.2733 38.4544 71.996 38.5071C71.6976 38.5619 71.5055 39.2971 71.085 39.5049C71.8302 39.3363 70.844 40.2039 70.501 40.0644C70.1405 40.7743 70.7192 40.3727 71.2481 39.7905C71.1044 40.3141 71.4889 39.7068 71.723 39.76C71.494 40.2293 70.175 41.3559 70.991 41.0397ZM36.5531 47.1524C37.0693 47.136 37.8756 47.2815 38.229 47.0667C38.4348 46.9415 37.6265 46.8446 38.1839 46.648C37.681 46.6672 37.5663 46.7439 37.6523 46.9162C37.5377 46.9369 37.4216 46.9571 37.307 46.9773C37.254 46.9436 37.1996 46.9105 37.1466 46.8769C37.0864 46.9478 37.0259 47.0181 36.9671 47.089C36.8454 47.075 36.7222 47.061 36.6005 47.0465C36.5862 47.0822 36.5617 47.1132 36.5531 47.1524ZM56.4885 2.23119C56.6331 2.23999 56.7761 2.25005 56.9201 2.26108C56.9082 2.21781 56.8933 2.17253 56.879 2.1279C56.869 2.09276 56.859 2.05763 56.8489 2.0225C56.9232 2.14913 57.5883 2.42312 57.8915 2.33725C58.0465 2.29415 57.7444 2.01329 58.3733 2.06804C57.9203 2.00838 57.4977 1.98616 57.0542 1.96167C57.1002 1.89708 57.1455 1.83177 57.1927 1.76751C57.1924 1.76738 57.1922 1.76725 57.1919 1.76712C57.0455 1.73621 56.899 1.70601 56.7523 1.67799C56.6622 1.86198 56.5751 2.04621 56.4885 2.23119ZM18.8339 46.5953C19.358 46.5722 19.5307 46.5297 19.3449 46.271C19.3444 46.2708 19.3439 46.2706 19.3434 46.2704C19.1433 46.3286 18.9404 46.3837 18.7366 46.4363C18.7683 46.4893 18.8001 46.5422 18.8339 46.5953ZM77.14 19.9439C76.1231 19.0691 77.067 21.3037 77.2579 20.8221C77.2702 20.7979 77.0731 20.0591 77.14 19.9439ZM55.5786 46.7341C55.3203 46.749 55.0602 46.759 54.7983 46.7649C54.7682 46.7656 54.7381 46.7663 54.708 46.767C54.7379 46.8132 54.7681 46.8593 54.7983 46.9054C54.8358 46.9611 54.8736 47.0166 54.9111 47.0722C55.1374 46.9629 55.3603 46.8498 55.5786 46.7341ZM10.4627 5.77418C10.0756 5.76709 9.37194 6.19954 9.22749 6.6435C9.40547 6.53487 9.58472 6.42884 9.76504 6.32543C9.47524 6.58667 9.19798 6.85401 8.91958 7.12936C9.11157 7.38409 9.3267 6.94711 9.91089 6.60134C10.003 6.54443 10.7617 6.46558 10.7747 6.09551C10.7766 6.0171 10.1801 6.40073 10.4737 5.96709C10.2904 6.08265 10.1425 6.19672 9.97513 6.31488C9.91745 6.26389 9.8597 6.21285 9.80061 6.16298C10.0201 6.0289 10.2399 5.90027 10.4627 5.77418ZM39.558 47.1277C40.267 47.1452 40.3545 47.0185 40.5021 46.7945C40.1725 46.8198 39.8427 46.8448 39.513 46.8702C39.5287 46.9558 39.5423 47.0415 39.558 47.1277ZM5.66185 10.2849C5.38458 10.5836 5.63606 10.5571 5.56558 10.7071C5.30458 11.2733 4.95963 11.5403 4.69886 12.0911C4.69101 12.0384 4.68349 11.9896 4.67605 11.9386C4.67576 11.939 4.67547 11.9394 4.67518 11.9399C3.05906 14.3174 4.15858 13.2032 5.03069 11.7528C5.10918 11.7578 5.18673 11.7644 5.26455 11.7697C5.59067 11.0793 5.9368 10.4581 5.66185 10.2849ZM77.05 29.441C77.0981 29.4178 77.3019 29.7517 77.2909 29.2091C76.9906 28.7219 77.0434 29.4285 76.8552 29.5577C76.8502 29.4126 76.8454 29.2648 76.8372 29.1216C76.5501 29.9116 76.5994 30.0479 76.9547 29.8212C76.9793 29.8045 77.0022 29.4638 77.05 29.441ZM77.7956 23.9288C77.4843 23.8739 77.4211 24.1485 77.4504 24.4116C77.4504 24.4116 77.4504 24.4116 77.4504 24.4116C77.4765 24.6409 77.5732 24.8633 77.6574 24.8471C77.6672 24.6995 77.5702 24.584 77.6138 24.4276C77.6153 24.4221 77.617 24.4168 77.6187 24.4116C77.6661 24.2662 77.7934 24.2173 77.7956 23.9288ZM60.5373 46.5455C60.5677 46.5409 60.937 46.6943 60.8565 46.518C60.3637 46.1887 59.6861 46.6419 59.8488 46.7653C60.1009 46.7001 60.2524 46.5942 60.5375 46.546C60.5374 46.5458 60.5374 46.5457 60.5373 46.5455ZM14.6385 3.25141C14.6177 3.23932 13.8541 3.47821 13.803 3.60784C13.7716 3.7367 13.7824 3.85364 13.7732 3.97631C14.1142 3.69344 14.9471 3.41262 14.637 3.25204C14.6375 3.25183 14.638 3.25162 14.6385 3.25141Z" fill="black"/>
</svg>
