<svg preserveAspectRatio="none" width="100%" height="100%" overflow="visible" style="display: block;" viewBox="0 0 1375 114" fill="none" xmlns="http://www.w3.org/2000/svg">
<g id="Background navigation">
<g id="Subtract">
<path d="M1325.5 52C1325.5 74.0914 1307.59 92 1285.5 92H318.392C305.252 92 293.889 82.8407 291.099 70C288.309 57.1593 276.945 48 263.805 48H255.782C242.467 48 230.866 57.0759 227.661 70C224.456 82.9241 212.855 92 199.54 92H118.263C102.291 92 87.2797 84.3692 77.8673 71.465L67.9906 57.9242C62.525 50.431 53.8084 46 44.5338 46H32.5C23.1112 46 15.5 38.3888 15.5 29C15.5 19.6112 23.1112 12 32.5 12H1285.5C1307.59 12 1325.5 29.9086 1325.5 52Z" fill="var(--fill-0, #C8FF00)"/>
<path d="M1183.28 14.0166C1189.48 14.2421 1168.78 14.0943 1182.53 14.431C1179.66 14.4538 1176.78 14.4772 1173.91 14.5C1173.19 14.3753 1172.44 14.2509 1171.72 14.1262C1175.56 14.0895 1179.41 14.0527 1183.28 14.016C1183.28 14.0162 1183.28 14.0164 1183.28 14.0166ZM1188.54 12.4548C1185.01 12.8105 1173.8 12.9053 1185.91 13.2336C1186.87 13.1115 1187.86 12.9895 1188.82 12.8674C1193.02 12.9621 1197.25 13.0567 1201.46 13.1509C1202.97 13.1043 1204.48 13.0578 1205.99 13.0117C1207.92 13.2239 1209.82 13.4366 1211.75 13.6492C1210.04 13.6182 1208.31 13.5866 1206.6 13.5555C1199.84 13.7278 1193.83 13.7749 1184.65 13.807C1185.46 13.8572 1186.27 13.9069 1187.07 13.9571C1182.42 13.8717 1177.76 13.7862 1173.13 13.7008C1177.15 13.617 1181.66 13.5238 1185.39 13.4457C1179.42 13.1131 1168.88 13.2982 1163.4 13.3675C1155.94 13.4622 1157.63 13.3041 1152.09 13.3703C1151.2 13.3806 1151.1 13.5046 1149.35 13.5067C1140.53 13.5165 1123.4 13.4508 1133.42 13.1616C1147.94 13.1988 1160.32 12.9665 1174.56 13.0514C1170.79 12.7169 1178.3 12.6031 1188.54 12.4548ZM921.835 13.5198C926.234 13.3574 935.194 13.4229 941.265 13.5357C941.272 13.5357 941.279 13.5357 941.286 13.5357C942.622 13.5605 945.647 13.7764 941.286 13.7676C934.176 13.7525 930.738 13.4127 927.006 13.6434C925.337 13.6005 923.583 13.5623 921.835 13.5198ZM906.383 13.54C902.022 13.4567 904 13.2006 909.461 13.2699C909.461 13.2697 909.461 13.2695 909.461 13.2693C911.74 13.2983 907.266 13.5007 915.438 13.2952C917.107 13.455 918.751 13.6005 920.401 13.7551C918.399 13.7577 916.574 13.7619 914.475 13.764C915.888 13.5012 910.743 13.6226 906.383 13.54ZM1126.05 13.3062C1125.36 13.5425 1128.24 13.5411 1133.13 13.7051C1128.51 13.6973 1123.89 13.689 1119.3 13.6813C1121.56 13.5561 1123.79 13.4314 1126.05 13.3062ZM1234.5 13.3428C1234.5 13.3428 1234.51 13.3428 1234.52 13.3428C1236.03 13.3056 1237.55 13.2682 1239.04 13.2314C1239.94 13.3158 1240.84 13.3998 1241.74 13.4841C1247.08 13.4049 1252.46 13.3258 1257.8 13.2461C1257.15 13.5037 1247.56 13.4618 1242.28 13.6419C1234.42 13.5643 1230.63 13.4147 1230.12 13.1964C1231.57 13.245 1233.02 13.2942 1234.5 13.3428ZM61.2979 50.943C62.8215 51.9167 64.2433 53.0192 65.5731 54.2643C63.8958 52.5195 62.0133 50.9955 59.9422 49.6915C54.1908 47.0309 53.685 46.1525 45.3453 45.4409C45.0716 45.4341 44.8011 45.4311 44.5338 45.4319C39.2957 45.4464 35.4841 45.4795 32.5 45.5153C27.4023 45.4285 24.8625 44.0312 22.237 42.1053C19.8727 40.0719 16.2372 36.7976 16.1835 29C16.2 28.4769 16.2418 27.9413 16.3136 27.3924C16.258 27.9494 16.2335 28.4848 16.2331 29C16.6928 36.8058 19.5507 38.4307 20.4652 39.673C21.7395 40.7421 22.364 41.8492 26.9378 43.6982C27.9013 44.1434 25.9432 43.6687 24.623 43.0586C23.3361 42.419 22.4438 42.2012 25.5809 43.9124C27.7669 44.8861 30.1409 45.3578 32.5 45.3172C36.4891 45.2544 40.4754 45.1939 44.5338 45.1371C51.001 45.0415 57.775 47.102 63.4213 51.5595C63.1087 51.2648 62.7916 50.978 62.4655 50.696C60.5753 49.3303 58.546 48.1947 56.3984 47.2986C58.7411 48.2052 60.9348 49.3751 63.0356 50.8658C61.6656 49.9833 62.6907 50.7192 63.8472 51.705C65.0113 52.6865 66.2349 53.9875 65.7638 53.6791C65.3696 53.3772 62.5802 51.0672 60.714 50.0538C63.709 52.0325 66.3827 54.5963 68.4956 57.5558C69.5721 59.0617 70.6483 60.5671 71.7189 62.0655C70.584 60.6033 69.4496 59.142 68.3185 57.685C67.7368 56.9351 67.1208 56.2158 66.474 55.5304C64.9422 53.811 63.2213 52.2837 61.3321 50.968C61.3207 50.9597 61.3093 50.9513 61.2979 50.943ZM1148.58 90.5977C1141.83 90.8409 1129.55 90.8811 1123.08 90.6105C1131.59 90.6063 1140.08 90.6018 1148.58 90.5977ZM1229.61 13.0163C1230.37 13.0577 1231.11 13.0986 1231.88 13.1399C1228.5 13.2165 1225.1 13.2925 1221.72 13.3691C1221.08 13.2496 1220.41 13.1301 1219.75 13.0111C1223.03 13.0127 1226.33 13.0148 1229.61 13.0163ZM1013.47 13.1494C1015.94 13.1421 1016.16 13.146 1019.24 13.1631C1019.23 13.163 1019.23 13.1629 1019.23 13.1628C1020.45 13.1692 1030.66 13.2389 1029.52 13.3309C1024.45 13.3325 1019.04 13.3309 1013.86 13.3309C1013.7 13.2704 1013.66 13.2104 1013.47 13.1494ZM1073.13 13.2031C1073.14 13.2033 1073.14 13.2035 1073.15 13.2037C1075 13.2177 1076.74 13.2461 1078.65 13.2513C1071.79 13.3961 1070.71 13.1363 1064.48 13.2098C1058.26 13.2838 1054.41 13.4271 1049.13 13.0712C1051.09 13.0179 1053.21 12.9417 1055.23 12.8796C1064.07 13.0219 1066.45 12.888 1073.54 12.7478C1073.4 12.8999 1073.27 13.051 1073.13 13.2031ZM61.4438 13.0355C63.1329 12.8596 65.017 13.0322 65.2126 13.0343C65.2091 13.0345 65.2056 13.0347 65.2021 13.0349C80.1657 12.872 63.2546 13.1323 77.3774 13.1597C75.2761 13.2037 73.2092 13.2501 71.1275 13.2946C67.9069 13.2098 64.5859 13.1136 61.4438 13.0355ZM547.648 13.052C547.785 13.1032 547.95 13.1546 548.087 13.2058C539.601 13.1939 537.437 13.3956 530.384 13.2119C536.139 13.1581 541.893 13.1047 547.648 13.0514C547.648 13.0516 547.648 13.0518 547.648 13.052ZM970.693 12.7768C980.103 12.679 987.064 12.6359 996.101 12.7911C996.108 12.7913 996.115 12.7915 996.122 12.7917C996.643 12.8013 994.123 12.9084 994.803 12.9354C996.667 12.9194 998.593 12.8948 1000.48 12.8756C1000.73 12.9615 1000.98 13.0473 1001.23 13.1326C995.927 13.1083 990.62 13.084 985.297 13.0596C986.083 13.1098 986.888 13.1596 987.673 13.2098C983.156 13.2356 978.655 13.2614 974.137 13.2873C975.708 13.1466 977.276 13.0059 978.827 12.8646C976.117 12.8352 973.403 12.8068 970.693 12.7768ZM406.36 12.4914C407.853 12.5473 405.089 12.6411 407.407 12.6892C409.726 12.7367 413.999 12.6324 412.997 12.7902C409.876 12.8114 406.598 12.8357 403.419 12.8579C413.653 13.1425 423.864 12.885 424.021 13.2363C414.199 13.1453 406.122 13.1876 396.614 13.2849C397.007 13.006 406.517 12.7648 400.529 12.503C402.453 12.4994 404.474 12.4941 406.339 12.492C406.346 12.4918 406.353 12.4916 406.36 12.4914ZM1323.41 71.1968C1321.08 76.9958 1311.08 87.6772 1303.57 90.3804C1301.85 91.3056 1295.63 92.7186 1295.64 92.5456C1295.79 92.3351 1303.06 90.1068 1295.19 92.231C1297.85 91.5882 1300.38 90.7003 1302.84 89.5561C1302.34 89.6202 1301.83 89.6738 1301.35 89.7109C1298.34 91.0022 1295.17 91.9296 1291.93 92.4635C1291.76 92.4381 1291.6 92.4112 1291.43 92.3836C1297.23 91.4154 1298.28 90.6444 1298.74 90.4856C1299.17 90.2377 1298.98 90.2962 1301.73 89.0385C1296.6 91.1945 1291 92.2505 1285.5 92.1494C1288.68 92.1844 1292.42 91.6984 1295.14 91.0197C1295.46 90.7861 1288.92 92.0109 1287.76 91.8715C1284.52 91.7428 1291.23 92.1452 1298.49 89.5415C1305.87 87.1668 1312.54 81.118 1313.23 80.01C1309.55 83.6116 1304.95 86.6143 1300.05 88.5089C1301.43 87.9084 1302.79 87.2186 1304.09 86.4645C1314.69 81.2081 1323.88 69.2812 1325.04 55.1877C1325.12 54.1207 1325.15 53.061 1325.14 52C1325.14 51.8014 1325.14 51.6035 1325.13 51.4066C1325.07 51.6088 1325.01 51.8044 1324.95 52C1324.89 52.1647 1324.84 52.3289 1324.78 52.4963C1324.78 52.3313 1324.78 52.1658 1324.78 52C1324.77 50.2625 1324.64 48.5283 1324.4 46.8149C1325.13 52.4001 1325.56 44.385 1321.84 35.5873C1324.17 40.1006 1325.05 46.3406 1325.21 45.8727C1323.11 28.2662 1305.03 11.97 1287.74 12.0292C1286.85 11.9924 1286.15 12.0039 1285.5 12.0339C1283.11 12.1466 1281.47 12.3454 1273.73 12.3215C1274.07 12.2852 1274.12 12.2198 1274.34 12.1722C1257.33 12.3301 1247.01 12.4244 1229.33 12.2635C1230.35 12.3819 1231.35 12.5009 1232.37 12.6193C1236.12 12.5603 1239.88 12.5004 1243.62 12.4414C1246.17 12.637 1242.4 12.7233 1253.59 12.7212C1262.77 12.7197 1257.3 12.6333 1259.8 12.5754C1263.18 12.4962 1266.14 12.6519 1269.78 12.5635C1272.59 12.4957 1269.55 12.3343 1276.87 12.3752C1273.93 12.5842 1270.92 12.8001 1267.96 13.0117C1266.17 12.9646 1264.39 12.9168 1262.61 12.8692C1264.41 12.8133 1266.19 12.7582 1268 12.7023C1261.63 12.8027 1255.62 12.8974 1249.04 13.0014C1251.18 12.6992 1244.38 12.8125 1240.68 12.8482C1234.93 12.904 1239.86 12.696 1236.09 12.7307C1232.32 12.7659 1228.25 12.9982 1221.43 12.9486C1225.09 12.814 1220.12 12.6934 1221.08 12.5692C1222.04 12.4451 1229.25 12.4176 1222.32 12.2821C1209 12.3851 1223.46 12.8579 1214.46 12.9345C1203.66 13.0266 1201.08 12.2558 1204.3 12.0901C1206.84 11.9597 1215.56 11.986 1218.11 11.8561C1202.5 11.6217 1202.36 12.0844 1199.69 12.175C1189.98 12.5046 1196.5 11.6249 1185.01 11.9431C1185.23 11.7785 1185.4 11.6306 1185.62 11.4728C1183.64 11.5028 1182.32 11.5427 1179.92 11.5665C1186.99 11.887 1181.2 11.8733 1178.24 11.8738C1173.56 11.8748 1180.78 12.0312 1179.55 12.0715C1176.21 12.1795 1170.92 12.1305 1174.16 12.2717C1172.71 12.206 1171.14 12.1401 1169.64 12.0749C1164.18 12.1568 1151.34 12.8434 1163.56 12.7047C1162.42 12.9598 1158.47 12.8372 1155.38 12.7984C1152.3 12.7597 1152.36 12.9221 1149.65 12.8921C1138.86 12.7721 1145.92 12.4941 1147.63 12.2763C1133.38 12.4263 1147.33 12.5256 1126.8 12.626C1124.82 12.8035 1134.3 12.9929 1126.41 13.0953C1124.95 12.787 1119.14 12.5655 1107.8 12.4631C1106.7 12.5339 1105.61 12.6055 1104.51 12.6764C1098.32 12.3918 1101.48 12.0958 1090.03 12.4487C1096.18 11.7993 1091.95 12.2148 1081.69 11.9504C1079.61 11.8971 1084.42 11.7624 1081.52 11.694C1080.2 11.6632 1077 11.7649 1073.78 11.6864C1072.21 11.6476 1064.86 11.3972 1059.77 11.5161C1063.5 11.8308 1053.84 12.0984 1062.13 12.3587C1046.8 12.2945 1036.08 12.4456 1053.25 12.0166C1049.36 11.9214 1045.47 11.8266 1041.58 11.7319C1038.87 11.8069 1036.13 11.8814 1033.4 11.9559C1032.99 11.6973 1033.4 11.6248 1022.72 11.6702C1027.36 11.6092 1031.97 11.5472 1036.63 11.4856C1036.78 11.4334 1037.43 11.3791 1037.27 11.3285C1031.57 11.4278 1015.53 11.4705 1011.64 11.5393C1007.75 11.6082 1015.26 11.627 1014.14 11.6937C1004.81 12.2442 1005.55 11.8382 998.854 11.9327C994.925 11.9886 1004.31 12.0493 1002.2 12.0731C994.41 12.1603 990.795 11.8678 983.884 11.864C986.339 12.0301 988.774 12.1987 991.17 12.3663C983.921 12.3575 975.84 12.356 969.102 12.4093C966.456 12.4302 968.455 12.5537 968.023 12.5619C965.88 12.6044 957.159 12.6716 956.235 12.6721C949.285 12.6731 949.086 12.502 942.333 12.4927C944.984 12.4782 947.477 12.4651 950.069 12.4512C951.248 12.1738 952.45 11.8965 953.629 11.6187C947.01 11.5985 940.387 11.5787 933.748 11.5586C938.6 11.6512 943.469 11.7433 948.321 11.8359C940.738 12.06 933.155 12.2846 925.572 12.5091C921.624 12.3715 917.691 12.2339 913.742 12.0962C903.019 12.1326 905.179 12.6913 900.091 12.2018C896.93 12.2432 893.768 12.2846 890.606 12.3254C891.058 12.2556 891.505 12.1856 891.957 12.1158C888.146 12.1587 884.336 12.2014 880.525 12.2449C884.532 12.4922 888.46 12.7524 892.428 12.9925C884.928 13.0462 884.784 12.8364 883.665 12.7841C880.699 12.6454 874.811 12.8325 872.453 12.7041C871.657 12.6601 879.006 12.522 876.473 12.3627C875.979 12.3318 866.138 11.7462 859.859 11.8814C859.977 11.9875 860.463 12.1176 860.718 12.233C852.273 12.2974 847.968 11.7437 849.087 11.5885C844.588 11.6971 838.013 11.7062 837.09 11.8759C834.791 11.8801 832.51 11.884 830.212 11.8881C832.607 11.4748 823.02 11.5504 822.391 11.9058C826.34 11.9146 830.294 11.9239 834.242 11.9327C831.256 12.3684 843.255 12.6314 818.288 12.2278C813.514 12.0011 826.773 12.2587 822.883 12.0889C816.126 11.9901 809.783 12.0728 803.359 11.915C795.366 11.7178 805.2 11.5282 786.578 11.7792C827.655 12.4079 780.944 12.2039 761.651 12.399C756.347 11.778 740.055 11.5813 717.619 11.7661C719.957 11.9389 727.016 11.8498 731.082 11.9067C735.148 11.9637 730.749 12.0662 735.814 12.1469C740.881 12.2276 751.643 12.3373 756.773 12.4594C752.428 12.5572 730.984 12.7884 745.163 12.5107C734.578 12.3394 729.607 12.1634 716.489 12.1313C712.56 12.4009 712.851 12.5688 700.063 12.5766C707.626 12.202 693.095 11.9416 696.294 11.5546C705.363 11.6447 700.294 12.0209 705.538 12.2009C706.076 12.2189 714.525 12.1246 716.489 12.1313C707.963 11.7934 705.015 11.6677 710.26 11.2656C704.229 11.3008 700.477 11.2503 699.927 11.4423C698.67 11.359 697.406 11.2756 696.169 11.1924C694.206 11.1944 692.439 11.2021 690.359 11.2006C693.224 11.4902 687.67 11.3119 683.721 11.4432C679.773 11.5746 685.07 11.8032 674.226 11.8063C677.841 11.8741 681.146 11.9323 684.643 11.9965C677.65 12.071 670.635 12.1459 663.642 12.2204C668.554 12.3974 679.197 12.6602 678.906 12.893C675.685 12.8051 664.651 12.9596 663.443 12.966C658.768 12.9898 661.316 12.8429 660.962 12.8393C653.617 12.768 647.566 12.818 644.777 12.5955C639.258 12.6959 635.095 12.6386 629.242 12.6443C626.02 12.6474 626.646 12.8108 624.761 12.7798C612.228 12.5728 624.168 12.3617 599.992 12.7636C602.919 12.8775 605.806 12.9939 608.733 13.1088C606.002 13.1517 603.288 13.1949 600.557 13.2379C598.73 13.2172 596.919 13.1963 595.092 13.1756C595.131 12.9288 595.179 12.6815 595.218 12.4347C593.214 12.4212 591.202 12.4082 589.198 12.3947C592.636 12.3704 596.083 12.3461 599.521 12.3218C599.835 12.2783 600.128 12.2349 600.442 12.1915C595.334 12.1242 590.244 12.0563 585.136 11.9885C585.038 12.0744 584.942 12.1608 584.843 12.2467C573.331 12.1272 573.057 12.0545 562.115 12.2909C553.688 12.2884 546.825 12.6473 541.952 12.7984C540.205 12.7503 538.454 12.7016 536.687 12.6535C535.567 12.7249 534.436 12.796 533.316 12.8674C531.096 12.768 528.846 12.6687 526.626 12.5699C525.389 12.7953 524.748 12.8657 533.41 12.9449C530.443 13.2254 515.194 13.1016 508.986 13.0075C504.277 12.936 509.502 12.7021 508.913 12.6736C506.946 12.5769 499.184 12.6604 497.554 12.6443C490.659 12.5776 485.828 12.5893 479.6 12.5375C478.388 12.5272 474.999 12.3789 474.711 12.3743C472.472 12.3489 466.944 12.2768 466.315 12.2748C433.888 12.1641 468.537 12.8073 438.384 12.7395C439.288 12.8243 440.118 12.9086 441.002 12.9934C438.724 12.9986 436.422 13.0035 434.145 13.0087C431.257 12.9378 434.75 12.8089 429.015 12.9129C429.388 12.8083 429.763 12.7038 430.156 12.5998C427.661 12.6562 425.256 12.7121 422.702 12.7685C418.695 12.4058 404.064 12.3234 405.104 11.8976C405.458 11.7527 415.83 11.604 410.349 11.4493C405.895 11.4189 408.91 11.5919 407.093 11.601C393.97 11.6641 394.733 11.4216 389.369 11.4862C388.525 11.5902 387.637 11.6962 386.773 11.8012C384.751 11.7706 382.722 11.7401 380.68 11.7096C380.209 11.7795 379.717 11.8494 379.246 11.9193C381.151 11.9239 383.297 11.9286 385.046 11.9333C382.608 12.2039 360.218 12.3254 368.756 12.0947C372.233 12.0011 378.601 12.0409 374.577 11.7212C368.585 11.7673 361.788 11.8143 355.482 11.8604C355.285 11.7915 355.103 11.7226 354.906 11.6538C346.408 11.6983 354.137 11.9735 354.121 12.121C352.177 12.1251 350.213 12.1287 348.269 12.1329C347.445 12.0662 346.661 11.9964 345.798 11.9318C345.719 12.0379 344.63 12.2846 338.836 12.193C335.111 12.1334 340.978 11.8656 333.874 11.9028C334.405 12.0683 336.971 12.27 329.058 12.3233C328.273 12.1505 327.186 11.9922 326.577 11.8106C316.737 11.9766 312.259 11.7098 300.709 11.9028C293.381 12.0249 283.344 12.4584 278.609 11.7905C273.249 11.7729 274.95 11.9392 273.364 11.9766C265.879 12.1536 260.312 11.8369 258.917 11.8182C250.022 11.6988 246.033 11.8085 238.786 11.659C239.179 11.7826 239.393 11.8997 239.707 12.0203C246.347 11.835 249.71 11.8437 259.022 11.8836C255.899 11.9084 252.775 11.9338 249.652 11.9586C250.163 12.059 250.669 12.1594 251.16 12.2592C279.96 11.8639 273.242 12.4885 249.098 12.6251C247.016 12.4394 244.858 12.2541 242.795 12.0679C228.848 12.3494 222.284 12.105 206.51 12.0465C204.635 12.0398 197.805 12.1468 194.869 12.1521C194.918 12.1528 194.967 12.1535 195.016 12.1542C193.189 12.3296 195.663 12.4103 195.958 12.5671C194.367 12.5868 192.775 12.6063 191.184 12.626C187.631 12.5065 188.88 12.4084 181.888 12.4368C182.831 12.5558 183.761 12.6748 184.704 12.7938C177.042 12.798 172.028 12.6687 164.897 12.7246C166.095 12.6796 167.279 12.6344 168.477 12.5894C152.957 12.4745 165.308 11.7749 153.58 12.1231C152.834 12.0621 152.107 12.0004 151.361 11.9394C156.192 11.9244 161.027 11.9098 165.839 11.8948C165.937 11.8085 166.043 11.7224 166.122 11.6361C160.955 11.6619 155.763 11.6886 150.596 11.7145C154.368 11.6565 158.162 11.5985 161.934 11.5406C155.943 11.4992 149.95 11.4577 143.959 11.4164C150.321 11.734 142.073 11.7728 143.624 12.0874C133.016 11.8256 124.683 11.4804 108.239 11.7014C104.98 11.7454 106.75 11.9652 97.4985 11.6977C99.7378 12.0475 88.1472 12.2116 89.6364 12.5442C92.8572 12.5282 96.1974 12.5181 99.32 12.4985C95.7644 12.3831 95.1749 12.0656 100.576 11.9714C107.472 11.8514 117.528 12.0714 117.117 11.7191C119.866 11.7356 122.424 11.7454 125.094 11.7594C123.995 11.8467 122.918 11.9347 121.838 12.0221C129.438 11.8851 134.213 11.9296 137.866 12.15C128.811 12.2007 119.776 12.2508 110.721 12.301C112.055 12.316 113.407 12.3311 114.741 12.3456C107.884 12.5707 114.957 12.7839 102.168 12.832C102.246 12.729 102.309 12.626 102.387 12.5226C97.7314 12.7978 84.9835 12.7964 89.0501 13.113C85.2001 13.0158 84.415 12.9542 82.2349 13.1249C72.0782 12.8843 65.5551 12.58 69.1698 12.2168C65.3988 12.2752 61.6254 12.3338 57.874 12.3923C60.0541 12.4916 62.2368 12.5905 64.417 12.6898C57.8553 12.6836 51.2461 12.6775 44.7042 12.6718C44.0756 12.3779 57.3337 12.5826 53.5085 12.3199C52.7431 12.2672 49.212 12.3802 48.2845 12.3504C38.502 12.0291 53.8592 12.2613 50.975 12.0151C37.6523 11.9456 46.2499 11.595 32.5 11.7998C31.1908 11.8201 29.6775 11.9857 28.0035 12.4696C27.4656 12.5269 26.8878 12.6241 26.3885 12.7223C23.0672 14.0445 21.8655 15.2857 20.7763 16.2962C19.7408 17.3759 18.7367 18.3733 17.2966 21.0355C16.1432 23.2296 15.2002 26.0703 15.1819 29C15.1631 30.5218 15.3802 32.0415 15.826 33.4156C15.9316 33.7724 15.6762 32.2149 15.8302 32.3724C16.193 32.3897 15.5645 34.904 20.2463 40.5063C24.2791 44.4622 26.2362 44.5719 27.0652 45.0912C28.0011 45.4415 28.2851 45.8368 31.3815 46.1811C31.7315 46.2093 32.1008 46.2267 32.5 46.2296C35.649 46.2524 40.2064 46.1878 44.5338 46.1612C49.2589 46.0889 53.5818 47.4989 55.3386 48.4884C52.4278 47.2023 48.4073 46.2876 44.8563 46.2327C44.7486 46.2381 44.6411 46.2442 44.5338 46.2508C43.1937 46.333 41.8827 46.4145 40.5558 46.4964C41.8792 46.4778 43.2097 46.4657 44.5338 46.4577C51.3464 46.3513 57.6084 49.1733 61.3408 51.7337C63.7637 53.5847 65.9555 55.8647 67.633 58.185C71.9774 64.1604 75.4696 68.559 74.2862 66.4904C72.1286 63.6221 74.3003 66.8705 71.4452 62.7834C71.2132 62.3205 70.9646 61.8355 70.7326 61.3725C75.7255 68.2353 79.2008 72.9957 76.7098 70.0223C77.0715 70.5231 77.4316 71.0217 77.7915 71.5202C78.2004 72.0863 78.6182 72.6403 79.0522 73.1913C79.3468 73.2589 79.6246 73.3023 79.9181 73.3637C80.9205 74.556 81.9825 75.7047 83.0909 76.795C84.2775 78.0533 85.5341 79.2546 86.8645 80.3966C85.8526 79.7709 84.6142 78.7498 84.8444 79.0388C85.1152 79.2702 86.6169 81.1503 92.2601 84.7933C92.3471 84.7257 92.4494 84.6677 92.5361 84.5998C102.303 89.7928 102.673 90.8033 116.691 92.112C105.738 91.9815 100.424 88.4031 100.214 89.2475C97.6685 88.2252 95.191 86.9857 92.8526 85.5668C92.4408 85.4471 92.0324 85.3234 91.6383 85.2027C98.241 89.3878 108.627 92.6487 118.263 92.3941C126.745 92.2876 134.539 92.2488 139.13 92.4625C140.308 92.4072 141.491 92.359 142.689 92.2995C152.237 92.5733 156.36 91.9587 166.045 92.3127C167.044 92.3498 164.953 92.9272 177.561 92.9065C177.247 92.8315 177.083 92.7052 176.828 92.6105C179.558 92.6565 182.273 92.7047 184.983 92.7518C185.474 92.6825 185.989 92.6132 186.48 92.5434C181.824 92.5165 177.181 92.4891 172.525 92.4622C176.394 92.4384 180.288 92.4146 184.156 92.3908C179.109 92.2775 176.832 92.2763 179.875 92.0948C184.255 92.0839 188.642 92.0724 193.023 92.0615C193.475 92.015 193.923 91.968 194.374 91.9214C192.252 91.7828 190.109 91.6472 187.988 91.5064C192.02 91.5465 195.865 91.5731 199.54 91.6029C206.201 91.6611 212.172 89.4104 216.785 86.1826C217.393 85.7534 216.673 86.3668 216.801 86.3081C216.874 86.1983 218.128 85.7271 221.48 81.8945C221.655 81.838 221.891 81.6788 222.072 81.5975C225.424 77.2705 226.797 73.561 227.712 70.0127C228.933 65.4594 230.788 61.0506 236.092 56.0328C230.304 62.0515 235.256 56.4809 236.898 55.0916C237.916 54.0289 233.77 57.9735 234.229 57.5238C234.484 56.8934 239.992 51.73 235.159 56.0015C230.544 61.0102 228.677 65.4445 227.446 69.9467C225.749 75.6922 223.081 82.238 213.342 88.1879C215.985 86.6538 218.387 84.6853 220.396 82.4143C219.385 83.4224 218.42 84.2643 217.188 85.1826C221.419 81.7064 221.992 80.2781 222.393 79.8517C222.722 79.3503 222.625 79.5288 223.773 77.6031C224.871 75.716 226.15 72.9086 226.873 69.8046C227.672 66.3538 229.248 62.9469 230.886 60.4865C231.936 59.0062 230.818 60.5456 233.414 57.3954C235.056 55.1079 241.236 50.5003 243.044 50.1615C243.584 49.9686 241.178 51.3172 240.588 51.859C240.061 52.5718 240.704 51.1192 248.639 48.7261C250.171 48.4442 248.994 48.6985 247.452 49.1631C245.906 49.6163 244.047 50.4153 243.977 50.4636C242.783 51.0505 250.707 47.8719 255.782 48.1512C256.218 48.1439 256.628 48.1351 257.002 48.1247H255.782C255.782 48.1134 255.782 47.9804 255.782 47.9282H257.704C259.939 47.8989 261.952 47.8849 263.805 47.8833C269.891 47.9506 274.146 49.6322 278.096 52.1211C278.603 52.1845 286.634 56.1996 290.189 65.941C290.437 66.4006 290.664 66.8408 290.888 67.3163C290.376 65.8247 289.741 64.3788 288.991 62.9982C288.25 61.4528 287.294 59.8974 286.305 58.5391C290.508 64.2112 291.107 67.2343 291.939 69.8174C292.252 70.9429 292.605 72.0172 293.135 73.3585C296.386 80.6057 298.15 81.3469 297.33 80.9741C296.665 80.5156 294.652 78.0415 293.952 76.7415C293.037 74.8392 292.375 72.9002 291.92 70.8734C291.895 71.1162 291.875 71.3678 291.852 71.596C293.604 77.4531 295.871 80.0358 296.815 81.3998C297.845 82.7376 297.885 82.829 297.626 82.6725C297.195 82.2898 295.379 81.0527 299.908 85.4865C302.22 86.998 308.53 91.9028 318.392 92.0848C319.76 92.108 321.173 92.136 322.625 92.1686C323.922 92.1666 325.223 92.166 326.52 92.1634C326.735 92.1029 326.732 92.0104 327.085 91.9706C341.19 91.9002 343.703 92.5393 345.039 92.5998C350.971 92.8683 355.591 92.4968 357.34 92.4936C364.706 92.4807 366.847 92.6457 373.86 92.5748C381.402 92.4982 376.245 92.3717 378.539 92.2583C380.38 92.1684 386.33 92.1523 388.788 92.0591C387.812 92.1354 386.726 92.2102 385.752 92.2867C393.569 92.3907 399.958 92.4921 408.836 92.5174C418.854 91.9593 427.378 92.9008 423.922 92.1372C415.513 92.0849 410.812 91.9979 406.313 91.8034C411.832 91.7785 417.356 91.7543 422.875 91.7295C424.485 91.8133 425.628 91.895 427.533 91.9803C431.658 91.8024 441.22 91.8787 444.974 91.8265C462.557 91.5818 457.118 91.2782 473.167 91.7884C461.599 91.8381 461.618 92.0859 450.146 92.0518C452.621 92.2287 458.451 92.1921 454.679 92.4042C465.777 92.352 462.19 92.1625 466.509 91.9944C470.234 91.8494 477.736 91.8413 477.313 91.6529C478.08 91.7565 478.673 91.8568 479.438 91.9602C486.626 91.9592 493.815 91.9591 501.004 91.9581C497.939 92.0662 494.876 92.1745 491.812 92.2822C494.128 92.323 496.447 92.3637 498.763 92.4045C516.444 92.0682 546.933 92.6846 542.062 91.8397C550.588 91.8128 551.654 91.9187 556.289 92.0786C556.8 92.0145 557.297 91.9611 557.807 91.8897C563.307 91.9569 567.528 91.716 572.38 91.7786C577.231 91.8408 578.436 92.0682 579.143 91.6859C582.286 91.7955 585.41 91.8867 588.533 91.9886C590.418 91.9017 592.301 91.8159 594.166 91.7295C597.112 91.775 600.065 91.8204 603.012 91.8659C604.587 91.6834 616.172 91.7621 621.28 91.6395C626.128 91.8362 625.995 92.4557 637.402 92.3447C637.107 92.1911 636.817 92.0379 636.522 91.8842C639.135 91.9163 641.753 91.9483 644.385 91.9803C644.542 92.0305 644.678 92.0806 644.835 92.1308C643.499 92.1153 642.182 92.0998 640.846 92.0838C642.005 92.1687 643.14 92.2531 644.28 92.338C648.267 92.2123 652.26 92.0865 656.267 91.9608C650.865 91.8656 645.462 91.7704 640.061 91.6752C646.839 91.5624 651.556 91.6749 657.45 91.5492C662.576 91.7613 660.683 91.8835 658.601 92.1137C660.506 92.094 662.433 92.0751 664.338 92.0554C663.082 92.2856 666.304 92.4228 655.167 92.4042C655.933 92.4699 656.714 92.5325 657.46 92.6007C659.287 92.5904 660.471 92.6459 662.475 92.6206C667.936 92.5512 672.123 92.1469 671.75 92.0051C671.549 91.9308 666.164 92.0728 666.38 91.9678C666.912 91.7118 679.265 91.8268 661.449 91.5696C667.362 91.4066 668.683 91.5295 675.205 91.5766C674.695 91.4913 674.198 91.4065 673.708 91.3212C676.732 91.3605 679.76 91.3997 682.784 91.439C678.58 91.8773 700.878 92.0419 680.806 92.4253C686.737 92.4449 692.649 92.4647 698.561 92.4854C697.343 92.5304 696.125 92.575 694.907 92.62C692.236 92.5962 689.58 92.5728 686.909 92.5495C690.051 92.6317 693.199 92.7135 696.341 92.7957C703.767 92.6938 706.678 92.537 710.076 92.3435C701.435 92.2023 704.258 92.3952 697.524 92.4335C697.76 92.311 697.449 92.1982 698.037 92.0695C701.517 92.3233 712.867 92.1386 715.499 92.1262C723.51 92.0885 717.228 92.3379 722.587 92.3432C727.95 92.3484 734.275 92.1999 738.656 92.4472C738.578 92.3086 738.227 92.1652 737.913 92.0389C746.262 91.9934 744.597 92.1572 745.461 92.1784C759.252 92.5272 766.735 92.2327 782.51 92.197C780.507 92.1541 778.482 92.1153 776.459 92.0749C788.36 91.7806 780.343 91.8707 770.01 91.7734C779.696 91.8029 785.242 91.5523 792.079 91.4777C798.914 91.4034 810.637 91.5321 814.922 91.6325C805.119 91.7939 794.545 91.6874 783.662 91.7319C784.899 91.8732 786.102 91.9927 787.378 92.1479C793.998 91.8515 797.834 92.0497 800.014 92.089C806.417 92.2043 806.216 91.9499 810.085 92.2236C809.928 92.1294 809.813 92.0503 809.656 91.9623C822.877 92.0017 837.137 92.1681 845.742 91.8204C846.528 92.0465 847.121 92.2644 848.024 92.4952C853.622 92.3249 858.416 92.4992 863.131 92.4594C867.826 92.4196 866.038 92.2369 871.558 92.1665C872.58 92.1536 874.707 92.2679 877.222 92.1836C879.761 92.0988 889.125 91.4683 890.245 92.0191C894.979 92.0217 899.459 92.0418 904.095 92.0511C899.577 92.0822 895.057 92.1123 890.559 92.1433C894.409 92.2768 898.235 92.4099 902.085 92.5434C902.576 92.4243 903.069 92.3032 903.54 92.1857C913.913 92.0408 921.44 92.2354 931.911 92.1894C933.659 92.1816 929.535 91.9463 937.292 92.0063C945.051 92.0663 950.81 92.5055 964.029 92.3359C964.697 92.3271 968.612 91.9907 973.346 92.2236C974.424 92.2763 969.889 92.3544 972.362 92.4237C974.838 92.4931 985.882 92.5501 986.747 92.7152C986.629 92.6567 985.94 92.5961 985.605 92.5367C987.491 92.5087 989.396 92.4808 991.301 92.4533C991.477 92.5563 991.668 92.6594 991.845 92.7619C1002.69 92.5223 1008.29 92.1315 1024.36 92.2608C1019.84 92.1113 1015.32 91.9611 1010.82 91.8116C1009.59 91.9166 1008.35 92.0224 1007.13 92.1274C999.724 92.0855 992.299 92.0439 984.894 92.002C983.676 92.1215 982.479 92.2407 981.261 92.3603C979.297 92.3447 977.352 92.3297 975.388 92.3142C975.879 92.2278 976.374 92.1418 976.885 92.0554C972.996 92.0766 969.102 92.0983 965.233 92.1195C973.11 91.6094 987.231 92.1629 986.213 91.7362C987.96 91.8024 989.71 91.8691 991.458 91.9358C992.224 91.7289 995.777 91.7885 1002.04 91.8211C1000.61 91.7191 999.024 91.6186 997.707 91.5156C1003.8 91.6594 1014.6 91.6455 1020.91 91.7008C1023.68 91.7251 1020.91 91.8751 1021.73 91.8928C1025.96 91.9849 1034.03 91.7231 1035.72 91.7438C1045.82 91.867 1052.38 92.3632 1063.4 92.0362C1052.02 91.9555 1058.21 91.9896 1054.17 91.8079C1052.9 91.751 1038.2 91.6322 1056.61 91.685C1058.76 91.6916 1092.15 92.0344 1081.18 92.2971C1086.58 92.2133 1090.81 92.1163 1095.76 92.0273C1107.86 92.7197 1103.67 92.0693 1100.16 91.7112C1102.14 91.7096 1104.03 91.706 1106.07 91.706C1101.73 92.0822 1123.85 92.1056 1131.35 91.9156C1133.87 91.8525 1126.84 91.7321 1132.65 91.6752C1135.42 91.7016 1138.56 91.7357 1141.49 91.7652C1137.24 91.5272 1145.57 91.4355 1145.45 91.1933C1150.78 91.4091 1154.85 91.8664 1151.92 92.1143C1156.32 92.0139 1160.75 91.9137 1165.15 91.8128C1163.1 91.7554 1161.03 91.6984 1158.99 91.641C1173.37 91.7931 1191.86 91.447 1194.87 91.9556C1196.77 91.952 1198.7 91.9489 1200.6 91.9453C1201.19 91.8594 1201.76 91.7733 1202.35 91.6874C1210.97 91.7619 1219.58 91.8369 1228.2 91.9114C1220.52 91.9647 1218.69 92.087 1210.64 91.9877C1213.75 92.0865 1216.91 92.1858 1219.95 92.2846C1232.07 92.0186 1233.72 91.8438 1251.97 91.923C1252.8 91.9266 1266.59 92.1496 1267.06 92.1714C1269.22 92.2707 1265.94 92.415 1266.9 92.4652C1269.57 92.606 1285.81 92.9594 1285.5 93.0127C1281.53 93.6668 1226.9 93.6754 1212.13 93.7091C1058.9 94.0578 909.038 93.5912 756.767 93.6709C755.202 93.6722 755.885 93.7687 755.218 93.7729C751.074 93.7971 747.004 93.6466 745.472 93.6404C742.198 93.6276 744 93.7667 741.609 93.7668C716.895 93.7652 693.573 93.6834 668.84 93.7073C667.229 93.7088 668.873 93.5976 666.045 93.6172C664.584 93.628 660.013 93.7987 656.717 93.8012C645.205 93.81 635.535 93.7553 623.395 93.7579C616.754 93.7595 606.793 93.7449 599.369 93.7475C596.09 93.7486 592.673 93.8267 589.434 93.8293C584.837 93.8329 585.775 93.6747 585.068 93.6648C581.964 93.6219 581.535 93.7956 578.588 93.7915C573.107 93.7832 572.812 93.6672 565.858 93.677C560.888 93.6843 549.512 93.7759 543.245 93.8028C528.59 93.6682 510.123 93.7216 496.45 93.7661C488.356 93.7925 487.606 93.6301 484.306 93.6307C472.677 93.6338 463.852 93.8412 452.931 93.8479C438.436 93.8567 425.59 93.7196 411.547 93.7097C409.27 93.7081 409.793 93.8569 407.559 93.8607C399.288 93.8747 388.712 93.9018 381.345 93.8806C373.134 93.8573 370.106 93.6413 362.072 93.6853C359.716 93.6983 359.026 93.8877 355.079 93.912C348.773 93.9502 341.859 93.7833 337.46 93.7646C331.428 93.7398 336.673 93.9327 328.54 93.9068C328.206 93.9057 326.989 93.7678 325.242 93.7744C321.796 93.787 320.916 93.8409 318.392 93.8712C317.111 93.8771 315.42 93.8477 312.894 93.3826C312.522 93.3193 309.733 92.7442 307.108 91.6044C304.461 90.5114 302.06 88.8797 301.638 88.5793C295.995 85.5736 289.711 74.4333 289.476 70.7092C289.449 70.5944 289.423 70.4812 289.398 70.3696C287.997 65.0447 287.241 64.742 287.16 64.3655C286.913 64.0603 287.194 63.6671 284.492 59.6293C281.731 56.3159 278.209 53.6917 274.014 52.0082C275.405 52.6003 273.374 51.4594 270.671 50.6787C267.98 49.8461 264.65 49.6713 264.222 49.6919C264.078 49.6912 263.94 49.6917 263.805 49.6932C258.214 49.7548 259.728 49.8737 255.782 49.9052C254.838 49.9168 253.559 49.9501 251.771 50.2069C257.722 49.538 254.768 49.3972 249.754 50.406C244.659 51.3587 238.564 55.6219 236.825 57.5995C233.194 61.1571 230.668 65.6635 229.488 70.453C226.292 84.0182 213.329 94.0302 199.54 93.8395C191.483 93.8281 183.326 93.8191 174.923 93.8199C165.788 93.8209 153.547 93.9065 143.883 93.9044C141.63 93.9043 143.332 93.8085 141.349 93.8064C139.371 93.805 141.566 93.9125 139.308 93.9068C131.655 93.8865 124.904 93.817 118.263 93.799C112.517 93.7754 106.85 92.888 101.072 90.9918C100.471 90.7387 100.499 90.7239 99.509 90.3015C92.2811 87.9559 81.7762 80.499 76.426 72.5162C74.0628 69.2094 72.0184 66.3428 70.6533 64.4495C69.0906 62.2823 67.7817 60.4818 66.6343 58.9135C62.7258 53.9488 59.9885 51.9783 54.2057 49.5233C51.3374 48.4057 47.8352 47.6903 44.5338 47.6772C38.8407 47.6292 33.8007 47.5905 32.5 47.6673C32.0424 47.6887 32.0026 47.7245 32.5 47.7798C32.8014 47.8144 33.3199 47.8559 34.0861 47.9053C33.5561 47.9063 33.0275 47.9073 32.5 47.9083C24.3425 48.008 16.6792 42.3677 14.4064 34.4045C14.1428 33.4589 14.4483 34.0768 14.3486 33.698C13.8152 31.3898 13.7021 30.5451 13.6559 29C13.6554 28.9367 13.6553 28.8723 13.6558 28.8066C13.9516 24.2834 13.3756 31.6447 14.1151 25.2413C15.1128 22.1875 14.5627 19.083 22.1364 13.2135C25.1701 11.2076 28.8287 10.107 32.5 10.1161C81.3505 10.1111 133.66 10.143 183.228 10.1585C186.862 10.1595 184.47 10.0378 189.027 10.0456C204.861 10.0725 233.204 10.2773 246.857 10.2494C260.51 10.2215 257.43 10.0435 265.973 9.96897C267.623 9.95449 266.27 10.0559 267.763 10.0575C277.802 10.0668 289.77 10.225 297.903 10.2488C303.282 10.2648 302.851 10.1052 306.582 10.0938C312.141 10.0772 317.864 10.2384 320.83 10.2436C334.776 10.2664 344.364 10.1365 357.387 10.2027C356.878 10.1676 356.541 10.1351 356.11 10.1005C371.53 10.1062 386.931 10.1119 402.351 10.1176C401.624 10.0855 400.921 10.0531 400.194 10.0205C418.286 10.0382 416.222 10.3859 414.631 9.65161C415.946 9.62574 417.341 9.59576 418.598 9.57196C418.088 9.9502 429.032 10.227 442.959 10.3233C443.981 10.3305 450.835 9.96172 450.089 10.3974C451.876 10.2908 452.941 10.2173 454.454 10.1237C457.4 10.2556 460.386 10.386 463.332 10.5173C464.922 10.4977 466.536 10.4787 468.126 10.4591C468.362 10.3737 468.181 10.285 468.692 10.2012C476.077 10.1883 491.226 10.2938 497.062 10.283C511.561 10.2556 526.321 10.0247 537.597 10.2741C543.09 10.2487 537.636 10.0811 545.805 10.1023C546.728 10.1872 547.596 10.2685 548.558 10.3559C555.235 9.97684 556.63 10.2074 565.78 10.2866C571.967 10.3405 576.019 10.2478 581.912 10.2659C583.405 10.2706 583.194 10.3818 584.215 10.3782C587.636 10.3667 597.398 10.2136 599.814 10.2094C621.697 10.1691 640.497 10.1863 661.339 10.2271C663.578 10.2313 660.675 10.1215 662.993 10.1261C666.722 10.1334 664.528 10.3022 666.689 10.3104C672.715 10.3326 672.761 10.1547 681.167 10.1454C708.846 10.1148 740.67 10.2485 769.587 10.2604C770.49 10.2604 770.436 10.1562 771.419 10.1551C777.821 10.15 784.303 10.2909 790.116 10.2894C799.762 10.2873 807.011 10.1409 816.539 10.1414C835.163 10.1419 851.802 10.2169 870.956 10.221C886.633 10.2247 900.248 10.2108 917.438 10.2113C992.523 10.2133 1069.14 9.88245 1144.74 10.0584C1146.66 10.063 1145.88 10.1551 1146.46 10.1512C1152.04 10.1113 1152.54 9.98704 1154.53 10.2473C1161.63 10.196 1163.88 10.0005 1172.46 10.0144C1177.03 10.0218 1173.62 10.3248 1181.36 10.1685C1188.35 10.0273 1180.63 9.86122 1201.42 10.0309C1201.97 10.0356 1204.67 10.2203 1208.99 10.1722C1213.34 10.1246 1208.31 9.99234 1218.76 9.9525C1238.38 9.87803 1262.17 9.96519 1285.5 9.97799C1291.64 9.97243 1297.75 11.3361 1303.2 13.8666C1304.05 14.2421 1308.61 16.4094 1312.6 19.7926C1316.66 23.0887 1319.91 27.5109 1320.87 29.0134C1324.39 34.9545 1324.23 33.5392 1326.8 42.2137C1327.6 45.5632 1327.91 48.7205 1327.89 52C1327.85 55.3947 1327.46 58.945 1326.4 62.9894C1326.09 63.8838 1326.12 65.6168 1323.41 71.1968ZM79.6102 72.7211C80.8252 73.7655 82.6105 76.0998 90.1353 81.8976C90.8692 82.4387 86.6335 79.9252 90.9332 83.0226C86.5912 80.1778 82.817 76.711 79.6097 72.7215C79.6099 72.7214 79.61 72.7213 79.6102 72.7211ZM1287.31 90.7564C1294.38 90.4758 1301.38 88.1905 1307.26 84.2321C1303.25 87.0322 1298.69 89.0708 1293.92 90.1857C1291.72 90.5661 1289.52 90.7535 1287.31 90.7564ZM502.014 12.9278C502.021 12.9278 502.028 12.9278 502.035 12.9278C494.373 13.0023 486.707 13.077 479.045 13.1515C479.851 13.0966 480.658 13.0416 481.464 12.9867C487.513 12.9003 493.566 12.814 499.596 12.7276C500.401 12.7944 501.209 12.8611 502.014 12.9278ZM562.545 12.3471C567.436 12.4123 566.239 12.5223 568.931 12.6294C568.931 12.6292 568.931 12.629 568.931 12.6288C569.641 12.6566 572.949 12.681 574.228 12.6852C573.757 12.6164 573.147 12.5484 572.637 12.4801C584.051 12.3135 606.372 12.9056 577.473 13.1442C577.905 13.0573 578.318 12.9708 578.75 12.8839C564.39 12.9082 548.38 12.7197 562.545 12.3471ZM188.773 91.1241C193.124 91.0231 196.426 90.9503 199.54 90.9073C204.884 90.6421 210.184 90.0651 217.554 84.394C216.057 85.7618 214.403 86.9727 212.631 87.9938C210.477 89.0314 208.216 89.7838 205.892 90.2414C205.886 90.2429 205.879 90.2444 205.873 90.246C205.43 90.4377 204.981 90.618 204.544 90.7844C202.894 91.0697 201.216 91.207 199.54 91.1954C195.95 91.1716 192.356 91.1478 188.773 91.1241ZM1031.8 12.5528C1035.22 13.1212 1034.23 12.7908 1024.47 12.919C1021.09 12.9635 1024.39 13.0629 1022.28 13.0795C1010.93 13.1699 1010.02 12.7891 1012.56 12.5909C1018.98 12.5775 1025.47 12.5652 1031.78 12.5528C1031.79 12.5528 1031.79 12.5528 1031.8 12.5528ZM1319.23 31.3053C1319.23 31.3112 1319.24 31.3171 1319.24 31.3229C1319.28 31.6318 1316.84 27.8569 1319.42 32.2239C1317.48 28.8966 1315.04 25.8553 1312.2 23.2197C1313.05 23.983 1313.87 24.801 1314.64 25.6357C1314 24.8595 1313.33 24.104 1312.64 23.3763C1311.51 22.5742 1310.71 21.5475 1307.38 19.1971C1308.22 19.9632 1309.02 20.7572 1309.78 21.5826C1306.17 18.6294 1302 16.3178 1297.56 14.8284C1297.52 14.7698 1297.48 14.7108 1297.44 14.6524C1295.74 14.1669 1294.02 13.8016 1292.27 13.5522C1291.81 13.4192 1291.36 13.2974 1290.89 13.1813C1289.1 12.9676 1287.31 12.879 1285.5 12.9118C1285.16 12.9179 1284.82 12.9241 1284.47 12.9303C1283.81 12.8062 1288.62 12.7526 1280.1 12.7841C1281.9 12.6964 1283.7 12.6089 1285.5 12.5214C1286.31 12.4819 1287.11 12.4663 1287.93 12.4758C1300.61 13.1582 1312.66 20.4619 1319.23 31.3053ZM943.013 12.7276C957.098 12.7038 953.131 12.7937 949.87 13.0752C947.592 12.9593 945.292 12.8435 943.013 12.7276ZM217.335 12.4771C213.249 12.6691 209.145 12.8591 204.961 13.0444C196.631 13.1515 188.299 12.8016 194.565 12.6645C202.109 12.4999 209.988 12.6841 217.335 12.4771ZM27.8432 13.2313C37.5812 11.9475 28.3073 12.909 26.4666 14.19C24.0327 15.0148 20.2651 16.952 17.6674 22.4577C19.7364 16.9683 26.2544 13.4252 27.843 13.2308C27.8431 13.231 27.8431 13.2312 27.8432 13.2313ZM381.34 12.6928C385.424 12.6871 389.486 12.6335 393.138 12.6986C392.036 12.8822 384.731 12.7152 389.956 12.9873C387.344 12.992 384.728 12.9965 382.135 13.0017C383.783 12.8889 381.567 12.8047 381.35 12.6934C381.347 12.6932 381.343 12.693 381.34 12.6928ZM806.542 12.944C798.526 12.7267 797.007 12.8196 788.933 12.9702C787.795 12.7933 797.422 12.4969 803.453 12.4316C804.475 12.6024 805.5 12.7732 806.542 12.944ZM1041.66 91.1466C1039.73 91.3722 1025.53 91.4016 1018.48 91.3349C1019.32 91.3015 1020.16 91.2676 1021 91.2336C1027.88 91.2046 1034.78 91.1756 1041.66 91.1466ZM16.7341 25.1622C16.9782 24.1838 17.2998 23.2805 17.6674 22.4577C17.2643 23.3754 16.9581 24.2957 16.7341 25.1622ZM369.222 92.2013C365.864 92.4139 375.846 92.4854 363.726 92.4021C363.726 92.4023 363.726 92.4025 363.726 92.4027C355.71 92.3478 353.941 92.3332 346.515 92.3166C349.188 92.0434 364.254 91.9458 343.49 91.8894C343.216 91.8892 343.761 92.0517 340.443 92.0295C339.419 92.0226 336.142 91.8892 331.157 91.8503C329.546 91.8379 317.441 91.7968 333.942 91.7942C333.451 91.6038 334.337 91.411 334.298 91.2263C340.739 91.1726 345.689 91.5455 352.503 91.5363C362.621 91.5219 367.769 91.1448 369.714 91.6395C361.207 91.761 346.599 91.7639 344.693 91.4665C336.463 91.4628 334.1 91.7066 340.736 91.8272C369.163 91.674 348.54 92.1889 373.43 91.9944C373.725 91.9256 374.749 91.8515 374.592 91.7869C382.19 92.029 370.42 92.1252 369.222 92.2013ZM310.013 90.3761C312.747 91.1585 315.583 91.5054 318.392 91.419C320.422 91.3584 322.45 91.2978 324.478 91.2373C324.478 91.4228 322.825 91.5935 318.392 91.7229C317.174 91.758 315.739 91.715 314.085 91.4861C312.705 91.2214 311.329 90.8463 310.013 90.3761ZM722.922 91.6129C723.629 91.4841 725.514 91.366 726.889 91.2434C728.382 91.352 763.745 91.4563 745.754 91.5629C743.141 91.5784 727.205 91.3506 722.922 91.6129ZM862.194 12.7499C858.029 12.6635 853.881 12.5769 849.736 12.4905C856.117 12.4357 862.503 12.3794 868.884 12.3236C866.648 12.4657 864.43 12.6078 862.194 12.7499ZM149.539 12.251C151.298 12.2558 145.455 12.433 152.387 12.4051C147.22 12.5184 142.381 12.6143 137.332 12.7209C135.82 12.6371 134.291 12.5536 132.778 12.4698C131.6 12.5236 130.398 12.5771 129.219 12.6309C129.926 12.5088 130.556 12.3895 131.302 12.2653C139.809 12.5271 141.759 12.2303 149.539 12.251ZM402.476 11.7734C404.006 12.0388 391.688 12.1966 403.806 12.2391C401.507 12.4134 397.812 12.5049 390.72 12.5204C389.582 12.4537 388.445 12.3875 387.307 12.3208C387.15 12.4993 385.325 12.5656 381.34 12.6928C381.336 12.6926 381.333 12.6924 381.329 12.6922C370.548 12.7051 371.192 12.6456 368.599 12.3523C380.013 12.5179 380.354 12.2498 388.134 12.0905C393.477 11.9809 400.453 12.0305 402.476 11.7734ZM685.244 91.616C693.316 91.3919 686.072 91.183 700.393 91.421C699.47 91.4779 698.542 91.5343 697.619 91.5913C693.494 91.6001 689.369 91.6082 685.244 91.616ZM442.31 12.6831C441.387 12.2722 433.788 11.9524 432.49 12.6208C439.897 12.7569 436.279 12.3783 442.31 12.6831ZM31.0884 11.9768C31.5788 11.9374 32.0462 11.9212 32.5 11.9228C45.1479 11.9699 42.4431 12.4101 36.7897 12.6339C35.886 12.5496 34.9832 12.4651 34.0992 12.3813C33.5661 12.3895 33.0331 12.3976 32.5 12.4058C30.5814 12.435 28.6792 12.7954 26.8976 13.4707C28.1942 12.7982 29.6104 12.2897 31.0884 11.9768ZM693.384 12.2317C682.5 12.5251 705.133 12.3949 697.53 12.5781C691.459 12.7245 683.46 12.4289 686.485 12.2436C688.587 12.2385 690.927 12.2348 693.363 12.2317C693.37 12.2317 693.377 12.2317 693.384 12.2317ZM630.404 12.3157C632.191 12.6291 629.615 12.5378 638.213 12.4814C640.669 12.4653 660.182 12.5831 651.99 12.3233C645.018 12.3233 637.651 12.3188 630.404 12.3157ZM127.75 91.6221C127.826 91.7009 122.853 91.834 118.263 91.9182C114.901 91.9953 111.754 91.6024 110.955 91.4468C110.955 91.447 110.955 91.4472 110.955 91.4474C108.404 90.921 111.031 91.363 113.468 91.5243C115.908 91.6808 118.126 91.656 114.736 91.3444C115.98 91.4537 117.155 91.5052 118.263 91.5154C130.636 91.6275 134.387 91.1851 133.414 91.9065C124.446 91.941 128.692 91.7789 127.75 91.6221ZM1228.08 91.7893C1228.09 91.7893 1228.1 91.7893 1228.11 91.7893C1227.1 91.7829 1218.78 91.5825 1219.79 91.5131C1229.79 91.5726 1228.01 91.7045 1237.32 91.4878C1237.83 91.5576 1238.27 91.6253 1238.81 91.6956C1235.12 91.737 1233.07 91.8209 1228.08 91.7893ZM761.154 91.8882C757.48 91.9239 750.776 91.7759 746.592 91.7847C759.911 91.2166 775.828 91.7464 761.154 91.8882ZM1188.57 12.4542C1188.56 12.4544 1188.55 12.4546 1188.54 12.4548C1188.54 12.4545 1188.55 12.4542 1188.55 12.4539C1188.56 12.454 1188.56 12.4541 1188.57 12.4542ZM476.475 91.5473C476.949 91.5842 477.216 91.6162 477.313 91.6444C477.313 91.647 477.313 91.6497 477.313 91.6523C477.057 91.6178 476.784 91.5828 476.475 91.5473ZM158.979 91.5809C165.237 91.7713 144.386 92.074 137.643 92.0017C138.115 91.9148 138.188 91.836 139.287 91.7362C144.729 91.9613 157.938 91.5488 158.979 91.5809ZM310.633 12.3492C294.151 12.3441 315.601 11.5923 316.485 12.1921C316.452 12.2037 311.059 12.3482 310.633 12.3492ZM46.3865 45.718C43.5347 45.7583 46.4364 45.9252 44.5338 45.9124C43.6084 45.9234 41.5423 45.9212 37.1116 45.9083C36.3263 45.8494 35.5414 45.7903 34.7561 45.7313C38.0145 45.7113 41.2748 45.691 44.5338 45.6709C45.1523 45.6671 45.7699 45.6829 46.3865 45.718ZM202.658 11.3623C181.913 11.4891 162.073 11.7128 175.585 12.3404C177.155 12.3202 178.747 12.3007 180.317 12.2806C180.553 11.9744 186.347 12.1415 194.827 12.1515C196.036 12.0299 200.739 12.0018 201.621 11.8985C203.328 11.6988 197.924 11.5584 202.658 11.3623ZM1078.47 11.8607C1078.14 11.9129 1077.81 11.9655 1077.47 12.0172C1074.19 12.0762 1070.9 12.1349 1067.62 12.1939C1068.15 12.0936 1068.69 11.9933 1069.21 11.893C1072.3 11.8822 1075.37 11.8712 1078.45 11.8604C1078.46 11.8605 1078.46 11.8606 1078.47 11.8607ZM294.139 78.5642C295.39 79.4764 292.946 76.9944 291.135 69.992C290.558 67.5347 289.526 64.6684 287.701 61.7413C289.197 64.3158 290.271 67.1349 290.872 70.0492C291.49 73.0373 292.596 75.9283 294.139 78.5642ZM536.006 11.5955C536.438 11.7589 536.863 11.9218 537.315 12.0853C544.407 11.915 543.09 11.7279 539.691 11.5116C538.455 11.5395 537.243 11.5676 536.006 11.5955ZM638.161 11.5259C635.219 11.4918 636.72 11.6238 636.413 11.6211C628.967 11.5518 627.918 11.4912 618.783 11.5906C617.664 11.6253 616.563 11.6617 615.444 11.6974C619.667 12.0399 622.733 11.8532 631.67 12.0544C630.059 11.937 628.455 11.8194 626.844 11.7014C631.813 11.7262 636.762 11.7507 641.731 11.7755C642.32 11.7393 642.911 11.7034 643.5 11.6672C641.733 11.6206 639.909 11.5683 638.161 11.5259ZM1116.41 12.0093C1121.24 12.0227 1126.1 12.0367 1130.93 12.0502C1131.11 11.9658 1131.28 11.8809 1131.45 11.7966C1126.44 11.8675 1121.42 11.9384 1116.41 12.0093ZM388.788 92.0591C389.171 92.0292 389.545 91.9991 389.877 91.9684C389.845 92.0058 389.426 92.0349 388.788 92.0591ZM1240.84 92.2519C1246.32 92.3109 1254.21 92.2722 1260.22 92.2846C1259.75 92.073 1244.47 92.1315 1239.11 92.0032C1238.25 92.0412 1238.52 92.2271 1240.84 92.2519ZM50.797 11.9379C52.1721 11.8323 53.5454 11.7273 54.9008 11.6217C58.2209 11.6331 61.5484 11.6451 64.8881 11.6565C64.9864 11.5701 65.0829 11.4829 65.1812 11.3965C50.4694 11.5088 53.8615 11.2596 46.5781 11.0138C47.9924 11.3217 49.3828 11.6295 50.797 11.9379ZM1270.17 11.4612C1259.55 11.5197 1255.78 11.6289 1261.77 11.8881C1265.52 11.8286 1269.29 11.7691 1273.04 11.7096C1272.08 11.6268 1271.12 11.544 1270.17 11.4612ZM582.346 92.2544C591.24 92.1575 591.388 92.5054 600.081 92.3111C595.426 92.247 590.771 92.1821 586.136 92.118C584.884 92.1633 583.599 92.209 582.346 92.2544ZM188.051 93.2098C190.484 93.2883 194.289 93.074 199.54 93.0294C202.485 93.0037 205.88 92.6079 209.572 91.4653C211.989 90.4538 213.397 89.5992 215.229 88.3408C216.401 87.7775 217.682 87.0228 218.729 86.3298C218.735 86.3252 218.741 86.3205 218.746 86.3159C222.502 83.0295 222.769 82.0732 222.552 82.3455C222.291 82.5722 221.191 83.6615 221.211 83.5254C221.228 83.4704 222.503 82.123 223.424 80.8686C224.356 79.6228 224.995 78.5405 224.326 79.4655C223.193 81.0653 220.224 84.7078 216.78 87.058C213.395 89.4872 209.871 90.6632 209.822 90.5459C214.949 89.2453 222.185 82.0929 219.87 83.9996C217.678 86.304 209.647 91.6383 203.53 91.9325C208.655 91.1783 204.344 92.5053 199.54 92.4493C196.49 92.4025 193.312 92.3025 192.531 92.1717C183.171 92.405 190.239 92.512 199.54 92.5194C200.427 92.5202 201.33 92.4802 202.238 92.3962C195.724 92.9777 205.345 92.4691 206.904 91.9268C205.264 92.3857 202.539 92.9075 199.54 92.9103C190.88 92.9501 180.15 92.9545 188.051 93.2098ZM289.057 11.2592C281.983 11.2756 270.932 11.1301 266.088 11.3449C263.268 11.4701 274.345 11.567 266.706 11.7636C273.598 11.7445 275.171 11.6677 273.992 11.4954C275.563 11.4747 277.154 11.4545 278.724 11.4344C279.451 11.468 280.196 11.5011 280.923 11.5348C281.748 11.4639 282.578 11.3936 283.383 11.3227C285.051 11.3366 286.74 11.3506 288.408 11.3651C288.604 11.3294 288.939 11.2984 289.057 11.2592ZM837.712 92.2437C835.748 92.2458 833.803 92.2478 831.839 92.2504C832.056 92.2924 832.313 92.3361 832.562 92.3792C832.74 92.4133 832.918 92.4473 833.096 92.4814C831.957 92.3597 822.601 92.1573 818.659 92.2873C816.677 92.3526 821.187 92.5841 812.786 92.6245C818.874 92.6126 824.514 92.581 830.426 92.5614C829.896 92.6302 829.386 92.6998 828.856 92.7686C828.859 92.7687 828.863 92.7688 828.866 92.7689C830.83 92.7844 832.817 92.8007 834.781 92.8162C835.763 92.6252 836.73 92.4346 837.712 92.2437ZM530.248 11.2723C523.549 11.4074 521.307 11.4775 524.47 11.6959C524.477 11.696 524.484 11.6961 524.491 11.6962C526.985 11.5994 529.481 11.5027 531.976 11.406C531.406 11.3615 530.838 11.3168 530.248 11.2723ZM446.492 92.7799C460.735 91.9504 428.66 92.4589 434.767 92.7414C435.042 92.7544 445.156 92.6883 446.492 92.7799ZM28.4348 12.1435C29.7627 11.8218 31.1305 11.6593 32.5 11.6574C35.0737 11.6532 37.6515 11.649 40.234 11.6446C39.3302 11.5427 38.4052 11.4411 37.5015 11.3391C35.8357 11.3991 34.1677 11.4592 32.5 11.5193C31.1203 11.5673 29.752 11.7771 28.4348 12.1435ZM1223.9 11.0846C1219.79 10.857 1209.23 10.7745 1204.06 11.0221C1206.78 11.0511 1209.49 11.0801 1212.2 11.1091C1207.07 11.1375 1202.01 11.1688 1196.84 11.1957C1196.57 11.5129 1202.52 11.3289 1211.48 11.4164C1212.86 11.4305 1221.73 11.8242 1224.79 11.5274C1225.41 11.4664 1215.98 11.425 1222.53 11.2476C1219.66 11.2336 1217.19 11.2367 1214.48 11.229C1214.28 11.1534 1214.09 11.0778 1213.87 11.0022C1217.22 11.0296 1220.55 11.0573 1223.9 11.0846ZM247.873 11.2839C238.156 11.2664 236.956 11.3932 234.933 11.6171C239.452 11.5918 243.972 11.5668 248.49 11.5415C248.275 11.4558 248.088 11.3701 247.873 11.2839ZM1137.05 11.012C1131.73 10.9754 1134.01 11.1577 1131.87 11.1924C1123.78 11.3227 1118.26 11.1924 1110.26 11.2741C1110.79 11.239 1111.28 11.2061 1111.79 11.1719C1111.78 11.1719 1111.78 11.1719 1111.77 11.1719C1073.92 11.0182 1093.8 11.4317 1116.45 11.3645C1116.98 11.4323 1117.49 11.5001 1118.02 11.5674C1128.16 11.4489 1137.5 11.3349 1137.05 11.012ZM319.956 92.8082C320.388 92.8507 316.715 93.1203 323.609 92.9941C328.712 92.6261 321.224 92.7728 318.392 92.6699C318.189 92.6627 318.009 92.6521 317.859 92.6395C318.036 92.6392 318.214 92.6374 318.392 92.6339C320.092 92.5998 321.819 92.5664 323.494 92.5321C321.495 92.5121 319.802 92.4988 318.392 92.4919C311.838 92.1657 311.343 91.661 314.68 92.5629C314.868 92.6097 316.887 92.815 318.392 92.7923C319.17 92.7907 319.805 92.7936 319.956 92.8082ZM393.29 93.0023C394.822 92.4223 380.74 92.6831 381.251 92.8632C383.195 92.8704 384.706 92.7721 386.768 92.8156C388.85 92.859 389.382 92.9945 393.29 93.0023ZM48.9453 47.2076C49.3649 47.2001 53.1849 48.4197 52.8436 48.1717C50.7273 47.2671 47.3481 46.6243 44.5338 46.6788C41.1707 46.704 38.6186 46.8275 39.5927 46.9123C41.4306 46.9081 42.9391 46.8866 44.5338 46.8713C45.8628 46.8609 47.2583 46.9325 48.9452 47.2082C48.9453 47.208 48.9453 47.2078 48.9453 47.2076ZM1288.06 11.0263C1287.99 11.0194 1286.96 10.9306 1285.5 10.9178C1282.3 10.8894 1277.05 10.8617 1276.12 10.9247C1275.02 11.0272 1274.48 11.137 1273.65 11.243C1276.96 11.186 1282.23 11.1872 1285.5 11.1453C1287.92 11.1254 1289.28 11.2385 1288.04 11.025C1288.04 11.0255 1288.05 11.0259 1288.06 11.0263Z" fill="var(--stroke-0, black)"/>
</g>
</g>
</svg>
