<svg width="144" height="49" viewBox="0 0 144 49" fill="none" xmlns="http://www.w3.org/2000/svg">
<path d="M5.03579 17.9387C5.45569 17.3726 4.63346 19.4556 5.40306 18.1473C5.32795 18.4461 5.26081 18.7464 5.20044 19.0468C5.05946 19.0879 4.91831 19.1325 4.77744 19.1768C4.84992 18.7624 4.93508 18.3517 5.03521 17.9385C5.03541 17.9386 5.0356 17.9387 5.03579 17.9387ZM3.76099 16.8576C3.94416 17.3734 3.6428 18.6118 4.39062 17.4073C4.31179 17.2637 4.2351 17.1167 4.15944 16.9696C4.41736 16.5459 4.68897 16.1341 4.97246 15.7354C5.00102 15.5592 5.0318 15.3831 5.06558 15.2071C5.35278 15.0999 5.63976 15.0024 5.92734 14.911C5.81185 15.0652 5.69663 15.2236 5.58504 15.3821C5.41342 16.1364 5.18924 16.7616 4.88584 17.7286C4.96225 17.661 5.03863 17.5939 5.11566 17.528C4.86301 17.9782 4.62604 18.4425 4.40744 18.9157C4.44444 18.4627 4.50617 17.9547 4.57121 17.5332C4.02658 18.0587 3.87845 19.2768 3.82375 19.8925C3.74561 20.7355 3.63004 20.5185 3.59326 21.1488C3.58856 21.249 3.709 21.278 3.68393 21.4717C3.53436 22.4483 3.41702 24.3765 3.17126 23.2335C3.29787 21.5893 3.30311 20.141 3.8255 18.5852C3.39241 18.9156 3.48317 18.0424 3.76099 16.8576ZM14.7939 42.6193C14.2782 42.5475 13.4203 41.994 12.9138 41.5265C12.9131 41.526 12.9125 41.5256 12.9118 41.5252C12.7986 41.4226 12.6384 41.0591 13.0375 41.3303C13.6894 41.765 13.8618 42.2453 14.339 42.2431C14.4821 42.369 14.6379 42.4934 14.7939 42.6193ZM16.3783 43.3115C16.8028 43.5662 16.5024 43.7316 15.9555 43.4299C15.9554 43.4301 15.9554 43.4302 15.9553 43.4304C15.7295 43.3006 16.2723 43.323 15.3455 43.1339C15.2406 42.9098 15.1377 42.6996 15.0418 42.4799C15.2423 42.5758 15.4257 42.6581 15.6382 42.7522C15.3862 42.926 15.9579 43.0562 16.3783 43.3115ZM3.28989 24.0744C3.52645 24.1552 3.52256 23.8266 3.71243 23.2935C3.69069 23.6302 3.67692 23.9696 3.67164 24.3107C3.67164 24.3107 3.67164 24.3107 3.67164 24.3107C3.66893 24.4854 3.66845 24.6595 3.67018 24.8328C3.57909 24.6608 3.49036 24.4873 3.40376 24.3107C3.40376 24.3107 3.40376 24.3107 3.40376 24.3107C3.36539 24.2324 3.32744 24.1537 3.28989 24.0744ZM6.9834 12.5703C6.98385 12.5696 6.9843 12.569 6.98475 12.5683C7.05145 12.4065 7.12058 12.2447 7.19083 12.0861C7.31948 12.0528 7.44693 12.0218 7.57537 11.9914C7.87277 11.4642 8.19719 10.9451 8.54365 10.4406C8.68204 10.6645 7.94335 11.454 7.73729 12.0387C7.14996 12.6908 6.80108 12.9723 6.58448 12.8998C6.71589 12.7884 6.84862 12.6796 6.9834 12.5703ZM130.189 43.4474C130.342 43.2848 130.491 43.121 130.637 42.9548C130.379 43.0652 130.124 43.1762 129.859 43.2722C129.344 43.882 129.16 43.6745 128.286 44.0724C125.569 45.1619 126.371 45.4033 123.633 45.2634C125.721 44.8832 124.854 44.713 125.987 44.1381C126.3 44.2509 125.206 45.0234 126.058 44.8729C127.43 44.2499 128.672 43.5399 130.025 42.6498C129.967 42.643 129.91 42.6358 129.853 42.6285C129.639 42.7681 129.424 42.9032 129.204 43.0354C129.412 42.8325 129.608 42.63 129.807 42.4181C129.597 42.7664 130.327 42.2343 130.338 42.4947C130.344 42.6124 130.062 42.9364 129.896 43.1358C130.469 42.8949 131.045 42.6158 131.603 42.3173C131.374 42.5647 131.138 42.808 130.896 43.0453C130.665 43.1836 130.431 43.3164 130.194 43.4459C130.193 43.4464 130.191 43.4469 130.189 43.4474ZM40.4579 3.71301C41.2711 3.4698 42.7489 3.42956 43.5266 3.70019C42.503 3.70433 41.4815 3.70887 40.4579 3.71301ZM6.40177 12.8501C6.48441 12.7992 6.56533 12.7511 6.64828 12.7017C6.49726 13.064 6.35518 13.4315 6.22671 13.7981C6.08666 13.8 5.94542 13.8046 5.80406 13.8113C5.99386 13.4865 6.19463 13.1643 6.40177 12.8501ZM6.82334 36.1598C6.65776 35.9312 6.64634 35.9087 6.46912 35.6055C6.46925 35.6059 6.46938 35.6063 6.46951 35.6067C6.39126 35.49 5.85725 34.4562 6.00693 34.521C6.2913 35.0181 6.61488 35.5377 6.94776 36.0204C6.90802 36.0693 6.8608 36.1066 6.82334 36.1598ZM3.97941 30.0229C3.97939 30.0221 3.97937 30.0213 3.97935 30.0205C3.9354 29.815 3.91102 29.6149 3.86329 29.4048C4.1995 30.1192 3.9861 30.3057 4.27768 30.9595C4.57689 31.6069 4.86676 31.9493 4.77776 32.6432C4.63897 32.4576 4.47574 32.2634 4.33207 32.0686C4.09852 31.0657 3.89494 30.8536 3.52859 30.1021C3.67932 30.0761 3.82884 30.0496 3.97941 30.0229ZM117.281 45.2751C117.078 45.4511 116.851 45.2784 116.828 45.2764C116.828 45.2762 116.829 45.2759 116.829 45.2757C115.028 45.4387 117.063 45.1784 115.364 45.1509C115.617 45.107 115.865 45.0605 116.116 45.0161C116.503 45.1009 116.903 45.197 117.281 45.2751ZM58.7748 45.2587C58.7582 45.2074 58.7384 45.1561 58.7219 45.1049C59.7431 45.1168 60.0035 44.9151 60.8521 45.0988C60.1596 45.1526 59.4673 45.206 58.7748 45.2593C58.7748 45.2591 58.7748 45.2589 58.7748 45.2587ZM9.79109 40.0917C8.91709 39.431 8.31288 38.8643 7.75203 37.9641C7.75167 37.9633 7.7513 37.9625 7.75093 37.9618C7.71929 37.9099 7.98967 38.0628 7.95923 37.9852C7.80744 37.8322 7.64671 37.6768 7.49557 37.5189C7.54406 37.4422 7.59366 37.3668 7.64229 37.2909C8.00012 37.7798 8.38019 38.2545 8.78218 38.714C8.75666 38.6141 8.7302 38.513 8.70642 38.4133C9.07418 38.7733 9.45305 39.1177 9.84487 39.4484C9.61868 39.4296 9.39172 39.407 9.16479 39.3819C9.36755 39.6227 9.57727 39.859 9.79109 40.0917ZM75.7763 45.8192C75.5966 45.7634 75.9293 45.6696 75.6503 45.6215C75.3713 45.574 74.8571 45.6783 74.9776 45.5205C75.3532 45.4993 75.7477 45.475 76.1303 45.4527C74.8987 45.1682 73.67 45.4257 73.6511 45.0743C74.8331 45.1654 75.805 45.1231 76.9491 45.0258C76.9018 45.3047 75.7574 45.5458 76.478 45.8076C76.2465 45.8113 76.0033 45.8166 75.7788 45.8186C75.778 45.8188 75.7772 45.819 75.7763 45.8192ZM18.1364 0.532807C18.8923 0.353287 20.6391 -0.0736599 21.6381 0.0109928C21.885 0.023797 22.7132 0.489035 22.7094 0.560354C22.6954 0.789986 21.7571 0.88088 22.7754 0.969146C22.4356 0.988054 22.1082 1.02049 21.7753 1.05583C21.8495 1.20427 21.9222 1.35267 21.9917 1.50146C22.3878 1.44391 22.7917 1.39628 23.1899 1.359C23.2114 1.40953 23.2326 1.4602 23.2538 1.51079C21.8216 1.57885 22.6746 1.7347 21.9577 1.97252C22.6382 2.00509 23.3151 2.06812 23.9824 2.16126C23.5968 2.14929 23.1451 2.15387 22.8078 2.15857C22.7777 2.41995 23.5704 2.32714 23.7099 2.37806C24.4774 2.59131 20.5723 2.68411 20.3408 3.20251C20.9521 3.14058 21.5939 3.10094 22.2155 3.09221C22.0414 3.15376 21.8687 3.21744 21.6961 3.28335C20.2714 3.17015 18.6732 3.39555 17.038 3.7772C16.8982 3.83592 16.7591 3.89641 16.6231 3.95659C16.7048 4.053 16.7835 4.15014 16.864 4.24727C16.6583 4.33506 16.4497 4.42764 16.2466 4.52211C16.7273 3.92663 15.8663 4.22694 14.7371 4.49201C15.2262 4.10843 15.9557 3.90834 15.8137 3.69068C13.9427 4.62631 11.6643 5.64484 10.2125 7.11013C9.85781 7.47403 10.0572 7.71 9.17861 8.47364C9.18281 8.42013 9.14324 8.36765 9.12972 8.31521C7.76701 9.83245 7.05421 10.8119 5.75315 12.4665C5.91863 12.4294 6.08318 12.3965 6.2481 12.3639C6.44499 11.9667 6.65422 11.5739 6.87583 11.1886C7.21863 11.0747 6.9962 11.4594 7.82999 10.4577C8.53401 9.65466 8.05073 10.075 8.20248 9.81874C8.41359 9.47272 8.76671 9.3311 9.00836 8.971C9.19972 8.69456 8.82298 8.81892 9.48883 8.26141C9.37027 8.65027 9.26454 9.04831 9.17257 9.43864C8.99388 9.55013 8.81689 9.66309 8.64017 9.78039C8.74333 9.59026 8.84787 9.40411 8.95768 9.21594C8.50351 9.81059 8.10492 10.3902 7.70666 11.0414C7.62962 10.6576 7.21628 11.3406 6.99387 11.7071C6.64635 12.2772 6.81299 11.6933 6.58609 12.0701C6.36206 12.4519 6.2905 12.9655 5.84789 13.6125C5.94837 13.1813 5.5504 13.6133 5.50019 13.4554C5.44726 13.2955 5.87166 12.5516 5.32818 13.1825C4.63221 14.6001 5.88234 13.3547 5.44014 14.3047C4.94409 15.437 4.14294 15.4106 4.14868 14.9889C4.15413 14.6552 4.66035 13.7344 4.70609 13.4043C3.58825 14.9607 4.05448 15.2077 3.99706 15.5265C3.85484 16.7181 3.31839 15.6637 3.13764 17.0808C2.99076 17.0023 2.85807 16.9334 2.71796 16.8561C2.66591 17.0966 2.65186 17.2626 2.58543 17.5506C3.15905 16.8279 2.92093 17.4957 2.81799 17.8379C2.6563 18.3782 3.05754 17.5905 3.05345 17.7459C3.03493 18.1585 2.82389 18.7524 3.06252 18.4181C2.95249 18.5665 2.83987 18.732 2.73263 18.8893C2.6382 19.555 3.03589 21.1561 3.18008 19.7334C3.39997 19.9182 3.18781 20.3359 3.0897 20.6835C2.99202 21.0307 3.154 21.0502 3.0798 21.354C2.80565 22.5755 2.62835 21.7406 2.43799 21.5062C2.41827 23.2016 2.6172 21.5721 2.6109 23.9784C2.78293 24.2084 2.99688 23.1222 3.07953 24.0312C2.98858 24.079 2.90449 24.1704 2.82983 24.3107C2.82983 24.3107 2.82983 24.3107 2.82983 24.3107C2.65123 24.6496 2.51966 25.2659 2.52844 26.2152C2.61038 26.3381 2.69377 26.4576 2.77786 26.5788C2.58299 27.328 2.22073 27.0143 2.79796 28.2918C2.03804 27.688 2.49999 28.1057 2.51516 29.3667C2.52093 29.6244 2.25677 29.0865 2.27057 29.4464C2.27732 29.6106 2.46806 29.9632 2.49926 30.3624C2.5096 30.5547 2.53241 31.4994 2.86495 32.0468C3.00656 31.5164 3.65387 32.5113 3.56199 31.495C4.11941 33.2205 4.84699 34.3144 3.61805 32.6064C3.70612 33.0746 3.81198 33.5453 3.93308 34.0122C4.14486 34.2771 4.36236 34.538 4.58446 34.7917C4.3862 34.9547 4.27334 34.9625 4.98758 36.056C4.63778 35.6073 4.30326 35.1446 3.9851 34.665C3.92985 34.672 3.84492 34.6256 3.80867 34.6659C4.19913 35.2621 5.27831 36.9226 5.62838 37.2603C5.96023 37.6097 5.44461 36.8467 5.57992 36.9207C6.6811 37.5289 6.30264 37.683 6.88325 38.2612C7.22472 38.5926 6.56243 37.6771 6.74067 37.8589C7.38918 38.5326 7.45676 39.0485 8.03265 39.6602C7.94615 39.3309 7.87202 39.0021 7.80896 38.679C8.37075 39.3271 9.05259 40.0039 9.68556 40.4899C9.93394 40.6804 9.83781 40.4317 9.88161 40.4591C10.0952 40.5986 10.9291 41.1873 11.0181 41.2475C11.666 41.7333 11.587 41.8863 12.2434 42.3349C11.9746 42.1767 11.7245 42.0215 11.4678 41.8553C11.1935 42.0001 10.9134 42.1391 10.6319 42.2759C11.2696 42.7757 11.9363 43.242 12.6285 43.6722C12.1622 43.2907 11.712 42.8916 11.2832 42.4782C12.1648 42.8221 13.0564 43.1026 13.9494 43.3209C14.2951 43.6594 14.6548 43.9883 15.0298 44.3073C16.2282 44.7862 16.186 44.1469 16.5821 44.8206C16.9497 44.9093 17.321 44.9888 17.691 45.0582C17.6196 45.1095 17.5483 45.1608 17.4761 45.2115C17.9226 45.3054 18.3753 45.3864 18.8246 45.4508C18.4211 45.0982 18.0462 44.7232 17.6847 44.3581C18.5211 44.5577 18.4873 44.7512 18.5991 44.8378C18.8976 45.0622 19.6089 45.0307 19.8514 45.2063C19.9358 45.2712 19.0629 45.2264 19.3195 45.4444C19.3613 45.4902 20.4151 46.3027 21.1962 46.2554C21.1952 46.1484 21.1538 46.012 21.1387 45.8937C22.1392 45.9562 22.6173 46.5222 22.474 46.6722C23.0332 46.6044 23.8308 46.6065 23.9449 46.4347C23.9574 46.4346 23.9699 46.4344 23.9824 46.4342C24.2464 46.4303 24.5087 46.4265 24.7729 46.4225C24.4848 46.8359 25.6383 46.7603 25.714 46.4048C25.2388 46.396 24.7631 46.3868 24.2879 46.378C24.6473 45.9423 23.2033 45.6793 26.2078 46.0829C26.7822 46.3095 25.1867 46.052 25.6548 46.2217C26.4679 46.3205 27.2312 46.2379 28.0042 46.3957C28.966 46.5928 27.7826 46.7824 30.0236 46.5315C25.0806 45.9028 30.7015 46.1068 33.023 45.9117C33.6613 46.5327 35.6218 46.7293 38.3215 46.5446C38.0402 46.3718 37.1908 46.4608 36.7015 46.4039C36.2122 46.347 36.7416 46.2445 36.1321 46.1638C35.5224 46.0831 34.2273 45.9734 33.6101 45.8513C34.1328 45.7535 36.7133 45.5222 35.0071 45.8C36.2808 45.9713 36.879 46.1472 38.4576 46.1793C38.9304 45.9097 38.8954 45.7419 40.4341 45.7341C39.524 46.1087 41.2726 46.3691 40.8876 46.7561C39.7964 46.6659 40.4063 46.2898 39.7753 46.1097C39.7105 46.0918 38.6939 46.1861 38.4576 46.1793C39.4835 46.5172 39.8383 46.643 39.2071 47.0451C39.9329 47.0099 40.3843 47.0604 40.4505 46.8684C40.6018 46.9517 40.7538 47.035 40.9028 47.1183C41.1389 47.1162 41.3515 47.1085 41.6019 47.1101C41.2571 46.8205 41.9255 46.9987 42.4006 46.8675C42.8758 46.736 42.2383 46.5074 43.5432 46.5043C43.1082 46.4365 42.7105 46.3784 42.2897 46.3142C43.1312 46.2397 43.9753 46.1647 44.8168 46.0902C44.2258 45.9133 42.9451 45.6504 42.9801 45.4176C43.3677 45.5055 44.6954 45.3511 44.8407 45.3447C45.4033 45.3209 45.0967 45.4677 45.1393 45.4714C46.0232 45.5427 46.7512 45.4927 47.0868 45.7152C47.751 45.6148 48.252 45.672 48.9563 45.6664C49.344 45.6632 49.2686 45.4998 49.4955 45.5309C51.0036 45.7378 49.5668 45.949 52.476 45.547C52.1238 45.4332 51.7764 45.3168 51.4241 45.2019C51.7527 45.1589 52.0794 45.1158 52.408 45.0728C52.6279 45.0935 52.8457 45.1144 53.0656 45.1351C53.0609 45.3819 53.0552 45.6292 53.0505 45.876C53.2916 45.8895 53.5337 45.9025 53.7748 45.916C53.3611 45.9403 52.9464 45.9646 52.5327 45.9889C52.4949 46.0323 52.4597 46.0758 52.4219 46.1192C53.0365 46.1865 53.649 46.2544 54.2636 46.3221C54.2754 46.2363 54.2871 46.1498 54.2989 46.064C55.6842 46.1835 55.7171 46.2562 57.0338 46.0197C58.048 46.0223 58.8738 45.6633 59.4601 45.5122C59.6704 45.5604 59.881 45.6091 60.0937 45.6572C60.2285 45.5858 60.3646 45.5147 60.4994 45.4433C60.7665 45.5426 61.0372 45.642 61.3043 45.7408C61.4532 45.5153 61.5303 45.4449 60.488 45.3658C60.845 45.0853 62.68 45.209 63.427 45.3032C63.9937 45.3747 63.3649 45.6086 63.4358 45.6371C63.6725 45.7337 64.6065 45.6503 64.8027 45.6664C65.6324 45.7331 66.2137 45.7214 66.9631 45.7732C67.109 45.7835 67.5168 45.9318 67.5514 45.9364C67.8209 45.9618 68.4861 46.0338 68.5617 46.0359C72.4638 46.1466 68.2943 45.5034 71.9228 45.5711C71.814 45.4863 71.7141 45.4021 71.6078 45.3172C71.8819 45.3121 72.1589 45.3072 72.4329 45.302C72.7804 45.3729 72.36 45.5018 73.0502 45.3978C73.0053 45.5023 72.9602 45.6069 72.9129 45.7109C73.2131 45.6545 73.5025 45.5986 73.8099 45.5421C74.2921 45.9049 76.0526 45.9873 75.9275 46.4131C75.8849 46.558 74.6368 46.7066 75.2963 46.8614C75.8323 46.8918 75.4695 46.7188 75.6881 46.7097C77.2673 46.6466 77.1755 46.8891 77.8209 46.8244C77.9225 46.7205 78.0293 46.6145 78.1333 46.5095C78.3767 46.54 78.6207 46.5705 78.8665 46.6011C78.9232 46.5312 78.9823 46.4613 79.0391 46.3914C78.8098 46.3868 78.5516 46.382 78.3412 46.3774C78.6345 46.1068 81.3287 45.9853 80.3013 46.2159C79.8829 46.3096 79.1167 46.2698 79.6009 46.5895C80.3219 46.5434 81.1399 46.4964 81.8987 46.4503C81.9223 46.5191 81.9443 46.5881 81.968 46.6569C82.9906 46.6124 82.0606 46.3372 82.0625 46.1897C82.2964 46.1856 82.5327 46.1819 82.7666 46.1778C82.8658 46.2445 82.96 46.3143 83.0639 46.3789C83.0734 46.2728 83.2045 46.0261 83.9017 46.1177C84.35 46.1773 83.644 46.445 84.4988 46.4079C84.4349 46.2423 84.1261 46.0407 85.0783 45.9874C85.1728 46.1602 85.3036 46.3185 85.3768 46.5C86.5609 46.3341 87.0998 46.6009 88.4897 46.4079C89.3714 46.2858 90.5793 45.8523 91.149 46.5202C91.794 46.5378 91.5893 46.3714 91.7801 46.334C92.6808 46.1571 93.3507 46.4738 93.5186 46.4924C94.589 46.6118 95.0689 46.5022 95.9411 46.6517C95.8938 46.528 95.868 46.411 95.8302 46.2904C95.0312 46.4757 94.6265 46.467 93.506 46.4271C93.8818 46.4023 94.2577 46.3769 94.6335 46.352C94.572 46.2517 94.5111 46.1513 94.4521 46.0515C90.9864 46.4468 91.7949 45.8222 94.7002 45.6856C94.9508 45.8713 95.2104 46.0565 95.4586 46.2428C97.137 45.9613 97.9268 46.2057 99.8249 46.2642C100.051 46.2709 100.872 46.1639 101.226 46.1586C101.22 46.1579 101.214 46.1572 101.208 46.1564C101.428 45.981 101.13 45.9003 101.095 45.7436C101.286 45.7239 101.478 45.7043 101.669 45.6847C102.097 45.8042 101.946 45.9023 102.788 45.8739C102.674 45.7549 102.562 45.6358 102.449 45.5168C103.371 45.5127 103.974 45.642 104.832 45.5861C104.688 45.6311 104.546 45.6763 104.402 45.7213C106.269 45.8362 104.783 46.5358 106.194 46.1876C106.284 46.2486 106.371 46.3102 106.461 46.3713C105.88 46.3863 105.298 46.4008 104.719 46.4158C104.707 46.5022 104.694 46.5882 104.685 46.6746C105.307 46.6487 105.931 46.622 106.553 46.5962C106.099 46.6541 105.643 46.7122 105.189 46.7701C105.91 46.8115 106.631 46.8529 107.352 46.8943C106.586 46.5767 107.579 46.5378 107.392 46.2233C108.669 46.4851 109.671 46.8303 111.65 46.6093C112.042 46.5653 111.829 46.3455 112.943 46.613C112.673 46.2632 114.068 46.0991 113.889 45.7664C113.501 45.7825 113.099 45.7926 112.723 45.8122C113.151 45.9276 113.222 46.245 112.572 46.3392C111.743 46.4593 110.532 46.2393 110.582 46.5916C110.251 46.575 109.943 46.5653 109.622 46.5513C109.754 46.4639 109.884 46.376 110.014 46.2886C109.099 46.4256 108.525 46.381 108.085 46.1607C109.175 46.11 110.262 46.0598 111.352 46.0097C111.191 45.9947 111.028 45.9796 110.868 45.9651C111.693 45.74 110.842 45.5268 112.381 45.4787C112.371 45.5816 112.364 45.6846 112.354 45.7881C112.915 45.5128 114.449 45.5143 113.959 45.1976C114.423 45.2949 114.517 45.3564 114.779 45.1857C116.002 45.4263 116.786 45.7306 116.351 46.0939C116.805 46.0354 117.259 45.9769 117.711 45.9184C117.448 45.8191 117.186 45.7202 116.923 45.6209C117.713 45.6271 118.508 45.6332 119.296 45.6389C119.371 45.9328 117.776 45.728 118.236 45.9907C118.328 46.0435 118.753 45.9305 118.865 45.9602C120.042 46.2815 118.194 46.0494 118.541 46.2956C119.774 46.3491 119.447 46.5687 119.982 46.5742C120.213 46.5753 120.6 46.542 121.315 46.398C121.384 46.4789 121.459 46.5608 121.525 46.6409C122.376 46.58 122.289 46.393 123.004 46.2661C123.445 46.1842 124.077 46.4188 124.526 46.0908C124.599 46.0247 123.714 45.8216 125.416 45.4377C126.729 45.0939 126.264 45.5203 127.008 45.3938C127.765 45.269 129.172 44.2383 129.814 44.4139C129.434 44.5335 128.965 44.7115 128.544 44.8328C128.416 44.983 128.288 45.1294 128.156 45.276C129.048 44.8082 130.043 44.4743 130.535 43.9662C131.878 43.6249 132.946 42.4928 132.401 42.4262C132.074 42.7119 132.554 42.584 131.996 42.8307C131.897 42.7927 131.797 42.7563 131.7 42.7171C132.558 42.1805 133.114 41.7418 132.894 42.23C133.027 42.142 133.157 42.0535 133.288 41.9625C133.197 41.795 133.103 41.6292 133.011 41.4625C133.146 41.3335 133.279 41.2025 133.41 41.0705C133.596 40.9743 133.781 40.8752 133.968 40.7718C133.943 41.1738 133.587 41.5246 134.906 40.5759C134.84 40.4969 134.775 40.4167 134.709 40.3377C135.764 39.5124 135.99 39.6669 137.089 38.3615C136.519 39.6093 135.531 39.6697 136.051 40.1707C135.782 40.3759 135.508 40.5758 135.232 40.7674C135.265 40.8781 135.299 40.9889 135.333 41.0987C136.692 39.8436 137.981 37.11 138.957 36.3381C138.988 36.1861 139.023 36.0376 139.049 35.8817C139.885 35.0111 139.575 34.282 140.381 33.3652C140.457 33.2637 140.915 33.7557 141.468 32.2695C141.384 32.2804 141.259 32.2554 141.159 32.2517C141.321 31.9511 141.477 31.6504 141.626 31.3433C141.579 31.2637 141.533 31.1817 141.484 31.1028C141.285 31.6435 141.067 32.1715 140.828 32.6927C140.984 32.2427 141.126 31.7858 141.251 31.3282C140.948 31.8792 140.847 32.131 140.802 31.7249C140.97 31.223 141.118 30.7133 141.249 30.2012C141.218 30.1362 141.187 30.0718 141.156 30.0074C140.956 30.2176 140.756 30.4247 140.548 30.6214C141.05 29.3658 141.281 28.2196 141.69 27.2186C141.755 27.0465 141.868 27.7007 141.84 26.464C141.938 26.4546 142.018 26.4293 142.108 26.4162C142.028 25.4844 142.006 24.9514 142.051 24.3107C142.051 24.3107 142.051 24.3107 142.051 24.3107C142.077 23.8978 142.128 23.4521 142.163 22.8282C142.039 23.8587 142.111 22.9411 141.993 22.6897C141.916 22.5179 141.97 23.2069 141.894 23.1327C141.824 23.054 141.481 22.1956 141.5 22.9488C141.703 23.4822 141.771 23.9116 141.778 24.3107C141.778 24.3107 141.778 24.3107 141.778 24.3107C141.784 25.2667 141.498 25.9839 141.449 27.6662C141.431 27.2936 141.405 26.9204 141.369 26.5503C141.301 26.7157 141.239 26.8624 141.163 27.0377C141.421 25.7499 141.274 26.3737 141.232 25.8333C141.198 25.4487 141.169 24.8584 141.132 24.3107C141.132 24.3107 141.132 24.3107 141.132 24.3107C141.117 24.0826 141.101 23.8644 141.088 23.6745C141.074 23.4713 141.212 23.6817 141.203 23.2207C141.2 22.8992 140.936 22.069 141.132 21.8445C141.259 21.6906 141.834 23.0612 141.589 21.11C141.678 20.7224 141.768 21.6637 141.783 21.6833C141.977 21.8377 141.947 20.5977 141.7 20.0668C141.681 20.0248 141.634 20.4843 141.491 20.0219C141.142 18.9277 141.105 18.2676 141.075 17.49C140.817 17.4828 140.262 16.6693 139.866 15.5545C139.778 15.5269 139.691 15.5029 139.602 15.4768C139.711 15.6279 139.817 15.7814 139.922 15.9361C139.959 16.1367 140.009 16.3442 140.031 16.5437C139.538 15.4685 139.147 15.4661 138.799 15.0225C137.56 13.5509 138.861 14.1303 139.165 14.3781C139.226 14.6308 139.273 14.8802 139.322 15.1319C139.386 15.0708 139.451 15.0088 139.516 14.9491C138.161 12.3568 139.817 14.2905 139.211 12.891C138.649 12.7618 138.061 11.8563 137.389 10.5812C137.29 10.4592 137.19 10.3367 137.088 10.2172C137.025 10.2355 136.954 10.2947 136.896 10.2875C135.752 9.04886 135.95 8.41836 135.882 8.2499C135.546 7.53877 134.859 7.43315 134.697 7.29742C134 6.72077 133.892 6.42707 133.15 5.97219C132.346 5.49886 132.794 5.96921 132.499 5.90226C132.265 5.848 131.65 5.47007 131.346 5.39965C131.486 5.39492 131.637 5.40023 131.779 5.39824C131.024 4.80841 130.382 4.33661 129.401 3.85188C128.069 3.84885 127.419 2.64758 127.553 3.50176C128.491 3.9028 128.973 4.22389 129.374 4.62808C128.77 4.36686 128.155 4.13264 127.53 3.92778C127.379 3.78279 127.279 3.65994 127.09 3.50492C126.566 3.50562 125.491 3.11855 125.041 3.07322C122.931 2.88255 123.561 3.29888 121.716 2.59023C123.09 2.67077 123.13 2.42612 124.483 2.71858C124.228 2.48198 123.519 2.39621 124.01 2.2676C122.658 2.09452 123.067 2.36423 122.529 2.46215C122.066 2.54907 121.176 2.49873 121.215 2.69223C121.129 2.58372 121.064 2.48003 120.977 2.37259C120.647 2.35829 120.316 2.35112 119.982 2.35134C119.449 2.35169 118.916 2.35196 118.383 2.3526C118.752 2.24447 119.121 2.13614 119.489 2.02852C119.211 1.98768 118.932 1.94699 118.653 1.90615C116.525 2.24249 112.856 1.62606 113.443 2.471C112.417 2.49791 112.288 2.39193 111.731 2.23206C111.669 2.29621 111.609 2.34956 111.548 2.42096C110.886 2.35381 110.378 2.59464 109.794 2.53203C109.211 2.46991 109.066 2.24243 108.981 2.6248C108.602 2.51512 108.226 2.42401 107.851 2.32208C107.624 2.40895 107.397 2.49482 107.173 2.58117C106.818 2.53563 106.463 2.49029 106.108 2.44476C105.919 2.62728 104.525 2.54861 103.91 2.67119C103.327 2.47444 103.343 1.85495 101.97 1.96596C102.005 2.11961 102.04 2.2728 102.076 2.42645C101.762 2.39437 101.446 2.3624 101.13 2.33032C101.111 2.28018 101.095 2.23003 101.076 2.17988C101.236 2.1954 101.395 2.21084 101.556 2.22687C101.416 2.14201 101.279 2.05754 101.142 1.97268C100.663 2.0984 100.182 2.22413 99.7 2.34985C100.35 2.44504 101 2.54029 101.65 2.63548C100.834 2.74829 100.267 2.63577 99.5576 2.76152C98.9407 2.54939 99.1685 2.42716 99.419 2.19697C99.1898 2.21662 98.9579 2.2356 98.7287 2.25525C98.8799 2.02503 98.4922 1.88784 99.8322 1.90646C99.7401 1.84079 99.6461 1.77818 99.5564 1.70993C99.3365 1.72028 99.194 1.66477 98.9529 1.6901C98.2957 1.75944 97.7919 2.16382 97.8368 2.30561C97.861 2.37988 98.5091 2.23784 98.4831 2.34283C98.4189 2.59887 96.9325 2.48392 99.0764 2.74107C98.3649 2.90407 98.2059 2.78114 97.4211 2.73405C97.4825 2.81937 97.5422 2.90415 97.6012 2.98947C97.2373 2.95016 96.8729 2.91099 96.509 2.87168C97.0149 2.43341 94.3318 2.2688 96.7471 1.8854C96.0334 1.86574 95.322 1.84598 94.6106 1.82528C94.7571 1.78027 94.9037 1.73572 95.0503 1.69071C95.3717 1.71451 95.6912 1.73792 96.0127 1.7612C95.6346 1.67895 95.2558 1.59718 94.8777 1.51493C93.9841 1.61687 93.6338 1.77366 93.2249 1.96718C94.2648 2.10841 93.925 1.9155 94.7353 1.87716C94.707 1.99972 94.7444 2.11245 94.6736 2.24122C94.2549 1.98735 92.889 2.17204 92.5723 2.18446C91.6084 2.22216 92.3643 1.97273 91.7195 1.96749C91.0741 1.96231 90.3129 2.11077 89.7858 1.86343C89.7952 2.00206 89.8374 2.1455 89.8752 2.27173C88.8705 2.31727 89.071 2.15349 88.9669 2.13227C87.3074 1.78352 86.407 2.07795 84.5087 2.11366C84.7498 2.1566 84.9934 2.19537 85.2368 2.23572C83.8047 2.53008 84.7695 2.43995 86.0128 2.53722C84.8474 2.50773 84.18 2.75841 83.3573 2.83292C82.5347 2.90731 81.1241 2.77856 80.6085 2.67821C81.7882 2.51676 83.0605 2.62323 84.3701 2.57872C84.2212 2.43749 84.0765 2.31797 83.9229 2.16279C83.1263 2.45921 82.6648 2.26101 82.4024 2.22169C81.6319 2.10635 81.6561 2.36076 81.1905 2.08711C81.2094 2.18125 81.2233 2.2604 81.2422 2.34833C79.6513 2.309 77.9353 2.14257 76.8998 2.49023C76.8053 2.26412 76.7339 2.04628 76.6252 1.81552C75.9515 1.98572 75.3747 1.81143 74.8074 1.85122C74.2424 1.89106 74.4575 2.07379 73.7933 2.14418C73.6703 2.15711 73.4144 2.04274 73.1118 2.12709C72.8062 2.21188 71.6794 2.84234 71.5446 2.29157C70.975 2.28898 70.4359 2.26884 69.878 2.25953C70.4217 2.22848 70.9655 2.19841 71.5068 2.16737C71.0436 2.03388 70.5831 1.90079 70.1199 1.7673C70.0608 1.88632 70.0015 2.00749 69.9448 2.12495C68.6966 2.26984 67.7908 2.07525 66.5309 2.12129C66.3205 2.12905 66.8168 2.36436 65.8833 2.30438C64.9496 2.24436 64.2567 1.80517 62.6659 1.97481C62.5856 1.98361 62.1145 2.31997 61.5448 2.08711C61.4151 2.03433 61.9608 1.95624 61.6632 1.88692C61.3653 1.81758 60.0363 1.76057 59.9323 1.5955C59.9465 1.65395 60.0294 1.71452 60.0696 1.77402C59.8427 1.80195 59.6136 1.82991 59.3843 1.85732C59.363 1.75436 59.3401 1.65125 59.3188 1.54881C58.0139 1.78838 57.3396 2.17919 55.406 2.04988C55.9497 2.19941 56.4936 2.34954 57.0349 2.49908C57.1838 2.39403 57.333 2.28828 57.4796 2.18324C58.3706 2.22514 59.2642 2.26675 60.1553 2.30866C60.3018 2.18912 60.4458 2.06993 60.5924 1.9504C60.8287 1.96592 61.0628 1.98096 61.2991 1.99648C61.24 2.08289 61.1804 2.16884 61.119 2.25525C61.5869 2.23404 62.0555 2.21238 62.5211 2.19117C61.5732 2.70123 59.874 2.14778 59.9965 2.57445C59.7863 2.50825 59.5757 2.44159 59.3654 2.37488C59.2732 2.58176 58.8456 2.52222 58.0918 2.48962C58.2644 2.59156 58.4549 2.69211 58.6133 2.79508C57.8805 2.65125 56.5806 2.66521 55.8217 2.60985C55.4885 2.58553 55.8214 2.43554 55.7222 2.4179C55.214 2.3258 54.2425 2.58752 54.0392 2.56682C52.8242 2.44365 52.0346 1.94745 50.7084 2.27448C52.0772 2.3552 51.3325 2.32111 51.8195 2.50274C51.972 2.55968 53.7402 2.67848 51.526 2.62572C51.2664 2.61912 47.2487 2.27628 48.5694 2.01357C47.9193 2.0974 47.4103 2.19432 46.8146 2.28333C45.3583 1.59096 45.8623 2.24139 46.2855 2.59947C46.0467 2.60103 45.8196 2.60466 45.5737 2.60466C46.0961 2.22847 43.4345 2.20511 42.5314 2.39502C42.2289 2.45815 43.0749 2.57856 42.3752 2.63548C42.042 2.6091 41.664 2.57494 41.312 2.54546C41.8226 2.78348 40.8205 2.8752 40.8345 3.11733C40.1939 2.90157 39.704 2.44424 40.056 2.19636C39.5266 2.29673 38.9944 2.39697 38.465 2.49786C38.7108 2.55529 38.9598 2.61223 39.2057 2.66966C37.4752 2.51753 35.2502 2.86371 34.8885 2.35504C34.6592 2.35866 34.4275 2.36179 34.1982 2.36542C34.1273 2.45132 34.0587 2.53738 33.9878 2.62328C32.9503 2.54878 31.915 2.47379 30.8775 2.39929C31.8013 2.34598 32.0213 2.22372 32.9901 2.323C32.6167 2.22421 32.2364 2.12487 31.8702 2.02608C30.4116 2.29205 30.2126 2.46685 28.0166 2.38769C27.9173 2.38407 26.2581 2.16103 26.2013 2.13929C25.9414 2.03995 26.336 1.89562 26.2202 1.84542C25.8987 1.70467 23.9451 1.35126 23.9829 1.29796C24.4604 0.643893 31.0335 0.635223 32.8112 0.601588C51.2502 0.252838 69.2832 0.719422 87.6064 0.639733C87.7948 0.6385 87.7126 0.541945 87.7929 0.53781C88.2916 0.51356 88.7813 0.664041 88.9657 0.670249C89.3596 0.683044 89.1427 0.544012 89.4305 0.543913C92.4044 0.545465 95.2108 0.627221 98.187 0.603419C98.3809 0.601867 98.183 0.713105 98.5234 0.693442C98.6991 0.682675 99.2492 0.512014 99.6458 0.50943C101.031 0.500637 102.195 0.55535 103.656 0.552763C104.455 0.551218 105.653 0.565725 106.547 0.563138C106.941 0.562038 107.352 0.483964 107.742 0.481355C108.295 0.477733 108.182 0.636005 108.268 0.645837C108.641 0.688776 108.693 0.515061 109.047 0.519195C109.707 0.527474 109.742 0.643457 110.579 0.63363C111.177 0.626386 112.546 0.534812 113.3 0.507904C115.064 0.642431 117.286 0.589024 118.931 0.544523C119.511 0.528817 119.778 0.580025 119.982 0.623927C120.133 0.653859 120.251 0.681209 120.424 0.684065C121.92 0.715009 123.085 0.633322 124.492 0.888885C126.353 1.24162 127.92 1.883 129.58 2.62426C129.849 2.74631 129.849 2.58273 130.115 2.70231C131.101 3.14288 132.318 3.80464 133.108 4.35764C133.987 4.97585 134.173 5.38335 135.009 6.00131C135.251 6.18575 135.444 6.09665 135.848 6.41988C136.493 6.93837 137.014 7.69812 137.387 8.12924C137.896 8.72604 137.589 8.08335 138.264 8.905C138.292 8.93932 138.288 9.14901 138.436 9.32054C138.863 9.8257 138.916 9.7033 139.478 10.4975C139.539 10.5712 140.142 11.7149 140.2 11.8273C140.605 12.4605 141.268 13.8192 141.471 14.2135C142.21 15.6196 141.911 14.402 142.001 15.8164C142.317 16.3292 142.615 16.8498 142.9 17.4276C142.691 17.0514 143.018 18.7357 143.038 18.8502C143.325 19.8018 143.387 19.1852 143.58 20.4382C142.903 18.8638 143.806 22.048 143.803 22.7957C143.842 23.3079 143.862 23.8072 143.863 24.3107C143.863 24.3107 143.863 24.3107 143.863 24.3107C143.866 27.2769 143.291 30.0705 142.203 32.9089C141.782 34.0208 141.16 35.5009 140.5 36.5821C140.348 36.8339 140.382 36.5944 140.245 36.8136C140.107 37.0317 140.351 36.8459 140.189 37.0928C139.162 38.6254 138.112 39.6032 137.132 40.9858C137.049 41.0189 137.03 40.997 136.906 41.0648C136.121 42.236 133.834 43.657 132.975 44.128C131.641 44.9053 131.361 45.2135 130.338 45.6912C128.984 46.3334 126.77 46.7323 127.874 46.8821C126.908 47.2358 125.952 47.5071 124.927 47.6768C124.812 47.6954 124.865 47.5559 124.819 47.5627C124.531 47.6033 124.46 47.7309 124.266 47.7717C123.742 47.8781 124.578 47.5964 123.834 47.7617C123.44 47.8414 123.232 47.9898 122.117 48.0988C121.413 48.1624 120.703 48.1948 119.982 48.1951C114.33 48.1968 108.328 48.167 102.627 48.1522C102.189 48.1512 102.477 48.2729 101.929 48.2651C100.023 48.2382 96.6128 48.0333 94.9698 48.0613C93.327 48.0892 93.6976 48.2672 92.6695 48.3417C92.4709 48.3562 92.6338 48.2547 92.4541 48.2532C91.2461 48.2439 89.806 48.0857 88.8273 48.0619C88.1801 48.0459 88.2319 48.2055 87.783 48.2169C87.114 48.2334 86.4254 48.0722 86.0684 48.0671C84.3903 48.0443 83.2366 48.1742 81.6694 48.1079C81.7307 48.1431 81.7712 48.1756 81.8231 48.2102C79.9675 48.2045 78.1143 48.1988 76.2588 48.1931C76.3463 48.2252 76.4308 48.2575 76.5183 48.2901C74.3412 48.2725 74.5896 47.9248 74.7811 48.6591C74.6228 48.6849 74.4549 48.7149 74.3037 48.7387C74.3651 48.3605 73.0482 48.0837 71.3722 47.9874C71.2493 47.9802 70.4245 48.349 70.5144 47.9132C70.2992 48.0198 70.1711 48.0933 69.989 48.187C69.6345 48.0551 69.2753 47.9247 68.9208 47.7933C68.7293 47.813 68.5352 47.8319 68.3438 47.8516C68.3154 47.937 68.3373 48.0256 68.2758 48.1095C67.387 48.1224 65.5642 48.0168 64.8619 48.0277C63.1172 48.0551 61.3411 48.2859 59.9841 48.0365C59.3232 48.062 59.9795 48.2295 58.9965 48.2083C58.8854 48.1235 58.781 48.0422 58.6652 47.9548C57.8617 48.3338 57.6939 48.1032 56.5929 48.024C55.8483 47.9702 55.3607 48.0629 54.6516 48.0448C54.472 48.0401 54.4974 47.9289 54.3745 47.9325C53.9628 47.9439 52.7881 48.0971 52.4975 48.1012C49.8642 48.1416 47.6019 48.1244 45.0939 48.0835C44.8244 48.0794 45.1738 48.1892 44.8949 48.1845C44.4461 48.1772 44.7102 48.0085 44.4502 48.0002C43.725 47.9781 43.7195 48.156 42.708 48.1653C39.3772 48.1958 35.5478 48.0622 32.0681 48.0503C31.9594 48.0503 31.9659 48.1545 31.8477 48.1555C31.0772 48.1606 30.2973 48.0197 29.5978 48.0213C28.4371 48.0233 27.5647 48.1698 26.4182 48.1693C25.5824 48.1691 24.7798 48.1585 23.9824 48.1452C22.5307 48.1211 21.0987 47.9691 19.5634 47.6795C17.565 47.2889 15.8486 46.7724 13.8219 45.8261C5.75182 42.1364 -0.18811 33.4425 0.00455487 24.3107C0.00455487 24.3107 0.00455487 24.3107 0.00455487 24.3107C0.0128415 23.3999 0.0753862 22.4962 0.192826 21.5987C0.22637 21.3484 0.306258 21.4616 0.311376 21.385C0.363927 20.6593 0.259618 20.5737 0.556908 20.3604C0.667126 19.4443 0.530924 19.1109 0.829805 18.0234C1.00068 17.4463 1.15776 17.96 1.30944 16.9513C1.48586 16.0506 0.912491 16.9072 2.127 14.4557C2.162 14.3911 2.47162 14.1468 2.68108 13.622C2.90111 13.0974 2.46117 13.6135 3.09242 12.3912C4.59038 9.51587 7.46626 6.47619 10.5649 4.37262C10.7412 4.21796 12.638 2.96798 13.0343 2.74869C13.7765 2.28389 13.5483 2.22963 14.5854 1.74657C15.3928 1.38532 16.1296 1.2807 17.1091 0.957058C17.2232 0.921728 17.3724 0.701674 18.1364 0.532807ZM132.847 41.3819C132.903 41.1371 132.822 40.5001 133.767 39.9082C133.859 39.8492 133.687 40.5306 134.198 40.1633C133.769 40.6041 133.315 40.9955 132.847 41.3824C132.847 41.3822 132.847 41.3821 132.847 41.3819ZM23.7691 3.51389C22.9379 3.49326 22.1054 3.52164 21.2735 3.6001C21.8362 3.45685 22.4035 3.33701 22.9801 3.23958C23.2463 3.32607 23.5078 3.4177 23.7691 3.51389ZM64.266 45.3829C64.2652 45.3829 64.2643 45.3829 64.2635 45.3829C65.1855 45.3083 66.1079 45.2337 67.0299 45.1592C66.933 45.214 66.8358 45.2691 66.7389 45.324C66.0109 45.4104 65.2826 45.4966 64.557 45.583C64.4601 45.5163 64.3629 45.4496 64.266 45.3829ZM56.9822 45.9636C56.3935 45.8984 56.5376 45.7884 56.2137 45.6813C56.2137 45.6815 56.2137 45.6817 56.2137 45.6819C56.1282 45.654 55.7301 45.6296 55.5763 45.6255C55.633 45.6943 55.7063 45.7622 55.7678 45.8305C54.3943 45.9972 51.7083 45.405 55.1858 45.1665C55.1338 45.2534 55.0841 45.3399 55.0321 45.4268C56.7601 45.4025 58.6866 45.591 56.9822 45.9636ZM140.209 30.4228C140.322 28.9804 140.371 28.5615 140.799 26.8981C140.85 27.1476 140.896 27.3971 140.938 27.6511C140.812 27.9206 140.682 28.1831 140.546 28.4423C140.546 28.4431 140.546 28.4438 140.545 28.4446C140.619 28.5166 140.693 28.5894 140.766 28.6609C140.606 29.258 140.419 29.8468 140.209 30.4228ZM5.19961 34.6724C5.51142 34.0465 5.25805 34.3224 5.9436 35.2262C6.18503 35.5351 6.07116 35.16 6.21206 35.3565C6.98351 36.3976 6.7638 36.6891 6.42504 36.5651C5.98261 35.9562 5.56965 35.3163 5.2008 34.6746C5.2004 34.6739 5.2 34.6731 5.19961 34.6724ZM14.3278 5.02182C14.3285 5.02145 14.3293 5.02108 14.33 5.02071C14.4218 5.12946 13.9632 5.40291 14.5593 5.24978C14.1497 5.45212 13.7472 5.66669 13.3494 5.89624C13.4594 5.81765 13.5731 5.73914 13.685 5.6625C13.5577 5.67852 13.4297 5.69542 13.3021 5.71392C13.2403 5.9344 13.0637 5.92609 12.6241 6.13683C12.8277 6.21021 13.0291 6.28657 13.2282 6.36552C12.7318 6.60456 12.242 6.86467 11.7625 7.14437C11.732 7.11338 11.7014 7.08245 11.6709 7.05152C11.5323 7.21799 11.3992 7.385 11.2666 7.5546C11.1906 7.54804 11.1164 7.54099 11.04 7.53527C10.8638 7.72049 10.6912 7.90855 10.523 8.09941C10.3857 8.05493 10.7749 7.65033 10.0428 8.31635C10.1877 8.02112 10.3407 7.72774 10.504 7.43422C11.6904 6.49855 12.9744 5.68829 14.3278 5.02182ZM12.3057 42.0947C10.937 41.1883 11.3868 41.3654 11.8492 41.3607C11.9942 41.6065 12.1482 41.8524 12.3057 42.0947ZM98.5223 45.8336C99.014 45.6416 99.5078 45.4515 100.011 45.2663C101.014 45.1592 102.016 45.5091 101.262 45.6462C100.354 45.8107 99.4064 45.6266 98.5223 45.8336ZM121.317 45.7073C120.121 45.6755 121.233 45.4002 121.484 45.2451C121.823 45.4344 122.279 45.3813 123.006 45.3039C122.331 45.4183 121.519 45.7122 121.317 45.7079C121.317 45.7077 121.317 45.7075 121.317 45.7073ZM78.7871 45.6178C78.2957 45.6236 77.8068 45.6772 77.3674 45.612C77.4999 45.4285 78.379 45.5955 77.7503 45.3233C78.0647 45.3187 78.3794 45.3142 78.6914 45.309C78.4931 45.4218 78.7598 45.506 78.7859 45.6172C78.7863 45.6174 78.7867 45.6176 78.7871 45.6178ZM27.6212 45.3667C28.5858 45.584 28.7685 45.491 29.7401 45.3404C29.877 45.5174 28.7186 45.8138 27.9929 45.879C27.8699 45.7083 27.7465 45.5374 27.6212 45.3667ZM53.3249 3.16402C53.5565 2.93847 55.2651 2.90906 56.114 2.97574C56.0129 3.00919 55.9115 3.04309 55.8104 3.07705C54.983 3.10603 54.1523 3.13504 53.3249 3.16402ZM123.353 45.2669C123.23 45.2798 123.115 45.2921 123.006 45.3039C123.126 45.2843 123.243 45.2705 123.353 45.2669ZM133.385 6.60995C133.839 6.69174 132.917 5.8843 134.037 6.86489C134.037 6.86473 134.037 6.86458 134.037 6.86442C134.761 7.53012 134.911 7.68636 135.554 8.3249C135.126 8.2889 133.753 7.1301 135.514 8.88582C135.536 8.9097 135.607 8.7467 135.87 9.0497C135.95 9.14409 136.128 9.51882 136.489 9.9932C136.606 10.1473 137.509 11.2734 136.227 9.78099C136.124 9.95129 135.91 10.0017 135.776 10.129C135.238 9.61348 135.097 8.93936 134.497 8.39974C133.598 7.60602 132.881 7.55789 132.999 7.02244C133.89 7.51593 135.177 8.7089 135.114 9.08388C135.788 9.77085 136.154 9.82575 135.699 9.16466C133.141 6.9427 135.324 8.17784 132.853 6.47357C132.784 6.5084 132.642 6.4974 132.619 6.56098C132.013 5.83917 133.226 6.57241 133.385 6.60995ZM137.903 12.1145C137.455 11.715 136.994 11.3411 136.524 10.9903C136.706 10.8432 137.081 10.9447 137.732 11.6157C137.791 11.7811 137.849 11.9488 137.903 12.1145ZM91.6792 2.69774C91.5941 2.82658 91.3672 2.94465 91.2017 3.06729C91.0221 2.95862 86.7668 2.85438 88.9317 2.74778C89.2461 2.73226 91.1638 2.96009 91.6792 2.69774ZM21.0357 45.3582C21.5029 45.5102 21.9774 45.6467 22.4575 45.767C21.706 45.7693 20.9498 45.7337 20.1936 45.6571C20.4793 45.5632 20.7601 45.4634 21.0357 45.3582ZM106.68 46.0597C106.469 46.0549 107.172 45.8777 106.338 45.9056C106.959 45.7923 107.542 45.6964 108.149 45.5898C108.331 45.6736 108.515 45.7571 108.697 45.8409C108.839 45.7871 108.984 45.7336 109.126 45.6798C109.04 45.8019 108.965 45.9212 108.875 46.0454C107.851 45.7835 107.617 46.0804 106.68 46.0597ZM76.2437 46.5373C76.0596 46.2719 77.5418 46.114 76.0837 46.0716C76.3603 45.8972 76.805 45.8058 77.6584 45.7902C77.7953 45.8569 77.9321 45.9231 78.0691 45.9898C78.088 45.8114 78.3075 45.745 78.7871 45.6178C78.7875 45.618 78.7879 45.6182 78.7884 45.6184C80.0858 45.6055 80.0082 45.665 80.3202 45.9584C78.9467 45.7928 78.9057 46.0608 77.9695 46.2202C77.3266 46.3298 76.4871 46.2802 76.2437 46.5373ZM96.213 2.69469C95.2418 2.91873 96.1134 3.1277 94.3901 2.88968C94.5012 2.83276 94.6129 2.77632 94.724 2.7194C95.2203 2.71061 95.7167 2.70245 96.213 2.69469ZM71.4503 45.6276C71.5614 46.0384 72.4759 46.3582 72.632 45.6898C71.7408 45.5538 72.1761 45.9324 71.4503 45.6276ZM120.937 46.3711C120.493 46.3848 120.183 46.3514 119.982 46.2987C119.519 46.1756 119.64 45.9547 119.982 45.7842C120.059 45.7451 120.147 45.7083 120.242 45.6752C120.349 45.7583 120.456 45.8407 120.563 45.9217C120.857 45.8757 121.148 45.8238 121.44 45.7664C121.277 45.9697 121.108 46.1717 120.937 46.3711ZM41.2378 46.0789C42.5475 45.7855 39.8241 45.9158 40.739 45.7326C41.4694 45.5861 42.4321 45.8818 42.068 46.067C41.8151 46.0722 41.5335 46.0758 41.2404 46.0789C41.2395 46.0789 41.2387 46.0789 41.2378 46.0789ZM48.8165 45.995C48.6014 45.6815 48.9114 45.7729 47.8767 45.8293C47.5812 45.8453 45.2331 45.7276 46.2189 45.9874C47.0579 45.9874 47.9443 45.9919 48.8165 45.995ZM137.491 37.0004C137.629 37.0714 136.75 38.6767 136.522 38.793C136.522 38.7931 136.522 38.7933 136.522 38.7934C135.965 39.1287 137.165 37.6757 136.424 38.1188C137.76 36.8832 137.522 36.0568 138.111 36.6121C137.525 37.5146 137.682 36.9994 137.491 37.0004ZM30.8914 2.52135C30.8905 2.52135 30.8897 2.52135 30.8888 2.52135C31.0103 2.52777 32.0107 2.72813 31.8891 2.79752C30.6859 2.73802 30.9003 2.60614 29.7803 2.82285C29.7189 2.75305 29.6662 2.68535 29.6001 2.61504C30.0445 2.57364 30.2909 2.48979 30.8914 2.52135ZM87.0786 2.42248C87.5207 2.38678 88.3273 2.53473 88.8309 2.52593C87.2281 3.0941 85.3128 2.56428 87.0786 2.42248ZM3.7617 16.8539C3.76147 16.8551 3.76123 16.8563 3.76099 16.8576C3.76083 16.8571 3.76072 16.8565 3.76056 16.8561C3.76094 16.8553 3.76132 16.8546 3.7617 16.8539ZM121.308 2.80342C121.254 2.76322 121.224 2.72948 121.214 2.70076C121.214 2.69812 121.214 2.69548 121.215 2.69284C121.243 2.72902 121.273 2.76576 121.308 2.80342ZM139.359 33.8232C139.871 33.2366 139.015 35.611 138.471 36.2416C138.429 36.1469 138.368 36.0967 138.354 35.9329C138.91 35.5076 139.29 33.9177 139.359 33.8232ZM87.2954 45.9614C89.2788 45.9666 86.6976 46.7183 86.5912 46.1186C86.5952 46.107 87.2442 45.9625 87.2954 45.9614ZM128.489 44.2362C128.114 44.6344 129.078 44.3251 127.556 44.8747C127.447 44.852 127.339 44.828 127.232 44.8036C127.657 44.628 128.077 44.438 128.489 44.2362ZM100.288 46.9483C102.785 46.8216 105.172 46.5979 103.546 45.9703C103.357 45.9905 103.166 46.0099 102.977 46.0301C102.948 46.3363 102.251 46.1692 101.231 46.1592C101.085 46.2808 100.519 46.3089 100.413 46.4122C100.208 46.6119 100.858 46.7522 100.288 46.9483ZM2.52022 29.7659C2.5808 29.7922 2.6414 29.817 2.70163 29.8432C2.85809 30.2116 3.02343 30.5726 3.19832 30.9279C3.08357 30.898 2.96863 30.8666 2.85401 30.8353C2.73409 30.4833 2.6229 30.1279 2.52054 29.7684C2.52043 29.7676 2.52033 29.7667 2.52022 29.7659ZM139.712 13.8623C139.091 13.9414 139.593 14.5458 140.482 15.9257C140.262 15.2293 140.004 14.5384 139.712 13.8623ZM60.1756 46.7152C60.1236 46.5518 60.0725 46.3888 60.0181 46.2254C59.1647 46.3956 59.3232 46.5828 59.7322 46.7991C59.881 46.7712 60.0268 46.7431 60.1756 46.7152ZM47.883 46.7848C48.237 46.8189 48.0564 46.6869 48.0934 46.6896C48.9893 46.7589 49.1155 46.8194 50.2148 46.7201C50.3495 46.6854 50.4819 46.649 50.6167 46.6133C50.1085 46.2708 49.7395 46.4575 48.664 46.2562C48.8579 46.3737 49.0509 46.4913 49.2448 46.6093C48.6469 46.5845 48.0514 46.56 47.4534 46.5351C47.3825 46.5714 47.3115 46.6073 47.2405 46.6435C47.4532 46.69 47.6727 46.7424 47.883 46.7848ZM2.01017 25.2217C2.00488 24.9197 2.0058 24.6158 2.01295 24.3107C2.01295 24.3107 2.01295 24.3107 2.01295 24.3107C2.01952 24.0303 2.03135 23.7514 2.04816 23.4747C1.96467 23.4504 1.88062 23.4267 1.79721 23.4019C1.82028 23.7044 1.84941 24.0075 1.88466 24.3107C1.88466 24.3107 1.88466 24.3107 1.88466 24.3107C1.92032 24.6175 1.96225 24.9214 2.01017 25.2217ZM131.346 5.39965C131.291 5.40146 131.237 5.40424 131.187 5.41019C131.209 5.38011 131.267 5.38072 131.346 5.39965ZM29.357 2.05873C28.6975 1.99975 27.7473 2.03848 27.0239 2.02608C27.0808 2.23766 28.9193 2.17918 29.5648 2.30744C29.6686 2.26947 29.6357 2.08355 29.357 2.05873ZM118.562 46.3728C118.397 46.4783 118.232 46.5834 118.069 46.6889C117.669 46.6776 117.269 46.6655 116.867 46.6542C116.855 46.7406 116.843 46.8277 116.831 46.9142C118.602 46.8019 118.194 47.0511 119.07 47.2968C118.9 46.989 118.733 46.6811 118.562 46.3728ZM8.27348 8.1481C7.3807 9.11239 7.18092 9.54191 7.85846 9.17933C8.1256 8.80782 8.4072 8.44132 8.69928 8.08441C8.55712 8.10462 8.41449 8.12645 8.27348 8.1481ZM108.595 2.05629C107.525 2.15315 107.507 1.80524 106.461 1.99953C107.021 2.06368 107.581 2.12855 108.139 2.1927C108.29 2.14734 108.444 2.10165 108.595 2.05629ZM142.179 31.113C142.434 30.683 142.132 29.7026 142.789 28.4794C142.72 28.1437 142.632 27.9265 142.549 27.6428C142.705 27.5078 142.865 27.3482 143.017 27.2136C143.017 27.2128 143.017 27.2119 143.017 27.211C143.107 25.997 142.85 26.765 142.713 26.721C142.659 26.7024 142.832 25.8296 142.68 26.0949C142.443 26.5503 142.315 28.3214 142.034 28.2759C142.24 27.6817 142.299 26.4745 142.079 26.8088C141.846 27.1677 142.011 28.3315 141.691 29.0019C142.331 28.0753 141.748 30.1544 141.339 30.288C141.224 31.5522 141.691 30.4956 141.963 29.2269C142.034 30.0557 142.163 28.8889 142.401 28.7383C142.415 29.5871 141.459 32.2828 142.179 31.113ZM89.8918 47.0515C90.743 47.0351 92.0729 47.1806 92.6557 46.9657C92.9951 46.8405 91.6621 46.7436 92.5813 46.547C91.752 46.5662 91.5627 46.643 91.7046 46.8153C91.5155 46.836 91.3242 46.8561 91.1351 46.8763C91.0477 46.8427 90.958 46.8095 90.8706 46.7759C90.7713 46.8468 90.6715 46.9171 90.5746 46.988C90.3738 46.974 90.1706 46.9601 89.9699 46.9456C89.9463 46.9812 89.906 47.0122 89.8918 47.0515ZM77.8661 2.06697C78.1024 2.0649 78.3364 2.06284 78.5728 2.06026C78.5467 2.0183 78.5157 1.9746 78.4858 1.93148C78.4644 1.8974 78.443 1.86333 78.4216 1.82925C78.5586 1.951 79.6845 2.15335 80.1588 2.02333C80.3973 1.95811 79.8546 1.72655 80.8655 1.68613C80.1329 1.69804 79.4542 1.72964 78.7428 1.7493C78.8067 1.68047 78.868 1.61092 78.9318 1.54209C78.9314 1.54199 78.931 1.54189 78.9305 1.54179C78.6942 1.52627 78.4551 1.51001 78.2188 1.49449C78.1006 1.68543 77.9843 1.87603 77.8661 2.06697ZM60.8685 47.0384C61.6746 46.9033 61.9445 46.8332 61.5639 46.6148C61.563 46.6147 61.5622 46.6146 61.5613 46.6145C61.2612 46.7112 60.9608 46.8079 60.6606 46.9047C60.7292 46.9492 60.7976 46.9939 60.8685 47.0384ZM125.077 2.10275C123.193 2.51565 127.118 2.94301 126.479 2.5108C126.451 2.48064 125.22 2.21975 125.077 2.10275ZM121.267 46.6102C120.841 46.6404 120.415 46.658 119.982 46.664C119.933 46.6646 119.883 46.6654 119.833 46.6661C119.883 46.7122 119.933 46.7584 119.982 46.8045C120.044 46.8601 120.107 46.9155 120.168 46.9708C120.542 46.8596 120.906 46.739 121.267 46.6102ZM4.40275 12.3986C3.9334 12.7122 3.21177 13.8634 3.1695 14.5613C3.34011 14.2659 3.51818 13.9727 3.70142 13.686C3.42827 14.2678 3.18609 14.8535 2.96006 15.4587C3.24182 15.6146 3.34291 14.8546 3.93221 13.9079C4.02083 13.7545 4.88916 13.0035 4.83804 12.5357C4.82251 12.4355 4.19293 13.419 4.45364 12.6294C4.25857 12.9281 4.10886 13.1979 3.94118 13.4911C3.8631 13.4766 3.78497 13.4622 3.70556 13.4504C3.92903 13.0919 4.16104 12.7425 4.40275 12.3986ZM94.8476 47.0268C96.0169 47.0443 96.1612 46.9175 96.4047 46.6935C95.8609 46.7189 95.317 46.7438 94.7733 46.7692C94.7992 46.8549 94.8217 46.9406 94.8476 47.0268ZM1.05227 22.6671C0.972973 23.3341 1.17442 23.058 1.19563 23.3256C1.2269 23.6852 1.23461 24.0033 1.23618 24.3107C1.24001 24.8667 1.22029 25.3762 1.31944 26.0144C1.27948 25.9512 1.24244 25.8929 1.20416 25.8314C1.20422 25.8323 1.20427 25.8332 1.20433 25.834C1.63633 30.5496 1.60559 28.0232 1.36569 25.2427C1.43077 25.1746 1.49633 25.1096 1.56148 25.0425C1.5296 24.7933 1.5022 24.5463 1.47698 24.3107C1.47698 24.3107 1.47698 24.3107 1.47698 24.3107C1.37612 23.3786 1.31404 22.6426 1.05227 22.6671ZM138.095 10.4477C138.095 10.3794 138.595 10.5782 137.96 9.97272C137.225 9.68857 138.081 10.4351 138.121 10.7531C137.952 10.5906 137.779 10.4264 137.608 10.2721C138.364 11.4219 138.529 11.5523 138.476 10.9697C138.472 10.9278 138.096 10.5151 138.095 10.4477ZM131.344 4.30551C130.9 4.70547 132.514 5.38256 132.558 5.21364C132.358 5.07379 132.147 5.05506 131.951 4.88288C131.752 4.71033 131.767 4.55739 131.344 4.30551ZM129.274 45.2035C129.322 45.1869 129.897 45.1891 129.769 45.0375C129.005 44.9117 127.935 45.6417 128.195 45.7071C128.592 45.5449 128.828 45.3749 129.274 45.2041C129.274 45.2039 129.274 45.2037 129.274 45.2035ZM9.59955 6.29483C9.56611 6.2899 8.50311 7.06061 8.44595 7.24917C8.41248 7.41839 8.437 7.5455 8.43439 7.69308C8.8768 7.12544 10.0496 6.27933 9.59749 6.29648C9.59817 6.29593 9.59886 6.29538 9.59955 6.29483Z" fill="black"/>
</svg>
