<svg preserveAspectRatio="none" width="100%" height="100%" overflow="visible" style="display: block;" viewBox="0 0 65 65" fill="none" xmlns="http://www.w3.org/2000/svg">
<path id="Vector" d="M32.5003 0C14.5531 0 0 14.9189 0 33.3229C0 48.0457 9.31227 60.5368 22.2257 64.9429C23.8499 65.2514 24.4463 64.22 24.4463 63.3398C24.4463 62.5452 24.4159 59.9203 24.4022 57.136C15.3606 59.1515 13.4527 53.2042 13.4527 53.2042C11.9742 49.3526 9.84395 48.3282 9.84395 48.3282C6.89533 46.2601 10.0664 46.3028 10.0664 46.3028C13.3298 46.5376 15.0483 49.7366 15.0483 49.7366C17.9471 54.8308 22.6515 53.3581 24.506 52.5065C24.7978 50.3531 25.64 48.8827 26.5695 48.0507C19.3507 47.2083 11.7622 44.3508 11.7622 31.5825C11.7622 27.9444 13.0317 24.9717 15.1107 22.638C14.7733 21.7987 13.6609 18.4097 15.4256 13.8195C15.4256 13.8195 18.1548 12.924 24.3656 17.2353C26.958 16.497 29.7383 16.1268 32.5003 16.1141C35.2622 16.1268 38.0448 16.4968 40.642 17.2353C46.8452 12.9242 49.5706 13.8198 49.5706 13.8198C51.3396 18.4094 50.2267 21.799 49.8893 22.638C51.9731 24.9717 53.234 27.9444 53.234 31.5825C53.234 44.3813 45.631 47.1994 38.3939 48.0244C39.5596 49.0584 40.5983 51.0864 40.5983 54.1953C40.5983 58.6538 40.5608 62.2422 40.5608 63.3398C40.5608 64.2267 41.1458 65.2657 42.7931 64.9382C55.6994 60.5274 65 48.0411 65 33.3231C65 14.9189 50.4489 0 32.5003 0ZM12.1725 47.4691C12.1009 47.6347 11.8468 47.6844 11.6154 47.5706C11.3796 47.4621 11.2473 47.2364 11.3235 47.0703C11.3935 46.8998 11.6482 46.8521 11.8833 46.9664C12.1195 47.0752 12.254 47.303 12.1725 47.4691ZM13.7711 48.9317C13.6162 49.079 13.3131 49.0105 13.1074 48.7778C12.8949 48.5456 12.855 48.2347 13.0122 48.0853C13.1721 47.938 13.4659 48.007 13.6789 48.2392C13.8917 48.4742 13.9329 48.7827 13.7711 48.9317ZM14.868 50.8029C14.6687 50.9448 14.3432 50.8118 14.1418 50.5155C13.9428 50.2193 13.9428 49.8639 14.1461 49.7215C14.348 49.5791 14.6687 49.7072 14.8726 50.0014C15.0711 50.3026 15.0711 50.6579 14.8677 50.8032M16.7223 52.9705C16.5443 53.172 16.1647 53.1178 15.8869 52.8429C15.6028 52.5742 15.5238 52.1931 15.7026 51.9916C15.8829 51.7896 16.2645 51.8463 16.5443 52.1192C16.8261 52.3873 16.9124 52.7713 16.7223 52.9705ZM19.1196 53.702C19.0409 53.9631 18.6753 54.0818 18.3074 53.9709C17.9397 53.8566 17.6993 53.551 17.7734 53.2873C17.8499 53.0243 18.217 52.9009 18.5877 53.0197C18.9549 53.1332 19.1961 53.4367 19.1196 53.7023M21.8476 54.0128C21.8568 54.2875 21.5447 54.5153 21.1583 54.5205C20.7698 54.5293 20.4552 54.307 20.4509 54.0363C20.4509 53.759 20.7561 53.5333 21.1448 53.5265C21.5312 53.5187 21.8476 53.7395 21.8476 54.0128ZM24.5276 53.9074C24.5738 54.1755 24.3054 54.451 23.9215 54.5244C23.5445 54.5949 23.1951 54.4294 23.1471 54.1636C23.1004 53.8887 23.3738 53.6132 23.7504 53.5421C24.1348 53.4737 24.4786 53.6348 24.5276 53.9074Z" fill="var(--fill-0, black)"/>
</svg>
