<svg preserveAspectRatio="none" width="100%" height="100%" overflow="visible" style="display: block;" viewBox="0 0 100 100" fill="none" xmlns="http://www.w3.org/2000/svg">
<path id="Vector" d="M50.0004 0C22.3895 0 0 22.9522 0 51.266C0 73.9165 14.3266 93.1335 34.1934 99.9122C36.6922 100.387 37.6098 98.7999 37.6098 97.4458C37.6098 96.2234 37.5629 92.1851 37.5418 87.9016C23.6316 91.0024 20.6965 81.8527 20.6965 81.8527C18.4219 75.9271 15.1445 74.3511 15.1445 74.3511C10.6082 71.1694 15.4867 71.2351 15.4867 71.2351C20.5074 71.5964 23.1512 76.5178 23.1512 76.5178C27.6109 84.3551 34.8484 82.0894 37.7016 80.7793C38.1504 77.4663 39.4461 75.2042 40.8762 73.9241C29.7703 72.6281 18.0957 68.2321 18.0957 48.5885C18.0957 42.9914 20.0488 38.4179 23.2473 34.8277C22.7281 33.5365 21.0168 28.3226 23.7316 21.2608C23.7316 21.2608 27.9305 19.883 37.4855 26.5159C41.4738 25.3801 45.7512 24.8105 50.0004 24.7909C54.2496 24.8105 58.5305 25.3797 62.5262 26.5159C72.0695 19.8834 76.2625 21.2612 76.2625 21.2612C78.984 28.3222 77.2719 33.5369 76.7527 34.8277C79.9586 38.4179 81.8984 42.9914 81.8984 48.5885C81.8984 68.2789 70.2016 72.6145 59.0676 73.8837C60.8609 75.4745 62.459 78.5945 62.459 83.3774C62.459 90.2366 62.4012 95.7572 62.4012 97.4458C62.4012 98.8104 63.3012 100.409 65.8355 99.905C85.6914 93.1191 100 73.9093 100 51.2664C100 22.9521 77.6137 0 50.0004 0ZM18.727 73.0294C18.6168 73.2841 18.2258 73.3606 17.8699 73.1856C17.507 73.0186 17.3035 72.6713 17.4207 72.4158C17.5285 72.1535 17.9203 72.0802 18.282 72.256C18.6453 72.4234 18.8523 72.7739 18.727 73.0294ZM21.1863 75.2795C20.948 75.5062 20.4816 75.4008 20.1652 75.0428C19.8383 74.6855 19.777 74.2073 20.0188 73.9774C20.2648 73.7507 20.7168 73.8568 21.0445 74.2141C21.3719 74.5758 21.4352 75.0504 21.1863 75.2795ZM22.8738 78.1583C22.5672 78.3766 22.0664 78.172 21.7566 77.7162C21.4504 77.2604 21.4504 76.7137 21.7633 76.4946C22.0738 76.2755 22.5672 76.4726 22.8809 76.9252C23.1863 77.3886 23.1863 77.9353 22.8734 78.1587M25.7266 81.493C25.4527 81.803 24.8687 81.7197 24.4414 81.2968C24.0043 80.8834 23.8828 80.2971 24.1578 79.9871C24.4352 79.6763 25.0223 79.7636 25.4527 80.1833C25.8863 80.5959 26.0191 81.1866 25.7266 81.493ZM29.4148 82.6184C29.2938 83.0202 28.7312 83.2028 28.1652 83.0322C27.5996 82.8564 27.2297 82.3862 27.3438 81.9804C27.4613 81.5759 28.0262 81.3861 28.5965 81.5687C29.1613 81.7433 29.5324 82.2103 29.4148 82.6189M33.6117 83.0967C33.6258 83.5192 33.1457 83.8696 32.5512 83.8777C31.9535 83.8913 31.4695 83.5492 31.4629 83.1327C31.4629 82.7062 31.9324 82.3589 32.5305 82.3485C33.125 82.3365 33.6117 82.6761 33.6117 83.0967ZM37.7348 82.9345C37.8059 83.347 37.393 83.7707 36.8023 83.8837C36.2223 83.9922 35.6848 83.7375 35.6109 83.3286C35.5391 82.9056 35.9598 82.4819 36.5391 82.3725C37.1305 82.2672 37.6594 82.5151 37.7348 82.9345Z" fill="var(--fill-0, black)"/>
</svg>
